<svg id="Capa_1" data-name="Capa 1" xmlns="http://www.w3.org/2000/svg" viewBox="0 0 54 52.34"><defs><style>.cls-1{fill:#62498a;}</style></defs><title>aprende_icon</title><path class="cls-1" d="M53.29,23.49,42.88,31.33,32.72,17.89l10.37-7.83,10.2,13.44"/><path class="cls-1" d="M39.95,29.72c-2-2.66-4-5-5.61-7.56C33,20,31.4,18.7,28.8,19.27s-5.8.5-7.53,2.06c-3.14,2.84-5.39,6.68-8,10.15.73.65,1.24,1,1.67,1.5,1.76,1.88,3.28,4,5.29,5.58,1.64,1.25,4,1.54,5.79,2.62s3,2,4.64-.26c1-1.28,2.72-1.95,4.13-2.88,4.46-2.92,4.61-3.25,3.1-6.53l2.09-1.79m-3.34,4.9c-1.44-1-2.86-2.1-4.32-3.12s-1.38-.94-2.56.81l4.7,3.59-.5.74-5.4-3.49c-1.59,3.52,3.05,3.06,3,5.28-2.13.82-3.33-3.56-6.26-1.26l3.71,3-.61.8-13-9.71c3-3.34,4.6-7.78,9.35-9.43-1.13,1.21-2.23,2.46-3.4,3.63s-1.18,2,0,3.08,2.21,1,3-.25c1.61-2.45,3.19-2.07,5.14-.34a71.92,71.92,0,0,0,6.21,4.69,8.25,8.25,0,0,0,2,.75L36.6,34.63"/><path class="cls-1" d="M19.19,18.13c-2.33-2-4.84-3.74-7.24-5.64-1.27-1-2.1-.63-3,.54Q5.22,18,1.35,23c-1,1.22-.84,2.1.39,3,2.38,1.77,4.72,3.6,7.08,5.39.36.28.78.48,1.3.8a5.74,5.74,0,0,0,1.27-.93c2.79-3.58,5.59-7.16,8.25-10.84a2.36,2.36,0,0,0-.44-2.25M10.73,29.44a1.72,1.72,0,0,1-1.65.06c-2.25-1.59-4.41-3.3-6.83-5.14l8.37-10.91,7.85,6c-2.66,3.47-5.15,6.76-7.74,10"/></svg>