<svg id="Layer_1" data-name="Layer 1" xmlns="http://www.w3.org/2000/svg" viewBox="0 0 73 78"><defs><style>.cls-1{fill:#fff;}</style></defs><title>Artboard 3</title><path class="cls-1" d="M51.72,33.36H18.83a.71.71,0,0,1-.73-.73v-17A1.57,1.57,0,0,1,19.65,14h31a1.56,1.56,0,0,1,1.54,1.61V32.93A.44.44,0,0,1,51.72,33.36ZM19,32.49h32.3V15.61a.69.69,0,0,0-.66-.74h-31a.69.69,0,0,0-.67.74Z"/><path class="cls-1" d="M51.84,38.29H18.42a2.89,2.89,0,0,1-2.88-2.9V32.93a.44.44,0,0,1,.44-.44h38.3a.44.44,0,0,1,.44.44v2.46A2.9,2.9,0,0,1,51.84,38.29ZM16.42,33.36v2a2,2,0,0,0,2,2H51.84a2,2,0,0,0,2-2v-2Z"/><path class="cls-1" d="M49,33.36H21.27a.44.44,0,0,1-.44-.43V17.32a.44.44,0,0,1,.44-.44H49a.44.44,0,0,1,.44.44V32.93A.44.44,0,0,1,49,33.36Zm-27.28-.87H48.55V17.75H21.71Z"/><path class="cls-1" d="M38.94,36H31.32a.43.43,0,0,1-.43-.43V32.93a.43.43,0,0,1,.43-.44h7.62a.43.43,0,0,1,.43.44v2.64A.43.43,0,0,1,38.94,36Zm-7.18-.87H38.5V33.36H31.76Z"/><path class="cls-1" d="M54.8,49.21a.44.44,0,0,1-.44-.44v-4.2H34.75a.44.44,0,0,1-.44-.44V37.86a.44.44,0,0,1,.88,0V43.7H54.8a.44.44,0,0,1,.44.43v4.64A.44.44,0,0,1,54.8,49.21Z"/><path class="cls-1" d="M24.76,64c-3.79,0-7.82-1.14-7.82-3.26A2.1,2.1,0,0,1,18.13,59a.44.44,0,0,1,.48,0,12.25,12.25,0,0,0,6.15,1.34A12.33,12.33,0,0,0,30.91,59a.46.46,0,0,1,.48,0,2.08,2.08,0,0,1,1.18,1.71C32.57,62.86,28.55,64,24.76,64Zm-6.38-4.08a1.18,1.18,0,0,0-.57.82c0,1.13,2.85,2.39,7,2.39s6.94-1.26,6.94-2.39a1.18,1.18,0,0,0-.57-.82,13.88,13.88,0,0,1-6.37,1.32A13.63,13.63,0,0,1,18.38,59.92Z"/><path class="cls-1" d="M24.76,61.24c-3.79,0-7.82-1.12-7.82-3.19a2.17,2.17,0,0,1,1.19-1.78.44.44,0,0,1,.49,0c1.13.82,3.48,1.33,6.14,1.33a11.8,11.8,0,0,0,6.14-1.33.46.46,0,0,1,.49,0,2.18,2.18,0,0,1,1.18,1.78C32.57,60.12,28.55,61.24,24.76,61.24Zm-6.39-4.07a1.18,1.18,0,0,0-.56.88c0,1.09,3,2.32,7,2.32s6.94-1.23,6.94-2.32a1.2,1.2,0,0,0-.56-.89,13.34,13.34,0,0,1-6.38,1.32A13.09,13.09,0,0,1,18.37,57.17Z"/><path class="cls-1" d="M24.76,58.48c-3.79,0-7.82-1.12-7.82-3.19a2.06,2.06,0,0,1,1.14-1.73.45.45,0,0,1,.46,0,12.55,12.55,0,0,0,6.22,1.34,12.34,12.34,0,0,0,6.15-1.33.43.43,0,0,1,.45,0,2,2,0,0,1,1.21,1.74C32.57,57.36,28.55,58.48,24.76,58.48Zm-6.44-4a1.11,1.11,0,0,0-.51.83c0,1.09,3,2.32,7,2.32s6.94-1.23,6.94-2.32a1.09,1.09,0,0,0-.55-.84,13.57,13.57,0,0,1-6.39,1.33A13.89,13.89,0,0,1,18.32,54.46Z"/><path class="cls-1" d="M24.76,55.78c-3.79,0-7.82-1.14-7.82-3.25s4-3.2,7.82-3.2,7.81,1.12,7.81,3.2S28.55,55.78,24.76,55.78Zm0-5.57c-4,0-7,1.22-7,2.32s2.85,2.38,7,2.38,6.94-1.26,6.94-2.38S28.73,50.21,24.76,50.21Z"/><rect class="cls-1" x="21.91" y="52.06" width="0.99" height="1"/><rect class="cls-1" x="23.89" y="52.06" width="0.93" height="1"/><rect class="cls-1" x="25.8" y="52.06" width="0.99" height="1"/><path class="cls-1" d="M24.76,50.27a.44.44,0,0,1-.44-.44V42a.44.44,0,0,1,.44-.44h6.82V37.86a.44.44,0,1,1,.88,0V42a.44.44,0,0,1-.44.43H25.19v7.43A.44.44,0,0,1,24.76,50.27Z"/><path class="cls-1" d="M36.21,20.86H25.34a.44.44,0,0,1-.44-.44.44.44,0,0,1,.44-.43H36.21a.43.43,0,0,1,.43.43A.44.44,0,0,1,36.21,20.86Z"/><path class="cls-1" d="M41.32,20.86h-3.2a.44.44,0,0,1-.43-.44.43.43,0,0,1,.43-.43h3.2a.44.44,0,0,1,.44.43A.44.44,0,0,1,41.32,20.86Z"/><path class="cls-1" d="M36.21,23.21H25.34a.44.44,0,1,1,0-.87H36.21a.44.44,0,0,1,0,.87Z"/><path class="cls-1" d="M41.32,23.21h-3.2a.44.44,0,0,1,0-.87h3.2a.44.44,0,1,1,0,.87Z"/><path class="cls-1" d="M36.21,25.56H25.34a.44.44,0,0,1,0-.88H36.21a.44.44,0,0,1,0,.88Z"/><path class="cls-1" d="M41.32,25.56h-3.2a.44.44,0,0,1,0-.88h3.2a.44.44,0,1,1,0,.88Z"/><path class="cls-1" d="M36.21,28H25.34a.44.44,0,1,1,0-.87H36.21a.44.44,0,0,1,0,.87Z"/><path class="cls-1" d="M41.32,28h-3.2a.44.44,0,0,1,0-.87h3.2a.44.44,0,1,1,0,.87Z"/><path class="cls-1" d="M55.73,48.78h-2A1.72,1.72,0,0,0,52,50.5v5.12a1.72,1.72,0,0,0,1.72,1.72h2a1.72,1.72,0,0,0,1.73-1.72V50.5A1.72,1.72,0,0,0,55.73,48.78Zm-3.45,2A1.7,1.7,0,0,1,54,49.08h.49v3.15H52.28Zm4.84,4.61a1.69,1.69,0,0,1-1.69,1.69H54a1.69,1.69,0,0,1-1.69-1.69V52.72h4.84Zm0-3.16H54.94V49.08h.49a1.7,1.7,0,0,1,1.69,1.7Z"/></svg>