<svg id="Layer_1" data-name="Layer 1" xmlns="http://www.w3.org/2000/svg" viewBox="0 0 73 78"><defs><style>.cls-1{fill:#fff;}</style></defs><title>Artboard 1</title><path class="cls-1" d="M59.18,51.47a5.81,5.81,0,0,1,.86.06,1.58,1.58,0,0,1,1.37,1.32,4.6,4.6,0,0,1-.33,2.94,3.62,3.62,0,0,1-3.17,1.94H15A3.49,3.49,0,0,1,11.63,55a5.94,5.94,0,0,1-.09-2,1.74,1.74,0,0,1,1.74-1.57h.53V34.78c0-4,0-7.89,0-11.84a2.65,2.65,0,0,1,2-2.58,2.44,2.44,0,0,1,.66-.09H56.6A2.66,2.66,0,0,1,59,22.08a3.71,3.71,0,0,1,.15,1q0,14.07,0,28.15ZM21.12,49.72A3.88,3.88,0,0,1,19,48.36a3.56,3.56,0,0,1-.85-2.26c0-2.74,0-5.47,0-8.21a8.64,8.64,0,0,1,.1-1.24,5.09,5.09,0,0,1,1.21-2.51,5.4,5.4,0,0,1,2.11-1.51,4.56,4.56,0,0,1,1.58-.37c1.65,0,3.29,0,4.94,0a7.56,7.56,0,0,1,1.06.08,5.18,5.18,0,0,1,3,1.62,5.29,5.29,0,0,1,1.5,3.74V39c.94,0,1.87,0,2.79,0a2.63,2.63,0,0,1,1.6.45c.24.17.44.37.66.56l1.85-1.8,0,0H38.15A1.82,1.82,0,0,1,37,37.85a1.64,1.64,0,0,1-.68-1.32c0-3.48,0-7,0-10.44a1.63,1.63,0,0,1,0-.31,1.79,1.79,0,0,1,1.73-1.37H52.85a3.28,3.28,0,0,1,.63,0,1.76,1.76,0,0,1,1.39,1.73c0,3.4,0,6.8,0,10.2a1.84,1.84,0,0,1-.28,1,1.63,1.63,0,0,1-1.29.8c-.86,0-1.72,0-2.59,0h-7.4a.38.38,0,0,0-.25.09Q41.17,40.13,39.31,42a.73.73,0,0,0-.17.31,2.75,2.75,0,0,1-.63,1.19,2.59,2.59,0,0,1-1.94.83H30.66v7.17H57.4V23.06a.93.93,0,0,0-1-1H16.54a.92.92,0,0,0-.67.27,1.09,1.09,0,0,0-.28.86q0,8.16,0,16.31V51.13c0,.12,0,.23,0,.35H21s.11-.07.11-.11C21.12,50.83,21.12,50.28,21.12,49.72Zm17-13.29h4.15a.34.34,0,0,0,.2-.06,5,5,0,0,0,.41-.38L45,34a.85.85,0,0,1,.62-.26.89.89,0,0,1,.84.54.91.91,0,0,1-.2,1l-1,1-.2.22h8.06V26.2h-15Zm-6.25,4.39v-.24c0-1.11,0-2.22-.05-3.33a2.87,2.87,0,0,0-.48-1.43,3.74,3.74,0,0,0-1.13-1.18,3.26,3.26,0,0,0-1.82-.59c-1.57,0-3.14,0-4.7,0a3.56,3.56,0,0,0-2,.51,3.51,3.51,0,0,0-1.79,3.07c0,2.68,0,5.37,0,8.06a4,4,0,0,0,0,.6,2.14,2.14,0,0,0,1.18,1.55V38.89a.75.75,0,0,1,0-.21.89.89,0,0,1,1-.68.94.94,0,0,1,.74.93q0,3.54,0,7.1v.21h6v-7.3a1.27,1.27,0,0,1,.07-.38.87.87,0,0,1,1-.55.89.89,0,0,1,.71.85c0,1.14,0,2.29,0,3.43v.19h6a.82.82,0,0,0,.72-1,.87.87,0,0,0-.9-.68H31.86ZM13.31,53.28v.84A1.8,1.8,0,0,0,15.13,56H58a1.77,1.77,0,0,0,1.57-1.11,3.2,3.2,0,0,0,.14-.75c0-.27,0-.54,0-.81H40.74c0,.22,0,.43,0,.63a1,1,0,0,1,0,.3.9.9,0,0,1-1,.66c-2.09,0-4.17,0-6.26,0a4.71,4.71,0,0,1-.53,0,.86.86,0,0,1-.71-.82v-.74Zm9.6-1.81H25V48H22.91Zm3.89-3.42v3.43h2a.14.14,0,0,0,0-.06c0-1.07,0-2.14,0-3.22,0-.13,0-.17-.17-.17H27Z"/><path class="cls-1" d="M21.79,27.49a4.12,4.12,0,1,1,3.81,4.12A4.12,4.12,0,0,1,21.79,27.49Zm1.79,0A2.33,2.33,0,1,0,26,25.16,2.33,2.33,0,0,0,23.58,27.49Z"/><path class="cls-1" d="M50.08,28.79H47.75a.07.07,0,0,1-.07-.07V27.45a.07.07,0,0,1,.07-.07h2.33a.07.07,0,0,1,.07.07v1.27A.07.07,0,0,1,50.08,28.79Zm-2.26-.14H50V27.52H47.82Z"/><path class="cls-1" d="M50.08,28.87H47.75a.15.15,0,0,1-.15-.15V27.45a.15.15,0,0,1,.15-.15h2.33a.15.15,0,0,1,.15.15v1.27A.15.15,0,0,1,50.08,28.87Zm-2.18-.3h2v-1h-2Z"/><path class="cls-1" d="M48.91,28.15H47a.07.07,0,0,1-.07-.07A.07.07,0,0,1,47,28h1.92a.07.07,0,0,1,.07.06A.07.07,0,0,1,48.91,28.15Z"/><path class="cls-1" d="M48.91,28.23H47a.15.15,0,0,1-.15-.15.15.15,0,0,1,.15-.14h1.92a.15.15,0,0,1,.15.14A.15.15,0,0,1,48.91,28.23Z"/><path class="cls-1" d="M50.08,31.33H47.75a.07.07,0,0,1-.07-.07V30a.07.07,0,0,1,.07-.07h2.33a.07.07,0,0,1,.07.07v1.27A.07.07,0,0,1,50.08,31.33Zm-2.26-.14H50V30.06H47.82Z"/><path class="cls-1" d="M50.08,31.41H47.75a.15.15,0,0,1-.15-.15V30a.15.15,0,0,1,.15-.15h2.33a.15.15,0,0,1,.15.15v1.27A.15.15,0,0,1,50.08,31.41Zm-2.18-.3h2v-1h-2Z"/><path class="cls-1" d="M48.91,30.69H46.52s-.07,0-.07-.06a.08.08,0,0,1,.07-.07h2.39a.07.07,0,0,1,.07.07A.07.07,0,0,1,48.91,30.69Z"/><path class="cls-1" d="M48.91,30.77H46.52a.14.14,0,0,1-.14-.14.14.14,0,0,1,.14-.15h2.39a.15.15,0,0,1,.15.15A.15.15,0,0,1,48.91,30.77Z"/><path class="cls-1" d="M50.08,33.86H47.75a.07.07,0,0,1-.07-.07V32.52a.07.07,0,0,1,.07-.07h2.33a.07.07,0,0,1,.07.07v1.27A.07.07,0,0,1,50.08,33.86Zm-2.26-.14H50V32.59H47.82Z"/><path class="cls-1" d="M50.08,33.94H47.75a.15.15,0,0,1-.15-.15V32.52a.15.15,0,0,1,.15-.15h2.33a.15.15,0,0,1,.15.15v1.27A.15.15,0,0,1,50.08,33.94Zm-2.18-.3h2v-1h-2Z"/><path class="cls-1" d="M48.91,33.23H47a.08.08,0,0,1-.07-.07.07.07,0,0,1,.07-.07h1.92a.07.07,0,0,1,.07.07A.08.08,0,0,1,48.91,33.23Z"/><path class="cls-1" d="M48.91,33.3H47a.15.15,0,0,1-.15-.14A.15.15,0,0,1,47,33h1.92a.15.15,0,0,1,.15.15A.15.15,0,0,1,48.91,33.3Z"/><path class="cls-1" d="M47,33.81h-.92a.07.07,0,0,1-.07-.07V31.49h-.64a.07.07,0,0,1,0-.14h.71a.07.07,0,0,1,.07.07v2.25H47v-6.1h-.78v2.25a.07.07,0,0,1-.07.07h-.71a.07.07,0,1,1,0-.14h.64V27.5a.07.07,0,0,1,.07-.07H47a.07.07,0,0,1,.07.07v6.24A.07.07,0,0,1,47,33.81Z"/><path class="cls-1" d="M47,33.89h-.92a.15.15,0,0,1-.15-.15V31.57h-.56a.15.15,0,1,1,0-.3h.71a.15.15,0,0,1,.15.15v2.17h.62V27.65h-.62v2.17a.15.15,0,0,1-.15.15h-.71a.15.15,0,1,1,0-.3H46V27.5a.15.15,0,0,1,.15-.15H47a.15.15,0,0,1,.15.15v6.24A.15.15,0,0,1,47,33.89Z"/><path class="cls-1" d="M43.66,32.73c-1,0-1.87-.33-1.87-.75a.49.49,0,0,1,.27-.4h.07a3,3,0,0,0,1.53.34,3,3,0,0,0,1.54-.34h.08a.48.48,0,0,1,.26.4C45.54,32.4,44.72,32.73,43.66,32.73Zm-1.56-1c-.11.09-.17.17-.17.26,0,.29.71.62,1.73.62s1.75-.33,1.75-.62c0-.09-.06-.17-.17-.26a3.28,3.28,0,0,1-1.58.34A3.22,3.22,0,0,1,42.1,31.72Z"/><path class="cls-1" d="M43.66,32.81c-1.11,0-1.95-.35-1.95-.83a.56.56,0,0,1,.3-.46.14.14,0,0,1,.17,0,2.93,2.93,0,0,0,1.48.32,3,3,0,0,0,1.5-.32.12.12,0,0,1,.16,0,.56.56,0,0,1,.3.46C45.62,32.46,44.78,32.81,43.66,32.81Zm-1.55-1A.22.22,0,0,0,42,32c0,.22.64.54,1.65.54s1.67-.32,1.67-.54a.22.22,0,0,0-.1-.16,4,4,0,0,1-3.12,0Z"/><path class="cls-1" d="M43.66,32.06c-1.06,0-1.87-.33-1.87-.76a.49.49,0,0,1,.27-.39,0,0,0,0,1,.07,0,3.74,3.74,0,0,0,3.07,0,.06.06,0,0,1,.08,0,.48.48,0,0,1,.26.39C45.54,31.73,44.72,32.06,43.66,32.06Zm-1.56-1a.3.3,0,0,0-.17.25c0,.3.7.62,1.73.62s1.75-.32,1.75-.62a.33.33,0,0,0-.17-.25,3.21,3.21,0,0,1-1.58.33A3.12,3.12,0,0,1,42.1,31.05Z"/><path class="cls-1" d="M43.66,32.14c-1.13,0-1.95-.35-1.95-.84a.57.57,0,0,1,.3-.46.17.17,0,0,1,.17,0,2.88,2.88,0,0,0,1.48.32,2.93,2.93,0,0,0,1.5-.32.15.15,0,0,1,.16,0,.57.57,0,0,1,.3.46C45.62,31.78,44.78,32.14,43.66,32.14Zm-1.56-1a.24.24,0,0,0-.09.16c0,.23.63.54,1.65.54s1.67-.31,1.67-.54a.22.22,0,0,0-.1-.16,4,4,0,0,1-3.13,0Z"/><path class="cls-1" d="M43.66,31.38c-1.06,0-1.87-.33-1.87-.75a.49.49,0,0,1,.27-.4,0,0,0,0,1,.07,0,3.74,3.74,0,0,0,3.07,0,.06.06,0,0,1,.08,0,.5.5,0,0,1,.26.4C45.54,31.05,44.72,31.38,43.66,31.38Zm-1.56-1a.34.34,0,0,0-.17.26c0,.29.7.61,1.73.61s1.75-.32,1.75-.61a.34.34,0,0,0-.17-.26,3.21,3.21,0,0,1-1.58.33A3.12,3.12,0,0,1,42.1,30.37Z"/><path class="cls-1" d="M43.66,31.46c-1.13,0-1.95-.35-1.95-.83a.6.6,0,0,1,.3-.47.17.17,0,0,1,.17,0,2.87,2.87,0,0,0,1.48.33,2.92,2.92,0,0,0,1.5-.33.15.15,0,0,1,.16,0,.59.59,0,0,1,.3.47C45.62,31.1,44.78,31.46,43.66,31.46Zm-1.55-1a.21.21,0,0,0-.1.16c0,.22.63.53,1.65.53s1.67-.31,1.67-.53a.24.24,0,0,0-.1-.16,3.39,3.39,0,0,1-1.57.31A3.32,3.32,0,0,1,42.11,30.47Z"/><path class="cls-1" d="M43.66,30.7c-1.06,0-1.87-.32-1.87-.75a.5.5,0,0,1,.26-.39.06.06,0,0,1,.08,0,2.94,2.94,0,0,0,1.53.34,2.9,2.9,0,0,0,1.54-.34.06.06,0,0,1,.08,0,.5.5,0,0,1,.26.39C45.54,30.37,44.72,30.7,43.66,30.7Zm-1.57-1a.31.31,0,0,0-.16.25c0,.3.7.61,1.73.61s1.75-.31,1.75-.61a.34.34,0,0,0-.17-.25,3.15,3.15,0,0,1-1.58.33A3.19,3.19,0,0,1,42.09,29.7Z"/><path class="cls-1" d="M43.66,30.78c-1.13,0-1.95-.35-1.95-.83a.59.59,0,0,1,.29-.46.17.17,0,0,1,.17,0,2.88,2.88,0,0,0,1.49.33,3,3,0,0,0,1.5-.32.14.14,0,0,1,.16,0,.57.57,0,0,1,.3.46C45.62,30.42,44.78,30.78,43.66,30.78Zm-1.56-1A.2.2,0,0,0,42,30c0,.22.63.54,1.65.54s1.67-.32,1.67-.54a.22.22,0,0,0-.1-.15,4.11,4.11,0,0,1-3.13,0Z"/><path class="cls-1" d="M43.66,30c-1,0-1.87-.32-1.87-.74s.82-.76,1.87-.76,1.88.33,1.88.76S44.72,30,43.66,30Zm0-1.36c-1,0-1.73.32-1.73.62s.7.61,1.73.61,1.75-.33,1.75-.61S44.71,28.67,43.66,28.67Z"/><path class="cls-1" d="M43.66,30.11c-1.11,0-1.95-.35-1.95-.82s.84-.84,1.95-.84,2,.36,2,.84S44.78,30.11,43.66,30.11Zm0-1.36c-1,0-1.65.31-1.65.54s.63.53,1.65.53,1.67-.32,1.67-.53S44.69,28.75,43.66,28.75Z"/><rect class="cls-1" x="42.88" y="29.13" width="0.3" height="0.3"/><rect class="cls-1" x="43.17" y="29.13" width="0.3" height="0.3"/><rect class="cls-1" x="43.45" y="29.13" width="0.3" height="0.3"/><rect class="cls-1" x="43.74" y="29.13" width="0.3" height="0.3"/><rect class="cls-1" x="44.02" y="29.13" width="0.3" height="0.3"/><rect class="cls-1" x="49.03" y="28.19" width="0.3" height="0.3"/><rect class="cls-1" x="49.32" y="28.19" width="0.3" height="0.3"/><rect class="cls-1" x="49.6" y="28.19" width="0.3" height="0.3"/><rect class="cls-1" x="49.03" y="27.67" width="0.3" height="0.3"/><rect class="cls-1" x="49.32" y="27.67" width="0.3" height="0.3"/><rect class="cls-1" x="49.6" y="27.67" width="0.3" height="0.3"/><rect class="cls-1" x="49.03" y="30.73" width="0.3" height="0.3"/><rect class="cls-1" x="49.32" y="30.73" width="0.3" height="0.3"/><rect class="cls-1" x="49.6" y="30.73" width="0.3" height="0.3"/><rect class="cls-1" x="49.03" y="30.22" width="0.3" height="0.29"/><rect class="cls-1" x="49.32" y="30.22" width="0.3" height="0.29"/><rect class="cls-1" x="49.6" y="30.22" width="0.3" height="0.29"/><rect class="cls-1" x="49.03" y="33.27" width="0.3" height="0.3"/><rect class="cls-1" x="49.32" y="33.27" width="0.3" height="0.3"/><rect class="cls-1" x="49.6" y="33.27" width="0.3" height="0.3"/><rect class="cls-1" x="49.03" y="32.75" width="0.3" height="0.3"/><rect class="cls-1" x="49.32" y="32.75" width="0.3" height="0.3"/><rect class="cls-1" x="49.6" y="32.75" width="0.3" height="0.3"/></svg>