<svg id="Layer_1" data-name="Layer 1" xmlns="http://www.w3.org/2000/svg" viewBox="0 0 248.24 78"><defs><style>.cls-1{fill:#69488e;}</style></defs><title>Artboard 6</title><path class="cls-1" d="M68,23h4.87v9a11.32,11.32,0,0,1,2.89-1.76,7.88,7.88,0,0,1,3-.59,6.83,6.83,0,0,1,4.91,1.91,6.45,6.45,0,0,1,1.71,4.86V48.7H80.44V40.57a18.87,18.87,0,0,0-.32-4.36A3,3,0,0,0,79,34.51a3.18,3.18,0,0,0-1.93-.57,3.78,3.78,0,0,0-2.56.94A4.93,4.93,0,0,0,73,37.44a20.59,20.59,0,0,0-.21,3.82V48.7H68Z"/><path class="cls-1" d="M104.46,30.16h4.91V48.7h-4.91v-2a9.61,9.61,0,0,1-2.88,1.87,8.45,8.45,0,0,1-3.13.57,8.93,8.93,0,0,1-6.56-2.79,9.42,9.42,0,0,1-2.76-6.92,9.67,9.67,0,0,1,2.67-7,9,9,0,0,1,9.81-2.12,9,9,0,0,1,2.85,1.89ZM99.3,34a5.13,5.13,0,0,0-3.78,1.52,5.87,5.87,0,0,0,0,7.87,5.11,5.11,0,0,0,3.77,1.55,5.21,5.21,0,0,0,3.84-1.53,5.4,5.4,0,0,0,1.52-4A5.17,5.17,0,0,0,99.3,34"/><path class="cls-1" d="M114.33,30.16h4.91v1.9a12,12,0,0,1,3-1.86,7.82,7.82,0,0,1,2.77-.52A6.93,6.93,0,0,1,130,31.61a6.38,6.38,0,0,1,1.7,4.84V48.7h-4.85V40.58a19.58,19.58,0,0,0-.31-4.41,3,3,0,0,0-1.1-1.66,3.18,3.18,0,0,0-1.93-.57,3.72,3.72,0,0,0-2.55,1,5,5,0,0,0-1.48,2.61,19.26,19.26,0,0,0-.22,3.76V48.7h-4.91Z"/><path class="cls-1" d="M150.87,23h4.91V48.7h-4.91v-2A9.61,9.61,0,0,1,148,48.61a8.51,8.51,0,0,1-3.14.57,8.91,8.91,0,0,1-6.55-2.79,9.39,9.39,0,0,1-2.77-6.92,9.63,9.63,0,0,1,2.68-7,9,9,0,0,1,9.8-2.12,9.12,9.12,0,0,1,2.86,1.89Zm-5.16,11a5.1,5.1,0,0,0-3.78,1.52,5.31,5.31,0,0,0-1.51,3.91,5.39,5.39,0,0,0,1.53,4,5.47,5.47,0,0,0,7.61,0,5.36,5.36,0,0,0,1.52-4A5.17,5.17,0,0,0,145.71,34"/><polygon class="cls-1" points="158.57 30.16 163.59 30.16 168.67 41.8 174.27 30.16 179.3 30.16 167.05 55.49 161.98 55.49 166 47.32 158.57 30.16"/><polygon class="cls-1" points="182.69 23.32 187.6 23.32 187.6 30.16 190.51 30.16 190.51 34.16 187.6 34.16 187.6 48.7 182.69 48.7 182.69 34.16 180.18 34.16 180.18 30.16 182.69 30.16 182.69 23.32"/><path class="cls-1" d="M212.74,40.78H197a5,5,0,0,0,1.82,3.14,5.93,5.93,0,0,0,3.79,1.17,6.77,6.77,0,0,0,4.73-1.82l4.13,1.84a9.59,9.59,0,0,1-3.7,3.07,12.07,12.07,0,0,1-5.13,1,10.45,10.45,0,0,1-7.49-2.75,9.13,9.13,0,0,1-2.9-6.9,9.4,9.4,0,0,1,2.89-7,10,10,0,0,1,7.23-2.81,10.36,10.36,0,0,1,7.52,2.81,9.82,9.82,0,0,1,2.89,7.4Zm-4.91-3.67a4.76,4.76,0,0,0-1.92-2.52,5.76,5.76,0,0,0-3.32-1,6.06,6.06,0,0,0-3.6,1.09,6.26,6.26,0,0,0-1.81,2.4Z"/><path class="cls-1" d="M235.86,33.91,231.77,36a6.77,6.77,0,0,0-2.28-1.58,7,7,0,0,0-2.63-.45,6.35,6.35,0,0,0-4.46,1.56,5.19,5.19,0,0,0-1.7,4,5,5,0,0,0,1.64,3.86,6.12,6.12,0,0,0,4.3,1.5,6.4,6.4,0,0,0,5.13-2.13l3.87,2.51q-3.13,3.89-8.88,3.88c-3.44,0-6.13-1-8.08-2.9a9.23,9.23,0,0,1-2.92-6.78,9.12,9.12,0,0,1,1.42-5,9.78,9.78,0,0,1,4-3.56,12.31,12.31,0,0,1,5.69-1.3,12.09,12.09,0,0,1,5.23,1.1,9.85,9.85,0,0,1,3.8,3.13"/><path class="cls-1" d="M42.27,28.29,14.59,55.56a25.26,25.26,0,0,0,27.68,7.49Z"/><path class="cls-1" d="M40.89,15A25.24,25.24,0,0,0,9.5,45.91Z"/><path class="cls-1" d="M52.79,55.93a25.23,25.23,0,0,0,0-33.38Z"/><path class="cls-1" d="M177.87,60.28l.62.33a3.31,3.31,0,0,1-.71,1,2.79,2.79,0,0,1-.91.57,3.09,3.09,0,0,1-1.14.2,2.71,2.71,0,0,1-2.2-.94,3.23,3.23,0,0,1-.12-4.11,2.71,2.71,0,0,1,2.28-1.1,2.83,2.83,0,0,1,2.36,1.13,3.19,3.19,0,0,1,.63,2h-5.19a2.39,2.39,0,0,0,.65,1.67,2,2,0,0,0,1.53.66,2.57,2.57,0,0,0,.86-.16,2.19,2.19,0,0,0,.7-.41A3.46,3.46,0,0,0,177.87,60.28Zm0-1.58a2.52,2.52,0,0,0-.44-1,2,2,0,0,0-.75-.58,2.23,2.23,0,0,0-1-.22,2.11,2.11,0,0,0-1.46.55,2.55,2.55,0,0,0-.67,1.21Z"/><path class="cls-1" d="M179.58,58.92h2.92v.65h-2.92Z"/><path class="cls-1" d="M187,54.31l3.63,7.91h-.84l-1.23-2.6h-3.35L184,62.22h-.87l3.68-7.91Zm-.1,1.68-1.34,2.86h2.67Z"/><path class="cls-1" d="M197.29,57.58l-.59.37a2.61,2.61,0,0,0-3.83-.34,2.28,2.28,0,0,0-.69,1.67,2.46,2.46,0,0,0,.32,1.21,2.23,2.23,0,0,0,.88.87,2.6,2.6,0,0,0,3.32-.71l.59.39a2.71,2.71,0,0,1-1.11,1,3.5,3.5,0,0,1-1.58.35,3.13,3.13,0,0,1-2.27-.88,2.91,2.91,0,0,1-.9-2.15,3.11,3.11,0,0,1,.42-1.58A3,3,0,0,1,193,56.62a3.35,3.35,0,0,1,1.64-.4,3.48,3.48,0,0,1,1.11.17,3.19,3.19,0,0,1,.9.47A2.44,2.44,0,0,1,197.29,57.58Z"/><path class="cls-1" d="M204.46,56.37v5.85h-.73v-1a3.17,3.17,0,0,1-1,.87,2.89,2.89,0,0,1-3.36-.61,3.07,3.07,0,0,1-.86-2.19,3,3,0,0,1,.87-2.17,2.84,2.84,0,0,1,2.11-.89,2.72,2.72,0,0,1,1.28.3,3,3,0,0,1,1,.92V56.37Zm-3,.57a2.18,2.18,0,0,0-1.15.31,2.32,2.32,0,0,0-.83.87,2.4,2.4,0,0,0,0,2.36,2.3,2.3,0,0,0,.84.88,2.17,2.17,0,0,0,1.13.32,2.3,2.3,0,0,0,1.16-.32,2.1,2.1,0,0,0,.83-.84,2.53,2.53,0,0,0-.36-2.9A2.18,2.18,0,0,0,201.5,56.94Z"/><path class="cls-1" d="M211.89,54.11v8.11h-.74v-1a3.25,3.25,0,0,1-1,.87,2.85,2.85,0,0,1-1.27.29,2.79,2.79,0,0,1-2.09-.9,3,3,0,0,1-.87-2.19,3,3,0,0,1,.88-2.17,2.92,2.92,0,0,1,3.39-.59,3,3,0,0,1,1,.92V54.11Zm-3,2.83a2.17,2.17,0,0,0-1.14.31,2.34,2.34,0,0,0-.84.87,2.48,2.48,0,0,0-.31,1.18,2.38,2.38,0,0,0,.32,1.18,2.27,2.27,0,0,0,2,1.2,2.27,2.27,0,0,0,1.15-.32,2.19,2.19,0,0,0,.84-.84,2.48,2.48,0,0,0,.29-1.2,2.37,2.37,0,0,0-.66-1.7A2.18,2.18,0,0,0,208.92,56.94Z"/><path class="cls-1" d="M218.42,60.28l.62.33a3.31,3.31,0,0,1-.71,1,2.75,2.75,0,0,1-.9.57,3.17,3.17,0,0,1-1.14.2,2.73,2.73,0,0,1-2.21-.94,3.23,3.23,0,0,1-.12-4.11,2.72,2.72,0,0,1,2.28-1.1,2.82,2.82,0,0,1,2.36,1.13,3.19,3.19,0,0,1,.64,2h-5.19a2.39,2.39,0,0,0,.64,1.67,2,2,0,0,0,1.53.66,2.52,2.52,0,0,0,.86-.16,2.24,2.24,0,0,0,.71-.41A3.75,3.75,0,0,0,218.42,60.28Zm0-1.58a2.51,2.51,0,0,0-.43-1,2,2,0,0,0-.75-.58,2.24,2.24,0,0,0-1-.22,2.07,2.07,0,0,0-1.45.55,2.47,2.47,0,0,0-.68,1.21Z"/><path class="cls-1" d="M220.61,56.37h.75v1a2.71,2.71,0,0,1,.79-.82,2.23,2.23,0,0,1,1.18-.34,2,2,0,0,1,.8.16,1.57,1.57,0,0,1,.61.45,2.41,2.41,0,0,1,.42.79,2.8,2.8,0,0,1,.92-1,2.15,2.15,0,0,1,1.2-.35,1.85,1.85,0,0,1,1.05.3,1.82,1.82,0,0,1,.68.86,4.54,4.54,0,0,1,.22,1.64v3.2h-.75V59a4.09,4.09,0,0,0-.14-1.29,1.09,1.09,0,0,0-.45-.57,1.33,1.33,0,0,0-.76-.21,1.58,1.58,0,0,0-1,.32,1.84,1.84,0,0,0-.66.86,5.82,5.82,0,0,0-.2,1.8v2.29h-.74v-3a5.58,5.58,0,0,0-.13-1.44,1.19,1.19,0,0,0-.46-.6,1.23,1.23,0,0,0-.77-.23,1.64,1.64,0,0,0-1,.31,1.81,1.81,0,0,0-.66.85,4.71,4.71,0,0,0-.21,1.63v2.48h-.75Z"/><path class="cls-1" d="M230.18,56.37H231l2,4.5,1.93-4.5h.79l-3.44,8h-.79l1.11-2.58Z"/></svg>