<svg id="Capa_1" data-name="Capa 1" xmlns="http://www.w3.org/2000/svg" viewBox="0 0 54 52.34"><defs><style>.cls-1{fill:#62498a;}</style></defs><title>estudia_icon</title><path class="cls-1" d="M27,2.42A24.5,24.5,0,0,0,9.67,44.25,3,3,0,0,0,13.94,40a18.47,18.47,0,1,1,26.12,0,3,3,0,0,0,2.13,5.15,3,3,0,0,0,2.13-.88A24.49,24.49,0,0,0,27,2.42"/><path class="cls-1" d="M24.44,46.06H19.37v0l3.86-2.43C25.12,42.4,26,41.12,26,39.33c0-2.37-1.58-4.84-6.11-4.84-3.8,0-5.79,2.17-5.79,4.22a1.84,1.84,0,0,0,2.08,2.06c2.41,0,1.15-3,3.58-3a1.67,1.67,0,0,1,1.85,1.72c0,.88-.39,1.47-1.43,2.19l-2,1.4c-3.92,2.73-4.24,3.41-4.24,4.73a1.74,1.74,0,0,0,1.81,1.76h8.69a1.79,1.79,0,1,0,0-3.57"/><path class="cls-1" d="M37.58,43.27V36.62a2.19,2.19,0,0,0-2.49-2.26c-1.11,0-1.72.49-2.94,1.93L27.7,41.67a4.12,4.12,0,0,0-1.28,2.64c0,1.28.56,2.28,2,2.28h5v1c0,1.4.68,2.3,2.06,2.3s2.07-.9,2.07-2.3v-1c1.25,0,2-.36,2-1.66s-.79-1.66-2-1.66m-4.13,0H29.91l3.5-4.58h0Z"/><path class="cls-1" d="M27,28.62h0a2.82,2.82,0,0,0,.54-.06l.16,0a2.45,2.45,0,0,0,.36-.12l.18-.09a2.87,2.87,0,0,0,.3-.18l.17-.14.11-.09a1.61,1.61,0,0,0,.14-.17l.1-.1,7.82-10a2.64,2.64,0,1,0-4.15-3.25l-6,7.65L24,19.13a2.64,2.64,0,0,0-3.78,3.68l4.88,5,.14.11.14.14.09.05.16.11.27.14.16.07a2.28,2.28,0,0,0,.32.1l.15,0a3.52,3.52,0,0,0,.47,0"/><path class="cls-1" d="M27.73,13.38a2.21,2.21,0,1,1-2.21-2.21,2.22,2.22,0,0,1,2.21,2.21"/><path class="cls-1" d="M13.7,26.13a2.21,2.21,0,1,1-2.21-2.21,2.22,2.22,0,0,1,2.21,2.21"/><path class="cls-1" d="M41.67,26.12a2.21,2.21,0,1,1-2.21-2.21,2.21,2.21,0,0,1,2.21,2.21"/></svg>