<svg id="Capa_1" data-name="Capa 1" xmlns="http://www.w3.org/2000/svg" viewBox="0 0 54 52.34"><defs><style>.cls-1{fill:#62498a;}</style></defs><title>formacion_icon</title><path class="cls-1" d="M48.44,32.77c0,3.74.35,7.45-.18,11-.2,1.35-2.43,3.39-3.77,3.42-11.71.26-23.42.16-35.14.13-2.61,0-3.92-1.37-3.9-4,0-3.42,0-6.84,0-10.09,5.82,1.51,11.53,2.93,17.18,4.52.8.22,1.26,1.57,2.08,1.87,1.19.44,3.34,1,3.7.47,2.17-3,5.45-2.54,8.36-3.37,3.8-1.08,7.49-2.53,11.66-4"/><path class="cls-1" d="M50.63,13H40.4a13.13,13.13,0,0,1-.41-2.9c.45-3.94-1.2-5.36-5.15-5.09-4.41.3-8.85.06-13.28.07-6.88,0-6.88,0-7.4,6.85,0,.24-.24.47-.59,1.1H3.05C1,27.75,4.21,32.28,17.93,35.12c.56.12,1.11.26,1.67.36,1.95.35,3.81,1,5.15-1.51.39-.71,3.22-1.14,3.52-.71,3.25,4.64,7.29,2.1,10.72,1,13.24-4.19,13.59-7,11.63-21.29m-17.35-.07q-6.15.2-12.31,0c-.63,0-1.21-1.07-1.82-1.64.68-.54,1.32-1.46,2-1.54,2.1-.21,4.24-.07,6.36-.07v0a37.61,37.61,0,0,1,5.51.08c.82.12,1.51,1.14,2.26,1.75-.68.52-1.35,1.45-2,1.48"/></svg>