<svg id="Layer_1" data-name="Layer 1" xmlns="http://www.w3.org/2000/svg" viewBox="0 0 73 78"><defs><style>.cls-1{fill:#8f9194;}</style></defs><title>Artboard 9</title><path class="cls-1" d="M24.26,30h28V28.23a2.64,2.64,0,0,0-2.62-2.63H38.09V24.06a4,4,0,0,0-3.94-3.93H27.42a3.88,3.88,0,0,0-2.78,1.16,3.82,3.82,0,0,0-1.16,2.77V25.6H11.91a2.64,2.64,0,0,0-2.63,2.63V51.7l8.84-17.91A7.27,7.27,0,0,1,24.26,30Zm1.85-5.92a1.26,1.26,0,0,1,.39-.92,1.29,1.29,0,0,1,.92-.39h6.73a1.31,1.31,0,0,1,1.31,1.31V25.6H26.11Zm0,0"/><path class="cls-1" d="M62,32.61H24.26A4.64,4.64,0,0,0,20.47,35L10.32,55.52a1.5,1.5,0,0,0,1.47,2.35H49.53a4.6,4.6,0,0,0,3.79-2.35L63.47,35A1.5,1.5,0,0,0,62,32.61Zm0,0"/></svg>