<svg id="Layer_1" data-name="Layer 1" xmlns="http://www.w3.org/2000/svg" viewBox="0 0 73 78"><defs><style>.cls-1{fill:#fff;}</style></defs><title>Artboard 2</title><path class="cls-1" d="M21.71,25.54a5.26,5.26,0,1,0-5.26-5.25,5.26,5.26,0,0,0,5.26,5.25Zm0,0"/><path class="cls-1" d="M25.51,51.61H15.1V35.5a1.8,1.8,0,0,0-3.6,0V61.17a1.8,1.8,0,1,0,3.6,0v-6h8.62v6a1.8,1.8,0,1,0,3.59,0V53.41a1.79,1.79,0,0,0-1.8-1.8Zm0,0"/><path class="cls-1" d="M59.7,43.88H37.24a1.8,1.8,0,0,0,0,3.6h9.43V59.37h-3a1.8,1.8,0,0,0,0,3.6h9.56a1.8,1.8,0,0,0,0-3.6h-3V47.48H59.7a1.8,1.8,0,0,0,0-3.6Zm0,0"/><path class="cls-1" d="M31.36,44.76H27.2V40.42a3.15,3.15,0,0,1-1.1-1l-5.67-8,6.92,6.67a2.27,2.27,0,0,0,1.56.63h6.92a1.75,1.75,0,0,0-.39,1.06,1.81,1.81,0,0,0,1.8,1.8H47.45a1.81,1.81,0,0,0,1.67-1.12l4.49-11.09a1.8,1.8,0,1,0-3.33-1.35l-4,10H39.57a2.25,2.25,0,0,0,.6-1.51,2.15,2.15,0,0,0-.42-1.24,2.21,2.21,0,0,0-1.83-1H29.81l-6.26-6,3.61,2.38a4.51,4.51,0,0,0-4.48-4.09H20.75a4.53,4.53,0,0,0-4.53,4.53V46.45a3.76,3.76,0,0,0,3.45,3.71h9V60.27a2.7,2.7,0,1,0,5.4,0V47.46a2.7,2.7,0,0,0-2.7-2.7Zm0,0"/></svg>