<svg id="Capa_1" data-name="Capa 1" xmlns="http://www.w3.org/2000/svg" viewBox="0 0 175 62"><defs><style>.cls-1{fill:#fff;}</style></defs><title>asur_logo</title><path class="cls-1" d="M38.26,39.45a5.17,5.17,0,0,0-1.47-2c-1.89-2-4-3.77-5.74-5.91a1.21,1.21,0,0,1,.47-.72c1-.5,2.06-.22,3.1-.31.34,0,.76.07.94-.31s-.17-.64-.4-.89a20.78,20.78,0,0,1-2.61-2.89,1.27,1.27,0,0,1-.34-1L38.06,1.6a2.15,2.15,0,0,1,.25,1.55q0,13,0,26.07a3.34,3.34,0,0,0,.29,2.06.85.85,0,0,1,.19.5,19.37,19.37,0,0,1-.16,7.3A.81.81,0,0,1,38.26,39.45Z"/><path class="cls-1" d="M38.61,31.55v-.26h29.2c.07.47-.23.48-.45.54L45.31,37.21a6.1,6.1,0,0,1-.9.09,1.39,1.39,0,0,1-.86,0,26.46,26.46,0,0,1-4.27-4A2.21,2.21,0,0,1,38.61,31.55Z"/><path class="cls-1" d="M31.67,31.25,31,31.5H8.55l-.05-.32,23.7-5.8.68.66A32.84,32.84,0,0,1,31.67,31.25Z"/><path class="cls-1" d="M43.8,36.94l.61.36L38.67,60.4l-.41,0V39.45l.14-.39a1.73,1.73,0,0,1,1.71-1.54A22.48,22.48,0,0,1,43.8,36.94Z"/><path class="cls-1" d="M43.8,36.94c-.11.53-.31.76-1,.87-1.51.25-3.13.23-4.43,1.25,0-2.5-.39-5,.21-7.5Z"/><path class="cls-1" d="M31.67,31.25c-.14-.15-.4-.3-.39-.44.08-1.74.2-3.48,1.6-4.78,1.4,1.36,2.8,2.72,4.19,4.1.23.23.61.47.38.88s-.52.25-.82.25Z"/><path class="cls-1" d="M81.68,51.58a8.57,8.57,0,0,0,0-1.47h0c0-.79,0-1.58,0-2.36,0-.46.32-1.18-.64-1.14s-.63.74-.63,1.2c0,1.08,0,2.17.1,3.25a1.18,1.18,0,0,1-1,1.36c-1.35.37-2-.06-2.27-1.47a15.08,15.08,0,0,1-.08-3.53c0-.4,0-.8-.6-.81s-.74.18-.7.69c.12,1.52-.1,3,.17,4.57a1.9,1.9,0,0,0,2,1.72c.82,0,1.74-.64,2.24-.44C82.52,54.08,81.55,52.34,81.68,51.58Z"/><path class="cls-1" d="M160.46,50.24c0-.94,0-1.87,0-2.8,0-.41,0-.8-.59-.82s-.68.4-.67.88c0,1.08,0,2.17.05,3.24.12,1.23-.46,1.72-1.58,1.79s-1.67-.65-1.7-1.73,0-2.26,0-3.39c0-.41,0-.79-.56-.8s-.78.24-.75.8c.05,1.33,0,2.65.12,4,.11,1.69.93,2.44,2.59,2.2,1-.14,2.26.05,2.86-.32C161,52.73,160.26,51.28,160.46,50.24Z"/><path class="cls-1" d="M57.88,49.69c-.48-.25-1-.45-1.47-.69s-.78-.53-.68-1,.65-.52,1.08-.59a4.86,4.86,0,0,1,.74,0c.48,0,1.24.5,1.27-.39s-.78-.56-1.26-.61a4.45,4.45,0,0,0-1.46.09A1.84,1.84,0,0,0,54.52,48a1.81,1.81,0,0,0,1,2c.52.28,1.06.52,1.6.76s.92.56.83,1.09-.64.7-1.16.69a11.37,11.37,0,0,1-1.47-.11c-.39-.06-.79-.28-.87.37s.32.65.74.68a18.55,18.55,0,0,0,1.91.05,1.94,1.94,0,0,0,2-1.59A2,2,0,0,0,57.88,49.69Z"/><path class="cls-1" d="M152.37,50a13.07,13.07,0,0,0-1.42-.76c-.61-.29-1.48-.51-1.22-1.37s1.06-.5,2-.55c.13,0,.66.49,1-.16a.43.43,0,0,0-.19-.63,4,4,0,0,0-2.88,0,1.74,1.74,0,0,0-1.18,1.7c0,1,.61,1.46,1.37,1.93s2.36.44,1.95,1.73c-.35,1.1-1.69.57-2.63.44-.39-.06-.69-.07-.78.39s.13.63.55.68a7.1,7.1,0,0,0,2.78,0A1.67,1.67,0,0,0,153,52,1.78,1.78,0,0,0,152.37,50Z"/><path class="cls-1" d="M143.56,48.52c0-1.48,0-3,0-4.43,0-.39,0-.84-.57-.79-.44,0-.93,0-.86.69a55.61,55.61,0,0,1,.07,8.7c0,.47.11.73.64.77s.73-.28.73-.8C143.55,51.27,143.56,49.89,143.56,48.52Z"/><path class="cls-1" d="M165.56,46.35c-1-.08-1.77.81-2.87.25-.52-.26-.52.51-.47.93a17.17,17.17,0,0,1,.21,3.22c0,.64-.07,1.27-.11,1.91,0,.44.07.77.62.78s.68-.26.68-.72c0-1,0-2.06,0-3.09,0-1.58.43-2,2-2,.56,0,.86-.07.88-.63S166,46.38,165.56,46.35Z"/><path class="cls-1" d="M114.42,46.37c-.73,0-1.35.91-2.22.16-.24-.21-.79.09-.7.77.14,1,.14,2,.2,2.94h-.06c0,.64,0,1.28,0,1.92s-.43,1.31.64,1.27.55-.74.56-1.21c0-.94,0-1.87,0-2.81a1.67,1.67,0,0,1,1.84-1.83c.46,0,1.09.3,1.06-.53S115,46.33,114.42,46.37Z"/><path class="cls-1" d="M87,46.38a3.45,3.45,0,0,0-1.15.1c-.54.16-.95.87-1.62.07-.21-.25-1-.06-.87.72s.15,1.66.22,2.49h-.09c0,.83,0,1.67,0,2.5,0,.45-.37,1.18.58,1.18s.65-.77.66-1.29c0-.73-.06-1.47-.05-2.2,0-1.83.4-2.26,2.19-2.31.41,0,.65,0,.73-.47A.58.58,0,0,0,87,46.38Z"/><path class="cls-1" d="M73.43,45.74c-.76,1.14-1.81.57-2.75.6-2.26.09-3.34,1.91-2.34,3.87a3.69,3.69,0,0,1-.14,3c-.4,1-.87,1.76-.31,2.72s1.79,1.07,2.76,1.17A4.18,4.18,0,0,0,73.73,56a2.42,2.42,0,0,0,.71-2.43c-.28-1-1.11-1.19-2-1.31-.63-.08-1.28,0-1.92-.08-.46,0-1.15,0-1.15-.65s.71-.47,1.15-.49c2.36-.1,3.24-1.08,2.88-3.37-.09-.55-.08-.84.51-.93s.88-.36.62-.89A.72.72,0,0,0,73.43,45.74Zm-.69,7.92a1,1,0,0,1,.43,1.59c-.53.86-1.45.91-2.4,1A4.48,4.48,0,0,1,69.69,56,1.43,1.43,0,0,1,68.88,54C69.17,53.31,71.75,53.16,72.75,53.66ZM71,50.22c-1.16,0-1.83-.46-1.86-1.46a1.42,1.42,0,0,1,1.58-1.55,1.45,1.45,0,0,1,1.67,1.46A1.38,1.38,0,0,1,71,50.22Z"/><path class="cls-1" d="M101.77,45c-.52-.36.73-1.54-.66-1.59s-.63,1.09-.65,1.65c0,1-.12,1.59-1.44,1.36a2.81,2.81,0,0,0-3.17,1.88,4,4,0,0,0,.45,4.44c1,1.16,2.23,1,3.53.68.28-.08.46-.4.9-.12.84.54,1.11.06,1.06-.79A41.51,41.51,0,0,1,101.77,45Zm-2.64,7.59c-1.37.09-2.3-.85-2.35-2.4a2.55,2.55,0,0,1,2.12-2.89c1.28-.11,1.6.4,1.72,2.7C100.71,52,100.46,52.45,99.13,52.55Z"/><path class="cls-1" d="M132.37,43.36c-1-.07-.72.75-.68,1.25.11,1.27,0,2-1.69,1.78-2-.24-3.42,1.6-3.34,4,.08,2.17,1.33,3.37,3.35,3.21.8-.06,1.51-.5,2.41-.19.63.22.52-.52.52-.93,0-1.33,0-2.66,0-4h0c0-1.28,0-2.56,0-3.84C132.88,44.16,133.28,43.42,132.37,43.36Zm-1.85,9.17a1.93,1.93,0,0,1-2.05-.84,3.13,3.13,0,0,1,0-3.35,2,2,0,0,1,2.09-1.07c.77.07,1.3.4,1.21,1.31,0,.44,0,.88,0,1.71C131.61,50.9,132.33,52.32,130.52,52.53Z"/><path class="cls-1" d="M106.79,46.29a3.59,3.59,0,0,0-3.47,4,3.26,3.26,0,0,0,3.23,3.48,3.63,3.63,0,0,0,3.53-3.91C110.08,47.66,108.79,46.27,106.79,46.29Zm-.05,6.42c-1.18,0-2.1-1.18-2.09-2.74s.91-2.77,2.09-2.73,2.07,1.32,2,2.82S107.88,52.69,106.74,52.71Z"/><path class="cls-1" d="M121.92,50.59a7.38,7.38,0,0,1,0-.89c.38-3.16-1.29-3.69-4.34-3.24-.39.06-.84.18-.78.7s.59.34.94.35,1,0,1.48,0c.77,0,1.45.27,1.46,1.12s-.85.6-1.36.67c-1.16.18-2.25.4-2.76,1.64a1.75,1.75,0,0,0,.32,2.06,2.51,2.51,0,0,0,3.16.24c.7-.44,1.57,1.06,1.89-.27a10.37,10.37,0,0,0,0-2.36Zm-2.75,2c-.81,0-1.54-.13-1.5-.94.05-1.19,1-1.36,2-1.46.72-.08,1.05.13,1.08.94C120.8,52.38,119.94,52.46,119.17,52.55Z"/><path class="cls-1" d="M138.63,46.36a3,3,0,0,0-3.19,1,4.32,4.32,0,0,0-.24,4.84,4.45,4.45,0,0,0,4.57,1.27c.38-.12.63-.29.6-.7s-.44-.39-.77-.34a3.49,3.49,0,0,1-2.82-.47c-.48-.38-1-.88-.84-1.46s.92-.26,1.4-.36a3.42,3.42,0,0,1,.74,0h1c1.49,0,1.82-.46,1.4-1.91A2.38,2.38,0,0,0,138.63,46.36Zm.64,2.3c-.13,1.06-1.2.39-1.85.66-.44-.33-1.47.48-1.42-.63a1.6,1.6,0,0,1,1.75-1.45C138.69,47.23,139.37,47.83,139.27,48.66Z"/><path class="cls-1" d="M64.16,46.31c-2.11-.23-3.65,1.25-3.74,3.58s1.42,3.7,4,3.71a4.92,4.92,0,0,0,.72,0c.5-.09,1.26,0,1.18-.78s-.77-.28-1.15-.25A3,3,0,0,1,62,51.15c-.33-.58-.34-1,.55-1s2,0,2.95,0c.53,0,.93-.13,1-.79A2.66,2.66,0,0,0,64.16,46.31Zm1,2.3c-.14,1.1-1.16.46-1.79.7-.47-.28-1.49.41-1.41-.68a1.55,1.55,0,0,1,1.79-1.37C64.54,47.29,65.23,47.77,65.13,48.61Z"/><path class="cls-1" d="M93.81,50.56c0-.25,0-.49,0-.74.08-3-1.07-4-4-3.42-.45.08-1.12.09-1,.78s.7.28,1.08.31c.63,0,1.28,0,1.91.06a1,1,0,0,1,.86,1.06c0,.67-.5.58-.93.64a10.84,10.84,0,0,0-1.59.29,2.2,2.2,0,0,0-1.74,2.52c.31,1.35,1.32,1.59,2.5,1.48.39,0,.89,0,1.12-.28.59-.61,1.6,1,1.89-.35a11.76,11.76,0,0,0,0-2.35Zm-1.18.53c0,1.4-.92,1.42-1.81,1.46-.71,0-1.37-.23-1.26-1,.16-1.17,1.17-1.26,2.11-1.36S92.69,50.51,92.63,51.09Z"/><path class="cls-1" d="M52.78,50.68c0-.34,0-.69,0-1,0-2.87-1.6-4-4.38-3.14-.34.11-.72.17-.69.62,0,.65.56.38.9.39.64,0,1.28,0,1.92,0a1,1,0,0,1,1,1.06c0,.79-.6.6-1.05.66a9.94,9.94,0,0,0-1,.14c-1.64.39-2.44,1.48-2.12,2.82.28,1.15,1.43,1.63,3,1.24.14,0,.34,0,.42-.13.6-.72,1.63.86,2-.3a7.19,7.19,0,0,0-.09-2.34Zm-2.91,1.86c-.68,0-1.39-.13-1.29-1,.14-1.22,1.13-1.32,2.19-1.38.82-.14.83.46.83,1.1C51.61,52.48,50.7,52.49,49.87,52.53Z"/></svg>