<svg id="Capa_10" data-name="Capa 10" xmlns="http://www.w3.org/2000/svg" viewBox="0 0 515 131.18"><defs><style>.cls-1{fill:#252f3e;}.cls-2{fill:#f90;}</style></defs><title>aws_logo</title><path class="cls-1" d="M213.14,49.71a20.44,20.44,0,0,0,.73,6A36.07,36.07,0,0,0,216,60.53a2.93,2.93,0,0,1,.47,1.55,2.69,2.69,0,0,1-1.27,2L211,66.91a3.19,3.19,0,0,1-1.74.6,3.07,3.07,0,0,1-2-.94,20.77,20.77,0,0,1-2.41-3.16c-.67-1.14-1.34-2.42-2.07-4a24.63,24.63,0,0,1-19.64,9.27c-5.61,0-10.09-1.61-13.36-4.84s-4.94-7.52-4.94-12.9a17.34,17.34,0,0,1,6.08-13.84c4.08-3.49,9.49-5.24,16.37-5.24a52.61,52.61,0,0,1,7.08.54c2.47.34,5,.87,7.68,1.48V29c0-5.11-1.07-8.67-3.14-10.75s-5.75-3.09-10.89-3.09a30.24,30.24,0,0,0-7.22.87,53,53,0,0,0-7.22,2.28,19.1,19.1,0,0,1-2.34.87,4.07,4.07,0,0,1-1.07.2c-.94,0-1.4-.67-1.4-2.08V14a4.26,4.26,0,0,1,.47-2.35,5,5,0,0,1,1.88-1.41,38.51,38.51,0,0,1,8.44-3A40.53,40.53,0,0,1,190,6c8,0,13.8,1.81,17.56,5.44s5.56,9.14,5.56,16.53V49.71Zm-27.35,9.72a21.77,21.77,0,0,0,6.92-1.21,15,15,0,0,0,6.38-4.3,10.66,10.66,0,0,0,2.28-4.3,24.12,24.12,0,0,0,.67-5.84V41a56.1,56.1,0,0,0-6.18-1.14,50.62,50.62,0,0,0-6.32-.4c-4.5,0-7.79.87-10,2.69s-3.29,4.37-3.29,7.73c0,3.16.81,5.51,2.49,7.12A9.69,9.69,0,0,0,185.79,59.44Zm54.29,7.41a3.74,3.74,0,0,1-2.55-.67,5.47,5.47,0,0,1-1.41-2.62L220.36,11.73a11.75,11.75,0,0,1-.6-2.68,1.47,1.47,0,0,1,1.61-1.68h7.29a3.65,3.65,0,0,1,2.57.66,6.5,6.5,0,0,1,1.32,2.57l11.06,43.59L253.89,10.6A4.62,4.62,0,0,1,255.14,8a4.53,4.53,0,0,1,2.63-.66H263a4,4,0,0,1,2.63.66,4.44,4.44,0,0,1,1.25,2.57l10.4,44.12L288.72,10.6A5.65,5.65,0,0,1,290,8a4.29,4.29,0,0,1,2.57-.66h6.12A1.46,1.46,0,0,1,300.38,9a6.59,6.59,0,0,1-.13,1.05,9.37,9.37,0,0,1-.46,1.65l-15.87,50.9a5,5,0,0,1-1.38,2.57,4.21,4.21,0,0,1-2.5.66h-5.46s-2.15.71-2.69.24a4.76,4.76,0,0,1-1.28-2.69L260.19,20.07,249.84,63.33A5.25,5.25,0,0,1,248.56,66a9.37,9.37,0,0,1-2.69.83Zm86.58,2a44.91,44.91,0,0,1-10.45-1.22,30.88,30.88,0,0,1-7.81-2.71,4.89,4.89,0,0,1-2.1-1.9,4.79,4.79,0,0,1-.41-1.9V57.63c0-1.43.54-2.1,1.56-2.1a3.84,3.84,0,0,1,1.22.2c.41.14,1,.41,1.7.68a36.92,36.92,0,0,0,7.47,2.38,40.76,40.76,0,0,0,8.08.81c4.28,0,7.6-.75,9.91-2.24a7.31,7.31,0,0,0,3.53-6.45,6.61,6.61,0,0,0-1.83-4.75c-1.22-1.29-3.53-2.44-6.86-3.53l-9.84-3.05c-5-1.56-8.62-3.87-10.86-6.92a16.17,16.17,0,0,1-3.39-9.84,15.11,15.11,0,0,1,1.83-7.53,17.45,17.45,0,0,1,4.89-5.57,21.54,21.54,0,0,1,7.06-3.53A29.58,29.58,0,0,1,328.9,5a34.07,34.07,0,0,1,4.55.27c1.56.2,3,.48,4.41.75a29,29,0,0,1,3.87,1.09,14.82,14.82,0,0,1,2.85,1.22,5.87,5.87,0,0,1,2,1.7,3.66,3.66,0,0,1,.61,2.24v3.19c0,1.43-.54,2.17-1.56,2.17a7.06,7.06,0,0,1-2.58-.81,31.05,31.05,0,0,0-13-2.65c-3.87,0-6.92.61-9,1.9a6.55,6.55,0,0,0-3.19,6,6.41,6.41,0,0,0,2,4.82c1.36,1.29,3.87,2.58,7.47,3.73L337,33.74c4.89,1.56,8.42,3.73,10.52,6.52a15.36,15.36,0,0,1,3.12,9.5,17.45,17.45,0,0,1-1.76,7.87,18.25,18.25,0,0,1-5,6,21.88,21.88,0,0,1-7.53,3.8A32.27,32.27,0,0,1,326.66,68.83Z"/><path class="cls-2" d="M339.13,101.16c-22.1,16.33-54.22,25-81.83,25a148,148,0,0,1-99.9-38.09c-2.08-1.88-.2-4.43,2.28-3,28.49,16.53,63.62,26.54,100,26.54A199.49,199.49,0,0,0,335.9,96.05C339.6,94.37,342.75,98.47,339.13,101.16Zm9.2-10.48c-2.82-3.63-18.68-1.75-25.87-.87-2.15.27-2.49-1.61-.54-3,12.63-8.87,33.39-6.32,35.81-3.36s-.67,23.78-12.5,33.73c-1.81,1.55-3.56.74-2.75-1.28,2.69-6.65,8.67-21.63,5.84-25.19Z"/></svg>