<svg id="Capa_1" data-name="Capa 1" xmlns="http://www.w3.org/2000/svg" viewBox="0 0 175 62"><defs><style>.cls-1{fill:#fff;}</style></defs><title>banco_pichincha_logo</title><path class="cls-1" d="M113.72,38.89q0,3.9,0,7.81c0,1.91,0,1.85-1.85,1.93-1,0-1.27-.22-1.26-1.22q.09-6.27,0-12.54c0-.94.31-1,1.15-1.13a3.6,3.6,0,0,1,4,2.29c1.17,2.29,2.61,4.45,3.94,6.66.15.24.2.58.67.72,0-1.33,0-2.6,0-3.87,0-1.63,0-3.26,0-4.89,0-.67.21-.86.87-.87,2.29,0,2.29,0,2.29,2.2,0,3.87,0,7.75,0,11.62,0,.78-.2,1.14-1,1a7.35,7.35,0,0,0-1.32,0,2.16,2.16,0,0,1-2.15-1.23c-1.68-2.87-3.41-5.7-5.12-8.54Z"/><path class="cls-1" d="M90,23.07c0-2.84,0-5.69,0-8.53,0-.87.18-1.19,1.11-1.16,2,.07,2,0,2,2,0,3.94,0,7.88,0,11.82,0,.81-.25,1-1,1A3.64,3.64,0,0,1,88,25.94c-1.19-2.32-2.65-4.5-4-6.74a1.21,1.21,0,0,0-.63-.67c0,.65,0,1.24,0,1.84,0,2.31,0,4.62,0,6.93,0,.7-.21.93-.92.93-2.22,0-2.22,0-2.22-2.16,0-3.87,0-7.74,0-11.61,0-.87.28-1,1.09-1.09,2-.24,3.19.54,4.11,2.33,1.32,2.55,2.92,5,4.4,7.43Z"/><path class="cls-1" d="M155.81,41.19c0,2.17,0,4.35,0,6.52,0,.73-.24.92-.94.91-2.15,0-2.15,0-2.15-2.13,0-1.09,0-2.17,0-3.26,0-.56-.17-.8-.76-.79-1.6,0-3.19,0-4.79,0-.66,0-.8.29-.79.86,0,1.49,0,3,0,4.48,0,.59-.16.83-.8.84-2.33,0-2.33.08-2.33-2.26,0-3.87,0-7.74,0-11.61,0-.75.2-1,1-1,2.16,0,2.16,0,2.16,2.13,0,1,0,2,0,3,0,.58.21.77.78.76q2.39,0,4.79,0c.58,0,.78-.21.77-.78,0-1.09,0-2.17,0-3.26a2,2,0,0,1,2.74-1.77c.45.18.31.56.32.87C155.82,36.84,155.81,39,155.81,41.19Z"/><path class="cls-1" d="M87.2,41.18c0-2.17,0-4.35,0-6.52,0-.65.17-.89.85-.9,2.27,0,2.27-.06,2.27,2.23,0,.92,0,1.84,0,2.75,0,.68.24.88.89.87,1.49,0,3,0,4.48,0,.69,0,1-.18.95-.92-.05-1,0-2,0-3.06a2,2,0,0,1,2.82-1.84c.34.14.31.41.31.67,0,4.48,0,9,0,13.45,0,.54-.23.72-.74.69a7.53,7.53,0,0,0-1.32,0c-.83.1-1.15-.17-1.11-1.05.07-1.39,0-2.79,0-4.18,0-.69-.17-1-.91-1-1.53,0-3.06,0-4.59,0-.62,0-.84.22-.82.83,0,1.49,0,3,0,4.48,0,.68-.23.86-.89.87-2.24,0-2.24,0-2.24-2.14Q87.2,43.83,87.2,41.18Z"/><path class="cls-1" d="M126.47,41.06a7,7,0,0,1,4.13-6.7,7.61,7.61,0,0,1,8.43.87c.38.3,1.27.56.81,1.35a1.9,1.9,0,0,1-2.57,1,7.12,7.12,0,0,0-2-1,4.45,4.45,0,0,0-5.6,4.69,4.28,4.28,0,0,0,2.75,4.25,4.65,4.65,0,0,0,5.33-1.12c.44-.46.73-.52,1.09,0a3.76,3.76,0,0,0,.34.38c1.33,1.43,1.35,1.48-.26,2.58a8.07,8.07,0,0,1-8.51.51C127.67,46.56,126.48,44.19,126.47,41.06Z"/><path class="cls-1" d="M70.37,41.27c0-3.24,1.34-5.65,4.23-7a7.6,7.6,0,0,1,8.32.91c.39.31,1.25.58.8,1.37a1.89,1.89,0,0,1-2.58.95,7.05,7.05,0,0,0-2.11-1,4.51,4.51,0,0,0-5.47,5,4.31,4.31,0,0,0,3,4,4.63,4.63,0,0,0,5.14-1.21c.46-.48.73-.47,1.08,0a2.18,2.18,0,0,0,.21.22c1.49,1.58,1.52,1.68-.32,2.85a8.08,8.08,0,0,1-8.42.33A6.89,6.89,0,0,1,70.37,41.27Z"/><path class="cls-1" d="M103.89,28.44c-3.85,0-6.81-2.2-7.6-5.64-.87-3.79.62-7.32,3.93-8.81a7.63,7.63,0,0,1,8.5,1c.37.3,1.07.55.75,1.24a2.06,2.06,0,0,1-2.38,1.11,5,5,0,0,1-.69-.42,4.62,4.62,0,0,0-6.22.94,5.17,5.17,0,0,0,.47,6.45,4.67,4.67,0,0,0,6.38.06c.81-.77,1.16-.66,1.82.1,1.25,1.43,1.29,1.41-.25,2.54A7.65,7.65,0,0,1,103.89,28.44Z"/><path class="cls-1" d="M64.33,41.18c0-2.14,0-4.28,0-6.42,0-.72.13-1,.94-1,2.24,0,2.24,0,2.24,2.25,0,3.84,0,7.67,0,11.51,0,.81-.17,1.13-1.05,1.11-2.12,0-2.12,0-2.12-2.15Q64.33,43.83,64.33,41.18Z"/><path class="cls-1" d="M103.66,41.19c0-2.2,0-4.41,0-6.61,0-.62.19-.8.81-.82,2.27,0,2.27-.07,2.27,2.2,0,3.9,0,7.8,0,11.69,0,.77-.22,1-1,1-2.11,0-2.12,0-2.12-2.15Q103.66,43.83,103.66,41.19Z"/><path class="cls-1" d="M36.7,13.38H4.51c-1.7,0-1.7,0-1.7,1.66q0,10.6,0,21.19c0,7.2,5.1,12.36,12.3,12.39s14.4,0,21.6,0c1.35,0,1.36,0,1.36-1.37q0-16.25,0-32.5C38.05,13.39,38.05,13.38,36.7,13.38ZM31.26,31c-1.15,0-2.31,0-3.46,0-.66,0-.91-.23-.91-.88,0-1.49,0-3,0-4.48,0-.8-.28-1.08-1.07-1.05-1.46,0-2.92,0-4.38,0-.68,0-1-.19-1-.92,0-1.15,0-2.31,0-3.46,0-.72.28-.95,1-.94,1.66,0,3.33,0,5,0s3.26,0,4.89,0c.7,0,1,.24,1,.94q0,4.89,0,9.78C32.29,30.73,32,31,31.26,31Z"/><path class="cls-1" d="M60.58,20.91c-.33-.29-.36-.48,0-.81A3.64,3.64,0,0,0,61.33,16a3.88,3.88,0,0,0-3.4-2.4,71.22,71.22,0,0,0-7.43-.16c-.69,0-.64.42-.64.88q0,3.21,0,6.42c0,2.21,0,4.42,0,6.62,0,.38-.15.89.52.88a75.83,75.83,0,0,0,7.73-.12,4.06,4.06,0,0,0,3.65-2.84A3.84,3.84,0,0,0,60.58,20.91ZM53,16.72c0-.37.31-.4.59-.4H55.1a7.77,7.77,0,0,1,2.22.12,1.28,1.28,0,0,1,1.14,1.23,1.3,1.3,0,0,1-1,1.48,13.75,13.75,0,0,1-4.12.2.37.37,0,0,1-.38-.39C53,18.2,53,17.46,53,16.72Zm4.64,8.45a17.68,17.68,0,0,1-4.24.19c-.31,0-.4-.21-.4-.47,0-.78,0-1.56,0-2.33,0-.45.26-.58.65-.57h1.62a8,8,0,0,1,2.32.15,1.49,1.49,0,0,1,1.26,1.49A1.46,1.46,0,0,1,57.64,25.16Z"/><path class="cls-1" d="M119.13,13.18a7.45,7.45,0,0,0-7.56,7.65,7.4,7.4,0,0,0,7.58,7.61,7.63,7.63,0,1,0,0-15.26Zm.16,12.37a4.48,4.48,0,0,1-4.55-4.7,4.47,4.47,0,1,1,8.92,0A4.41,4.41,0,0,1,119.29,25.55Z"/><path class="cls-1" d="M57.17,33.9a60.15,60.15,0,0,0-6.71-.13c-.63,0-.6.38-.6.81q0,3.31,0,6.62,0,2.6,0,5.2c0,2.32,0,2.3,2.36,2.21.57,0,.79-.2.77-.77,0-1,0-1.9,0-2.85s.17-1.17,1.06-1.11a14.66,14.66,0,0,0,2.95-.1,5,5,0,0,0,4.69-4.89C61.72,36.21,60.07,34.31,57.17,33.9Zm.23,6.73a9.48,9.48,0,0,1-4,.38c-.36,0-.41-.3-.41-.58,0-.54,0-1.08,0-1.63,0-2.21,0-2.2,2.18-2.19a6.81,6.81,0,0,1,2,.26,1.86,1.86,0,0,1,1.4,1.79A1.9,1.9,0,0,1,57.4,40.63Z"/><path class="cls-1" d="M172.53,47.46l-2.64-6.72c-.74-1.89-1.51-3.78-2.22-5.69-.47-1.27-1.48-1.23-2.57-1.31s-1.14.62-1.39,1.26l-3.46,8.81-1.59,4.08c-.12.31-.34.61.26.72,2.06.35,2.66,0,3.42-1.87a1.4,1.4,0,0,0,.06-.19,1.09,1.09,0,0,1,1.31-.93c1,.07,2.11,0,3.16,0,1.67,0,1.73,0,2.29,1.56.38,1.06.85,1.77,1.93,1.41h.68C173,48.6,173,48.6,172.53,47.46ZM167,42.88c-.85,0-1.7,0-2.54,0-.47,0-.6-.15-.43-.6.52-1.32,1-2.65,1.52-4l.24,0c.53,1.38,1.06,2.76,1.59,4.13C167.53,42.81,167.3,42.88,167,42.88Z"/><path class="cls-1" d="M77.47,27.17c-.7-1.61-1.29-3.28-1.94-4.92-1-2.56-2-5.11-3-7.67C72,13.34,71,13.47,70,13.38s-1.1.56-1.34,1.19L67,18.64c-1.14,2.91-2.26,5.82-3.43,8.71-.25.63-.24.87.55.87,2.28,0,2.32.05,3.11-2a1.29,1.29,0,0,1,1.51-1,16.46,16.46,0,0,0,3.05,0,1.76,1.76,0,0,1,2.24,1.55c.24,1.12.84,1.75,1.91,1.42a6.89,6.89,0,0,1,.78,0C77.73,28.34,77.84,28,77.47,27.17Zm-5.58-4.64H69.25c-.36,0-.5-.16-.36-.51l1.69-4.39c.63,1.64,1.16,3,1.69,4.4C72.4,22.38,72.27,22.54,71.89,22.54Z"/></svg>