<svg id="Capa_2" data-name="Capa 2" xmlns="http://www.w3.org/2000/svg" viewBox="0 0 175 62"><defs><style>.cls-1{fill:#fff;}</style></defs><title>cooprogreso_logo</title><path class="cls-1" d="M82.44,40.07q0,1.57,0,3.16c0,.48,0,.44-.39.27L71.78,39.39,50.19,30.81c-1.67-.63-3.33-1.33-5-2a.37.37,0,0,1-.28-.42c0-2,.06-3.93.09-5.89V22c0-.36,0-.36.33-.23l3.83,1.54L81,36c.4.16.8.34,1.22.47.25.08.3.22.3.47v3.16Z"/><path class="cls-1" d="M131.22,21.44v6.69c0,.21-.09.28-.26.34L114.6,35.12,94.17,43.4c-.33.14-.34.14-.36-.23-.1-2.09-.2-4.19-.3-6.29a.35.35,0,0,1,.26-.4l24.82-10,12.22-4.93A1,1,0,0,1,131.22,21.44Z"/><path class="cls-1" d="M128.44,20.29,124.7,21.8c-1.12.45-2.24.9-3.35,1.36a.63.63,0,0,1-.57,0L107,16.37,89.61,7.86a.63.63,0,0,1-.4-.66c0-1.78,0-3.54,0-5.32,0-.25,0-.29.28-.18l8.63,4.13,23.16,11.06,6.8,3.25Z"/><path class="cls-1" d="M47.68,20.25l1.94-.93L70,9.62,86.24,1.88c.24-.11.28-.06.28.18q0,2.78.06,5.56c0,.21-.11.27-.27.34l-13,6.11L54.8,22.78a.53.53,0,0,1-.46,0l-6.49-2.47Z"/><path class="cls-1" d="M73,23.93l1.81.93c2.36,1.21,4.71,2.41,7.07,3.61a.57.57,0,0,1,.39.63V34c0,.4,0,.4-.35.26L64.05,27a.46.46,0,0,1-.35-.51V21.92a.42.42,0,0,1,.28-.44l17.88-8.41c.34-.16.35-.16.35.2v5.35a.48.48,0,0,1-.3.49l-8.63,4.62Z"/><path class="cls-1" d="M103.9,53.73h2.86c.21,0,.31,0,.3.28v3a2,2,0,0,1-.52,1.21A4.65,4.65,0,0,1,103,60.05a11.59,11.59,0,0,1-3.67-.39,5,5,0,0,1-3.72-4.33,7.73,7.73,0,0,1,.18-2.83,4.51,4.51,0,0,1,2.89-3.27,9.31,9.31,0,0,1,3.58-.54,4.25,4.25,0,0,1,2.32.8,13.33,13.33,0,0,1,1.83,1.64c.12.12.14.2,0,.3q-.78.54-1.54,1.09a.28.28,0,0,1-.38,0l-.73-.6a4.16,4.16,0,0,0-4-.73,2.29,2.29,0,0,0-1.55,1.59A5.79,5.79,0,0,0,98,55.6,2.62,2.62,0,0,0,100.42,58a9.56,9.56,0,0,0,2.15.11,2.23,2.23,0,0,0,2-2.26c0-.23-.16-.16-.28-.16h-3.19c-.23,0-.32,0-.31-.3V54c0-.22.05-.3.28-.29C102,53.73,102.94,53.73,103.9,53.73Z"/><path class="cls-1" d="M119.77,54.48V49.34c0-.28.06-.38.37-.37,2.38,0,4.76.06,7.15.08h.63c.21,0,.24.08.23.26v1.52c0,.22-.08.27-.28.27h-5.48c-.28,0-.36.08-.35.35v1.64c0,.21.07.27.28.27h4.93c.29,0,.35.09.34.35q0,.9,0,1.79c0,.24-.09.28-.3.28h-4.83c-.28,0-.39.05-.37.36V58c0,.24.07.3.3.3H128c.28,0,.4.06.38.37s0,.79,0,1.19c0,.18-.06.25-.25.25l-5.17,0c-1,0-1.9,0-2.86,0-.28,0-.37-.08-.37-.38C119.78,57.95,119.77,56.21,119.77,54.48Z"/><path class="cls-1" d="M29.69,60.3a6.64,6.64,0,0,1-4.85-1.51,5.69,5.69,0,0,1-1.79-5,5.42,5.42,0,0,1,4.55-5,6.48,6.48,0,0,1,4.3.49,7.19,7.19,0,0,1,2.32,2.12c.11.14.06.21-.06.28-.52.32-1.06.63-1.57,1a.32.32,0,0,1-.41-.05L31.32,52a4.3,4.3,0,0,0-2.15-1A3.16,3.16,0,0,0,25.43,54a5.43,5.43,0,0,0,0,1.3,3.2,3.2,0,0,0,3,2.78,4.17,4.17,0,0,0,3.65-1.26c.35-.35.36-.34.77-.08s.81.54,1.23.8c.19.12.21.2.07.39A5.6,5.6,0,0,1,29.69,60.3Z"/><path class="cls-1" d="M112.38,21.82a.28.28,0,0,0-.2-.29c-.57-.25-1.14-.52-1.71-.78l-23-10.56a.39.39,0,0,0-.51.07q-.95.9-2,1.78a.75.75,0,0,0-.27.63q0,7.62,0,15.24t0,15.29c0,.29.08.37.37.37H91c.3,0,.35-.09.35-.36V36a.44.44,0,0,1,.32-.49c1.47-.59,2.92-1.21,4.38-1.82l16.09-6.72c.15-.06.27-.11.27-.33C112.37,25,112.37,23.41,112.38,21.82Zm-8.21,2.08L91.79,28.82c-.42.17-.42.17-.42-.28V18.48c0-.25,0-.32.3-.21l12.58,5.4.2.09a.63.63,0,0,1-.29.15Z"/><path class="cls-1" d="M149,49.49a6.74,6.74,0,0,0-3-.63l-.63,0a5.6,5.6,0,0,0-5.52,5.91,5.22,5.22,0,0,0,3.71,5,7.52,7.52,0,0,0,5.05-.18,5.05,5.05,0,0,0,1.9-1.26A5.42,5.42,0,0,0,152,54.48,5.16,5.16,0,0,0,149,49.49Zm-.41,6.95a2.74,2.74,0,0,1-2.67,1.71,2.85,2.85,0,0,1-2.73-2,6.09,6.09,0,0,1-.2-.7,4.86,4.86,0,0,1-.09-.94,4,4,0,0,1,.93-2.79,2.87,2.87,0,0,1,4.72.75,4.63,4.63,0,0,1,0,3.94Z"/><path class="cls-1" d="M57.56,49.8A6.44,6.44,0,0,0,54,49,7.2,7.2,0,0,0,53,49a5.52,5.52,0,0,0-5,5.45,5.27,5.27,0,0,0,4.37,5.57,7.74,7.74,0,0,0,3.79-.15,5.49,5.49,0,0,0,2.34-1.31A5.26,5.26,0,0,0,60.12,55,5.33,5.33,0,0,0,57.56,49.8Zm-1.12,7.58a2.79,2.79,0,0,1-1.64.77,3.74,3.74,0,0,1-3.51-1,3.66,3.66,0,0,1-.63-3.87,3.25,3.25,0,0,1,2.87-2.17,3.51,3.51,0,0,1,3.9,2.79,4.38,4.38,0,0,1,.05.76,3.73,3.73,0,0,1-1,2.76Z"/><path class="cls-1" d="M47.12,53.69a5.05,5.05,0,0,0-2.79-4.13,7,7,0,0,0-4.14-.63A5.52,5.52,0,0,0,35,54.56a5.21,5.21,0,0,0,3.85,5.28,7.58,7.58,0,0,0,4.67-.14A5.05,5.05,0,0,0,46.62,57,6.06,6.06,0,0,0,47.12,53.69Zm-2.79,2.19a3.16,3.16,0,0,1-3.45,2.28,4.14,4.14,0,0,1-1.26-.25,3.27,3.27,0,0,1-2.14-2.85,3.49,3.49,0,0,1,2.85-4h0a3.53,3.53,0,0,1,4.18,3.63A4.27,4.27,0,0,1,44.33,55.87Z"/><path class="cls-1" d="M92.23,49.81a6.48,6.48,0,0,0-3.54-.93h-.63a5.6,5.6,0,0,0-5.52,5.86,5.26,5.26,0,0,0,3.57,5A7.58,7.58,0,0,0,90,60a5.67,5.67,0,0,0,2.19-10.19Zm-.75,6.87a3.22,3.22,0,0,1-3.08,1.47,3.51,3.51,0,0,1-2.53-1.07,4,4,0,0,1-.51-4.27A3.53,3.53,0,0,1,89.08,51,3.46,3.46,0,0,1,92,53.82a4.09,4.09,0,0,1-.51,2.87Z"/><path class="cls-1" d="M81.51,59.92c-.37-.54-.73-1.1-1.1-1.64a7.88,7.88,0,0,0-1.33-1.75c-.15-.12,0-.17.06-.23a6.72,6.72,0,0,0,1.16-1.19,4.06,4.06,0,0,0,.81-3.28,2.84,2.84,0,0,0-1.9-2.41,5.37,5.37,0,0,0-.69-.21,21.36,21.36,0,0,0-6.2,0c-.18,0-.2.12-.2.27v5.19h-.07v5.2c0,.26.08.33.33.32h1.7c.23,0,.3-.06.29-.29V57c0-.2.06-.3.27-.28a4,4,0,0,0,.73,0,1.77,1.77,0,0,1,1.93.93,21.48,21.48,0,0,1,1.26,2.29.41.41,0,0,0,.44.28h2.4C81.6,60.16,81.6,60.11,81.51,59.92Zm-3-6.32a1.31,1.31,0,0,1-1.26,1H74.56c-.2,0-.2-.11-.2-.25V51.19c0-.11,0-.23.16-.22a17.24,17.24,0,0,1,3,.13,2,2,0,0,1,.68.26,1,1,0,0,1,.51.75,4,4,0,0,1-.12,1.48Z"/><path class="cls-1" d="M118.3,59.88c-.28-.43-.57-.87-.87-1.26a9.35,9.35,0,0,0-1.52-2c-.13-.1,0-.15,0-.2.25-.23.51-.44.73-.68A4.26,4.26,0,0,0,118,51.89a2.87,2.87,0,0,0-2.13-2.43,6.4,6.4,0,0,0-1-.23,24.2,24.2,0,0,0-5.69.05c-.22,0-.23.13-.23.3V52.2c0,2.6,0,5.19-.06,7.78,0,.24.09.28.3.28h1.7c.25,0,.32-.06.32-.32V57.11c0-.24.07-.32.3-.32a8.55,8.55,0,0,0,1,0,1.48,1.48,0,0,1,1.47.67,11.3,11.3,0,0,1,1.26,2.15.92.92,0,0,0,1.07.69c.63-.06,1.26,0,1.9,0a.52.52,0,0,0,.32,0A3.14,3.14,0,0,0,118.3,59.88Zm-2.8-6.5A1.41,1.41,0,0,1,114,54.73h-2.59c-.2,0-.21-.09-.21-.25V51.29c0-.14,0-.23.19-.23a19.91,19.91,0,0,1,2.79.1,2.92,2.92,0,0,1,.58.16,1.09,1.09,0,0,1,.78,1.14A6.66,6.66,0,0,1,115.5,53.38Z"/><path class="cls-1" d="M69.71,50.47a4.42,4.42,0,0,0-2-1.16,17.87,17.87,0,0,0-5.86-.15c-.22,0-.18.17-.18.3V59.74c0,.21.05.28.27.28h1.9c.23,0,.29-.06.29-.28V57c0-.23.05-.32.3-.3a17.17,17.17,0,0,0,2.58,0,3.67,3.67,0,0,0,3.55-3.16A3.16,3.16,0,0,0,69.71,50.47ZM68.25,53.2a1.64,1.64,0,0,1-1.64,1.6,22.73,22.73,0,0,1-2.27.07c-.2,0-.27-.06-.26-.27V51.17c0-.13,0-.23.18-.25a5.1,5.1,0,0,1,2.94.37A1.55,1.55,0,0,1,68.25,53.2Z"/><path class="cls-1" d="M139.15,56.08a2.65,2.65,0,0,0-1.55-1.72,17.06,17.06,0,0,0-3.52-1.23,5.05,5.05,0,0,1-1.18-.39.86.86,0,0,1-.47-1,1,1,0,0,1,.54-.63,2.58,2.58,0,0,1,1.86-.16,10.31,10.31,0,0,1,2.47,1c.19.09.3.09.42-.1.3-.45.63-.9,1-1.34.17-.22.15-.34-.08-.49a6.8,6.8,0,0,0-5.43-1.15,4.42,4.42,0,0,0-2.78,1.66,2.74,2.74,0,0,0,.15,3.47,4.28,4.28,0,0,0,1.55.94,19.15,19.15,0,0,0,3,.86,3.65,3.65,0,0,1,1.3.48,1,1,0,0,1,.43,1.2,1,1,0,0,1-.86.82,5.64,5.64,0,0,1-1.26,0,5.77,5.77,0,0,1-3.29-1,5.05,5.05,0,0,0-.53-.29c-.14-.08-.21,0-.26.11-.12.41-.25.81-.38,1.22-.2.63-.2.63.4.94.32.16.63.32,1,.45h0a4.42,4.42,0,0,0,.59.23,5.34,5.34,0,0,0,1.42.32,9.73,9.73,0,0,0,1.08.09,5.48,5.48,0,0,0,3.59-.88l.12-.09h0a2.12,2.12,0,0,0,.25-.27l.06-.07.06-.09,0-.05h0l.13-.22A3.7,3.7,0,0,0,139.15,56.08Z"/></svg>