<svg id="Capa_1" data-name="Capa 1" xmlns="http://www.w3.org/2000/svg" viewBox="0 0 175 62"><defs><style>.cls-1{fill:#fff;}</style></defs><title>farmaenlace_logo</title><path class="cls-1" d="M32,28.36c0,1.08,0,2.16,0,3.24,0,.62-.16,1-.82,1l-3.42.24c-.44,0-.6-.15-.34-.57a2.24,2.24,0,0,0,.26-.61c.5-2,.19-2.36-1.75-2a9.42,9.42,0,0,0-2.42.5,1.81,1.81,0,0,0-1.08,2.46c.15.43.14.66-.37.72-.91.12-1.83.24-2.73.39s-1.13-.24-1.22-1c-.31-2.76,1.22-4.55,4.29-5,1.23-.17,2.46-.31,3.69-.5s1.93-.94,1.64-2a1.32,1.32,0,0,0-.83-1,3.84,3.84,0,0,0-3.06,0c-.35.16-.74.38-.81.76-.2,1-.89,1.09-1.71,1-.6,0-1.21,0-1.81,0-.87,0-1.06-.26-.79-1.12A4.22,4.22,0,0,1,21,22.14,11.13,11.13,0,0,1,29.9,22,3.28,3.28,0,0,1,32,25.3C32,26.32,32,27.34,32,28.36Z"/><path class="cls-1" d="M10.19,30.11c0-1.59,0-3.18,0-4.77,0-.7-.21-1.06-1-1-.44,0-1.09.27-1.3-.25a3.74,3.74,0,0,1,0-2.16c.09-.43.59-.25.92-.26,1.34,0,1.35,0,1.41-1.32.14-3.12,2.31-4.32,5.51-4.23.52,0,1.32-.19,1.54.43a4,4,0,0,1,0,2.44c-.18.58-.84.24-1.28.27-1.19.06-1.69.57-1.67,1.71,0,.47.15.72.66.69.28,0,.57,0,.86,0,1.32,0,1.32,0,1.32,1.3s0,1.38-1.46,1.38-1.37,0-1.37,1.34c0,2.64,0,5.28,0,7.91a1.12,1.12,0,0,1-1,1.33,18.09,18.09,0,0,0-2.36.73c-.65.26-.8,0-.8-.57q0-2.48,0-5Z"/><path class="cls-1" d="M35,27.09c0-1.53,0-3.05,0-4.58,0-.67.23-.92.89-.88a14.12,14.12,0,0,0,1.91,0c.82-.06,1.3.15,1.16,1.1,0,.23-.12.57.16.69s.37-.26.53-.43a5.22,5.22,0,0,1,4-1.79c.65,0,1,.24,1,1,0,.06,0,.13,0,.19,0,.82.23,1.8-.13,2.43s-1.46.17-2.22.28a3.59,3.59,0,0,0-2.84,2.62,11.06,11.06,0,0,0-.29,3.6c.05.88-.3,1.21-1.14,1.19s-1.46,0-2.19,0-.76-.26-.75-.81C35.06,30.15,35,28.62,35,27.09Z"/><path class="cls-1" d="M135.77,28.76a7.28,7.28,0,0,1,2.66-6.14c2.64-2.13,8.22-1.58,9.62,1.63a4.12,4.12,0,0,1,.37,1.27.54.54,0,0,1-.33.62.55.55,0,0,1-.71-.33,4.38,4.38,0,0,1-.25-.62,4,4,0,0,0-3.69-2.72c-3.88-.33-6.41,2.07-6.47,6,0,2.07.29,4,1.86,5.51a5.2,5.2,0,0,0,8.24-1.67l.36-.88a.58.58,0,0,1,.77-.38c.43.11.37.42.3.76a5.87,5.87,0,0,1-5.25,4.55C138.55,36.66,135.77,33.84,135.77,28.76Z"/><path class="cls-1" d="M117.72,26q0-4.25,0-8.49a4.78,4.78,0,0,1,.08-.95.5.5,0,0,1,.58-.39.45.45,0,0,1,.44.42,6.75,6.75,0,0,1,0,.86q0,8.64,0,17.27a7,7,0,0,1,0,.86.45.45,0,0,1-.45.42.5.5,0,0,1-.59-.37,4.65,4.65,0,0,1-.08-.95Q117.72,30.32,117.72,26Z"/><path class="cls-1" d="M169.66,43a3.68,3.68,0,0,1-1.2.23c-1.36,0-2.68.36-4,.49-2.23.22-4.44.57-6.69.67a18.66,18.66,0,0,0-4,.38h0c-1.81.06-3.61.17-5.42.17-2.89,0-5.77,0-8.66-.11-5.26-.17-10.51-.5-15.75-1q-3.78-.39-7.55-.85a25.13,25.13,0,0,0-4.44-.47c-.69-.11-1.38-.25-2.07-.34-6.28-.79-12.44-2.21-18.67-3.28-5.42-.93-10.86-1.7-16.31-2.43-3-.4-5.94-.6-8.91-.93-7.65-.85-15.33-1.25-23-1.38q-6.82-.11-13.63.3a82.82,82.82,0,0,0-17.24,2.38,15.72,15.72,0,0,0-6.64,3.41,5.35,5.35,0,0,0-1.93,4.84c0,.19,0,.41.26.45s.26-.14.34-.28c1-1.71,2.65-2.51,4.34-3.25A46.07,46.07,0,0,1,20,38.93a166.63,166.63,0,0,1,21.08-1.69c6.68-.21,13.35.11,20,.52C66,38,70.78,38.39,75.58,39c3.94.48,7.9.84,11.83,1.39,5.66.8,11.3,1.71,17,2.6,5.15.81,10.33,1.36,15.52,1.85,6.23.59,12.49.85,18.74,1.06,4.35.14,8.71,0,13.05-.31,2.5.23,4.95-.43,7.44-.4,1.38-.06,2.75-.3,4.12-.47a.84.84,0,0,0,.37,0l1-.1c1.43-.12,2.77-.6,4.18-.73a23.44,23.44,0,0,0,2.76-.58A1.85,1.85,0,0,0,169.66,43Z"/><path class="cls-1" d="M99.94,28.95a9.18,9.18,0,0,0-.9-4.76l-.24-.62a6.47,6.47,0,0,1,1.48,5A.46.46,0,0,1,99.94,28.95Z"/><path class="cls-1" d="M57,21.67c-.77.1-1.44-.34-2.21-.38s-1.7.41-2.59.38A5.05,5.05,0,0,1,57,21.67Z"/><path class="cls-1" d="M68.51,25.05a3.7,3.7,0,0,0-2.22-3.22,5.83,5.83,0,0,0-6.31.49c-.86.67-1.42,1.11-2.13-.07-.16-.27-.56-.39-.86-.58a6.22,6.22,0,0,0-4.79,0,4.38,4.38,0,0,0-1.41.95c-.37.35-.69.47-.68-.22s-.27-.78-.81-.77c-.79,0-1.59,0-2.38,0-.51,0-.75.18-.75.72,0,3.14,0,6.29,0,9.43,0,.31,0,.63.41.64,1.18,0,2.37.37,3.55,0h0c.24-.23.16-.53.17-.8,0-1.49,0-3,0-4.48a2.74,2.74,0,0,1,2.91-2.66c1.38,0,2,.87,2,2.66,0,1.3,0,2.61,0,3.91,0,1.93,0,1.93,2,2,2.16.07,2.15.07,2.17-2.12a16.4,16.4,0,0,1,.28-4.64,2.34,2.34,0,0,1,2.59-1.78c1.2,0,1.79.54,2.11,1.91a6.13,6.13,0,0,1,.14,1.32q0,2.58,0,5.15c0,.57.17.88.81.89a21.7,21.7,0,0,1,2.47.19c.55.07.78-.13.77-.66C68.56,30.52,68.75,27.78,68.51,25.05Z"/><path class="cls-1" d="M85.34,35.76a.33.33,0,0,1,0,.09h.09ZM84.5,23.52h0a2.3,2.3,0,0,0-1.35-1.39,10.88,10.88,0,0,0-9.2,0,4.22,4.22,0,0,0-2.33,3c-.14.57-.07.94.64.92.89,0,1.78,0,2.66,0a.87.87,0,0,0,.85-.47A2.76,2.76,0,0,1,79.14,24c1.5.29,2,1.18,1.33,2.64h0c-1.63.68-3.4.62-5.1,1a4.5,4.5,0,0,0-2.94,1.31h0c-1.53,1.2-1.51,3.16-1.13,4.68a1.14,1.14,0,0,0,1.13.85,40.41,40.41,0,0,0,4.23.51c1.38,0,2.74.92,4.14.07.23-.14.26.31.46.4a5.33,5.33,0,0,1,2.52.29c1,.27,1.11.14,1.1-.91,0-2.83-.06-5.65,0-8.48C84.9,25.35,84.5,24.47,84.5,23.52Zm-7,10.18c-1.48,0-2.36-.76-2.27-1.95a1.63,1.63,0,0,1,.95-1.44c1.31-.65,2.79-.54,4.16-.93.31-.09.43.17.48.45A3.14,3.14,0,0,1,77.55,33.7Z"/><path class="cls-1" d="M134.19,35c-.81-.07-1.07-.57-1.06-1.3,0-1.46,0-2.93,0-4.39h0c0-1.43,0-2.86,0-4.29A3.17,3.17,0,0,0,131,21.91a8.06,8.06,0,0,0-6.23,0,4.27,4.27,0,0,0-2.47,3.3c-.08.36-.14.83.38.93s.72-.22.86-.68a4.6,4.6,0,0,1,7-2.42,2.86,2.86,0,0,1,1.26,3.24c-.31,1.18-1.31,1.35-2.32,1.47l-.19,0c-1.7.4-3.49.15-5.17.77a3.77,3.77,0,0,0-2.61,3.52,3.76,3.76,0,0,0,2,3.79,6.81,6.81,0,0,0,7.63-1.53c.44-.47.54-.37.69.19A1.71,1.71,0,0,0,134.15,36c.3,0,.6-.1.62-.47S134.49,35.07,134.19,35Zm-9.26,0a2.84,2.84,0,0,1-2.2-2.78,2.88,2.88,0,0,1,2-2.81,9.46,9.46,0,0,1,3-.54,12.05,12.05,0,0,0,3.29-.48c.77-.24.82.06.8.63,0,.29,0,.57,0,.77C132,33.82,129,36,124.92,35.09Z"/><path class="cls-1" d="M152.68,29c1.62,0,3.24,0,4.86,0s3.24,0,4.86,0c.86,0,1.16-.36,1-1.15-.07-.47-.18-.93-.28-1.4-.6-2.82-2.18-4.83-5.87-5.1a6,6,0,0,0-6,3.56,10.07,10.07,0,0,0-.66,6.24A5.82,5.82,0,0,0,154,35.79a7,7,0,0,0,6.08-.07,5.3,5.3,0,0,0,3-3.84c.06-.3.12-.59-.24-.72a.62.62,0,0,0-.76.23,2.18,2.18,0,0,0-.27.5c-1.28,3.36-3.84,3.66-6.19,3.28-2.13-.34-3.73-2.52-4-5.12C151.63,29.25,151.88,29,152.68,29Zm-.88-1.83c.64-3.16,3.54-5.93,7.29-4.26a5.39,5.39,0,0,1,3.05,4.44c.1.66-.33.8-.88.8h-8.58C152,28.13,151.66,27.88,151.81,27.14Z"/><path class="cls-1" d="M99.77,31.13a.66.66,0,0,0-.85.55,6,6,0,0,1-1.45,2.43h0a6.72,6.72,0,0,1-6.12.57,5.78,5.78,0,0,1-2.65-4.31c-.23-1.25-.15-1.37,1.15-1.37l9.73,0h.37c.13-.09.28-.2.27-.37a8.92,8.92,0,0,0-1.41-5,6.37,6.37,0,0,0-9.8.09,8.43,8.43,0,0,0-1.59,4.52c-.3,3.66,1.14,7.27,4.93,8,3,.62,6.66-.3,7.7-4.16C100.13,31.71,100.31,31.27,99.77,31.13Zm-.43-2.28a.46.46,0,0,1,.23.11ZM88.39,27a3.66,3.66,0,0,1,1.28-2.26c1.89-2.33,3.75-2.88,6.42-1.91h0c1.61.33,2.31,1.58,2.84,2.93,1,2.59,1,2.6-1.81,2.6H89.41C88.38,28.36,88.07,28,88.39,27Z"/><path class="cls-1" d="M103.33,22.05V35.59h-.2V22.05Z"/><path class="cls-1" d="M114.42,26.42c-.06-2.89-1.37-4.52-4-5a5.92,5.92,0,0,0-5.71,1.87c-.14.15-.22.45-.51.32s-.17-.38-.17-.6,0-.19,0-.29c0-.45.19-1-.58-1.06s-.64.64-.64,1.1c0,2,0,4,0,6q0,.86,0,1.72c0,1.49,0,3,0,4.48,0,.41-.14,1,.55,1s.62-.57.64-1,0-.7,0-1a56.76,56.76,0,0,1,.12-7c.48-3.31,2.92-5,6.33-4.4,1.65.3,2.69,1.8,2.71,3.79,0,2.92,0,5.85,0,8.77,0,.42,0,.88.59.9s.68-.43.68-.9C114.44,32.2,114.49,29.31,114.42,26.42Z"/></svg>