<svg id="Capa_11" data-name="Capa 11" xmlns="http://www.w3.org/2000/svg" viewBox="0 0 515 131.18"><defs><style>.cls-1{fill:#ea4335;}.cls-2{fill:#4285f4;}.cls-3{fill:#34a853;}.cls-4{fill:#fbbc05;}.cls-5{fill:#5f6368;}</style></defs><title>google_cloud_logo</title><path class="cls-1" d="M69.07,47.21h.29l-.17-.14,11-11v-.2a35.68,35.68,0,0,0-58,17.41,4.37,4.37,0,0,1,.58-.19,25.61,25.61,0,0,1,19.11-3.78.34.34,0,0,1,.23-.06,19.79,19.79,0,0,1,27.16-2Z"/><path class="cls-2" d="M91.11,53.3A35.85,35.85,0,0,0,80.32,35.92L69.18,47.07a19.81,19.81,0,0,1,7.29,15.71v2c13.23,0,13.23,19.83,0,19.83H56.61v15.74h-.08l.11.11H76.47A25.81,25.81,0,0,0,91.11,53.3Z"/><path class="cls-3" d="M36.74,100.36H56.58V84.49H36.74a9.73,9.73,0,0,1-4-.9L21.15,95.07v.12A25.67,25.67,0,0,0,36.74,100.36Z"/><path class="cls-4" d="M36.74,48.85A25.8,25.8,0,0,0,21.17,95.11L32.68,83.6A9.92,9.92,0,1,1,45.76,70.52L57.31,59A25.78,25.78,0,0,0,36.74,48.85Z"/><path class="cls-5" d="M155.28,89.28a25.72,25.72,0,0,1-19-43.27l.61-.61a25.39,25.39,0,0,1,18.41-7.69,24.59,24.59,0,0,1,17.63,7.11l-5,5a17.83,17.83,0,0,0-12.66-5,17.61,17.61,0,0,0-13.07,5.57A18.62,18.62,0,0,0,168.3,77a14.78,14.78,0,0,0,3.82-8.66H155.35V61.18h23.71a23.23,23.23,0,0,1,.28,4.35A22.34,22.34,0,0,1,173.23,82a23.69,23.69,0,0,1-17.9,7.27Zm55-4.73a17.1,17.1,0,0,1-23.6,0,15.9,15.9,0,0,1-4.83-11.84,15.91,15.91,0,0,1,4.83-11.84,17.1,17.1,0,0,1,23.6,0,15.88,15.88,0,0,1,4.82,11.84A15.9,15.9,0,0,1,210.24,84.55ZM191.85,79.9a9.05,9.05,0,0,0,12.8.38l.38-.38a10.7,10.7,0,0,0,0-14.4,9.17,9.17,0,0,0-13-.27l-.27.27a10.66,10.66,0,0,0,0,14.4Zm54.66,4.66a17.1,17.1,0,0,1-23.61,0,15.91,15.91,0,0,1-4.82-11.84,15.87,15.87,0,0,1,4.82-11.84,17.1,17.1,0,0,1,23.61,0,15.9,15.9,0,0,1,4.86,11.83,15.94,15.94,0,0,1-4.82,11.84ZM228.11,79.9a9.05,9.05,0,0,0,12.79.4l.4-.4a10.7,10.7,0,0,0,0-14.4,9.17,9.17,0,0,0-13-.27l-.27.27a10.68,10.68,0,0,0,0,14.4Zm42.24,24.27a14.52,14.52,0,0,1-9.27-2.95,17.15,17.15,0,0,1-5.41-6.87L262,91.7a10.63,10.63,0,0,0,3.15,4.15,7.87,7.87,0,0,0,5.21,1.76,8.35,8.35,0,0,0,6.49-2.51,10.15,10.15,0,0,0,2.32-7.24v-2.4h-.26a10.61,10.61,0,0,1-8.71,3.76,15.09,15.09,0,0,1-11.14-4.85,16.77,16.77,0,0,1,0-23.43,15.16,15.16,0,0,1,11.14-4.88,12.07,12.07,0,0,1,5.13,1.15A10.33,10.33,0,0,1,279,59.85h.26V57.21h6.91V86.89a17.34,17.34,0,0,1-4.43,13,15.62,15.62,0,0,1-11.34,4.31Zm.51-21.39a8.16,8.16,0,0,0,6.3-2.79,10.31,10.31,0,0,0,2.52-7.14,10.57,10.57,0,0,0-2.48-7.28,8,8,0,0,0-6.3-2.79,8.64,8.64,0,0,0-6.53,2.79,10.17,10.17,0,0,0-2.79,7.21,10.06,10.06,0,0,0,2.79,7.14,8.67,8.67,0,0,0,6.53,2.85Zm27.56,5.51h-7.28V39.57h7.28v48.7Zm19.93,1a15.82,15.82,0,0,1-11.73-4.76A16.22,16.22,0,0,1,302,72.7a16.36,16.36,0,0,1,4.55-11.93,15,15,0,0,1,11.14-4.66,14.13,14.13,0,0,1,5.57,1.09A12.89,12.89,0,0,1,327.49,60a17.85,17.85,0,0,1,4.43,6.63l.75,1.9-22.29,9.16a8.36,8.36,0,0,0,8,5,9.54,9.54,0,0,0,8.17-4.6l5.57,3.76a18.67,18.67,0,0,1-5.35,5,15.16,15.16,0,0,1-8.39,2.33Zm-9.3-17.1L323.89,66a5,5,0,0,0-2.27-2.49,7.5,7.5,0,0,0-3.82-1,8.57,8.57,0,0,0-6,2.65,8.84,8.84,0,0,0-2.71,7Z"/><path class="cls-5" d="M370.77,89.28a23,23,0,0,1-23.35-22.59q0-.45,0-.9A23,23,0,0,1,369.83,42.3h.94a20.8,20.8,0,0,1,16.48,7.36l-4,3.89a15.18,15.18,0,0,0-12.48-5.7,17,17,0,0,0-12.4,5,17.38,17.38,0,0,0-5,13,17.41,17.41,0,0,0,5,13,17,17,0,0,0,12.4,5,17.72,17.72,0,0,0,13.93-6.52l4,4a21.7,21.7,0,0,1-7.7,5.87,23.67,23.67,0,0,1-10.26,2.17Z"/><polygon class="cls-5" points="393.75 88.27 399.51 88.27 399.51 43.28 393.75 43.28 393.75 88.27 393.75 88.27"/><path class="cls-5" d="M408.93,61.2a17.58,17.58,0,1,1-4.46,11.7A16.31,16.31,0,0,1,408.93,61.2ZM413.22,81a9.73,9.73,0,0,0,13.75.33l.33-.33a11.06,11.06,0,0,0,3-8,11.06,11.06,0,0,0-3-8,9.73,9.73,0,0,0-13.75-.33l-.33.33a11.14,11.14,0,0,0-3,8,11.06,11.06,0,0,0,3,8Z"/><path class="cls-5" d="M468.09,88.27h-5.57V84h-.17a10.71,10.71,0,0,1-4,3.84,11.47,11.47,0,0,1-5.71,1.54,10.89,10.89,0,0,1-8.75-3.51,14,14,0,0,1-3-9.41V57.52h5.74V75.41q0,8.6,7.6,8.61a7.12,7.12,0,0,0,5.86-2.79,10.56,10.56,0,0,0,2.25-6.62V57.52h5.77V88.27Z"/><path class="cls-5" d="M487.67,89.28a13.51,13.51,0,0,1-10.3-4.72A16.72,16.72,0,0,1,473,72.9a16.75,16.75,0,0,1,4.32-11.69,13.56,13.56,0,0,1,10.3-4.7A13.07,13.07,0,0,1,494,58a10.54,10.54,0,0,1,4.18,3.75h.24l-.24-4.25V43.28h5.77v45h-5.57V84h-.26a10.56,10.56,0,0,1-4.22,3.76,13,13,0,0,1-6.25,1.51Zm1-5.27a9.21,9.21,0,0,0,6.94-3,11.29,11.29,0,0,0,2.79-8.11,11.3,11.3,0,0,0-2.79-8.12,9.42,9.42,0,0,0-13.31-.62q-.32.29-.62.62a11.06,11.06,0,0,0-2.79,8,11.06,11.06,0,0,0,2.79,8,9.16,9.16,0,0,0,7,3Z"/></svg>