<svg id="Capa_1" data-name="Capa 1" xmlns="http://www.w3.org/2000/svg" viewBox="0 0 357 78"><defs><style>.cls-1{fill:#fff;}</style></defs><title>handytec_logo_white</title><path class="cls-1" d="M97.88,14.87h7.24V28.29a16.75,16.75,0,0,1,4.3-2.62,11.61,11.61,0,0,1,4.38-.87,10.14,10.14,0,0,1,7.29,2.84q2.54,2.46,2.54,7.22v18.2h-7.18V41a28.27,28.27,0,0,0-.48-6.48A4.5,4.5,0,0,0,114.32,32a4.79,4.79,0,0,0-2.87-.84,5.58,5.58,0,0,0-3.8,1.39,7.29,7.29,0,0,0-2.2,3.8,29.89,29.89,0,0,0-.32,5.67V53H97.88Z"/><path class="cls-1" d="M152.11,25.51h7.29V53h-7.29V50.14a14.34,14.34,0,0,1-4.28,2.77,12.56,12.56,0,0,1-4.65.85,13.25,13.25,0,0,1-9.73-4.14,14,14,0,0,1-4.11-10.29,14.36,14.36,0,0,1,4-10.46,13.14,13.14,0,0,1,18.8-.33Zm-7.66,5.67a7.56,7.56,0,0,0-5.62,2.27,7.93,7.93,0,0,0-2.23,5.81,8,8,0,0,0,2.27,5.87,7.57,7.57,0,0,0,5.6,2.3,7.71,7.71,0,0,0,5.7-2.27,8,8,0,0,0,2.26-5.94,7.69,7.69,0,0,0-7.31-8q-.34,0-.69,0Z"/><path class="cls-1" d="M166.77,25.51h7.29v2.82a17.61,17.61,0,0,1,4.49-2.76,11.37,11.37,0,0,1,4.12-.78A10.26,10.26,0,0,1,190,27.66q2.53,2.43,2.53,7.19V53h-7.21V41a28.93,28.93,0,0,0-.47-6.55A4.47,4.47,0,0,0,183.24,32a4.72,4.72,0,0,0-2.86-.85,5.53,5.53,0,0,0-3.8,1.4,7.39,7.39,0,0,0-2.2,3.88,29.68,29.68,0,0,0-.32,5.59V53h-7.29Z"/><path class="cls-1" d="M221,14.87h7.29V53H221V50.14a14.34,14.34,0,0,1-4.28,2.77,12.56,12.56,0,0,1-4.65.85,13.25,13.25,0,0,1-9.73-4.14,14,14,0,0,1-4.11-10.29,14.36,14.36,0,0,1,4-10.46A13.07,13.07,0,0,1,221,28.54Zm-7.66,16.3a7.56,7.56,0,0,0-5.62,2.27,7.93,7.93,0,0,0-2.23,5.81,8,8,0,0,0,2.27,5.87,7.57,7.57,0,0,0,5.6,2.3,7.71,7.71,0,0,0,5.7-2.27,8,8,0,0,0,2.26-5.94,7.69,7.69,0,0,0-7.31-8q-.34,0-.69,0Z"/><path class="cls-1" d="M232.47,25.51h7.45l7.55,17.28,8.33-17.28h7.47L245.06,63.13h-7.53l6-12.13Z"/><path class="cls-1" d="M268.29,15.35h7.29V25.51h4.33v6h-4.33v21.6h-7.29V31.46h-3.74v-6h3.74Z"/><path class="cls-1" d="M312.91,41.28H289.49a7.3,7.3,0,0,0,2.71,4.67,8.81,8.81,0,0,0,5.62,1.73,10,10,0,0,0,7-2.71L311,47.71a14.3,14.3,0,0,1-5.5,4.57,18,18,0,0,1-7.61,1.48,15.5,15.5,0,0,1-11.14-4.09,13.55,13.55,0,0,1-4.3-10.24A14,14,0,0,1,286.73,29a14.8,14.8,0,0,1,10.75-4.16A15.37,15.37,0,0,1,308.64,29a14.62,14.62,0,0,1,4.3,11Zm-7.29-5.44a7,7,0,0,0-2.85-3.75,8.58,8.58,0,0,0-4.94-1.44,8.07,8.07,0,0,0-8,5.19Z"/><path class="cls-1" d="M347.25,31.08l-6.07,3.16a10.31,10.31,0,0,0-3.38-2.35,10.65,10.65,0,0,0-3.92-.66,9.41,9.41,0,0,0-6.62,2.31,7.68,7.68,0,0,0-2.53,5.93,7.42,7.42,0,0,0,2.43,5.74,9.09,9.09,0,0,0,6.39,2.22,9.52,9.52,0,0,0,7.62-3.16L346.93,48q-4.67,5.76-13.19,5.76-7.66,0-12-4.3a13.75,13.75,0,0,1-4.34-10.08A13.61,13.61,0,0,1,319.51,32a14.59,14.59,0,0,1,5.89-5.29,18.36,18.36,0,0,1,8.45-1.92,17.92,17.92,0,0,1,7.77,1.63A14.55,14.55,0,0,1,347.25,31.08Z"/><path class="cls-1" d="M62.51,5.72a.64.64,0,0,0-.06-.9l-.14-.1A37.5,37.5,0,0,0,9.75,36.77a.64.64,0,0,0,.61.67H30.48a.65.65,0,0,0,.46-.19Z"/><path class="cls-1" d="M50.38,36.32a.64.64,0,0,0,.45,1.12H84.11a.64.64,0,0,0,.64-.64s0,0,0,0A37.16,37.16,0,0,0,81.86,24.1a41.08,41.08,0,0,0-7.23-11,.64.64,0,0,0-.9,0Z"/><path class="cls-1" d="M81.91,50.55H12.37a.64.64,0,0,0-.61.86,37.62,37.62,0,0,0,48,22.95q1.08-.38,2.13-.83A38.12,38.12,0,0,0,82.51,51.41a.64.64,0,0,0-.59-.86"/></svg>