<svg id="Capa_1" data-name="Capa 1" xmlns="http://www.w3.org/2000/svg" viewBox="0 0 205.88 69.25"><defs><style>.cls-1{fill:#fff;}</style></defs><title>Mesa de trabajo 2</title><path class="cls-1" d="M70,20.12h6V31.29a13.94,13.94,0,0,1,3.58-2.18,9.66,9.66,0,0,1,3.64-.73,8.44,8.44,0,0,1,6.07,2.36,8,8,0,0,1,2.11,6V51.89h-6V41.84a23.57,23.57,0,0,0-.4-5.39,3.74,3.74,0,0,0-1.37-2.11,4,4,0,0,0-2.39-.7,4.64,4.64,0,0,0-3.17,1.16A6.06,6.06,0,0,0,76.3,38,24.84,24.84,0,0,0,76,42.69v9.21H70Z"/><path class="cls-1" d="M121.52,42.1H102A6.07,6.07,0,0,0,104.29,46,7.33,7.33,0,0,0,109,47.43a8.32,8.32,0,0,0,5.84-2.25l5.11,2.28a11.9,11.9,0,0,1-4.58,3.8A15,15,0,0,1,109,52.48a12.89,12.89,0,0,1-9.27-3.4,11.27,11.27,0,0,1-3.58-8.52,11.64,11.64,0,0,1,3.57-8.71,12.32,12.32,0,0,1,8.94-3.47A12.79,12.79,0,0,1,118,31.85,12.17,12.17,0,0,1,121.54,41Zm-6.07-4.53a5.8,5.8,0,0,0-2.37-3.12,7.14,7.14,0,0,0-4.11-1.2,6.72,6.72,0,0,0-6.68,4.32Z"/><path class="cls-1" d="M125.77,20.12h6.07V51.89h-6.07Z"/><path class="cls-1" d="M139.71,19.53a3.81,3.81,0,0,1,2.74,1.1,3.54,3.54,0,0,1,1.14,2.65,3.5,3.5,0,0,1-1.13,2.62,3.77,3.77,0,0,1-2.7,1.09A3.82,3.82,0,0,1,137,25.88a3.6,3.6,0,0,1-1.14-2.69A3.45,3.45,0,0,1,137,20.6,3.81,3.81,0,0,1,139.71,19.53Zm-3,9.44h6.07V51.89h-6.07Z"/><path class="cls-1" d="M159.61,28.38A13.37,13.37,0,0,1,166,30a12.07,12.07,0,0,1,4.7,4.4,11.37,11.37,0,0,1,1.69,6,11.56,11.56,0,0,1-1.7,6.07,12,12,0,0,1-4.63,4.41,13.34,13.34,0,0,1-6.47,1.59A12.4,12.4,0,0,1,150.75,49a11.72,11.72,0,0,1,.48-17.48A12.51,12.51,0,0,1,159.61,28.38Zm.1,5.42a6.41,6.41,0,0,0-6.59,6.64A6.55,6.55,0,0,0,155,45.28a6.39,6.39,0,0,0,4.71,1.85,6.45,6.45,0,0,0,6.63-6.7,6.34,6.34,0,0,0-6.61-6.64Z"/><path class="cls-1" d="M176.81,48.68a.94.94,0,0,1,.67.26.83.83,0,0,1,.28.63.84.84,0,0,1-.28.63,1,1,0,0,1-1.33,0,.84.84,0,0,1-.28-.63.83.83,0,0,1,.28-.63A.94.94,0,0,1,176.81,48.68Z"/><path class="cls-1" d="M184.17,44.12h1.63v5.29a3.37,3.37,0,0,1-.67,2.31,3.42,3.42,0,0,1-2.69,1,5,5,0,0,1-1.61-.23,2.92,2.92,0,0,1-1.1-.67,2.69,2.69,0,0,1-.67-1.07h1.8a1.49,1.49,0,0,0,.62.39,2.68,2.68,0,0,0,.89.13,2.46,2.46,0,0,0,1.06-.19,1.2,1.2,0,0,0,.57-.5,2.42,2.42,0,0,0,.16-1.06,2.73,2.73,0,0,1-.9.59A3.22,3.22,0,0,1,180,49.4a3.35,3.35,0,0,1,.05-4.64A2.94,2.94,0,0,1,182.1,44a2.89,2.89,0,0,1,1.06.2,3.39,3.39,0,0,1,1,.64Zm-1.7,1.29a1.75,1.75,0,0,0-1.28.49,1.65,1.65,0,0,0-.5,1.24,1.68,1.68,0,0,0,.52,1.27,1.79,1.79,0,0,0,1.29.49,1.72,1.72,0,0,0,1.25-.48,1.69,1.69,0,0,0,.49-1.27,1.67,1.67,0,0,0-.5-1.26A1.76,1.76,0,0,0,182.47,45.41Z"/><path class="cls-1" d="M194,47.66h-5.25a1.64,1.64,0,0,0,.61,1,2,2,0,0,0,1.26.39,2.24,2.24,0,0,0,1.58-.61l1.38.61a3.21,3.21,0,0,1-1.23,1,4,4,0,0,1-1.71.33,3.47,3.47,0,0,1-2.5-.92,3,3,0,0,1-1-2.3,3.14,3.14,0,0,1,1-2.35,3.32,3.32,0,0,1,2.41-.93,3.45,3.45,0,0,1,2.5.93,3.28,3.28,0,0,1,1,2.47Zm-1.64-1.22a1.56,1.56,0,0,0-.64-.84,1.92,1.92,0,0,0-1.11-.32,1.81,1.81,0,0,0-1.8,1.16Z"/><path class="cls-1" d="M198.37,44a3.6,3.6,0,0,1,1.73.44,3.25,3.25,0,0,1,1.27,1.19,3.07,3.07,0,0,1,.46,1.62,3.12,3.12,0,0,1-.46,1.64A3.23,3.23,0,0,1,200.12,50a3.6,3.6,0,0,1-1.74.43,3.34,3.34,0,0,1-2.39-.95,3.16,3.16,0,0,1,.13-4.71A3.37,3.37,0,0,1,198.37,44Zm0,1.46a1.73,1.73,0,0,0-1.78,1.79,1.77,1.77,0,0,0,.5,1.31,1.72,1.72,0,0,0,1.27.5,1.8,1.8,0,1,0,0-3.6Z"/><path class="cls-1" d="M36.09,48.79h21a28.36,28.36,0,0,0-.48-26.25H36.09Z"/><path class="cls-1" d="M31.74,64.47a28.23,28.23,0,0,0,18.62-7H13.12a28.23,28.23,0,0,0,18.62,7"/><path class="cls-1" d="M31.74,7.78a28.22,28.22,0,0,0-17.51,6.06h35A28.22,28.22,0,0,0,31.74,7.78"/><path class="cls-1" d="M27.39,22.54H6.86a28.36,28.36,0,0,0-.48,26.25h21Z"/></svg>