<svg id="Layer_1" data-name="Layer 1" xmlns="http://www.w3.org/2000/svg" viewBox="0 0 160 30"><defs><style>.cls-1,.cls-2{fill:#231f20;}.cls-1{fill-rule:evenodd;}</style></defs><title>hitachi_logo</title><polygon class="cls-1" points="126.61 3.67 126.61 12.84 139.08 12.84 139.08 3.67 145.19 3.67 145.19 26.58 139.08 26.58 139.08 16.4 126.61 16.4 126.61 26.58 120.5 26.58 120.5 3.67 126.61 3.67"/><polygon class="cls-1" points="68.84 3.67 68.84 7.49 59.42 7.49 59.42 26.58 53.31 26.58 53.31 7.49 43.9 7.49 43.9 3.67 68.84 3.67"/><path class="cls-1" d="M78,7.49,73.67,17.93h8.65L78,7.49ZM92.51,26.58H85.64l-2-4.84H72.15l-1.78,4.84H63.49L74.18,3.67h7.63Z"/><rect class="cls-2" x="150.02" y="3.67" width="6.11" height="22.9"/><polygon class="cls-1" points="12.6 3.67 12.6 12.84 24.81 12.84 24.81 3.67 30.92 3.67 30.92 26.58 24.81 26.58 24.81 16.4 12.6 16.4 12.6 26.58 6.49 26.58 6.49 3.67 12.6 3.67"/><rect class="cls-2" x="35.75" y="3.67" width="6.11" height="22.9"/><path class="cls-1" d="M92.25,20.22a16,16,0,0,1-.76-4.84A15.15,15.15,0,0,1,93,8.51a10,10,0,0,1,5.34-4.33A19.11,19.11,0,0,1,105,2.91a21,21,0,0,1,7.89,1.78A7.25,7.25,0,0,1,117.19,10v1.27h-6.36a5,5,0,0,0-.25-1.78A4,4,0,0,0,107.78,7a10.83,10.83,0,0,0-2.8-.51,12.78,12.78,0,0,0-3.05.51,6.46,6.46,0,0,0-3.31,3.56,14.82,14.82,0,0,0-.76,4.84,22.26,22.26,0,0,0,.51,4.07A6.46,6.46,0,0,0,101.67,23a14.89,14.89,0,0,0,3.31.51,9.54,9.54,0,0,0,2.8-.25,4.63,4.63,0,0,0,2.8-2.55,7.52,7.52,0,0,0,.51-2.54h6.36c0,.76-.25,1.53-.25,2.29a7.86,7.86,0,0,1-4.33,5.09A19.83,19.83,0,0,1,105,27.09a25.1,25.1,0,0,1-6.11-.76A10.55,10.55,0,0,1,92.25,20.22Z"/></svg>