<svg id="Capa_2" data-name="Capa 2" xmlns="http://www.w3.org/2000/svg" viewBox="0 0 515 131.18"><defs><style>.cls-1{fill:#231f20;}.cls-2{fill:#ed1c24;}</style></defs><title>hitachi_logo_tech</title><polygon class="cls-1" points="371.89 6.66 371.89 29.46 402.93 29.46 402.93 6.66 418.14 6.66 418.14 63.69 402.93 63.69 402.93 38.34 371.89 38.34 371.89 63.69 356.67 63.69 356.67 6.66 371.89 6.66"/><polygon class="cls-1" points="228.02 6.66 228.02 16.15 204.57 16.15 204.57 63.69 189.37 63.69 189.37 16.15 165.92 16.15 165.92 6.66 228.02 6.66"/><path class="cls-1" d="M250.84,16.15l-10.78,26h21.54l-10.78-26ZM287,63.67H269.88l-5.16-12H236.21l-4.44,12H214.67l26.62-57h19Z"/><rect class="cls-1" x="430.19" y="6.65" width="15.22" height="57.04"/><polygon class="cls-1" points="87.96 6.66 87.96 29.46 118.38 29.46 118.38 6.66 133.6 6.66 133.6 63.69 118.38 63.69 118.38 38.34 87.96 38.34 87.96 63.69 72.76 63.69 72.76 6.66 87.96 6.66"/><rect class="cls-1" x="145.64" y="6.65" width="15.22" height="57.04"/><path class="cls-1" d="M286.32,47.85a39.79,39.79,0,0,1-1.91-12,37.72,37.72,0,0,1,3.79-17.11A24.83,24.83,0,0,1,301.52,7.92,47.6,47.6,0,0,1,318,4.75a52.2,52.2,0,0,1,19.66,4.44A18.07,18.07,0,0,1,348.44,22.5v3.07H332.6a12.37,12.37,0,0,0-.64-4.44,10,10,0,0,0-7-6.24,27,27,0,0,0-7-1.26,31.84,31.84,0,0,0-7.61,1.26,16.06,16.06,0,0,0-8.23,8.87,36.9,36.9,0,0,0-1.91,12,55.43,55.43,0,0,0,1.26,10.14,16.06,16.06,0,0,0,8.23,8.87A37.06,37.06,0,0,0,318,56.08a23.75,23.75,0,0,0,7-.64,11.52,11.52,0,0,0,7-6.34,18.73,18.73,0,0,0,1.26-6.34H349c0,1.91-.64,3.79-.64,5.7a19.55,19.55,0,0,1-10.78,12.67A49.37,49.37,0,0,1,318,64.92,62.5,62.5,0,0,1,302.74,63,26.26,26.26,0,0,1,286.32,47.85Z"/><path class="cls-1" d="M58.81,79.53,45.5,80.8v2.53c5.7.64,5.7.64,5.7,4.44v28.51h8.23V79.53Z"/><path class="cls-1" d="M87.34,90.31c-5.08,0-7.61,3.79-9.5,5.7v-5.7l-11.4,1.91v1.91h.64c3.79,0,4.44.64,4.44,4.44v17.75h6.34V103c0-3.79,3.79-8.23,7-8.23s3.79,3.17,3.79,7.61v13.93H95V98.55C94.95,93.47,92.4,90.31,87.34,90.31Z"/><path class="cls-1" d="M114.58,100.45c-3.17-1.26-5.08-2.53-5.08-4.44s2.53-2.53,3.17-2.53a14.6,14.6,0,0,1,7,2.53l.64.64V91.58h-.64a15.9,15.9,0,0,0-6.34-1.26c-6.34,0-10.14,3.17-10.14,7.61s3.79,6.34,7.61,7.61c2.53,1.26,5.08,2.53,5.08,5.08,0,1.91-1.26,2.53-4.44,2.53a13.59,13.59,0,0,1-7.61-2.53l-.62-.72v5.7h.64a21.86,21.86,0,0,0,7.61.64c6.34,0,10.78-2.53,10.78-7.61C122.17,104.25,117.76,102.34,114.58,100.45Z"/><path class="cls-1" d="M142.47,94.11c4.44,0,5.08,5.08,5.08,8.87,0,7-1.26,9.5-5.08,9.5-4.44,0-5.08-3.79-5.08-7.61V103c0-2.53,0-8.87,5.08-8.87Zm1.91-3.79a8.75,8.75,0,0,0-7,3.79V90.31h-.64L126,92.22v1.91c3.79,0,4.44.64,4.44,4.44v27.87h7V113.74a9,9,0,0,0,7,2.53c7,0,10.78-4.44,10.78-13.31C155.14,95.37,151.34,90.31,144.38,90.31Z"/><path class="cls-1" d="M160.22,92.2v1.91c3.79,0,4.44.64,4.44,4.44v17.75H171v-26Z"/><path class="cls-1" d="M167.83,87.14c2.53,0,4.44-1.26,4.44-3.17,0-2.53-1.91-3.79-4.44-3.79A3.65,3.65,0,0,0,164,83.68q0,.14,0,.29A3.55,3.55,0,0,0,167.83,87.14Z"/><path class="cls-1" d="M200.13,96V90.94h-.64a5.72,5.72,0,0,0-3.17-.64c-3.79,0-5.7,3.17-7,5.08V90.31h-.64l-10.78,1.91v1.91h.64c3.17,0,3.79.64,3.79,4.44v17.75h7V103a6.44,6.44,0,0,1,7-7,3.81,3.81,0,0,1,2.53.64h1.26Z"/><path class="cls-1" d="M215.35,93.47c3.79,0,4.44,2.53,5.08,5.08H210.29a4.94,4.94,0,0,1,4.79-5.08h.27Zm11.4,7.61c0-7-3.79-10.78-10.78-10.78-8.87,0-13.31,4.44-13.31,12.67s5.7,13.31,15.22,13.31a22.08,22.08,0,0,0,8.23-1.26h.64V111.9h-.64a14.05,14.05,0,0,1-5.7.64c-7,0-10.14-5.7-10.14-11.4Z"/><path class="cls-1" d="M289.49,90.31A10.54,10.54,0,0,0,280,96V78.89h-.64l-10.78,1.26v1.91h.64c3.17,0,3.79,1.26,3.79,4.44v29.79h7V103c0-4.44,3.79-8.23,6.34-8.23,3.79,0,3.79,3.17,3.79,5.7v15.84h7V99.85C297.1,96.64,297.1,90.31,289.49,90.31Z"/><path class="cls-1" d="M316.11,93.47a4.64,4.64,0,0,1,5.08,5.08H311.05c.64-1.91,1.26-5.08,5.08-5.08Zm12,7.61c0-7-3.79-10.78-11.4-10.78-8.87,0-13.31,4.44-13.31,12.67s5.7,13.31,15.22,13.31A22.08,22.08,0,0,0,326.9,115h.64V111.9H327a14.05,14.05,0,0,1-5.7.64c-7,0-10.14-5.7-10.14-11.4Z"/><path class="cls-1" d="M250.84,83.33v7.61h-4.44v3.17h4.44v15.22c0,7,4.44,7,9.5,7h4.38v-3.17h-2.53c-4.44,0-4.44-1.26-4.44-4.44V94.11h7.61V90.94h-7.61V83.33Z"/><path class="cls-1" d="M385.82,80.16h-7v27.26c-1.26-1.91-17.75-27.24-17.75-27.24H345.27v1.91l1.26.64c4.44.64,4.44.64,4.44,4.44v29.13h7.61V87.8c1.26,1.91,18.37,28.51,18.37,28.51h9.5V80.18Z"/><path class="cls-1" d="M405.48,93.47c3.79,0,4.44,2.53,4.44,5.08h-9.5a4.94,4.94,0,0,1,4.79-5.08h.27Zm11.4,7.61c0-7-3.79-10.78-11.4-10.78-8.23,0-12.67,4.44-12.67,12.67s5.7,13.31,14.58,13.31a23.51,23.51,0,0,0,8.87-1.26h0V111.9h-.64a12,12,0,0,1-5.08,1.26c-7.61,0-10.14-6.34-10.14-12Z"/><path class="cls-1" d="M454.9,83.33v7.61h-5.08v3.17h5.08v15.22c0,7,3.79,7,8.87,7h4.44v-3.17h-2.53c-3.79,0-4.44-1.26-4.44-4.44V94.11h8.25V90.94h-8.23V83.33Z"/><path class="cls-1" d="M441,99.17l7-8.23h-7l-7,7.61-5.7-7.61H417.5v1.91h.64a8.41,8.41,0,0,1,6.34,3.79l4.44,5.7-7,8.23h7l3.17-3.79,7,9.5h8.23L434,99.17Z"/><polygon class="cls-2" points="454.26 83.33 447.3 83.33 456.17 73.19 463.14 73.19 454.26 83.33"/></svg>