<svg id="Capa_1" data-name="Capa 1" xmlns="http://www.w3.org/2000/svg" viewBox="0 0 175 62"><defs><style>.cls-1{fill:#fff;}.cls-2{fill:#3c3c3b;}.cls-3{fill:#e1e1e1;}</style></defs><title>inmedical_logo</title><path class="cls-1" d="M67.24,24.49c.36-.4.69-.84,1.09-1.2,2.41-2.25,6.42-1.72,7.82,1,.31.61.48.32.73,0A5.38,5.38,0,0,1,82.77,22a4.81,4.81,0,0,1,3.63,4.17A12,12,0,0,1,86.53,28q0,6.66,0,13.33c0,.88,0,.88-.86.88-1.75,0-1.5.16-1.5-1.49,0-4.16,0-8.32,0-12.48A7.15,7.15,0,0,0,83.81,26a2.71,2.71,0,0,0-2-2.08A3.44,3.44,0,0,0,78.29,25,5.44,5.44,0,0,0,77,28.52c0,4.2,0,8.41,0,12.61,0,1.11,0,1.12-1.11,1.11-1.44,0-1.33.12-1.33-1.35q0-6.37,0-12.74a6.82,6.82,0,0,0-.21-1.94,2.83,2.83,0,0,0-2.12-2.33,3.43,3.43,0,0,0-3.52,1.2,6.64,6.64,0,0,0-1.34,4.28c0,4,0,8,0,12,0,.92,0,.93-1,.92-1.65,0-1.41.15-1.41-1.44q0-8.82,0-17.64c0-.89,0-.89.91-.9h.33c.87,0,.87,0,.88.87,0,.45,0,.89,0,1.34Z"/><path class="cls-1" d="M26.05,32.8c2,0,3.93-.14,5.87,0a4.42,4.42,0,0,1,4.36,4.64c.08,2.17,0,4.35-.09,6.52A4.4,4.4,0,0,1,32,48a59.39,59.39,0,0,1-8.09-.09A4.51,4.51,0,0,1,20,43.51c0-3.35,0-6.7,0-10.06,0-.57.19-.76.76-.75,1.76,0,3.53,0,5.29,0Z"/><path class="cls-1" d="M19.32,26.19c0,1.59,0,3.18,0,4.77,0,1.07-.05,1.11-1.09,1.11-2.61,0-5.23,0-7.84,0-1.06,0-2.13,0-3.2-.09A4.58,4.58,0,0,1,3,27.49c-.1-2.22,0-4.44.12-6.66a4.49,4.49,0,0,1,4.32-4.05q3.59-.06,7.19,0a4.68,4.68,0,0,1,4.69,4.84q0,2.29,0,4.57Z"/><path class="cls-1" d="M19.22,38.45c0,1.55,0,3.09,0,4.64a4.62,4.62,0,0,1-4.81,4.81c-2.24,0-4.48,0-6.72,0a4.67,4.67,0,0,1-4.6-3.55,3.74,3.74,0,0,1-.1-1q0-3,0-5.94a4.56,4.56,0,0,1,4.62-4.79c3.68,0,7.35.05,11,.07.47,0,.59.22.59.64,0,1.7,0,3.39,0,5.09Z"/><path class="cls-1" d="M26.18,32.07c-1.81,0-3.61,0-5.42,0-.56,0-.79-.17-.76-.74.19-3.37,0-6.74.13-10.12a4.51,4.51,0,0,1,4.41-4.32c2.42,0,4.83,0,7.25,0a4.55,4.55,0,0,1,4.55,4.59c0,2,0,4,0,6a4.62,4.62,0,0,1-4.73,4.63c-1.81,0-3.61,0-5.42,0Z"/><path class="cls-1" d="M48.49,32.2c0-3,0-6.05,0-9.08,0-.61.15-.84.8-.83,1.56,0,1.56,0,1.57,1.55,0,.21-.11.51.1.6s.39-.21.53-.38A5.72,5.72,0,0,1,58,22.25a4.56,4.56,0,0,1,3.07,4,12.68,12.68,0,0,1,.15,2q0,6.5,0,13c0,.87,0,.88-.86.87-1.64,0-1.45.23-1.46-1.46q0-6.5,0-13a4.37,4.37,0,0,0-.08-.78,3.43,3.43,0,0,0-3.27-3.18,4,4,0,0,0-4,2.51,8.12,8.12,0,0,0-.58,3.06q0,6,0,12c0,.89,0,.9-.91.89-1.69,0-1.44.2-1.44-1.46C48.48,37.86,48.49,35,48.49,32.2Z"/><path class="cls-1" d="M130.3,32.89a38.39,38.39,0,0,1,.24-5.7,5.71,5.71,0,0,1,5.91-5.31,8.31,8.31,0,0,1,2,.18,4.74,4.74,0,0,1,3.9,4.4c.21,2,.08,1.5-1.45,1.58-.6,0-.88-.13-.87-.76a4.42,4.42,0,0,0-.13-1.1c-.41-1.66-1.55-2.41-3.55-2.36a3.24,3.24,0,0,0-3.13,2.73,31.66,31.66,0,0,0-.42,5.78,21.06,21.06,0,0,0,.42,5.39c.36,1.38,1,2.65,2.56,2.89,2.41.37,3.86-.57,4.19-2.93,0-.13,0-.26,0-.39.09-.87.13-.91,1-.92,1.59,0,1.59,0,1.38,1.61a5,5,0,0,1-5.14,4.56,10.05,10.05,0,0,1-2.4-.19c-2.36-.55-3.78-2.2-4.26-4.89A26.13,26.13,0,0,1,130.3,32.89Z"/><path class="cls-1" d="M165.22,28q0,6.7,0,13.4c0,.89,0,.9-.92.89-1.65,0-1.44.16-1.44-1.42q0-13,0-26c0-1.06,0-1.06,1.09-1.06,1.41,0,1.27-.11,1.27,1.26Q165.22,21.48,165.22,28Z"/><path class="cls-1" d="M124.17,32.2c0-3,0-6.09,0-9.14,0-.63.19-.83.82-.81,1.81.05,1.56-.21,1.56,1.56q0,8.75,0,17.49c0,.93,0,.94-.94.94-1.67,0-1.41.14-1.42-1.43C124.16,37.94,124.17,35.07,124.17,32.2Z"/><path class="cls-1" d="M43.81,32.27c0,3,0,6,0,9.07,0,.62-.18.84-.81.82-1.7-.05-1.44.17-1.45-1.47q0-8.75,0-17.49c0-.9,0-.91.89-.91,1.56,0,1.35-.14,1.36,1.36C43.81,26.53,43.81,29.4,43.81,32.27Z"/><path class="cls-1" d="M125.37,20.71c-1.28,0-1.34.3-1.33-1.35,0-.88,0-.88.86-.88.41,0,.83,0,1.24,0s.55.17.53.55c0,.13,0,.26,0,.39C126.67,20.87,126.77,20.69,125.37,20.71Z"/><path class="cls-1" d="M42.7,20.66c-1.55,0-1.24.06-1.28-1.3,0-.83,0-.84.82-.85h.13c1.69,0,1.76.08,1.62,1.81,0,.26-.14.35-.37.35Z"/><path class="cls-1" d="M48.68,45.74c-.06.61-.11,1.22-.18,1.83,0,.18.09.53-.24.49s-.13-.33-.12-.5c.05-.8.12-1.6.19-2.4,0-.2,0-.48.27-.51s.38.23.46.45c.21.6.4,1.19.61,1.79,0,.13,0,.34.26.31s.17-.18.22-.3c.23-.61.44-1.23.68-1.83.07-.19.12-.45.42-.43s.28.3.29.5c.07.87.13,1.73.19,2.6,0,.14.05.35-.17.35s-.19-.21-.2-.35c0-.5-.07-1-.12-1.49,0-.21.06-.44-.16-.64a3.39,3.39,0,0,0-.54,1.21c-.13.32-.24.65-.37,1-.05.14-.09.32-.28.31s-.22-.18-.27-.32l-.72-2.05Z"/><path class="cls-1" d="M77.14,45.55c-.05.77-.1,1.44-.15,2.11,0,.16,0,.41-.19.42s-.2-.25-.19-.41c.06-.85.12-1.69.2-2.54,0-.2,0-.47.31-.49s.33.24.4.44a16.28,16.28,0,0,0,.94,2.22l.76-2a5.1,5.1,0,0,1,.2-.48.3.3,0,0,1,.33-.15.25.25,0,0,1,.23.27q.1,1.46.2,2.93c0,.12,0,.24-.15.25s-.18-.11-.19-.22q-.07-.71-.11-1.43a2.47,2.47,0,0,0-.13-1,5.22,5.22,0,0,0-.63,1.4c-.11.24-.17.49-.26.74s-.1.48-.38.47-.25-.27-.31-.45c-.16-.45-.3-.91-.46-1.36A1.41,1.41,0,0,0,77.14,45.55Z"/><path class="cls-1" d="M96.31,47.18c0-.73,0-1.4,0-2.06,0-.16,0-.42.19-.41s.18.26.18.43q0,1.24,0,2.48c0,.19,0,.43-.2.5s-.37-.17-.48-.35c-.37-.57-.72-1.14-1.09-1.7-.11-.17-.15-.5-.41-.41s-.11.39-.12.59c0,.48,0,1,0,1.44,0,.16,0,.4-.22.39s-.17-.22-.17-.37q0-1.31,0-2.61c0-.17,0-.37.19-.44s.37.07.48.24l1.14,1.82C95.9,46.88,95.94,47.09,96.31,47.18Z"/><path class="cls-1" d="M152.64,45.58c0,.67,0,1.34,0,2,0,.18.07.47-.2.47s-.16-.27-.16-.43q0-1.24,0-2.48c0-.18-.06-.42.21-.48s.34.15.45.31l1.51,2.38a3,3,0,0,0,.09-1.12c0-.37,0-.74,0-1.11,0-.16,0-.41.2-.41s.16.23.16.37q0,1.31,0,2.61c0,.16,0,.38-.21.42s-.31-.13-.4-.28l-1.46-2.3Z"/><path class="cls-1" d="M59.17,45.48c0,.78,0,1.52,0,2.26,0,.14,0,.35-.22.32s-.15-.2-.15-.32q0-1.34,0-2.68c0-.17,0-.37.23-.41s.31.12.4.27l1.21,1.93a.86.86,0,0,0,.39.36c0-.61,0-1.22,0-1.83,0-.24-.11-.67.17-.67s.21.44.22.69c0,.74,0,1.48,0,2.22,0,.18.06.42-.21.49s-.34-.15-.44-.31l-1.21-1.93C59.49,45.73,59.46,45.53,59.17,45.48Z"/><path class="cls-1" d="M120,44.87c-.37.16-.67,0-1,0a1.46,1.46,0,0,0-1.34,1.63,1.37,1.37,0,0,0,1.58,1.35c.23,0,.46-.06.47-.34s.14-.62-.2-.82c-.13-.08-.4,0-.37-.26s.21-.14.33-.13.49-.08.62.22a1.12,1.12,0,0,1-1.16,1.68,1.65,1.65,0,0,1-1.61-1.2,1.88,1.88,0,0,1,.6-2.06A1.86,1.86,0,0,1,120,44.87Z"/><path class="cls-1" d="M146.07,44.65c.24,0,.29.21.34.37.21.66.42,1.32.63,2,0,.14,0,.34.24.34s.2-.21.25-.34c.23-.66.44-1.32.67-2,.06-.17.11-.45.37-.34s.06.31,0,.46c-.3.86-.61,1.71-.93,2.57-.07.2-.12.44-.41.43s-.3-.22-.36-.4c-.3-.88-.59-1.77-.88-2.66C146,44.93,145.86,44.75,146.07,44.65Z"/><path class="cls-1" d="M161.44,47.41c.26-.75.51-1.51.79-2.26.07-.2.08-.58.4-.47s0,.38,0,.56c-.28.82-.58,1.63-.88,2.45-.07.2-.12.44-.4.44s-.33-.24-.4-.45c-.28-.84-.57-1.69-.84-2.53-.05-.16-.17-.38,0-.46s.31.17.37.33c.26.79.51,1.59.76,2.39Z"/><path class="cls-1" d="M110.35,46.32c-.4.4-1.28-.27-1.34.78-.08,1.28,1,.52,1.51,1a3.77,3.77,0,0,1-1.62.09c-.26,0-.27-.24-.28-.44,0-.87,0-1.74,0-2.61,0-.33.14-.48.47-.47h1.11c.11,0,.24,0,.25.15s-.14.19-.26.2a3.17,3.17,0,0,1-.46,0c-.42,0-.7.06-.71.59s.22.64.68.62A.76.76,0,0,1,110.35,46.32Z"/><path class="cls-1" d="M151.22,46.35c-.6.25-1.58-.19-1.42,1s1.05.22,1.48.75a3.66,3.66,0,0,1-1.7,0c-.23,0-.18-.32-.18-.51,0-.8,0-1.61,0-2.41,0-.42.15-.6.57-.57s.7,0,1,0c.12,0,.23,0,.23.18s-.13.16-.24.17a4.1,4.1,0,0,1-.52,0c-.46,0-.67.13-.67.63s.22.6.64.58A1,1,0,0,1,151.22,46.35Z"/><path class="cls-1" d="M83.12,48a4,4,0,0,1-1.69.1c-.22,0-.26-.21-.26-.39q0-1.37,0-2.74c0-.23.11-.38.35-.38h1.24c.11,0,.23,0,.24.16s-.11.18-.22.18a4.85,4.85,0,0,1-.52,0c-.42,0-.7.05-.71.59s.22.64.67.62a.9.9,0,0,1,.67.12c-.25.27-.57.17-.83.17-.54,0-.5.36-.5.71s0,.71.52.7A1.69,1.69,0,0,1,83.12,48Z"/><path class="cls-1" d="M145.22,44.73c-.29.36-.62.24-.9.24-.44,0-.54.22-.55.61s.12.61.56.59a1,1,0,0,1,.74.11c-.14.26-.36.17-.53.18a.77.77,0,0,0-.74,1.17c.1.24.29.22.48.24a2.32,2.32,0,0,1,1.05.15,3.68,3.68,0,0,1-1.68.12c-.26,0-.28-.24-.28-.44,0-.87,0-1.74,0-2.61,0-.33.14-.49.47-.47A3.71,3.71,0,0,1,145.22,44.73Z"/><path class="cls-1" d="M74.21,46.22c-.42.45-1.43-.14-1.3,1.06s1.07.26,1.49.8a3.5,3.5,0,0,1-1.67,0c-.24,0-.19-.32-.19-.5,0-.81,0-1.61,0-2.42,0-.42.16-.61.58-.57h.07c.37.06,1-.15,1.06.14s-.59.16-.92.23-.36.36-.37.64,0,.54.39.55Z"/><path class="cls-1" d="M91.59,44.8c-.2.2-.37.1-.54.09a1.42,1.42,0,0,0-1.6,1.48A1.37,1.37,0,0,0,91,47.88l.39,0c.09,0,.18,0,.21.1s-.09.16-.19.2a2,2,0,0,1-2.07-.6,2.05,2.05,0,0,1,.1-2.38A1.75,1.75,0,0,1,91.59,44.8Z"/><path class="cls-1" d="M43.53,44.87c-1.67.1-2.14.42-2.2,1.44a1.47,1.47,0,0,0,.61,1.37c.46.33,1,.14,1.53.23a1.55,1.55,0,0,1-2-.08,2,2,0,0,1-.19-2.56A1.68,1.68,0,0,1,43.53,44.87Z"/><path class="cls-1" d="M135.05,44.92c-.06.11-.15.28-.25.45a3.27,3.27,0,0,0-.73,2.24c0,.18,0,.47-.2.49s-.28-.3-.25-.49a4,4,0,0,0-.83-2.49c-.07-.14-.27-.32,0-.45s.3.1.39.25c.17.33.33.66.51,1s.32.27.47,0l.59-1.09a.25.25,0,0,1,.26-.16C135.07,44.67,135.08,44.75,135.05,44.92Z"/><path class="cls-1" d="M158.06,44.85c-1,.35-1,.35-1,1.52,0,.43,0,.87,0,1.3,0,.16,0,.4-.22.39s-.16-.23-.16-.37c0-.65,0-1.3,0-2,0-.5-.11-.8-.68-.75-.15,0-.41,0-.38-.22s.24-.15.38-.15h2.08Z"/><path class="cls-1" d="M62.48,46.27c0-.43,0-.87,0-1.3,0-.14,0-.34.19-.34s.2.15.2.28c0,1,0,2,0,2.93,0,.13,0,.27-.22.25s-.16-.14-.16-.25c0-.52,0-1,0-1.56Z"/><path class="cls-1" d="M87.82,46.35c0-.46,0-.91,0-1.37,0-.12,0-.29.19-.28s.16.14.16.25q0,1.43,0,2.87c0,.11,0,.24-.17.25s-.19-.16-.19-.29C87.82,47.31,87.82,46.83,87.82,46.35Z"/><path class="cls-1" d="M92.93,46.42c0,.45,0,.91,0,1.36,0,.13,0,.29-.18.3s-.2-.14-.2-.27q0-1.43,0-2.86c0-.13,0-.28.21-.26s.18.17.18.3C92.93,45.47,92.93,45.94,92.93,46.42Z"/><path class="cls-1" d="M159.2,46.43c0,.45,0,.91,0,1.36,0,.13,0,.29-.19.29s-.19-.15-.19-.28q0-1.43,0-2.85c0-.13,0-.27.21-.25s.16.14.16.25c0,.5,0,1,0,1.49Z"/><path class="cls-2" d="M60.77,43.92c-.3.74-.87-.08-1.17.38C59.66,44,59.66,44,60.77,43.92Z"/><path class="cls-3" d="M24.9,33.39c1,0,2,0,2.94,0a3.07,3.07,0,0,1,3.25,3.24A37,37,0,0,1,31,40.48a2.79,2.79,0,0,1-2.51,2.43c-1.63,0-3.27,0-4.9,0a3,3,0,0,1-2.75-3.4c.12-1.76,0-3.53.09-5.29,0-.8,0-.84.86-.84H24.9Z"/><path class="cls-3" d="M18.41,28c0,1,0,2,0,3.07,0,.48-.22.68-.68.63-2.13-.21-4.26-.06-6.4-.1a2.86,2.86,0,0,1-3.11-3.13q0-1.73,0-3.46A2.88,2.88,0,0,1,11,22q2.22-.06,4.44,0a3,3,0,0,1,2.93,3c0,1,0,1.92,0,2.87Z"/><path class="cls-3" d="M14.3,33.38c1.11,0,2.22,0,3.33,0,.51,0,.69.2.69.7,0,2,0,4,0,6A2.85,2.85,0,0,1,15.5,42.9c-1.5,0-3,0-4.5,0A2.93,2.93,0,0,1,8.12,40c0-1.24,0-2.48,0-3.72a2.85,2.85,0,0,1,3-2.9H14.3Z"/><path class="cls-3" d="M24.93,31.67c-1.11,0-2.22,0-3.33,0-.49,0-.71-.16-.7-.68,0-2,0-3.92,0-5.88a2.89,2.89,0,0,1,3.09-3h4.11a2.86,2.86,0,0,1,3,3c0,1.18,0,2.35,0,3.53A2.91,2.91,0,0,1,28,31.68H24.93Z"/><path class="cls-1" d="M119.65,41.67a18.52,18.52,0,0,1-.17-2.28q0-12.06,0-24.11c0-1.74.24-1.49-1.52-1.54-.67,0-.85.21-.85.86,0,2.92,0,5.84,0,8.76,0,.23.07.47-.08.69-.22,0-.3-.17-.41-.29A6.11,6.11,0,0,0,110.75,22a5.08,5.08,0,0,0-4.05,4.23,27.8,27.8,0,0,0,0,12,5.36,5.36,0,0,0,1.79,3.12,5.93,5.93,0,0,0,8.24-.93c.15-.19.25-.45.52-.52a1,1,0,0,1,.11.67c0,1.94-.2,1.64,1.83,1.67C119.61,42.25,119.7,42.08,119.65,41.67Zm-3-3.92a4.11,4.11,0,0,1-5.1,2.82,3,3,0,0,1-2-1.6,7.8,7.8,0,0,1-.8-2.87,35.64,35.64,0,0,1,0-8.71,5,5,0,0,1,1-2.39c1.31-1.74,5.46-1.83,6.69,1.07a10.59,10.59,0,0,1,.82,3.8c0,.78,0,1.57,0,2.35A15.13,15.13,0,0,1,116.64,37.76Z"/><path class="cls-1" d="M158.24,41.7a36.55,36.55,0,0,1-.21-4.17q0-5.36,0-10.72a4.44,4.44,0,0,0-3.72-4.68,11.34,11.34,0,0,0-4.22-.12,5.27,5.27,0,0,0-4.82,4.59c-.07.46,0,.67.51.64a6.07,6.07,0,0,1,1,0c.66.09.94-.19,1-.83a2.85,2.85,0,0,1,1.9-2.3,5.79,5.79,0,0,1,2.64-.28,3.1,3.1,0,0,1,3,2.36,8.43,8.43,0,0,1,.27,2.52c0,1.47,0,1.49-1.51,1.51a23.14,23.14,0,0,0-4.41.41c-2.1.43-3.87,1.33-4.7,3.49a8.65,8.65,0,0,0-.35,3.61,5,5,0,0,0,5,4.82,6.62,6.62,0,0,0,6-2.65.68.68,0,0,1,.14.57c0,2,.06,2,2,1.77C158.18,42.21,158.28,42.06,158.24,41.7ZM155,38.18a4.89,4.89,0,0,1-5.27,2.4,3.08,3.08,0,0,1-2-1.61,4.35,4.35,0,0,1,2.93-6.56,13,13,0,0,1,2.52-.32c.67,0,1.35,0,2-.06.38,0,.52.13.52.48,0,.63,0,1.26,0,2.12A6.1,6.1,0,0,1,155,38.18Z"/><path class="cls-1" d="M92.93,32.72c1.65,0,3.31,0,5,0h5c.34,0,.68,0,.67-.48a20.6,20.6,0,0,0-.66-6.72,4.78,4.78,0,0,0-3-3.15,9.46,9.46,0,0,0-3.6-.5A6,6,0,0,0,90.2,26.8a10.83,10.83,0,0,0-.32,2.26,40.36,40.36,0,0,0,.19,8.53,5.5,5.5,0,0,0,4.41,4.77,10.71,10.71,0,0,0,3.51.15c3.63-.35,5.16-2.43,5.53-5.83,0-.38-.1-.58-.51-.56s-.87,0-1.31,0-.65.15-.68.63a3.89,3.89,0,0,1-3.56,3.92,4.09,4.09,0,0,1-4.69-2.77,13.56,13.56,0,0,1-.62-4.37C92.14,32.93,92.31,32.71,92.93,32.72Zm-.77-2.53a16.1,16.1,0,0,1,.52-3.73,3.48,3.48,0,0,1,3.4-2.64,6.7,6.7,0,0,1,2.14.11c1.81.51,2.47,1.93,2.78,3.59a15.6,15.6,0,0,1,.2,2.66c0,.56-.22.71-.74.7-1.26,0-2.52,0-3.78,0s-2.52,0-3.78,0C92.37,30.9,92.12,30.75,92.15,30.19Z"/><path class="cls-1" d="M169.68,13.89a2.79,2.79,0,0,0-2.92,2.9,2.89,2.89,0,0,0,5.78,0A2.77,2.77,0,0,0,169.68,13.89Zm1.91,4.43c-.14.16-.27.4-.52.32s-.19-.31-.25-.5a2.51,2.51,0,0,0-.26-.73c-.22-.31-.16-.5.07-.79a.94.94,0,0,0-.56-1.57,2.2,2.2,0,0,0-.9-.08c-.38,0-.6.22-.58.63s0,.91,0,1.37h0c0,.48,0,1,0,1.44,0,.15,0,.34.22.33s.16-.18.17-.31,0-.39,0-.59-.08-.61.33-.68a.77.77,0,0,1,.92.45c.18.39.23.83.4,1.24s-.25.29-.42.34a2.51,2.51,0,0,1-2.88-1.58,2.48,2.48,0,0,1,4.36-2.26A2.44,2.44,0,0,1,171.59,18.32Zm-2-3c.49,0,.87.19.86.74s-.4.7-.88.73-.59-.31-.56-.72S169,15.29,169.58,15.32Z"/><path class="cls-1" d="M45.72,44.56a1.73,1.73,0,0,0-1.63,1.84,1.67,1.67,0,0,0,1.6,1.84,1.69,1.69,0,0,0,1.64-1.87A1.65,1.65,0,0,0,45.72,44.56Zm.06,3.34c-.75,0-1.24-.57-1.23-1.52a2,2,0,0,1,.15-.83,1.09,1.09,0,0,1,1.23-.65c.62.1,1,.78,1,1.64S46.44,47.86,45.77,47.9Z"/><path class="cls-1" d="M127.42,45.72c-.22-.85-1.17-1.29-2.38-1.1-.89.14-.31.88-.47,1.33a1.47,1.47,0,0,0,0,.45h0c0,.44,0,.87,0,1.31,0,.2,0,.4.28.44a2.43,2.43,0,0,0,2.1-.43A1.9,1.9,0,0,0,127.42,45.72Zm-.51,1.38a1.34,1.34,0,0,1-1.32.79c-.46,0-.63-.18-.61-.61s0-.61,0-.91h0a2.06,2.06,0,0,1,0-.39c.07-.37-.24-.92.35-1.05a1.36,1.36,0,0,1,1.46.51A1.63,1.63,0,0,1,126.91,47.1Z"/><path class="cls-1" d="M71.6,45.79c-.15-.89-1.11-1.35-2.38-1.17-.86.13-.33.83-.46,1.26a1.79,1.79,0,0,0,0,.52h0q0,.65,0,1.3c0,.23,0,.43.33.47C70.64,48.38,71.93,47.74,71.6,45.79Zm-1.16,1.95c-.88.41-1.28.16-1.28-.79,0-.52,0-1,0-1.56,0-.33.17-.46.48-.49a1.45,1.45,0,0,1,1.6,1.65A1.33,1.33,0,0,1,70.43,47.74Z"/><path class="cls-1" d="M86.77,45.54A1.7,1.7,0,0,0,85,44.6c-.83,0-.94,0-1,.53,0,.85,0,1.69,0,2.54,0,.23,0,.45.32.48a2.22,2.22,0,0,0,2.12-.54A1.87,1.87,0,0,0,86.77,45.54Zm-.27.95a1.47,1.47,0,0,1-1.45,1.4c-.44,0-.65-.12-.62-.58s0-.65,0-1,0-.48,0-.72c0-.68.21-.83.89-.68A1.42,1.42,0,0,1,86.5,46.49Z"/><path class="cls-1" d="M142.11,46.77a.37.37,0,0,1,0-.52.89.89,0,0,0,.12-1.24,1.77,1.77,0,0,0-1.7-.37c-.48.2-.23.64-.27,1a5.64,5.64,0,0,0,0,.78c0,.3,0,.61,0,.91s-.13.72.19.73.15-.46.2-.71-.13-.67.35-.71a.77.77,0,0,1,.87.54c.09.24.13.5.21.75s.1.21.23.18.13-.15.12-.26A2.74,2.74,0,0,0,142.11,46.77Zm-.9-.46c-.52,0-.57-.27-.55-.65s-.07-.79.52-.77.85.18.86.69S141.67,46.27,141.2,46.32Z"/><path class="cls-1" d="M107.37,46.76c-.13-.19-.16-.34,0-.51a.88.88,0,0,0,.15-1.23,1.7,1.7,0,0,0-1.69-.38c-.47.2-.22.64-.26,1a5.73,5.73,0,0,0,0,.78,7.76,7.76,0,0,0,0,.85c0,.28-.14.79.18.79s.15-.52.23-.8a.66.66,0,0,0,0-.19c0-.4.2-.49.54-.42a.79.79,0,0,1,.65.65c.06.23.11.46.19.69s.13.2.25.13a.26.26,0,0,0,.08-.22A2.65,2.65,0,0,0,107.37,46.76Zm-.94-.46c-.54,0-.39-.39-.43-.65s-.09-.79.47-.75.84.19.82.71S106.87,46.28,106.43,46.31Z"/><path class="cls-1" d="M57.83,47.77c-.32-.95-.64-1.89-1-2.84-.06-.17-.15-.31-.37-.3s-.29.17-.35.34c-.31.88-.62,1.76-.91,2.65-.06.16-.23.4.05.49s.27-.2.31-.35a.78.78,0,0,1,.85-.7c.55,0,.86.16,1,.71,0,.16.11.35.34.33s.12-.11.11-.2A1.09,1.09,0,0,0,57.83,47.77Zm-1-1.13a.7.7,0,0,1-.69,0c-.27-.14-.08-.38,0-.57s.17-.48.28-.79a1.3,1.3,0,0,1,.43.8C56.91,46.28,57.07,46.49,56.85,46.64Z"/><path class="cls-1" d="M100.25,47.7c-.3-.9-.61-1.81-.93-2.71-.07-.19-.14-.37-.4-.36s-.31.2-.38.38l-.89,2.58c0,.1-.06.21-.08.28s0,.22.11.23.26-.16.29-.29a.87.87,0,0,1,1-.76c.58,0,.74.31.88.76,0,.16.12.38.35.29S100.29,47.83,100.25,47.7Zm-1-1a.75.75,0,0,1-.69,0c-.3-.14-.09-.39,0-.57s.09-.52.37-.71a1.46,1.46,0,0,1,.35.73C99.34,46.29,99.52,46.51,99.3,46.65Z"/><path class="cls-1" d="M66.53,47.81c-.33-1-.68-2-1-3a.32.32,0,0,0-.37-.21c-.21,0-.28.2-.33.36-.31.88-.62,1.76-.91,2.65,0,.14-.19.37.06.43s.26-.2.3-.35a.79.79,0,0,1,.87-.68.86.86,0,0,1,1,.79c0,.15.11.3.3.28S66.54,48,66.53,47.81Zm-1.26-1.1c-.24,0-.6.07-.53-.35a2.62,2.62,0,0,1,.42-1.12,3.59,3.59,0,0,1,.45,1.1C65.71,46.63,65.53,46.72,65.27,46.71Z"/><path class="cls-1" d="M116.62,47.76c-.32-.91-.65-1.93-1.05-2.92-.15-.36-.49-.3-.62.05-.36,1-.67,1.93-1,2.9,0,.11-.1.27.1.32s.19-.08.23-.18a1.6,1.6,0,0,0,.12-.3c.11-.5.46-.55.89-.56s.76.11.86.59a1,1,0,0,0,.16.35.28.28,0,0,0,.21.1C116.67,48.09,116.64,48,116.62,47.76Zm-1-1.1a.76.76,0,0,1-.69,0c-.28-.14-.08-.39,0-.56a1.19,1.19,0,0,1,.43-.79c.11.3.22.53.28.78S115.88,46.51,115.62,46.66Z"/><path class="cls-1" d="M165.73,47.83c-.34-1-.66-2-1-2.95-.14-.36-.48-.36-.62,0-.38,1-.69,2-1,3,0,.13,0,.27.17.28a.51.51,0,0,0,.26-.42c.11-.5.42-.6.9-.63s.81.28.93.77c0,.15.1.31.29.3S165.77,47.95,165.73,47.83Zm-1.29-1.12c-.3,0-.58,0-.49-.37s.13-1,.43-1,.35.67.44,1.06S164.56,46.65,164.43,46.71Z"/><path class="cls-1" d="M130.84,47.78c-.33-.93-.68-1.94-1-2.94a.31.31,0,0,0-.37-.19c-.21,0-.26.21-.32.37-.3.86-.6,1.72-.9,2.58-.05.15-.2.38,0,.47s.32-.16.37-.34a.79.79,0,0,1,.86-.68c.62,0,.85.28,1,.79,0,.14.1.31.3.28S130.85,48,130.84,47.78Zm-1-1.13a.72.72,0,0,1-.68,0c-.24-.11-.12-.33-.06-.51a2.34,2.34,0,0,1,.37-.88,2.2,2.2,0,0,1,.36.86C129.91,46.3,130.05,46.52,129.85,46.65Z"/><path class="cls-1" d="M123.69,47.84c-.34-1-.66-2-1.1-3-.18-.4-.52-.18-.64.17-.32.9-.61,1.8-.91,2.71,0,.13-.15.33,0,.4s.29-.16.33-.3a.83.83,0,0,1,.89-.73.87.87,0,0,1,1,.79c0,.14.11.29.31.28S123.7,48,123.69,47.84Zm-1-1.18a.76.76,0,0,1-.69,0c-.26-.15-.07-.39,0-.57s.09-.55.37-.72c.24.2.25.49.34.75S122.94,46.52,122.66,46.66Z"/><path class="cls-1" d="M139.38,45.41c-.14-.61-.72-.87-1.64-.81-.68,0-.48.54-.51.91s0,.61,0,.91h0c0,.45,0,.91,0,1.36,0,.13,0,.29.19.29s.22-.15.2-.27c-.12-.77.16-1.19,1-1.15l.06,0A1.05,1.05,0,0,0,139.38,45.41Zm-1.24,1c-.6.05-.49-.39-.51-.75s-.12-.83.52-.79c.46,0,.81.24.82.74S138.64,46.39,138.15,46.44Z"/><path class="cls-1" d="M104.69,45.55c-.06-.62-.55-1-1.43-.95-.24.07-.7-.13-.72.3-.05,1,0,2,0,3a.24.24,0,0,0,.15.18c.13,0,.18-.11.18-.22a4.11,4.11,0,0,0,0-.52c0-.4.13-.58.56-.61C104.31,46.66,104.75,46.21,104.69,45.55Zm-1.28.89c-.64,0-.51-.43-.53-.76s-.07-.81.52-.8.92.32.89.8S103.9,46.41,103.41,46.44Z"/><path class="cls-1" d="M54.83,45.34c-.17-.58-.83-.83-1.7-.73-.6.07-.4.52-.43.84s0,.61,0,.91h0c0,.43,0,.87,0,1.3,0,.16,0,.4.2.4s.19-.23.17-.36c-.11-.71.16-1.06.9-1a.7.7,0,0,0,.37-.12A1,1,0,0,0,54.83,45.34Zm-1.26,1.11c-.61,0-.46-.44-.49-.77s-.1-.8.5-.78.85.21.89.74A.82.82,0,0,1,53.57,46.44Z"/><path class="cls-1" d="M113.59,45.41c-.11-.61-.63-.85-1.56-.81-.73,0-.51.56-.54.95s0,.56,0,.85h0c0,.46,0,.91,0,1.37,0,.14,0,.34.22.31s.18-.2.16-.31c-.13-.77.19-1,1-1.12C113.44,46.58,113.7,46,113.59,45.41Zm-1.25,1c-.57,0-.46-.4-.45-.72s-.17-.82.44-.8.84.19.87.76S112.82,46.4,112.34,46.43Z"/><path class="cls-1" d="M24.16,34c.65,0,1.31,0,2,0A1.83,1.83,0,0,1,28,35.92c0,.74,0,1.48,0,2.22a1.86,1.86,0,0,1-1.95,2A28.47,28.47,0,0,1,22.89,40a1.77,1.77,0,0,1-1.43-1.72c0-1.24,0-2.48,0-3.72,0-.39.19-.55.57-.54Z"/><path class="cls-1" d="M17.9,28.66c0,.63,0,1.26,0,1.89,0,.4-.17.59-.58.6A37.3,37.3,0,0,1,12.82,31a1.68,1.68,0,0,1-1.43-1.63,22.06,22.06,0,0,1,0-2.61A1.82,1.82,0,0,1,13.3,25c.87,0,1.74,0,2.61,0a1.87,1.87,0,0,1,2,2c0,.54,0,1.09,0,1.63Z"/><path class="cls-1" d="M14.63,40c-.5,0-1,0-1.5,0a1.75,1.75,0,0,1-1.76-1.8c0-.81,0-1.61,0-2.42a1.78,1.78,0,0,1,1.77-1.89c1.43,0,2.87.06,4.3.1.33,0,.46.22.45.52,0,1.37-.05,2.74-.16,4.11A1.59,1.59,0,0,1,16.14,40C15.64,40.06,15.13,40,14.63,40Z"/><path class="cls-1" d="M24.24,31.16c-.67,0-1.35,0-2,0-.46,0-.68-.16-.67-.65,0-1.24,0-2.48,0-3.72A1.72,1.72,0,0,1,23,25.12a14.33,14.33,0,0,1,3.7.08,1.3,1.3,0,0,1,1.2,1.21,11.44,11.44,0,0,1,.08,3,1.78,1.78,0,0,1-2,1.7H24.24Z"/></svg>