<svg id="Capa_8" data-name="Capa 8" xmlns="http://www.w3.org/2000/svg" viewBox="0 0 515 131.18"><title>kafka_logo</title><path d="M352.86,89.26h-8.76c-1,0-1.39-.66-1.86-1.31L331.09,72.51c-.72.68-.4,1.45-.41,2.09,0,4.19-.11,8.38,0,12.56.06,1.82-.58,2.28-2.23,2.13a20.71,20.71,0,0,0-4.18,0c-1.93.22-2.29-.6-2.27-2.37.08-10.43,0-20.86,0-31.3V43.5c0-1.37.3-2,1.84-1.9a30,30,0,0,0,4.85,0c1.54-.12,2,.4,2,2-.08,7,0,14,0,20.93v2.7c3.71-4.09,7.08-7.72,10.32-11.46a4.57,4.57,0,0,1,4.12-1.88c2.41.17,4.84,0,7.56,0a32,32,0,0,1-4.38,5c-2.94,3.19-5.88,6.36-8.94,9.44-.94.95-.93,1.51-.16,2.52,4.13,5.43,8.18,10.94,12.27,16.41C351.86,87.8,352.22,88.33,352.86,89.26Z"/><path d="M231.61,66.74c3.51-3.86,7-7.69,10.44-11.59a3.29,3.29,0,0,1,2.82-1.26c2.7.09,5.4,0,8.61,0l-9.6,10.23-1.36,1.45c-3.8,4-3.8,4-.53,8.41l11.39,15.26h-9.46c-.74,0-1-.88-1.34-1.35Q237,80.22,231.51,72.53c-.8.46-.46,1.1-.46,1.61,0,4.48-.06,9,0,13.44,0,1.33-.35,1.84-1.75,1.75a48.7,48.7,0,0,0-5.26,0c-1.17.05-1.49-.39-1.48-1.52q0-22.26,0-44.51c0-1.24.36-1.75,1.62-1.62,2.18.18,4.94-.88,6.4.4s.41,4,.44,6.13c.06,6.13,0,12.27,0,18.4Z"/><path d="M302.37,74.86c0-4-.07-8.09,0-12.13,0-1.65-.3-2.55-2.14-2.21s-2.55-.43-2.24-2.25a4.8,4.8,0,0,0,0-1.54c-.37-2.24.44-3.25,2.79-2.83,1.29.24,1.54-.44,1.59-1.63.36-8.11,4.71-12,12.78-11.51.22,0,.53-.05.64.06,1.41,1.57.32,3.51.64,5.18.2,1.06-.41,1.27-1.38,1.42-3.06.47-4.16,1.92-4.22,4.9,0,1.28.41,1.59,1.64,1.61,4,.07,3.83.13,4,4,.11,2.24-.67,2.63-2.72,2.63-3.32-.13-2.91-.51-2.92,2.87,0,7.89,0,15.73,0,23.59,0,1.61-.25,2.44-2.12,2.26-2-.2-4.75.63-6-.4-1.41-1.2-.39-4-.46-6.13C302.31,80.15,302.37,77.5,302.37,74.86Z"/><path d="M174.33,74.36c-3.74,2.82-6.13,2.11-9.17-.18a3.39,3.39,0,0,0-.76-.44c-1.08-.44-1.3-1.08-.88-2.23a22,22,0,0,0,.82-8.06c-.08-1.86-1.75-3.87-.62-5.37s3.23-1.92,4.79-3c1.36-.95,2.22-.88,3.51.29A16.34,16.34,0,1,0,178.91,27c-7.34,1.61-13.28,8.39-12.41,16,.55,4.82-1.34,6.67-5,8.19a2.47,2.47,0,0,0-.57.32c-.93.73-1.55.53-2.37-.37-1.85-2-4-4.17-6.61-4.57-5.26-.81-5.49-4.11-5.15-8.23a2.39,2.39,0,0,1,1.93-2.57c7.55-2.56,11.86-9.7,10.87-17.81a16.35,16.35,0,0,0-31.84-2.31c-2.24,7.33.75,15.83,7.89,18.82,4.34,1.82,4.65,4.38,4.33,7.95a.79.79,0,0,0,0,.22c.34,1.75-.5,2.36-2.11,2.8a20.89,20.89,0,0,0-15.28,18c-.74,9.24,3.77,18.09,12.37,21,5.14,1.75,5.37,4.5,5.06,8.6a2.17,2.17,0,0,1-1.75,2.29,16.33,16.33,0,1,0,21.2,18.86c1.6-7.55-2.44-15.62-9.64-18.31-2.45-.88-3.4-2-3-4.5a3.88,3.88,0,0,0,0-.66,13.6,13.6,0,0,0,0-2c-.27-1.84.39-2.74,2.3-3.08a18.56,18.56,0,0,0,6.71-3.18c1.51-1,2.36-3.36,4.17-3.14s3.14,1.8,4.8,2.57,2.1,1.66,1.75,3.51a16.09,16.09,0,0,0,9.92,17.95,16.36,16.36,0,0,0,18.22-26.17C189.3,71.42,180.51,69.7,174.33,74.36Zm8.21-38.89a7.52,7.52,0,0,1,7.54,7.5s0,0,0,0a7.48,7.48,0,1,1-7.53-7.54ZM135.86,20.39a7.64,7.64,0,0,1,7.79-7.49h.09a7.36,7.36,0,0,1,7.14,7.58v.08a7.44,7.44,0,0,1-7.53,7.31A7.71,7.71,0,0,1,135.86,20.39Zm15,90.53a7.39,7.39,0,0,1-7.4,7.38h0a7.63,7.63,0,0,1-7.57-7.56,7.72,7.72,0,0,1,7.54-7.42,7.47,7.47,0,0,1,7.46,7.47S150.87,110.87,150.87,110.92Zm-7.39-34.45a10.8,10.8,0,1,1,.19,0h-.19ZM182.6,95.75a7.49,7.49,0,1,1,0-15h0a7.49,7.49,0,0,1,0,15Z"/><path d="M293,57.73c0-3.83,0-3.83-3.79-3.83-4.38,0-4.38,0-5,4.38-6.27-7.82-18.09-6.26-23.82-.8-7.29,6.94-7.8,19.77-.94,27.38a16.75,16.75,0,0,0,12.09,5.51c5,.25,9.37-1.2,12.66-5.38.59,4.23.59,4.23,4.9,4.23a8.87,8.87,0,0,1,1.32,0c2,.3,2.63-.38,2.63-2.47C292.9,77.12,293,67.43,293,57.73ZM273.85,82.5a10.62,10.62,0,0,1-10.69-10.55q0-.12,0-.25a10.46,10.46,0,0,1,10.11-10.81h.5a10.33,10.33,0,0,1,10.68,10q0,.24,0,.48c0,6.3-4.54,11.12-10.59,11.16Z"/><path d="M392.47,57.75c0-3.84,0-3.87-3.76-3.82-1.52,0-3.36-.61-4.46.33-.69.6-.32,2.42-.44,3.76-9.44-7-18.68-6.64-25.22.88-6.28,7.22-5.92,19.58.76,26.44s16.16,6.72,24.37,0c.59,3.94.59,3.94,4.88,3.94a11.15,11.15,0,0,1,1.75,0c1.83.3,2.15-.58,2.14-2.22C392.44,77.28,392.47,67.52,392.47,57.75Zm-19,24.75A10.66,10.66,0,0,1,362.65,72q0-.11,0-.21A10.69,10.69,0,0,1,384,71q0,.27,0,.55a10.76,10.76,0,0,1-10.52,11Z"/></svg>