<svg id="Capa_1" data-name="Capa 1" xmlns="http://www.w3.org/2000/svg" viewBox="0 0 249.67 66.67"><defs><style>.cls-1,.cls-2{fill:#40b4e6;}.cls-1{fill-rule:evenodd;}</style></defs><title>Mesa de trabajo 2</title><path class="cls-1" d="M31,38.48l-27.75,0A28.37,28.37,0,0,0,14,56.28Z"/><path class="cls-1" d="M38.46,29.95v.73h0l0-24.41A28.52,28.52,0,0,0,3.13,29.9Z"/><path class="cls-1" d="M22.75,60.84A28.43,28.43,0,0,0,58.06,23.9Z"/><path class="cls-1" d="M47,21.7l6-6.3a28.63,28.63,0,0,0-6-5.33Z"/><path class="cls-2" d="M69.74,20.12h5.43V36.57l8-8.49H90L80.67,38,91.11,48.68H84.37l-9.19-9.5v9.5H69.74Z"/><path class="cls-2" d="M92.07,28.08h4.66v2.59a5.6,5.6,0,0,1,2-2.33,5,5,0,0,1,2.75-.8,5.29,5.29,0,0,1,2.21.53L102,32.53a3.87,3.87,0,0,0-1.57-.45,2.48,2.48,0,0,0-2.12,1.48q-.87,1.48-.87,5.8l0,1v8.33H92.07Z"/><path class="cls-2" d="M104,28.08h5.55L115.15,41l6.2-12.93h5.57L113.36,56.22h-5.61l4.45-9.08Z"/><path class="cls-2" d="M135.4,28.08v2.27a10.24,10.24,0,0,1,3.18-2.1,9.57,9.57,0,0,1,3.66-.7,9.67,9.67,0,0,1,7.2,3,10.76,10.76,0,0,1,3,7.82,10.51,10.51,0,0,1-3.06,7.7,9.87,9.87,0,0,1-7.26,3.1,9.43,9.43,0,0,1-3.48-.63,10.67,10.67,0,0,1-3.2-2.07v9.71H130V28.08Zm5.71,4.24a5.75,5.75,0,0,0-5.95,6,6,6,0,0,0,1.69,4.44,5.77,5.77,0,0,0,4.26,1.7,5.65,5.65,0,0,0,4.19-1.72,6,6,0,0,0,1.7-4.39A5.93,5.93,0,0,0,145.33,34,5.68,5.68,0,0,0,141.11,32.32Z"/><path class="cls-2" d="M157.57,20.48H163v7.59h3.22v4.45H163V48.68h-5.43V32.53h-2.79V28.08h2.79Z"/><path class="cls-2" d="M179.3,27.55A11.93,11.93,0,0,1,185.06,29a10.84,10.84,0,0,1,4.21,4,10.25,10.25,0,0,1,1.51,5.4,10.42,10.42,0,0,1-1.52,5.45,10.73,10.73,0,0,1-4.15,4,11.91,11.91,0,0,1-5.79,1.43,11.08,11.08,0,0,1-7.95-3.15,10.56,10.56,0,0,1,.43-15.71A11.17,11.17,0,0,1,179.3,27.55Zm.09,4.87a5.73,5.73,0,0,0-4.22,1.68,5.79,5.79,0,0,0-1.68,4.29,5.89,5.89,0,0,0,1.66,4.36,5.71,5.71,0,0,0,4.22,1.67,5.77,5.77,0,0,0,4.25-1.69,5.86,5.86,0,0,0,1.69-4.34,5.69,5.69,0,0,0-5.92-6Z"/><path class="cls-2" d="M195.21,28.08h5.43v2.11A13.12,13.12,0,0,1,204,28.13a8.44,8.44,0,0,1,3.07-.58,7.63,7.63,0,0,1,5.46,2.14,7.14,7.14,0,0,1,1.89,5.38V48.68H209v-9a21.73,21.73,0,0,0-.35-4.9,3.34,3.34,0,0,0-1.21-1.84,3.51,3.51,0,0,0-2.13-.63,4.11,4.11,0,0,0-2.83,1,5.53,5.53,0,0,0-1.64,2.9,22.29,22.29,0,0,0-.24,4.18v8.27h-5.43Z"/><path class="cls-2" d="M218.44,47.24a.83.83,0,0,1,.59.23.74.74,0,0,1,.24.56.75.75,0,0,1-.24.56.86.86,0,0,1-1.18,0,.75.75,0,0,1-.24-.56.74.74,0,0,1,.24-.56A.83.83,0,0,1,218.44,47.24Z"/><path class="cls-2" d="M224.95,41.07h1.45v7.62h-1.45V48.1a2.85,2.85,0,0,1-.85.55,2.49,2.49,0,0,1-.92.17,2.63,2.63,0,0,1-1.93-.83,2.8,2.8,0,0,1-.82-2.05,2.87,2.87,0,0,1,.79-2.09,2.57,2.57,0,0,1,1.92-.81,2.54,2.54,0,0,1,1,.19,2.66,2.66,0,0,1,.84.56Zm-1.52,3.25a1.5,1.5,0,0,0-1.12.45,1.74,1.74,0,0,0,0,2.33,1.5,1.5,0,0,0,1.11.46,1.53,1.53,0,0,0,1.13-.45,1.61,1.61,0,0,0,.45-1.18,1.53,1.53,0,0,0-1.59-1.61Z"/><path class="cls-2" d="M232.12,43.19h1.45v5.49h-1.45V48.1a2.85,2.85,0,0,1-.85.55,2.49,2.49,0,0,1-.92.17,2.63,2.63,0,0,1-1.93-.83,2.8,2.8,0,0,1-.82-2.05,2.87,2.87,0,0,1,.79-2.09A2.57,2.57,0,0,1,230.3,43a2.54,2.54,0,0,1,1,.19,2.66,2.66,0,0,1,.84.56Zm-1.52,1.13a1.5,1.5,0,0,0-1.12.45,1.74,1.74,0,0,0,0,2.33,1.5,1.5,0,0,0,1.11.46,1.53,1.53,0,0,0,1.13-.45,1.61,1.61,0,0,0,.45-1.18,1.53,1.53,0,0,0-1.59-1.61Z"/><path class="cls-2" d="M235.21,41.16h1.45v2h.86v1.19h-.86v4.31h-1.45V44.37h-.74V43.19h.74Z"/><path class="cls-2" d="M242.55,43.19H244v5.49h-1.45V48.1a2.85,2.85,0,0,1-.85.55,2.49,2.49,0,0,1-.92.17,2.63,2.63,0,0,1-1.93-.83,2.8,2.8,0,0,1-.82-2.05,2.87,2.87,0,0,1,.79-2.09,2.57,2.57,0,0,1,1.92-.81,2.54,2.54,0,0,1,1,.19,2.66,2.66,0,0,1,.84.56ZM241,44.32a1.5,1.5,0,0,0-1.12.45,1.74,1.74,0,0,0,0,2.33,1.5,1.5,0,0,0,1.11.46,1.53,1.53,0,0,0,1.13-.45,1.61,1.61,0,0,0,.45-1.18A1.53,1.53,0,0,0,241,44.32Z"/></svg>