<svg id="Capa_1" data-name="Capa 1" xmlns="http://www.w3.org/2000/svg" viewBox="0 0 211 113"><defs><style>.cls-1{fill:#3cb3d1;}.cls-2{fill:#444;}.cls-3{fill:#fefefe;}</style></defs><title>datacamp_logo</title><path class="cls-1" d="M134.57,12.95c-.35,2.92-.72,6-1.11,9.16q-.87,7.1-1.75,14.2-.74,6-1.45,12.09a2.42,2.42,0,0,1-1.42,1.85q-9.79,5.49-19.56,11c-.88.5-1.77,1-2.65,1.5a2.29,2.29,0,0,1-2.41,0q-11.48-6.32-23-12.61a2.5,2.5,0,0,1-1.34-2.12q-.54-5.2-1.08-10.4Q78,29.44,77.09,21.21c-.29-2.76-.6-5.52-.86-8.28a2,2,0,0,1,1.65-2.53l26.32-9.27a2.76,2.76,0,0,1,1.88,0l27,9.27C134.22,10.84,134.62,11.48,134.57,12.95Zm-18.86,30c2.06,0,2.6-.47,2.57-2.43,0-.57,0-1,.59-1.37.3-.17.3-.51.11-.81s-.38-.37-.11-.6c.58-.5.38-1,0-1.51s-.37-1.13.52-1.43c1.11-.38,1.29-.9.74-2s-1.18-2-1.77-3a3.29,3.29,0,0,1-.49-2.53,10.88,10.88,0,0,0-.46-6.67c-.2-.52-.24-.76.49-.73.92,0,1.19-.4.94-1.31a4,4,0,0,0-1.09-1.69,16.36,16.36,0,0,0-7.75-4.22c-.6-.15-.88-.31-.51-.92s-.08-.59-.39-.71A12.44,12.44,0,0,0,100.7,11c-.28.09-.57.16-.36.53.5.88,0,1.08-.74,1.22a5.92,5.92,0,0,0-1.06.35c-3.43,1.37-6.38,3.34-7.91,6.87-2,4.63-.39,11.26,3.65,14.89a6.5,6.5,0,0,1,2.26,5.21,24.33,24.33,0,0,1-1.8,8c-.25.68-.29,1,.64,1,4.57,0,9.15,0,13.72,0,.66,0,1-.19,1.1-.86.21-1.16.44-2.33.76-3.46a2.4,2.4,0,0,1,2.62-1.93C114.33,42.77,115.08,42.87,115.71,42.93Z"/><path class="cls-2" d="M1.86,88.59c0-5,0-10,0-15,0-.93.27-1.12,1.14-1.1,4.33.11,8.68-.23,13,.16,9.07.8,15,7.83,14.35,16.91s-7,15-16.13,15c-3.76,0-7.52,0-11.28,0-.82,0-1.08-.17-1.08-1C1.89,98.55,1.86,93.57,1.86,88.59Zm6-.11q0,5.23,0,10.46c0,.5-.06.92.7.89,2.33-.09,4.67.13,7-.14a8.82,8.82,0,0,0,7.75-6A15,15,0,0,0,23.56,84,9,9,0,0,0,15,77.3c-2.06-.08-4.13,0-6.19-.05-.7,0-.91.16-.9.88C7.91,81.58,7.88,85,7.88,88.48Z"/><path class="cls-2" d="M155.52,84.39c3.91-4.21,9.68-4,11.64,1,.16,0,.24-.06.3-.18,1.79-3.29,5.88-4.36,9.28-3.55s5.45,3.38,5.55,7.22c.13,5,0,10,.07,15,0,.51-.18.62-.64.61-1.29,0-2.58-.05-3.86,0-.77,0-1-.15-1-1,0-4.37,0-8.74,0-13.11,0-.44,0-.88,0-1.32a3.42,3.42,0,0,0-3.44-3.44,3.84,3.84,0,0,0-4.07,3,7.9,7.9,0,0,0-.19,1.91c0,4.34,0,8.67,0,13,0,.72-.12,1-.92,1a31.2,31.2,0,0,0-3.66,0c-.75,0-1-.15-1-.93,0-4.3,0-8.61,0-12.91a15.09,15.09,0,0,0,0-1.62c-.3-2.75-2.4-4.05-5-3.13a6.92,6.92,0,0,0-2.34,1.57c-.39.36-.32.79-.32,1.22,0,4.95,0,9.89,0,14.84,0,.72-.11,1-.92,1-1.32-.08-2.64,0-4,0-.48,0-.64-.13-.64-.62q0-10.77,0-21.55c0-.52.2-.62.66-.61.85,0,1.69,0,2.54,0a1.48,1.48,0,0,1,1.65,1.31Z"/><path class="cls-2" d="M193.35,84.84a10.37,10.37,0,0,1,5.2-3.24c4.27-.9,7.79.89,9.39,5a16.17,16.17,0,0,1,0,12.38,9.16,9.16,0,0,1-11.17,5.58,8.8,8.8,0,0,1-2.9-1.61c-.34.24-.19.57-.19.84,0,2.47,0,4.95,0,7.42,0,.61-.16.84-.8.82-1.32,0-2.64,0-4,0-.57,0-.79-.15-.76-.74,0-1,0-2,0-3,0-8.44,0-16.87,0-25.31,0-1,.28-1.23,1.18-1.13a13,13,0,0,0,1.93,0A1.5,1.5,0,0,1,193,83.2C193.06,83.7,193.2,84.19,193.35,84.84ZM203.44,93a18,18,0,0,0-.39-3.62c-.67-2.89-2.69-4.16-5.59-3.58a6.48,6.48,0,0,0-3.25,2,1.73,1.73,0,0,0-.56,1.34c0,2.95,0,5.89,0,8.84a1.48,1.48,0,0,0,.37,1.11c2,2.15,6.79,2.54,8.48-1.2A13.19,13.19,0,0,0,203.44,93Z"/><path class="cls-2" d="M112.92,72.14a14.76,14.76,0,0,1,9.45,3.53c.57.47.66.8.16,1.37s-.84,1.15-1.26,1.72c-.85,1.16-1.42,1.32-2.64.5a11.06,11.06,0,0,0-6.47-2,9,9,0,0,0-9,6.56,14.85,14.85,0,0,0,.08,9.58A9.46,9.46,0,0,0,113.5,99.8a9.64,9.64,0,0,0,5.79-2.39,1.28,1.28,0,0,1,2,.15c.54.61,1.06,1.24,1.66,1.79s.39.73,0,1.15a12.65,12.65,0,0,1-5.57,3.59,17.84,17.84,0,0,1-10.51.11,14.78,14.78,0,0,1-10.37-12.9,19.55,19.55,0,0,1,1.34-10.24C100.33,75.45,105.78,72.08,112.92,72.14Z"/><path class="cls-2" d="M139.92,101.7a12,12,0,0,1-5.07,2.92,10,10,0,0,1-5.12-.09,5.76,5.76,0,0,1-2.34-9.64c1.95-1.87,4.44-2.49,7-2.95a24.3,24.3,0,0,1,4.24-.41c.44,0,.71-.08.67-.61-.05-.71,0-1.43-.1-2.13-.4-2.57-2.58-3.67-5.55-2.86a13.15,13.15,0,0,0-2.83,1.34,2.67,2.67,0,0,1-4-2.16c0-.3.21-.41.38-.55a13.09,13.09,0,0,1,11.29-2.92c3.72.75,6.07,3.9,6.14,8.15.08,4.67,0,9.35,0,14,0,.56-.14.73-.73.76C141.91,104.7,140,104.7,139.92,101.7ZM139.29,97c0-.58,0-1.06,0-1.53s-.2-.69-.72-.63a30.79,30.79,0,0,0-4,.55,6.25,6.25,0,0,0-2.76,1.21,2.49,2.49,0,0,0-.81,2.57,2.26,2.26,0,0,0,1.75,1.77,5.57,5.57,0,0,0,2.21.12,6.77,6.77,0,0,0,4-2C139.6,98.41,139.13,97.61,139.29,97Z"/><path class="cls-2" d="M47.26,101.85c-.59.46-1.11.89-1.66,1.27a9.51,9.51,0,0,1-8.31,1.41,5.74,5.74,0,0,1-2.39-9.67c1.93-1.84,4.39-2.46,6.9-2.91A22.88,22.88,0,0,1,46,91.55c.57,0,.81-.17.74-.75a5.28,5.28,0,0,1,0-.61c-.05-3.7-2.19-5.25-5.78-4.2a13.06,13.06,0,0,0-2.64,1.27c-1.55.87-2.52.6-3.37-.91s-.81-1.44.55-2.42a13.36,13.36,0,0,1,9.2-2.5c4.41.37,7.29,3.58,7.4,8.3s0,9.41,0,14.12c0,.5-.09.79-.66.71h-.2C48.39,104.59,48.39,104.59,47.26,101.85ZM46.78,97c0-.48,0-.86,0-1.23.08-.69-.12-1-.89-.86-1,.17-2,.19-2.92.35a8,8,0,0,0-3.51,1.24,2.48,2.48,0,0,0-1,2.59A2.29,2.29,0,0,0,40.29,101a5.78,5.78,0,0,0,2.12.1A6.66,6.66,0,0,0,46.48,99C47.1,98.37,46.62,97.55,46.78,97Z"/><path class="cls-2" d="M87.13,101.88c-.52.4-1,.81-1.53,1.17a9.54,9.54,0,0,1-8.4,1.49,5.73,5.73,0,0,1-2.41-9.66c2-1.87,4.45-2.49,7-2.93A23.33,23.33,0,0,1,86,91.55c.53,0,.74-.18.69-.71-.07-.74,0-1.5-.18-2.22-.35-2-1.89-3.05-4.11-2.9a8.92,8.92,0,0,0-3.89,1.36c-2.07,1.2-3.67.48-4.28-1.86-.09-.33.09-.44.26-.57,3.63-2.92,7.7-4.08,12.24-2.73,3.17.95,5.19,3.89,5.26,7.57.09,4.81,0,9.62,0,14.43,0,.46-.1.71-.61.64a6.41,6.41,0,0,0-.71,0c-2,0-2.79.41-3.41-2.4C87.31,102.06,87.22,102,87.13,101.88Zm-.41-5c0-2.08,0-2.08-1.91-1.95l-.4,0a11.37,11.37,0,0,0-4.92,1.38A2.46,2.46,0,0,0,78.35,99a2.28,2.28,0,0,0,1.9,2,5.68,5.68,0,0,0,2,.09,6.83,6.83,0,0,0,4.08-2C87,98.37,86.55,97.55,86.72,96.93Z"/><path class="cls-2" d="M59,93.33c0-2.47,0-4.54,0-6.6,0-.69-.22-.93-.87-.84h-.1c-2.75.12-2.39-.22-2.42-2.91,0-.45.32-.46.6-.52.8-.15,1.6-.29,2.4-.4a.74.74,0,0,0,.75-.74c.28-1.7.66-3.39.93-5.09A1.47,1.47,0,0,1,62,74.83c2.46,0,2.46,0,2.46,2.48,0,1.32,0,2.64,0,4,0,.59.18.75.75.73,1.52,0,3.05,0,4.57,0,.65,0,.82.19.78.8a22.82,22.82,0,0,0,0,2.44c0,.54-.15.7-.69.69-1.46,0-2.92,0-4.37,0-.77,0-1.06.15-1,1,0,3.63,0,7.25,0,10.88,0,2.57,1.3,3.38,3.6,2.22a1,1,0,0,1,1.51.41,18.31,18.31,0,0,0,1.08,1.72c.45.59.4.93-.26,1.33a9.62,9.62,0,0,1-7.22,1.25,5.22,5.22,0,0,1-4.1-4.85C58.89,97.54,59.08,95.23,59,93.33Z"/><path class="cls-1" d="M105.05,31.45c0,.44,0,.88,0,1.32,0,1.31,0,1.34-1.27,1.2a9.77,9.77,0,0,1-6.53-3.34c-.58-.67-.93-.69-1.48-.12-.16.17-.39.27-.56.43-.37.35-.63.24-.9-.14a11.8,11.8,0,0,1-2.08-6.37c0-.6.28-.63.74-.65,1.7-.05,1.67-.07,1.95-1.73a11.78,11.78,0,0,1,1.29-3.72c.25-.46.44-.65,1-.28,1.38.95,1.4.92,2.65-.14a4.88,4.88,0,0,1,1.59-1.07c.94-.29.88-.81.55-1.53s-.52-1.4-.81-2.08c-.18-.42-.19-.66.35-.8a11.84,11.84,0,0,1,6.61,0c.4.13.85.27.57.82s0,.77.45,1,.87.51,1.31.77c.16.09.37.36.52.16.67-.91,1.11-.09,1.53.23a8.61,8.61,0,0,1,2.69,3.63c.2.48.53,1-.24,1.34-.35.17-.09.62,0,.93a12.66,12.66,0,0,1-.05,4.74c-.12.63-.36.82-1,.57-.22-.09-.46-.13-.67-.23-.6-.29-1-.21-1.24.48a6.93,6.93,0,0,1-1.62,2.44c-.51.49-1,.6-1.35-.13-.48-.92-1.11-1.42-2.12-.67,0,0-.07,0-.1,0-.53.43-1.5-.22-1.76.58a6.75,6.75,0,0,0,0,2q0,.15,0,.3Zm-2.67-9.07A2.52,2.52,0,0,0,104.85,25a2.6,2.6,0,0,0,2.64-2.52A2.56,2.56,0,0,0,105,19.94,2.46,2.46,0,0,0,102.39,22.39Z"/><path class="cls-3" d="M102.39,22.39A2.46,2.46,0,0,1,105,19.94a2.56,2.56,0,0,1,2.45,2.58A2.6,2.6,0,0,1,104.85,25,2.52,2.52,0,0,1,102.39,22.39Z"/></svg>