<svg id="Capa_1" data-name="Capa 1" xmlns="http://www.w3.org/2000/svg" viewBox="0 0 266 59.11"><defs><style>.cls-1{fill:#fff;}</style></defs><title>logo_academy_cabecera</title><path class="cls-1" d="M72.06,11.32h5.47V21.46a12.66,12.66,0,0,1,3.25-2,8.77,8.77,0,0,1,3.31-.66A7.67,7.67,0,0,1,89.6,21a7.25,7.25,0,0,1,1.92,5.45V40.18H86.09V31a21.37,21.37,0,0,0-.36-4.9,3.4,3.4,0,0,0-1.24-1.91,3.62,3.62,0,0,0-2.17-.63,4.21,4.21,0,0,0-2.88,1.05,5.51,5.51,0,0,0-1.67,2.87,22.59,22.59,0,0,0-.24,4.29v8.36H72.06Z"/><path class="cls-1" d="M113.06,19.35h5.51V40.18h-5.51V38a10.84,10.84,0,0,1-3.24,2.1,9.49,9.49,0,0,1-3.52.64,10,10,0,0,1-7.36-3.13,10.6,10.6,0,0,1-3.1-7.78,10.85,10.85,0,0,1,3-7.9,10.15,10.15,0,0,1,11-2.37,10.15,10.15,0,0,1,3.21,2.12Zm-5.79,4.29A5.72,5.72,0,0,0,103,25.35a6,6,0,0,0-1.69,4.39A6.05,6.05,0,0,0,103,34.19a5.72,5.72,0,0,0,4.23,1.74,5.83,5.83,0,0,0,4.31-1.71,6.08,6.08,0,0,0,1.71-4.49,5.81,5.81,0,0,0-6-6.09Z"/><path class="cls-1" d="M124.14,19.35h5.51v2.13a13.31,13.31,0,0,1,3.4-2.08,8.59,8.59,0,0,1,3.11-.59A7.76,7.76,0,0,1,141.7,21a7.19,7.19,0,0,1,1.91,5.44V40.18h-5.45V31.06a21.87,21.87,0,0,0-.35-5,3.38,3.38,0,0,0-1.23-1.86,3.57,3.57,0,0,0-2.16-.64,4.18,4.18,0,0,0-2.87,1.06,5.59,5.59,0,0,0-1.66,2.93,22.43,22.43,0,0,0-.24,4.22v8.35h-5.51Z"/><path class="cls-1" d="M165.15,11.32h5.51V40.18h-5.51V38a10.84,10.84,0,0,1-3.24,2.1,9.49,9.49,0,0,1-3.52.64A10,10,0,0,1,151,37.58a10.6,10.6,0,0,1-3.1-7.78,10.85,10.85,0,0,1,3-7.9,10.15,10.15,0,0,1,11-2.37,10.15,10.15,0,0,1,3.21,2.12Zm-5.79,12.33a5.72,5.72,0,0,0-4.25,1.71,6,6,0,0,0-1.69,4.39,6.05,6.05,0,0,0,1.72,4.44,5.72,5.72,0,0,0,4.23,1.74,5.83,5.83,0,0,0,4.31-1.71,6.08,6.08,0,0,0,1.71-4.49,5.81,5.81,0,0,0-6-6.09Z"/><path class="cls-1" d="M173.8,19.35h5.63l5.7,13.06,6.3-13.06h5.65L183.32,47.79h-5.69l4.52-9.17Z"/><path class="cls-1" d="M200.88,11.68h5.51v7.67h3.27v4.5h-3.27V40.18h-5.51V23.85h-2.83v-4.5h2.83Z"/><path class="cls-1" d="M234.6,31.28H216.9a5.52,5.52,0,0,0,2,3.53,6.66,6.66,0,0,0,4.25,1.31,7.56,7.56,0,0,0,5.31-2l4.64,2.07A10.81,10.81,0,0,1,229,39.59a13.62,13.62,0,0,1-5.75,1.12,11.71,11.71,0,0,1-8.42-3.09,10.24,10.24,0,0,1-3.25-7.74A10.58,10.58,0,0,1,214.81,22a11.19,11.19,0,0,1,8.12-3.15A11.62,11.62,0,0,1,231.37,22a11,11,0,0,1,3.25,8.32Zm-5.51-4.11a5.27,5.27,0,0,0-2.15-2.83,6.49,6.49,0,0,0-3.73-1.09,6.1,6.1,0,0,0-6.07,3.92Z"/><path class="cls-1" d="M260.56,23.57,256,26a7.79,7.79,0,0,0-2.56-1.78,8.05,8.05,0,0,0-3-.5,7.11,7.11,0,0,0-5,1.75,5.8,5.8,0,0,0-1.91,4.48,5.61,5.61,0,0,0,1.84,4.34,6.87,6.87,0,0,0,4.83,1.68A7.2,7.2,0,0,0,256,33.54l4.34,2.82q-3.53,4.36-10,4.36-5.79,0-9.07-3.25A10.39,10.39,0,0,1,238,29.84a10.29,10.29,0,0,1,1.59-5.57,11,11,0,0,1,4.45-4,13.88,13.88,0,0,1,6.39-1.45,13.54,13.54,0,0,1,5.87,1.23A11,11,0,0,1,260.56,23.57Z"/><path class="cls-1" d="M43.23,17.26,12.16,47.87a28.34,28.34,0,0,0,31.07,8.41Z"/><path class="cls-1" d="M41.68,2.33A28.34,28.34,0,0,0,6.45,37Z"/><path class="cls-1" d="M55,48.29a28.32,28.32,0,0,0,0-37.48Z"/><path class="cls-1" d="M205.53,46.46l4.11,8.81h-1l-1.39-2.9h-3.8l-1.37,2.9h-1l4.16-8.81Zm-.11,1.87-1.51,3.19h3Z"/><path class="cls-1" d="M217.19,50.11l-.66.41a2.79,2.79,0,0,0-2.35-1.14,2.72,2.72,0,0,0-2,.77,2.5,2.5,0,0,0-.79,1.86,2.64,2.64,0,0,0,.36,1.34,2.54,2.54,0,0,0,1,1,2.89,2.89,0,0,0,1.42.35,2.86,2.86,0,0,0,2.35-1.14l.66.44A3.14,3.14,0,0,1,215.94,55a4,4,0,0,1-1.79.39,3.54,3.54,0,0,1-2.56-1,3.2,3.2,0,0,1-1-2.39,3.41,3.41,0,0,1,.48-1.76A3.35,3.35,0,0,1,212.35,49a3.82,3.82,0,0,1,1.86-.46,4,4,0,0,1,1.25.2,3.47,3.47,0,0,1,1,.52A2.8,2.8,0,0,1,217.19,50.11Z"/><path class="cls-1" d="M225.3,48.75v6.52h-.83V54.15a3.59,3.59,0,0,1-1.18,1,3.3,3.3,0,0,1-3.8-.68,3.36,3.36,0,0,1-1-2.44,3.3,3.3,0,0,1,1-2.41,3.22,3.22,0,0,1,2.38-1,3.08,3.08,0,0,1,1.45.34,3.31,3.31,0,0,1,1.14,1v-1.2Zm-3.35.64a2.53,2.53,0,0,0-2.23,1.31,2.64,2.64,0,0,0,0,2.63,2.58,2.58,0,0,0,.95,1,2.48,2.48,0,0,0,1.28.35,2.62,2.62,0,0,0,1.3-.35,2.43,2.43,0,0,0,.95-.94,2.68,2.68,0,0,0,.33-1.33,2.6,2.6,0,0,0-.74-1.89A2.47,2.47,0,0,0,221.95,49.39Z"/><path class="cls-1" d="M233.69,46.24v9h-.83V54.15a3.59,3.59,0,0,1-1.18,1,3.3,3.3,0,0,1-3.8-.68,3.36,3.36,0,0,1-1-2.44,3.3,3.3,0,0,1,1-2.41,3.22,3.22,0,0,1,2.38-1,3.08,3.08,0,0,1,1.45.34,3.31,3.31,0,0,1,1.14,1V46.24Zm-3.35,3.16a2.53,2.53,0,0,0-2.23,1.31,2.64,2.64,0,0,0,0,2.63,2.58,2.58,0,0,0,.95,1,2.48,2.48,0,0,0,1.28.35,2.62,2.62,0,0,0,1.3-.35,2.43,2.43,0,0,0,.95-.94,2.68,2.68,0,0,0,.33-1.33,2.6,2.6,0,0,0-.74-1.89A2.47,2.47,0,0,0,230.34,49.39Z"/><path class="cls-1" d="M241.08,53.11l.71.37a3.86,3.86,0,0,1-.8,1.1,3.19,3.19,0,0,1-1,.64,3.58,3.58,0,0,1-1.29.22,3.11,3.11,0,0,1-2.49-1,3.53,3.53,0,0,1-.9-2.36,3.48,3.48,0,0,1,.76-2.21,3.11,3.11,0,0,1,2.58-1.23,3.21,3.21,0,0,1,2.66,1.26,3.53,3.53,0,0,1,.72,2.23h-5.86a2.66,2.66,0,0,0,.73,1.86,2.31,2.31,0,0,0,1.73.73,2.79,2.79,0,0,0,1-.17,2.55,2.55,0,0,0,.8-.46A3.94,3.94,0,0,0,241.08,53.11Zm0-1.76a2.78,2.78,0,0,0-.49-1.07,2.32,2.32,0,0,0-.85-.65,2.61,2.61,0,0,0-1.11-.25A2.39,2.39,0,0,0,237,50a2.79,2.79,0,0,0-.76,1.35Z"/><path class="cls-1" d="M243.56,48.75h.84v1.13a3.26,3.26,0,0,1,.9-.91,2.55,2.55,0,0,1,1.34-.38,2.22,2.22,0,0,1,.9.19,1.94,1.94,0,0,1,.7.49,2.65,2.65,0,0,1,.47.88,3.09,3.09,0,0,1,1-1.17,2.47,2.47,0,0,1,1.35-.4,2.11,2.11,0,0,1,1.19.34,2,2,0,0,1,.77,1,5.1,5.1,0,0,1,.25,1.83v3.56h-.86V51.71a4.67,4.67,0,0,0-.15-1.44,1.3,1.3,0,0,0-.51-.63,1.52,1.52,0,0,0-.86-.24,1.88,1.88,0,0,0-1.11.36,2.08,2.08,0,0,0-.74,1,6.06,6.06,0,0,0-.23,2v2.55H248V51.93a5.72,5.72,0,0,0-.15-1.6,1.34,1.34,0,0,0-.51-.68,1.48,1.48,0,0,0-.87-.25,1.87,1.87,0,0,0-1.09.35,2.07,2.07,0,0,0-.75.94,5.09,5.09,0,0,0-.24,1.81v2.76h-.84Z"/><path class="cls-1" d="M254.37,48.75h.89l2.24,5,2.18-5h.89l-3.89,8.9h-.89L257,54.77Z"/></svg>