<svg id="Capa_3" data-name="Capa 3" xmlns="http://www.w3.org/2000/svg" viewBox="0 0 515 131.18"><defs><style>.cls-1{fill:#0f5684;}.cls-2{fill:#0087bd;}.cls-3{fill:#0f5685;}</style></defs><title>memsql_logo</title><path class="cls-1" d="M57.44,27.24V72.58a3.57,3.57,0,0,1-2,3.84C50.11,79.49,45,82.94,40.06,86.28L14.58,102.62a9.17,9.17,0,0,1-2.3,1.15A4.49,4.49,0,0,1,7.37,102a4.07,4.07,0,0,1,.23-5Q26,70.55,44.35,44l9.94-14.35A4.64,4.64,0,0,1,57.44,27.24Z"/><path class="cls-2" d="M117.4,27.24a5.26,5.26,0,0,1,3.84,2.8l40.86,59.35c1.8,2.61,3.61,5.18,5.41,7.67a3.84,3.84,0,0,1,0,5.1,4.41,4.41,0,0,1-5.22,1.27,11.82,11.82,0,0,1-1.61-.92C147,93.76,133.39,85,119.7,76.34a4,4,0,0,1-2.19-4V29.39Z"/><path class="cls-3" d="M115.82,51.25V73.54c0,1,0,1.76-1.42,1.76a6.37,6.37,0,0,0-3.18,1.42L92,89.19c-1,.69-2.26,1.73-3.34,1.23s-.35-2-.38-3.07V63.18c0-1,0-1.73,1.23-2.11s1.69-1.38,2.34-2.3l20.06-28.35.88-1.19c.69-.92,1.61-2,2.65-1.69s.31,1.65.35,2.53C115.86,37.14,115.82,44.19,115.82,51.25Z"/><path class="cls-2" d="M59.55,27.24a4.83,4.83,0,0,1,3.22,2.53l20.52,29a5.41,5.41,0,0,0,2.53,2.34c.77.27.77.84.77,1.46V89.12c0,1.27-.46,1.57-1.5,1.07a18.91,18.91,0,0,1-2.26-1.27l-19-12.2a6.25,6.25,0,0,0-3-1.38c-1.42,0-1.53-.73-1.53-1.88V29.16A3.49,3.49,0,0,1,59.55,27.24Z"/><path class="cls-1" d="M381.79,90.5a22.79,22.79,0,0,1-16.5-6.87c-.77-.81-1-1.34,0-2.11a53.48,53.48,0,0,0,4.95-3.84c.92-.81,1.3-.5,2,.27a12.77,12.77,0,0,0,13.66,4.37,7.06,7.06,0,0,0,5.64-7.25,6.44,6.44,0,0,0-4.18-5.64,38.36,38.36,0,0,0-7-2.38,30.69,30.69,0,0,1-6.71-2.61,13.24,13.24,0,0,1-1.76-22.14,23,23,0,0,1,27.89,1c1.11,1,1.07,1.57,0,2.49s-3,2.61-4.41,3.84c-.65.65-1,.54-1.57,0a11.51,11.51,0,0,0-12.35-3.49,6.29,6.29,0,0,0-5.56,5.91,6.14,6.14,0,0,0,5,6.44c2.8.92,5.68,1.73,8.48,2.65a25.74,25.74,0,0,1,3.3,1.23,13,13,0,0,1,8.48,13.12,14.08,14.08,0,0,1-9.94,13.08A29.88,29.88,0,0,1,381.79,90.5Z"/><path class="cls-3" d="M216.07,82.9l12.51-26.24c2.49-5.18,5-10.36,7.37-15.61.65-1.5,1.42-2.15,3-1.88a5,5,0,0,0,1.5,0c1.19,0,1.57.23,1.57,1.5V87.54c0,2-1.07,1.61-2.23,1.65s-2,0-2-1.65V47.72c-.73.42-.84,1.07-1.11,1.61q-9.25,19.18-18.45,38.36a2.42,2.42,0,0,1-2.53,1.61,2.23,2.23,0,0,1-2.34-1.57Q204.56,68.82,195.54,50a5.06,5.06,0,0,0-1.19-1.73V87.35c0,2.15-1.07,1.8-2.42,1.92s-2-.23-2-1.88V40.9c0-1.46.46-1.57,1.76-1.73,2.65-.35,3.84.73,4.95,3.11,6,13,12.31,25.86,18.49,38.67Z"/><path class="cls-3" d="M327,82.94l17.34-36.25c.92-1.88,1.88-3.84,2.69-5.72a2.57,2.57,0,0,1,2.88-1.84c3.15,0,3.15,0,3.15,3.11v45c0,.65.5,1.69-.54,1.88a6.06,6.06,0,0,1-3.45,0c-.54-.23-.23-1.15-.23-1.73q0-19.18,0-38.36V47.8c-.73.38-.84,1.07-1.11,1.65q-9.13,19.18-18.18,38.36a2.65,2.65,0,0,1-4.91,0q-9.05-19.18-18.18-38l-.88-1.69a3.84,3.84,0,0,0-.23,2.11V87.62c0,2-.92,1.8-2.23,1.88s-2-.27-2-1.88V41.16c0-1.42.42-1.61,1.76-1.76,2.61-.31,3.84.69,4.91,3.07,5.95,12.7,12.12,25.59,18.22,38.48Z"/><path class="cls-3" d="M476.78,64.3v-23c0-1.5.46-1.92,1.88-1.8a40.7,40.7,0,0,0,5.37,0c1.46,0,1.88.35,1.84,1.84V79c0,1.84.42,2.38,2.3,2.34h18.38c1.53,0,1.92.46,1.8,1.88a35.48,35.48,0,0,0,0,4.64c0,1.19-.38,1.46-1.5,1.46H478.43c-1.38,0-1.61-.46-1.61-1.73C476.82,79.8,476.78,72,476.78,64.3Z"/><path class="cls-3" d="M255.73,64.1V40.86c0-1.42.42-1.73,1.76-1.73h28.81c1.61,0,1.57.69,1.61,1.88s0,1.88-1.65,1.84H261.91c-1.57,0-2,.46-1.92,2V59.5c0,1.46.35,1.88,1.84,1.88h22.67c2,0,1.76,1,1.84,2.23s-.35,1.84-1.84,1.84h-23c-1.27,0-1.69.31-1.69,1.65V84.21c0,1.5.5,1.69,1.8,1.69h25.47c1.38,0,1.92.27,1.92,1.8s-.5,1.84-1.92,1.84H257.34c-1.53,0-1.8-.54-1.8-1.88C255.73,79.6,255.73,71.85,255.73,64.1Z"/><path class="cls-1" d="M460.86,88.39l-8.94-3c1.34-.88,2.38-1.5,3.38-2.23A25.59,25.59,0,0,0,439,38.36c-14.92-1.19-30.31,8.48-29.31,27.81a23.67,23.67,0,0,0,20.41,23.55c7.21,1.19,14.39,2.34,21.56,3.84l10.55,2.15V90.27A1.58,1.58,0,0,0,460.86,88.39ZM440.45,82.1a37.07,37.07,0,0,1-3.84.38c-10.55,0-18.61-7.67-17.46-20.22a16.73,16.73,0,0,1,12.39-15.65,17.38,17.38,0,0,1,22.56,18.34,16.92,16.92,0,0,1-13.66,17.19Z"/></svg>