<svg id="Capa_4" data-name="Capa 4" xmlns="http://www.w3.org/2000/svg" viewBox="0 0 515 131.18"><defs><style>.cls-1{fill:#60a744;}.cls-2{fill:#558d40;}.cls-3{fill:#3c3d3a;}.cls-4{fill:#b8b9b1;}.cls-5{fill:#7daf6a;}.cls-6{fill:#83b86f;}.cls-7{fill:#76b45f;}.cls-8{fill:#71b158;}.cls-9{fill:#7db766;}.cls-10{fill:#84b572;}.cls-11{fill:#bab7b3;}.cls-12{fill:#3d3e3b;}</style></defs><title>mongodb_logo</title><path class="cls-1" d="M55,108.6C34.75,95.27,26,69,33.12,43.18A65.57,65.57,0,0,1,52.31,11.33c1.25-1.1,2.25-2.45,3.41-3.6,2.4-2.49,2.45-.34,2.69,1.39-1,2.16.72,4.22.24,6.33V53.35a29.93,29.93,0,0,0,.77,9.59,132.53,132.53,0,0,1,0,23,22.69,22.69,0,0,0-.82,9,10.17,10.17,0,0,1,0,4.36C56.82,102.23,58.69,106.64,55,108.6Z"/><path class="cls-2" d="M58.35,99.54,57.3,96.09c1.53-2.78-.34-6,1.06-8.83V62.61a33.58,33.58,0,0,1-.53-9V14.79c0-1.68-.58-3.5.67-4.8C73.32,23.52,83.1,39.87,84,60.5a55.4,55.4,0,0,1-21.1,46.86C58.06,107,57.1,105.2,58.35,99.54Z"/><path class="cls-3" d="M102.81,66.44l14.39-3.69.62,5.42c2.35-1.3,4.51-2.59,6.72-3.74a10.5,10.5,0,0,1,14.39,2.16c1.68,2.06,2.88,1.53,4.8.38a32.33,32.33,0,0,1,5.28-3,11.37,11.37,0,0,1,16.79,8.59,79.91,79.91,0,0,1,.62,18.32c0,3.21,0,6,4.22,6.38a1.68,1.68,0,0,1,1.68,2.25c-.24,1.25-1.3,1.1-2.21,1.1H155.72c-.86,0-2,0-2.06-1.2a1.68,1.68,0,0,1,1.3-2l.19,0c4.27-.58,3.89-3.74,3.89-6.72V77.86a8.87,8.87,0,0,0-14-8,4.46,4.46,0,0,0-2.93,4.8c.29,4.8,0,10,0,15.06,0,3.41-1,7.39,4.46,7.82,1.15,0,1.25,1.15,1.1,2.16s-.91,1.06-1.68,1.06H130.3c-.77,0-1.49,0-1.58-1.1a1.84,1.84,0,0,1,1.82-2.21c3.6,0,4-2.59,4-5.42V77c-.38-6-3.5-8.87-8.68-8.63-5.9.29-8.35,2.93-8.39,9.07V90.23c0,3.26-.77,7.05,4.36,7.34,1.2,0,1.34,1.1,1.25,2.06s-.86,1.1-1.58,1.1H105.74c-1.06,0-1.82-.29-1.77-1.53a1.73,1.73,0,0,1,1.68-1.77h0c4.27-.29,4.17-3.41,4.17-6.48V79.83C110.06,71.19,110.06,71.19,102.81,66.44Z"/><path class="cls-3" d="M224.5,67.59a33.58,33.58,0,0,1,13.24-4.41c4.08-1,.38,3.6,2.78,4.8a73.39,73.39,0,0,1,6.81-4.12A11.27,11.27,0,0,1,264,72a80.44,80.44,0,0,1,.77,18.85c0,3.26,0,6,4.27,6.38a1.7,1.7,0,0,1,1.82,2.21c-.24,1.34-1.25,1.63-2.49,1.58H254c-1.15,0-2.3,0-2.45-1.49s0-2.16,1.73-2.25c3.65,0,3.79-2.83,3.74-5.61,0-4.8,0-10-.29-15a8,8,0,0,0-9.11-8c-5.8.34-8.06,2.73-8.06,8.87V91.43c0,2.93,0,5.76,4.12,5.8,1.44,0,1.87,1,1.68,2.25s-1.15,1.39-2.06,1.39H228.15c-.91,0-1.92,0-2.06-1.34s0-2.3,1.63-2.35c4-.24,4-3.07,4-5.95V79.54C231.89,74.26,232.22,68.94,224.5,67.59Z"/><path class="cls-4" d="M58.35,99.54c.67,3.07,0,7,4.51,7.82-4.32,4.46-2.88,10.26-3.65,17.22-3.41-5.9-2.4-11.32-4.17-16C57.3,106,54.47,101.55,58.35,99.54Z"/><path class="cls-5" d="M58.54,9.75v4.8q-.48.72-1,0c0-1.92-.82-4.08,1.25-5.61a.42.42,0,1,1-.24.82Z"/><path class="cls-6" d="M57.3,14.69h1V31.38c-.34.53-.62.53-1,0Z"/><path class="cls-7" d="M58.3,40.35V53.73q-.53.77-1.06,0V40.35C57.63,39.87,58,39.87,58.3,40.35Z"/><path class="cls-8" d="M57.3,53.73h1.06v8.87C56.14,59.87,57.73,56.66,57.3,53.73Z"/><path class="cls-9" d="M58.3,40.35h-1V31.43h1Q58.3,35.84,58.3,40.35Z"/><path class="cls-10" d="M58.35,87.26c-.43,2.93,1.15,6.14-1.06,8.83C57.78,93.16,56.14,90,58.35,87.26Z"/><path class="cls-11" d="M472.29,68.36c6.76-6.19,8.39-9.59,7.24-14.39a12.14,12.14,0,0,0-10.36-9.59c-10.31-1.82-20.72-.38-31.08-.67a2.06,2.06,0,0,0-2.25,1.86s0,.07,0,.11c0,1.3,1.1,1.3,2,1.39,4.8.43,5.71,3.5,5.61,7.77V89.32c0,4-.53,7-5.18,7.58-1.3,0-2.73.62-2.49,2.35s1.63,1.3,2.69,1.3c8.73,0,17.46.48,26.14,0a20.58,20.58,0,0,0,19.62-16C485.19,78.24,481.26,72.68,472.29,68.36Zm-20-11.7c.77-3.21-2.4-8.39,4.41-8.73,8.39-.38,12.57,2.25,13.53,8.92a8.06,8.06,0,0,1-7.05,10.55,25.71,25.71,0,0,1-3.26.67c-7,.67-7.72,0-7.72-6.91V58.39a7.63,7.63,0,0,1,0-1.73Zm9,39.57c-7,0-8.87-1.92-9-8.92V75.6c0-1.49,0-2.93,1.77-3.74,6.86-3.26,19.19,3.21,20.39,10.7C475.55,91.1,470.56,96.28,461.26,96.23Z"/><path class="cls-11" d="M430.27,69.08C428.93,55,422,46.73,409.12,44a13.67,13.67,0,0,0-2.73-.34H375.16c-1.53,0-3.36,0-3.69,1.73-.48,2.54,1.87,1.63,3.07,1.87a5.66,5.66,0,0,1,5.33,6q0,.28-.06.56V73h0V89.71c0,3.6,0,6.76-4.8,7.43a2.06,2.06,0,0,0-2,2.14q0,.08,0,.16c.29,1.87,1.92,1.44,3.12,1.49h21.73a38.37,38.37,0,0,0,15.64-3.36A27.92,27.92,0,0,0,430.27,69.08ZM414,91.1a21.1,21.1,0,0,1-20.19,4.36c-4.32-1.63-4.8-5.23-5.08-9V52.63c0-3.65,1.58-5.32,5.32-5.52a25.37,25.37,0,0,1,24.41,13.24A29.79,29.79,0,0,1,414,91.1Z"/><path class="cls-12" d="M304,96.18c-4.08-.48-8.11-.77-12.18-1.2a2.73,2.73,0,0,1-2.93-2.78c0-1.73,1.3-2.16,2.64-2.45s1.82,0,2.78-.34a14.73,14.73,0,0,0,13.84-15.56q0-.21,0-.42c0-2.64.53-3.41,3.17-3.69s4.12-2.64,3.41-6.19c-5.08,2.78-9.59,1-14.39-.38C287.77,59.73,276.54,68,278,79.35a14.39,14.39,0,0,0,8.59,10.46,38.37,38.37,0,0,1-3.93,2.73c-3.26,1.68-3.45,4.17-.77,6,3.84,2.54,2.59,3.74-.29,5.95-7.82,5.95-6.48,13.91,2.78,17.56a24.7,24.7,0,0,0,27.72-8.68C317.36,105.2,313.76,97.43,304,96.18ZM284.79,75.51c0-5.47,2.69-9.35,7.05-9.59,5.18,0,8.73,4.08,8.83,10.5S298.22,86,293.81,86A9.59,9.59,0,0,1,285,75.73l0-.22Zm19.52,40.82a17.12,17.12,0,0,1-18.61-.58,6.76,6.76,0,0,1-2.49-6.91,8.11,8.11,0,0,1,5.9-6,27.29,27.29,0,0,1,5.71-.62c2.49.43,5,.72,7.53,1.3a6.33,6.33,0,0,1,5.37,5.61,7.58,7.58,0,0,1-3.21,7.19Z"/><path class="cls-12" d="M200,62.61a19.19,19.19,0,0,0-20.18,18.14q0,.81,0,1.62a17.94,17.94,0,0,0,18.61,19.19,19.76,19.76,0,0,0,19.91-19.61q0-.36,0-.73A17.41,17.41,0,0,0,200,62.61Zm2.64,34.82a12.42,12.42,0,0,1-13.72-10.31A23.69,23.69,0,0,1,188.29,75a9.16,9.16,0,0,1,7.24-8.15,10.6,10.6,0,0,1,10.74,4.32,19.91,19.91,0,0,1,3.84,13C210.16,92,207.67,96.37,202.63,97.43Z"/><path class="cls-12" d="M342.83,62.61A19.47,19.47,0,0,0,321.7,80.27q-.05.57-.07,1.14a18.13,18.13,0,0,0,18.27,20.1,20,20,0,0,0,20.43-19.66q0-.12,0-.24A17.7,17.7,0,0,0,344,62.65Q343.41,62.61,342.83,62.61Zm1.44,34.63a12.33,12.33,0,0,1-13.38-10,23.65,23.65,0,0,1-.67-12.61,9.21,9.21,0,0,1,6.86-7.87,10.36,10.36,0,0,1,10.5,3.55A18.08,18.08,0,0,1,351.94,83c0,9.26-2.49,13.43-7.67,14.39Z"/><rect class="cls-8" x="57.25" y="60.06" width="1.2" height="40.29"/></svg>