<svg id="Capa_1" data-name="Capa 1" xmlns="http://www.w3.org/2000/svg" viewBox="0 0 175 62"><defs><style>.cls-1{fill:#fff;}</style></defs><title>ordenio_logo</title><path class="cls-1" d="M153,42.72a3.34,3.34,0,0,1-1.7-.38,1.55,1.55,0,0,1-1-1.54,1.93,1.93,0,0,1,1.26-1.69c.35-.15.5-.1.5.33a1.37,1.37,0,0,0,1.23,1.48,1.21,1.21,0,0,0,1.36-.55,1.67,1.67,0,0,0-.21-2.06c-.4-.46-.89-.85-1.34-1.27a3.61,3.61,0,0,1-.64-4.63,3.86,3.86,0,0,1,4.47-1.75,1.25,1.25,0,0,1,1,1.09,1.7,1.7,0,0,1-.79,1.58.34.34,0,0,1-.55-.08c-.1-.15-.2-.31-.31-.46a1.18,1.18,0,1,0-1.92,1.36,7.38,7.38,0,0,0,1.47,1.53,3.83,3.83,0,0,1,1.1,4.44A4.24,4.24,0,0,1,153,42.72Z"/><path class="cls-1" d="M124,18.87a5.68,5.68,0,0,1,3.59,1.38c1.47,1.2,2.42,1.18,3.81-.13a6.48,6.48,0,0,1,1.69-1.27.52.52,0,0,1,.61,0,.5.5,0,0,1,0,.61c-1.65,3.86-5,5.9-8.92,3.24-1.95-1.33-2.35-1.33-4.16.25A4.14,4.14,0,0,1,119,24c-.46.12-.73,0-.58-.58.55-2,3.21-4.29,5.15-4.47Z"/><path class="cls-1" d="M57,50.85l.17-.18a8.46,8.46,0,0,0,.57-2.23c0-.32.16-.54.51-.53s.46.34.44.66a11.92,11.92,0,0,0-.32,2.17,3.3,3.3,0,0,0,1.39-2.16c.1-.38.12-.79.65-.68s.39.53.32.89a5.55,5.55,0,0,0-.34,1.86c.39-.14.76-.39,1,.11a.47.47,0,0,0,.73.13c.32-.26.16-.55,0-.81l-.23-.29a1.19,1.19,0,0,1-.14-1.31A1.29,1.29,0,0,1,63,47.84c.21,0,.52,0,.54.21s-.3.17-.47.24c-.74.28-.22.64,0,1,.66,1.09.14,2.28-1.06,2.3-.68,0-1.37-.47-2.07,0-.61-1-1.16-.22-1.76,0S57.36,51.09,57,50.85Z"/><path class="cls-1" d="M79,49.8a3.62,3.62,0,0,1,2.54-3.48,1.94,1.94,0,0,1,1.44.13.5.5,0,0,1,.21.78c-.2.31-.41.22-.68,0a1,1,0,0,0-1.75.31A3.73,3.73,0,0,0,80.18,50c.06.53.26,1,.91.92s.74-.58.73-1.12c0-.24-.39-.5,0-.71a.91.91,0,0,1,.89,0c.33.21.11.56.07.85a1.71,1.71,0,0,1-.07.36c-.16.43.08,1.18-.56,1.22-.85.05-1.78.5-2.58-.21A1.83,1.83,0,0,1,79,49.8Z"/><path class="cls-1" d="M114.79,46.37c.38,0,.66,0,.93,0s.64-.09.61.34-.37.46-.7.36c-.75-.22-1.25-.1-1.37.81-.07.55.07.74.62.68.22,0,.63-.29.66.16s-.37.43-.69.46-.72-.06-.9.33a1.13,1.13,0,0,0-.1,1.07c.23.4.65.23,1,.27s.76-.37.81.17-.48.53-.84.54c-2.24.07-2.5.2-1.89-2.11a4.22,4.22,0,0,0,.31-2.44c-.12-.39.2-.55.53-.59S114.51,46.38,114.79,46.37Z"/><path class="cls-1" d="M19.29,51.73a6.69,6.69,0,0,1-.75-.21.6.6,0,0,1-.45-.63.54.54,0,0,1,.29-.45c.33-.18.4.17.57.31a1,1,0,0,0,1.41,0c.44-.48.12-.91-.28-1.27-.12-.1-.25-.19-.37-.28a1.44,1.44,0,0,1-.54-2,2.17,2.17,0,0,1,2.34-.9c.29.11.49.29.4.63s-.29.37-.57.2c-.46-.27-1-.43-1.31.1s.22.89.6,1.18c.66.5,1.13,1.07.85,2A2.37,2.37,0,0,1,19.29,51.73Z"/><path class="cls-1" d="M145.32,51.72a1.92,1.92,0,0,1-1-.32.57.57,0,0,1-.11-.82c.26-.36.44-.08.65.12a1,1,0,0,0,1.47.08c.48-.51.08-1-.33-1.33s-1-.68-1-1.35a1.54,1.54,0,0,1,.75-1.49,2,2,0,0,1,1.93-.24.42.42,0,0,1,.28.59c-.12.28-.32.32-.6.16-.45-.26-1-.44-1.29.12s.24.89.61,1.19c.64.52,1.11,1.09.8,2A2.32,2.32,0,0,1,145.32,51.72Z"/><path class="cls-1" d="M74.81,50.74l-.19-.24c.71-.71.63-1.71,1-2.56.11-.29.17-.59.28-.88a.65.65,0,0,1,.89-.42c.42.13.46.49.33.83-.2.54-.45,1.07-.69,1.6a3.81,3.81,0,0,0-.28.58c-.08.32-.31.69-.11,1s.57-.22,1-.09a1.58,1.58,0,0,1-1.42,1C75,51.6,75,51.05,74.81,50.74Z"/><path class="cls-1" d="M172.19,41.24c-.05,1-.57,1.5-1.5,1.45-.7,0-1-.46-.94-1.11,0-1.17.46-1.66,1.35-1.63A1.08,1.08,0,0,1,172.19,41.24Z"/><path class="cls-1" d="M158.66,39.91a1,1,0,0,1,1.14,1.15,1.37,1.37,0,0,1-1.47,1.59c-.69,0-1-.43-1-1.08C157.35,40.38,157.72,39.91,158.66,39.91Z"/><path class="cls-1" d="M65.84,50.55c-.24.61-.62,1.12-1.33,1s-.63-.81-.53-1.37c.15-.88.33-1.76.47-2.64a.54.54,0,0,1,.64-.51c.38,0,.4.31.38.61s-.13.49.14.57c1,.3.64.45,0,.65-.4.12-.81,1.48-.57,1.78S65.5,50.32,65.84,50.55Z"/><path class="cls-1" d="M103.78,48.64c.2-.19.33-.33.47-.44s.58-.52.84-.08a.6.6,0,0,1-.3.86c-1.06.15-1.17,1.06-1.56,1.76a4.94,4.94,0,0,1-.36.64.49.49,0,0,1-.59.14c-.28-.1-.24-.34-.17-.55a10,10,0,0,0,.55-2.62c0-.3.24-.41.51-.44C103.61,47.87,103.68,48.24,103.78,48.64Z"/><path class="cls-1" d="M67.87,48.65c.19-.2.29-.32.39-.43s.42-.38.73-.27a.33.33,0,0,1,.19.38c0,.29-.12.65-.39.68-1,.09-1.09.88-1.41,1.52-.11.22-.18.46-.3.67a.56.56,0,0,1-.77.31c-.37-.18-.14-.49-.07-.73a8.67,8.67,0,0,0,.43-2.07c0-.34,0-.69.46-.79S67.69,48.26,67.87,48.65Z"/><path class="cls-1" d="M28.34,50.52a1.73,1.73,0,0,1-2.19,1c-.83-.34-.76-1-.59-1.72a2.37,2.37,0,0,1,2.28-1.92c.28,0,.57,0,.7.33a.37.37,0,0,1-.12.42c-.24.23-.42.07-.65-.07-.41-.25-.73,0-.9.33a3,3,0,0,0-.28,1c-.12,1.09.28,1.36,1.26.91Z"/><path class="cls-1" d="M47.46,50.85c.17-.75.39-1.65.58-2.55A4.56,4.56,0,0,0,48.2,47c0-.54.21-.66.64-.64s.54.3.47.7a23.5,23.5,0,0,0-.8,4.15c0,.38-.37.36-.64.34S47.43,51.31,47.46,50.85Z"/><path class="cls-1" d="M126.59,48.86a4,4,0,0,1,.36-.62c.18-.21.4-.41.72-.29s.19.23.18.38-.13.65-.39.68c-1,.09-1.09.95-1.44,1.59-.13.24-.22.51-.37.74a.54.54,0,0,1-.66.2c-.36-.12-.19-.39-.14-.62.17-.75.37-1.49.53-2.24.07-.33,0-.69.48-.77S126.35,48.31,126.59,48.86Z"/><path class="cls-1" d="M30.64,49.86q0,.52,0,1c-.47-.2-.53.31-.8.47-.63.37-1.19.18-1.16-.53a18.05,18.05,0,0,1,.38-2.55c.06-.3.35-.32.6-.28a.41.41,0,0,1,.39.52c-.06.33-.16.66-.23,1s-.28.79,0,.94S30.43,50.15,30.64,49.86Z"/><path class="cls-1" d="M135.68,47.22c.09-.92.55-1.12,1.26-.8.48.21.93.51,1.39-.2,0,1.05-.46,1.32-1.29,1C136.58,47,136.16,46.74,135.68,47.22Z"/><path class="cls-1" d="M30.2,46.26c.13,0,.44,0,.38.35a1,1,0,0,1-.77.93c-.32.08-.45-.1-.45-.4C29.36,46.65,29.51,46.29,30.2,46.26Z"/><path class="cls-1" d="M70.22,47.55c-.36,0-.43-.2-.42-.48a.72.72,0,0,1,.79-.8c.28,0,.52.1.43.42A1,1,0,0,1,70.22,47.55Z"/><path class="cls-1" d="M149.21,51.13a.54.54,0,0,1-.64.49c-.32,0-.38-.25-.35-.52a.47.47,0,0,1,.57-.44A.4.4,0,0,1,149.21,51.13Z"/><path class="cls-1" d="M154.88,51.63c-.31,0-.45-.15-.43-.45s.17-.51.51-.51a.4.4,0,0,1,.45.45C155.4,51.46,155.19,51.6,154.88,51.63Z"/><path class="cls-1" d="M117.79,48.81a2.53,2.53,0,0,0,.53-1.16h0c0-.42.16-.91-.45-1s-.76.34-.9.81c-.27.94-.58,1.87-.82,2.82a1,1,0,0,0,.33,1.24c.42.26.83,0,1.18-.26a1,1,0,0,0,.5-.73c-.33-.17-.59.51-.87.1s-.06-.66.07-1A8.71,8.71,0,0,1,117.79,48.81Z"/><path class="cls-1" d="M140.29,25.21c-5.09,1.61-9,8.07-8,13.29a1.5,1.5,0,0,1-.92,1.88c-1,.55-1.37.36-1.44-.75a21.31,21.31,0,0,1,.37-4.23,32.46,32.46,0,0,0,.66-6.53c-.22-3.4-2.73-4.85-5.78-3.31a4.68,4.68,0,0,0-1.48,1.23,19.62,19.62,0,0,0-2.2,3.42l-.64,1.17a2.3,2.3,0,0,1,0-1,5.73,5.73,0,0,0-.07-2.48,1.93,1.93,0,0,0-1.47-1.4c-.72-.17-1.13.38-1.51.87a11.07,11.07,0,0,0-1.29,2.35c-1,2.28-1.79,4.68-3,6.87s-2.9,4.22-5.56,5c-2.1.62-3.37-.26-3.53-2.44a1.09,1.09,0,0,1,.76-1.26A22.81,22.81,0,0,0,111.6,34a6.53,6.53,0,0,0,2.32-4.87A2.91,2.91,0,0,0,111.7,26a6.88,6.88,0,0,0-6.4.62c-4.25,2.92-6.58,6.86-6.14,12.16a.79.79,0,0,1-.43.89c-2,1.17-3.48.58-4.11-1.62a15.81,15.81,0,0,1-.4-4.23,2.26,2.26,0,0,1,.59-1.58,79.71,79.71,0,0,0,7.33-9.89,19.36,19.36,0,0,0,2.73-6.15c.29-1.45.2-2.84-1.07-3.79s-2.54-.41-3.74.24a14.71,14.71,0,0,0-4.55,4.16A27.85,27.85,0,0,0,90.88,26c-.08.27,0,1-.68.59a5.9,5.9,0,0,0-5.69.27,12.91,12.91,0,0,0-6.95,10.41c0,.31,0,.63-.24.87A8.11,8.11,0,0,1,74.51,40a1.11,1.11,0,0,1-1.61-.88,5.07,5.07,0,0,1-.08-2,29,29,0,0,1,1.58-6.27A8.56,8.56,0,0,0,75,28c0-1-.49-1.55-1.5-1.36a25.67,25.67,0,0,1-6.18.16c-.72,0-1.08-.18-1.15-1a1.62,1.62,0,0,0-1.37-1.65c-1-.08-1.13.8-1.37,1.49a3.74,3.74,0,0,0-.17,1A1.27,1.27,0,0,0,64.22,28c.6.17.6.46.43,1a26.93,26.93,0,0,1-1.27,3.18,25.57,25.57,0,0,1-3.64,5.57c-.22.26-.52.58-.3.9s.69.14,1,0a3,3,0,0,0,.74-.54,11.1,11.1,0,0,0,1.56-2,67.29,67.29,0,0,0,3.44-5.82c.16-.29.24-.65.7-.6,1.31.14,2.63.25,4,.38-.42,1.07-.84,2-1.17,3a15,15,0,0,0-1.11,6.79c.37,2.87,2.61,4,5.2,2.69a11.32,11.32,0,0,0,3-2.34c.79-.82.79-.82,1.14.22a4.92,4.92,0,0,0,5.81,3.42,9.64,9.64,0,0,0,4.72-2.42c.65-.56,1.26-1.16,1.88-1.73.16.36.34.82.57,1.26a3.64,3.64,0,0,0,4.72,2,10.72,10.72,0,0,0,3.44-2c.33-.26.53-.43.82.1A4.42,4.42,0,0,0,104,43.42a10.52,10.52,0,0,0,7.7-3.08,24.6,24.6,0,0,0,3.38-4c.95-1.4,1.84-2.83,2.79-4.29a1.56,1.56,0,0,1-.19,1,50,50,0,0,0-1.49,5.35,9.64,9.64,0,0,0-.27,3.76c.17.93.82,1.22,1.65.77a4.3,4.3,0,0,0,1.47-1.51,38.31,38.31,0,0,0,2.8-5.53,55.87,55.87,0,0,1,2.48-5.18A5.52,5.52,0,0,1,126,28.62c.77-.49,1.31-.25,1.47.64a3.56,3.56,0,0,1,0,1.1c-.17,1.25-.37,2.5-.57,3.75a25.2,25.2,0,0,0-.69,6.51c.19,2,1.16,2.57,3.06,1.92a11,11,0,0,0,3.06-1.7c.45-.34.68-.3,1,.16a4.36,4.36,0,0,0,2.94,1.76,6.59,6.59,0,0,0,4.54-.92,12.83,12.83,0,0,0,6.66-10.79C147.77,26.54,144.43,23.9,140.29,25.21Zm-35.58,9.35a18.55,18.55,0,0,1,2.1-5.6,4.78,4.78,0,0,1,1.36-1.49,2.09,2.09,0,0,1,2.26-.28,2.23,2.23,0,0,1,1,2.29,4.51,4.51,0,0,1-1.3,2.71,10,10,0,0,1-5,2.8C104.74,35.1,104.6,35,104.71,34.56ZM94.49,29.71a50.27,50.27,0,0,1,3.31-10.57,11.22,11.22,0,0,1,2.39-3.61,3.06,3.06,0,0,1,1.43-.81c.91-.2,1.45.23,1.47,1.19a8.45,8.45,0,0,1-.58,2.28,49.33,49.33,0,0,1-7.37,11.72c-.15.19-.31.45-.6.3S94.45,29.9,94.49,29.71ZM86.86,40a6.43,6.43,0,0,1-1.48,2c-.89.77-1.64.61-2.12-.47a7.05,7.05,0,0,1-.47-3.27,20,20,0,0,1,2.29-8.6,5.75,5.75,0,0,1,1.34-1.76c.92-.77,1.73-.57,2.18.55A8.5,8.5,0,0,1,89,31.79,20.47,20.47,0,0,1,86.86,40Zm56.68-8.79a19.71,19.71,0,0,1-2.22,7.87A5.6,5.6,0,0,1,139.84,41a1.16,1.16,0,0,1-2-.49,7.76,7.76,0,0,1-.49-3.22,20.44,20.44,0,0,1,2.13-8.42A6.5,6.5,0,0,1,141,26.78a1.18,1.18,0,0,1,2.08.44A7.85,7.85,0,0,1,143.54,31.23Z"/><path class="cls-1" d="M62.28,17.37c-1.56-5.56-6.36-8.23-12.12-6.65C45.35,12,41.77,15.1,39,19.08c-3.33,4.7-5.2,9.87-4.41,15.74.84,6.19,5.77,9.63,11.85,8.29a18.36,18.36,0,0,0,9.45-5.69,23.88,23.88,0,0,0,6.92-16A13.4,13.4,0,0,0,62.28,17.37Zm-5.41,3.42a31.62,31.62,0,0,1-5.63,16.29,11.11,11.11,0,0,1-2.77,2.83c-2.22,1.53-4.09,1-5.09-1.54a12.74,12.74,0,0,1-.66-5.84,31.65,31.65,0,0,1,5.64-16,10.19,10.19,0,0,1,3-3c2-1.22,3.68-.69,4.67,1.48A14,14,0,0,1,56.87,20.79Z"/><path class="cls-1" d="M33,11.74c-1.24-.85-2.5-.35-3.67.28a14.27,14.27,0,0,0-4.44,4C20.25,22,18.56,28.91,19,36.38a9.8,9.8,0,0,0,1.26,4.51A3.5,3.5,0,0,0,24,42.72a6.75,6.75,0,0,0,2.42-.88A21.34,21.34,0,0,0,31,38.17a1.21,1.21,0,0,0,.26-1.6,15.37,15.37,0,0,1-3.53,2.77c-1.84.9-3.1.38-3.74-1.57a14.74,14.74,0,0,1-.51-4.4,2.38,2.38,0,0,1,.62-1.67A73,73,0,0,0,32.45,20a14.08,14.08,0,0,0,1.73-4.57C34.4,14,34.3,12.62,33,11.74Zm-1.06,5.5C30.12,22,27.11,26,23.83,30.15a7,7,0,0,1,.32-2.8,43.59,43.59,0,0,1,3.32-9.58A11.54,11.54,0,0,1,29,15.39a3.74,3.74,0,0,1,1.55-1.13c1.17-.41,1.81.06,1.75,1.29A5.53,5.53,0,0,1,31.94,17.24Z"/><path class="cls-1" d="M16,38.88a15.45,15.45,0,0,1-3.66,2.33c-2.2.9-3.54.09-3.84-2.25a1.08,1.08,0,0,1,.75-1.34,25.23,25.23,0,0,0,5.87-3.32,6.94,6.94,0,0,0,2.94-5.71,2.85,2.85,0,0,0-1.81-2.76,7,7,0,0,0-3.19-.59,5.4,5.4,0,0,0-3.49.94C5.21,29.11,2.81,33.1,3.24,38.51c.19,2.4,1.47,4.08,3.48,4.51,4,.85,7.07-1,9.93-3.42.35-.3.18-.65,0-.9S16.19,38.75,16,38.88ZM8.84,34.22A19.76,19.76,0,0,1,10.77,29a5.21,5.21,0,0,1,1.56-1.79,2.14,2.14,0,0,1,2.27-.23,2.24,2.24,0,0,1,1,2.26,5,5,0,0,1-1.69,3.13,10.32,10.32,0,0,1-4.53,2.38C9,34.83,8.68,34.84,8.84,34.22Z"/><path class="cls-1" d="M169.18,41.73c-.81-1.37-.73-2.91-.81-4.41-.1-1.82-.16-3.64-.27-5.46-.07-1.17-.71-1.57-1.82-1.18a1.64,1.64,0,0,0-1,.91c-.51,1.09-1.06,2.16-1.58,3.25-1,2.09-2,4.18-3,6.27a1,1,0,0,0,.1,1.29c.45.4,1,.21,1.5.12s.51-.46.56-.89c.23-2,.86-2.58,2.51-2.57.62,0,.79.22.8.8a8.79,8.79,0,0,0,.27,1.83c.14.59.51,1,1,1a2.39,2.39,0,0,0,1.47-.42C169.11,42.12,169.35,42,169.18,41.73ZM166,36.85c-.13.94-.88.18-1.27.52l-.15-.19,1.17-2.61.27,0A16.28,16.28,0,0,1,166,36.85Z"/><path class="cls-1" d="M101,50.92c-.37.11-.78.22-1-.21s.21-.61.54-.78a6.19,6.19,0,0,0,.95-.57.85.85,0,0,0,.39-1c-.22-.5-.69-.5-1.12-.4A2.46,2.46,0,0,0,99,49.69c-.14.39-.18.86-.83.95a24.12,24.12,0,0,1,.65-3.08c.07-.34.24-.8-.29-.93s-.68.25-.72.71c0,.27,0,.59-.43.57-1.34,0-1.87.88-2.3,1.92-.15.36-.23.76-.79.8a6.71,6.71,0,0,1,.39-2c.1-.38.13-.65-.38-.72a2.45,2.45,0,0,0-3,1.77c-.16.41-.25.88-.8,1-.15-.34,0-.59.08-.86.07-.61.58-1.37-.12-1.78s-1.05.42-1.61.81c0-.4.1-.91-.5-.88s-.5.5-.56.89c-.1.61-.24,1.21-.37,1.81-.15.1-.1.27-.15.4-.24.39-.12.57.33.55s.58-.39.74-.73a4.14,4.14,0,0,1,1.36-2,7,7,0,0,1-.23,1.72c0,.33-.09.7.28.91a.81.81,0,0,0,.87-.13c.15-.09.34-.37.45-.23.84,1,1.45.23,2.14-.32.26.83.74,1,1.4.5.16-.11.31-.18.49,0,.62.57,1.13.23,1.62-.21.26-.23.41-.33.58.1a.57.57,0,0,0,1,.2c.45-.39.72-.26,1.17,0a1.62,1.62,0,0,0,2.31-.73C101.44,50.62,101.27,50.86,101,50.92Zm-.19-2.49a.2.2,0,0,1,.19.26c-.11.49-.44.72-1,.84C100.23,49,100.27,48.5,100.86,48.44Zm-7.42.8a10.87,10.87,0,0,1-.71,1.17c-.11.16-.25.41-.51.26s-.13-.32-.11-.5a2.79,2.79,0,0,1,.53-1.35c.18-.22.39-.44.7-.29S93.56,49,93.44,49.24Zm3.92,0c-.26.45-.52.89-.81,1.32-.09.14-.25.31-.45.19s-.14-.32-.13-.5a2.82,2.82,0,0,1,.66-1.48c.19-.19.4-.29.65-.1A.41.41,0,0,1,97.36,49.19Z"/><path class="cls-1" d="M44.77,49.72c.15-.79.37-1.56.52-2.35.06-.29.1-.66-.32-.75s-.6.19-.63.59-.08.72-.63.7a2,2,0,0,0-1.86,1.29c-.16.29-.24.63-.39.94s-.23.51-.52.42-.14-.38-.1-.57c.1-.48.22-1,.36-1.43s0-.62-.46-.66c-1.72-.13-2.41.29-3,1.9-.13.34-.19.72-.67.79-.22-.37,0-.73,0-1.07.15-.69.34-1.38.49-2.07.07-.33.17-.72-.31-.83s-.65.2-.66.64-.07.66-.57.65c-1.24,0-1.79.83-2.15,1.83-.21.58-.45,1.27.17,1.7s1.07-.13,1.51-.51a1.19,1.19,0,0,1,.24-.1c.24.78.72.92,1.39.45.09-.06.29-.12.33-.08.84.79,1.45.21,2.1-.43.27.84.73,1,1.4.53.12-.09.29-.23.41-.11.86.86,1.43.1,2-.39.28.3.34.84.87.73a1.28,1.28,0,0,0,1.05-1C44.68,50.45,44.64,50.41,44.77,49.72Zm-8.65-.59a4.63,4.63,0,0,1-.86,1.42c-.11.13-.32.32-.45.08a1.33,1.33,0,0,1,.1-1.16c.15-.4.3-.82.79-1C36.09,48.55,36.26,48.75,36.12,49.13Zm3.84,0c-.26.46-.52.91-.79,1.35-.08.13-.2.27-.37.21s-.14-.31-.18-.46a2.91,2.91,0,0,1,.61-1.54.46.46,0,0,1,.65-.14A.4.4,0,0,1,40,49.13Zm3.89,0c-.24.43-.48.86-.73,1.27-.09.15-.23.32-.44.24s-.13-.31-.16-.45a2.38,2.38,0,0,1,.62-1.53.46.46,0,0,1,.66-.11C44,48.76,44,49,43.85,49.17Z"/><path class="cls-1" d="M56.65,49.1c.14-.57.3-1.13.43-1.7.08-.35.09-.71-.38-.79s-.61.18-.63.59-.09.68-.56.68c-1.18,0-1.72.81-2.12,1.77-.16.39-.21.85-.73,1-.26-.38,0-.71.05-1.06,0-.53.49-1.15-.08-1.55s-1,.22-1.42.53a1.22,1.22,0,0,1-.27.08c-.06-.32,0-.77-.57-.73s-.44.49-.49.83a11.77,11.77,0,0,1-.52,2.15c-.07.22-.22.5.11.63a.54.54,0,0,0,.72-.25c.19-.35.32-.74.52-1.08s.42-1,1-1.22a5.05,5.05,0,0,1-.24,1.69.68.68,0,0,0,1.07.76c.22-.12.41-.47.71-.16.61.61,1.11.25,1.61-.15.15-.12.3-.41.5-.08.66,1.05,1.12.4,1.59-.17a.24.24,0,0,0,.17-.18C56.36,50.32,56.35,50.32,56.65,49.1Zm-1.07.1c-.23.43-.48.86-.75,1.27-.09.15-.24.32-.45.23s-.15-.31-.18-.46a2.83,2.83,0,0,1,.58-1.46c.16-.19.36-.37.64-.22A.42.42,0,0,1,55.58,49.2Z"/><path class="cls-1" d="M133.87,50.84c-.41.16-.89.4-1.15-.1s.31-.67.66-.86l.17-.08c.93-.49,1.32-1.12,1-1.62s-1.24-.39-1.94.12a3,3,0,0,0-.41.38,3.89,3.89,0,0,0-.72,1.49c-.07.2-.24.43-.47.37s-.18-.35-.13-.54c.18-.81.4-1.62.58-2.43.07-.34.24-.8-.28-.93s-.69.24-.72.7-.09.54-.53.59a2.56,2.56,0,0,0-2.3,2.55c0,.38,0,.77.34,1a.9.9,0,0,0,1.11-.18c.38-.32.64-.64,1,.09.16.35.62.21.9,0s.6-.31,1,0a1.66,1.66,0,0,0,2.43-.64C134.16,50.58,134,50.78,133.87,50.84Zm-.43-2.41a.2.2,0,0,1,.24.22c-.06.53-.44.74-1,.93C132.81,49,132.92,48.57,133.44,48.43Zm-3.44.76c-.24.43-.49.85-.76,1.26-.1.15-.25.33-.45.26s-.19-.34-.18-.51a2.6,2.6,0,0,1,.62-1.46c.18-.18.4-.31.65-.13A.41.41,0,0,1,130,49.18Z"/><path class="cls-1" d="M140.33,48a2.42,2.42,0,0,0-1.56,1.82c-.1.4-.23.74-.73.82a1.88,1.88,0,0,1,.05-.85c.08-.58.59-1.27,0-1.73s-1.06.35-1.59.59c-.22-.25-.12-.8-.68-.71a.53.53,0,0,0-.51.55,8.86,8.86,0,0,1-.52,2.53c-.07.21-.13.44.16.54a.49.49,0,0,0,.59-.14,5.71,5.71,0,0,0,.44-.81,4.06,4.06,0,0,1,1.18-1.7c.18.71-.15,1.24-.2,1.8s.42,1.16.81.81c.7-.61,1.18-.36,1.82,0a1.27,1.27,0,0,0,1.32-.19,2.53,2.53,0,0,0,1.2-2A1.25,1.25,0,0,0,140.33,48Zm.42,2.54c-.14.28-.32.58-.7.45s-.29-.43-.3-.69a3.17,3.17,0,0,1,.48-1.49c.13-.18.29-.34.53-.27a.5.5,0,0,1,.33.5A2.8,2.8,0,0,1,140.75,50.51Z"/><path class="cls-1" d="M74.62,50.5c-.34.19-.62.26-.49-.29s.28-1.14.44-1.7c.11-.39,0-.57-.42-.61-1.66-.2-2.41.23-3.06,1.84a1.4,1.4,0,0,1-.88.92,4.11,4.11,0,0,1,.26-1.91c.06-.33,0-.64-.39-.69-.24,0-.52,0-.58.3a22.74,22.74,0,0,0-.38,2.37c-.05.77.48,1,1.15.65.2-.11.41-.51.59-.29.84,1,1.44.27,2.06-.25.65,1,1.06,1,1.88-.1C74.88,50.55,74.82,50.47,74.62,50.5Zm-1.29-1.4c-.23.43-.47.86-.72,1.28-.11.17-.24.42-.5.28s-.12-.33-.12-.54a2.53,2.53,0,0,1,.64-1.46.44.44,0,0,1,.58-.12A.38.38,0,0,1,73.33,49.1Z"/><path class="cls-1" d="M122.48,46.39a3.64,3.64,0,0,0-2.12,3.4c0,.69,0,1.39.73,1.75a1.88,1.88,0,0,0,2.08-.31,3.93,3.93,0,0,0,1.56-3.39A1.53,1.53,0,0,0,122.48,46.39Zm.39,4.17c-.23.31-.51.56-.93.45s-.5-.53-.51-.89a4.3,4.3,0,0,1,.68-2.55c.24-.36.53-.75,1-.58s.52.7.55,1.1A5.2,5.2,0,0,1,122.87,50.56Z"/><path class="cls-1" d="M153.68,50.84a20.1,20.1,0,0,1-.3-3.58c0-.35.1-.81-.37-.94s-.81.17-1,.57c-.73,1.25-1.48,2.49-2.19,3.75-.15.27-.49.64-.06.88s.7-.13.84-.55c.2-.61.56-1,1.25-1a.6.6,0,0,1,.78.59c0,.15,0,.3.08.46a.61.61,0,0,0,.82.52C154,51.47,153.74,51.13,153.68,50.84Zm-1.23-1.9c0,.42-.34.47-.65.42-.49-.08-.24-.39-.14-.61a2.84,2.84,0,0,1,.68-1.06A2.76,2.76,0,0,1,152.45,48.94Z"/><path class="cls-1" d="M87.07,50.45c-.79.43-.63-.12-.54-.54s.24-1,.37-1.43,0-.52-.35-.59a2.66,2.66,0,0,0-3.26,2.84c.06.76.53,1.06,1.19.71.46-.24.84-.75,1.3,0,.13.22.51.08.76-.07s.35-.46.69-.4l.15-.4C87.27,50.56,87.12,50.42,87.07,50.45Zm-1.42-1.32a4,4,0,0,1-.89,1.46c-.25.25-.48.15-.47-.19A2.54,2.54,0,0,1,85,48.59a.39.39,0,0,1,.51,0C85.67,48.63,85.73,48.78,85.64,49.13Z"/><path class="cls-1" d="M108.15,50c.09-.48.22-1,.35-1.43s.07-.58-.37-.65a2.59,2.59,0,0,0-3.21,2.25c-.11.5-.17,1,.33,1.33s.87,0,1.24-.31c.14-.13.25-.46.56-.14.79.8,1.17.69,1.85-.67C108.19,50.75,108.07,50.44,108.15,50Zm-.91-.74c-.21.4-.45.79-.69,1.18-.09.15-.22.34-.42.29s-.18-.34-.2-.55a3.09,3.09,0,0,1,.51-1.34c.17-.23.37-.44.69-.29S107.37,49,107.24,49.24Z"/><path class="cls-1" d="M24.13,47.88a2.35,2.35,0,0,0-2.2,2.38,1.16,1.16,0,0,0,1.18,1.34,2.34,2.34,0,0,0,2.19-2.39C25.31,48.36,24.91,47.91,24.13,47.88Zm-.26,2.76c-.14.21-.3.42-.59.33s-.33-.35-.34-.59A3,3,0,0,1,23.3,49c.12-.25.29-.53.61-.46s.38.43.4.71A3.6,3.6,0,0,1,23.87,50.64Z"/><path class="cls-1" d="M32.5,51c-.35.05-.72.08-.85-.33s.2-.54.48-.67a3.59,3.59,0,0,0,1-.6c.34-.31.61-.68.37-1.14s-.74-.44-1.15-.32a2.32,2.32,0,0,0-1.76,1.94,1.24,1.24,0,0,0,0,1c.25.8.92.73,1.53.67s1.08-.17,1.24-.86C33,50.62,32.8,50.94,32.5,51Zm-.15-2.49a.21.21,0,0,1,.28.25c-.05.41-.34.6-.81.74C31.83,48.95,32,48.63,32.35,48.49Z"/></svg>