<svg id="Capa_7" data-name="Capa 7" xmlns="http://www.w3.org/2000/svg" viewBox="0 0 515 131.18"><defs><style>.cls-1{fill:#333e48;}.cls-2{fill:#005ca4;}</style></defs><title>pentaho_logo_tech</title><path class="cls-1" d="M173.72,50.06l-.1,6.27c1.88-1.88,4-5,6.2-5.92a17.58,17.58,0,0,1,7-1.42,18.12,18.12,0,0,1,13.81,6.14,23,23,0,0,1-.06,31.47c-3.91,4.16-8.51,5.69-13.87,5.69a16.83,16.83,0,0,1-6.54-1.52c-2.06-.85-4.94-3.59-6.49-6v21.94h-10.3V50.1Zm11.16,7.48c-3.28,0-6.21,2.18-8.38,4.41s-2.93,5.15-2.93,8.79a12,12,0,0,0,3.21,8.79c2.16,2.28,4.67,3.91,7.94,3.91a11.46,11.46,0,0,0,8.41-3.52,13.67,13.67,0,0,0,3.78-9.19,13.85,13.85,0,0,0-3.31-9.34,12.32,12.32,0,0,0-8.72-3.85Z"/><path class="cls-1" d="M253.59,72.94l-31.25-.25c.46,2.93,1.22,6.44,3.24,8.17a15.18,15.18,0,0,0,8.79,3.52c3.73,0,6.47.57,13.14-4.88l5.64,5.13c-3.57,3.49-6.41,4.56-9.34,6.07s-6.22,1.5-10.24,1.5c-6.25,0-11.23-1.69-15.17-5.79a21.55,21.55,0,0,1-6.26-15.35A22.22,22.22,0,0,1,218,55.28,19.35,19.35,0,0,1,232.75,49q9.41,0,15.3,6.27c3.91,4.18,5.59,9,5.59,15.91Zm-9.27-6.05c-.66-2.31-1.63-5.86-3.36-7.56a12.39,12.39,0,0,0-7.81-3.26,11.72,11.72,0,0,0-7.94,3.73c-1.32,1-2.7,4.39-3.26,7.09Z"/><path class="cls-1" d="M260.43,50.06h10.06v4.88a21.6,21.6,0,0,1,7.81-5.45c2-.78,3.91-.51,6-.51,3.91,0,7.2,1.63,10.22,4.5a16.1,16.1,0,0,1,4.59,11.39V90.41H289l-.07-17.18c0-5-.16-8.58-.63-10.22a7.88,7.88,0,0,0-2.55-4.11c-1.16-.85-3.13-2.07-4.83-2.07-2.22,0-4.88.38-6.48,1.8a11,11,0,0,0-4.14,7.11c-.2,1.32-.07,4.88-.07,9.18V90.41h-9.81Z"/><path class="cls-1" d="M367.47,50.27h10.41l-.52,40.11-9.68,0V84.57c-1.66,2.74-5.06,5.91-7.11,6.77s-4.27.84-6.66.84a18,18,0,0,1-13.9-5.8,21.76,21.76,0,0,1-5.86-15.51q0-9.61,5.67-15.75A18.09,18.09,0,0,1,353.63,49a17.58,17.58,0,0,1,7,1.42,17,17,0,0,1,6.84,5.86ZM356,58.6A10.89,10.89,0,0,0,347.81,62a12.14,12.14,0,0,0-3.27,8.79,12.27,12.27,0,0,0,3.33,8.85,10.9,10.9,0,0,0,8.19,3.47,11.1,11.1,0,0,0,8.33-3.42,12.31,12.31,0,0,0,3.31-8.95A12,12,0,0,0,364.39,62,11.25,11.25,0,0,0,356,58.6Z"/><path class="cls-1" d="M385.85,5.35h9.83l.21,49.11A28.41,28.41,0,0,1,402.47,50a20.24,20.24,0,0,1,7.2-1c4.32,0,7.6,1.9,10.56,4.75,2.53,2.47,3.91,7,4.14,11V90.43h-9.92V73.37c0-4.8-.06-8.45-.54-10.16a10.09,10.09,0,0,0-3.26-4.55A7.87,7.87,0,0,0,406.19,57c-2.21,0-5.3.52-6.84,2a10.74,10.74,0,0,0-3.26,6.52c-.2,2.23-.2,5-.2,9.45v15.5h-10Z"/><path class="cls-1" d="M451.72,49.05a23.66,23.66,0,0,1,11.5,2.88,20,20,0,0,1,7.49,8c2,3.36,2.44,7,2.44,10.91a20.13,20.13,0,0,1-2.64,10.56,21.77,21.77,0,0,1-7.93,8c-3,1.81-6.84,2.18-10.85,2.18-5.92,0-11.3-1.14-15.14-5.23a21.78,21.78,0,0,1-6.24-15.43c0-6.48,1.66-12.06,6.39-16.39A22.19,22.19,0,0,1,451.72,49.05Zm.4,7a10.82,10.82,0,0,0-8.67,3.78c-2.19,2.69-3.21,6.45-3.21,10.64A16.61,16.61,0,0,0,443.44,81a10.81,10.81,0,0,0,8.63,3.91,10.22,10.22,0,0,0,8.25-4.05,16,16,0,0,0,3.29-10.43q0-6.38-3.23-10.36a10.2,10.2,0,0,0-8.26-4Z"/><path class="cls-1" d="M310.29,36.92h10l-.17,13.54,8.49-.06.16,7.81-8.49-.06.19,15.94a33.69,33.69,0,0,0,.41,5.32,4,4,0,0,0,1.4,2.3,3.2,3.2,0,0,0,2.18,1,37.26,37.26,0,0,0,3.75.07l.83,7.65a40.89,40.89,0,0,1-7.62,1.15,9.77,9.77,0,0,1-6.66-2.23c-1.8-1.29-2.18-3.08-3.11-4.88-1.35-2.59-1-5-1-9.21V58.09L305,58V50.22l5.18.08Z"/><path class="cls-1" d="M480.16,55.27a8.6,8.6,0,0,1,1.58-.13,2.61,2.61,0,0,1,1.85.52,1.59,1.59,0,0,1,.5,1.21,1.67,1.67,0,0,1-1.2,1.63h0a1.59,1.59,0,0,1,1,1.29,10.17,10.17,0,0,0,.49,1.75h-.85a8.23,8.23,0,0,1-.43-1.52c-.19-.88-.53-1.21-1.28-1.24H481v2.76h-.86ZM481,58.2h.84c.88,0,1.44-.48,1.44-1.21s-.6-1.18-1.46-1.19a3.43,3.43,0,0,0-.81.08Z"/><path class="cls-1" d="M482,63.44a5.11,5.11,0,1,1,5-5.24s0,.09,0,.13a5,5,0,0,1-5,5.11Zm0-9.77a4.7,4.7,0,1,0,4.54,4.85q0-.08,0-.15a4.63,4.63,0,0,0-4.52-4.74h0Z"/><path class="cls-2" d="M28,45.06c7.4-11.82,17.32-20.69,30.27-26C90,5.94,126.16,20.57,138.57,51.55c10.48,26.16-.15,56.54-24,68.68-23.06,11.77-50.25,4.44-63-17C40,83.89,46.56,58.39,65.75,47.82c16.46-9.06,37.33-2.65,44.78,13.76,6.32,13.9-1,30.45-14.81,33.71-9.27,2.19-19-3.71-20-12.16a9.77,9.77,0,0,1,4-9.58c3.55-2.58,7.56-1.07,8.66,3.12.8,3.06,2.63,3.6,5.09,1.53,3.68-3.11,3.91-8.64.59-13-4.47-5.86-13.27-7.76-20.65-4.52C62.78,65.39,57.17,79.41,61.2,91.5,66.71,108.17,84.81,117,103.07,112c15-4.13,26.71-18.5,28.8-34.68,3.55-27.52-17.08-51.63-44.4-54.7C64.09,20,46,29.47,32,47.79c-1.17,1.53-1.74,3.69-3.91,4.31Z"/></svg>