<svg id="Layer_1" data-name="Layer 1" xmlns="http://www.w3.org/2000/svg" viewBox="0 0 160 30"><defs><style>.cls-1{fill:#343e44;}.cls-2{fill:#005498;}</style></defs><title>pentaho_logo</title><path class="cls-1" d="M63.95,21.19a3.68,3.68,0,0,1-3.24-1.85v6.45H58.44V11.42h2.27V13a3.65,3.65,0,0,1,3.21-1.88,4.72,4.72,0,0,1,4.62,5,4.76,4.76,0,0,1-4.59,5m-.47-8.08a2.86,2.86,0,0,0-2.77,3,2.9,2.9,0,0,0,2.77,3.13,2.86,2.86,0,0,0,2.77-3,2.85,2.85,0,0,0-2.77-3.07"/><path class="cls-1" d="M74.8,11.12c3.16,0,4.76,2.38,4.76,5a3.75,3.75,0,0,1,0,.55H72.23a2.83,2.83,0,0,0,3,2.77,4.6,4.6,0,0,0,3-1.19l1.16,1.22A6.14,6.14,0,0,1,75,21.19a4.85,4.85,0,0,1-5.12-5,4.81,4.81,0,0,1,4.93-5m-2.6,4.24h5.2a2.6,2.6,0,1,0-5.2,0"/><path class="cls-1" d="M83.49,20.8h-2.3V11.42h2.3V12.7a3.16,3.16,0,0,1,2.8-1.58c2.8,0,3.93,1.8,3.93,4.57V20.8H87.94V15.68c0-1.91-.86-2.71-2.22-2.71s-2.21.8-2.24,2.63Z"/><path class="cls-1" d="M92.92,15.19V13.3H91.59V11.42h1.33V8.24h2.3v3.18h2V13.3h-2v1.83c0,3,.14,4,1.22,4A6.2,6.2,0,0,0,97.1,19l.28,1.74a5.12,5.12,0,0,1-1.6.33c-2.85,0-2.85-2-2.85-5.89"/><path class="cls-1" d="M103.18,11.12A3.67,3.67,0,0,1,106.42,13v-1.6h2.24V20.8h-2.24V19.31a3.66,3.66,0,0,1-3.21,1.88,4.72,4.72,0,0,1-4.62-5c0-2.63,1.8-5.06,4.59-5.06m.47,8.08a2.86,2.86,0,0,0,2.74-3,2.77,2.77,0,1,0-5.51,0,2.83,2.83,0,0,0,2.77,3"/><path class="cls-1" d="M113,20.8h-2.27V.88H113V12.7a3.19,3.19,0,0,1,2.8-1.58c2.82,0,4,1.8,4,4.57V20.8h-2.3V15.68c0-1.91-.86-2.71-2.19-2.71s-2.27.8-2.27,2.63Z"/><path class="cls-1" d="M121.1,16.1a5.05,5.05,0,0,1,10.1,0,5.05,5.05,0,0,1-10.1,0m7.83,0c0-2-1.22-3.32-2.8-3.32s-2.77,1.33-2.77,3.32,1.19,3.38,2.77,3.38,2.8-1.33,2.8-3.38"/><path class="cls-2" d="M38.85,9.79a8.47,8.47,0,0,0-3,.55A8.85,8.85,0,0,0,31,15.43a10.11,10.11,0,0,0,.48,8,10.84,10.84,0,0,0,9.69,5.73A12.19,12.19,0,0,0,47,27.6a12.53,12.53,0,0,0,5.93-8.26,13.69,13.69,0,0,0-2.3-10.73A14.36,14.36,0,0,0,39,2.85a14.78,14.78,0,0,0-12.67,7,7.48,7.48,0,0,0-.78,1.52.57.57,0,0,0,0,.46.51.51,0,0,0,.35.13h0c.22,0,.45-.22.78-.71a15.79,15.79,0,0,1,5.6-5,13.75,13.75,0,0,1,6.19-1.48,12.22,12.22,0,0,1,11.4,7.22,11.08,11.08,0,0,1,0,8.63,9.62,9.62,0,0,1-5.52,5.21,9.05,9.05,0,0,1-2.87.47,7.64,7.64,0,0,1-7.69-5.74A6.51,6.51,0,0,1,35,15.22a4.76,4.76,0,0,1,3.72-1.84,4.08,4.08,0,0,1,3,1.41,2.5,2.5,0,0,1,.52,2.12c-.15.59-.75,1.28-1.27,1.28a.63.63,0,0,1-.41-.16.66.66,0,0,1-.15-.42,1.1,1.1,0,0,0-.78-1,1.54,1.54,0,0,0-.42-.06,2,2,0,0,0-1.79,1.81,2.92,2.92,0,0,0,.72,2.36A4.24,4.24,0,0,0,41.23,22h.32a4.93,4.93,0,0,0,3.57-2.17,6.29,6.29,0,0,0,.75-5.15,7.19,7.19,0,0,0-7-4.91"/><path class="cls-1" d="M133.28,12A1.24,1.24,0,1,1,132,13.27,1.22,1.22,0,0,1,133.28,12Zm0,.19a1.05,1.05,0,0,0,0,2.1,1.05,1.05,0,0,0,0-2.1ZM133,14h-.22V12.61a2.46,2.46,0,0,1,.39,0,.73.73,0,0,1,.43.1.33.33,0,0,1,.13.29.34.34,0,0,1-.27.34h0c.12,0,.2.13.23.34a1.16,1.16,0,0,0,.09.34h-.23a1,1,0,0,1-.09-.35.26.26,0,0,0-.3-.24H133Zm0-.77h.16c.18,0,.34-.07.34-.24s-.09-.24-.34-.24H133Z"/></svg>