<svg id="Capa_2" data-name="Capa 2" xmlns="http://www.w3.org/2000/svg" viewBox="0 0 175 62"><defs><style>.cls-1,.cls-2{fill:#fff;}.cls-2{stroke:#fff;stroke-miterlimit:10;stroke-width:0.25px;}.cls-3{fill:#1d1d1b;}</style></defs><title>pinto_logo</title><path class="cls-1" d="M32.46,22.07a4.74,4.74,0,0,1,2.9-1,2.39,2.39,0,0,1,2.16,1.05,2.71,2.71,0,0,1,.18,2.52L33.9,35.33a5.19,5.19,0,0,1-2,2.51A4.82,4.82,0,0,1,29,38.9H25.46l5.06-14.31A5.31,5.31,0,0,1,32.46,22.07ZM21.66,49.63l2.53-7.15h7.19a9.64,9.64,0,0,0,5.79-2.11,10.68,10.68,0,0,0,3.89-5l3.8-10.74a5.52,5.52,0,0,0-.32-5.05,4.76,4.76,0,0,0-4.31-2.12H36.64a5,5,0,0,0-3,.89A5.41,5.41,0,0,0,31.78,21L33,17.42H25.88L14.5,49.63Z"/><path class="cls-1" d="M61.7,13.85H54.53l1.27-3.58H63ZM51.58,42.48H44.42l8.85-25.06h7.18Z"/><path class="cls-1" d="M65.94,42.48H58.77l8.86-25.06h7.17L73.52,21a6.9,6.9,0,0,1,2.07-2.7,4.63,4.63,0,0,1,2.8-.89H82a4.75,4.75,0,0,1,4.3,2.12,5.53,5.53,0,0,1,.33,5.05L80.28,42.48H73.12l6.33-17.89a2.78,2.78,0,0,0-.17-2.52A2.4,2.4,0,0,0,77.11,21a4.87,4.87,0,0,0-2.9,1.06,5.35,5.35,0,0,0-2,2.52Z"/><path class="cls-1" d="M96.75,17.42l2.52-7.15h7.17l-2.53,7.15h3.6L106.24,21h-3.59L97.58,35.33a2.5,2.5,0,0,0,.2,2.65,2.41,2.41,0,0,0,1.79.91h.33l-1.27,3.58H95.06a4.74,4.74,0,0,1-4.32-2.11,5.52,5.52,0,0,1-.32-5L95.47,21H91.88l1.27-3.58Z"/><path class="cls-1" d="M119.75,22.07a4.85,4.85,0,0,1,2.9-1.06,2.39,2.39,0,0,1,2.16,1.06,2.75,2.75,0,0,1,.16,2.52l-3.79,10.74a5.29,5.29,0,0,1-1.93,2.5,4.8,4.8,0,0,1-2.92,1.07,2.36,2.36,0,0,1-2.17-1.07,2.73,2.73,0,0,1-.17-2.5l3.8-10.74A5.36,5.36,0,0,1,119.75,22.07Zm-5.2-2.54a10.64,10.64,0,0,0-3.92,5.06l-3.79,10.74a5.48,5.48,0,0,0,.32,5,4.75,4.75,0,0,0,4.31,2.11h7.19a9.63,9.63,0,0,0,5.8-2.12,10.69,10.69,0,0,0,3.89-5l3.79-10.74a5.5,5.5,0,0,0-.33-5.05,4.75,4.75,0,0,0-4.3-2.12h-7.19A9.65,9.65,0,0,0,114.55,19.53Z"/><rect class="cls-2" x="139.44" y="11.72" width="18.92" height="34.75"/><rect class="cls-3" x="143.51" y="14.77" width="3.6" height="27.64"/><rect class="cls-3" x="150.7" y="14.77" width="3.6" height="27.64"/></svg>