<svg id="Capa_13" data-name="Capa 13" xmlns="http://www.w3.org/2000/svg" xmlns:xlink="http://www.w3.org/1999/xlink" viewBox="0 0 515 131.18"><defs><style>.cls-1{fill:#646464;}.cls-2{fill:url(#Degradado_sin_nombre_3);}.cls-3{fill:url(#Degradado_sin_nombre_2);}</style><linearGradient id="Degradado_sin_nombre_3" x1="-2.75" y1="1898.42" x2="105.85" y2="1991.86" gradientTransform="translate(21.25 -1066.8) scale(0.56 0.57)" gradientUnits="userSpaceOnUse"><stop offset="0" stop-color="#5a9fd4"/><stop offset="1" stop-color="#306998"/></linearGradient><linearGradient id="Degradado_sin_nombre_2" x1="147.48" y1="2048.67" x2="108.69" y2="1993.8" gradientTransform="translate(21.25 -1066.8) scale(0.56 0.57)" gradientUnits="userSpaceOnUse"><stop offset="0" stop-color="#ffd43b"/><stop offset="1" stop-color="#ffe873"/></linearGradient></defs><title>python_logo</title><path id="path46" class="cls-1" d="M199.36,66.49q0-21.76-12.41-22.36a23.31,23.31,0,0,0-9.64,1.59,14.15,14.15,0,0,0-5.06,2.67V83q7.94,5,14.09,4.62Q199.36,86.77,199.36,66.49Zm10.21.6q0,11.06-5.2,18.35a19.19,19.19,0,0,1-16.11,8.49q-7.77.25-16-4.86v31.47l-8.87-3.16V47.54A19.83,19.83,0,0,1,169,42.93q7.88-4.62,19.26-4.74l.13.13a17.66,17.66,0,0,1,15.93,8.48q5.25,8,5.26,20.3Z"/><path id="path48" class="cls-1" d="M263.79,87.76q0,14.78-3,20.54t-11.37,9.11a43.5,43.5,0,0,1-14.7,3l-1.47-5.59a70.46,70.46,0,0,0,11.3-2.19q6.45-2.19,8.87-6.68,2-3.66,2-14V89.58a45.59,45.59,0,0,1-19.08,4.13,17.54,17.54,0,0,1-11.55-4.13,14,14,0,0,1-5.59-11.42V41.23l8.87-3V75.36q0,5.91,3.84,9.17a14.53,14.53,0,0,0,10,3.09q6.1-.13,13.06-4.74V39.53h8.87Z"/><path id="path50" class="cls-1" d="M298.43,93.46c-1.05.09-2,.13-3,.13q-7.53,0-11.73-3.59t-4.19-9.93v-35h-6.08V39.52h6.08V24.74l8.87-3.15V39.52h10v5.59h-9.94V79.82q0,5,2.68,7.08c1.54,1.13,3.94,1.78,7.29,2Z"/><path id="path52" class="cls-1" d="M352.17,92.73H343.3V58.48a16.2,16.2,0,0,0-2.43-9,8.87,8.87,0,0,0-7.81-4.26q-6.1,0-15.26,6.43V92.73h-8.87V10.85L317.79,8v37.3a30.92,30.92,0,0,1,18.55-6.19,14.78,14.78,0,0,1,11.46,4.76,16.69,16.69,0,0,1,4.38,11.83v37Z"/><path id="path54" class="cls-1" d="M399.34,65.1q0-8.36-3.16-13.8a13.25,13.25,0,0,0-11.66-7q-14.59.85-14.58,20.9,0,9.19,3,15.35,3.94,7.88,11.71,7.73Q399.34,88.12,399.34,65.1Zm9.72.06q0,11.9-6.08,19.81-6.68,8.87-18.47,8.87T366.28,85q-5.91-7.88-5.91-19.81,0-11.18,6.43-18.84a22.18,22.18,0,0,1,17.82-8.14,22.56,22.56,0,0,1,18,8.14q6.45,7.66,6.45,18.84Z"/><path id="path56" class="cls-1" d="M459.94,92.73h-8.87V56.54q0-5.91-3.59-9.3T437.94,44a21.34,21.34,0,0,0-12,4.13V92.74H417V47.05q7.67-5.58,14.1-7.28a43,43,0,0,1,10.7-1.59,27.71,27.71,0,0,1,5.91.61,17.12,17.12,0,0,1,8.5,4.49A11.89,11.89,0,0,1,459.91,52Z"/><path id="path1948" class="cls-2" d="M75.71,11.18A76.32,76.32,0,0,0,62.9,12.28c-11.25,2-13.32,6.17-13.32,13.9V36.33H76.3v3.39H39.56c-7.77,0-14.56,4.66-16.68,13.54-2.45,10.17-2.56,16.53,0,27.15,1.9,7.88,6.43,13.54,14.2,13.54h9.18V81.75A17,17,0,0,1,62.95,65.16H89.62A13.46,13.46,0,0,0,103,51.6V26.18c0-7.24-6.11-12.67-13.35-13.88A83.28,83.28,0,0,0,75.71,11.18ZM61.26,19.36a5.09,5.09,0,1,1-5,5.17v-.07A5.07,5.07,0,0,1,61.26,19.36Z"/><path id="path1950" class="cls-3" d="M106.32,39.73V51.55c0,9.22-7.8,17-16.69,17H62.95A13.63,13.63,0,0,0,49.58,82.09v25.43c0,7.24,6.3,11.5,13.35,13.57a44.68,44.68,0,0,0,26.68,0c6.72-2,13.35-5.91,13.35-13.57V97.35H76.3V94h40c7.77,0,10.65-5.42,13.35-13.54,2.79-8.37,2.67-16.42,0-27.15-1.92-7.73-5.59-13.54-13.35-13.54Zm-15,64.41a5.09,5.09,0,1,1-5,5.17s0-.07,0-.1a5,5,0,0,1,5-5.07Z"/><path id="text3004" class="cls-1" d="M477.25,31.61h1.56V21.85h3.69V20.69h-8.93v1.16h3.69v9.76m6.62,0h1.26V22.74L488,31.61h1.48l3-8.87v8.87H494V20.69h-1.92l-3.28,9.36L486,20.69h-2.15V31.61"/></svg>