<svg id="Capa_14" data-name="Capa 14" xmlns="http://www.w3.org/2000/svg" xmlns:xlink="http://www.w3.org/1999/xlink" viewBox="0 0 515 131.18"><defs><style>.cls-1{fill:url(#Degradado_sin_nombre_4);}.cls-2{fill:#296dc2;}</style><linearGradient id="Degradado_sin_nombre_4" x1="178.5" y1="76.24" x2="336.5" y2="76.24" gradientTransform="matrix(1, 0, 0, -1, 0, 133.17)" gradientUnits="userSpaceOnUse"><stop offset="0" stop-color="#d6d3d2"/><stop offset="0.4" stop-color="#b4b3b6"/><stop offset="0.77" stop-color="#9b9ba1"/><stop offset="1" stop-color="#929299"/></linearGradient></defs><title>r_logo</title><path class="cls-1" d="M335.22,46.55s-3.31-11.1-15.87-22.21C307.76,14,291.92,9.26,289.21,8.5s-22.56-5.78-42-4S210.7,14.81,210.7,14.81l-1.58.79-11.91,7.93c-2.77,1.84-11.52,9.82-15.87,19.83C176.94,53.62,179,64.79,179,64.79s3.45,10.86,11.1,19c9.21,9.9,23,17.5,23,17.5A112.43,112.43,0,0,0,244,109.24c18.84,1.69,39.66-1.58,39.66-1.58S301.39,102.32,313,95A58.14,58.14,0,0,0,329.68,79.1S334.77,71.38,336,64A46.56,46.56,0,0,0,335.22,46.55ZM268.69,99.26c-33,0-59.77-16.86-59.77-37.66s26.76-37.66,59.77-37.66c37.62,0,59.72,16.87,59.72,37.66C328.41,84.43,301.71,99.26,268.69,99.26Z"/><path class="cls-2" d="M242.83,37.43h48.35c18.65,0,32,8.86,31.23,23.79-1.08,22.1-12.5,22.61-23.66,25.7v.26a20.16,20.16,0,0,1,14,9.54c5.25,9.51,13,21.35,17.91,30.07l-31,.27c-1.84-6.63-10-18.84-13.81-25.87-2.12-4-4.45-9.21-6.94-9.32-2.11-.08-8.43,0-8.43,0l-.06,35.19H242.83ZM270.4,72l11.77.2c6.14,0,12.36.09,12.36-7.61,0-9.13-8.44-7.76-14.47-7.76H270.4Z"/></svg>