<svg id="Capa_1" data-name="Capa 1" xmlns="http://www.w3.org/2000/svg" viewBox="0 0 175 62"><defs><style>.cls-1{fill:#fff;}</style></defs><title>seguros_equinoccial_logo</title><path class="cls-1" d="M171.5,40.06c-3.4,0-6.8,0-10.2.05-.81,0-1-.31-1-1q0-8.07,0-16.14c0-.69.16-1,.91-1,2.19,0,2.19-.08,2.19,2.08,0,4.11,0,8.23,0,12.34,0,1.14.36,1.39,1.4,1.34,1.82-.08,3.64,0,5.46,0a2,2,0,0,1,1.25.24Z"/><path class="cls-1" d="M171.5,45.29l-10.93,0a1.38,1.38,0,0,1-.06-2.12c3.58-.19,7.17-.11,10.76,0l.23.06Z"/><path class="cls-1" d="M65.43,26.64A1.74,1.74,0,0,0,65.18,28c0,3.6,0,7.2,0,10.81,0,1-.23,1.4-1.32,1.34-2-.11-1.8.25-1.81-1.77,0-5,0-10.05,0-15.08,0-1,.28-1.31,1.32-1.35a3.17,3.17,0,0,1,3.11,1.56c2.47,3.63,5.09,7.16,7.65,10.73.22.31.47.59.74.92a1.7,1.7,0,0,0,.19-1.21c0-3.6,0-7.2,0-10.81,0-.86.2-1.2,1.12-1.17,2.41.09,2.06-.28,2.07,2.1,0,4.91,0,9.82,0,14.73,0,1-.21,1.34-1.3,1.38a3.06,3.06,0,0,1-3-1.54c-2.51-3.7-5.15-7.31-7.74-11C66,27.32,65.71,27,65.43,26.64Z"/><path class="cls-1" d="M3.55,30.91c0-2.61,0-5.22,0-7.83,0-.77.15-1.14,1-1.13,3.92,0,7.83.05,11.75,0,1.08,0,1,.59,1,1.28s0,1.25-1,1.22c-2.77-.07-5.54,0-8.31,0-1,0-1.31.37-1.24,1.31a19.6,19.6,0,0,1,0,2.73c-.07,1,.26,1.33,1.26,1.3,2.06-.06,4.11,0,6.17,0,1,0,1.5.08,1.49,1.31s-.53,1.24-1.43,1.22c-2.18,0-4.35,0-6.53,0-.72,0-1,.24-1,1,0,1.15,0,2.3,0,3.44,0,.86.34,1.07,1.13,1.06,2.81,0,5.62,0,8.43,0,1,0,1.06.48,1,1.23s.08,1.29-1,1.27c-3.92-.06-7.83,0-11.75,0-.77,0-1-.24-1-1C3.57,36.37,3.55,33.64,3.55,30.91Z"/><path class="cls-1" d="M38.16,28.85c0-1.94,0-3.88,0-5.82,0-.83.24-1.11,1.07-1.08,2.53.07,2-.25,2.06,2.08,0,3.25,0,6.49,0,9.74a3.14,3.14,0,0,0,2.46,3.44,7.62,7.62,0,0,0,4.45.14c2.26-.62,3-1.55,3-3.75-.1-3.44,0-6.89-.05-10.33,0-1.06.3-1.46,1.34-1.3a3.23,3.23,0,0,0,.83,0c.75-.08,1,.19,1,1,0,3.88,0,7.76,0,11.64a4.62,4.62,0,0,1-1.83,3.7,10.41,10.41,0,0,1-12,.44,5.16,5.16,0,0,1-2.34-4.54C38.2,32.41,38.16,30.63,38.16,28.85Z"/><path class="cls-1" d="M108.76,40.4A9.34,9.34,0,1,1,117,26.56c.69,1.3.66,1.28-.76,1.37a3,3,0,0,1-2.9-1.25,5.9,5.9,0,0,0-7.42-1.39,6.53,6.53,0,0,0-3.18,7.39,6,6,0,0,0,4.79,4.72A5.85,5.85,0,0,0,113.75,35a4.51,4.51,0,0,1,3.38-.61c.48.29.1.62,0,.9A9.31,9.31,0,0,1,108.76,40.4Z"/><path class="cls-1" d="M127.53,40.4a9.35,9.35,0,1,1,7.79-14.48,8.33,8.33,0,0,1,.52.93c.2.4,0,.58-.4.58-1.39,0-2.68.18-3.83-1.17-1.73-2-5-2.23-7.3-.81a6.6,6.6,0,0,0-2.81,7.44,6.16,6.16,0,0,0,10.7,2.45,5.89,5.89,0,0,1,3.47-.47c.48.32,0,.63-.11.88A9.27,9.27,0,0,1,127.53,40.4Z"/><path class="cls-1" d="M40.25,17.55a7,7,0,0,1-6.89,1.65c-3.17-.74-4.9-3.42-4.66-7A6.19,6.19,0,0,1,34.17,6.1c2.16-.24,4.28-.12,6.05,1.4a3.83,3.83,0,0,1,1.19,1.61c.14.39.68,1,.09,1.2s-1.37.45-1.9-.37A4.88,4.88,0,0,0,33.18,8.2a5.13,5.13,0,0,0-2.43,5.69,4.32,4.32,0,0,0,4.18,3.83c2.46.19,4.37-.81,5.11-2.63.31-.77.36-1.28-.75-1.17-.82.08-1.66,0-2.49,0-.63,0-.69-.35-.69-.84s0-.87.66-.87q2.31,0,4.63,0c.65,0,.65.42.65.88,0,1.7,0,3.4,0,5.1,0,.4.16.9-.55.95s-.94-.2-1-.84A3.47,3.47,0,0,0,40.25,17.55Z"/><path class="cls-1" d="M9.42,19.43a7.5,7.5,0,0,1-3.58-.69,3.73,3.73,0,0,1-2.19-2.91c-.05-.35-.33-.9.32-.91s1.19-.39,1.58.36a4.58,4.58,0,0,0,6.27,2A1.83,1.83,0,0,0,13,15.55,1.61,1.61,0,0,0,11.6,14c-1.69-.39-3.43-.59-5.11-1A3.14,3.14,0,0,1,4.36,8.23C5.47,6.17,7.46,6,9.5,6s3.88.52,4.77,2.64c.18.43.59,1.11-.06,1.32s-1.42.49-1.76-.56c-.69-2.14-4.84-2.08-5.93-1a1.53,1.53,0,0,0,.71,2.74c1.33.37,2.71.53,4.07.8a8.76,8.76,0,0,1,1.38.34,3,3,0,0,1,2.26,2.49,3.62,3.62,0,0,1-1.54,3.62A6.68,6.68,0,0,1,9.42,19.43Z"/><path class="cls-1" d="M92.47,19.43a7.16,7.16,0,0,1-3-.57,3.65,3.65,0,0,1-2.34-2.64c-.09-.43-.58-1.11.16-1.28s1.54-.48,1.75.73a2.18,2.18,0,0,0,1.45,1.61,6.16,6.16,0,0,0,4.41.15,1.89,1.89,0,0,0,1.47-1.81c0-1-.71-1.48-1.57-1.67-1.39-.31-2.8-.5-4.2-.78-2.39-.48-3.46-1.73-3.23-3.76a3.38,3.38,0,0,1,2.4-3,8,8,0,0,1,5.8.13A3.51,3.51,0,0,1,97.74,9c.11.38.39,1-.24,1.07s-1.16.36-1.59-.32A4.15,4.15,0,0,0,90.62,8,1.82,1.82,0,0,0,89.3,9.79c0,.91.71,1.31,1.47,1.48,1.35.3,2.72.5,4.08.76,2.3.44,3.41,1.44,3.46,3.11.06,2.14-1.08,3.51-3.36,4.08A10.42,10.42,0,0,1,92.47,19.43Z"/><path class="cls-1" d="M16.58,12.68c0-1.78,0-3.56,0-5.34,0-.73.14-1.05,1-1,2.81,0,5.62,0,8.42,0,.58,0,1,.05,1,.8s-.31.93-1,.92c-2.14,0-4.27,0-6.41,0-.77,0-1,.24-1,1,.08,3.13-.4,2.58,2.51,2.63,1.46,0,2.93,0,4.39,0,.56,0,1.2-.18,1.21.81s-.57.86-1.17.86c-1.9,0-3.8,0-5.7,0-.87,0-1.26.18-1.26,1.17,0,2.95,0,2.95,2.89,2.95,1.58,0,3.16,0,4.75,0,.6,0,1,.08,1,.82s-.2.9-.88.9q-4.39,0-8.78,0c-.7,0-.87-.26-.86-.9C16.6,16.4,16.58,14.54,16.58,12.68Z"/><path class="cls-1" d="M56.26,11.11c0,1.19,0,2.37,0,3.56a4.41,4.41,0,0,1-3.91,4.63,10.34,10.34,0,0,1-3.66,0,4.39,4.39,0,0,1-4-4.55c-.07-2.53,0-5.06,0-7.59,0-.83.43-.83,1-.86s1,.19,1,.93c0,2.33,0,4.67,0,7s1.16,3.48,3.76,3.49,3.89-1.06,3.91-3.49,0-4.67,0-7c0-.75.27-.94,1-.93s1,.09,1,.89C56.22,8.5,56.26,9.8,56.26,11.11Z"/><path class="cls-1" d="M56.61,30.91c0-2.57,0-5.15,0-7.72,0-1,.32-1.38,1.29-1.23a1.56,1.56,0,0,0,.47,0c1.12-.18,1.48.24,1.47,1.41q-.1,7.72,0,15.44c0,1.07-.33,1.44-1.35,1.29a2.53,2.53,0,0,0-.71,0c-.87.12-1.18-.22-1.16-1.12C56.64,36.3,56.61,33.61,56.61,30.91Z"/><path class="cls-1" d="M137.48,30.95c0-2.61,0-5.22,0-7.83,0-.84.18-1.29,1.11-1.16a3.68,3.68,0,0,0,.95,0c.85-.1,1.07.28,1.06,1.09q0,8,0,15.9c0,.85-.19,1.2-1.12,1.17-2.36-.08-2,.21-2-1.93C137.46,35.78,137.48,33.36,137.48,30.95Z"/><path class="cls-1" d="M171.27,43.09l-10.7.06a1.93,1.93,0,0,1-1.72.57c-3,0-6,.06-9,0-3.41.09-6.82,0-10.23.06-2.61-.09-5.22.07-7.83-.06-2.07.07-4.13.07-6.2,0q-3.92.11-7.84,0c-2.93.07-5.85.08-8.78,0-2.38.07-4.75.07-7.13,0-2,.06-4,.06-6,0-1.54-.14-3.07.06-4.61,0-1.7,0-3.4,0-5.1-.05q-5.93.1-11.87,0-4.88.1-9.75,0-5.94.1-11.87,0c-3.48.07-7,.08-10.45,0q-4.64.1-9.27,0c-3.4.07-6.81.07-10.21,0q-4.76.1-9.52,0c-2.65.08-5.29,0-7.94,0a2,2,0,0,1-1.75-.53c.55-.47,1.21-.28,1.83-.28H92.56l76.84,0A3.56,3.56,0,0,1,171.27,43.09Z"/><path class="cls-1" d="M52.69,43.18H64.57a1.28,1.28,0,0,1,0,2.08H52.69A1.29,1.29,0,0,1,52.69,43.18Z"/><path class="cls-1" d="M74.31,43.17H86.19a1.28,1.28,0,0,1,0,2.08H74.32A1.29,1.29,0,0,1,74.31,43.17Z"/><path class="cls-1" d="M139.68,43.19c3.4-.17,6.79-.09,10.19,0a1.31,1.31,0,0,1,0,2.1H138.51C138.05,44.07,139,43.71,139.68,43.19Z"/><path class="cls-1" d="M149.88,45.25q0-1,0-2.1h10.69q0,1,0,2.09Z"/><path class="cls-1" d="M52.69,43.18v2.08H42.24a1.29,1.29,0,0,1,0-2.08Z"/><path class="cls-1" d="M22.75,43.17H33a1.29,1.29,0,0,1,0,2.08H22.75A1.29,1.29,0,0,1,22.75,43.17Z"/><path class="cls-1" d="M74.31,43.17v2.08H64.57q0-1,0-2.08Z"/><path class="cls-1" d="M3.56,43.2l9.69,0a1.29,1.29,0,0,1,0,2.08c-2.74,0-5.49,0-8.23.07-1.22,0-1.66-.37-1.48-1.53A5.15,5.15,0,0,0,3.56,43.2Z"/><path class="cls-1" d="M91.76,52.08c0-1,0-1.9,0-2.85,0-.66.27-.92.92-.9,1.19,0,2.38,0,3.56,0,.33,0,.8-.09.77.46s-.43.4-.73.41c-.79,0-1.59.05-2.37,0s-1.08.33-1.07,1.13.12,1.22,1,1.15c.75-.06,1.5,0,2.26,0,.29,0,.57.06.6.42s-.31.48-.64.48c-.83,0-1.66,0-2.49,0-1,0-.71.76-.72,1.28S92.6,55,93.6,55s1.82,0,2.73,0c.3,0,.7,0,.69.43s-.4.44-.71.44c-1.23,0-2.45,0-3.68,0-.69,0-.89-.34-.87-1C91.77,54,91.76,53,91.76,52.08Z"/><path class="cls-1" d="M127.81,52.07c0-.83.06-1.67,0-2.49-.09-1,.35-1.32,1.3-1.25s1.82,0,2.73,0c.4,0,1.14-.27,1.1.45s-.74.38-1.17.42a10.25,10.25,0,0,1-1.66,0c-.85-.07-1.2.24-1.2,1.14s.31,1.2,1.18,1.14c.71-.05,1.42,0,2.14,0,.32,0,.52.15.5.51s-.27.37-.51.37a20.42,20.42,0,0,1-2.26,0c-1-.09-1,.51-1,1.25s0,1.45,1.08,1.35a21.82,21.82,0,0,1,2.37,0c.31,0,.7,0,.68.44s-.39.44-.7.44c-1.23,0-2.46,0-3.68,0-.69,0-.89-.34-.87-1C127.83,54,127.82,53,127.81,52.07Z"/><path class="cls-1" d="M13.25,45.25V43.17h9.5v2.08Z"/><path class="cls-1" d="M33,45.25q0-1,0-2.08h9.27q0,1,0,2.08Z"/><path class="cls-1" d="M73.84,51.23c0-.71,0-1.42,0-2.14,0-.37,0-.74.54-.72s.53.4.53.75c0,1.27,0,2.53,0,3.8,0,1.51.7,2.2,2,2.18s1.85-.68,1.88-2.2c0-1.23,0-2.45,0-3.68,0-.39,0-.85.55-.85s.55.46.55.85c0,1.35.06,2.69,0,4-.11,2-1.16,2.81-3.24,2.75a2.61,2.61,0,0,1-2.87-2.89C73.83,52.5,73.84,51.87,73.84,51.23Z"/><path class="cls-1" d="M86.19,45.25q0-1,0-2.08l9.8,0c.31,1,.08,1.42-1.2,2Z"/><path class="cls-1" d="M109,43.17h8.79a1.29,1.29,0,0,1,0,2.08H109A1.3,1.3,0,0,1,109,43.17Z"/><path class="cls-1" d="M108,52.35c0-3.23,2.33-5,4.93-4a2.46,2.46,0,0,1,1.5,1.42c.1.26.39.61-.09.79a.6.6,0,0,1-.81-.3,2,2,0,0,0-1.28-1.15,2.36,2.36,0,0,0-2.92,1.39,4,4,0,0,0,0,3,2.21,2.21,0,0,0,2.15,1.57,2,2,0,0,0,2.08-1.42c.15-.42.31-.93.87-.68s.2.77.07,1.13c-.52,1.4-1.83,2.05-3.58,1.85a3.21,3.21,0,0,1-2.83-2.91A7.17,7.17,0,0,1,108,52.35Z"/><path class="cls-1" d="M117.8,45.25V43.17h7.84a1.29,1.29,0,0,1,0,2.08Z"/><path class="cls-1" d="M139.68,43.19a9.83,9.83,0,0,1-1.18,2.06h-6.69a1.3,1.3,0,0,1,0-2.08Z"/><path class="cls-1" d="M158.59,54.42c.59-1.75,1.14-3.39,1.7-5a3.92,3.92,0,0,1,.37-.86c.14-.22.42-.19.65-.14s.27.35.2.56c-.76,2.16-1.54,4.31-2.3,6.47-.13.37-.41.43-.75.45-.49,0-.69-.27-.83-.68-.69-2-1.4-3.94-2.08-5.92-.1-.29-.44-.7.13-.87s.73.08.88.54c.46,1.43.93,2.85,1.42,4.27A2.3,2.3,0,0,0,158.59,54.42Z"/><path class="cls-1" d="M149.49,54.3l1.58-4.69c.1-.3.2-.6.32-.89a.59.59,0,0,1,.8-.31c.42.13.23.43.14.68-.72,2-1.46,4.09-2.17,6.15a.83.83,0,0,1-.86.65c-.5,0-.68-.31-.82-.71-.69-2-1.4-3.95-2.07-5.93-.09-.27-.46-.69.13-.86s.74.1.89.55c.45,1.39.92,2.78,1.38,4.16.14.41.28.81.43,1.22Z"/><path class="cls-1" d="M109,43.17v2.09h-7.13a1.3,1.3,0,0,1,0-2.09Z"/><path class="cls-1" d="M101.88,43.16v2.09H94.8l1.2-2C98,43,99.92,43.13,101.88,43.16Z"/><path class="cls-1" d="M124.07,48.35h2.37c.28,0,.58,0,.58.42s-.29.4-.57.45c-1.85.34-1.85.34-1.85,2.27,0,1.18,0,2.37,0,3.55,0,.42,0,.83-.62.79s-.47-.44-.47-.79c0-1.5-.07-3,0-4.5.06-1.08-.35-1.44-1.36-1.31a3.1,3.1,0,0,1-.59,0c-.31,0-.55-.15-.51-.51s.27-.36.52-.36Z"/><path class="cls-1" d="M69.56,52.6q0-.65,0-1.3c0-1.82,0-1.83-1.77-2.06-.32,0-.68,0-.66-.49s.42-.4.72-.4c1.5,0,3,0,4.5,0,.29,0,.7-.08.73.39s-.43.46-.76.49c-1.65.16-1.65.16-1.65,1.87,0,1.22,0,2.45,0,3.67,0,.43.17,1.08-.58,1.05s-.47-.69-.5-1.1C69.53,54,69.56,53.31,69.56,52.6Z"/><path class="cls-1" d="M131.82,43.17v2.08h-6.18V43.17Z"/><path class="cls-1" d="M106.78,52.18c0,1,0,2,0,3,0,.38-.08.72-.57.72s-.52-.37-.52-.74q0-3,0-6c0-.37,0-.73.55-.72s.54.38.54.74C106.78,50.13,106.78,51.16,106.78,52.18Z"/><path class="cls-1" d="M162.51,52.18c0-1,0-2,0-3.07,0-.37,0-.73.55-.74s.57.33.57.71q0,3,0,6c0,.38-.06.73-.55.74s-.57-.32-.57-.71Q162.51,53.66,162.51,52.18Z"/><path class="cls-1" d="M154.42,52.16q0,1.48,0,3c0,.38,0,.74-.56.71s-.46-.37-.46-.69q0-3,0-6c0-.36,0-.74.55-.71s.45.38.45.69C154.43,50.11,154.42,51.14,154.42,52.16Z"/><path class="cls-1" d="M78.26,46.35a6,6,0,0,1-.54.65c-.36.32-.56.92-1.19.8-.17,0-.15-.27-.07-.4.32-.51.46-1.23,1.3-1.15C77.87,46.25,78,46.29,78.26,46.35Z"/><path class="cls-1" d="M107.42,46.35c-.16.56-.59.82-.88,1.18-.17.21-.43.44-.7.2s0-.5.13-.72C106.26,46.45,106.63,46,107.42,46.35Z"/><path class="cls-1" d="M35.84,37.52a3.58,3.58,0,0,0-.36-.31c-.74-.52-.77-1-.32-1.86a9.26,9.26,0,0,0-8.28-13.62,9.1,9.1,0,0,0-8.75,5.91A9.37,9.37,0,0,0,31.25,39.33c.62-.33,1.29-1.08,1.8-1s1.08,1,1.63,1.47c.2.19.29.57.75.35C36.76,39.52,36.93,38.53,35.84,37.52Zm-8.91,0a6.26,6.26,0,0,1-6.34-6.41,6.29,6.29,0,1,1,12.57,0A6.3,6.3,0,0,1,26.93,37.49Z"/><path class="cls-1" d="M89.22,21.73a9.34,9.34,0,1,0,9.29,9.48A9.27,9.27,0,0,0,89.22,21.73Zm0,15.76a6.25,6.25,0,0,1-6.27-6.37,6.32,6.32,0,0,1,6.27-6.53,6.39,6.39,0,0,1,6.28,6.53A6.31,6.31,0,0,1,89.18,37.49Z"/><path class="cls-1" d="M159.13,39c-2.31-5.37-4.61-10.75-6.83-16.16-.46-1.13-1.25-.84-2-.87s-1.42-.11-1.8.87c-.91,2.4-2,4.74-3,7.11-1.29,3.06-2.6,6.11-3.87,9.17-.12.29-.67.78.17,1,2,.45,2.88,0,3.69-1.91.45-1.05.67-2.39,1.45-3.06s2.28-.12,3.45-.15,2.48-.37,3.37.1,1,2,1.47,3c.89,2,.87,2,3.15,2C159.4,40.14,159.51,39.88,159.13,39Zm-6.55-6.78h-3.76c-.34,0-.81.06-.59-.53.67-1.83,1.37-3.65,2.17-5.81.74,2,1.36,3.61,2,5.25A1.68,1.68,0,0,1,152.58,32.22Z"/><path class="cls-1" d="M68.67,12.88c1.65-1.3,2.14-2.77,1.53-4.48C69.69,7,68.56,6.32,66.47,6.32s-4.35,0-6.52,0c-.71,0-1,.19-1,.93q0,5.51,0,11c0,.77.32.92,1,.91s1.05-.07,1-.89c-.06-1.22,0-2.45,0-3.67,0-.67.24-.91.9-.89,1.34,0,2.69,0,4,0a2,2,0,0,1,2.26,1.94,12.72,12.72,0,0,1,.18,1.65c.11,2,.16,2,2.29,1.72C69.71,17.08,71,14.5,68.67,12.88ZM66.51,12H63.91c-3.2,0-3.18,0-2.95-3.2,0-.63.28-.81.87-.8,1.54,0,3.08,0,4.62,0a1.86,1.86,0,0,1,2,1.88A1.91,1.91,0,0,1,66.51,12Z"/><path class="cls-1" d="M79,6c-4.22,0-6.8,2.22-7.18,6.29a6.34,6.34,0,0,0,4.77,6.89c3.95,1,7.61-.43,8.91-3.52a6.53,6.53,0,0,0,.24-.67C87.18,10.07,84.15,6,79,6Zm-.1,11.74c-3.14,0-5.11-1.92-5.13-5s2-5.06,5.21-5,5.13,2,5.11,5.11S82,17.74,78.87,17.73Z"/><path class="cls-1" d="M87,48.34c-.51,0-1,0-1.54,0-.86-.08-1.11.32-1.07,1.11s0,1.82,0,2.72c0,.39,0,.79,0,1.18.08,2.83-.59,2.58,2.72,2.51,2.44-.05,3.63-1.47,3.56-4C90.61,49.47,89.44,48.36,87,48.34Zm2.19,5.45C88.63,54.91,87.53,55,86.42,55c-.74,0-1-.29-.94-1s0-1.27,0-1.9a5.38,5.38,0,0,1,0-1.07c.12-.6-.43-1.42.48-1.76a3,3,0,0,1,3.13.85A3.78,3.78,0,0,1,89.18,53.79Z"/><path class="cls-1" d="M171.1,55.38c-.22-.88,0-1.87-.54-2.65-.32-.46-.2-.68.08-1.1A2,2,0,0,0,169,48.35c-.95,0-1.9,0-2.85,0-.74,0-1,.3-1,1,0,.95,0,1.9,0,2.85s0,1.82,0,2.73c0,.42-.08,1,.59.93s.47-.52.49-.89,0-1,0-1.54.15-.75.67-.74c2,0,3-.39,3,2.27a1.57,1.57,0,0,0,.17.68c.15.29.46.27.73.22S171.15,55.6,171.1,55.38Zm-2-3.74a9.86,9.86,0,0,1-2.23.06c-.88-.08-.51-.83-.54-1.3s-.27-1.1.55-1.18c.35,0,.71,0,1.06,0v0c.35,0,.71,0,1.05.08a1.13,1.13,0,0,1,1,1.21A1.09,1.09,0,0,1,169.06,51.64Z"/><path class="cls-1" d="M104.26,50.43c-.57-1.79-2.61-2.68-5.33-2-1.36.33-.41,1.67-.64,2.52a4.58,4.58,0,0,0,0,1.18c0,.59,0,1.18,0,1.78,0,2.12-.36,2,2.05,2C103.67,55.87,105.27,53.63,104.26,50.43Zm-1.32,3.45c-.61,1.09-1.72,1.1-2.82,1.12-.69,0-.9-.29-.87-.93s0-1.26,0-1.9a4.82,4.82,0,0,1,0-1.06c.14-.62-.47-1.51.53-1.83a2.79,2.79,0,0,1,3.25,1.06A3.83,3.83,0,0,1,102.95,53.89Z"/><path class="cls-1" d="M143.08,55.25l-2.5-6.41A.88.88,0,0,0,139,49c-.8,2.07-1.61,4.13-2.41,6.2-.09.23-.33.54.13.67a.62.62,0,0,0,.81-.32c.18-.39.33-.81.49-1.21s.25-.68.71-.67a10.32,10.32,0,0,1,2.47.1c.57.16.53,1,.77,1.53.16.35.33.63.77.6.24,0,.49,0,.47-.37C143.12,55.4,143.1,55.32,143.08,55.25Zm-3.5-2.54c-.8,0-1-.28-.67-1,.24-.54.41-1.11.62-1.67a2.94,2.94,0,0,1,.32-.44c.27.71.49,1.26.68,1.81C141,52.64,140.88,52.72,139.58,52.71Z"/><path class="cls-1" d="M121.9,55.37c0-.08-.07-.23-.13-.38-.76-2-1.53-3.9-2.29-5.85-.16-.42-.32-.78-.88-.79s-.78.41-1,.86c-.73,1.88-1.48,3.75-2.19,5.64-.12.31-.55.76.08,1s.81-.25.89-.7c.24-1.32,1.05-1.58,2.29-1.55,1,0,1.66.22,1.86,1.29a2,2,0,0,0,.4.85.68.68,0,0,0,.78.11C121.9,55.77,122,55.61,121.9,55.37Zm-3.26-2.66c-1.27,0-1.29,0-.87-1.23.2-.58.42-1.15.63-1.72l.3,0c.23.62.44,1.25.7,1.85C119.76,52.46,119.53,52.74,118.63,52.71Z"/></svg>