<svg id="Capa_9" data-name="Capa 9" xmlns="http://www.w3.org/2000/svg" viewBox="0 0 515 131.18"><defs><style>.cls-1{fill:#e15a1c;}.cls-2{fill:#3b3b3b;}.cls-3{fill:#3c3c3c;}</style></defs><title>spark_apache_logo</title><path class="cls-1" d="M328.09,4.49c2.71.58,4.36,2.5,5.74,4.69,3.1,4.91,6,9.84,8.93,14.78l.24.4c.48.79.71.87,1.59.65l7.09-1.89,15.1-4a9.1,9.1,0,0,1,4.48-.09c3,.72,4.3,2.9,3.49,6a11.42,11.42,0,0,1-2.62,4.41L357.25,46.91c-.87,1-.87,1.09-.26,2.23l8.73,16.59a11.22,11.22,0,0,1,1.38,3.79,7.1,7.1,0,0,1-6.06,8q-.32,0-.65.06a13.26,13.26,0,0,1-4.63-.63l-14.1-4.29a1.1,1.1,0,0,1-.87-1c-.52-3.09-1-6.17-1.57-9.26-.1-.63-.07-.66.54-.49L354,65.88h.05c.24,0,.55.29.72.09s-.1-.5-.22-.73l-5.49-10.47-3.21-6.11c-.45-.87-.42-1.07.19-1.79l13.4-15.71a2.4,2.4,0,0,0,.76-1.24l-4,1-16.68,4.48c-.94.25-1,.21-1.56-.65l-9.29-15.45c-.22-.37-.4-1-.79-.93s-.26.69-.33,1.06c-1.16,6.41-2.33,12.82-3.43,19.2a1.75,1.75,0,0,1-1.43,1.62q-9.64,3-19.26,6.11a1.59,1.59,0,0,0-1,.58l16.26,6.47a1.6,1.6,0,0,1-.62.56c-3.2,2.08-6.42,4.14-9.6,6.23a1.87,1.87,0,0,1-2,.16c-4-1.83-8.07-3.61-12.11-5.42a11.77,11.77,0,0,1-4.83-3.81c-2.4-3.32-1.75-7,1.57-9.31a20.3,20.3,0,0,1,5.65-2.46c6-1.91,12.08-3.85,18.13-5.74a1.75,1.75,0,0,0,1.36-1.6c1.11-6.36,2.23-12.72,3.4-19.06A12.77,12.77,0,0,1,323,6.52a7.1,7.1,0,0,1,3.6-2Z"/><path class="cls-2" d="M140,102c3.36-1.8,6.73-3.59,10.09-5.4.42-.23.56-.15.74.27.46,1.06,1,2.1,1.51,3.12,2.25,4.05,6.4,5.24,10.47,3.06a10.34,10.34,0,0,0,2-1.42,5.52,5.52,0,0,0,1-7.57,37.25,37.25,0,0,0-3.6-4.36c-2.79-3.1-5.68-6.11-8.42-9.25a14.84,14.84,0,0,1-3.88-11.12A11.41,11.41,0,0,1,151,64.95c2.51-5,6.18-8.86,11.57-10.74A18.53,18.53,0,0,1,175,53.94a14.47,14.47,0,0,1,6.39,4.67c.93,1.12,1.75,2.3,2.62,3.44.28.35.17.5-.13.72q-4.46,3.3-8.9,6.63c-.41.31-.55.19-.78-.18a15.28,15.28,0,0,0-2.78-3.69A6.66,6.66,0,0,0,164.87,64a5.92,5.92,0,0,0-3.11,2.11,3.71,3.71,0,0,0,.1,4.73,90.78,90.78,0,0,0,6,6.88c2.07,2.19,4.22,4.31,6.18,6.6,4.59,5.33,5.24,11.28,2.41,17.56-3.36,7.37-9.27,11.49-17.29,12.6a20.41,20.41,0,0,1-8.83-.64,13.78,13.78,0,0,1-8.73-7.86c-.59-1.27-1.1-2.62-1.65-3.88Z"/><path class="cls-2" d="M263.49,99.46c-.18,1.43-.34,2.71-.51,4-.34,2.62-.69,5.16-1,7.73a1.06,1.06,0,0,1-.65,1c-5.86,2.5-11.84,3.08-17.81.65a18.33,18.33,0,0,1-11.84-15c-1.09-7.16,1-13.52,5.53-19.1a25.91,25.91,0,0,1,15-9.39c4.88-1.1,9.71-1,14.27,1.34a19,19,0,0,1,10.75,14.75,25.44,25.44,0,0,1-.13,6.68c-.79,6.8-1.75,13.58-2.62,20.37-.07.54-.25.71-.79.71h-8.28c-.5,0-.71,0-.62-.66q1.21-9.13,2.36-18.28a18.23,18.23,0,0,0-.77-8.73A9.76,9.76,0,0,0,257,78.66a15.1,15.1,0,0,0-15.42,12.63,11,11,0,0,0,8.76,12.9q.42.08.84.13a13.76,13.76,0,0,0,10.19-2.93A22.4,22.4,0,0,0,263.49,99.46Z"/><path class="cls-2" d="M336.2,61c.21,1.16.39,2.2.58,3.23.38,2.16.72,4.36,1.13,6.48a1.75,1.75,0,0,1-.51,1.69Q331.86,78.15,326.34,84c-.64.67-.65.67-.1,1.42l19.2,26.91c.19.26.4.52.63.81a1.54,1.54,0,0,1-.71.08H334.08a1.89,1.89,0,0,1-1.75-1q-7.11-10.85-14.27-21.67l-.81-1.17c-.22,1.63-.42,3.12-.61,4.6l-1.94,14.72c-.17,1.3-.38,2.62-.51,3.9,0,.45-.22.53-.63.53H304c-.59,0-.63-.23-.57-.69.34-2.56.66-5.12,1-7.68q1-7.36,1.93-14.72l1.94-14.72c.53-4,1.07-8,1.58-12a2,2,0,0,1,.91-1.53c3.43-2.18,6.84-4.41,10.27-6.62a1.06,1.06,0,0,1,.73-.31l-3.38,25.59.17.09Z"/><path class="cls-2" d="M284.06,113.15H279.6c-.44,0-.58-.08-.51-.55.47-3.49.92-7,1.38-10.54q.9-7,1.82-13.91c.35-2.62.61-5.18,1.13-7.72a13.81,13.81,0,0,1,12.67-10.6c2.52-.09,5.05,0,7.58,0,.28,0,.5,0,.44.4q-.62,4.54-1.2,9.08c-.05.42-.21.55-.63.54h-5.11a3.86,3.86,0,0,0-4.19,3.5q0,.1,0,.19-1.66,12.54-3.3,25.08c-.17,1.36-.38,2.71-.53,4.08,0,.38-.18.49-.55.48C287.07,113.14,285.56,113.15,284.06,113.15Z"/><path class="cls-2" d="M259.82,55.42h-2c-.45,0-.62.15-.68.58-.18,1.2-.43,2.39-.6,3.59-.08.52-.22.87-.87.72a6.44,6.44,0,0,0-1.06,0c-.79,0-.78,0-.64-.8.26-1.44.51-2.89.77-4.36.38-2.14.78-4.27,1.13-6.42.08-.47.27-.57.69-.54a14.47,14.47,0,0,0,1.47,0c.36,0,.47.07.39.46-.25,1.27-.45,2.54-.7,3.81-.09.44,0,.54.45.54h4.22c.4,0,.53-.15.59-.52.2-1.26.46-2.51.65-3.75.07-.42.23-.56.65-.53s1,0,1.53,0c.32,0,.45.06.39.43q-1,5.63-1.93,11.22c-.06.36-.22.49-.58.46a11.15,11.15,0,0,0-1.47,0c-.46,0-.58-.11-.48-.57.24-1.23.43-2.47.67-3.69.1-.5,0-.65-.54-.63C261.19,55.46,260.51,55.42,259.82,55.42Z"/><path class="cls-2" d="M275.12,60.3H272.3c-.38,0-.52-.07-.45-.49q1-5.56,2-11.15c.05-.31.15-.47.52-.47h5.81c.38,0,.5.1.38.47a5,5,0,0,0-.1.58c-.26,1.41-.26,1.41-1.75,1.41H276.4c-.31,0-.45.1-.5.42a14.58,14.58,0,0,1-.27,1.5c-.09.37,0,.44.38.44h2.87c.4,0,.52.11.43.51s-.19,1-.25,1.5c0,.35-.23.45-.55.44h-2.87c-.4,0-.55.14-.59.52a10.75,10.75,0,0,1-.26,1.44c-.1.4.06.47.41.46h3.11c.51,0,.6.17.49.62a8.86,8.86,0,0,0-.24,1.39c0,.39-.23.46-.58.45C277,60.29,276.08,60.3,275.12,60.3Z"/><path class="cls-2" d="M248.41,51.47a3.64,3.64,0,0,0-3.36-.82,4.36,4.36,0,0,0-3.18,5,2.83,2.83,0,0,0,3.27,2.3l.22,0a4.94,4.94,0,0,0,2.06-.87c-.11,1-.2,1.86-.32,2.71,0,.24-.31.28-.51.34a5.4,5.4,0,0,1-5.64-.79,5.59,5.59,0,0,1-1.65-5.63A7.11,7.11,0,0,1,247,48.07l.35.05c1.4.31,1.43.36,1.22,1.75C248.54,50.38,248.49,50.86,248.41,51.47Z"/><path class="cls-3" d="M356,111.86c.48-1.22.87-2.31,1.33-3.4a1.2,1.2,0,0,1,1.35-.35c.12.1.09.25.09.38v4.22c0,.31-.1.41-.4.41s-.44-.12-.44-.45a28.37,28.37,0,0,0-.13-3.49l-.44,1.1c-.31.79-.61,1.56-.93,2.34-.09.22-.09.52-.45.52s-.38-.29-.47-.51c-.45-1.12-.87-2.24-1.34-3.4-.19.15-.15.31-.15.45v2.87c0,.29.07.58-.41.58s-.44-.26-.44-.57v-3.88c0-.24-.16-.64.3-.62s.94-.27,1.18.4c.32.92.71,1.82,1.06,2.73C355.77,111.41,355.85,111.59,356,111.86Z"/><path class="cls-2" d="M349.71,110.93v-1.64c0-.54-.16-.58-.58-.55a6.54,6.54,0,0,1-.76,0c-.24,0-.28-.17-.27-.37a.25.25,0,0,1,.21-.29h3.57c.2,0,.27.11.27.31s0,.31-.24.34h-.24c-1.13.05-1.13.05-1.13,1.21v2.76c0,.32-.09.45-.43.45s-.42-.17-.41-.47C349.72,112.11,349.71,111.52,349.71,110.93Z"/><path class="cls-2" d="M224.72,77.67c-4.59-6.71-11.09-9.55-19.11-8.85A26.74,26.74,0,0,0,182.2,90.26c-1.14,6.6-1.81,13.26-2.71,19.88-.72,5.24-1.37,10.55-2.08,15.83-.07.54,0,.72.6.72h8.28c.59,0,.77-.24.87-.78q1-7.42,1.95-14.84c.11-.87.14-.87.87-.37a20.52,20.52,0,0,0,12.08,3.57,26,26,0,0,0,3.73-.35,25.61,25.61,0,0,0,14.66-8c4.46-4.73,7.15-10.22,7.23-16.84C227.73,85,227,81.07,224.72,77.67Zm-7.63,16a14.64,14.64,0,0,1-12.37,10.64,11,11,0,0,1-12.78-8.84q0-.17-.06-.34c-.09-.58-.11-1.17-.14-1.48A15.09,15.09,0,0,1,203.44,79a11.21,11.21,0,0,1,12.22,4.36A11.35,11.35,0,0,1,217.09,93.62Z"/><path class="cls-2" d="M233.72,59.7c-.21-1-.38-2-.56-3-.48-2.62-1-5.31-1.44-8-.08-.44-.25-.58-.69-.55a10.9,10.9,0,0,1-1.64,0,.87.87,0,0,0-.87.54c-1.93,3.65-3.88,7.28-5.83,10.92a1.17,1.17,0,0,0-.24.64H225c.25,0,.33-.15.43-.33.31-.63.65-1.25,1-1.89a.57.57,0,0,1,.56-.32h3.34c.33,0,.45.13.49.43.08.58.19,1.16.25,1.75,0,.32.16.44.48.43a16.66,16.66,0,0,1,1.7,0C233.71,60.36,233.82,60.16,233.72,59.7Zm-3.78-4.43H228.2c-.24,0-.32-.08-.2-.31l1.65-3.26h.12c.17,1.07.32,2.14.5,3.21,0,.29-.07.38-.31.38Z"/><path class="cls-2" d="M203.71,59.82q-1-5.57-2.07-11.19c-.06-.34-.22-.45-.55-.43a15.15,15.15,0,0,1-1.75,0,.87.87,0,0,0-.87.54c-1.94,3.67-3.9,7.31-5.86,11a.94.94,0,0,0-.21.59H195c.26,0,.31-.21.39-.38.31-.61.64-1.21.93-1.83a.56.56,0,0,1,.58-.38h3.34c.31,0,.45.09.49.42.06.57.17,1.12.24,1.68,0,.34.15.52.55.5a17.21,17.21,0,0,1,1.75,0C203.68,60.36,203.78,60.23,203.71,59.82ZM200,55.27h-1.82c-.21,0-.3-.09-.2-.29l1.65-3.27h.12l.52,3.27c0,.26-.1.29-.28.29Z"/><path class="cls-2" d="M215.67,48.2H212.5c-.57,0-.65.17-.7.6-.09.64-.22,1.27-.32,1.9-.53,3-1.06,6.11-1.61,9.11-.08.43.05.5.42.48h1.58c.35,0,.46-.11.52-.45.18-1.18.42-2.35.61-3.49.06-.36.2-.5.57-.48h1.7a4.11,4.11,0,0,0,3.82-3.26C219.74,50,218.33,48.22,215.67,48.2Zm-.2,5.18a7.18,7.18,0,0,1-1.63.07c-.24,0-.3-.12-.25-.34.13-.69.26-1.38.38-2.07a.38.38,0,0,1,.47-.38,4.29,4.29,0,0,0,.58,0h.24c.87,0,1.28.28,1.35,1A1.58,1.58,0,0,1,215.47,53.37Z"/></svg>