<svg id="Capa_5" data-name="Capa 5" xmlns="http://www.w3.org/2000/svg" viewBox="0 0 515 131.18"><defs><style>.cls-1{fill:#8d59a0;}.cls-2{fill:#221e20;}.cls-3{fill:#c33925;}.cls-4{fill:#f0c401;}.cls-5{fill:#abc814;}.cls-6{fill:#e74e11;}.cls-7{fill:#f0c502;}.cls-8{fill:#0ba4dd;}.cls-9{fill:#acc917;}.cls-10{fill:#f0c504;}.cls-11{fill:#e74f12;}.cls-12{fill:#c33926;}.cls-13{fill:#8e59a0;}.cls-14{fill:#c33a27;}.cls-15{fill:#e85013;}.cls-16{fill:#0da5de;}.cls-17{fill:#acc918;}.cls-18{fill:#0fa6de;}.cls-19{fill:#c43d2a;}.cls-20{fill:#abc915;}.cls-21{fill:#905ca2;}.cls-22{fill:#8f5ba1;}.cls-23{fill:#f0c505;}.cls-24{fill:#13a7df;}.cls-25{fill:#8f5ca2;}.cls-26{fill:#f1c608;}.cls-27{fill:#acca19;}.cls-28{fill:#c43f2b;}.cls-29{fill:#e85216;}.cls-30{fill:#f1c609;}.cls-31{fill:#adca19;}.cls-32{fill:#905da2;}.cls-33{fill:#c94f3d;}.cls-34{fill:#b0cc24;}.cls-35{fill:#f1c607;}.cls-36{fill:#9767a8;}.cls-37{fill:#17a9e0;}.cls-38{fill:#e95a20;}.cls-39{fill:#3fb8e3;}.cls-40{fill:#8c589f;}</style></defs><title>striim_logo</title><path class="cls-1" d="M99.5,92.09c1.77-1.77,2.74-4.46,5.9-4.46a5.35,5.35,0,0,1,5.81,4.21,5.47,5.47,0,0,1-2.69,6.65,5.26,5.26,0,0,1-7-1.09c-.72-.76-1.31-1.6-1.94-2.4Z"/><path class="cls-2" d="M350.54,48.18c10.19-12.34,25.26-8.8,30.44,1.22a21.05,21.05,0,0,1,13.64-8.88,17.1,17.1,0,0,1,20.76,16.84c.25,9.39,0,18.74,0,28.13,0,2.57-1,4.21-3.66,4.21s-3.62-1.89-3.62-4.21V60.22a12,12,0,0,0-15.2-12.63,12.63,12.63,0,0,0-9.77,11.71c-.42,6-.25,12.08-.34,18.15v8.21c0,2.74-.93,4.21-3.62,4.21s-3.58-1.89-3.75-4.21V61.06c0-8.42-4.59-13.85-11.87-13.9a13.47,13.47,0,0,0-13.18,13.64V83.59a15.11,15.11,0,0,1,0,3.2,3.33,3.33,0,0,1-3.75,2.84l-.12,0a3.24,3.24,0,0,1-3.24-3.2,27.25,27.25,0,0,1,0-2.86V46.87c0-2.74-.34-6,3.66-6s3.71,3,3.71,5.68C350.37,46.91,350.42,47.29,350.54,48.18Z"/><path class="cls-2" d="M202.37,90.28a33.05,33.05,0,0,1-16.84-5.14c-2-1.22-3.49-2.86-1.89-5.22s3.41-1.6,5.31-.38a23.79,23.79,0,0,0,16.46,4.21,7.83,7.83,0,0,0,7.45-6.44c.34-3.33-1.22-5.52-5.6-7.2-3-1.14-6.11-1.94-9.14-2.91-1.35-.42-2.69-.88-4.21-1.43-6.48-2.69-9.47-6.95-8.93-12.63a13.85,13.85,0,0,1,12.21-12.34,30.78,30.78,0,0,1,18.65,3.07c2.11,1,3.66,2.61,2.36,5.09s-3.24,2-5.22.88a24.51,24.51,0,0,0-11.87-3.28,10.65,10.65,0,0,0-6,1.6,5.52,5.52,0,0,0,0,9.68,31.58,31.58,0,0,0,8.42,3.41,54,54,0,0,1,9,3.33,11.62,11.62,0,0,1,7.28,10.48,13.22,13.22,0,0,1-6.91,12.38A19.54,19.54,0,0,1,202.37,90.28Z"/><path class="cls-2" d="M233.44,64.18V51c0-2.27-.21-3.66-3-3.28a3.54,3.54,0,0,1-3.83-2A3.07,3.07,0,0,1,230,41.48c3,.21,3.62-1,3.41-3.62s0-5,0-7.45,1.09-4,3.58-3.92a3.41,3.41,0,0,1,3.66,3.87v8.88c0,1.73.55,2.23,2.23,2.19h9.26c2.32,0,4.21.59,4.21,3.2s-2,3.24-4.21,3.24h-8.88c-1.68,0-2.53,0-2.48,2.23v25.6a7.33,7.33,0,0,0,9.47,7.62,25.6,25.6,0,0,1,2.82-.46,3,3,0,0,1,1.56,5.68,13.77,13.77,0,0,1-21.05-10.4c-.25-4.63,0-9.26,0-13.85Z"/><path class="cls-2" d="M272.39,51.17a33.69,33.69,0,0,1,9.18-8.42,13.94,13.94,0,0,1,7.12-1.94,3.2,3.2,0,0,1,3.49,3.24,3.49,3.49,0,0,1-2.62,4.19l-.08,0c-13.31,4.21-17.05,9.22-17.05,23v13.9c0,2.44-.59,4.72-3.58,4.72s-3.83-2.06-3.79-4.8V45.94c0-2.57.67-4.63,3.54-4.76s3.79,1.94,3.83,4.51S272.39,49.23,272.39,51.17Z"/><path class="cls-2" d="M322,65V45.44c0-2.57.72-4.63,3.62-4.59s3.66,2,3.66,4.63q0,19.75,0,39.5c0,2.57-.67,4.63-3.66,4.59s-3.66-2-3.62-4.59C322,78.28,322,71.67,322,65Z"/><path class="cls-2" d="M300.56,65V45.44c0-2.61.72-4.63,3.62-4.59s3.66,2.06,3.66,4.63V85c0,2.57-.72,4.63-3.66,4.59s-3.66-2-3.62-4.63C300.6,78.28,300.56,71.63,300.56,65Z"/><path class="cls-3" d="M162.37,119.21a6.48,6.48,0,1,1-6.48-6.49H156a6.19,6.19,0,0,1,6.4,6Q162.38,119,162.37,119.21Z"/><path class="cls-4" d="M128.85,114.75a6.32,6.32,0,0,1-12.63,0,6.57,6.57,0,0,1,6.65-6.48h0a6.23,6.23,0,0,1,6,6.47Z"/><path class="cls-5" d="M162.24,21.31a6.4,6.4,0,0,1-6.11,6.53,6.19,6.19,0,0,1-6.44-5.93q0-.11,0-.22A6.32,6.32,0,0,1,155.62,15H156a6.11,6.11,0,0,1,6.28,5.93Q162.25,21.12,162.24,21.31Z"/><path class="cls-6" d="M128.68,5.77a6.19,6.19,0,0,1,3.75,0,5.39,5.39,0,0,1,4.05,6.46q-.06.25-.14.49a5.43,5.43,0,0,1-5.47,4.67,5.31,5.31,0,0,1-5.94-4.51,5.68,5.68,0,0,1,3.74-7.11Z"/><path class="cls-3" d="M167.08,113.15a5.43,5.43,0,0,1-5.43-5.39,5.6,5.6,0,0,1,5.38-5.81h0a5.52,5.52,0,0,1,5.68,5.34q0,.13,0,.26A5.73,5.73,0,0,1,167.08,113.15Z"/><path class="cls-7" d="M142.45,112.52a5.56,5.56,0,0,1-5.3,5.81H137a5.68,5.68,0,0,1,.17-11.2,5.22,5.22,0,0,1,5.27,5.18Q142.45,112.41,142.45,112.52Z"/><path class="cls-6" d="M118.24,14.49a5.39,5.39,0,0,1,5.47,5.3h0a5.73,5.73,0,0,1-5.47,6h-.17a5.52,5.52,0,0,1-5.09-5.6A5.56,5.56,0,0,1,118.24,14.49Z"/><path class="cls-8" d="M176.6,45.4a5.35,5.35,0,1,1-5.39-5.47h.08a5.14,5.14,0,0,1,5.31,5.47Z"/><path class="cls-9" d="M141.27,17.4A5.35,5.35,0,0,1,141,28a5.22,5.22,0,0,1-5-5.39A5.56,5.56,0,0,1,141.27,17.4Z"/><path class="cls-10" d="M148.09,111.34a5,5,0,0,1-5-4.93h0a4.76,4.76,0,0,1,4.5-5h.3a4.67,4.67,0,0,1,5.05,4.8A5.22,5.22,0,0,1,148.09,111.34Z"/><path class="cls-11" d="M112.68,30a4.8,4.8,0,0,1-9.6,0h0a5,5,0,0,1,5-4.93A4.88,4.88,0,0,1,112.68,30Z"/><path class="cls-12" d="M176.85,94.49a4.93,4.93,0,0,1-4.63,4.93,4.84,4.84,0,0,1,0-9.68,4.63,4.63,0,0,1,4.63,4.63S176.85,94.45,176.85,94.49Z"/><path class="cls-13" d="M121.69,98.71a4.55,4.55,0,0,1-4.8,4.21,4.21,4.21,0,0,1-4.21-4.76,4.76,4.76,0,0,1,4.8-4.63,4.63,4.63,0,0,1,4.23,5Q121.7,98.62,121.69,98.71Z"/><path class="cls-14" d="M174.45,82.58a4.21,4.21,0,0,1-4.21,3.92A4,4,0,0,1,166,82.07a4.46,4.46,0,0,1,4.11-4.79h.43a4.63,4.63,0,0,1,3.88,5.28Z"/><path class="cls-15" d="M308.39,26.79a3.87,3.87,0,0,1-4.21,4.59,4,4,0,0,1-4.42-4.21A4,4,0,0,1,304,22.58a3.83,3.83,0,0,1,4.42,4.21Z"/><path class="cls-16" d="M325.49,31.33c-2.74-.38-4.21-1.68-4.21-4.63a4.21,4.21,0,0,1,4.21-4.22h.22a3.92,3.92,0,0,1,4.13,4.63C329.78,30.07,328.1,31.33,325.49,31.33Z"/><path class="cls-6" d="M109.14,42.16a4.41,4.41,0,1,1-8.82-.12q0-.11,0-.22a4.21,4.21,0,0,1,4.19-4.24l.49,0a4.21,4.21,0,0,1,4.14,4.28Q109.15,42,109.14,42.16Z"/><path class="cls-16" d="M165.23,38.74c0,2.82-1.43,4.46-4.21,4.55a4.21,4.21,0,0,1-4.42-4q0-.11,0-.22a4.21,4.21,0,0,1,3.77-4.61l.44,0a4,4,0,0,1,4.42,4.29Z"/><path class="cls-11" d="M110.32,53.69c-.38,2.48-1.6,4.21-4.21,4.21a3.87,3.87,0,0,1-4.21-4.21,4,4,0,0,1,4.21-4.21C108.76,49.31,110.11,51,110.32,53.69Z"/><path class="cls-9" d="M135.25,30.32A3.92,3.92,0,0,1,131,34.53a4.21,4.21,0,0,1-4.21-4.21A4.55,4.55,0,0,1,131,25.69a4.21,4.21,0,0,1,4.21,4.63Z"/><path class="cls-10" d="M154.66,101.53a3.62,3.62,0,0,1-3.92-4.21,4,4,0,1,1,7.87,0,3.83,3.83,0,0,1-4,4.21Z"/><path class="cls-17" d="M124.72,35.17c2.36.42,3.87,1.73,3.79,4.21a3.71,3.71,0,0,1-4.21,4,3.49,3.49,0,0,1-3.66-3.87,4,4,0,0,1,3.6-4.28Z"/><path class="cls-18" d="M150.53,34.58a3.66,3.66,0,0,1,3.68,3.65q0,.15,0,.31a3.54,3.54,0,0,1-3.92,3.66,3.41,3.41,0,0,1-3.62-3.71,3.75,3.75,0,0,1,3.57-3.91Z"/><path class="cls-19" d="M163,71.76a3.41,3.41,0,0,1,3.75,3.49,3.45,3.45,0,0,1-3.58,4,3.37,3.37,0,0,1-3.66-3.49,3.54,3.54,0,0,1,3.09-3.93Z"/><path class="cls-15" d="M116.93,60c-.55,2.74-2,3.92-4.21,3.54a3.33,3.33,0,0,1-2.95-4.21A3.41,3.41,0,0,1,114,56.18,3.45,3.45,0,0,1,116.93,60Z"/><path class="cls-20" d="M123.25,45a3.37,3.37,0,0,1,3.62,3.49,3.28,3.28,0,0,1-3.41,3.66,3.2,3.2,0,0,1-3.58-3.45,3.45,3.45,0,0,1,3.19-3.7Z"/><path class="cls-21" d="M139.46,94.87c-.29,2.11-1.47,3.58-3.66,3.45a3.33,3.33,0,0,1-3.37-3.79,3.28,3.28,0,0,1,3.83-3.28C138.24,91.38,139.38,92.73,139.46,94.87Z"/><path class="cls-22" d="M128,94.87a3.41,3.41,0,0,1,3.33,3.83,3.33,3.33,0,0,1-3.83,3.33,3.16,3.16,0,0,1-3.07-3.62C124.39,96.09,125.61,95,128,94.87Z"/><path class="cls-18" d="M145.65,42.28c-.38,2-1.31,3.58-3.66,3.58a3.12,3.12,0,0,1-3.41-3.28,3.33,3.33,0,0,1,3.33-3.83C144.22,38.58,145.31,40.13,145.65,42.28Z"/><path class="cls-23" d="M154,84.39c2.23.34,3.58,1.47,3.54,3.54A3.24,3.24,0,0,1,154,91.5c-2.36,0-3.37-1.52-3.28-3.75S152.3,84.77,154,84.39Z"/><path class="cls-24" d="M141.69,49.15c-.25,1.94-1.31,3-3.12,2.86a2.61,2.61,0,0,1-2.53-3.2,2.83,2.83,0,0,1,5.64.34Z"/><path class="cls-25" d="M139.33,85a2.65,2.65,0,0,1,2.57,3.2,2.61,2.61,0,0,1-3.12,2.57,2.44,2.44,0,0,1-2.36-2.91A2.74,2.74,0,0,1,139,85Z"/><path class="cls-26" d="M151.12,77.86A2.69,2.69,0,0,1,154,80.38s0,.06,0,.09a2.57,2.57,0,0,1-2.65,3.07,2.4,2.4,0,0,1-2.78-2.48,2.78,2.78,0,0,1,2.32-3.17Z"/><path class="cls-27" d="M129.52,56.85a2.78,2.78,0,0,1-5.56,0,2.65,2.65,0,0,1,3-2.78,2.57,2.57,0,0,1,2.58,2.56Q129.53,56.74,129.52,56.85Z"/><path class="cls-28" d="M157.06,73.44a2.65,2.65,0,0,1-2.57-2.73v0a2.4,2.4,0,0,1,2.74-2.53,2.27,2.27,0,0,1,2.4,2.48,2.57,2.57,0,0,1-2.3,2.81Z"/><path class="cls-29" d="M122,64.35c0,1.56-.67,2.74-2.48,2.82a2.61,2.61,0,0,1-.42-5.18A2.48,2.48,0,0,1,122,64.35Z"/><path class="cls-30" d="M150.87,75a2.19,2.19,0,0,1-2.31,2.06h0c-1.43,0-2.11-.93-2-2.32a2,2,0,0,1,2.23-2.15,2.15,2.15,0,0,1,2.11,2.4Z"/><path class="cls-31" d="M130.41,60.81A2.23,2.23,0,0,1,130,65a2,2,0,0,1-2-2.36C128.09,61.27,129,60.81,130.41,60.81Z"/><path class="cls-24" d="M137.06,52.85a2.11,2.11,0,1,1,0,4.21,1.89,1.89,0,0,1-2-2.32,1.94,1.94,0,0,1,2-1.89Z"/><path class="cls-32" d="M143.08,82.11a1.85,1.85,0,0,1-1.63,2.05h-.22a1.81,1.81,0,0,1-1.94-2A1.89,1.89,0,0,1,141,80.06h.22a1.81,1.81,0,0,1,1.89,2.06Z"/><path class="cls-30" d="M142,72.35c0-1.68.46-2.82,2.32-2.53a1.64,1.64,0,0,1,1.35,2.36c-.84,1.94-2.19,1.73-3.62.46Z"/><path class="cls-29" d="M127.29,66.49a1.77,1.77,0,0,1-1.48,2h0a1.81,1.81,0,1,1-.38-3.58,1.64,1.64,0,0,1,1.89,1.56Z"/><path class="cls-33" d="M150.87,70.62a1.81,1.81,0,0,1-1.81-1.81h0a1.68,1.68,0,0,1,1.41-1.92l.19,0a1.68,1.68,0,0,1,2,1.52C153,69.61,152.13,70.28,150.87,70.62Z"/><path class="cls-34" d="M136.43,65c.25,1.43,0,2.69-1.73,2.69a1.39,1.39,0,0,1-1.43-1.64c.21-1.56,1.39-1.73,2.69-1.39a.34.34,0,0,1,.46.34Z"/><path class="cls-35" d="M139.59,67.12c1.14,0,1.47.76,1.43,1.64a1.53,1.53,0,1,1-3-.17,1.52,1.52,0,0,1,1.56-1.48Z"/><path class="cls-36" d="M141.19,78.49a1.31,1.31,0,0,1-1.1-1.48v0a1.18,1.18,0,0,1,1.35-1.26,1.31,1.31,0,0,1,1.35,1.64A1.43,1.43,0,0,1,141.19,78.49Z"/><path class="cls-37" d="M138,59.8c0,1.18-.63,1.73-1.6,1.6A1.26,1.26,0,0,1,135.21,60a1.35,1.35,0,0,1,1.32-1.37l.28,0A1.22,1.22,0,0,1,138,59.8Z"/><path class="cls-33" d="M145.69,69.23a1.34,1.34,0,0,1,0-2.66h.18a1.26,1.26,0,0,1,1.23,1.3s0,.06,0,.09A1.35,1.35,0,0,1,145.69,69.23Z"/><path class="cls-38" d="M131.88,67.71a1.18,1.18,0,0,1-1.3,1l-.17,0a1.09,1.09,0,0,1-.93-1.24v0c0-.93.67-1.18,1.47-1.05S131.88,67,131.88,67.71Z"/><path class="cls-39" d="M136.43,65H136c0-.84.34-1.64,1.31-1.68a.84.84,0,0,1,.8.88v0C138.24,65.27,137.23,65,136.43,65Z"/><path class="cls-40" d="M142,72.35v.29c-.42.55-.76,1.26-1.6.8a.88.88,0,0,1-.21-.84C140.64,71.71,141.35,72.05,142,72.35Z"/></svg>