<svg id="Capa_12" data-name="Capa 12" xmlns="http://www.w3.org/2000/svg" viewBox="0 0 515 131.18"><defs><style>.cls-1{fill:#e8762c;}.cls-2{fill:#c62036;}.cls-3{fill:#5a869a;}.cls-4{fill:#5c6691;}.cls-5{fill:#eb9028;}.cls-6{fill:#1e457e;}.cls-7{fill:#7098a4;}</style></defs><title>tableau_logo</title><polygon class="cls-1" points="75.09 61.69 62.03 61.69 62.03 47.5 56.9 47.5 56.9 61.69 43.85 61.69 43.85 66.73 56.9 66.73 56.9 80.92 62.03 80.92 62.03 66.73 75.09 66.73 75.09 61.69"/><polygon class="cls-2" points="48.85 84.86 37.15 84.86 37.15 72.15 32.72 72.15 32.72 84.86 21.03 84.86 21.03 88.74 32.72 88.74 32.72 101.44 37.15 101.44 37.15 88.74 48.85 88.74 48.85 84.86"/><polygon class="cls-3" points="97.92 39.41 86.22 39.41 86.22 26.65 81.8 26.65 81.8 39.41 70.1 39.41 70.1 43.28 81.8 43.28 81.8 55.93 86.22 55.93 86.22 43.28 97.92 43.28 97.92 39.41"/><polygon class="cls-4" points="69.37 98.96 61.43 98.96 61.43 90.1 57.66 90.1 57.66 98.96 49.72 98.96 49.72 102.37 57.66 102.37 57.66 111.24 61.43 111.24 61.43 102.37 69.37 102.37 69.37 98.96"/><polygon class="cls-5" points="48.85 39.41 37.01 39.41 37.01 26.65 32.86 26.65 32.86 39.41 21.03 39.41 21.03 43.17 32.86 43.17 32.86 55.93 37.01 55.93 37.01 43.17 48.85 43.17 48.85 39.41"/><polygon class="cls-4" points="106.9 62.5 98.97 62.5 98.97 53.64 95.18 53.64 95.18 62.5 87.25 62.5 87.25 65.92 95.18 65.92 95.18 74.79 98.97 74.79 98.97 65.92 106.9 65.92 106.9 62.5"/><polygon class="cls-6" points="97.92 84.86 86.22 84.86 86.22 72.15 81.8 72.15 81.8 84.86 70.1 84.86 70.1 88.74 81.8 88.74 81.8 101.44 86.22 101.44 86.22 88.74 97.92 88.74 97.92 84.86"/><polygon class="cls-7" points="58.14 17.59 58.14 26.28 50.29 26.28 50.29 28.91 58.14 28.91 58.14 37.61 60.96 37.61 60.96 28.91 68.81 28.91 68.81 26.28 60.96 26.28 60.96 17.59 58.14 17.59"/><polygon class="cls-7" points="30.48 62.84 22.6 62.84 22.6 54.31 19.83 54.31 19.83 62.84 11.95 62.84 11.95 65.59 19.83 65.54 19.83 74.11 22.6 74.11 22.6 65.52 30.48 65.47 30.48 62.84"/><path class="cls-3" d="M149.64,112.68a5.93,5.93,0,0,0,3.12.86c2.25,0,3.55-1,3.55-2.67a2.47,2.47,0,0,0-1.18-2.24,12.93,12.93,0,0,0-2.23-1c-.81-.3-1.21-.63-1.21-1s.45-.72,1.31-.72a6.83,6.83,0,0,1,2.93.89V105a7,7,0,0,0-3-.73c-2.06,0-3.39,1.09-3.39,2.59s1.1,2.37,3.36,3.17c.79.27,1.19.44,1.19,1s-.46.8-1.34.8a5.86,5.86,0,0,1-3.06-1.13Z"/><path class="cls-3" d="M193.7,109a4.48,4.48,0,0,0,1.4,3.35,5.33,5.33,0,0,0,6.94,0,4.47,4.47,0,0,0,1.4-3.35,4.52,4.52,0,0,0-1.4-3.37,5.37,5.37,0,0,0-6.94,0,4.52,4.52,0,0,0-1.4,3.37m2.31,0a2.57,2.57,0,1,1,0,.19q0-.09,0-.19"/><polygon class="cls-3" points="243.28 113.43 245.53 113.43 245.53 109.74 248.87 109.74 248.87 108.06 245.53 108.06 245.53 106.11 249.09 106.11 249.09 104.46 243.28 104.46 243.28 113.43"/><polygon class="cls-3" points="291 113.43 293.37 113.43 293.37 106.13 296.33 106.13 296.33 104.46 288.04 104.46 288.04 106.13 291 106.13 291 113.43"/><polygon class="cls-3" points="336.17 113.51 337.09 113.51 339.12 107.89 341.15 113.51 342.08 113.51 345.72 104.46 343.37 104.46 341.64 109.36 339.87 104.46 338.37 104.46 336.62 109.33 334.87 104.46 332.53 104.46 336.17 113.51"/><path class="cls-3" d="M379.64,113.43H382l.68-1.74h3.86l.64,1.74h2.37l-3.5-9H383.5Zm3.76-3.28,1.39-3.42,1.26,3.42Z"/><path class="cls-3" d="M426.05,113.43h2.24v-3.65h.26a1.5,1.5,0,0,1,1.62,1.08l1.14,2.59h2.5l-1.43-3.08a2,2,0,0,0-1.06-1.13,2.24,2.24,0,0,0,1.56-2.16c0-1.79-1.17-2.6-3.58-2.6H426Zm3.32-5.29H428.3v-2.08h1.07c.81,0,1.23.38,1.23,1s-.4,1-1.23,1"/><polygon class="cls-3" points="471.09 113.43 477.2 113.43 477.2 111.75 473.34 111.75 473.34 109.61 476.93 109.61 476.93 107.94 473.34 107.94 473.34 106.11 477.1 106.11 477.1 104.46 471.09 104.46 471.09 113.43"/><path class="cls-6" d="M264.55,56.91a21.51,21.51,0,0,1,7.6-1.57c8.77,0,14.69,6.16,14.69,15.82,0,10-6.22,15.88-17.21,15.88A35.31,35.31,0,0,1,258.17,85L258,40.66h6.56Zm5.74,24c6.13,0,9.65-3.52,9.65-9.77s-3.54-9.85-9-9.85a15.69,15.69,0,0,0-6.34,1.59v17A16.61,16.61,0,0,0,270.32,81"/><rect class="cls-6" x="314.12" y="34.43" width="6.49" height="58.17"/><path class="cls-6" d="M356.49,67.7h14.92c-.17-4-2.3-6-6.1-6.27a8.77,8.77,0,0,0-8.82,6.27m7.36,19.45c-10-1-14.88-8-14.6-16.34.3-9,6.13-15.4,15-15.4,9.33,0,14.73,6.9,14.27,17H356.1c.54,5.63,3.92,8.31,8.55,8.66,3.85.3,9.29-.57,12.24-2.42v6.25a23.2,23.2,0,0,1-13,2.22"/><path class="cls-6" d="M474.9,82c4.12,0,6.9-2.1,6.9-6.8V56h6.56V76c0,6.7-5.2,10.79-13.47,10.79S461.43,82.74,461.43,76V56H468V75.24c0,4.7,2.79,6.8,6.9,6.8"/><path class="cls-6" d="M214.76,87c-11,0-17.21-5.85-17.21-15.88,0-9.66,5.93-15.82,14.69-15.82a13.43,13.43,0,0,1,7.6,2.07V55.2h6.55L226.21,85A32,32,0,0,1,214.75,87m-.66-6a23.35,23.35,0,0,0,5.62-.71l.12-16.78a10.88,10.88,0,0,0-6.34-2.12c-5.52,0-9,3.7-9,9.85S208,81.12,214.12,81"/><path class="cls-6" d="M422.15,87c-11,0-17.21-5.85-17.21-15.88,0-9.66,5.92-15.82,14.69-15.82a13.44,13.44,0,0,1,7.6,2.07V55.2h6.58L433.63,85A31.94,31.94,0,0,1,422.16,87m-.66-6a23.58,23.58,0,0,0,5.62-.71l.12-16.78a10.88,10.88,0,0,0-6.33-2.12c-5.52,0-9,3.7-9,9.85S415.4,81,421.54,81"/><polygon class="cls-6" points="148.7 42.75 155.21 42.75 155.21 61.2 172.76 61.2 172.76 67.26 155.21 67.26 155.21 87.26 148.7 87.26 148.7 67.26 131.15 67.26 131.15 61.2 148.7 61.2 148.7 42.75"/><path class="cls-6" d="M499.13,55.74a3.9,3.9,0,1,1-3.88,3.92v0a3.84,3.84,0,0,1,3.78-3.9Zm0,.6a3.3,3.3,0,1,0,3.3,3.3,3.3,3.3,0,0,0-3.3-3.3Zm-.73,5.55h-.69V57.57a7.82,7.82,0,0,1,1.23-.11,2.3,2.3,0,0,1,1.35.33,1,1,0,0,1,.4.9,1.09,1.09,0,0,1-.84,1.06h0c.37.07.64.42.72,1.06a3.81,3.81,0,0,0,.27,1.07h-.72a3.12,3.12,0,0,1-.29-1.11A.81.81,0,0,0,499,60h-.57Zm0-2.4h.5c.57,0,1-.21,1-.74,0-.38-.27-.76-1-.76a3.23,3.23,0,0,0-.5,0Z"/></svg>