<svg id="Capa_12" data-name="Capa 12" xmlns="http://www.w3.org/2000/svg" viewBox="0 0 515 131.18"><title>TensorFlow</title><path d="M23.78,44.27H4.05v-10H54.52v10H34.61v59.37H23.78Z"/><path d="M56.6,84.51c2.74,9,7.85,12.09,18.46,10.85C78,95,78.59,94,81.25,91.64l7.06,6.22c-3.27,2.9-6.45,5.44-14.43,6.4-15.5,1.88-21.5-3.62-26.63-20-4.3-13.74,1.22-29.49,16-33.48,15-4.05,23.53,8,26.5,19a34.24,34.24,0,0,1,1.07,5.46ZM80.5,69c-1.16-4.66-3.75-11.56-14-9.66-7.33,1.37-10.72,11.07-9.8,16.35Z"/><path d="M97.78,66.33c0-6.11-.06-9.52-.34-14.11h10.21l0,4.09.58-.42c2-4.15,6.82-5.25,14.5-5.25,8.06,0,16.83,4.67,16.83,21.47v31.53l-9.5-.17v-30c0-7.64-5.24-13.58-11.59-13.58-4.64,0-9.09,4.4-10.32,8.44a15.58,15.58,0,0,0-.48,4.36V103.9l-9.91-.26Z"/><path d="M148.08,90.89c3.2,1.8,7.65,4.75,12.67,4.75,6.16,0,11.67.5,11.75-5.83.05-3.49-5.7-6.45-12.55-8.67-10.85-3.49-15.26-9-15.3-15-.07-11.67,8.11-16.17,21-16.17,6.16,0,12.86,3.63,15.77,6l-4.91,8c-2.4-1.27-5.86-3.75-10.77-3.75s-10.17.67-10.17,3.84,4.76,6.34,11.84,8.66c10,3.38,15.91,7.75,15.91,17,0,12.59-8.35,14.92-23.08,14.92-8.17,0-13.89-3.39-18-5.5Z"/><path d="M231.11,77.34c0,18.87-11.42,27.3-22.66,27.3-12.51,0-22.12-10-22.12-26.45,0-16.87,9.52-27.19,22.85-27.19C222.32,51,231.11,61.75,231.11,77.34Zm-35.81,0c0,13.25,6.72,18,13.51,18,6.35,0,12.75-5.2,12.75-18,0-9.92-5-16.83-12.65-16.83C201,60.48,195.3,65.59,195.3,77.31Z"/><path d="M384.59,77.4c0,18.86-11.42,27.29-22.66,27.29-12.51,0-22.12-10-22.12-26.45,0-16.86,9.52-27.19,22.84-27.19C375.8,51.05,384.59,61.8,384.59,77.4Zm-35.82,0c0,13.25,6.72,18,13.52,18,6.34,0,12.74-5.2,12.74-18,0-9.92-5-16.83-12.65-16.83C354.49,60.53,348.77,65.64,348.77,77.36Z"/><path d="M238.12,68.08c0-7.15.13-11.88,0-16.82l9.69-.26.05,4.58.51,0c2.69-3.92,6.25-4.56,9.44-5.05.92-.13,10.17.27,10.94.49l-1.37,11.45c-.78-.22-9.72-.62-10.88-.62-4.57,0-7.31,2.18-7.88,8.68-.15,1.2-.24,4.58-.24,6.1V103.9H238.12Z"/><path d="M273.74,34.61H316v9.67H283.56V63.41h20.56v9.67H283.56V103.9h-9.82Z"/><path d="M321.92,34.88l9.58-4.25v73h-9.58Z"/><path d="M396.27,51.05l5.43,24c1,5.64,2.09,6.8,2.92,12.55h1.13a125.21,125.21,0,0,1,2.7-12.44l5.83-24.09h9.25l5.65,23.44c1.39,6.18,2.61,7.61,3.63,13.36l.5.05c.74-5.75,1.42-7.23,2.62-13.41l5.69-23.44h10.5L438,103.89H428.5l-6.45-21.48c-1.38-5.54-2.4-10.53-3.42-16.93h-.18A159.91,159.91,0,0,1,415,82.41l-5.73,21.48h-9.23L385.32,51.05Z"/><path d="M478.5,53.83l-6.29-.07v-1.5h14.23v1.57l-6.32.06.07,17.63h-1.63Z"/><path d="M505.94,58.51h-1.32c-.58.8-.91,3.06-1.56,4.69l-3.23,8.33H498l-2.71-6.83c-.77-2-1.66-4.63-2.31-6.06l-1.38.06c-.05,2.35-.06,12.94-.06,12.94h-1.62V52.26h3.24l3.63,10.07c.75,2.31,1.11,2.93,1.75,5h.6c.45-1.9,1-3,1.85-5.39l3.55-9.67h3.12V71.64H506S505.91,60.86,505.94,58.51Z"/></svg>