<svg id="Capa_1" data-name="Capa 1" xmlns="http://www.w3.org/2000/svg" viewBox="0 0 85 48.98"><defs><style>.cls-1{fill:#575756;}.cls-2{fill:#1e3863;}</style></defs><title>01_img</title><path class="cls-1" d="M18.23,1.86a14.14,14.14,0,0,1,8.13,2.31,14.67,14.67,0,0,1,5.27,7.08Q33.49,16,33.49,24.51T31.6,37.87a15,15,0,0,1-5.08,7,13.69,13.69,0,0,1-8.06,2.24,14.18,14.18,0,0,1-8.17-2.26A14.71,14.71,0,0,1,5.1,38q-1.87-4.6-1.87-13.1,0-11.87,3.66-17.2A13,13,0,0,1,18.23,1.86Zm.19,7.79A5.61,5.61,0,0,0,14.73,11a8.65,8.65,0,0,0-2.46,4.58,40.26,40.26,0,0,0-.85,9.52q0,8.17,1.94,11.29a5.78,5.78,0,0,0,5,3.12,5.32,5.32,0,0,0,4.74-3q2.13-3.57,2.13-12T23.37,12.88Q21.46,9.65,18.42,9.65Z"/><path class="cls-1" d="M45,2.94H57.31V46H49.17V10.65H40.29Z"/><path class="cls-2" d="M77.17,37.69A4.46,4.46,0,0,1,80.42,39a4.58,4.58,0,0,1,0,6.49,4.6,4.6,0,0,1-7.85-3.25A4.38,4.38,0,0,1,73.92,39,4.46,4.46,0,0,1,77.17,37.69Z"/></svg>