<svg id="Capa_1" data-name="Capa 1" xmlns="http://www.w3.org/2000/svg" viewBox="0 0 85 48.98"><defs><style>.cls-1{fill:#575756;}.cls-2{fill:#687d93;}</style></defs><title>03_img</title><path class="cls-1" d="M18.23,1.86a14.14,14.14,0,0,1,8.13,2.31,14.67,14.67,0,0,1,5.27,7.08Q33.49,16,33.49,24.51T31.6,37.87a15,15,0,0,1-5.08,7,13.69,13.69,0,0,1-8.06,2.24,14.18,14.18,0,0,1-8.17-2.26A14.71,14.71,0,0,1,5.1,38q-1.87-4.6-1.87-13.1,0-11.87,3.66-17.2A13,13,0,0,1,18.23,1.86Zm.19,7.79A5.61,5.61,0,0,0,14.73,11a8.65,8.65,0,0,0-2.46,4.58,40.26,40.26,0,0,0-.85,9.52q0,8.17,1.94,11.29a5.78,5.78,0,0,0,5,3.12,5.32,5.32,0,0,0,4.74-3q2.13-3.57,2.13-12T23.37,12.88Q21.46,9.65,18.42,9.65Z"/><path class="cls-1" d="M46.56,13.58H38.68A13.07,13.07,0,0,1,42.1,5.9a13.19,13.19,0,0,1,9.87-4,12.5,12.5,0,0,1,8.89,3.37,10.61,10.61,0,0,1,3.59,8,9.31,9.31,0,0,1-1.57,5.24,11.2,11.2,0,0,1-4.56,3.84,11.61,11.61,0,0,1,6.14,4.09,11,11,0,0,1,2.21,6.87,13,13,0,0,1-4.28,9.83,15.26,15.26,0,0,1-10.9,4,14.15,14.15,0,0,1-10.22-3.79q-4-3.79-4.34-10.33h8.12a8.17,8.17,0,0,0,2.33,5,7.13,7.13,0,0,0,9.32-.22A6.19,6.19,0,0,0,56,28.29q-2.55-2-7.35-2.08v-7a13.25,13.25,0,0,0,4.41-.92,5.45,5.45,0,0,0,2.26-1.89,4.5,4.5,0,0,0,.81-2.55,3.83,3.83,0,0,0-1.23-2.92,4.51,4.51,0,0,0-3.22-1.16,5.22,5.22,0,0,0-3.19,1.07A5.36,5.36,0,0,0,46.56,13.58Z"/><path class="cls-2" d="M77.17,37.69A4.46,4.46,0,0,1,80.42,39a4.58,4.58,0,0,1,0,6.49,4.6,4.6,0,0,1-7.85-3.25A4.38,4.38,0,0,1,73.92,39,4.46,4.46,0,0,1,77.17,37.69Z"/></svg>