<svg id="Capa_1" data-name="Capa 1" xmlns="http://www.w3.org/2000/svg" viewBox="0 0 62 62"><defs><style>.cls-1{fill:#706f6f;}.cls-2{fill:#62498a;}.cls-3{fill:none;}</style></defs><title>actualizacion_icon</title><path class="cls-1" d="M26.3,40.49a41.74,41.74,0,0,1-2.85-7c-.15-.47-.27-.9-1-.77a61.59,61.59,0,0,0-5.58,2.73c-3.33,2-5.38,4.37-4.73,8.67.15,1,.36,2,.55,3,0,.24.09.43.15.61s.08.53.13.75.25.84.25.84H26.56V41.6h0A1.52,1.52,0,0,0,26.3,40.49Z"/><path class="cls-1" d="M36.22,24.2c.17,1.43-.55,2.82-.18,4.68.91-2.54,2-4.54,2.12-6.87.06-1.65.17-3.26-1-4.72-2.45-3.18-5.7-3.47-9.34-2.94-4.39.64-6.63,5.51-5.61,9,.44,1.5,1.12,2.92,1.74,4.49.39-1.06-.23-1.9-.23-2.79,0-.51-.54-1.3-.13-1.44,1.39-.47,1.32-1.75,1.78-2.73.29-.62.56-.61,1-.18,2.09,2,2.73,2.14,5.21.71,1.77-1,2.84.44,4.17,1C36.76,22.78,36.15,23.58,36.22,24.2Z"/><path class="cls-1" d="M32.06,38.83a2.8,2.8,0,0,0-.19-1c-.56-1.54-.56-3.29-1.8-4.65-.52,1.7-1.43,3.2-1.79,4.94a9.19,9.19,0,0,0-.22,1.29h0v9.92h4v-9.9S32.08,39.09,32.06,38.83Z"/><path class="cls-2" d="M25.55,12.12c.31-.14.6-.26.9-.37L27,15.27a.47.47,0,0,0,.76.3L38.87,6.64a.47.47,0,0,0-.12-.81L25.46.67a.47.47,0,0,0-.64.51L25.41,5l-.34.22c-.43.3-.88.65-1.43,1.09A19,19,0,0,0,21,8.88a21.28,21.28,0,0,0-2.09,3,20.4,20.4,0,0,0-2.23,6,14.58,14.58,0,0,0-.34,2.62.47.47,0,0,0,.91.18,13.71,13.71,0,0,1,1.17-2.2,19,19,0,0,1,2.09-2.72,15.37,15.37,0,0,1,5-3.64Zm0,0"/><path class="cls-3" d="M39.92,50.24c.3-.11.59-.23.9-.37s.7-.34,1-.53H39.78Z"/><path class="cls-1" d="M39.08,46.36a.47.47,0,0,1,.3.37l.4,2.62h2.08a15.64,15.64,0,0,0,4-3.11,19,19,0,0,0,2.09-2.72l.17-.27c.31-3.88-1.69-6.09-4.82-8a61.18,61.18,0,0,0-5.58-2.77c-.75-.13-.87.3-1,.78-.47,1.49-1,3-1.58,4.39l0,.06h0c-.38.91-.78,1.81-1.25,2.69a1.57,1.57,0,0,0-.22,1.12h0v7.87H35l3.63-2.91A.47.47,0,0,1,39.08,46.36Z"/><path class="cls-2" d="M49.62,41a.47.47,0,0,0-.53.29,12.58,12.58,0,0,1-1,1.93c0,.25,0,.51-.09.78-.15,1-.36,2.06-.55,3.09,0,.24-.09.44-.15.62s-.08.54-.13.76-.25.85-.25.85H41.86c-.34.19-.69.38-1,.53s-.6.26-.9.37l-.14-.9H35l-7.49,6a.47.47,0,0,0,.13.81l13.29,5.16a.47.47,0,0,0,.64-.51L41,57l.34-.22c.43-.3.88-.65,1.43-1.09a19,19,0,0,0,2.6-2.59,21.32,21.32,0,0,0,2.09-3,20.38,20.38,0,0,0,2.23-6A14.57,14.57,0,0,0,50,41.49.47.47,0,0,0,49.62,41Z"/><path class="cls-2" d="M39.38,46.73a.47.47,0,0,0-.76-.3L35,49.34h4.79Z"/><path class="cls-2" d="M45.83,46.24a15.64,15.64,0,0,1-4,3.11h5.06s.21-.65.25-.85.09-.48.13-.76.1-.38.15-.62c.2-1,.4-2.06.55-3.09,0-.27.07-.53.09-.78l-.17.27A19,19,0,0,1,45.83,46.24Z"/></svg>