<svg id="Capa_1" data-name="Capa 1" xmlns="http://www.w3.org/2000/svg" viewBox="0 0 63 63"><defs><style>.cls-1{fill:#929292;}.cls-2{fill:#62498a;}</style></defs><title>adaptable_icon</title><path class="cls-1" d="M27.34,43.11H6.41a.88.88,0,0,1-.88-.88V8.17a.88.88,0,0,1,.88-.88H56.59a.88.88,0,0,1,.88.88v7.46a9,9,0,0,1,4,1.45V8.17a4.91,4.91,0,0,0-4.9-4.9H6.41a4.91,4.91,0,0,0-4.9,4.9V42.23a4.91,4.91,0,0,0,4.9,4.9H23.23V53.7H20.58a3,3,0,1,0,0,6H29a9,9,0,0,1-1.7-5.25Zm0,0"/><path class="cls-2" d="M44.21,56.69V52.35H35.38V24.62a1.06,1.06,0,0,1,1.06-1.06h20a1.06,1.06,0,0,1,1.06,1.06V33.2H59a5,5,0,0,1,2.51.7V24.62a5.08,5.08,0,0,0-5.08-5.08h-20a5.08,5.08,0,0,0-5.08,5.08V54.47a5.08,5.08,0,0,0,5.08,5.08h8.68a5.31,5.31,0,0,1-.91-2.87Zm0,0"/><path class="cls-1" d="M59,35.71H49.23a2.52,2.52,0,0,0-2.52,2.52V56.69a2.52,2.52,0,0,0,2.52,2.52H59a2.52,2.52,0,0,0,2.52-2.52V38.23A2.52,2.52,0,0,0,59,35.71Zm-9.25,3h8.75v16H49.73ZM54.11,58A1.08,1.08,0,0,1,53,56.92a1.06,1.06,0,1,1,2.12,0A1.08,1.08,0,0,1,54.11,58Zm0,0"/></svg>