<svg id="Capa_1" data-name="Capa 1" xmlns="http://www.w3.org/2000/svg" viewBox="0 0 309 319.74"><defs><style>.cls-1{fill:#454545;}.cls-2{fill:#adadad;}.cls-3{fill:#cfcfcf;}.cls-19,.cls-4,.cls-6{fill:#62498a;}.cls-4{opacity:0.4;}.cls-5{fill:#464646;}.cls-6{opacity:0.2;}.cls-7{fill:#474747;}.cls-8{fill:#4b4b4b;}.cls-9{fill:#494949;}.cls-10{fill:#484848;}.cls-11{fill:#aeaeae;}.cls-12{fill:#ababab;}.cls-13{fill:#4a4a4a;}.cls-14{fill:#565656;}.cls-15{fill:#b2b2b2;}.cls-16{fill:#4c4c4c;}.cls-17{fill:#505050;}.cls-18{fill:#515151;}.cls-20{fill:#b3b3b3;}.cls-21{fill:#585858;}.cls-22{fill:#5a5a5a;}.cls-23{fill:#535353;}.cls-24{fill:#525252;}.cls-25{fill:#616161;}.cls-26{fill:#595959;}.cls-27{fill:#5b5b5b;}.cls-28{fill:#656565;}.cls-29{fill:#666;}.cls-30{fill:#636363;}.cls-31{fill:#575757;}.cls-32{fill:#5f5f5f;}.cls-33{fill:#5c5c5c;}.cls-34{fill:#626262;}.cls-35{fill:#5e5e5e;}.cls-36{fill:#555;}.cls-37{fill:#545454;}.cls-38{fill:#5d5d5d;}.cls-39{fill:#646464;}.cls-40{fill:#939393;}.cls-41{fill:#fefefe;}.cls-42{fill:#fdfdfd;}.cls-43{fill:#4d4d4d;}.cls-44{fill:#929292;}.cls-45{fill:#a2a2a2;}</style></defs><title>aliados_academy_img</title><path class="cls-1" d="M87.94,260.51c0-9.84,0-19.69.11-29.53,0-1.82-.69-2.54-2.31-3.08-6.43-2.16-12.79-4.53-19.23-6.65-2.26-.74-2.63-1.28-.86-3.18C72.42,210.77,79,203.28,85.76,196c1.37-1.48,1.46-2.3.11-3.84-4.11-4.67-7.93-9.6-12.06-14.25-2-2.31-1.45-3.42,1.14-4.23,2.17.78,3.24,2.75,4.6,4.36,2.84,3.37,5.71,6.72,8.45,10.17,1.61,2,3.4,2.53,5.95,1.65,20.3-7,40.63-14,60.85-21.26,2.63-.95,2.82-1.53.86-3.82q-4.74-5.54-9.38-11.17c-1.08-1.31-2.72-2.82-.42-4.56,1.43-1.19,2.18-.09,3,.88,3.77,4.53,7.69,8.94,11.26,13.62,1.88,2.47,2.83,2.13,4.56-.11,3.46-4.48,7.32-8.65,10.8-13.12,1.46-1.87,2.64-2.09,4.3-.55,1.09,1.45-.21,2.3-.91,3.17-3.19,4-6.46,7.85-9.73,11.74-2.25,2.67-2.29,3.14.9,4,4.85,1.36,9.3,4,14.6,4,2.26,0,3.65,2.44,5.89,3.15,5.93,1.86,11.71,4.18,17.59,6.19,7.59,2.6,15.17,5.26,22.74,7.92,2.54.89,4.16.41,5.83-1.72,3.26-4.19,6.81-8.15,10.14-12.29A7.56,7.56,0,0,1,250,173.6c2.42,1.08,2.83,2.21.81,4.42-4,4.43-7.63,9.27-11.65,13.72-1.73,1.92-1.4,3,.19,4.69,7.15,7.72,14.15,15.58,21.6,23.82-5.74,2-11.11,3.86-16.5,5.72-7.72,2.66-7.79,2.65-7.71,10.8s-.38,16.3.27,24.44c1.75,4.84.91,9.81.52,14.72-.15,1.94-2.26,2.34-3.84,2.91-12.27,4.35-24.53,8.71-36.84,12.95-10.49,3.61-21,7.21-31.43,10.93a8.72,8.72,0,0,1-6,0c-18.69-6.21-37.15-13.08-55.8-19.41-4.07-1.38-8.15-2.76-12.2-4.19-3.87-1.36-4.45-2-4.33-6.18S86.34,264.57,87.94,260.51Z"/><path class="cls-2" d="M87.94,260.51c0,4.52.13,9,0,13.57,0,1.94.42,3,2.46,3.72q35.11,12.07,70.14,24.36a5.47,5.47,0,0,0,3.9-.1q34.88-12.21,69.8-24.32c2-.68,2.63-1.63,2.59-3.65-.08-4.29.09-8.59.15-12.88,6.11,2,12.23,4,18.32,6.09,7.57,2.6,15.12,5.28,23.51,8.23-2.68,1.06-4.55,1.88-6.48,2.55q-43.28,15-86.57,30.06c-6.84,2.37-13.73,4.61-20.51,7.16a7.85,7.85,0,0,1-5.81.07Q107.76,297.25,56,279.23c-3.08-1.07-6.16-2.12-9.36-3.22.84-1.57,2.21-1.52,3.31-1.9,11.42-4,22.86-8,34.28-12C85.5,261.69,86.71,261.05,87.94,260.51Z"/><path class="cls-3" d="M145.87,149c-1.29,1.42-.28,2.42.6,3.47,3.73,4.42,7.39,8.89,11.18,13.25,1.5,1.72,1.35,2.42-.88,3.18Q124.66,180,92.62,191.27c-1.55.54-2.65.6-3.82-.85-4.55-5.64-9.22-11.18-13.85-16.75,4.35-.86,8.28-3,12.52-4.16,1.44,1.26,2.68,2.91,5,2.51-.09-2.22-3.24-1.72-3.15-3.89,2.95.29,5.43-1.2,8.06-2.12l21-7.3c1.23-.43,2.76-.46,3-2.24,2.12.28,2.34,2.46,3.63,3.58,1.11,1,1.72,3.75,3,2.85,1.52-1-.93-2.44-1.43-3.76-.42-1.09-1.66-1.87-1.19-3.29,6.46-1.18,12.35-4.08,18.51-6.16Z"/><path class="cls-3" d="M250,173.6c-4.5,5.37-9.07,10.69-13.48,16.14-1.4,1.74-2.61,2.25-4.85,1.45-14.16-5.06-28.54-9.53-42.45-15.17-4-1.61-8.18-2.09-12-3.86a81.33,81.33,0,0,0-8-2.79c-4.1-1.39-4.07-1.37-1.15-4.8,3.45-4,6.85-8.13,10.25-12.21.64-.77,1.47-1.45,1.46-2.59,5.26,1.18,10.16,3.42,15.23,5.15,1.66.57,3.08.89,4-1a10.1,10.1,0,0,0,2.56,2.59c5.15,3,10.93,4.33,16.49,6.26-.33,2.62-3.06,3.08-4.35,4.83-.44.6-1.59,1.1-1,1.88.82,1.07,1.58-.08,2.19-.58,1.48-1.2,3-2.31,4.43-3.62.89-.84,1.84-1.7,3.25-1.38,3,2.37,6.77,2.78,10.18,4.09A129.58,129.58,0,0,0,250,173.6Z"/><path class="cls-3" d="M242.37,83.09a18.16,18.16,0,0,1-18.79-18.24,18.35,18.35,0,0,1,18.55-18.54c10.58.08,18.64,7.89,18.67,18.28A18.09,18.09,0,0,1,242.37,83.09Z"/><path class="cls-4" d="M266.39,117.87c.18-4.19,2.14-8.18,1.35-12.47,3.2-2.11,7.32-1.82,10.46-4.13-3.85.35-7.9.06-10.69,3.63-.66-5.19-5.16-8-7.47-12.22.83-1,2-1,3.12-.84,10.11,1.21,20.25,2,30.36,3.24,1.1.13,2.46,0,2.84,1.37s-.74,2.06-1.65,2.7c-8.51,6-16.93,12.14-25.53,18C268.36,117.74,267.52,118.42,266.39,117.87Z"/><path class="cls-5" d="M266.39,117.87l29.79-20.78-.3-.94L260,92.68c-1.64-.19-2.37-.95-2-2.72s1.52-1,2.37-.91c14.95,1.57,29.89,3.18,44.72,4.77.47.94-.18,1.18-.58,1.46q-17.84,12.67-35.71,25.3c-.83.59-1.56,1.7-2.82.29S265.32,118.75,266.39,117.87Z"/><path class="cls-6" d="M12.79,142.18a8.8,8.8,0,0,1,9.15,8.9,9.31,9.31,0,0,1-9,8.82c-4.67,0-9-4.3-9-8.88A8.83,8.83,0,0,1,12.79,142.18Z"/><path class="cls-7" d="M93.16,37a10.84,10.84,0,0,1,9.76,6.71,9.92,9.92,0,0,1-3.1,11.62c-2.92,2.12-5.19,4.35-4.93,8.25.08,1.19-.59,1.55-1.68,1.58-1.3,0-1.76-.52-1.79-1.82a10.8,10.8,0,0,1,5.05-9.75c3.54-2.45,4.52-5.44,3.14-8.72a7,7,0,0,0-12.79-.21,3.73,3.73,0,0,0-.3,1c-.25,1.49-1.09,2.25-2.59,1.84-2-.55-.94-2-.67-3A10.57,10.57,0,0,1,93.16,37Z"/><path class="cls-7" d="M17.31,40.83c1,0,1.29.67,1.72,1.15q13.9,15.6,27.78,31.22c.83.93,1.43,1.64.15,2.78s-1.89.48-2.72-.45Q30.37,59.9,16.47,44.29c-.47-.53-1.44-1-.8-2A9.46,9.46,0,0,1,17.31,40.83Z"/><path class="cls-8" d="M178.51,131.35c1.37.84,4.65-1.21,4.07,2.52-.4,2.58-2.88.61-4.09,1.55-1.3,1.18-2.92,1.08-4.49,1.09-7.68,0-15.37-.13-23,.08-2.83.08-5.09-1.75-7.84-1.61-.85,0-1-.79-1-1.49s0-1.61,1.1-1.75c.89-.11,1.82.14,2.67-.31h0c1.15-1.16,2.65-1.15,4.11-1.15q12.16-.06,24.32,0C175.83,130.28,177.31,130.28,178.51,131.35Z"/><path class="cls-7" d="M189.63,148.22c-1.46-.54-2.74-.8-1.87-2.84,5.21-12.25,10.31-24.55,15.45-36.83.39-.93.69-1.87,2.17-1.23s1.59,1.26,1,2.59q-7.74,18.41-15.42,36.85C190.71,147.45,190.55,148.34,189.63,148.22Z"/><path class="cls-9" d="M179.23,138.09a12.87,12.87,0,0,0,1.69,0c1.34-.14,1.74.47,1.75,1.75s-.57,1.73-1.83,1.73q-18.43,0-36.86,0c-1.19,0-1.93-.28-2-1.66s.42-1.9,1.75-1.81a19.18,19.18,0,0,0,2-.07c1.35-1.06,3-1,4.53-1,8,0,16,0,24,0A9.32,9.32,0,0,1,179.23,138.09Z"/><path class="cls-10" d="M276.89,52.64a24.18,24.18,0,0,1-2-1.43c-.77-.68,0-1.23.31-1.72,2.27-3.24,4.58-6.45,6.88-9.67,4.13-5.8,8.28-11.58,12.38-17.4.77-1.09,1.41-1.56,2.71-.62s.84,1.58.19,2.49q-9.66,13.52-19.3,27A15.79,15.79,0,0,1,276.89,52.64Z"/><path class="cls-11" d="M218.58,30.08a5.92,5.92,0,0,1-6.11-5.87A6.17,6.17,0,1,1,224.79,24,6,6,0,0,1,218.58,30.08Z"/><path class="cls-10" d="M296.52,137.34c-.08.87-.82,1.06-1.38,1.37-8.79,4.93-17.6,9.82-26.37,14.78-1.3.74-1.92.5-2.64-.76s-.07-1.76.91-2.31c8.82-4.88,17.64-9.75,26.41-14.71C295.56,134.54,296,135.9,296.52,137.34Z"/><path class="cls-9" d="M225.64,102.9a6.28,6.28,0,0,1-1.7,4.65c-1.71,1.71-4,2.89-4,5.9,0,1.12-1.44.75-2.28.73-1.16,0-1.07-1-1-1.74a8.28,8.28,0,0,1,3.84-6.42,3.53,3.53,0,0,0,.86-5.34c-1.23-1.73-3-1.83-4.83-1a3.37,3.37,0,0,0-1.72,2c-.51,1.53-1.77,1.37-2.78,1-1.58-.52-.53-1.72-.25-2.52A7,7,0,0,1,220,95.87,7.08,7.08,0,0,1,225.64,102.9Z"/><path class="cls-10" d="M103,106.25c1.07,0,1.24.93,1.62,1.57q6.5,11.15,13,22.32c.65,1.11,1.38,2.06-.35,3s-2-.22-2.55-1.18c-4.38-7.54-8.7-15.12-13.16-22.61C100.35,107.26,101.66,106.83,103,106.25Z"/><path class="cls-10" d="M84.3,166c-.68,1.45-1.05,2.84-3,1.73q-11-6.3-22.16-12.47c-1.07-.59-1.55-1.11-.86-2.34s1.42-1.4,2.69-.67c7.26,4.15,14.56,8.23,21.85,12.33C83.48,165,84.25,165.25,84.3,166Z"/><path class="cls-12" d="M179.23,138.09l-33.44,0c.09-1.19.59-2.65-1.46-2.56-1.75.08-2.76-.4-2.62-2.42.16-2.36,1.87-1.68,3.2-1.77a5.28,5.28,0,0,1,1,.11,6.39,6.39,0,0,1-1.54.48c-1.1.06-2.06.12-1.94,1.63.1,1.33,1.08,1.15,2,1.26,7.52,1,15.08.28,22.61.47,3.83.09,7.66.1,11.49.15A4.33,4.33,0,0,0,179.23,138.09Z"/><path class="cls-12" d="M178.51,131.35l-32.58.08-.12-2.72,33.39,0A4.64,4.64,0,0,0,178.51,131.35Z"/><path class="cls-13" d="M72.72,68.92a6,6,0,0,1,5.44,8.59c-1,2-3.39,2.94-3.9,5.4-.14.66-1.66.54-2.5.22-1-.39-.62-1.35-.48-2.06A6.72,6.72,0,0,1,74.09,77c1.4-1.05,1.78-2.46.5-3.76s-2.78-1-3.74.46-2.32,1.76-3.39.8.09-2.1.68-3A5.49,5.49,0,0,1,72.72,68.92Z"/><path class="cls-13" d="M243.92,99.22c-.29.43-.59.9-.91,1.36l-9.2,12.95c-.72,1-1.24,2.13-2.89,1s-.69-2,0-3q4.71-6.6,9.43-13.2c.51-.72,1-1.66,2.12-.95C243.1,97.85,243.9,98.17,243.92,99.22Z"/><path class="cls-9" d="M222.63,163.88c-2.64,2.11-5.29,4.2-7.92,6.32-1,.82-1.89,1.61-3.06.09s0-2,.82-2.7l5.63-4.84c2.19-1.73,4.41-3.41,6.55-5.2,1.07-.9,1.79-1,2.74.19s.43,1.72-.45,2.44C225.48,161.39,224.06,162.64,222.63,163.88Z"/><path class="cls-14" d="M162,148.16c-1.7,0-3.39,0-5.09,0-1.34,0-1.76-.61-1.76-1.86s.45-1.86,1.77-1.85c3.73,0,7.46,0,11.19,0,1.19,0,1.55.59,1.54,1.68s-.07,2-1.56,2C166.09,148.12,164.05,148.16,162,148.16Z"/><path class="cls-13" d="M125.46,155.84c1.07,1.57,2.21,3.09,3.18,4.72.63,1.06,2.6,2,.54,3.57-2.29,1.71-2.6-.74-3.42-1.72-1.57-1.88-2.92-3.94-4.36-5.93a13.13,13.13,0,0,1-1.73-2.84c-.27-.87.89-1.09,1.46-1.55a1.07,1.07,0,0,1,1.71.28C123.71,153.52,124.59,154.68,125.46,155.84Z"/><path class="cls-13" d="M267.52,104.9c-.19-1.83.46-2.9,2.42-3.27,2.54-.48,5-1.14,7.53-1.86,1.25-.36,1.95-.13,2.25,1.15.25,1.05-.05,1.76-1.18,2-3.61.77-7,2.33-10.79,2.49A.93.93,0,0,1,267.52,104.9Z"/><path class="cls-15" d="M53.66,204.69c-2.11-.39-3.62-1.58-3.51-3.82a3.56,3.56,0,0,1,7.12.36C57.19,203.27,55.74,204.4,53.66,204.69Z"/><path class="cls-16" d="M52.85,54.05c0,1.31-.86,1.57-1.46,2s-1.22.29-1.68-.36q-2.62-3.71-5.27-7.4c-.44-.61-.65-1.23.1-1.71s1.48-1.45,2-.83C48.81,48.49,50.87,51.41,52.85,54.05Z"/><path class="cls-16" d="M210.22,131.61c-1.61,2.72-3.24,5.66-5.07,8.45-.54.82-1.39-.06-2.06-.39s-1-.88-.62-1.61c1.51-2.62,3-5.23,4.6-7.81.45-.73,1.18-.53,1.77-.15S210.17,130.51,210.22,131.61Z"/><path class="cls-17" d="M10.77,124c1.86,1.12,4,2.29,6,3.69.91.63-.13,1.38-.42,2a1,1,0,0,1-1.61.59c-1.85-1-3.71-2.06-5.57-3.08-.91-.5-.89-1.19-.38-2C9.22,124.66,9.4,123.74,10.77,124Z"/><path class="cls-18" d="M237.06,34.9c-1.11-.52-2.77-.54-2.07-2.41s1.57-3.73,2.34-5.6c.42-1,1.07-.94,1.88-.52s1.76.54,1.39,1.55c-.8,2.21-1.8,4.36-2.76,6.51C237.74,34.65,237.33,34.74,237.06,34.9Z"/><path class="cls-19" d="M276.73,162.5c1.75,1.35,3.57,2.63,4.39,4.57.29.68-1.34,2.46-2.13,2-1.79-1-3.6-2.43-4.22-4.5C274.5,163.71,275.86,163.09,276.73,162.5Z"/><path class="cls-19" d="M286.7,172.72c.71,0,4.59,3.67,4.48,4.33a2.39,2.39,0,0,1-2,2c-.66.15-4.59-3.62-4.44-4.27A3.39,3.39,0,0,1,286.7,172.72Z"/><path class="cls-17" d="M67.22,96.28c1.58,1.54,3.28,2.94,4,4.91.33.86-1,1.67-2,1.93-.65.17-4.54-4.22-4.3-4.82C65.36,97.29,66.33,96.87,67.22,96.28Z"/><path class="cls-20" d="M275.63,81c-1.54-.23-2.58-1-2.6-2.61a2.47,2.47,0,0,1,2.74-2.72,2.39,2.39,0,0,1,2.39,2.72A2.52,2.52,0,0,1,275.63,81Z"/><path class="cls-19" d="M286.72,169.19c-.48-.41-1.08-.9-1.65-1.43-.73-.67-.23-1.18.26-1.67l2.88-2.84c.53-.53,1.13-.8,1.75-.18a5.46,5.46,0,0,1,1.19,1.55C291.36,165.1,287.49,169.16,286.72,169.19Z"/><path class="cls-18" d="M126.14,119.07a1.79,1.79,0,0,1-2.1,1.81c-2.16-.93-2.33-3.32-3-5.23-.35-1.07,1.2-1.5,1.84-1.37C125.54,114.82,124.85,117.7,126.14,119.07Z"/><path class="cls-16" d="M89.36,168.12c1.26.71,2.5,1.43,3.77,2.12a1.4,1.4,0,0,1,.69,2.19c-.57,1.09-1.36,1.7-2.35.8-1.35-1.22-4.33-.73-4-3.73C88.08,169,88.29,168,89.36,168.12Z"/><path class="cls-19" d="M276.76,179.11c-1-.27-2.19-1.09-1.93-1.92.62-2,2.37-3.32,4.06-4.34.87-.53,1.68.89,2.18,1.72C281.37,175.07,277.57,179.05,276.76,179.11Z"/><path class="cls-21" d="M91.63,13.93c-.35,1.14-1.09,2.28-2,2.11a4.3,4.3,0,0,1-3.23-3c-.26-.93,1-2,1.87-2C90,11.19,90.68,12.8,91.63,13.93Z"/><path class="cls-22" d="M11.7,38.64A5,5,0,0,1,9.15,35.7c-.23-1.06,1.05-2.06,1.88-2a3.26,3.26,0,0,1,2.78,2.9C13.94,37.51,12.7,38.18,11.7,38.64Z"/><path class="cls-23" d="M96.16,16.17c-1.14-.27-2.12-1-2.06-2,.1-1.55,1.51-2.52,2.76-3.09,1.1-.51,2.12.8,2.13,1.59C99,14.45,97.29,15.12,96.16,16.17Z"/><path class="cls-24" d="M304.3,133.07c-.57,1.5-2.08,1.92-3.33,2.29s-1.83-1.13-1.84-1.86c0-2,2-2.17,3.29-2.57C303.55,130.59,303.68,132.18,304.3,133.07Z"/><path class="cls-18" d="M89.29,18.38c1.25.52,2.35,1.17,2.12,2.2a4.42,4.42,0,0,1-2.93,3c-.86.28-2.12-1-2-1.87C86.64,20.12,88.39,19.51,89.29,18.38Z"/><path class="cls-24" d="M99.29,21.58c-.6,1.08-1.33,2.37-2.21,2-1.39-.55-2.86-1.63-2.94-3.35,0-.76,1-1.86,1.82-1.67C97.54,19,98.36,20.42,99.29,21.58Z"/><path class="cls-14" d="M287.63,68.3c-1.41-.26-2.56-1-2.54-1.81a3.39,3.39,0,0,1,2.4-2.89c1-.3,2,.82,2.11,1.7C289.8,66.82,288.13,67.27,287.63,68.3Z"/><path class="cls-25" d="M192.25,12.29c.33-1.75.82-3.28,3.15-2.41.43,1,2.24,1.56.6,3.21C194.08,15,193.44,12.75,192.25,12.29Z"/><path class="cls-19" d="M128.88,30.2a2.76,2.76,0,0,1,1.94,2.14,2,2,0,0,1-1.89,2,2.06,2.06,0,0,1-2.14-2.12C126.84,31.26,127.89,30.63,128.88,30.2Z"/><path class="cls-26" d="M246.26,95.14c-.79-.58-2.23-.79-1.95-2s.78-2.63,2.33-2.36c.81.14,2.19.73,1.8,2C248.13,93.79,247.61,95,246.26,95.14Z"/><path class="cls-25" d="M32.29,162c-1.46.06-2-1.2-2.09-2.14-.18-1.55,1.42-1.35,2.38-1.62,1.23-.35,1.51.48,1.57,1.51C34.22,161.1,33.71,161.91,32.29,162Z"/><path class="cls-27" d="M188,9.66c2.16-.36,2.93.73,2.84,2.72-1.16.48-1.9,2.54-3.64.66C185.64,11.31,187.69,10.76,188,9.66Z"/><path class="cls-28" d="M267.06,38.68c-1.43.17-1.39-.77-1.44-1.69-.08-1.38.53-2.14,1.9-2.13a2.13,2.13,0,0,1,2,2.25C269.57,38.59,267.89,38.19,267.06,38.68Z"/><path class="cls-25" d="M190.5,5c.78,2.26-.18,3.19-2.41,3.13-.39-1.08-2.4-1.56-.93-3.37S189.44,4.35,190.5,5Z"/><path class="cls-29" d="M261.37,28.4c-.09,1.61-.7,2.34-2.11,2.25-.88-.06-2,.07-1.72-1.3.2-1,.09-2.56,1.49-2.61A2.37,2.37,0,0,1,261.37,28.4Z"/><path class="cls-19" d="M203.68,91.41c.9.58,2.38.67,2.34,2,0,.87-.58,2.17-1.69,2.16S202,95,202,93.69A2.69,2.69,0,0,1,203.68,91.41Z"/><path class="cls-30" d="M15,72.09C13.08,72.34,13,71,12.86,70c-.3-1.58,1.14-1.33,2-1.56,1.3-.35,1.78.28,1.83,1.58S16.12,72,15,72.09Z"/><path class="cls-25" d="M38.42,163.78c-1-.38-2-1-1.78-2,.14-.86.56-2.31,1.62-2.2A2.71,2.71,0,0,1,40.67,162C40.71,163.14,39.32,163.27,38.42,163.78Z"/><path class="cls-19" d="M115.79,74.84c.3,1.81-1.11,1.72-2.11,1.91-1.51.29-1.48-1-1.66-1.93-.31-1.59,1-1.4,1.9-1.6C115.29,72.94,115.7,73.75,115.79,74.84Z"/><path class="cls-31" d="M195.53,7.68c-2.24,1.09-2.83-.42-3.32-2.1,1.2-.22,1.48-2.83,3.48-1.14C197.27,5.78,196.4,6.65,195.53,7.68Z"/><path class="cls-19" d="M136.12,28a2.5,2.5,0,0,1-2.14,2c-1.17.18-1.86-1-2-1.89-.18-1.36,1.18-1.93,2.18-2.06C135.41,26,135.37,27.52,136.12,28Z"/><path class="cls-32" d="M29.4,82.67c-.41.71.17,2.29-1.29,2.21-.89,0-2.49,0-2.33-1.72.11-1.15.35-2.24,2-2.12C28.79,81.11,29.53,81.33,29.4,82.67Z"/><path class="cls-33" d="M42.1,167.7c-.36.83,0,2.44-1.59,2.33-.9-.06-2.07-.51-2.07-1.79s.53-2.12,2-2.09C41.48,166.18,42.27,166.31,42.1,167.7Z"/><path class="cls-19" d="M141.75,24.88a2.17,2.17,0,0,1-2.24,1.67c-1.25.1-1.7-1.2-1.77-2.07-.12-1.41,1.36-1.82,2.31-1.85C141.21,22.61,141.23,24.06,141.75,24.88Z"/><path class="cls-19" d="M126.9,99c-.49,1.15-1.22,2.07-2.2,2.07a2,2,0,1,1,.19-4C126,97.13,126.23,98.43,126.9,99Z"/><path class="cls-29" d="M232.14,136.32c-.06,1.19-.53,1.9-1.87,1.8-1.1-.08-2.07-.23-1.92-1.68.11-1.1.42-2,1.84-1.8C231.21,134.79,232.28,134.84,232.14,136.32Z"/><path class="cls-34" d="M230.14,141.14c1.67-.22,1.93.64,2.07,1.76.23,1.81-1.12,1.6-2.15,1.74-1.54.21-1.46-1.06-1.62-2C228.16,141,229.63,141.45,230.14,141.14Z"/><path class="cls-35" d="M31.41,171c-.57.79-.69,2.18-1.85,2a2.41,2.41,0,0,1-2.14-2.23c0-1.17,1.18-1.66,2.11-1.69S31.24,169.91,31.41,171Z"/><path class="cls-19" d="M145.79,23.91c-1.58-.14-1.72-1.31-1.85-2.2-.21-1.41,1.15-1.52,2-1.66,1.69-.27,1.6,1.37,1.74,2.26C147.93,23.78,146.16,23.16,145.79,23.91Z"/><path class="cls-22" d="M251.66,145.47c-.9.89-1,2.48-2.55,2-.73-.21-2-.5-1.5-1.8.31-.87.31-2.26,1.81-1.93A2.9,2.9,0,0,1,251.66,145.47Z"/><path class="cls-19" d="M204.43,40.59a2.26,2.26,0,0,1,1.81,2.14c.18,1.44-1.39,1.88-2.26,1.94s-1.64-1.22-1.66-2.2C202.3,41.26,203.55,41.06,204.43,40.59Z"/><path class="cls-19" d="M122.46,42.65c-.52.82-.65,2.26-1.81,2.09-.9-.13-2.47-.45-2.22-1.94.15-.88.61-2.18,1.89-2A2.33,2.33,0,0,1,122.46,42.65Z"/><path class="cls-26" d="M6.48,84.38c1.45-.21,1.8.9,2,1.82.29,1.28-.93,2-1.76,2.07-1.65.23-1.87-1.47-2.09-2.52S5.79,84.73,6.48,84.38Z"/><path class="cls-21" d="M13.37,91.24c-.36.78-.17,2.27-1.7,1.8-.94-.29-2.49-.5-2.26-1.9.15-.92.81-2.27,2.23-1.93C12.53,89.42,13.64,89.8,13.37,91.24Z"/><path class="cls-27" d="M20.34,92.47c.06,1.55-1.18,1.32-2.12,1.49-1.45.26-1.66-.57-1.72-1.77-.06-1.38.65-1.69,1.81-1.86C20.1,90.06,19.93,91.47,20.34,92.47Z"/><path class="cls-26" d="M28.47,76.26c.16,1.6-1.21,1.49-2,1.72-1.45.39-1.58-1-1.8-1.85-.34-1.29.91-1.8,1.78-2C27.94,73.85,27.92,75.43,28.47,76.26Z"/><path class="cls-19" d="M200.5,39.31a2.55,2.55,0,0,1-2.11-2.11,2.17,2.17,0,0,1,2.24-2,2.22,2.22,0,0,1,1.77,2.17C202.4,38.5,201.11,38.7,200.5,39.31Z"/><path class="cls-36" d="M23.87,71c-.59,1-.94,2.22-2,2.22-.85,0-2.21-.33-2.09-1.66.08-.89,0-2.34,1.44-2.27A3.24,3.24,0,0,1,23.87,71Z"/><path class="cls-19" d="M114,63.39c-1.16-.06-2.21-.1-2.1-1.59.07-1,.13-2.11,1.6-2,1.1.09,2.39.05,2.19,1.75C115.57,62.61,115.32,63.61,114,63.39Z"/><path class="cls-31" d="M26.66,88.75a3.26,3.26,0,0,1-2.21,2.37c-1.19.26-1.74-1-1.92-2a1.88,1.88,0,0,1,1.76-2.06C25.33,87,26.06,87.89,26.66,88.75Z"/><path class="cls-35" d="M27.54,162.67c1,.53,2.26.71,2,2.28-.22,1.21-1,1.62-2.15,1.57s-1.6-.62-1.37-1.72C26.2,163.88,26.14,162.73,27.54,162.67Z"/><path class="cls-31" d="M8.83,71c.92.65,1.81,1.37,1.73,2.43a1.87,1.87,0,0,1-2,1.81c-.89-.13-2.18-.67-2-1.89S7.89,71.62,8.83,71Z"/><path class="cls-19" d="M122.81,93.65a2.2,2.2,0,0,1-2,2c-1.45.28-1.87-1.21-2-2.14-.15-1.18,1.21-1.59,2.1-1.76C122.22,91.49,122.27,92.91,122.81,93.65Z"/><path class="cls-19" d="M200,101.1c-.87-.52-2-1.06-2-2.08S199,96.9,200,97s2.37.72,2.11,2.09A2.67,2.67,0,0,1,200,101.1Z"/><path class="cls-19" d="M159.06,21c-1.33.2-1.71-.5-1.85-1.69-.15-1.37.54-1.71,1.69-1.85,1.33-.16,1.77.43,1.84,1.66S160.3,21,159.06,21Z"/><path class="cls-27" d="M232.08,132c-.7-.58-2.29-.09-2.17-1.56.08-.9.27-2.32,1.54-2.21.93.08,2.41.34,2.19,1.95C233.53,131,233.33,132,232.08,132Z"/><path class="cls-35" d="M272.47,26a2.31,2.31,0,0,1-2.22,1.68,1.63,1.63,0,0,1-1.79-1.89c.14-.86.43-2.25,1.71-2A3.32,3.32,0,0,1,272.47,26Z"/><path class="cls-33" d="M241.33,119.44c-.71,1-1.16,2.17-2.28,2-.94-.17-2.1-1-2-2s1.12-2.2,2.29-2C240.12,117.64,240.7,118.78,241.33,119.44Z"/><path class="cls-19" d="M117,55c-.31,1-.35,2.18-1.89,1.82-.95-.23-2.24-.15-1.85-1.71.22-.88.2-2.26,1.76-1.84C115.93,53.46,117.18,53.49,117,55Z"/><path class="cls-33" d="M251.4,111.86a2.33,2.33,0,0,1-2.3,1.64,2.17,2.17,0,0,1-1.67-2.25c0-1.13,1.29-1.7,2.21-1.64C250.72,109.68,251,111,251.4,111.86Z"/><path class="cls-19" d="M185.09,26.59c-.81-.47-2.2-.47-2.08-1.74.08-.87.36-2.26,1.56-2.22,1,0,2.42.37,2.3,1.81A2.23,2.23,0,0,1,185.09,26.59Z"/><path class="cls-19" d="M209.4,83.15c-.78-.36-2.1-.25-1.84-1.76.17-1,.37-2.06,1.82-1.79,1,.18,2.11.25,1.86,1.73C211.07,82.33,210.94,83.41,209.4,83.15Z"/><path class="cls-37" d="M7.33,79.88c0,.89-.72,1.41-2.1,1.38-1.17,0-1.67-.5-1.46-1.6.17-.89-.09-2.26,1.39-2.15C6.18,77.6,7.5,77.73,7.33,79.88Z"/><path class="cls-27" d="M263,35c-.4.85-.49,2.26-1.72,2.12a2.6,2.6,0,0,1-2.22-2.27c-.07-1.2,1.26-1.54,2.19-1.6S262.86,34,263,35Z"/><path class="cls-19" d="M117.18,46.77c.8.46,2.2.4,2,1.78-.13.88-.34,2.2-1.73,2-.86-.15-2.26-.17-2-1.62C115.61,48,115.79,46.83,117.18,46.77Z"/><path class="cls-19" d="M207.31,50.5a2,2,0,0,1-1.83-2.2c0-1.28,1.27-1.56,2.15-1.6,1.27-.05,1.45,1.26,1.54,2.16C209.34,50.31,207.8,49.92,207.31,50.5Z"/><path class="cls-19" d="M212.61,74.65c-.11,1.12-.18,2.15-1.7,1.87-1-.18-2-.18-1.88-1.68.11-1.08.24-2,1.7-1.79C211.69,73.22,212.82,73.23,212.61,74.65Z"/><path class="cls-19" d="M167.51,18.72c-.26,1.11-.15,2.28-1.61,2.28-1.09,0-2-.19-1.93-1.61.07-1-.17-2.17,1.44-2C166.34,17.54,167.49,17.42,167.51,18.72Z"/><path class="cls-19" d="M126.3,37.1c-.35,1-.87,2.12-1.9,2.15a2.11,2.11,0,0,1-2.17-1.77,2.15,2.15,0,0,1,1.83-2.13C125.16,35.21,125.78,36.21,126.3,37.1Z"/><path class="cls-19" d="M209.36,56.66c-1.49.06-1.62-1-1.61-2,0-1.38,1.24-1.46,2.16-1.56,1.52-.16,1.42,1.26,1.51,2.1C211.58,56.67,210.22,56.43,209.36,56.66Z"/><path class="cls-19" d="M210.85,59.79c1.37-.28,1.7.53,1.84,1.67.17,1.42-.73,1.64-1.79,1.79-1.33.18-1.72-.52-1.82-1.7C209,60.16,209.72,59.82,210.85,59.79Z"/><path class="cls-19" d="M115.2,68.38c.13,1.46-.79,1.63-1.9,1.68-1.39.07-1.64-.74-1.69-1.88-.06-1.44.78-1.58,1.91-1.59C114.83,66.58,115.37,67.15,115.2,68.38Z"/><path class="cls-32" d="M211.66,146.21c1.48-.08,1.63,1.1,1.81,2,.29,1.41-1,1.66-1.9,1.79-1.32.18-1.59-1.11-1.78-2C209.47,146.56,210.95,146.71,211.66,146.21Z"/><path class="cls-38" d="M217.42,147.67c-1.33-.19-1.43-1.31-1.58-2.21-.24-1.45,1.1-1.56,2-1.67,1.67-.22,1.61,1.34,1.71,2.29C219.68,147.49,218.13,147.12,217.42,147.67Z"/><path class="cls-27" d="M231.79,151.05a2.39,2.39,0,0,1-1.58-2.32c0-1.32,1.39-1.41,2.24-1.51,1.33-.17,1.62,1.23,1.57,2.08C234,150.39,232.7,150.63,231.79,151.05Z"/><path class="cls-27" d="M223.81,145.68c-1.51.11-1.58-1-1.71-2-.2-1.49,1-1.44,2-1.59,1.56-.24,1.45,1,1.6,1.94C225.94,145.58,224.7,145.48,223.81,145.68Z"/><path class="cls-19" d="M152.46,21.86c-1.52.27-1.75-.73-1.92-1.76-.2-1.19.52-1.52,1.51-1.69,1.27-.22,1.82.29,2,1.54S153.52,21.75,152.46,21.86Z"/><path class="cls-33" d="M207.88,151.3a2,2,0,0,1-2,1.8c-1.19,0-1.69-1.14-1.8-2-.15-1.21,1.1-1.63,2-1.74C207.3,149.16,207.39,150.5,207.88,151.3Z"/><path class="cls-22" d="M262.94,106.13c0,1.65-1.22,1.83-2.1,1.83-1.28,0-1.41-1.31-1.52-2.23-.18-1.47,1.23-1.43,2.06-1.52C262.87,104.05,262.45,105.59,262.94,106.13Z"/><path class="cls-22" d="M245.14,143.38c-.42.72-.09,2.22-1.54,2-.79-.11-2.29.08-2.08-1.51.12-.89-.09-2.29,1.47-2.09C243.86,141.91,245.15,141.78,245.14,143.38Z"/><path class="cls-33" d="M236.64,141c1.17,0,2,.28,1.9,1.7-.09.91-.07,1.85-1.42,1.77-1-.06-2.07,0-2.06-1.52C235.06,141.79,235.2,140.86,236.64,141Z"/><path class="cls-14" d="M253.28,154.77c.79.4,2.15.25,2,1.47-.16,1-.75,2.39-2.09,2.22a2.07,2.07,0,0,1-1.69-2.21C251.57,155.46,252.1,154.52,253.28,154.77Z"/><path class="cls-38" d="M243.1,157.82c-.52.59-.09,2.22-1.68,1.76-.84-.24-2.22-.33-1.92-1.73.18-.88.48-2.13,1.81-2C242.26,156,243.32,156.33,243.1,157.82Z"/><path class="cls-19" d="M190.92,30.15c-1-.51-2.26-.82-2.21-2,0-.94.69-2.14,1.79-2.1a2.13,2.13,0,0,1,2.12,1.82C192.65,28.94,191.72,29.58,190.92,30.15Z"/><path class="cls-19" d="M198,32a2.88,2.88,0,0,1-2,2.29,2,2,0,0,1-2.13-1.72,2.15,2.15,0,0,1,1.92-2.32C196.55,30.21,197.33,31.38,198,32Z"/><path class="cls-22" d="M243.9,117.2a2.5,2.5,0,0,1-1.86-2.13,2.07,2.07,0,0,1,2-1.85c1,0,1.72,1.11,1.79,2.07C246,116.45,244.85,116.83,243.9,117.2Z"/><path class="cls-1" d="M218.23,120.52c-1.54.17-1.6-.77-1.6-1.89s.72-1.41,1.72-1.43c1.27,0,1.79.49,1.78,1.77S219.32,120.62,218.23,120.52Z"/><path class="cls-19" d="M207.26,89.6c-.79-.5-2.2-.44-2-1.82.14-.89.36-2.23,1.75-1.94.83.17,2.26.2,2,1.66C208.83,88.39,208.61,89.53,207.26,89.6Z"/><path class="cls-37" d="M265.74,24.56c.1.88-.58,1.47-1.8,1.45a2,2,0,0,1-2-2.28c0-1.2,1.43-1.15,2.39-1.31C265.8,22.18,265.67,23.24,265.74,24.56Z"/><path class="cls-21" d="M236.94,124.35c-.49.83-.7,2.13-1.88,2-.87-.11-2.12-.61-2.06-1.78,0-.93.64-2.08,1.79-2A2.48,2.48,0,0,1,236.94,124.35Z"/><path class="cls-19" d="M172.44,21.9c-.88-.22-2.13-.16-1.92-1.67.14-1,.2-2.16,1.75-1.86.85.16,2,.08,1.79,1.42C173.91,20.67,174.08,22,172.44,21.9Z"/><path class="cls-31" d="M238,154c-.33,1-.89,2-1.85,2.22s-1.92-.84-2.16-1.73c-.31-1.17.89-1.82,1.75-2.08C236.83,152.07,237.35,153.22,238,154Z"/><path class="cls-37" d="M36,170.79A2.16,2.16,0,0,1,37.73,173c.05,1.28-1.36,1.18-2.28,1.39-1.39.32-1.36-.67-1.41-1.59C34,171.63,34.43,170.89,36,170.79Z"/><path class="cls-19" d="M117.24,81.81c-.26,1.29-1.37,1.43-2.3,1.46-1.41,0-1.42-1.37-1.46-2.19-.08-1.35,1.31-1.3,2.19-1.37C117.1,79.6,116.95,80.92,117.24,81.81Z"/><path class="cls-37" d="M273.85,31.8c-.22.89-.1,2.28-1.33,2.34a2,2,0,0,1-2.3-1.94,1.61,1.61,0,0,1,1.87-1.83C273.05,30.39,273.95,30.4,273.85,31.8Z"/><path class="cls-19" d="M117.75,85.79A2,2,0,0,1,119.47,88c0,1.24-1.2,1.61-2.12,1.64-1.26,0-1.5-1.22-1.57-2.14C115.69,86.12,117.18,86.4,117.75,85.79Z"/><path class="cls-32" d="M247.53,157.32c1.4-.1,1.65.84,1.83,1.93s-.41,1.66-1.5,1.67-2.16.07-2-1.52C246,158.37,246.07,157.29,247.53,157.32Z"/><path class="cls-39" d="M93.07,68c1.42-.11,2,.48,1.92,1.78s-.82,1.46-1.81,1.46-1.76-.22-1.78-1.48S91.85,67.85,93.07,68Z"/><path class="cls-31" d="M201.61,156.49c-2.58.84-2.72-.73-2.56-2.59.91-.52,1.66-1.56,2.83-.16C202.86,154.91,202.5,155.65,201.61,156.49Z"/><path class="cls-19" d="M178.61,20c.86.44,2.3.35,1.93,1.85-.21.86-.28,2.28-1.8,1.85-.75-.21-2-.26-1.75-1.61C177.16,21.15,177.16,20,178.61,20Z"/><path class="cls-38" d="M40.59,87.43c.89.34,1.72.9,1.77,1.81a2,2,0,0,1-1.84,2,1.81,1.81,0,0,1-1.95-1.84C38.6,88.39,39.59,87.78,40.59,87.43Z"/><path class="cls-24" d="M253.76,148.32c1.54.14,1.67,1.26,1.84,2.21.25,1.45-1,1.19-1.79,1.36-1.22.25-1.65-.6-1.78-1.52C251.81,149,253.2,149,253.76,148.32Z"/><path class="cls-19" d="M213.07,68c.06,1-.09,1.85-1.37,1.82-1,0-2.1,0-2.08-1.51,0-1,.1-1.8,1.39-1.79C212.08,66.52,213.14,66.44,213.07,68Z"/><path class="cls-14" d="M255,106.65c1.42-.07,1.55,1,1.77,1.77.4,1.47-.84,1.76-1.77,1.91-1.15.18-1.49-.93-1.7-1.76C252.95,107.08,254.42,107.17,255,106.65Z"/><path class="cls-23" d="M73,85.79c1-.05,1.8.2,1.63,1.44s-1.15,1.11-2,1.11S71.12,88,71.13,87C71.14,85.63,72.12,85.83,73,85.79Z"/><path class="cls-40" d="M164.17,224.06c5.95,6.58,11.27,12.27,16.34,18.16,3.95,4.58,3.83,4.75,9.48,2.79,13.35-4.62,26.7-9.25,40-14,2.58-.92,3.58-.75,3.55,2.37-.13,12.68-.1,25.36,0,38,0,2.18-.72,3.19-2.77,3.89q-27.58,9.5-55.09,19.18c-2.88,1-5.81,1.9-8.61,3.11-2.61,1.13-3,.16-2.94-2.24.09-13.7,0-27.4,0-41.1C164.17,244.57,164.17,234.86,164.17,224.06Z"/><path class="cls-40" d="M160.08,224.61a3.73,3.73,0,0,1,.66,3c0,22.43,0,44.87.07,67.3,0,3-.53,3.61-3.57,2.53q-30.86-11-61.85-21.56c-2.87-1-4.1-2.21-4-5.47.22-12.35.16-24.7,0-37,0-2.71.49-3.27,3.16-2.33,13.76,4.88,27.61,9.48,41.33,14.44,3.1,1.12,5,.53,7-1.83C148.45,237.26,154.23,231.05,160.08,224.61Z"/><path class="cls-41" d="M95.57,194.29c1.36-1.26,3-1.47,4.45-2,19.11-6.7,38.25-13.32,57.33-20.1,2.83-1,3.41-.45,3.37,2.43-.13,11.1-.07,22.2,0,33.3,0,1.22-.59,2.9,1.71,2.9s1.7-1.68,1.71-2.9q0-17,0-34c0-1.66-.11-2.89,2.33-2,20.49,7.22,41,14.33,61.52,21.5a9,9,0,0,1,1.41.87l-20.95,7.32q-21.63,7.55-43.25,15.12a7,7,0,0,1-4.92.26q-31.7-11.15-63.43-22.19C96.42,194.66,96.05,194.49,95.57,194.29Z"/><path class="cls-40" d="M233.49,211.88c0,4-.07,7.93,0,11.88a3,3,0,0,1-2.27,3.26q-21.78,7.57-43.54,15.19c-1.09.38-2,.68-3-.47-5.86-6.59-11.75-13.15-17.78-19.59-2.13-2.27-.26-2.42,1.2-2.93l49.33-17.12c4.38-1.52,8.77-3,13.1-4.65,2.34-.89,3-.14,2.95,2.2C233.42,203.72,233.5,207.8,233.49,211.88Z"/><path class="cls-40" d="M91.42,211.61c0-4.07.1-8.15,0-12.22-.07-2.21.48-2.8,2.68-2q24.13,8.53,48.3,16.92c4.48,1.56,8.93,3.21,13.46,4.62,2.49.77,3.64,1.33,1.28,3.84-5.73,6.08-11.26,12.36-16.82,18.61a2.75,2.75,0,0,1-3.51.82c-13.52-4.8-27.05-9.58-40.65-14.14-3.43-1.15-5.31-2.59-4.78-6.58C91.76,218.22,91.42,214.9,91.42,211.61Z"/><path class="cls-42" d="M88,199.68c0,7.78,0,15.56,0,23.34,0,1.32-.37,2-1.78,1.46-4.9-1.73-9.8-3.47-14.72-5.17-1.15-.4-1.51-.89-.6-1.89l16.35-18.07Z"/><path class="cls-41" d="M236.75,198.59c6.17,6.8,11.6,12.81,17.05,18.8.87,1,.7,1.47-.53,1.89-4.91,1.69-9.8,3.44-14.7,5.17-1.35.47-1.84-.05-1.83-1.41C236.77,215.25,236.75,207.47,236.75,198.59Z"/><path class="cls-24" d="M119.49,177.7c-1.05-.59-2.45-1.05-2.52-2.36-.05-.88.8-2.11,1.84-2a2.73,2.73,0,0,1,2.5,2.27C121.43,176.57,120.55,177.33,119.49,177.7Z"/><path class="cls-31" d="M197.94,159.38c-.4,1-1.07,1.92-2.07,1.91a2.28,2.28,0,0,1-2.09-1.86,2,2,0,0,1,1.8-2.06C196.82,157.23,197.36,158.43,197.94,159.38Z"/><path class="cls-14" d="M193.49,164.1c-.18,1-.68,1.85-1.63,1.93a2.09,2.09,0,0,1-2.25-1.65,2,2,0,0,1,1.77-2.12C192.44,162.2,193.12,163.1,193.49,164.1Z"/><path class="cls-36" d="M189.85,169.36c-.43.89-.67,2.08-1.93,2-.86-.08-1.94-.56-2-1.55s.41-2.21,1.62-2.17A2.51,2.51,0,0,1,189.85,169.36Z"/><path class="cls-1" d="M200.6,47.82a42.76,42.76,0,0,0-48-21.84c-16.89,4-27.94,14.79-32.17,31.58-4.18,16.56.72,30.91,13.15,42.52,6,5.58,9.79,12.12,10.59,20.25.18,1.79,1.48,4.24-1.79,5.28-.69.22-1.14,2.56,1,2.95a18.33,18.33,0,0,0,2.37.14c1.23,1,2.71,1,4.18,1,8.23,0,16.45,0,24.68,0a8.13,8.13,0,0,0,4.53-1.08c1.08-.42,2.65.7,3.29-.86.31-.75.53-2.28-.37-2.43-2.85-.48-1.78-2.52-1.7-3.95.53-8.7,4.44-15.68,10.85-21.52A42.68,42.68,0,0,0,200.6,47.82ZM189.3,97c-7.65,7.06-12.18,15.37-12.29,25.87,0,4.06-3,1.82-4.7,2.27-1.94.52-2.9-.29-2.7-2.5s0-4.3,0-6.45,0-4.3,0-6.46c0-1.11.25-2.26-1.58-2.3s-1.88,1.1-1.87,2.43c0,4.08-.1,8.16,0,12.23.08,2.23-.36,3.27-2.92,3.15-5.76-.26-4.73.6-4.82-4.93-.05-3.4,0-6.8,0-10.19,0-1.13.49-2.6-1.58-2.67-2.32-.08-1.76,1.57-1.77,2.8,0,4.19-.16,8.39,0,12.57.13,2.82-1.67,2.56-3.3,2.32s-4,1.41-4.08-2.17c-.23-10.42-4.56-18.9-12.31-25.88a39.44,39.44,0,0,1-9.07-46.35,40.11,40.11,0,0,1,42.82-22c16.9,2.71,30.42,16.86,32.53,34.24C203.39,76.4,199.19,87.88,189.3,97Z"/><path class="cls-19" d="M243.87,62.09c0,1.57,0,3.15,0,4.72,0,1.1-.09,2-1.57,2-1.29,0-1.84-.54-1.83-1.81q0-4.72,0-9.45c0-1.25.51-1.84,1.81-1.85,1.46,0,1.6.88,1.59,2C243.86,59.16,243.87,60.63,243.87,62.09Z"/><path class="cls-19" d="M242.37,71.29c1.52-.11,1.51.92,1.52,2s-.62,1.53-1.68,1.5c-1.24,0-1.78-.64-1.77-1.88S241.23,71.2,242.37,71.29Z"/><path class="cls-1" d="M94,127.77c-2.35.39-2.68-1.09-3.27-2.85-.65-2-.13-3,1.62-3.67,1.27-.51,1.28-1.27.6-2.4s-1.44-1.37-2.43-.53c-1.61,1.38-2.53.47-4-.6-2.55-1.89-1.11-3.39-.12-5,.14-1.21-.9-1.25-1.49-1.63-1.1-.71-1.73.08-2.07,1-.77,2-2.06,1.87-3.82,1.39s-2.95-.94-2.56-3.07c.22-1.24-.4-1.87-1.72-1.88s-1.87.73-1.64,1.92c.41,2.13-.81,2.58-2.54,3s-3.06.61-3.79-1.42c-.49-1.36-1.3-1.52-2.59-.75s-1.19,1.49-.45,2.44c1.06,1.36,1.17,2.43-.37,3.68-1.33,1.07-2.26,2.66-4.18,1-.89-.76-1.72-.87-2.49.37s-.49,2.06.8,2.64,2.26,1.26,1.46,3.08c-.7,1.59-.44,3.78-3.23,3.29-1.22-.22-1.85.3-1.83,1.69,0,1.54,1,1.65,2,1.5,2.56-.34,2.35,1.64,3,3.16.74,1.74.1,2.5-1.34,3.14-1.19.53-1.79,1.17-.95,2.6s1.82,1.09,2.76.32c1.87-1.52,2.68.1,3.89,1.06,1.47,1.17,1.63,2.24.48,3.65-.92,1.12-.71,1.91.61,2.64s1.88.36,2.34-.77c.65-1.58,1.53-2.26,3.39-1.65s3.49.86,3,3.38c-.21,1,.26,1.71,1.49,1.7s2-.41,1.86-1.75c-.27-2,.52-2.7,2.43-3.18s3.24-.53,4.05,1.54c.51,1.29,1.37,1.11,2.46.57,1.38-.68,1.11-1.48.42-2.38-1-1.35-1.28-2.44.37-3.64,1.31-1,2.16-2.85,4.15-1.09,1.09,1,1.9.72,2.67-.58s.18-1.88-.87-2.34c-1.59-.7-2.08-1.63-1.48-3.44s.83-3.3,3.21-2.95c1.2.18,1.9-.35,1.85-1.74A1.34,1.34,0,0,0,94,127.77Zm-19.12,14.7A13.13,13.13,0,1,1,88.05,129.3,13.17,13.17,0,0,1,74.91,142.47Z"/><path class="cls-7" d="M193.33,284.37c.12,1.17-.74,1.29-1.48,1.56-6,2.16-12.08,4.33-18.14,6.46-1,.36-2.1.93-2.71-.78s.45-2.16,1.66-2.58c6.06-2.12,12.13-4.19,18.18-6.36C192.68,282,192.93,283.24,193.33,284.37Z"/><path class="cls-9" d="M173,286.15c-1.54.15-1.78-.78-2.15-1.59-.46-1,.05-1.38.93-1.68,2.75-1,5.48-2,8.21-3,1.06-.39,1.75-.15,2,1,.15.68,1,1.56-.16,2C178.78,284.09,175.71,285.15,173,286.15Z"/><path class="cls-5" d="M119.45,274.4c0,6.69,0,6.72-6.35,4.54-4.69-1.62-9.35-3.34-14-5a6.55,6.55,0,0,1-1.83-.84c-.63-.49-.73-11.41-.19-12,.69-.78,1.44-.31,2.16-.06,6.08,2.11,12.14,4.28,18.24,6.31a2.6,2.6,0,0,1,2,3C119.39,271.69,119.44,273,119.45,274.4Z"/><path class="cls-10" d="M99.89,254.66c2.55.93,5.11,1.83,7.64,2.81.9.35,1,1.15.68,2a1.47,1.47,0,0,1-1.86,1.07c-2.58-.84-5.12-1.77-7.68-2.66-.85-.29-.93-.85-.59-1.59S98.65,254.47,99.89,254.66Z"/><path class="cls-8" d="M131.43,191.57c.52.28,1.12.59,1.71.92,3.64,2,7.26,4.07,10.91,6.07,1,.56,1.61,1.11.94,2.37s-1.46,1.39-2.7.68c-3.9-2.24-7.85-4.4-11.79-6.58-.89-.49-1.49-1.07-.81-2.12C130.09,192.3,130.25,191.36,131.43,191.57Z"/><path class="cls-43" d="M199.18,191.33c.2.87-.49,1.14-1.07,1.47-2.76,1.56-5.55,3.06-8.28,4.68-1.29.77-2,.47-2.67-.8-.78-1.42.19-1.77,1.09-2.28,2.67-1.49,5.37-2.93,8-4.52C198.09,188.76,198.58,190,199.18,191.33Z"/><path class="cls-23" d="M174,187.51c-1.26,1.12-.28,4-2.92,4.11-.71,0-2.4-.3-1.77-1.74s.49-3.77,2.67-4.15A1.67,1.67,0,0,1,174,187.51Z"/><path class="cls-25" d="M182.09,183c-.73-.46-2.24-.24-1.9-1.73.19-.83.15-2.34,1.61-2,.92.19,2.48.26,2.16,1.92C183.79,182,183.6,183.21,182.09,183Z"/><path class="cls-33" d="M180.61,193.6c0,1.44-.69,1.87-2,1.76-1.08-.09-1.7-.4-1.55-1.62s.32-2,1.77-1.86C180,192,180.92,192.27,180.61,193.6Z"/><path class="cls-36" d="M178.11,198.39c1.14,0,2,.27,1.91,1.7a1.87,1.87,0,0,1-1.83,2c-1.3.09-1.76-.66-1.78-1.89S176.7,198.19,178.11,198.39Z"/><path class="cls-32" d="M179.89,185.41c.89.4,2.26.14,2.07,1.68-.12,1-.18,2.15-1.63,2-1-.1-2.15-.19-2-1.66C178.49,186.52,178.46,185.34,179.89,185.41Z"/><path class="cls-19" d="M162.82,79q.08-15.62.17-31.24a23.07,23.07,0,0,1,.16-3.72,7.88,7.88,0,0,1,5.64-6.59,7.42,7.42,0,0,1,8.31,2.28,5.68,5.68,0,0,0,4.25,2.19c2.09.13,4.58,1.14,5,3,1.21,5.56,9.15,7.27,7.79,14a5.44,5.44,0,0,0,1.09,4.6,7.45,7.45,0,0,1-.29,9.17,4.23,4.23,0,0,0-.85,3.68,7.71,7.71,0,0,1-4.25,8.79,3.4,3.4,0,0,0-1.87,2.52c-.9,3.65-3.29,5.93-7.12,6.22a4.38,4.38,0,0,0-3.34,1.82,7.86,7.86,0,0,1-9.17,2.45,8.19,8.19,0,0,1-5.32-8c0-3.05-.11-6.11-.16-9.16A1.49,1.49,0,0,1,162.82,79Z"/><path class="cls-19" d="M161.64,91.91c-2.6,7.62-9.4,9.19-14.8,3.34A2.92,2.92,0,0,0,144.28,94a3.31,3.31,0,0,1-.68,0c-2.26-.26-4.85-1.2-5.27-3.17-1.18-5.58-9.21-7.22-7.79-14,.36-1.7.37-3.07-1-4.3a2.92,2.92,0,0,1-.52-.87c-.88-1.79-1.72-4.14-.58-5.52,3.76-4.55-.42-12.19,6.19-15.41a3.49,3.49,0,0,0,2.13-2.76c.34-1.86,1.25-3.82,2.9-4.37,4.24-1.4,7.63-4.32,11.6-6,4.3-1.88,8.23.78,10.29,6.13.51,4.27.23,8.55.2,12.82C161.73,68.27,162.18,80.09,161.64,91.91Z"/><path class="cls-19" d="M67.54,129.41c0-4.5,2.91-7.57,7.25-7.58a7.49,7.49,0,1,1,.17,15C70.6,136.88,67.56,133.85,67.54,129.41Z"/><path class="cls-44" d="M116,273.54c.41,2.34-.55,2.72-2.6,1.93-3.57-1.36-7.21-2.57-10.81-3.87a4.21,4.21,0,0,1-2.31-5.4c.46-1.08,1.21-.81,1.94-.55,4,1.43,8,2.9,12.08,4.31C116.14,270.59,116.13,272,116,273.54Z"/><path class="cls-45" d="M166.43,85.78c-.12-3.94-.87-8.14,4.21-9.93.74-.26.58-1.42.35-2.19-.33-1.06-1.29-.94-2-.64-2.73,1.22-2.75-.44-2.69-2.36,0-1.59,0-3.17,0-4.76,0-2.09-.59-4.68,3.13-3.2a1.12,1.12,0,0,0,1.56-.88c.2-1,.09-1.92-1-2.25-3.62-1.16-3.82-4-3.73-7.12.07-2.38-.05-4.76,0-7.14.11-2.77,1.67-4.53,4.38-4.77a4.39,4.39,0,0,1,4.93,3.33c.65,2.46-.17,4.61-2.67,5.55-1.58.6-2.43,1.48-1.7,3s2.19.74,3.26.25a7.79,7.79,0,0,0,4.6-5.54c.2-.9.3-2,1.53-1.82a4.65,4.65,0,0,1,3.8,3c.47,1.23-.66,1.44-1.4,1.92-.93.6-2.72.79-2,2.46s2.12,1.31,3.7.75a4.37,4.37,0,0,1,5.92,3.79c.09,1.07.26,2.09-1.28,2.71-2.22.9-1.68,2.27,0,3.31,4.83,2.91,4.83,6.17-.12,9.26-1.58,1-1.8,2.73-.52,3.13,2.57.79,2.13,2.41,1.67,3.94a4,4,0,0,1-4.14,2.89,5.54,5.54,0,0,1-2.31-.38,2.07,2.07,0,0,0-3.1,1.07c-.68,1.38.91,1.5,1.57,2.13s2.27.33,2,1.87A3.85,3.85,0,0,1,182.27,90c-1.51.71-2.71,1-3.19-1.28a7.33,7.33,0,0,0-4.85-5.7c-1-.36-2.25-1.27-2.94.21a2,2,0,0,0,1.3,3,4.6,4.6,0,0,1,3.21,3.63,4.66,4.66,0,0,1-3.57,5.39,4.85,4.85,0,0,1-5.76-4A37.59,37.59,0,0,1,166.43,85.78Z"/><path class="cls-45" d="M158.19,50.11c0,1.25-.05,2.5,0,3.74.14,2.65-.71,4.69-3.35,5.65a1.79,1.79,0,0,0-1.36,2.33c.33,1.29,1.44,1.11,2.2.81,2.47-1,2.6.41,2.52,2.24-.07,1.47,0,2.95,0,4.42,0,2.2.82,5.25-3.4,3.61-.7-.27-1.31.24-1.35,1.08s-.2,1.9,1,2.19c3.46.81,3.8,3.4,3.74,6.31-.06,2.72,0,5.44,0,8.16s-1.47,4.31-4.1,4.58a4.52,4.52,0,0,1-5-3.22c-.9-2.42.19-4.16,2.15-5.48.46-.31,1.05-.45,1.52-.76,1.08-.73.85-1.86.46-2.74s-1.36-.47-2.1-.23a8.26,8.26,0,0,0-5.5,5.56c-.29.85-.11,2.33-1.68,2.06a4.65,4.65,0,0,1-3.74-3.11c-.64-1.7,1-1.38,1.69-1.88.86-.61,2.45-.84,1.78-2.36-.59-1.31-1.74-1.32-3.16-.88-2.61.8-5,.37-6.2-2.52-.62-1.5-1.14-2.84,1.06-3.85,1.85-.85,1.42-2.21-.18-3.28-4.94-3.28-4.92-6.12.1-9.24,1.58-1,1.66-2.6.39-3.16-2.29-1-2.17-2.31-1.41-4a4.68,4.68,0,0,1,4.9-2.93,3.37,3.37,0,0,1,1.6.49c1.48,1,2.44.09,3.06-1,.8-1.43-.82-1.5-1.48-2.07s-2.31-.4-2.22-1.71a3.81,3.81,0,0,1,2.38-3.1c1.54-.74,2.69-.82,3.16,1.35a7.57,7.57,0,0,0,5.25,5.76c.81.28,1.94.74,2.36-.4s.62-2.22-.94-2.79c-2.23-.82-3.67-2.46-3.45-4.88a4.43,4.43,0,0,1,4.76-4.36,4.34,4.34,0,0,1,4.54,4.19c.17,1.8,0,3.62,0,5.44Z"/><path class="cls-19" d="M182.53,76.11c0,.73-.06,1.39-1,1.44s-1.94.35-2.32-.76a6.26,6.26,0,0,0-3.92-3.86c-1.27-.52-1-1.66-.79-2.59.33-1.25,1.38-.85,2.22-.64C179.28,70.3,182.51,73.91,182.53,76.11Z"/><path class="cls-19" d="M182.53,59.63c-.11,2.64-3.46,6.21-6.09,6.46-.77.07-1.68.27-1.91-.8-.18-.85-.47-2.06.58-2.36,2.29-.66,3.45-2.25,4.41-4.25.37-.77,1.34-.7,2.13-.58S182.58,58.92,182.53,59.63Z"/><path class="cls-19" d="M144.15,77.58c-1.85,0-1.85-1-1.72-2.06.31-2.56,3.66-5.82,6.15-6,.8-.05,1.66-.12,1.83.95.12.76.38,1.83-.45,2.13A7,7,0,0,0,145.28,77C145.16,77.38,144.36,77.49,144.15,77.58Z"/><path class="cls-19" d="M144.08,58.06a1.5,1.5,0,0,1,1.56,1.07,5.08,5.08,0,0,0,3.65,3.67c1.27.38,1.36,1.45,1.07,2.49-.35,1.24-1.44,1-2.26.75a7.78,7.78,0,0,1-5.64-5.78C142.12,59,142.4,58,144.08,58.06Z"/></svg>