<svg id="Capa_1" data-name="Capa 1" xmlns="http://www.w3.org/2000/svg" viewBox="0 0 62 63.23"><defs><style>.cls-1{fill:#706f6f;}.cls-2{fill:#687d93;}.cls-3{fill:#fff;opacity:0.1;}</style></defs><title>almacenamiento_icon</title><path class="cls-1" d="M7.79,61c0-3.7.06-6.88,0-10.06,0-1.63.52-2.31,2.22-2.26,3.07.09,6.15.1,9.22,0,1.73-.05,2.24.68,2.17,2.29-.12,2.93-.07,5.88-.22,8.81A1.71,1.71,0,0,1,20,60.91C16.06,61,12.16,61,7.79,61Zm1.4-4.75H19.88V50.1H9.19Z"/><path class="cls-1" d="M49.2,48.66c6.56,0,6.57,0,6.55,6.57,0,1.57,0,3.14-.16,4.7,0,.36-.59,1-.92,1-3.75.07-7.51.08-11.26,0a1.54,1.54,0,0,1-1-1.1c-.11-3-.05-6-.15-9.07,0-1.54.54-2.17,2.1-2.08S47.58,48.67,49.2,48.66Zm5.13,1.46H43.74v6H54.33Z"/><path class="cls-1" d="M38.45,60.8H25.11c0-3.54,0-7,0-10.4,0-1.4.64-1.76,1.88-1.74,3.25,0,6.5,0,9.74,0,1.36,0,1.77.59,1.75,1.86C38.42,53.88,38.45,57.25,38.45,60.8ZM26.29,56.18H37.2v-6.1H26.29Z"/><path class="cls-2" d="M42.45,41.73l4.8-1.18-.07-.72,4.4,2.66-4.39,2.69c-1.67-3.09-4.72-.58-6.93-2V34c1.32-.48,2.24-.51,2.2,1.36S42.45,39.12,42.45,41.73Z"/><path class="cls-2" d="M16.28,40.49l4.91,1.32c0-2.47,0-4.38,0-6.29,0-1.73.09-1.73,2.22-1.45v9c-2,1.56-5.13-.91-7,2L12,42.48l4.39-2.63Z"/><path class="cls-2" d="M34.17,42.4l-2.35,3.23-2.24-3a23.16,23.16,0,0,0,1-3.45c.15-1.26-.07-2.56.09-3.82.07-.57.68-1.06,1-1.59.39.5,1.06,1,1.12,1.51.16,1.43-.06,2.9.11,4.33A11.81,11.81,0,0,0,34.17,42.4Z"/><path class="cls-1" d="M50.23,12.38a3.8,3.8,0,0,1-2.74-2.2A9.08,9.08,0,0,0,36.18,5.66a3.39,3.39,0,0,1-3.82-.58C23.17-1.76,10.81,5,10.09,13.15a2.36,2.36,0,0,1-1,1.51C3.91,17.84,3.54,25,8.65,28.2a16.47,16.47,0,0,0,7.42,2.33c5.27.35,10.59.11,15.89.11v.09c5.3,0,10.6.07,15.89,0a9.19,9.19,0,0,0,9.05-7.86A9.3,9.3,0,0,0,50.23,12.38Zm4.12,9.88a8,8,0,0,1-7.79,6.82c-5,.09-9.91,0-14.86,0v0c-4.61,0-9.24.24-13.83-.1a16.94,16.94,0,0,1-7.22-2.15c-4.36-2.6-4-8.57.42-11.07a2.45,2.45,0,0,0,1.09-1.18c2.76-8.4,12.1-12,19.5-7.27A5,5,0,0,0,36.32,8c3.69-1.11,7.36.57,9.53,3.79a5.37,5.37,0,0,0,2.62,1.93A8.1,8.1,0,0,1,54.35,22.26Z"/><path class="cls-3" d="M9.19,56.21V50.1H19.88v6.11Z"/><path class="cls-3" d="M54.33,50.12v6H43.74v-6Z"/></svg>