<svg xmlns="http://www.w3.org/2000/svg" xmlns:xlink="http://www.w3.org/1999/xlink" viewBox="0 0 780 400"><defs><style>.cls-1{fill:url(#radial-gradient);}.cls-2{isolation:isolate;}.cls-3{fill:url(#linear-gradient);}.cls-4{fill:#5f6767;}.cls-5{fill:url(#linear-gradient-2);}.cls-6{fill:url(#linear-gradient-3);}.cls-7{fill:url(#linear-gradient-4);}.cls-8{fill:url(#linear-gradient-5);}.cls-9{fill:url(#linear-gradient-6);}.cls-10{mix-blend-mode:overlay;fill:url(#linear-gradient-7);}.cls-11{mask:url(#mask);}.cls-12{opacity:0.33;fill:url(#linear-gradient-8);}.cls-13{fill:#041e3c;}.cls-14{fill:#ecf0f3;}.cls-15{fill:#e65853;}.cls-16{fill:#ffcf55;}.cls-17{fill:#11d286;}.cls-18{fill:#fff;}.cls-19{fill:#6199af;}.cls-20{opacity:0.9;}.cls-21{fill:#d0d2d3;}.cls-22,.cls-25{mix-blend-mode:multiply;}.cls-23{fill:#dbdbdb;}.cls-24{fill:#58595b;}.cls-25{opacity:0.5;}.cls-26{fill:#959595;}.cls-27{fill:#5d7e95;}.cls-28{fill:#1e3863;}.cls-29{fill:#231f20;}.cls-30{fill:none;}.cls-31{fill:#a7a9ac;}</style><radialGradient id="radial-gradient" cx="342.05" cy="689.52" r="110.61" gradientTransform="translate(-564.44 223.37) scale(2.48 0.11)" gradientUnits="userSpaceOnUse"><stop offset="0" stop-color="#fff"/><stop offset="1" stop-color="#14130a"/></radialGradient><linearGradient id="linear-gradient" x1="382.29" y1="-3.75" x2="184.18" y2="301.3" gradientUnits="userSpaceOnUse"><stop offset="0.01" stop-color="#f2f2f2"/><stop offset="0.36" stop-color="#eee"/><stop offset="0.7" stop-color="#e3e3e3"/><stop offset="1" stop-color="#d3d2d2"/></linearGradient><linearGradient id="linear-gradient-2" x1="33.7" y1="278.53" x2="531.76" y2="278.53" gradientUnits="userSpaceOnUse"><stop offset="0" stop-color="#999c9d"/><stop offset="0" stop-color="#a5a7a9"/><stop offset="0" stop-color="#c2c3c5"/><stop offset="0.01" stop-color="#d9d8da"/><stop offset="0.01" stop-color="#e9e7ea"/><stop offset="0.01" stop-color="#f2f0f3"/><stop offset="0.02" stop-color="#f5f3f6"/><stop offset="0.05" stop-color="#dfe1e3"/><stop offset="0.19" stop-color="#d1d1d1"/><stop offset="0.51" stop-color="#e3e5e7"/><stop offset="0.87" stop-color="#d1d1d1"/><stop offset="0.95" stop-color="#dfe1e3"/><stop offset="0.99" stop-color="#f5f3f6"/><stop offset="1" stop-color="#999c9d"/></linearGradient><linearGradient id="linear-gradient-3" x1="282.74" y1="278.52" x2="282.74" y2="271.47" gradientUnits="userSpaceOnUse"><stop offset="0.34" stop-color="#676b6c"/><stop offset="0.36" stop-color="#707475"/><stop offset="0.46" stop-color="#989b9c"/><stop offset="0.55" stop-color="#b7b9bb"/><stop offset="0.64" stop-color="#cdcfd1"/><stop offset="0.73" stop-color="#daddde"/><stop offset="0.81" stop-color="#dfe1e3"/><stop offset="0.98" stop-color="#e3e5e7"/></linearGradient><linearGradient id="linear-gradient-4" x1="250.44" y1="277.91" x2="250.44" y2="271.31" gradientUnits="userSpaceOnUse"><stop offset="0.02" stop-color="#5f6767"/><stop offset="0.48" stop-color="#676b6c"/><stop offset="0.51" stop-color="#717576"/><stop offset="0.62" stop-color="#878a8b"/><stop offset="0.72" stop-color="#949899"/><stop offset="0.81" stop-color="#999c9d"/></linearGradient><linearGradient id="linear-gradient-5" x1="284.68" y1="278.23" x2="284.68" y2="271.66" xlink:href="#linear-gradient-4"/><linearGradient id="linear-gradient-6" x1="316.3" y1="271.82" x2="316.3" y2="271.66" xlink:href="#linear-gradient-4"/><linearGradient id="linear-gradient-7" x1="222.33" y1="142.16" x2="468.53" y2="142.16" gradientUnits="userSpaceOnUse"><stop offset="0" stop-color="#fff" stop-opacity="0"/><stop offset="0.09" stop-color="#fff" stop-opacity="0.02"/><stop offset="0.22" stop-color="#fff" stop-opacity="0.09"/><stop offset="0.36" stop-color="#fff" stop-opacity="0.2"/><stop offset="0.51" stop-color="#fff" stop-opacity="0.35"/><stop offset="0.68" stop-color="#fff" stop-opacity="0.54"/><stop offset="0.85" stop-color="#fff" stop-opacity="0.77"/><stop offset="1" stop-color="#fff"/></linearGradient><mask id="mask" x="9.87" y="284.74" width="548.91" height="23.45" maskUnits="userSpaceOnUse"><path class="cls-1" d="M558.78,296.46c0,6.48-122.88,11.73-274.46,11.73S9.87,302.94,9.87,296.46s122.87-11.72,274.45-11.72S558.78,290,558.78,296.46Z"/></mask><linearGradient id="linear-gradient-8" x1="284.36" y1="308.18" x2="284.3" y2="284.91" gradientUnits="userSpaceOnUse"><stop offset="0" stop-color="#4d4848"/><stop offset="0.35" stop-color="#14130a"/><stop offset="1" stop-color="#14130a"/></linearGradient></defs><title>Artboard 1</title><g class="cls-2"><g id="Layer_1" data-name="Layer 1"><path d="M468.32,268.09c0,6.32-3.81,11.44-8.51,11.44H105.65c-4.7,0-8.51-5.12-8.51-11.44V40.88c0-6.32,3.81-11.44,8.51-11.44H459.81c4.7,0,8.51,5.12,8.51,11.44Z"/><rect class="cls-3" x="111.93" y="43.17" width="342.61" height="211.21"/><path class="cls-4" d="M33.92,283s-3.09,5.75,18.86,10.55H512.12s15.37-1,19.41-8.23l0-4Z"/><path class="cls-5" d="M34,271.37h497.7v12.78s.74,1.71-5.11,1.28H38.71s-4.58,1.28-5-1.7Z"/><path class="cls-4" d="M508.61,278.83a.83.83,0,0,1-.74.9H490.93a.83.83,0,0,1-.74-.9h0a.83.83,0,0,1,.74-.9h16.94a.83.83,0,0,1,.74.9Z"/><path class="cls-6" d="M249.07,271.47s-1.92,6.39,4.47,7h57.74s6.14.8,5.33-6.82Z"/><path class="cls-7" d="M249.39,271.46h0l0-.15h-.7s-1.74,5.55,3.64,6.6C247.79,276.56,249.39,271.46,249.39,271.46Z"/><path class="cls-8" d="M316.93,271.67h-.62v.15C316.75,279,311,278,311,278H253.23a8.15,8.15,0,0,1-.83-.12,7.68,7.68,0,0,0,1.47.28H311.6S317.57,279.2,316.93,271.67Z"/><path class="cls-9" d="M316.31,271.82v-.15h0C316.3,271.72,316.3,271.76,316.31,271.82Z"/><path class="cls-10" d="M379.13,29.17h76.25s14.61.1,13,12.91l-.46,213.06H222.33"/><g class="cls-11"><path class="cls-12" d="M558.78,296.46c0,6.48-122.88,11.73-274.46,11.73S9.87,302.94,9.87,296.46s122.87-11.72,274.45-11.72S558.78,290,558.78,296.46Z"/></g><rect class="cls-13" x="111.93" y="56.84" width="342.46" height="197.8"/><rect class="cls-14" x="111.93" y="43.17" width="341.92" height="13.67"/><circle class="cls-15" cx="120.62" cy="50.47" r="3.28"/><circle class="cls-16" cx="133.46" cy="50.47" r="3.28"/><circle class="cls-17" cx="146.01" cy="50.47" r="3.28"/><path class="cls-18" d="M254.48,153.68l34.25.22,9.55,15.38-53.9-.35Zm33.44,1.67-32.67-.21-8.18,12.36,48.6.31Z"/><rect class="cls-18" x="245.7" y="172.9" width="51.25" height="2.11" transform="translate(541.52 349.65) rotate(-179.63)"/><rect class="cls-18" x="245.67" y="177.89" width="51.25" height="1.64" transform="translate(541.43 359.17) rotate(-179.63)"/><rect class="cls-18" x="245.63" y="183.27" width="51.25" height="1.64" transform="translate(541.32 369.91) rotate(-179.63)"/><rect class="cls-18" x="245.07" y="187.84" width="52.31" height="2.64" transform="translate(541.22 380.06) rotate(-179.63)"/><rect class="cls-18" x="245.03" y="193.21" width="51.78" height="2.64" transform="translate(540.59 390.79) rotate(-179.63)"/><path class="cls-18" d="M258,131.56l10.9.07-.07,10.9-10.9-.07Zm8.47,2.47-6.08,0,0,6.08,6.08,0Z"/><polygon class="cls-18" points="261.19 162.63 279.32 162.75 279.39 151.95 276.98 151.93 276.92 160.32 263.61 160.24 263.69 147.76 271.49 147.81 271.5 145.4 261.3 145.33 261.19 162.63"/><path class="cls-18" d="M271.85,136.37l15.42.1-.1,15.42-15.42-.1Zm14,1.54-12.52-.08-.08,12.52,12.52.08Z"/><path class="cls-18" d="M266.33,241.47a7.2,7.2,0,0,1-1.75-2.91,53.93,53.93,0,0,1-15.42-3.07,7.3,7.3,0,0,1-12.45-5.23,6.35,6.35,0,0,1,.1-1.06A54.57,54.57,0,0,1,225,218.25a7.19,7.19,0,0,1-2.29.37,7.32,7.32,0,0,1-7.27-7.36,7.22,7.22,0,0,1,2.18-5.14,53.65,53.65,0,0,1-4.39-17.68,7.14,7.14,0,0,1-3.33-1.91h0A7.31,7.31,0,0,1,214,174.17a53.69,53.69,0,0,1,7-18.14,7.28,7.28,0,0,1,5.67-11.95,7.2,7.2,0,0,1,3.32.83A55.16,55.16,0,0,1,240.74,137l2-1.12,0,4.21-.65.38a51.47,51.47,0,0,0-9.26,6.83,7.25,7.25,0,0,1,1.23,4.1,7,7,0,0,1-.39,2.26l6.76,4.1a60.42,60.42,0,0,1,11.28-9.22l1.93-1.21.15,4.34-.63.4a56.19,56.19,0,0,0-10.94,9.12,34.17,34.17,0,0,0,25,57.43,33.46,33.46,0,0,0,23.11-9,55.87,55.87,0,0,0,8.68-11l.6-1,1.06.47a4.91,4.91,0,0,0,.84.32l1.73.41-.91,1.53a58.71,58.71,0,0,1-4.37,6.33,67.85,67.85,0,0,1-5.16,5.75l-.18.2a5.43,5.43,0,0,1-.37.4l-1.65,1.49,5.09,5.62a7.44,7.44,0,0,1,2.84-.56,7.24,7.24,0,0,1,3.94,1.2,50.87,50.87,0,0,0,11-15.36l.35-.77,4,0-.83,1.84a54.43,54.43,0,0,1-12,17,7.16,7.16,0,0,1,.87,3.46,7.3,7.3,0,0,1-12.54,5,53.69,53.69,0,0,1-14.44,5.42,7.35,7.35,0,0,1-7.27,6.17A7.27,7.27,0,0,1,266.33,241.47Zm1-6.46h.2l-.13,1.4a2.45,2.45,0,0,1-.09.44,2.2,2.2,0,0,1,.06.36l0,.51a4.35,4.35,0,0,0,1,1.7h0a4.41,4.41,0,1,0-1.06-4.42Zm-26.63-7.58.08.05-.66,1.08c-.1.17-.21.34-.3.51a4.15,4.15,0,0,0-.2,1.2,4.41,4.41,0,0,0,4.38,4.43V235h0v-.28a4.42,4.42,0,0,0,4.41-4.38,4.39,4.39,0,0,0-7.72-2.9Zm27.7-5.13c-.43,0-.86,0-1.29,0a38,38,0,0,1-16.72-4l-2.13,6.05a7.25,7.25,0,0,1,2.79,7.91,50.49,50.49,0,0,0,13.32,2.61,7.32,7.32,0,0,1,4.73-5.44Zm22.71,4.62a7.26,7.26,0,0,1,1.6-4.51l-5.32-5.87A37.82,37.82,0,0,1,272,222l.68,7.08a7.28,7.28,0,0,1,5.67,4.71,48.64,48.64,0,0,0,13-4.93A7.06,7.06,0,0,1,291.1,226.91Zm9-3.91.08-.08a4.35,4.35,0,0,0-1.75-.37,4.41,4.41,0,0,0-4.4,4.38,4,4,0,0,0,0,.5l.27-.14.49,1.6a2,2,0,0,0,.12.22,4.8,4.8,0,0,1,.25.48l.27.59a4.39,4.39,0,0,0,3,1.18v.28h0v-.28a4.4,4.4,0,0,0,3.25-7.37Zm-55.21,0,2.31-6.57a38.51,38.51,0,0,1-10.55-9.85l-6.71,3.21a7.29,7.29,0,0,1-1.82,6.46,50.89,50.89,0,0,0,10.17,9.49,7.28,7.28,0,0,1,5.77-2.8A6.26,6.26,0,0,1,244.87,223Zm-20.33-7.8a4.48,4.48,0,0,0,.66-.43l.88-.62a4.36,4.36,0,0,0,.84-4.38l-.22-.47a4.39,4.39,0,0,0-8.33,1.92h0a4.41,4.41,0,0,0,4.4,4.43,4.2,4.2,0,0,0,1.36-.23Zm65.87-.79.06.06,0-.09Zm-61-30.35a37.73,37.73,0,0,1,8.56-23.51l-6.3-3.82a7.3,7.3,0,0,1-5,1.93,7.18,7.18,0,0,1-2.63-.52,50,50,0,0,0-6.34,16.38,7.28,7.28,0,0,1-.77,13.91,50,50,0,0,0,3.9,15.81,7,7,0,0,1,2-.28h0a7.27,7.27,0,0,1,5.16,2.18c.12.12.24.26.36.39l6.3-3A37.75,37.75,0,0,1,229.38,184.11Zm-13,1.5a4.25,4.25,0,0,0,1.86-1.08,4.4,4.4,0,0,0-3.07-7.54v-.28h0V177a4.41,4.41,0,0,0-4.4,4.38,4.37,4.37,0,0,0,1.27,3.12,4.23,4.23,0,0,0,1.72,1.06l.85.06a1.81,1.81,0,0,1,.31,0,3.09,3.09,0,0,1,.48-.1ZM230,148.46a4.38,4.38,0,0,0-.65-.45l-1.36-.84a4.43,4.43,0,0,0-1.27-.19,4.41,4.41,0,1,0,3.31,1.5Z"/><rect class="cls-18" x="128.64" y="76.67" width="156.98" height="4.17"/><rect class="cls-18" x="128.64" y="116.83" width="156.98" height="4.17"/><circle class="cls-18" cx="153.98" cy="101.27" r="6.66"/><circle class="cls-18" cx="192.74" cy="101.27" r="6.66"/><circle class="cls-18" cx="228.73" cy="101.27" r="6.66"/><circle class="cls-18" cx="263.15" cy="102.1" r="6.66"/><rect class="cls-18" x="135.45" y="160.76" width="4.02" height="10.25"/><rect class="cls-18" x="147.59" y="155.33" width="4.02" height="15.68"/><rect class="cls-18" x="159.72" y="150.51" width="4.02" height="20.49"/><rect class="cls-18" x="171.86" y="143.6" width="4.02" height="27.4"/><rect class="cls-18" x="184" y="143.6" width="4.02" height="27.4"/><rect class="cls-18" x="196.13" y="136.19" width="4.02" height="34.81"/><path class="cls-18" d="M202.56,131.07a2.26,2.26,0,0,1-2.07-1.36h-4l-7.39,7.13a.9.9,0,0,1-.63.25H172.23l-7.16,7.14a.9.9,0,0,1-.64.27H160l-7.88,5.72a.91.91,0,0,1-.53.17h-3.72l-7.4,5.66a.9.9,0,0,1-.55.19h-7a2.26,2.26,0,1,1,0-1.81h6.67l7.4-5.66a.91.91,0,0,1,.55-.19h3.73l7.87-5.72a.91.91,0,0,1,.53-.17h4.34l7.16-7.14a.9.9,0,0,1,.64-.26h16.25l7.4-7.13a.9.9,0,0,1,.63-.25h4.35a2.26,2.26,0,1,1,2.07,3.16Z"/><path class="cls-18" d="M358.38,91.21a5.41,5.41,0,0,0-2.59.66L336.24,77.65a5.45,5.45,0,1,0-10.43,0L306.26,91.86a5.45,5.45,0,1,0-2.59,10.24h.11l7,21.69a5.44,5.44,0,1,0,8.43,6.12h23.17a5.44,5.44,0,1,0,8.72-5.88l7.13-21.93h.11a5.45,5.45,0,0,0,0-10.89Zm-22.91,9.69A5.46,5.46,0,0,0,333,99V81.15a5.3,5.3,0,0,0,1.14-.6l19.24,14a5.46,5.46,0,0,0-.34,1.15Zm6.95,25.43H319.26a5.39,5.39,0,0,0-.76-1.43l10.76-15.72a5.37,5.37,0,0,0,3.49,0l10.47,15.65A5.42,5.42,0,0,0,342.42,126.33ZM309,95.43a5.53,5.53,0,0,0-.29-.91l19.24-14a5.42,5.42,0,0,0,1.49.73V98.82a5.44,5.44,0,0,0-2.46,1.6Zm-.42,3.6,17,4.73c0,.09,0,.17,0,.26a5.41,5.41,0,0,0,.86,2.92l-10.89,15.92a5.35,5.35,0,0,0-1.31-.19l-7.09-21.83A5.46,5.46,0,0,0,308.56,99Zm39.26,23.65h-.25a5.42,5.42,0,0,0-1.37.18L335.59,107a5.42,5.42,0,0,0,.87-2.67l17.14-5.09a5.45,5.45,0,0,0,1.32,1.6Z"/><circle class="cls-19" cx="457.58" cy="204.81" r="126.55"/><g class="cls-20"><path class="cls-21" d="M458.17,333.16a125.86,125.86,0,0,1-126-126h3.51A122.53,122.53,0,1,0,458.17,84.73V81.22a126,126,0,1,1,0,251.94Z"/><g class="cls-22"><path class="cls-23" d="M451.81,319.12q1.55.08,3.12.13v-32.8a119.51,119.51,0,0,0-22.6,2.11A198.3,198.3,0,0,0,451.81,319.12Z"/><path class="cls-23" d="M410.79,294.54A217.29,217.29,0,0,0,436,317.16q3.53.69,7.12,1.16A201.58,201.58,0,0,1,425.79,290,143.43,143.43,0,0,0,410.79,294.54Z"/><path class="cls-23" d="M416.93,245.46a171.49,171.49,0,0,0,12.45,37.08A126.36,126.36,0,0,1,454.93,280V240.1a148.3,148.3,0,0,0-38,5.36Z"/><path class="cls-23" d="M404.29,297.06q-4.22,1.74-8.46,3.77a112.92,112.92,0,0,0,25,12.24A206.35,206.35,0,0,1,404.29,297.06Z"/><path class="cls-23" d="M431,128.75a225.35,225.35,0,0,0-11.6,33.83c-.29,1.12-.56,2.24-.82,3.37a149.38,149.38,0,0,0,15.69,3.26,149,149,0,0,0,20.7,1.67V131h-.42A126.07,126.07,0,0,1,431,128.75Z"/><path class="cls-23" d="M433.69,122.67a119.13,119.13,0,0,0,21.24,1.86V90.83c-1.09,0-2.18.08-3.26.14A214.34,214.34,0,0,0,433.69,122.67Z"/><path class="cls-23" d="M415.27,236.47q.2,1.31.43,2.62a154.79,154.79,0,0,1,39.23-5.46V208.28H413.27A172.54,172.54,0,0,0,415.27,236.47Z"/><path class="cls-23" d="M417.15,172.27a191.83,191.83,0,0,0-3.7,29.53h41.49V177.34a155.34,155.34,0,0,1-21.51-1.71A155.77,155.77,0,0,1,417.15,172.27Z"/><path class="cls-23" d="M410.9,170.5A168.76,168.76,0,0,1,386,160.63q-1.39,3.13-2.63,6.26a127.65,127.65,0,0,0-8.52,34.91H407A198.41,198.41,0,0,1,410.9,170.5Z"/><path class="cls-23" d="M517.61,124.2a198.8,198.8,0,0,1,16.36,27,161.38,161.38,0,0,0,18.3-11,115.73,115.73,0,0,0-29.07-29.13q-5.55,3.19-11,5.85C514,119.23,515.79,121.65,517.61,124.2Z"/><path class="cls-23" d="M374.44,214.3a105.2,105.2,0,0,0,8,37.82,170.63,170.63,0,0,1,27-11.2c-.21-1.2-.41-2.4-.6-3.61a179.07,179.07,0,0,1-2.06-29H374.47Q374.37,211.3,374.44,214.3Z"/><path class="cls-23" d="M427.13,121.32a227,227,0,0,1,16.18-29.58q-3.63.47-7.21,1.16a213.09,213.09,0,0,0-23,24.36A140.51,140.51,0,0,0,427.13,121.32Z"/><path class="cls-23" d="M422.94,284a177.71,177.71,0,0,1-12.23-36.7A164.66,164.66,0,0,0,385.12,258a139.53,139.53,0,0,0,21,31.33A152.82,152.82,0,0,1,422.94,284Z"/><path class="cls-23" d="M408.87,122.62q-2,2.65-4.05,5.48a191.66,191.66,0,0,0-16.07,26.66,162.64,162.64,0,0,0,23.56,9.4c.27-1.13.55-2.27.84-3.41a233.49,233.49,0,0,1,11.33-33.41A149.43,149.43,0,0,1,408.87,122.62Z"/><path class="cls-23" d="M399.66,124.2q1.46-2,2.92-4-6.74-2.75-13.52-6.18a115.65,115.65,0,0,0-25,26.11A189.06,189.06,0,0,0,383,151.81,198.33,198.33,0,0,1,399.66,124.2Z"/><path class="cls-23" d="M377.41,164.42q1.32-3.37,2.84-6.74a195.28,195.28,0,0,1-19.68-12.11A113.39,113.39,0,0,0,344,201.8h24.42A133.87,133.87,0,0,1,377.41,164.42Z"/><path class="cls-23" d="M423.25,96.19A112.91,112.91,0,0,0,395,109.76q5.85,2.83,11.66,5.12A234.8,234.8,0,0,1,423.25,96.19Z"/><path class="cls-23" d="M368,214.42q-.07-3.06,0-6.14H344a113.38,113.38,0,0,0,17,56.86q7.8-5.42,15.79-9.92A111.75,111.75,0,0,1,368,214.42Z"/><path class="cls-23" d="M379.41,261.15q-7.53,4.27-14.89,9.39a116,116,0,0,0,25.26,26q5-2.51,10-4.64A144.66,144.66,0,0,1,379.41,261.15Z"/><path class="cls-23" d="M463.41,286.8l-2-.14v32.59c1.37,0,2.74-.1,4.1-.19A199.14,199.14,0,0,0,484,290.34,116.27,116.27,0,0,0,463.41,286.8Z"/><path class="cls-23" d="M497.1,312.52a112.86,112.86,0,0,0,19.19-9.06q-3.15-1.71-6.27-3.25Q504,306.46,497.1,312.52Z"/><path class="cls-23" d="M503.81,297.32a139.56,139.56,0,0,0-13.46-5.13,202.42,202.42,0,0,1-16.1,26q3.71-.52,7.35-1.28A221.47,221.47,0,0,0,503.81,297.32Z"/><path class="cls-23" d="M487,284.44a172,172,0,0,0,13.18-38.15q-2.09-.59-4.24-1.15a159.58,159.58,0,0,0-34.52-5v40l2.52.17A123.09,123.09,0,0,1,487,284.44Z"/><path class="cls-23" d="M549.31,214.42a111.83,111.83,0,0,1-9,41.33,159.87,159.87,0,0,1,15.12,9.32,113.38,113.38,0,0,0,17-56.8h-23.1Q549.38,211.36,549.31,214.42Z"/><path class="cls-23" d="M536.77,157.1q1.65,3.66,3.09,7.31a133.87,133.87,0,0,1,9,37.39h23.48a113.39,113.39,0,0,0-16.57-56.17A163.36,163.36,0,0,1,536.77,157.1Z"/><path class="cls-23" d="M514.61,295.27q3.92,2,7.88,4.23a115.86,115.86,0,0,0,29.36-29,157.71,157.71,0,0,0-14.26-8.8A147.82,147.82,0,0,1,514.61,295.27Z"/><path class="cls-23" d="M501.42,239.91c.2-1.15.4-2.29.58-3.44a172.54,172.54,0,0,0,2-28.19H461.4v25.42a166,166,0,0,1,36.39,5.24Q499.63,239.41,501.42,239.91Z"/><path class="cls-23" d="M531,160a186.69,186.69,0,0,1-24.78,9.68,198.76,198.76,0,0,1,4.12,32.14H542.4a127.65,127.65,0,0,0-8.52-34.91Q532.53,163.44,531,160Z"/><path class="cls-23" d="M542.83,214.3q.07-3,0-6H510.48a179,179,0,0,1-2.06,29c-.23,1.49-.49,3-.75,4.46a187.18,187.18,0,0,1,26.88,11A105.29,105.29,0,0,0,542.83,214.3Z"/><path class="cls-23" d="M508.53,292.34a142.62,142.62,0,0,0,23.32-33.66,181.53,181.53,0,0,0-25.47-10.5,178.29,178.29,0,0,1-13.13,38.16A148.27,148.27,0,0,1,508.53,292.34Z"/><path class="cls-23" d="M512.45,128.11c-2.11-3-4.23-5.76-6.32-8.4a145.4,145.4,0,0,1-14.3,5.4,234.13,234.13,0,0,1,12.29,35.65q.33,1.28.64,2.56a180.38,180.38,0,0,0,23.42-9.22A192.2,192.2,0,0,0,512.45,128.11Z"/><path class="cls-23" d="M517.08,107.08a112.85,112.85,0,0,0-22.61-10.45c3.84,3.91,8.54,9,13.56,15.09Q512.52,109.59,517.08,107.08Z"/><path class="cls-23" d="M482.77,121A212.71,212.71,0,0,0,465.64,91c-1.41-.09-2.82-.16-4.24-.2v33.49l2-.14A116,116,0,0,0,482.77,121Z"/><path class="cls-23" d="M501.89,114.49a211.37,211.37,0,0,0-20.43-21.34q-3.67-.76-7.4-1.27a225.53,225.53,0,0,1,15.09,27.29Q495.49,117.19,501.89,114.49Z"/><path class="cls-23" d="M498.54,165.14q-.31-1.28-.63-2.56a226.15,226.15,0,0,0-12.39-35.65,122.73,122.73,0,0,1-21.6,3.69l-2.52.17v40a159.57,159.57,0,0,0,34.52-5Z"/><path class="cls-23" d="M500,171.47l-2.17.57a166,166,0,0,1-36.39,5.24V201.8h42.42A192.14,192.14,0,0,0,500,171.47Z"/></g><circle class="cls-24" cx="389.54" cy="305.24" r="11.82"/><g class="cls-25"><path class="cls-26" d="M389.54,317.06a11.82,11.82,0,1,1,0-23.64Z"/></g><path class="cls-27" d="M561.18,244.11a26.14,26.14,0,1,0,26.14,26.14A26.14,26.14,0,0,0,561.18,244.11Zm0,39.39a13.25,13.25,0,1,1,13.25-13.25A13.25,13.25,0,0,1,561.18,283.51Z"/><g class="cls-25"><path class="cls-28" d="M561.18,287.75a17.49,17.49,0,1,1,0-35v-8.65a26.14,26.14,0,0,0,0,52.29Z"/></g><path class="cls-28" d="M354.3,189l-1.66-1.87,6.75-6L361,183Zm10.5-9.31-1.66-1.87,6.75-6,1.66,1.87Zm10.5-9.31-1.66-1.87,6.75-6,1.66,1.87ZM385.8,161l-1.66-1.87,6.75-6,1.66,1.87Zm10.5-9.31-1.66-1.87,6.75-6,1.66,1.87Zm10.5-9.31-1.66-1.87,6.75-6,1.66,1.87Z"/><path class="cls-28" d="M564.05,275.11l-3.63-1.35.58-1.56-1-1,1.78-1.77,3.63,3.66ZM555.72,272l-8.46-3.14.87-2.35,8.46,3.14Zm.71-4.42-6.36-6.4,1.78-1.77,6.36,6.4Zm-13.87-.46L534.11,264l.87-2.35,8.46,3.14Zm-13.16-4.88-8.46-3.14.87-2.35,8.46,3.14Zm17.14-4.62-6.36-6.4,1.78-1.77,6.36,6.4Zm-30.3-.26-8.46-3.14.87-2.35,8.46,3.14Zm-13.16-4.88-8.46-3.14.87-2.35,8.46,3.14Zm33.57-4.82-6.36-6.4,1.78-1.77,6.36,6.4Zm-46.73-.06-8.46-3.14.87-2.35,8.46,3.14Zm-13.16-4.88-.33-.12.87-2.35.33.12Zm50-5-6.36-6.4,1.78-1.77,6.36,6.4Zm-9.89-10-6.36-6.4,1.78-1.77,6.36,6.4Zm-9.89-10-6.36-6.4,1.78-1.77,6.36,6.4Zm-9.89-10-6.36-6.4,1.78-1.77,6.36,6.4Zm-9.89-10-6.36-6.4,1.78-1.77,6.36,6.4Zm-9.89-10-6.36-6.4,1.78-1.77,6.36,6.4Zm-9.89-10-6.36-6.4,1.78-1.77,6.36,6.4Zm-9.89-10-6.36-6.4,1.78-1.77,6.36,6.4Zm-9.89-10-6.36-6.4,1.78-1.77,6.36,6.4Zm-9.89-10-6.36-6.4,1.78-1.77,6.36,6.4Z"/><rect class="cls-28" x="400.26" y="292.32" width="4.51" height="2.51" transform="translate(-91.12 360.88) rotate(-43.87)"/><path class="cls-28" d="M408.46,289.6l-1.74-1.81,6.22-6,1.74,1.81Zm9.67-9.3-1.74-1.81,6.22-6,1.74,1.81Zm9.67-9.3-1.74-1.81,6.22-6L434,265Zm9.67-9.3-1.74-1.81,6.22-6,1.74,1.81Zm9.67-9.3-1.74-1.81,6.22-6,1.74,1.81Z"/><rect class="cls-28" x="455.33" y="239.4" width="4.51" height="2.51" transform="translate(-39.1 384.19) rotate(-43.86)"/><path class="cls-28" d="M450.69,235.19l-3.11-.89.69-2.41,3.11.89Zm-7.93-2.27-8.67-2.48.69-2.41,8.67,2.48Zm-13.49-3.86-8.67-2.48.69-2.41,8.67,2.48Zm-13.49-3.86-8.67-2.48.69-2.41,8.67,2.48Zm-13.49-3.86-8.67-2.48.69-2.41,8.67,2.48Zm-13.49-3.86L380.11,215l.69-2.41,8.67,2.48Zm-13.49-3.86-8.67-2.48.69-2.41,8.67,2.48Zm-13.49-3.86-8.67-2.48.69-2.41,8.67,2.48Z"/><path class="cls-28" d="M541.93,147.15l-1.86-.41.54-2.45,1.86.41Zm-6.75-1.49-8.81-1.95.54-2.45,8.81,1.95Zm-13.7-3-8.81-1.95.54-2.45,8.81,1.95Zm-13.7-3L499,137.65l.54-2.45,8.81,1.95Zm-13.7-3-8.81-1.95.54-2.45,8.81,1.95Zm-13.7-3-8.81-1.95.54-2.45,8.81,1.95Zm-13.7-3-8.81-1.95.54-2.45,8.81,1.95Zm-13.7-3-8.81-1.95.54-2.45L453.5,125Z"/><path class="cls-28" d="M353.82,207.29l-.71-2.4,8.65-2.56.71,2.4Zm13.46-4-.71-2.4,8.65-2.56.71,2.4Zm13.46-4-.71-2.4,8.65-2.56.71,2.4Zm13.46-4-.71-2.4,8.65-2.56.71,2.4Zm13.46-4L407,189l8.65-2.56.71,2.4Zm13.46-4-.71-2.4,8.65-2.56.71,2.4Zm13.46-4-.71-2.4,8.65-2.56.71,2.4Zm13.46-4-.71-2.4,8.65-2.56.71,2.4Zm13.46-4-.71-2.4,8.65-2.56.71,2.4Zm13.46-4-.71-2.4,8.65-2.56.71,2.4Zm13.46-4-.71-2.4,8.65-2.56.71,2.4Zm13.46-4-.71-2.4,8.65-2.56.71,2.4Zm13.46-4-.71-2.4,8.65-2.56L524,157Zm13.46-4-.71-2.4,8.65-2.56.71,2.4Zm13.46-4-.71-2.4,5.32-1.57.71,2.4Z"/><path class="cls-29" d="M474.76,216.46a.3.3,0,0,0-.09-.48,17.39,17.39,0,0,0-24.37,14.88.29.29,0,0,0,.29.31h9.32a.3.3,0,0,0,.21-.09Z"/><path class="cls-29" d="M469.13,230.65a.3.3,0,0,0,.21.52h15.43a.3.3,0,0,0,.3-.31,17.23,17.23,0,0,0-1.34-5.89,19,19,0,0,0-3.35-5.09.3.3,0,0,0-.42,0Z"/><path class="cls-29" d="M483.75,237.25H451.51a.3.3,0,0,0-.28.4,17.44,17.44,0,0,0,23.24,10.25A17.67,17.67,0,0,0,484,237.64a.3.3,0,0,0-.28-.4"/><path class="cls-28" d="M454.34,90.4A7.42,7.42,0,1,1,461.76,83,7.43,7.43,0,0,1,454.34,90.4Zm0-11.33A3.91,3.91,0,1,0,458.25,83,3.92,3.92,0,0,0,454.34,79.06Z"/></g><path class="cls-29" d="M348.39,183.75a.25.25,0,0,0-.08-.41A14.77,14.77,0,0,0,327.61,196a.25.25,0,0,0,.25.26h7.92a.25.25,0,0,0,.18-.07Z"/><path class="cls-29" d="M343.62,195.81a.25.25,0,0,0,.18.44H356.9a.25.25,0,0,0,.25-.26,14.64,14.64,0,0,0-1.14-5,16.18,16.18,0,0,0-2.85-4.33.25.25,0,0,0-.35,0Z"/><path class="cls-29" d="M356,201.41H328.64a.25.25,0,0,0-.24.34,14.82,14.82,0,0,0,19.74,8.71,15,15,0,0,0,8.12-8.71.25.25,0,0,0-.23-.34"/><path class="cls-30" d="M457.66,83.67a123.7,123.7,0,1,0,123.71,123.7A123.7,123.7,0,0,0,457.66,83.67ZM356.54,183.8C380.18,92,463.22,100.53,463.22,100.53,384.71,110.51,356.54,183.8,356.54,183.8Z"/><path class="cls-31" d="M753.62,318.34,612.33,250.47a160.14,160.14,0,1,0-21.85,46.26L735,366.17c11,5.27,24.11-1.19,29.22-14.34h0C769.37,338.68,764.58,323.61,753.62,318.34Zm-295.07,12A122.85,122.85,0,1,1,581.41,207.49,122.85,122.85,0,0,1,458.55,330.34Z"/><path class="cls-28" d="M432.41,124.3l2.09-1.51a12.66,12.66,0,1,1-6.24-9.43l-2,1.43a10.46,10.46,0,1,0,6.13,9.52ZM421.95,118a6.32,6.32,0,1,0,5.89,8.6l-9.31.77,4.07-9.34A6.5,6.5,0,0,0,421.95,118Zm15.66,2.54a16.15,16.15,0,1,1-6.35-9.35l2.84-2.06a19.43,19.43,0,1,0,6.41,9.31Zm5.59-6.44-4.38-6-.7.51,4.37,6Zm-6-4.84-12.66,9.19,0,0,1.91.07-.46,1.93,1.91.07-.46,1.92,1.91.07-.46,1.92,12.66-9.19Zm6.95,4.16,1.8-1.31-4.37-6-1.8,1.31Zm-21.35,9-1.2,2.74,3-.29Z"/><path class="cls-28" d="M543.22,162.08c3.06,0,4-.8,4-.8v1.42s-.93.8-4,.8-4-.8-4-.8v-1.42S540.16,162.08,543.22,162.08Zm0,2.36c-3.06,0-4-.8-4-.8v.65h0a4,4,0,0,0,8,0h0v-.65S546.28,164.44,543.22,164.44Zm10.78-16c-.57,4.42-4.2,7.69-5.24,8.54a5.14,5.14,0,0,1-1.49,3.58l0,.06s-.7.61-3.88.61-4-.61-4-.61a5.08,5.08,0,0,1-1.57-3.64c-1-.85-4.67-4.12-5.24-8.54a9.59,9.59,0,0,1,2.27-7.35,10.45,10.45,0,0,1,8.19-4h.51a10.45,10.45,0,0,1,8.19,4A9.6,9.6,0,0,1,554,148.42ZM547.64,147a.71.71,0,0,0-.74-.08,9.46,9.46,0,0,1-7.37,0,.71.71,0,0,0-1,.81l2.35,9.79a.71.71,0,0,0,.69.54l.17,0a.71.71,0,0,0,.52-.86l-2-8.51a10.72,10.72,0,0,0,6.06,0l-1.53,8.54a.71.71,0,0,0,1.4.25l1.76-9.78A.71.71,0,0,0,547.64,147Zm-17.77,1.21c0-.29,0-.58,0-.86H525a.86.86,0,0,0,0,1.72h4.91C529.88,148.84,529.87,148.55,529.87,148.26Zm3.24-8.6a13.13,13.13,0,0,1,1.22-1.22l-2.63-2.62a.86.86,0,0,0-1.22,1.22Zm9.82-4.45c.29,0,.58,0,.86,0V128a.86.86,0,1,0-1.72,0v7.27C542.35,135.22,542.64,135.21,542.93,135.21Zm9.82,4.45,2.62-2.62a.86.86,0,0,0-1.22-1.22l-2.62,2.62A13.39,13.39,0,0,1,552.74,139.66Zm8.11,7.74h-4.9c0,.28,0,.57,0,.86s0,.58,0,.86h4.9a.86.86,0,1,0,0-1.72Z"/></g></g></svg>