<svg id="Capa_1" data-name="Capa 1" xmlns="http://www.w3.org/2000/svg" viewBox="0 0 62 62"><defs><style>.cls-1{fill:#706f6f;}.cls-2{fill:gray;}.cls-3{fill:#9a9a9a;}</style></defs><title>aprendizaje_inteligente_icon</title><path class="cls-1" d="M54.57,12.51A25.08,25.08,0,0,0,28.95.71a25.19,25.19,0,0,0-20.3,20.2A81.15,81.15,0,0,1,5.08,33c-2,5.41-2.15,5.38,3.36,6a17.2,17.2,0,0,1,2.18.59c0,3,0,6,0,8.88,0,2.64,1.07,3.93,4,3.34,3.14-.64,6.36-.94,10.17-1.48V61.65h23.7c0-3.31.17-6.1,0-8.86a15.1,15.1,0,0,1,4.16-12.3C59.5,32.84,59.86,21.26,54.57,12.51Zm-8.19,38c.19,2.54,0,5.16,0,8.2H26.72V48.32c-3.4.49-7,.87-9.84,1.46-2.61.54-3.54-.64-3.56-3.07,0-2.69,0-5.37,0-8.16A15,15,0,0,0,11.36,38c-4.91-.59-4.79-.57-3-5.54a76.34,76.34,0,0,0,3.18-11.14c1.89-9.58,8.9-16.93,18.1-18.57A22.13,22.13,0,0,1,52.5,13.6c4.72,8,4.4,18.68-1.75,25.71C47.67,42.83,46,46.2,46.37,50.56Z"/><path class="cls-2" d="M18.79,17.83V11.73a.87.87,0,1,1,1.74,0v6.11a.87.87,0,1,1-1.74,0Z"/><path class="cls-2" d="M27.51,10.86H23.15a.87.87,0,0,0-.87.87v6.11a.87.87,0,0,0,.87.87h4.36a.87.87,0,0,0,.87-.87V11.73A.87.87,0,0,0,27.51,10.86ZM26.64,17H24V12.6h2.62Z"/><path class="cls-2" d="M31,18.7a.87.87,0,0,0,.87-.87V11.73a.87.87,0,1,0-1.74,0v6.11A.87.87,0,0,0,31,18.7Z"/><path class="cls-2" d="M42.34,18.7a.87.87,0,0,0,.87-.87V11.73a.87.87,0,1,0-1.74,0v6.11A.87.87,0,0,0,42.34,18.7Z"/><path class="cls-2" d="M38.85,10.86H34.49a.87.87,0,0,0-.87.87v6.11a.87.87,0,0,0,.87.87h4.36a.87.87,0,0,0,.87-.87V11.73A.87.87,0,0,0,38.85,10.86ZM38,17H35.36V12.6H38Z"/><path class="cls-2" d="M19.66,30a.87.87,0,0,0-.87.87V37a.87.87,0,1,0,1.74,0V30.91A.87.87,0,0,0,19.66,30Z"/><path class="cls-2" d="M27.51,30H23.15a.87.87,0,0,0-.87.87V37a.87.87,0,0,0,.87.87h4.36a.87.87,0,0,0,.87-.87V30.91A.87.87,0,0,0,27.51,30Zm-.87,6.11H24V31.79h2.62Z"/><path class="cls-2" d="M30.13,35.28V37a.87.87,0,1,0,1.74,0V35.28Z"/><path class="cls-2" d="M27.51,20.45a.87.87,0,0,0-.87.87v6.11a.87.87,0,1,0,1.74,0V21.32A.87.87,0,0,0,27.51,20.45Z"/><path class="cls-2" d="M24,20.45H19.66a.87.87,0,0,0-.87.87v6.11a.87.87,0,0,0,.87.87H24a.87.87,0,0,0,.87-.87V21.32A.87.87,0,0,0,24,20.45Zm-.87,6.11H20.53V22.19h2.62Z"/><path class="cls-2" d="M31.87,23.07V21.32a.87.87,0,1,0-1.74,0v1.74Z"/><path class="cls-2" d="M43.21,22.19v-.87a.87.87,0,1,0-1.74,0v.87Z"/><path class="cls-3" d="M34.49,29.17a2.62,2.62,0,0,1,2.62-2.62.87.87,0,0,0,0-1.74,4.37,4.37,0,0,0-4.36,4.36.87.87,0,1,0,1.74,0Z"/><path class="cls-3" d="M46.44,37.27l-3.83-3.83a7,7,0,1,0-1.23,1.23l3.83,3.83a.87.87,0,0,0,1.23-1.23ZM37.1,34.4a5.23,5.23,0,1,1,5.23-5.23A5.24,5.24,0,0,1,37.1,34.4Z"/></svg>