<svg id="en" xmlns="http://www.w3.org/2000/svg" viewBox="0 0 839 542"><defs><style>.cls-1{isolation:isolate;}.cls-2{fill:#69488e;}.cls-3{fill:#8a2787;}.cls-4{fill:#7f3f90;}.cls-5{fill:#fff;}</style></defs><title>arbol_academy_img_en</title><g class="cls-1"><g class="cls-1"><path class="cls-2" d="M92,129.37h2.91v5.69h5v-5.69h2.9v15.08h-2.9v-6.61h-5v6.61H92Z"/><path class="cls-2" d="M107.06,128.71a1.71,1.71,0,0,1,1.26.53,1.77,1.77,0,0,1,.53,1.29,1.75,1.75,0,0,1-.52,1.28,1.69,1.69,0,0,1-1.25.53,1.72,1.72,0,0,1-1.27-.54,1.8,1.8,0,0,1-.53-1.31,1.78,1.78,0,0,1,1.78-1.78Zm-1.4,4.59h2.8v11.16h-2.8Z"/><path class="cls-2" d="M119.25,133.3H122v9.56A6.32,6.32,0,0,1,120.9,147a5.7,5.7,0,0,1-4.6,1.8,8.06,8.06,0,0,1-2.76-.41,4.81,4.81,0,0,1-3-3.14h3.09a2.56,2.56,0,0,0,1.06.71,4.38,4.38,0,0,0,1.53.24,4,4,0,0,0,1.81-.35,2.11,2.11,0,0,0,1-.9,4.57,4.57,0,0,0,.28-1.91,4.63,4.63,0,0,1-1.55,1.06,4.91,4.91,0,0,1-1.84.32,5,5,0,0,1-3.79-1.62,6.29,6.29,0,0,1,.09-8.37,4.89,4.89,0,0,1,3.55-1.46,4.73,4.73,0,0,1,1.82.35,5.78,5.78,0,0,1,1.72,1.16Zm-2.9,2.33a2.91,2.91,0,0,0-2.18.89,3.07,3.07,0,0,0-.86,2.23,3.11,3.11,0,0,0,.88,2.29,3,3,0,0,0,2.21.89,2.87,2.87,0,0,0,2.15-.87,3.15,3.15,0,0,0,.85-2.29,3.11,3.11,0,0,0-.85-2.27A2.93,2.93,0,0,0,116.35,135.63Z"/><path class="cls-2" d="M124.88,129h2.78v5.43a6.39,6.39,0,0,1,1.65-1.06A4.26,4.26,0,0,1,131,133a3.79,3.79,0,0,1,2.8,1.15,4,4,0,0,1,1,2.92v7.37H132v-4.89a12.07,12.07,0,0,0-.18-2.62,1.82,1.82,0,0,0-.63-1,1.76,1.76,0,0,0-1.1-.34,2.08,2.08,0,0,0-1.46.56,3,3,0,0,0-.85,1.54,12.73,12.73,0,0,0-.12,2.3v4.48h-2.78Z"/><path class="cls-2" d="M137.16,129H140v15.46h-2.8Z"/><path class="cls-2" d="M141.27,133.3h2.86l2.9,7,3.2-7h2.87l-7,15.24h-2.89l2.29-4.91Z"/></g><g class="cls-1"><path class="cls-2" d="M92.6,166.25l2.63,3.39h-3.4l-1.33-1.72a8,8,0,0,1-9.33-1.44,7.94,7.94,0,0,1,1.68-12.43A7.69,7.69,0,0,1,86.77,153a7.5,7.5,0,0,1,5.51,2.32,8.06,8.06,0,0,1,.31,10.94Zm-1.79-2.32a5.24,5.24,0,0,0,.91-3,5,5,0,0,0-1.45-3.64,4.69,4.69,0,0,0-3.5-1.5,4.76,4.76,0,0,0-3.54,1.46A5.07,5.07,0,0,0,81.8,161a4.82,4.82,0,0,0,1.8,4,5,5,0,0,0,3.19,1.14,4.72,4.72,0,0,0,1.93-.4L86,162.18h3.43Z"/><path class="cls-2" d="M97,157.3h2.83v5.37a7.43,7.43,0,0,0,.22,2.18,1.89,1.89,0,0,0,.69.95,2,2,0,0,0,1.18.34,2.06,2.06,0,0,0,1.19-.33,2,2,0,0,0,.72-1,7.5,7.5,0,0,0,.17-2.06V157.3h2.8V162a11.6,11.6,0,0,1-.46,4,4.36,4.36,0,0,1-1.66,2,5.09,5.09,0,0,1-2.79.7,5,5,0,0,1-3-.82,4.33,4.33,0,0,1-1.59-2.29,13.85,13.85,0,0,1-.33-3.69Z"/><path class="cls-2" d="M117.82,157.3h2.8v11.16h-2.8v-1.18a5.46,5.46,0,0,1-1.64,1.12,4.59,4.59,0,0,1-1.79.34,5,5,0,0,1-3.74-1.68,5.85,5.85,0,0,1-1.58-4.17,6,6,0,0,1,1.53-4.24,4.87,4.87,0,0,1,3.71-1.65,4.73,4.73,0,0,1,1.88.38,5.16,5.16,0,0,1,1.63,1.14Zm-2.94,2.3a2.83,2.83,0,0,0-2.16.92,3.31,3.31,0,0,0-.86,2.35,3.34,3.34,0,0,0,.87,2.38,2.83,2.83,0,0,0,2.15.93,2.88,2.88,0,0,0,2.19-.92,3.35,3.35,0,0,0,.87-2.4,3.26,3.26,0,0,0-.87-2.36A2.92,2.92,0,0,0,114.88,159.6Z"/><path class="cls-2" d="M123.15,153h2.8v15.46h-2.8Z"/><path class="cls-2" d="M129.58,152.71a1.71,1.71,0,0,1,1.26.53,1.77,1.77,0,0,1,.53,1.29,1.75,1.75,0,0,1-.52,1.28,1.69,1.69,0,0,1-1.25.53,1.72,1.72,0,0,1-1.27-.54,1.8,1.8,0,0,1-.53-1.31,1.78,1.78,0,0,1,1.78-1.78Zm-1.4,4.59H131v11.16h-2.8Z"/><path class="cls-2" d="M132.19,157.3h1q0-2.19.07-2.59a2.14,2.14,0,0,1,.77-1.46,2.89,2.89,0,0,1,1.87-.54,5.8,5.8,0,0,1,2,.4v2.13a3.76,3.76,0,0,0-1-.17,1,1,0,0,0-.72.21.89.89,0,0,0-.16.64v1.39h1.77v2.37H136v8.79h-2.8v-8.79h-1Z"/><path class="cls-2" d="M140.49,152.71a1.71,1.71,0,0,1,1.26.53,1.77,1.77,0,0,1,.53,1.29,1.75,1.75,0,0,1-.52,1.28,1.69,1.69,0,0,1-1.25.53,1.72,1.72,0,0,1-1.27-.54,1.8,1.8,0,0,1-.53-1.31,1.78,1.78,0,0,1,1.78-1.78Zm-1.4,4.59h2.8v11.16h-2.8Z"/><path class="cls-2" d="M155.61,163.69h-9a3,3,0,0,0,1,1.89,3.27,3.27,0,0,0,2.16.7,3.73,3.73,0,0,0,2.7-1.1l2.36,1.11a5.56,5.56,0,0,1-2.11,1.85,6.61,6.61,0,0,1-2.92.6,5.77,5.77,0,0,1-4.28-1.66,5.63,5.63,0,0,1-1.65-4.15,5.83,5.83,0,0,1,1.65-4.24,5.53,5.53,0,0,1,4.13-1.69A5.73,5.73,0,0,1,154,158.7a6.1,6.1,0,0,1,1.65,4.46Zm-2.8-2.21a2.81,2.81,0,0,0-1.09-1.52,3.17,3.17,0,0,0-1.9-.58,3.35,3.35,0,0,0-2.05.66,3.65,3.65,0,0,0-1,1.45Z"/><path class="cls-2" d="M166.11,153h2.8v15.46h-2.8v-1.18a5.46,5.46,0,0,1-1.64,1.12,4.59,4.59,0,0,1-1.79.34,5,5,0,0,1-3.74-1.68,5.85,5.85,0,0,1-1.58-4.17,6,6,0,0,1,1.53-4.24A4.87,4.87,0,0,1,162.6,157a4.73,4.73,0,0,1,1.88.38,5.16,5.16,0,0,1,1.63,1.14Zm-2.94,6.6a2.83,2.83,0,0,0-2.16.92,3.31,3.31,0,0,0-.86,2.35,3.34,3.34,0,0,0,.87,2.38,2.83,2.83,0,0,0,2.15.93,2.88,2.88,0,0,0,2.19-.92,3.35,3.35,0,0,0,.87-2.4,3.26,3.26,0,0,0-.87-2.36A2.92,2.92,0,0,0,163.17,159.6Z"/></g><g class="cls-1"><path class="cls-2" d="M86.37,177.37h8.34v2.83H92v12.25H89V180.2H86.37Z"/><path class="cls-2" d="M95.71,181.3h2.4v1.4a3,3,0,0,1,1-1.26,2.5,2.5,0,0,1,1.42-.43,2.62,2.62,0,0,1,1.14.29l-.87,2.41a1.92,1.92,0,0,0-.81-.25,1.28,1.28,0,0,0-1.09.8,7.31,7.31,0,0,0-.45,3.14v5.05H95.71Z"/><path class="cls-2" d="M111.32,181.3h2.8v11.16h-2.8v-1.18a5.46,5.46,0,0,1-1.64,1.12,4.59,4.59,0,0,1-1.79.34,5,5,0,0,1-3.74-1.68,5.85,5.85,0,0,1-1.58-4.17,6,6,0,0,1,1.53-4.24A4.87,4.87,0,0,1,107.8,181a4.73,4.73,0,0,1,1.88.38,5.16,5.16,0,0,1,1.63,1.14Zm-2.94,2.3a2.83,2.83,0,0,0-2.16.92,3.31,3.31,0,0,0-.86,2.35,3.34,3.34,0,0,0,.87,2.38,2.83,2.83,0,0,0,2.15.93,2.88,2.88,0,0,0,2.19-.92,3.35,3.35,0,0,0,.87-2.4,3.26,3.26,0,0,0-.87-2.36A2.92,2.92,0,0,0,108.37,183.6Z"/><path class="cls-2" d="M118,176.71a1.71,1.71,0,0,1,1.26.53,1.77,1.77,0,0,1,.53,1.29,1.75,1.75,0,0,1-.52,1.28,1.69,1.69,0,0,1-1.25.53,1.72,1.72,0,0,1-1.27-.54,1.8,1.8,0,0,1-.53-1.31,1.78,1.78,0,0,1,1.78-1.78Zm-1.4,4.59h2.8v11.16h-2.8Z"/><path class="cls-2" d="M122,181.3h2.8v1.14a6.74,6.74,0,0,1,1.73-1.12,4.18,4.18,0,0,1,1.58-.31,3.83,3.83,0,0,1,2.82,1.16,4,4,0,0,1,1,2.91v7.37h-2.77v-4.89a12.34,12.34,0,0,0-.18-2.65,1.82,1.82,0,0,0-.62-1,1.75,1.75,0,0,0-1.1-.34,2.06,2.06,0,0,0-1.46.57,3,3,0,0,0-.84,1.57,12.72,12.72,0,0,0-.12,2.26v4.48H122Z"/><path class="cls-2" d="M145.76,187.69h-9a3,3,0,0,0,1,1.89,3.27,3.27,0,0,0,2.16.7,3.73,3.73,0,0,0,2.7-1.1l2.36,1.11a5.56,5.56,0,0,1-2.11,1.85,6.61,6.61,0,0,1-2.92.6,5.77,5.77,0,0,1-4.28-1.66,5.63,5.63,0,0,1-1.65-4.15,5.83,5.83,0,0,1,1.65-4.24,5.53,5.53,0,0,1,4.13-1.69,5.73,5.73,0,0,1,4.29,1.69,6.1,6.1,0,0,1,1.65,4.46Zm-2.8-2.21a2.81,2.81,0,0,0-1.09-1.52,3.17,3.17,0,0,0-1.9-.58,3.35,3.35,0,0,0-2.05.66,3.65,3.65,0,0,0-1,1.45Z"/><path class="cls-2" d="M147.37,181.3h2.4v1.4a3,3,0,0,1,1-1.26,2.5,2.5,0,0,1,1.42-.43,2.62,2.62,0,0,1,1.14.29l-.87,2.41a1.92,1.92,0,0,0-.81-.25,1.28,1.28,0,0,0-1.09.8,7.31,7.31,0,0,0-.45,3.14v5.05h-2.78Z"/><path class="cls-2" d="M161.57,182.86l-1.73,1.73a2.93,2.93,0,0,0-1.92-1,1.21,1.21,0,0,0-.74.2.6.6,0,0,0-.27.5.61.61,0,0,0,.17.42,3.18,3.18,0,0,0,.84.52l1,.51a6,6,0,0,1,2.23,1.63,3.4,3.4,0,0,1-.49,4.43,4.18,4.18,0,0,1-2.93,1,4.65,4.65,0,0,1-3.9-1.91l1.72-1.88a4,4,0,0,0,1.15.93,2.56,2.56,0,0,0,1.17.35,1.4,1.4,0,0,0,.89-.27.77.77,0,0,0,.34-.62q0-.65-1.22-1.26l-.94-.47q-2.71-1.36-2.71-3.41a3,3,0,0,1,1-2.26,3.7,3.7,0,0,1,2.61-.94,4.52,4.52,0,0,1,3.67,1.85Z"/></g></g><g class="cls-1"><g class="cls-1"><path class="cls-2" d="M710.15,300.45h4.3v15.08h-2.85V303.15h-3.11Z"/><path class="cls-2" d="M724.29,300.07a5,5,0,0,1,2.85.81,5.13,5.13,0,0,1,1.85,2.48,16.86,16.86,0,0,1,0,9.32,5.25,5.25,0,0,1-1.78,2.46,4.79,4.79,0,0,1-2.82.78,5,5,0,0,1-2.86-.79,5.15,5.15,0,0,1-1.82-2.4,12.59,12.59,0,0,1-.66-4.58q0-4.15,1.28-6A4.56,4.56,0,0,1,724.29,300.07Zm.07,2.73a2,2,0,0,0-1.29.47,3,3,0,0,0-.86,1.6,14.12,14.12,0,0,0-.3,3.33,8.06,8.06,0,0,0,.68,4,2,2,0,0,0,1.76,1.09,1.86,1.86,0,0,0,1.66-1,8.61,8.61,0,0,0,.75-4.18,8.74,8.74,0,0,0-.67-4.1A2,2,0,0,0,724.35,302.8Z"/><path class="cls-2" d="M736,300.07a5,5,0,0,1,2.85.81,5.14,5.14,0,0,1,1.85,2.48,16.88,16.88,0,0,1,0,9.32,5.25,5.25,0,0,1-1.78,2.46,4.79,4.79,0,0,1-2.82.78,5,5,0,0,1-2.86-.79,5.15,5.15,0,0,1-1.81-2.4,12.59,12.59,0,0,1-.66-4.58q0-4.15,1.28-6A4.57,4.57,0,0,1,736,300.07Zm.07,2.73a2,2,0,0,0-1.29.47,3,3,0,0,0-.86,1.6,14.07,14.07,0,0,0-.3,3.33,8.07,8.07,0,0,0,.68,4,2,2,0,0,0,1.76,1.09,1.86,1.86,0,0,0,1.66-1,8.62,8.62,0,0,0,.75-4.18,8.75,8.75,0,0,0-.67-4.1A2,2,0,0,0,736.11,302.8Z"/><path class="cls-2" d="M755.85,299.79h2.07l-12,16.78h-2.07l10.24-14.41q-.93.15-1.74.23t-1.5.08q-.71,0-1.5-.07a4.38,4.38,0,0,1,.23,1.3,3.56,3.56,0,0,1-3.58,3.59,3.51,3.51,0,0,1-2.56-1,3.43,3.43,0,0,1-1.06-2.53,3.53,3.53,0,0,1,.47-1.79,3.61,3.61,0,0,1,1.33-1.33,3.31,3.31,0,0,1,1.7-.51,8.73,8.73,0,0,1,1.75.25,16.67,16.67,0,0,0,3.49.43,12.61,12.61,0,0,0,2.54-.24A9,9,0,0,0,755.85,299.79ZM746,301.94a1.74,1.74,0,0,0-1.73,1.73,1.68,1.68,0,0,0,.51,1.23,1.73,1.73,0,0,0,2.45,0,1.68,1.68,0,0,0,.51-1.23,1.73,1.73,0,0,0-1.73-1.73Zm10,6.8a3.6,3.6,0,1,1-2.55,1.06A3.47,3.47,0,0,1,756,308.74Zm0,1.87a1.74,1.74,0,1,0,1.23.51A1.69,1.69,0,0,0,756,310.61Z"/><path class="cls-2" d="M768.41,299.79a1.71,1.71,0,0,1,1.26.53,1.77,1.77,0,0,1,.53,1.29,1.75,1.75,0,0,1-.52,1.28,1.69,1.69,0,0,1-1.25.53,1.72,1.72,0,0,1-1.27-.54,1.8,1.8,0,0,1-.53-1.31,1.78,1.78,0,0,1,1.78-1.78Zm-1.4,4.59h2.8v11.16H767Z"/><path class="cls-2" d="M772.36,304.38h2.8v1.14a6.74,6.74,0,0,1,1.73-1.12,4.18,4.18,0,0,1,1.58-.31,3.83,3.83,0,0,1,2.82,1.16,4,4,0,0,1,1,2.91v7.37h-2.77v-4.89a12.3,12.3,0,0,0-.18-2.65,1.82,1.82,0,0,0-.62-1,1.75,1.75,0,0,0-1.1-.34,2.06,2.06,0,0,0-1.46.57,3,3,0,0,0-.84,1.57,12.79,12.79,0,0,0-.12,2.26v4.48h-2.8Z"/></g><g class="cls-1"><path class="cls-2" d="M716.82,329.94l-1.73,1.73a2.93,2.93,0,0,0-1.92-1,1.21,1.21,0,0,0-.74.2.6.6,0,0,0-.27.5.61.61,0,0,0,.17.42,3.18,3.18,0,0,0,.84.52l1,.51a6,6,0,0,1,2.22,1.63,3.4,3.4,0,0,1-.49,4.43,4.18,4.18,0,0,1-2.93,1,4.65,4.65,0,0,1-3.9-1.91l1.72-1.88A4,4,0,0,0,712,337a2.56,2.56,0,0,0,1.17.35,1.4,1.4,0,0,0,.89-.27.77.77,0,0,0,.34-.62q0-.65-1.22-1.26l-.94-.47q-2.71-1.36-2.71-3.41a3,3,0,0,1,1-2.26,3.7,3.7,0,0,1,2.61-.94,4.52,4.52,0,0,1,3.67,1.85Z"/><path class="cls-2" d="M722,328.38v1.23a5.28,5.28,0,0,1,1.64-1.14,4.74,4.74,0,0,1,1.89-.38,4.87,4.87,0,0,1,3.71,1.65,6,6,0,0,1,1.53,4.24,5.84,5.84,0,0,1-1.58,4.17,5,5,0,0,1-3.74,1.68,4.63,4.63,0,0,1-1.79-.34,5.44,5.44,0,0,1-1.65-1.12v5.26h-2.78V328.38Zm2.94,2.3a2.92,2.92,0,0,0-2.19.9,3.25,3.25,0,0,0-.87,2.36,3.34,3.34,0,0,0,.87,2.4,2.89,2.89,0,0,0,2.19.92,2.84,2.84,0,0,0,2.16-.93,3.66,3.66,0,0,0,0-4.73A2.85,2.85,0,0,0,725,330.68Z"/><path class="cls-2" d="M741.33,328.38h2.8v11.16h-2.8v-1.18a5.47,5.47,0,0,1-1.64,1.12,4.59,4.59,0,0,1-1.79.34,5,5,0,0,1-3.74-1.68,5.85,5.85,0,0,1-1.58-4.17,6,6,0,0,1,1.53-4.24,4.86,4.86,0,0,1,3.71-1.65,4.73,4.73,0,0,1,1.88.38,5.18,5.18,0,0,1,1.63,1.14Zm-2.94,2.3a2.83,2.83,0,0,0-2.16.92,3.31,3.31,0,0,0-.86,2.35,3.34,3.34,0,0,0,.87,2.38,2.83,2.83,0,0,0,2.15.93,2.88,2.88,0,0,0,2.19-.92,3.36,3.36,0,0,0,.87-2.4,3.26,3.26,0,0,0-.87-2.36A2.92,2.92,0,0,0,738.39,330.68Z"/><path class="cls-2" d="M747,328.38h2.8v1.14a6.75,6.75,0,0,1,1.72-1.12,4.18,4.18,0,0,1,1.58-.31,3.83,3.83,0,0,1,2.82,1.16,4,4,0,0,1,1,2.91v7.37h-2.77v-4.89a12.38,12.38,0,0,0-.18-2.65,1.82,1.82,0,0,0-.62-1,1.75,1.75,0,0,0-1.1-.34,2.06,2.06,0,0,0-1.46.57,3,3,0,0,0-.84,1.57,12.65,12.65,0,0,0-.12,2.26v4.48H747Z"/><path class="cls-2" d="M760.65,323.79a1.71,1.71,0,0,1,1.26.53,1.77,1.77,0,0,1,.53,1.29,1.75,1.75,0,0,1-.52,1.28,1.69,1.69,0,0,1-1.25.53,1.72,1.72,0,0,1-1.27-.54,1.8,1.8,0,0,1-.53-1.31,1.78,1.78,0,0,1,1.78-1.78Zm-1.4,4.59h2.8v11.16h-2.8Z"/><path class="cls-2" d="M771.43,329.94l-1.73,1.73a2.93,2.93,0,0,0-1.92-1,1.21,1.21,0,0,0-.74.2.6.6,0,0,0-.27.5.62.62,0,0,0,.17.42,3.2,3.2,0,0,0,.84.52l1,.51A6,6,0,0,1,771,334.4a3.4,3.4,0,0,1-.49,4.43,4.18,4.18,0,0,1-2.93,1,4.65,4.65,0,0,1-3.9-1.91l1.72-1.88a4,4,0,0,0,1.15.93,2.56,2.56,0,0,0,1.17.35,1.4,1.4,0,0,0,.89-.27.77.77,0,0,0,.34-.62q0-.65-1.22-1.26l-.94-.47q-2.71-1.36-2.71-3.41a3,3,0,0,1,1-2.26,3.7,3.7,0,0,1,2.61-.94,4.52,4.52,0,0,1,3.67,1.85Z"/><path class="cls-2" d="M773.85,324.07h2.78v5.43a6.41,6.41,0,0,1,1.65-1.06,4.27,4.27,0,0,1,1.68-.35,3.79,3.79,0,0,1,2.8,1.15,4,4,0,0,1,1,2.92v7.37H781v-4.89a12.07,12.07,0,0,0-.18-2.62,1.82,1.82,0,0,0-.63-1,1.76,1.76,0,0,0-1.1-.34,2.08,2.08,0,0,0-1.46.56,3,3,0,0,0-.85,1.54,12.73,12.73,0,0,0-.12,2.3v4.48h-2.78Z"/></g></g><g class="cls-1"><g class="cls-1"><path class="cls-2" d="M647.62,421.09H651a11.22,11.22,0,0,1,4.89.82,6.37,6.37,0,0,1,2.63,2.65A9.29,9.29,0,0,1,659,432a6.65,6.65,0,0,1-1.6,2.42,5.64,5.64,0,0,1-2.21,1.33,15.73,15.73,0,0,1-4.12.37h-3.45Zm2.85,2.77v9.52h1.33a6.68,6.68,0,0,0,2.86-.45,3.42,3.42,0,0,0,1.45-1.52,5.57,5.57,0,0,0,.56-2.63,5,5,0,0,0-1.34-3.73,5.38,5.38,0,0,0-3.89-1.19Z"/><path class="cls-2" d="M662,425h2.83v5.37a7.41,7.41,0,0,0,.22,2.18,1.89,1.89,0,0,0,.69.95,2,2,0,0,0,1.18.34,2.06,2.06,0,0,0,1.19-.33,2,2,0,0,0,.72-1,7.48,7.48,0,0,0,.17-2.06V425h2.8v4.73a11.6,11.6,0,0,1-.46,4,4.36,4.36,0,0,1-1.66,2,5.09,5.09,0,0,1-2.79.7,5,5,0,0,1-3-.82,4.33,4.33,0,0,1-1.59-2.29,13.85,13.85,0,0,1-.33-3.69Z"/><path class="cls-2" d="M674,425h2.4v1.4a3,3,0,0,1,1-1.26,2.5,2.5,0,0,1,1.42-.43,2.62,2.62,0,0,1,1.14.29l-.87,2.41a1.92,1.92,0,0,0-.81-.25,1.28,1.28,0,0,0-1.09.8,7.31,7.31,0,0,0-.45,3.14v5.05H674Z"/><path class="cls-2" d="M689.56,425h2.8v11.16h-2.8V435a5.47,5.47,0,0,1-1.64,1.12,4.59,4.59,0,0,1-1.79.34,5,5,0,0,1-3.74-1.68,5.85,5.85,0,0,1-1.58-4.17,6,6,0,0,1,1.53-4.24,4.86,4.86,0,0,1,3.71-1.65,4.73,4.73,0,0,1,1.88.38,5.17,5.17,0,0,1,1.63,1.14Zm-2.94,2.3a2.83,2.83,0,0,0-2.16.92,3.31,3.31,0,0,0-.86,2.35,3.34,3.34,0,0,0,.87,2.38,2.83,2.83,0,0,0,2.15.93,2.88,2.88,0,0,0,2.19-.92,3.35,3.35,0,0,0,.87-2.4,3.26,3.26,0,0,0-.87-2.36A2.92,2.92,0,0,0,686.62,427.32Z"/><path class="cls-2" d="M695.53,420.91h2.8V425H700v2.41h-1.66v8.75h-2.8v-8.75h-1.44V425h1.44Z"/><path class="cls-2" d="M702.58,420.43a1.71,1.71,0,0,1,1.26.53,1.77,1.77,0,0,1,.53,1.29,1.75,1.75,0,0,1-.52,1.28,1.69,1.69,0,0,1-1.25.53,1.72,1.72,0,0,1-1.27-.54,1.8,1.8,0,0,1-.53-1.31,1.78,1.78,0,0,1,1.78-1.78Zm-1.4,4.59H704v11.16h-2.8Z"/><path class="cls-2" d="M711.76,424.73a5.92,5.92,0,0,1,3,.79,5.79,5.79,0,0,1,2.95,5.07,5.86,5.86,0,0,1-.78,3,5.66,5.66,0,0,1-2.14,2.15,5.9,5.9,0,0,1-3,.77,5.57,5.57,0,0,1-4.1-1.71,5.91,5.91,0,0,1,.22-8.51A5.6,5.6,0,0,1,711.76,424.73Zm0,2.63a2.88,2.88,0,0,0-2.17.91,3.22,3.22,0,0,0-.87,2.32,3.28,3.28,0,0,0,.86,2.36,2.87,2.87,0,0,0,2.17.9,2.9,2.9,0,0,0,2.19-.91,3.6,3.6,0,0,0,0-4.68A2.9,2.9,0,0,0,711.81,427.37Z"/><path class="cls-2" d="M720,425h2.8v1.14a6.75,6.75,0,0,1,1.72-1.12,4.18,4.18,0,0,1,1.58-.31,3.83,3.83,0,0,1,2.82,1.16,4,4,0,0,1,1,2.91v7.37h-2.77v-4.89a12.3,12.3,0,0,0-.18-2.65,1.82,1.82,0,0,0-.62-1,1.75,1.75,0,0,0-1.1-.34,2.06,2.06,0,0,0-1.46.57,3,3,0,0,0-.84,1.57,12.79,12.79,0,0,0-.12,2.26v4.48H720Z"/><path class="cls-2" d="M737.11,425h1q0-2.19.07-2.59a2.14,2.14,0,0,1,.77-1.46,2.89,2.89,0,0,1,1.87-.54,5.8,5.8,0,0,1,2,.4V423a3.75,3.75,0,0,0-1-.17,1,1,0,0,0-.72.21.89.89,0,0,0-.16.64V425h1.77v2.37H740.9v8.79h-2.8v-8.79h-1Z"/><path class="cls-2" d="M743.66,425h2.4v1.4a3,3,0,0,1,1-1.26,2.5,2.5,0,0,1,1.42-.43,2.62,2.62,0,0,1,1.14.29l-.87,2.41a1.92,1.92,0,0,0-.81-.25,1.28,1.28,0,0,0-1.09.8,7.31,7.31,0,0,0-.45,3.14v5.05h-2.78Z"/><path class="cls-2" d="M756.27,424.73a5.92,5.92,0,0,1,3,.79,5.79,5.79,0,0,1,2.95,5.07,5.86,5.86,0,0,1-.78,3,5.66,5.66,0,0,1-2.14,2.15,5.9,5.9,0,0,1-3,.77,5.57,5.57,0,0,1-4.1-1.71,5.92,5.92,0,0,1,.22-8.51A5.6,5.6,0,0,1,756.27,424.73Zm0,2.63a2.88,2.88,0,0,0-2.17.91,3.22,3.22,0,0,0-.87,2.32,3.28,3.28,0,0,0,.86,2.36,2.87,2.87,0,0,0,2.17.9,2.9,2.9,0,0,0,2.19-.91,3.6,3.6,0,0,0,0-4.68A2.9,2.9,0,0,0,756.32,427.37Z"/><path class="cls-2" d="M764.46,425h2.8v1.28a4.79,4.79,0,0,1,1.6-1.18,4.66,4.66,0,0,1,1.91-.39,3.56,3.56,0,0,1,1.89.51,3.7,3.7,0,0,1,1.35,1.5,4.52,4.52,0,0,1,1.64-1.5,4.46,4.46,0,0,1,2.12-.51,3.92,3.92,0,0,1,2.09.55,3.2,3.2,0,0,1,1.3,1.45,7.73,7.73,0,0,1,.39,2.9v6.54h-2.82v-5.66a4.84,4.84,0,0,0-.47-2.57,1.61,1.61,0,0,0-1.42-.67,2.15,2.15,0,0,0-1.29.41,2.43,2.43,0,0,0-.85,1.13,7,7,0,0,0-.28,2.32v5h-2.82v-5.4a7.64,7.64,0,0,0-.22-2.17,2,2,0,0,0-.66-1,1.74,1.74,0,0,0-1.07-.33,2.11,2.11,0,0,0-1.27.42,2.48,2.48,0,0,0-.85,1.16,7.19,7.19,0,0,0-.28,2.36v5h-2.8Z"/><path class="cls-2" d="M794.77,420.71l2.45,1.22-2.64,5.13a4.39,4.39,0,0,1,3.26,1.37,4.69,4.69,0,0,1,1.34,3.42,4.73,4.73,0,0,1-8.11,3.29,4.57,4.57,0,0,1-1.36-3.26,4.9,4.9,0,0,1,.21-1.4,14.16,14.16,0,0,1,1-2.17Zm-.36,9.06a1.77,1.77,0,0,0-1.34.58,2.19,2.19,0,0,0,0,2.92,1.78,1.78,0,0,0,1.33.6,1.86,1.86,0,0,0,1.37-.58,2.17,2.17,0,0,0,0-2.93A1.87,1.87,0,0,0,794.41,429.78Z"/></g><g class="cls-1"><path class="cls-2" d="M638,449h2.8v1.28a4.79,4.79,0,0,1,1.6-1.18,4.66,4.66,0,0,1,1.91-.39,3.56,3.56,0,0,1,1.89.51,3.7,3.7,0,0,1,1.35,1.5,4.52,4.52,0,0,1,1.64-1.5,4.46,4.46,0,0,1,2.12-.51,3.92,3.92,0,0,1,2.09.55,3.2,3.2,0,0,1,1.3,1.45,7.73,7.73,0,0,1,.39,2.9v6.54h-2.82v-5.66a4.84,4.84,0,0,0-.47-2.57,1.61,1.61,0,0,0-1.42-.67,2.15,2.15,0,0,0-1.29.41,2.43,2.43,0,0,0-.85,1.13,7,7,0,0,0-.28,2.32v5H645.2v-5.4a7.64,7.64,0,0,0-.22-2.17,2,2,0,0,0-.66-1,1.74,1.74,0,0,0-1.07-.33,2.11,2.11,0,0,0-1.27.42,2.48,2.48,0,0,0-.85,1.16,7.19,7.19,0,0,0-.28,2.36v5H638Z"/><path class="cls-2" d="M663,448.73a5.92,5.92,0,0,1,3,.79,5.79,5.79,0,0,1,2.95,5.07,5.86,5.86,0,0,1-.78,3,5.66,5.66,0,0,1-2.14,2.15,5.9,5.9,0,0,1-3,.77,5.57,5.57,0,0,1-4.1-1.71,5.92,5.92,0,0,1,.22-8.51A5.6,5.6,0,0,1,663,448.73Zm0,2.63a2.88,2.88,0,0,0-2.17.91,3.22,3.22,0,0,0-.87,2.32,3.28,3.28,0,0,0,.86,2.36,2.87,2.87,0,0,0,2.17.9,2.9,2.9,0,0,0,2.19-.91,3.6,3.6,0,0,0,0-4.68A2.9,2.9,0,0,0,663.09,451.37Z"/><path class="cls-2" d="M671.25,449H674v1.14a6.74,6.74,0,0,1,1.73-1.12,4.18,4.18,0,0,1,1.58-.31,3.83,3.83,0,0,1,2.82,1.16,4,4,0,0,1,1,2.91v7.37h-2.77v-4.89a12.38,12.38,0,0,0-.18-2.65,1.82,1.82,0,0,0-.62-1,1.75,1.75,0,0,0-1.1-.34,2.06,2.06,0,0,0-1.46.57,3,3,0,0,0-.84,1.57,12.65,12.65,0,0,0-.12,2.26v4.48h-2.8Z"/><path class="cls-2" d="M684.19,444.91H687V449h1.66v2.41H687v8.75h-2.8v-8.75h-1.44V449h1.44Z"/><path class="cls-2" d="M690.16,444.71h2.78v5.43a6.39,6.39,0,0,1,1.65-1.06,4.26,4.26,0,0,1,1.68-.35,3.79,3.79,0,0,1,2.8,1.15,4,4,0,0,1,1,2.92v7.37h-2.76v-4.89a12.07,12.07,0,0,0-.18-2.62,1.82,1.82,0,0,0-.63-1,1.76,1.76,0,0,0-1.1-.34,2.08,2.08,0,0,0-1.46.56,3,3,0,0,0-.85,1.54,12.73,12.73,0,0,0-.12,2.3v4.48h-2.78Z"/><path class="cls-2" d="M709.58,450.58l-1.73,1.73a2.93,2.93,0,0,0-1.92-1,1.21,1.21,0,0,0-.74.2.6.6,0,0,0-.27.5.61.61,0,0,0,.17.42,3.18,3.18,0,0,0,.84.52l1,.51a6,6,0,0,1,2.22,1.63,3.4,3.4,0,0,1-.49,4.43,4.18,4.18,0,0,1-2.93,1,4.65,4.65,0,0,1-3.9-1.91l1.72-1.88a4,4,0,0,0,1.15.93,2.56,2.56,0,0,0,1.17.35,1.4,1.4,0,0,0,.89-.27.77.77,0,0,0,.34-.62q0-.65-1.22-1.26l-.94-.47q-2.71-1.36-2.71-3.41a3,3,0,0,1,1-2.26,3.7,3.7,0,0,1,2.61-.94,4.52,4.52,0,0,1,3.67,1.85Z"/><path class="cls-2" d="M718.2,444.91H721V449h1.66v2.41H721v8.75h-2.8v-8.75h-1.44V449h1.44Z"/><path class="cls-2" d="M729.4,448.73a5.92,5.92,0,0,1,3,.79,5.79,5.79,0,0,1,2.95,5.07,5.86,5.86,0,0,1-.78,3,5.66,5.66,0,0,1-2.14,2.15,5.9,5.9,0,0,1-3,.77,5.57,5.57,0,0,1-4.1-1.71,5.91,5.91,0,0,1,.22-8.51A5.6,5.6,0,0,1,729.4,448.73Zm0,2.63a2.88,2.88,0,0,0-2.17.91,3.22,3.22,0,0,0-.87,2.32,3.28,3.28,0,0,0,.86,2.36,2.87,2.87,0,0,0,2.17.9,2.9,2.9,0,0,0,2.19-.91,3.6,3.6,0,0,0,0-4.68A2.9,2.9,0,0,0,729.44,451.37Z"/><path class="cls-2" d="M748.71,448.73a5.92,5.92,0,0,1,3,.79,5.79,5.79,0,0,1,2.95,5.07,5.86,5.86,0,0,1-.78,3,5.66,5.66,0,0,1-2.14,2.15,5.9,5.9,0,0,1-3,.77,5.57,5.57,0,0,1-4.1-1.71,5.91,5.91,0,0,1,.22-8.51A5.6,5.6,0,0,1,748.71,448.73Zm0,2.63a2.88,2.88,0,0,0-2.17.91,3.22,3.22,0,0,0-.87,2.32,3.28,3.28,0,0,0,.86,2.36,2.87,2.87,0,0,0,2.17.9,2.9,2.9,0,0,0,2.19-.91,3.6,3.6,0,0,0,0-4.68A2.9,2.9,0,0,0,748.76,451.37Z"/><path class="cls-2" d="M756.92,449h2.8v1.14a6.75,6.75,0,0,1,1.72-1.12,4.18,4.18,0,0,1,1.58-.31,3.83,3.83,0,0,1,2.82,1.16,4,4,0,0,1,1,2.91v7.37H764v-4.89a12.3,12.3,0,0,0-.18-2.65,1.82,1.82,0,0,0-.62-1,1.75,1.75,0,0,0-1.1-.34,2.06,2.06,0,0,0-1.46.57,3,3,0,0,0-.84,1.57,12.79,12.79,0,0,0-.12,2.26v4.48h-2.8Z"/><path class="cls-2" d="M780.7,455.41h-9a3,3,0,0,0,1,1.89,3.27,3.27,0,0,0,2.16.7,3.73,3.73,0,0,0,2.7-1.1L780,458a5.56,5.56,0,0,1-2.11,1.85,6.61,6.61,0,0,1-2.92.6,5.77,5.77,0,0,1-4.28-1.66,5.63,5.63,0,0,1-1.65-4.15,5.83,5.83,0,0,1,1.65-4.24,5.53,5.53,0,0,1,4.13-1.69,5.73,5.73,0,0,1,4.29,1.69,6.1,6.1,0,0,1,1.65,4.46Zm-2.8-2.21a2.8,2.8,0,0,0-1.09-1.52,3.17,3.17,0,0,0-1.89-.58,3.35,3.35,0,0,0-2.05.66,3.66,3.66,0,0,0-1,1.45Z"/><path class="cls-2" d="M787.6,449h2.86l2.9,7,3.2-7h2.87l-7,15.24h-2.89l2.29-4.91Z"/><path class="cls-2" d="M812.2,455.41h-9a3,3,0,0,0,1,1.89,3.27,3.27,0,0,0,2.16.7,3.73,3.73,0,0,0,2.7-1.1l2.36,1.11a5.56,5.56,0,0,1-2.11,1.85,6.61,6.61,0,0,1-2.92.6,5.77,5.77,0,0,1-4.28-1.66,5.63,5.63,0,0,1-1.65-4.15,5.83,5.83,0,0,1,1.65-4.24,5.53,5.53,0,0,1,4.13-1.69,5.73,5.73,0,0,1,4.29,1.69,6.1,6.1,0,0,1,1.65,4.46Zm-2.8-2.21a2.8,2.8,0,0,0-1.09-1.52,3.17,3.17,0,0,0-1.89-.58,3.35,3.35,0,0,0-2.05.66,3.66,3.66,0,0,0-1,1.45Z"/><path class="cls-2" d="M822.7,449h2.8v11.16h-2.8V459a5.47,5.47,0,0,1-1.64,1.12,4.59,4.59,0,0,1-1.79.34,5,5,0,0,1-3.74-1.68,5.85,5.85,0,0,1-1.58-4.17,6,6,0,0,1,1.53-4.24,4.86,4.86,0,0,1,3.71-1.65,4.73,4.73,0,0,1,1.88.38,5.17,5.17,0,0,1,1.63,1.14Zm-2.94,2.3a2.83,2.83,0,0,0-2.16.92,3.31,3.31,0,0,0-.86,2.35,3.34,3.34,0,0,0,.87,2.38,2.83,2.83,0,0,0,2.15.93A2.88,2.88,0,0,0,822,457a3.35,3.35,0,0,0,.87-2.4,3.26,3.26,0,0,0-.87-2.36A2.92,2.92,0,0,0,819.75,451.32Z"/><path class="cls-2" d="M827.67,449h2.4v1.4a3,3,0,0,1,1-1.26,2.5,2.5,0,0,1,1.42-.43,2.62,2.62,0,0,1,1.14.29l-.87,2.41a1.93,1.93,0,0,0-.81-.25,1.28,1.28,0,0,0-1.09.8,7.31,7.31,0,0,0-.45,3.14v5.05h-2.78Z"/></g></g><g class="cls-1"><g class="cls-1"><path class="cls-2" d="M659.81,173.64l-2.13,1.88A3,3,0,0,0,655.4,174a1.38,1.38,0,0,0-.92.3.88.88,0,0,0-.36.68,1.16,1.16,0,0,0,.26.72,19.44,19.44,0,0,0,2.11,1.94q1.64,1.37,2,1.73a6,6,0,0,1,1.24,1.69,4.21,4.21,0,0,1,.36,1.76,4,4,0,0,1-1.28,3.07,4.68,4.68,0,0,1-3.35,1.21,5,5,0,0,1-2.81-.79,6.23,6.23,0,0,1-2-2.48l2.41-1.46q1.09,2,2.51,2a1.84,1.84,0,0,0,1.24-.43,1.28,1.28,0,0,0,.5-1,1.72,1.72,0,0,0-.38-1,11,11,0,0,0-1.67-1.57,16.88,16.88,0,0,1-3.18-3.1,3.94,3.94,0,0,1-.72-2.18,3.56,3.56,0,0,1,1.2-2.69,4.15,4.15,0,0,1,3-1.12,4.65,4.65,0,0,1,2.15.52A7.83,7.83,0,0,1,659.81,173.64Z"/><path class="cls-2" d="M665.28,175.52v1.23a5.28,5.28,0,0,1,1.64-1.14,4.74,4.74,0,0,1,1.89-.38,4.87,4.87,0,0,1,3.71,1.65,6,6,0,0,1,1.53,4.24,5.84,5.84,0,0,1-1.58,4.17,5,5,0,0,1-3.74,1.68,4.64,4.64,0,0,1-1.79-.34,5.45,5.45,0,0,1-1.65-1.12v5.26H662.5V175.52Zm2.94,2.3a2.92,2.92,0,0,0-2.19.9,3.25,3.25,0,0,0-.87,2.36,3.35,3.35,0,0,0,.87,2.4,2.9,2.9,0,0,0,2.19.92,2.84,2.84,0,0,0,2.16-.93,3.34,3.34,0,0,0,.88-2.38,3.3,3.3,0,0,0-.86-2.35A2.85,2.85,0,0,0,668.23,177.82Z"/><path class="cls-2" d="M687.54,181.91h-9a3,3,0,0,0,1,1.89,3.27,3.27,0,0,0,2.16.7,3.73,3.73,0,0,0,2.7-1.1l2.36,1.11a5.56,5.56,0,0,1-2.11,1.85,6.61,6.61,0,0,1-2.92.6,5.77,5.77,0,0,1-4.28-1.66,5.63,5.63,0,0,1-1.65-4.15,5.83,5.83,0,0,1,1.65-4.24,5.53,5.53,0,0,1,4.13-1.69,5.73,5.73,0,0,1,4.29,1.69,6.1,6.1,0,0,1,1.65,4.46Zm-2.8-2.21a2.8,2.8,0,0,0-1.09-1.52,3.17,3.17,0,0,0-1.89-.58,3.35,3.35,0,0,0-2.05.66,3.66,3.66,0,0,0-1,1.45Z"/><path class="cls-2" d="M700.73,177.78l-2.33,1.28a4,4,0,0,0-1.3-1,3.9,3.9,0,0,0-1.5-.27,3.5,3.5,0,0,0-2.54.94,3.19,3.19,0,0,0-1,2.4,3.08,3.08,0,0,0,.93,2.32,3.38,3.38,0,0,0,2.45.9,3.56,3.56,0,0,0,2.93-1.28l2.21,1.51a6.8,6.8,0,0,1-9.67.59,5.8,5.8,0,0,1,1.4-9.21,6.75,6.75,0,0,1,3.25-.78,6.58,6.58,0,0,1,3,.66A5.67,5.67,0,0,1,700.73,177.78Z"/><path class="cls-2" d="M704.35,170.93a1.71,1.71,0,0,1,1.26.53,1.77,1.77,0,0,1,.53,1.29,1.75,1.75,0,0,1-.52,1.28,1.69,1.69,0,0,1-1.25.53,1.72,1.72,0,0,1-1.27-.54,1.8,1.8,0,0,1-.53-1.31,1.78,1.78,0,0,1,1.78-1.78Zm-1.4,4.59h2.8v11.16h-2.8Z"/><path class="cls-2" d="M716.52,175.52h2.8v11.16h-2.8V185.5a5.47,5.47,0,0,1-1.64,1.12,4.59,4.59,0,0,1-1.79.34,5,5,0,0,1-3.74-1.68,5.85,5.85,0,0,1-1.58-4.17,6,6,0,0,1,1.53-4.24,4.86,4.86,0,0,1,3.71-1.65,4.73,4.73,0,0,1,1.88.38,5.17,5.17,0,0,1,1.63,1.14Zm-2.94,2.3a2.83,2.83,0,0,0-2.16.92,3.31,3.31,0,0,0-.86,2.35,3.34,3.34,0,0,0,.87,2.38,2.83,2.83,0,0,0,2.15.93,2.88,2.88,0,0,0,2.19-.92,3.35,3.35,0,0,0,.87-2.4,3.26,3.26,0,0,0-.87-2.36A2.92,2.92,0,0,0,713.58,177.82Z"/><path class="cls-2" d="M721.84,171.21h2.8v15.46h-2.8Z"/><path class="cls-2" d="M728.28,170.93a1.71,1.71,0,0,1,1.26.53,1.77,1.77,0,0,1,.53,1.29,1.75,1.75,0,0,1-.52,1.28,1.69,1.69,0,0,1-1.25.53A1.72,1.72,0,0,1,727,174a1.8,1.8,0,0,1-.53-1.31,1.78,1.78,0,0,1,1.78-1.78Zm-1.4,4.59h2.8v11.16h-2.8Z"/><path class="cls-2" d="M731.75,175.52h8.54l-5,8.79H740v2.37h-9l5-8.79h-4.27Z"/><path class="cls-2" d="M753.06,181.91h-9a3,3,0,0,0,1,1.89,3.27,3.27,0,0,0,2.16.7,3.73,3.73,0,0,0,2.7-1.1l2.36,1.11a5.56,5.56,0,0,1-2.11,1.85,6.61,6.61,0,0,1-2.92.6,5.78,5.78,0,0,1-4.28-1.66,5.63,5.63,0,0,1-1.65-4.15,5.82,5.82,0,0,1,1.65-4.24,5.53,5.53,0,0,1,4.13-1.69,5.73,5.73,0,0,1,4.29,1.69,6.1,6.1,0,0,1,1.65,4.46Zm-2.8-2.21a2.81,2.81,0,0,0-1.09-1.52,3.17,3.17,0,0,0-1.9-.58,3.35,3.35,0,0,0-2.05.66,3.65,3.65,0,0,0-1,1.45Z"/><path class="cls-2" d="M763.56,171.21h2.8v15.46h-2.8V185.5a5.45,5.45,0,0,1-1.64,1.12,4.59,4.59,0,0,1-1.79.34,5,5,0,0,1-3.74-1.68,5.85,5.85,0,0,1-1.58-4.17,6,6,0,0,1,1.53-4.24,4.87,4.87,0,0,1,3.71-1.65,4.73,4.73,0,0,1,1.88.38,5.16,5.16,0,0,1,1.63,1.14Zm-2.94,6.6a2.83,2.83,0,0,0-2.16.92,3.31,3.31,0,0,0-.86,2.35,3.35,3.35,0,0,0,.87,2.38,2.83,2.83,0,0,0,2.15.93,2.88,2.88,0,0,0,2.19-.92,3.35,3.35,0,0,0,.87-2.4,3.26,3.26,0,0,0-.87-2.36A2.92,2.92,0,0,0,760.61,177.82Z"/></g><g class="cls-1"><path class="cls-2" d="M677,195.59h8.34v2.83h-2.75v12.25h-2.91V198.42H677Z"/><path class="cls-2" d="M686.32,199.52h2.4v1.4a3,3,0,0,1,1-1.26,2.5,2.5,0,0,1,1.42-.43,2.62,2.62,0,0,1,1.14.29l-.87,2.41a1.92,1.92,0,0,0-.81-.25,1.28,1.28,0,0,0-1.09.8,7.31,7.31,0,0,0-.45,3.14v5.05h-2.78Z"/><path class="cls-2" d="M701.92,199.52h2.8v11.16h-2.8V209.5a5.47,5.47,0,0,1-1.64,1.12,4.59,4.59,0,0,1-1.79.34,5,5,0,0,1-3.74-1.68,5.85,5.85,0,0,1-1.58-4.17,6,6,0,0,1,1.53-4.24,4.86,4.86,0,0,1,3.71-1.65,4.73,4.73,0,0,1,1.88.38,5.17,5.17,0,0,1,1.63,1.14Zm-2.94,2.3a2.83,2.83,0,0,0-2.16.92,3.31,3.31,0,0,0-.86,2.35,3.34,3.34,0,0,0,.87,2.38,2.83,2.83,0,0,0,2.15.93,2.88,2.88,0,0,0,2.19-.92,3.35,3.35,0,0,0,.87-2.4,3.26,3.26,0,0,0-.87-2.36A2.92,2.92,0,0,0,699,201.82Z"/><path class="cls-2" d="M718.47,201.78l-2.33,1.28a4,4,0,0,0-1.3-1,3.9,3.9,0,0,0-1.5-.27,3.5,3.5,0,0,0-2.54.94,3.19,3.19,0,0,0-1,2.4,3.08,3.08,0,0,0,.93,2.32,3.38,3.38,0,0,0,2.45.9,3.56,3.56,0,0,0,2.93-1.28l2.21,1.51a6.8,6.8,0,0,1-9.67.59,5.8,5.8,0,0,1,1.4-9.21,6.75,6.75,0,0,1,3.25-.78,6.58,6.58,0,0,1,3,.66A5.67,5.67,0,0,1,718.47,201.78Z"/><path class="cls-2" d="M721,195.21h2.8v8.91l4.12-4.6h3.52l-4.81,5.35,5.38,5.81h-3.48l-4.74-5.14v5.14H721Z"/><path class="cls-2" d="M740,201.08l-1.73,1.73a2.93,2.93,0,0,0-1.92-1,1.21,1.21,0,0,0-.74.2.6.6,0,0,0-.27.5.61.61,0,0,0,.17.42,3.18,3.18,0,0,0,.84.52l1,.51a6,6,0,0,1,2.22,1.63,3.4,3.4,0,0,1-.49,4.43,4.18,4.18,0,0,1-2.93,1,4.65,4.65,0,0,1-3.9-1.91l1.72-1.88a4,4,0,0,0,1.15.93,2.56,2.56,0,0,0,1.17.35,1.4,1.4,0,0,0,.89-.27.77.77,0,0,0,.34-.62q0-.65-1.22-1.26l-.94-.47q-2.71-1.36-2.71-3.41a3,3,0,0,1,1-2.26,3.7,3.7,0,0,1,2.61-.94,4.52,4.52,0,0,1,3.67,1.85Z"/></g></g><g class="cls-1"><g class="cls-1"><path class="cls-2" d="M14.55,411.48H22v2.8H17.4V417H22v2.76H17.4v6.79H14.55Z"/><path class="cls-2" d="M29.52,415.12a5.92,5.92,0,0,1,3,.79A5.79,5.79,0,0,1,35.44,421a5.86,5.86,0,0,1-.78,3,5.66,5.66,0,0,1-2.14,2.15,5.9,5.9,0,0,1-3,.77,5.57,5.57,0,0,1-4.1-1.71,5.91,5.91,0,0,1,.22-8.51A5.6,5.6,0,0,1,29.52,415.12Zm0,2.63a2.88,2.88,0,0,0-2.17.91,3.22,3.22,0,0,0-.87,2.32,3.28,3.28,0,0,0,.86,2.36,2.87,2.87,0,0,0,2.17.9,2.9,2.9,0,0,0,2.19-.91,3.6,3.6,0,0,0,0-4.68A2.9,2.9,0,0,0,29.57,417.76Z"/><path class="cls-2" d="M48.65,417.67l-2.33,1.28a4,4,0,0,0-1.3-1,3.9,3.9,0,0,0-1.5-.27,3.51,3.51,0,0,0-2.54.94,3.19,3.19,0,0,0-1,2.4,3.08,3.08,0,0,0,.93,2.32,3.38,3.38,0,0,0,2.45.9A3.56,3.56,0,0,0,46.32,423l2.21,1.51a6,6,0,0,1-5.07,2.33,6.07,6.07,0,0,1-4.61-1.74,5.8,5.8,0,0,1,1.4-9.21,6.75,6.75,0,0,1,3.25-.78,6.59,6.59,0,0,1,3,.66A5.67,5.67,0,0,1,48.65,417.67Z"/><path class="cls-2" d="M51.16,415.41H54v5.37a7.43,7.43,0,0,0,.22,2.18,1.89,1.89,0,0,0,.69.95,2,2,0,0,0,1.18.34,2.06,2.06,0,0,0,1.19-.33,2,2,0,0,0,.72-1,7.5,7.5,0,0,0,.17-2.06v-5.46H61v4.73a11.6,11.6,0,0,1-.46,4,4.36,4.36,0,0,1-1.66,2,5.09,5.09,0,0,1-2.79.7,5,5,0,0,1-3-.82,4.33,4.33,0,0,1-1.59-2.29,13.85,13.85,0,0,1-.33-3.69Z"/><path class="cls-2" d="M70.6,417l-1.73,1.73a2.93,2.93,0,0,0-1.92-1,1.21,1.21,0,0,0-.74.2.6.6,0,0,0-.27.5.61.61,0,0,0,.17.42,3.18,3.18,0,0,0,.84.52l1,.51a6,6,0,0,1,2.23,1.63,3.4,3.4,0,0,1-.49,4.43,4.18,4.18,0,0,1-2.93,1,4.65,4.65,0,0,1-3.9-1.91l1.72-1.88a4,4,0,0,0,1.15.93,2.56,2.56,0,0,0,1.17.35,1.4,1.4,0,0,0,.89-.27.77.77,0,0,0,.34-.62q0-.65-1.22-1.26l-.94-.47q-2.71-1.36-2.71-3.41a3,3,0,0,1,1-2.26,3.7,3.7,0,0,1,2.61-.94A4.52,4.52,0,0,1,70.6,417Z"/><path class="cls-2" d="M74.1,410.82a1.71,1.71,0,0,1,1.26.53,1.77,1.77,0,0,1,.53,1.29,1.75,1.75,0,0,1-.52,1.28,1.69,1.69,0,0,1-1.25.53,1.72,1.72,0,0,1-1.27-.54,1.8,1.8,0,0,1-.53-1.31,1.78,1.78,0,0,1,1.78-1.78Zm-1.4,4.59h2.8v11.16H72.7Z"/><path class="cls-2" d="M78,415.41h2.8v1.14a6.74,6.74,0,0,1,1.73-1.12,4.18,4.18,0,0,1,1.58-.31A3.83,3.83,0,0,1,87,416.28a4,4,0,0,1,1,2.91v7.37H85.17v-4.89A12.34,12.34,0,0,0,85,419a1.82,1.82,0,0,0-.62-1,1.75,1.75,0,0,0-1.1-.34,2.06,2.06,0,0,0-1.46.57,3,3,0,0,0-.84,1.57,12.72,12.72,0,0,0-.12,2.26v4.48H78Z"/><path class="cls-2" d="M98.89,415.41h2.79V425a6.32,6.32,0,0,1-1.14,4.16,5.7,5.7,0,0,1-4.6,1.8,8.06,8.06,0,0,1-2.76-.41,4.81,4.81,0,0,1-3-3.14h3.09a2.56,2.56,0,0,0,1.06.71,4.38,4.38,0,0,0,1.53.24,4,4,0,0,0,1.81-.35,2.11,2.11,0,0,0,1-.9,4.57,4.57,0,0,0,.28-1.91,4.63,4.63,0,0,1-1.55,1.06,4.91,4.91,0,0,1-1.84.32,5,5,0,0,1-3.79-1.62,6.29,6.29,0,0,1,.09-8.37,4.89,4.89,0,0,1,3.55-1.46,4.73,4.73,0,0,1,1.82.35,5.78,5.78,0,0,1,1.72,1.16ZM96,417.74a2.91,2.91,0,0,0-2.18.89,3.07,3.07,0,0,0-.86,2.23,3.11,3.11,0,0,0,.88,2.29A3,3,0,0,0,96,424a2.87,2.87,0,0,0,2.15-.87,3.15,3.15,0,0,0,.85-2.29,3.11,3.11,0,0,0-.85-2.27A2.93,2.93,0,0,0,96,417.74Z"/><path class="cls-2" d="M115.63,415.12a5.92,5.92,0,0,1,3,.79,5.79,5.79,0,0,1,2.95,5.07,5.86,5.86,0,0,1-.78,3,5.66,5.66,0,0,1-2.14,2.15,5.9,5.9,0,0,1-3,.77,5.57,5.57,0,0,1-4.1-1.71,5.91,5.91,0,0,1,.22-8.51A5.6,5.6,0,0,1,115.63,415.12Zm0,2.63a2.88,2.88,0,0,0-2.17.91,3.22,3.22,0,0,0-.87,2.32,3.28,3.28,0,0,0,.86,2.36,2.87,2.87,0,0,0,2.17.9,2.9,2.9,0,0,0,2.19-.91,3.6,3.6,0,0,0,0-4.68A2.9,2.9,0,0,0,115.67,417.76Z"/><path class="cls-2" d="M123.83,415.41h2.8v1.14a6.74,6.74,0,0,1,1.73-1.12,4.18,4.18,0,0,1,1.58-.31,3.83,3.83,0,0,1,2.82,1.16,4,4,0,0,1,1,2.91v7.37H131v-4.89a12.34,12.34,0,0,0-.18-2.65,1.82,1.82,0,0,0-.62-1,1.75,1.75,0,0,0-1.1-.34,2.06,2.06,0,0,0-1.46.57,3,3,0,0,0-.84,1.57,12.72,12.72,0,0,0-.12,2.26v4.48h-2.8Z"/></g><g class="cls-1"><path class="cls-2" d="M15.72,434.82a1.71,1.71,0,0,1,1.26.53,1.77,1.77,0,0,1,.53,1.29,1.75,1.75,0,0,1-.52,1.28,1.69,1.69,0,0,1-1.25.53,1.72,1.72,0,0,1-1.27-.54,1.8,1.8,0,0,1-.53-1.31,1.78,1.78,0,0,1,1.78-1.78Zm-1.4,4.59h2.8v11.16h-2.8Z"/><path class="cls-2" d="M19.66,439.41h2.8v1.14a6.74,6.74,0,0,1,1.73-1.12,4.18,4.18,0,0,1,1.58-.31,3.83,3.83,0,0,1,2.82,1.16,4,4,0,0,1,1,2.91v7.37H26.79v-4.89a12.34,12.34,0,0,0-.18-2.65,1.82,1.82,0,0,0-.62-1,1.75,1.75,0,0,0-1.1-.34,2.06,2.06,0,0,0-1.46.57,3,3,0,0,0-.84,1.57,12.72,12.72,0,0,0-.12,2.26v4.48h-2.8Z"/><path class="cls-2" d="M32.26,439.41h2.8v1.14a6.74,6.74,0,0,1,1.73-1.12,4.18,4.18,0,0,1,1.58-.31,3.83,3.83,0,0,1,2.82,1.16,4,4,0,0,1,1,2.91v7.37H39.39v-4.89a12.34,12.34,0,0,0-.18-2.65,1.82,1.82,0,0,0-.62-1,1.75,1.75,0,0,0-1.1-.34,2.06,2.06,0,0,0-1.46.57,3,3,0,0,0-.84,1.57,12.72,12.72,0,0,0-.12,2.26v4.48h-2.8Z"/><path class="cls-2" d="M50.1,439.12a5.92,5.92,0,0,1,3,.79A5.79,5.79,0,0,1,56,445a5.86,5.86,0,0,1-.78,3,5.66,5.66,0,0,1-2.14,2.15,5.9,5.9,0,0,1-3,.77,5.57,5.57,0,0,1-4.1-1.71,5.91,5.91,0,0,1,.22-8.51A5.6,5.6,0,0,1,50.1,439.12Zm0,2.63a2.88,2.88,0,0,0-2.17.91,3.22,3.22,0,0,0-.87,2.32,3.28,3.28,0,0,0,.86,2.36,2.87,2.87,0,0,0,2.17.9,2.9,2.9,0,0,0,2.19-.91,3.6,3.6,0,0,0,0-4.68A2.9,2.9,0,0,0,50.15,441.76Z"/><path class="cls-2" d="M57.11,439.41H60L62.78,446l2.81-6.58h2.84l-4.75,11.16H61.87Z"/><path class="cls-2" d="M78.3,439.41h2.8v11.16H78.3v-1.18a5.46,5.46,0,0,1-1.64,1.12,4.59,4.59,0,0,1-1.79.34,5,5,0,0,1-3.74-1.68A5.85,5.85,0,0,1,69.56,445a6,6,0,0,1,1.53-4.24,4.87,4.87,0,0,1,3.71-1.65,4.73,4.73,0,0,1,1.88.38,5.16,5.16,0,0,1,1.63,1.14Zm-2.94,2.3a2.83,2.83,0,0,0-2.16.92,3.31,3.31,0,0,0-.86,2.35,3.34,3.34,0,0,0,.87,2.38,2.83,2.83,0,0,0,2.15.93,2.88,2.88,0,0,0,2.19-.92,3.35,3.35,0,0,0,.87-2.4,3.26,3.26,0,0,0-.87-2.36A2.92,2.92,0,0,0,75.36,441.71Z"/><path class="cls-2" d="M84.27,435.3h2.8v4.11h1.66v2.41H87.07v8.75h-2.8v-8.75H82.83v-2.41h1.44Z"/><path class="cls-2" d="M91.32,434.82a1.71,1.71,0,0,1,1.26.53,1.77,1.77,0,0,1,.53,1.29,1.75,1.75,0,0,1-.52,1.28,1.69,1.69,0,0,1-1.25.53,1.72,1.72,0,0,1-1.27-.54,1.8,1.8,0,0,1-.53-1.31,1.78,1.78,0,0,1,1.78-1.78Zm-1.4,4.59h2.8v11.16h-2.8Z"/><path class="cls-2" d="M100.5,439.12a5.92,5.92,0,0,1,3,.79,5.79,5.79,0,0,1,2.95,5.07,5.86,5.86,0,0,1-.78,3,5.66,5.66,0,0,1-2.14,2.15,5.9,5.9,0,0,1-3,.77,5.57,5.57,0,0,1-4.1-1.71,5.91,5.91,0,0,1,.22-8.51A5.6,5.6,0,0,1,100.5,439.12Zm0,2.63a2.88,2.88,0,0,0-2.17.91,3.22,3.22,0,0,0-.87,2.32,3.28,3.28,0,0,0,.86,2.36,2.87,2.87,0,0,0,2.17.9,2.9,2.9,0,0,0,2.19-.91,3.6,3.6,0,0,0,0-4.68A2.9,2.9,0,0,0,100.55,441.76Z"/><path class="cls-2" d="M108.7,439.41h2.8v1.14a6.74,6.74,0,0,1,1.73-1.12,4.18,4.18,0,0,1,1.58-.31,3.83,3.83,0,0,1,2.82,1.16,4,4,0,0,1,1,2.91v7.37h-2.77v-4.89a12.34,12.34,0,0,0-.18-2.65,1.82,1.82,0,0,0-.62-1,1.75,1.75,0,0,0-1.1-.34,2.06,2.06,0,0,0-1.46.57,3,3,0,0,0-.84,1.57,12.72,12.72,0,0,0-.12,2.26v4.48h-2.8Z"/></g></g><g class="cls-1"><g class="cls-1"><path class="cls-2" d="M363.23,20.11a7.49,7.49,0,0,1,5.5,2.32,7.71,7.71,0,0,1,2.3,5.65,7.63,7.63,0,0,1-2.27,5.59,7.88,7.88,0,0,1-11.16-.06,7.94,7.94,0,0,1,1.68-12.43A7.73,7.73,0,0,1,363.23,20.11Zm0,2.81a4.73,4.73,0,0,0-3.52,1.46,5.07,5.07,0,0,0-1.43,3.7,4.82,4.82,0,0,0,1.8,4,4.93,4.93,0,0,0,3.2,1.14,4.68,4.68,0,0,0,3.48-1.48,5.32,5.32,0,0,0,0-7.29A4.72,4.72,0,0,0,363.2,22.92Z"/><path class="cls-2" d="M372.78,24.42h2.4v1.4a3,3,0,0,1,1-1.26,2.5,2.5,0,0,1,1.42-.43,2.62,2.62,0,0,1,1.14.29l-.87,2.41a1.92,1.92,0,0,0-.81-.25,1.28,1.28,0,0,0-1.09.8,7.31,7.31,0,0,0-.45,3.14v5.05h-2.78Z"/><path class="cls-2" d="M381.25,19.83a1.71,1.71,0,0,1,1.26.53,1.77,1.77,0,0,1,.53,1.29,1.75,1.75,0,0,1-.52,1.28,1.69,1.69,0,0,1-1.25.53,1.72,1.72,0,0,1-1.27-.54,1.8,1.8,0,0,1-.53-1.31,1.78,1.78,0,0,1,1.78-1.78Zm-1.4,4.59h2.8V35.58h-2.8Z"/><path class="cls-2" d="M396.37,30.81h-9a3,3,0,0,0,1,1.89,3.27,3.27,0,0,0,2.16.7,3.73,3.73,0,0,0,2.7-1.1l2.36,1.11a5.56,5.56,0,0,1-2.11,1.85,6.61,6.61,0,0,1-2.92.6,5.77,5.77,0,0,1-4.28-1.66,5.63,5.63,0,0,1-1.65-4.15,5.83,5.83,0,0,1,1.65-4.24,5.53,5.53,0,0,1,4.13-1.69,5.73,5.73,0,0,1,4.29,1.69,6.1,6.1,0,0,1,1.65,4.46Zm-2.8-2.21a2.81,2.81,0,0,0-1.09-1.52,3.17,3.17,0,0,0-1.9-.58,3.35,3.35,0,0,0-2.05.66,3.65,3.65,0,0,0-1,1.45Z"/><path class="cls-2" d="M398.63,24.42h2.8v1.14a6.74,6.74,0,0,1,1.73-1.12,4.18,4.18,0,0,1,1.58-.31,3.83,3.83,0,0,1,2.82,1.16,4,4,0,0,1,1,2.91v7.37h-2.77V30.69a12.34,12.34,0,0,0-.18-2.65,1.82,1.82,0,0,0-.62-1,1.75,1.75,0,0,0-1.1-.34,2.06,2.06,0,0,0-1.46.57,3,3,0,0,0-.84,1.57,12.72,12.72,0,0,0-.12,2.26v4.48h-2.8Z"/><path class="cls-2" d="M411.57,20.31h2.8v4.11H416v2.41h-1.66v8.75h-2.8V26.83h-1.44V24.42h1.44Z"/><path class="cls-2" d="M428.71,30.81h-9a3,3,0,0,0,1,1.89,3.27,3.27,0,0,0,2.16.7,3.73,3.73,0,0,0,2.7-1.1L428,33.41a5.56,5.56,0,0,1-2.11,1.85,6.61,6.61,0,0,1-2.92.6,5.78,5.78,0,0,1-4.28-1.66A5.63,5.63,0,0,1,417,30.06a5.82,5.82,0,0,1,1.65-4.24,5.53,5.53,0,0,1,4.13-1.69,5.73,5.73,0,0,1,4.29,1.69,6.1,6.1,0,0,1,1.65,4.46Zm-2.8-2.21a2.81,2.81,0,0,0-1.09-1.52,3.17,3.17,0,0,0-1.9-.58,3.35,3.35,0,0,0-2.05.66,3.65,3.65,0,0,0-1,1.45Z"/><path class="cls-2" d="M439.21,20.11H442V35.58h-2.8V34.4a5.45,5.45,0,0,1-1.64,1.12,4.59,4.59,0,0,1-1.79.34A5,5,0,0,1,432,34.19,5.85,5.85,0,0,1,430.46,30,6,6,0,0,1,432,25.78a4.87,4.87,0,0,1,3.71-1.65,4.73,4.73,0,0,1,1.88.38,5.16,5.16,0,0,1,1.63,1.14Zm-2.94,6.6a2.83,2.83,0,0,0-2.16.92,3.31,3.31,0,0,0-.86,2.35,3.35,3.35,0,0,0,.87,2.38,2.83,2.83,0,0,0,2.15.93,2.88,2.88,0,0,0,2.19-.92,3.35,3.35,0,0,0,.87-2.4,3.26,3.26,0,0,0-.87-2.36A2.92,2.92,0,0,0,436.27,26.72Z"/><path class="cls-2" d="M451.05,20.31h2.8v4.11h1.66v2.41h-1.66v8.75h-2.8V26.83h-1.44V24.42h1.44Z"/><path class="cls-2" d="M462.25,24.13a5.92,5.92,0,0,1,3,.79A5.79,5.79,0,0,1,468.17,30a5.86,5.86,0,0,1-.78,3,5.66,5.66,0,0,1-2.14,2.15,5.9,5.9,0,0,1-3,.77,5.57,5.57,0,0,1-4.1-1.71,5.92,5.92,0,0,1,.22-8.51A5.6,5.6,0,0,1,462.25,24.13Zm0,2.63a2.88,2.88,0,0,0-2.17.91,3.22,3.22,0,0,0-.87,2.32,3.28,3.28,0,0,0,.86,2.36,2.87,2.87,0,0,0,2.17.9,2.9,2.9,0,0,0,2.19-.91,3.6,3.6,0,0,0,0-4.68A2.9,2.9,0,0,0,462.29,26.77Z"/></g><g class="cls-1"><path class="cls-2" d="M323.65,48.13a5.92,5.92,0,0,1,3,.79A5.79,5.79,0,0,1,329.57,54a5.86,5.86,0,0,1-.78,3,5.66,5.66,0,0,1-2.14,2.15,5.9,5.9,0,0,1-3,.77,5.57,5.57,0,0,1-4.1-1.71,5.91,5.91,0,0,1,.22-8.51A5.6,5.6,0,0,1,323.65,48.13Zm0,2.63a2.88,2.88,0,0,0-2.17.91,3.22,3.22,0,0,0-.87,2.32,3.28,3.28,0,0,0,.86,2.36,2.87,2.87,0,0,0,2.17.9,2.9,2.9,0,0,0,2.19-.91,3.6,3.6,0,0,0,0-4.68A2.9,2.9,0,0,0,323.7,50.77Z"/><path class="cls-2" d="M331.2,48.42h2.4v1.4a3,3,0,0,1,1-1.26,2.5,2.5,0,0,1,1.42-.43,2.62,2.62,0,0,1,1.14.29l-.87,2.41a1.93,1.93,0,0,0-.81-.25,1.28,1.28,0,0,0-1.09.8,7.31,7.31,0,0,0-.45,3.14v5.05H331.2Z"/><path class="cls-2" d="M346.82,48.42h2.79V58a6.32,6.32,0,0,1-1.14,4.16,5.69,5.69,0,0,1-4.6,1.8,8.07,8.07,0,0,1-2.76-.41,4.81,4.81,0,0,1-3-3.14h3.09a2.56,2.56,0,0,0,1.06.71,4.38,4.38,0,0,0,1.53.24,4,4,0,0,0,1.82-.35,2.11,2.11,0,0,0,1-.9,4.58,4.58,0,0,0,.28-1.91,4.63,4.63,0,0,1-1.55,1.06,4.91,4.91,0,0,1-1.83.32A5,5,0,0,1,339.64,58a6.29,6.29,0,0,1,.09-8.37,4.89,4.89,0,0,1,3.55-1.46,4.73,4.73,0,0,1,1.82.35,5.78,5.78,0,0,1,1.72,1.16Zm-2.9,2.33a2.91,2.91,0,0,0-2.18.89,3.07,3.07,0,0,0-.86,2.23,3.11,3.11,0,0,0,.88,2.29A3,3,0,0,0,344,57a2.87,2.87,0,0,0,2.15-.87,3.15,3.15,0,0,0,.85-2.29,3.11,3.11,0,0,0-.85-2.27A2.93,2.93,0,0,0,343.92,50.75Z"/><path class="cls-2" d="M360.67,48.42h2.8V59.58h-2.8V58.4A5.45,5.45,0,0,1,359,59.52a4.59,4.59,0,0,1-1.79.34,5,5,0,0,1-3.74-1.68A5.85,5.85,0,0,1,351.92,54a6,6,0,0,1,1.53-4.24,4.87,4.87,0,0,1,3.71-1.65,4.73,4.73,0,0,1,1.88.38,5.16,5.16,0,0,1,1.63,1.14Zm-2.94,2.3a2.83,2.83,0,0,0-2.16.92,3.31,3.31,0,0,0-.86,2.35,3.35,3.35,0,0,0,.87,2.38,2.83,2.83,0,0,0,2.15.93,2.88,2.88,0,0,0,2.19-.92,3.35,3.35,0,0,0,.87-2.4,3.26,3.26,0,0,0-.87-2.36A2.92,2.92,0,0,0,357.73,50.72Z"/><path class="cls-2" d="M366.3,48.42h2.8v1.14a6.74,6.74,0,0,1,1.73-1.12,4.18,4.18,0,0,1,1.58-.31,3.83,3.83,0,0,1,2.82,1.16,4,4,0,0,1,1,2.91v7.37h-2.77V54.69a12.38,12.38,0,0,0-.18-2.65,1.82,1.82,0,0,0-.62-1,1.75,1.75,0,0,0-1.1-.34,2.06,2.06,0,0,0-1.46.57,3,3,0,0,0-.84,1.57,12.65,12.65,0,0,0-.12,2.26v4.48h-2.8Z"/><path class="cls-2" d="M380,43.83a1.71,1.71,0,0,1,1.26.53,1.77,1.77,0,0,1,.53,1.29,1.75,1.75,0,0,1-.52,1.28,1.69,1.69,0,0,1-1.25.53,1.72,1.72,0,0,1-1.27-.54,1.8,1.8,0,0,1-.53-1.31A1.78,1.78,0,0,1,380,43.83Zm-1.4,4.59h2.8V59.58h-2.8Z"/><path class="cls-2" d="M383.46,48.42H392l-5,8.79h4.72v2.37h-9l5-8.79h-4.27Z"/><path class="cls-2" d="M401.83,48.42h2.8V59.58h-2.8V58.4a5.45,5.45,0,0,1-1.64,1.12,4.59,4.59,0,0,1-1.79.34,5,5,0,0,1-3.74-1.68A5.85,5.85,0,0,1,393.08,54a6,6,0,0,1,1.53-4.24,4.87,4.87,0,0,1,3.71-1.65,4.73,4.73,0,0,1,1.88.38,5.16,5.16,0,0,1,1.63,1.14Zm-2.94,2.3a2.83,2.83,0,0,0-2.16.92,3.31,3.31,0,0,0-.86,2.35,3.35,3.35,0,0,0,.87,2.38,2.83,2.83,0,0,0,2.15.93,2.88,2.88,0,0,0,2.19-.92A3.35,3.35,0,0,0,402,54a3.26,3.26,0,0,0-.87-2.36A2.92,2.92,0,0,0,398.89,50.72Z"/><path class="cls-2" d="M407.8,44.31h2.8v4.11h1.66v2.41H410.6v8.75h-2.8V50.83h-1.44V48.42h1.44Z"/><path class="cls-2" d="M414.85,43.83a1.71,1.71,0,0,1,1.26.53,1.77,1.77,0,0,1,.53,1.29,1.75,1.75,0,0,1-.52,1.28,1.69,1.69,0,0,1-1.25.53,1.72,1.72,0,0,1-1.27-.54,1.8,1.8,0,0,1-.53-1.31,1.78,1.78,0,0,1,1.78-1.78Zm-1.4,4.59h2.8V59.58h-2.8Z"/><path class="cls-2" d="M424,48.13a5.92,5.92,0,0,1,3,.79A5.79,5.79,0,0,1,429.95,54a5.86,5.86,0,0,1-.78,3A5.66,5.66,0,0,1,427,59.09a5.9,5.9,0,0,1-3,.77,5.57,5.57,0,0,1-4.1-1.71,5.92,5.92,0,0,1,.22-8.51A5.6,5.6,0,0,1,424,48.13Zm0,2.63a2.88,2.88,0,0,0-2.17.91A3.22,3.22,0,0,0,421,54a3.28,3.28,0,0,0,.86,2.36,2.87,2.87,0,0,0,2.17.9,2.9,2.9,0,0,0,2.19-.91,3.6,3.6,0,0,0,0-4.68A2.9,2.9,0,0,0,424.08,50.77Z"/><path class="cls-2" d="M432.23,48.42H435v1.14a6.74,6.74,0,0,1,1.73-1.12,4.18,4.18,0,0,1,1.58-.31,3.83,3.83,0,0,1,2.82,1.16,4,4,0,0,1,1,2.91v7.37h-2.77V54.69a12.38,12.38,0,0,0-.18-2.65,1.82,1.82,0,0,0-.62-1,1.75,1.75,0,0,0-1.1-.34,2.06,2.06,0,0,0-1.46.57,3,3,0,0,0-.84,1.57A12.65,12.65,0,0,0,435,55.1v4.48h-2.8Z"/><path class="cls-2" d="M461.63,50.68,459.3,52a4,4,0,0,0-1.3-1,3.9,3.9,0,0,0-1.5-.27,3.51,3.51,0,0,0-2.54.94,3.19,3.19,0,0,0-1,2.4,3.09,3.09,0,0,0,.93,2.32,3.38,3.38,0,0,0,2.45.9A3.57,3.57,0,0,0,459.3,56l2.21,1.51a6.8,6.8,0,0,1-9.67.59,5.8,5.8,0,0,1,1.4-9.21,6.75,6.75,0,0,1,3.25-.78,6.59,6.59,0,0,1,3,.66A5.67,5.67,0,0,1,461.63,50.68Z"/><path class="cls-2" d="M472.39,48.42h2.8V59.58h-2.8V58.4a5.47,5.47,0,0,1-1.64,1.12,4.59,4.59,0,0,1-1.79.34,5,5,0,0,1-3.74-1.68A5.85,5.85,0,0,1,463.64,54a6,6,0,0,1,1.53-4.24,4.86,4.86,0,0,1,3.71-1.65,4.73,4.73,0,0,1,1.88.38,5.17,5.17,0,0,1,1.63,1.14Zm-2.94,2.3a2.83,2.83,0,0,0-2.16.92,3.31,3.31,0,0,0-.86,2.35,3.34,3.34,0,0,0,.87,2.38,2.83,2.83,0,0,0,2.15.93,2.88,2.88,0,0,0,2.19-.92,3.35,3.35,0,0,0,.87-2.4,3.26,3.26,0,0,0-.87-2.36A2.92,2.92,0,0,0,469.44,50.72Z"/><path class="cls-2" d="M484.84,50l-1.73,1.73a2.93,2.93,0,0,0-1.92-1,1.21,1.21,0,0,0-.74.2.6.6,0,0,0-.27.5.61.61,0,0,0,.17.42,3.18,3.18,0,0,0,.84.52l1,.51a6,6,0,0,1,2.23,1.63,3.4,3.4,0,0,1-.49,4.43,4.18,4.18,0,0,1-2.93,1,4.65,4.65,0,0,1-3.9-1.91l1.72-1.88A4,4,0,0,0,480,57a2.56,2.56,0,0,0,1.17.35,1.4,1.4,0,0,0,.89-.27.77.77,0,0,0,.34-.62q0-.65-1.22-1.26l-.94-.47q-2.71-1.36-2.71-3.41a3,3,0,0,1,1-2.26,3.7,3.7,0,0,1,2.61-.94A4.52,4.52,0,0,1,484.84,50Z"/><path class="cls-2" d="M498.43,54.81h-9a3,3,0,0,0,1,1.89,3.27,3.27,0,0,0,2.16.7,3.73,3.73,0,0,0,2.7-1.1l2.36,1.11a5.56,5.56,0,0,1-2.11,1.85,6.61,6.61,0,0,1-2.92.6,5.77,5.77,0,0,1-4.28-1.66,5.63,5.63,0,0,1-1.65-4.15,5.83,5.83,0,0,1,1.65-4.24,5.53,5.53,0,0,1,4.13-1.69,5.73,5.73,0,0,1,4.29,1.69,6.1,6.1,0,0,1,1.65,4.46Zm-2.8-2.21a2.8,2.8,0,0,0-1.09-1.52,3.17,3.17,0,0,0-1.89-.58,3.35,3.35,0,0,0-2.05.66,3.66,3.66,0,0,0-1,1.45Z"/><path class="cls-2" d="M507.53,50l-1.73,1.73a2.93,2.93,0,0,0-1.92-1,1.21,1.21,0,0,0-.74.2.6.6,0,0,0-.27.5.61.61,0,0,0,.17.42,3.18,3.18,0,0,0,.84.52l1,.51a6,6,0,0,1,2.23,1.63,3.4,3.4,0,0,1-.49,4.43,4.18,4.18,0,0,1-2.93,1,4.65,4.65,0,0,1-3.9-1.91l1.72-1.88a4,4,0,0,0,1.15.93,2.56,2.56,0,0,0,1.17.35,1.4,1.4,0,0,0,.89-.27.77.77,0,0,0,.34-.62q0-.65-1.22-1.26l-.94-.47q-2.71-1.36-2.71-3.41a3,3,0,0,1,1-2.26,3.7,3.7,0,0,1,2.61-.94A4.52,4.52,0,0,1,507.53,50Z"/></g></g><path class="cls-2" d="M392.5,541.75a4.4,4.4,0,0,1-4.65-4.11v-213H324.1a4.4,4.4,0,0,1-4.65-4.11V219.85H252.8a4.4,4.4,0,0,1-4.65-4.11v-63a4.69,4.69,0,0,1,9.3,0v58.89H324.1a4.4,4.4,0,0,1,4.65,4.11V316.42H392.5a4.4,4.4,0,0,1,4.65,4.11V537.64A4.4,4.4,0,0,1,392.5,541.75Z"/><path class="cls-3" d="M466.27,487.33h-73.9a4.65,4.65,0,0,1,0-9.3h69.31l1.12-146.54a4.65,4.65,0,0,1,4.65-4.61h0a4.65,4.65,0,0,1,4.61,4.69h0l-1.12,151.15A4.65,4.65,0,0,1,466.27,487.33Z"/><path class="cls-3" d="M378.5,541.75c-3.46,0-4.65-2.58-4.65-4V483l-111,.42h0c-2.55,0-4.63-1.13-4.65-2.55s2-2.57,4.62-2.58l115.68-.45h0a7,7,0,0,1,3.28.75,2.25,2.25,0,0,1,1.37,1.82v57.36C383.19,539.17,382.08,541.75,378.5,541.75Z"/><path class="cls-3" d="M365.88,541.75a4.39,4.39,0,0,1-4.65-4.06V186.79a4.69,4.69,0,0,1,9.3,0v350.9A4.39,4.39,0,0,1,365.88,541.75Z"/><path class="cls-3" d="M406.2,541.75a4.44,4.44,0,0,1-4.65-4.22q0-.09,0-.18V230.62c0-1.89,2.08-3.42,4.65-3.42s4.65,1.53,4.65,3.42V537.34a4.35,4.35,0,0,1-4.28,4.42Z"/><path class="cls-3" d="M404.26,371.22h-117c-2.55,0-4.63-1.78-4.65-4L282,317.3c0-2.23,2-4,4.6-4.08h0c2.54,0,4.62,1.78,4.65,4l.59,45.93H404.26c2.57,0,4.65,1.81,4.65,4S406.83,371.22,404.26,371.22Z"/><path class="cls-2" d="M575.5,385.3H420.63a4,4,0,1,1,0-8.06H571.21V210.59a4.34,4.34,0,0,1,8.65,0V381.27a4.18,4.18,0,0,1-4.32,4Z"/><path class="cls-3" d="M478.24,239.69h-72a4.65,4.65,0,0,1,0-9.3h67.39v-43a4.65,4.65,0,0,1,9.3,0v47.66a4.65,4.65,0,0,1-4.69,4.61Z"/><path class="cls-2" d="M620,443.22H520.67c-1.55,0-2.8-2.08-2.8-4.65s1.25-4.65,2.8-4.65H620c1.55,0,2.8,2.08,2.8,4.65S621.57,443.22,620,443.22Z"/><path class="cls-2" d="M521.69,468.91H421a4.65,4.65,0,1,1,0-9.3H517V283.87a4.65,4.65,0,0,1,9.3,0V464.26A4.65,4.65,0,0,1,521.69,468.91Z"/><path class="cls-2" d="M419.41,541.75a4.42,4.42,0,0,1-4.65-4.15V117.13a4.68,4.68,0,0,1,9.3,0V537.6A4.42,4.42,0,0,1,419.41,541.75Z"/><path class="cls-2" d="M627.91,323.78h-52.7a4.65,4.65,0,0,1,0-9.3h52.7a4.65,4.65,0,0,1,0,9.3Z"/><path class="cls-3" d="M365.35,283.5H239.84a4.65,4.65,0,0,1,0-9.3H365.35a4.65,4.65,0,0,1,0,9.3Z"/><path class="cls-2" d="M391.26,427.42H171.68a4.65,4.65,0,0,1,0-9.3H391.26a4.65,4.65,0,0,1,0,9.3Z"/><path class="cls-3" d="M508.5,187.42a30.23,30.23,0,1,1-30.23-30.23h0A30.24,30.24,0,0,1,508.5,187.42Z"/><circle class="cls-2" cx="575.2" cy="197.51" r="48.84" transform="translate(-1.7 5.03) rotate(-0.5)"/><path class="cls-2" d="M691.73,320.29A39.74,39.74,0,1,1,652,280.55h0A39.75,39.75,0,0,1,691.73,320.29Z"/><path class="cls-3" d="M322.26,335.66a35,35,0,1,1-35-35,35,35,0,0,1,35,35Z"/><path class="cls-3" d="M323.09,482.68a41.63,41.63,0,1,1-41.64-41.62h0A41.62,41.62,0,0,1,323.09,482.68Z"/><path class="cls-2" d="M297,161.82a44.21,44.21,0,1,1-44.21-44.21h0A44.21,44.21,0,0,1,297,161.82Z"/><path class="cls-2" d="M233.32,422.42a44.21,44.21,0,1,1-44.22-44.2h0A44.21,44.21,0,0,1,233.32,422.42Z"/><path class="cls-4" d="M501.32,344.09A34.36,34.36,0,1,1,467,309.73a34.36,34.36,0,0,1,34.36,34.36Z"/><path class="cls-2" d="M636,438.57A40.56,40.56,0,1,1,595.47,398h0A40.55,40.55,0,0,1,636,438.57Z"/><circle class="cls-2" cx="418.39" cy="119.18" r="45.73" transform="translate(285.4 533.39) rotate(-88.1)"/><circle class="cls-4" cx="521.71" cy="283.87" r="36.43" transform="translate(194.66 779.66) rotate(-85.14)"/><path class="cls-4" d="M402.57,206.56a36.43,36.43,0,1,1-36.43-36.43,36.43,36.43,0,0,1,36.43,36.43Z"/><path class="cls-4" d="M262.87,277.65a41.48,41.48,0,1,1-41.48-41.48,41.48,41.48,0,0,1,41.48,41.48Z"/><path class="cls-5" d="M451.13,106.17a4.93,4.93,0,1,0-8.41,3.49l-7.81,12.22a5.7,5.7,0,0,0-2.08-.4A5.6,5.6,0,0,0,429,123l-10.24-7.49a4.57,4.57,0,1,0-8.79-1.77,4.38,4.38,0,0,0,.26,1.45l-10.73,6.72a6.44,6.44,0,1,0,1.35,1.65l10.5-6.57a4.59,4.59,0,0,0,3.21,1.32,4.52,4.52,0,0,0,3-1.11l10.27,7.5a5.53,5.53,0,0,0-.56,2.4,5.63,5.63,0,1,0,9.49-4.08l7.79-12.24a5,5,0,0,0,1.69.32,4.93,4.93,0,0,0,4.94-4.92Z"/><path class="cls-5" d="M381.39,200.16h0a11.68,11.68,0,0,0-23.13-1.4h-.4a9.43,9.43,0,0,0-9,6.7,4.93,4.93,0,0,0-.55,0,6.1,6.1,0,0,0,0,12.19h33.13a8.73,8.73,0,0,0,0-17.45Z"/><path class="cls-5" d="M287.14,343.87a5.46,5.46,0,1,1-5.46,5.46h0a5.45,5.45,0,0,1,5.45-5.45Z"/><path class="cls-5" d="M300.17,336.18l-.25-.23-.24-.23-.14-.12a17.81,17.81,0,0,0-24.58.58l-.79.79-1.09,1.1a3.42,3.42,0,0,0,4.84,4.84l1.89-1.89a11,11,0,0,1,15.52,0l1.36,1.32a3.39,3.39,0,0,0,4.8-4.8h0Z"/><path class="cls-5" d="M309.5,329.42l-1.13-1.13h0l-.89-.9A3.27,3.27,0,0,0,307,327a29.69,29.69,0,0,0-40.1.92l-.17.14-2,2a3.12,3.12,0,0,0,4.42,4.41h0l2-2h0a23.44,23.44,0,0,1,32.35-.18l1.61,1.61a3.16,3.16,0,1,0,4.42-4.51Z"/><path class="cls-5" d="M286.3,467.85a4,4,0,0,0-3.56-2.15H264.33a2.67,2.67,0,0,0-2.67,2.67h0v1.43h25.65Z"/><path class="cls-5" d="M304,472.21H261.66V497a2.68,2.68,0,0,0,2.67,2.67H304a2.68,2.68,0,0,0,2.67-2.67V474.88a2.66,2.66,0,0,0-2.65-2.67Z"/><path class="cls-5" d="M481.5,323.09H452.6a2.94,2.94,0,0,0-2.94,2.94v34.71a3,3,0,0,0,2.94,3h28.9a3,3,0,0,0,3-3V326A3,3,0,0,0,481.5,323.09Zm0,34.41H452.6V326.64h28.82ZM471,361.2h-7.91v-.87H471Z"/><path class="cls-5" d="M681.09,335.61a.29.29,0,0,0-.22-.1H623.11a.29.29,0,0,0-.22.1.27.27,0,0,0-.07.24s.88,5.4,7.64,5.4h43c6.76,0,7.63-5.35,7.64-5.4A.27.27,0,0,0,681.09,335.61Zm-24.76,3.81h-8.68v-2h8.68Z"/><path class="cls-5" d="M629.11,333.42h45.76a1.2,1.2,0,0,0,1.2-1.2h0v-28.1a1.2,1.2,0,0,0-1.2-1.2H629.11a1.2,1.2,0,0,0-1.2,1.2h0v28.1a1.2,1.2,0,0,0,1.2,1.2Zm3-26.31h39.76v22.12H632.11Z"/><path class="cls-5" d="M243.42,290.89l-12.58-12.55a18.72,18.72,0,1,0-8.21,8.21l12.55,12.58a5.83,5.83,0,1,0,8.52-8Zm-37.55-12.73a11.73,11.73,0,1,1,8.29,3.43,11.73,11.73,0,0,1-8.29-3.43Z"/><path class="cls-5" d="M534.93,263.28h-24a3.09,3.09,0,0,0-3.09,3.09h0v39.69a3.1,3.1,0,0,0,3.09,3.09h24a3.09,3.09,0,0,0,3.09-3.09h0V266.42a3.09,3.09,0,0,0-3-3.14ZM512.09,269a.78.78,0,0,1,.78-.78H533a.77.77,0,0,1,.78.76s0,0,0,0v29.25a.77.77,0,0,1-.76.78H512.87a.78.78,0,0,1-.78-.78h0V269Zm5.78,35.51a.76.76,0,0,1-.75.75h-5.33a.76.76,0,0,1-.75-.75v-1.32a.76.76,0,0,1,.75-.75h5.33a.76.76,0,0,1,.75.75Zm5,1.45A2.12,2.12,0,1,1,525,303.8h0a2.12,2.12,0,0,1-2.07,2.11Zm11.88-1.45a.75.75,0,0,1-.75.75h-5.32a.75.75,0,0,1-.75-.75v-1.32a.75.75,0,0,1,.75-.75H534a.75.75,0,0,1,.75.75Z"/><path class="cls-5" d="M478.83,186.42c-10.45,0-16.1,13.53-12,18.77a.71.71,0,0,0,.57.28h23.1a.72.72,0,0,0,.57-.28C495.24,199.86,489.28,186.42,478.83,186.42Z"/><path class="cls-5" d="M478.83,185.49a7.73,7.73,0,1,0-7.73-7.73A7.73,7.73,0,0,0,478.83,185.49Z"/><path class="cls-5" d="M266.5,173.78a120.48,120.48,0,0,0-11.73-5.1,1.44,1.44,0,0,1-.78-.6,21,21,0,0,1-.78-2.23,1.55,1.55,0,0,0-.8-1.17.65.65,0,0,1-.28-.52c0-1.75-.37-3.58.93-5.11a.53.53,0,0,0,.08-.17c.7-1.53.82-3.28,1.8-4.71V154c.11-1.09.23-2.17.32-3.26a.49.49,0,0,0-.22-.41c-.54-.19-.51-.63-.51-1.06v-4.56a4.07,4.07,0,0,0-1.3-3.17c-1.06-1-2.16-1.88-3.25-2.8-.52-.45-.57-.79-.07-1.28a4.72,4.72,0,0,1,.75-.56l-.17-.25a6.4,6.4,0,0,0-1,0c-1.21.19-2.42.36-3.61.64a14.88,14.88,0,0,0-6.3,2.76,5.65,5.65,0,0,0-2.39,4c-.06.89,0,1.79-.06,2.68v2.56c0,.24-.14.63-.31.69-.58.19-.6.57-.52,1.06s0,.69.09,1c.2.91.42,1.82.68,2.72a18.53,18.53,0,0,1,.68,2,6.78,6.78,0,0,0,1.63,3.57,1,1,0,0,1,.25.68c-.07,1-.18,2.09-.32,3.13a.77.77,0,0,1-.41.54c-.7.15-.81.68-1,1.22-.22.72-.45,1.43-.73,2.12a1.09,1.09,0,0,1-.52.54c-1.23.53-2.49,1-3.73,1.55s-2.66,1.09-4,1.7-2.63,1.36-3.93,2.06a9.7,9.7,0,0,0-2.08,1.43l-1.82,7.74c8.84,0,13.46,6.39,22.67,7.18l-3.26-4.71,5.26-14.39-1.63-3.49h3.26l-1.63,3.49L251,185.56l-3.31,4.57c6.71-1.13,17.41-7.07,22.59-7.07l-1.8-7.84A7.58,7.58,0,0,0,266.5,173.78Z"/><path class="cls-5" d="M273,135.34a11.14,11.14,0,0,0-11.12,11.13v.74l-5.11,3.32a.93.93,0,0,0-.4.92.9.9,0,0,0,.69.73l7.79,1.88A11.13,11.13,0,1,0,273,135.34Zm0,20.43a9.33,9.33,0,0,1-7-3.13.84.84,0,0,0-.47-.28l-6-1.46,3.79-2.46a.92.92,0,0,0,.41-.87,10.83,10.83,0,0,1-.07-1.1,9.31,9.31,0,1,1,9.32,9.3h0Z"/><path class="cls-5" d="M269.64,146.15H268.1a.2.2,0,0,0-.2.2h0v5.15a.19.19,0,0,0,.19.19h1.55a.19.19,0,0,0,.2-.18h0v-5.15a.2.2,0,0,0-.2-.2Z"/><path class="cls-5" d="M273.65,144h-1.54a.2.2,0,0,0-.2.19v7.28a.19.19,0,0,0,.19.19h1.55a.19.19,0,0,0,.2-.18h0v-7.28A.2.2,0,0,0,273.65,144Z"/><path class="cls-5" d="M277.5,139.9H276a.19.19,0,0,0-.19.19h0V151.5a.18.18,0,0,0,.17.19h1.56a.19.19,0,0,0,.2-.18h0V140.09A.2.2,0,0,0,277.5,139.9Z"/><path class="cls-5" d="M180.05,449.1a1.6,1.6,0,0,0,1.6,1.6h17.1a1.6,1.6,0,0,0,1.6-1.6h0V438.57h-20.3Z"/><path class="cls-5" d="M190.2,396.19a22.12,22.12,0,0,0-18.52,34.23,22.41,22.41,0,0,0,4.44,5h28.15a22.12,22.12,0,0,0-14.07-39.19Zm10.3,23.72h-3.73a6.44,6.44,0,0,1-.78,1.89l2.63,2.64a1.59,1.59,0,1,1-2.25,2.26l-2.64-2.64a6.7,6.7,0,0,1-1.89.79v3.73a1.6,1.6,0,0,1-3.2,0v-3.73a6.58,6.58,0,0,1-1.89-.79l-2.64,2.64a1.6,1.6,0,0,1-2.26-2.26l2.64-2.64a6.75,6.75,0,0,1-.79-1.89H180a1.6,1.6,0,0,1-.25-3.19h4a6.94,6.94,0,0,1,.79-1.9l-2.64-2.63a1.6,1.6,0,0,1,2.26-2.26l2.64,2.63a6.56,6.56,0,0,1,1.89-.78V408a1.6,1.6,0,0,1,3.2,0v3.73a6.68,6.68,0,0,1,1.89.78l2.64-2.63a1.59,1.59,0,0,1,2.25,2.26h0L196,414.82a6.62,6.62,0,0,1,.78,1.9h3.73a1.6,1.6,0,0,1,.25,3.19Z"/><path class="cls-5" d="M560.42,210.42h-2.48v6.2H555.5v18.6h7.44v-18.6h-2.48Zm0,22.32h-2.48V219.1h2.48Z"/><path class="cls-5" d="M571.58,210.42H569.1v6.2h-2.48v8.68h2.48v9.92h2.48V225.3h2.48v-8.68h-2.48Zm0,12.4H569.1V219.1h2.48Z"/><path class="cls-5" d="M582.74,210.42h-2.48v12.4h-2.48v7.44h2.48v5h2.48v-5h2.48v-7.44h-2.48Zm0,17.36h-2.48V225.3h2.48Z"/><path class="cls-5" d="M593.9,210.42h-2.48v2.48h-2.48v11.16h2.48v11.16h2.48V224.06h2.48V212.9H593.9Zm0,11.16h-2.48v-6.16h2.48Z"/><path class="cls-5" d="M596.32,198.22a6.19,6.19,0,0,0-4.3-4.72l-8.66-2.6v-2.48a9.84,9.84,0,0,0,2.17-4.16,5,5,0,0,0,4-4.86v-6.2a13.64,13.64,0,0,0-27.28,0h0v6.22a5,5,0,0,0,4,4.86,10,10,0,0,0,2.25,4.14v2.45l-8.66,2.6a6.19,6.19,0,0,0-4.3,4.73l-2.19,10.95H598.5ZM571,190.49a9.85,9.85,0,0,0,9.92,0v.64l-5,3-5-3Zm11.33,2.68,1.07.32v2.78l-2.48,2.48-3-3Zm-6.37-3.82a7.45,7.45,0,0,1-7.44-7.44v-4.07l5-1.65v2h1.24a22.34,22.34,0,0,0,8.68-1.77v5.49a7.45,7.45,0,0,1-7.44,7.44Zm9.92-7.79V177.3a2.45,2.45,0,0,1,0,4.26Zm-9.92-19.49a11.18,11.18,0,0,1,11.16,11.16v1.93a4.63,4.63,0,0,0-1.24-.51v-1.42h-2.48v.46a19.73,19.73,0,0,1-7.44,2v-2.92l-7.42,2.46v-2H566v1.42a4.63,4.63,0,0,0-1.24.51v-1.93a11.18,11.18,0,0,1,11.16-11.16Zm-11.16,17.35a2.48,2.48,0,0,1,1.24-2.14v4.27A2.46,2.46,0,0,1,564.76,179.42Zm4.79,13.74,4.37,2.62-3,3-2.42-2.51v-2.78Zm18.6,13.53-1.08-7.61-2.46.35,1,7.26H566.19l1-7.26-2.46-.35-1.09,7.61h-7.32l1.59-8a3.7,3.7,0,0,1,2.58-2.83l5.47-1.64v3.06l5,5,5-5,5,5,5-5v-3.06l5.47,1.64a3.72,3.72,0,0,1,2.58,2.83l1.59,8Z"/><path class="cls-5" d="M607.11,434.84a6.08,6.08,0,0,0,2.87-5.41v-7h1a.8.8,0,0,0,.8-.8v-3.76a.8.8,0,0,0-.8-.8H580a.8.8,0,0,0-.8.8v3.76a.8.8,0,0,0,.8.8h1v7.15c0,3.37,1,4.16,2.84,5.26l7.9,4.82v2c-2,1.19-7.19,4.32-7.87,4.8a6.08,6.08,0,0,0-2.87,5.41v6h-1a.79.79,0,0,0-.8.78h0v3.77a.8.8,0,0,0,.8.8h30.93a.8.8,0,0,0,.8-.8v-3.77a.79.79,0,0,0-.79-.79h-1v-6.18c0-3.37-1-4.16-2.84-5.26l-7.89-4.82v-2c2-1.19,7.18-4.32,7.86-4.8Zm-10,8.89,8.59,5.23a3.72,3.72,0,0,1,1.17.88,4.19,4.19,0,0,1,.29,1.93v6.17H583.84v-6a3.23,3.23,0,0,1,1.65-3c.54-.38,5.32-3.27,8.4-5.12a1.43,1.43,0,0,0,.69-1.23v-3.67a1.44,1.44,0,0,0-.69-1.23l-8.56-5.22h0a3.8,3.8,0,0,1-1.18-.88,4.19,4.19,0,0,1-.29-1.93v-7.19h23.27v7a3.24,3.24,0,0,1-1.65,3c-.54.38-5.31,3.27-8.39,5.12a1.44,1.44,0,0,0-.7,1.23v3.67a1.44,1.44,0,0,0,.69,1.23Z"/><path class="cls-5" d="M604.72,432.13s.52-.45-.27-.32c-1.88.3-5.19,1.48-9,1.48s-5.57-1.08-8.07-1.11c-.54,0-.53.36.1.72l7,3.92a1.83,1.83,0,0,0,2,0c1.19-.57,8.21-4.69,8.21-4.69Z"/><path class="cls-5" d="M587.44,455.92c-.66.61-1,1,.54,1h15.2c1.57,0,1-.53.22-1.23-1.42-1.36-4.44-2.31-8.06-2.31-3.79,0-6.43,1.14-7.9,2.49Z"/></svg>