<svg id="Capa_1" data-name="Capa 1" xmlns="http://www.w3.org/2000/svg" viewBox="0 0 62 62"><defs><style>.cls-1{fill:#706f6f;}.cls-2{fill:#9a9a9a;}</style></defs><title>arquitect_icon</title><path class="cls-1" d="M1,16V2.88a1.87,1.87,0,1,1,3.75,0V16A1.87,1.87,0,1,1,1,16Z"/><path class="cls-1" d="M19.75,1H10.38A1.87,1.87,0,0,0,8.5,2.88V16a1.87,1.87,0,0,0,1.87,1.87h9.37A1.87,1.87,0,0,0,21.63,16V2.88A1.87,1.87,0,0,0,19.75,1ZM17.88,14.13H12.25V4.75h5.63Z"/><path class="cls-1" d="M27.25,17.88A1.87,1.87,0,0,0,29.13,16V2.88a1.87,1.87,0,1,0-3.75,0V16A1.87,1.87,0,0,0,27.25,17.88Z"/><path class="cls-1" d="M51.62,17.88A1.87,1.87,0,0,0,53.5,16V2.88a1.87,1.87,0,1,0-3.75,0V16A1.87,1.87,0,0,0,51.62,17.88Z"/><path class="cls-1" d="M44.13,1H34.75a1.87,1.87,0,0,0-1.87,1.87V16a1.87,1.87,0,0,0,1.87,1.87h9.37A1.87,1.87,0,0,0,46,16V2.88A1.87,1.87,0,0,0,44.13,1ZM42.25,14.13H36.63V4.75h5.63Z"/><path class="cls-1" d="M2.88,42.25A1.87,1.87,0,0,0,1,44.12V57.25a1.87,1.87,0,1,0,3.75,0V44.12A1.87,1.87,0,0,0,2.88,42.25Z"/><path class="cls-1" d="M19.75,42.25H10.38A1.87,1.87,0,0,0,8.5,44.12V57.25a1.87,1.87,0,0,0,1.87,1.87h9.37a1.87,1.87,0,0,0,1.87-1.87V44.12A1.87,1.87,0,0,0,19.75,42.25ZM17.88,55.37H12.25V46h5.63Z"/><path class="cls-1" d="M19.75,21.63a1.87,1.87,0,0,0-1.87,1.87V36.62a1.87,1.87,0,1,0,3.75,0V23.5A1.87,1.87,0,0,0,19.75,21.63Z"/><path class="cls-1" d="M12.25,21.63H2.88A1.87,1.87,0,0,0,1,23.5V36.63A1.87,1.87,0,0,0,2.88,38.5h9.37a1.87,1.87,0,0,0,1.87-1.87V23.5A1.87,1.87,0,0,0,12.25,21.63ZM10.38,34.75H4.75V25.38h5.63Z"/><path class="cls-1" d="M29.13,27.25V23.5a1.87,1.87,0,1,0-3.75,0v3.75Z"/><path class="cls-1" d="M53.5,25.38V23.5a1.87,1.87,0,1,0-3.75,0v1.87Z"/><path class="cls-2" d="M34.75,40.37a5.63,5.63,0,0,1,5.62-5.62,1.87,1.87,0,0,0,0-3.75A9.39,9.39,0,0,0,31,40.37a1.87,1.87,0,1,0,3.75,0Z"/><path class="cls-2" d="M60.45,57.8l-8.24-8.24a15.05,15.05,0,1,0-2.65,2.65l8.24,8.24a1.87,1.87,0,1,0,2.65-2.65ZM40.37,51.62A11.25,11.25,0,1,1,51.63,40.37,11.26,11.26,0,0,1,40.37,51.62Z"/></svg>