<svg id="Capa_1" data-name="Capa 1" xmlns="http://www.w3.org/2000/svg" viewBox="0 0 62 62"><defs><style>.cls-1{fill:#9a9a9a;}.cls-2{fill:none;}.cls-3{fill:#706f6f;}.cls-4{fill:#3d6666;}</style></defs><title>business_case_icon</title><path class="cls-1" d="M37.33,39.7a5,5,0,0,1,5.16-4.88,1.63,1.63,0,1,0,0-3.25,8.38,8.38,0,0,0-8.6,8.13,1.72,1.72,0,0,0,3.44,0Z"/><path class="cls-1" d="M60.25,55.58,52.69,48a13.8,13.8,0,1,0-2.43,2.43L57.82,58a1.72,1.72,0,1,0,2.43-2.43ZM41.84,49.92A10.32,10.32,0,1,1,52.15,39.61,10.33,10.33,0,0,1,41.84,49.92Z"/><path class="cls-2" d="M37.49,37.86A5,5,0,0,0,37,40a1.69,1.69,0,0,1-1.21,1.62V48a10.21,10.21,0,0,0,1.73,1.1C37.53,45.44,37.52,41.67,37.49,37.86Z"/><path class="cls-2" d="M37.43,32.94q0-1,0-1.95a10.21,10.21,0,0,0-1.64,1.06v2.32A8.55,8.55,0,0,1,37.43,32.94Z"/><path class="cls-3" d="M35.76,34.37V32.05A10.19,10.19,0,0,0,32,38.3l1.71.05A8.47,8.47,0,0,1,35.76,34.37Z"/><path class="cls-3" d="M37.4,30.95q0,.94,0,1.87a8.69,8.69,0,0,1,4.64-1.33,1.64,1.64,0,1,1,0,3.27,5.11,5.11,0,0,0-4.58,2.79c0,3.66,0,7.29,0,10.86a10.35,10.35,0,0,0,1.93.71h5.31a10.33,10.33,0,0,0,3.35-1.55V31.74a10.46,10.46,0,0,0-10.67-.8Z"/><path class="cls-3" d="M35.31,41.74a1.58,1.58,0,0,1-.6-.12l-2.43.1a9.5,9.5,0,0,0,3.49,5.89V41.66A1.57,1.57,0,0,1,35.31,41.74Z"/><path class="cls-3" d="M33,50.67H1.42v-8.3L27.94,41.3l.05.39a14,14,0,0,0,4.22,8.25Zm-30.7-.85H30.9a14.88,14.88,0,0,1-3.7-7.64l-24.92,1Z"/><path class="cls-3" d="M1.42,41.44V32.63l.29-.1a80.21,80.21,0,0,1,30.73-4l1,.06-.79.69A14,14,0,0,0,28,38l0,.37h-.37A100.59,100.59,0,0,0,2,41.3Zm.85-8.2v7.1a101.58,101.58,0,0,1,24.91-2.83,14.81,14.81,0,0,1,4.2-8.21A79.32,79.32,0,0,0,2.28,33.24Z"/><path class="cls-3" d="M1.42,32V23.44l.21-.12c11.4-6.54,22.7-8.75,33.6-6.54l.34.07v9.78l-.49-.07c-12.78-1.93-23.89-.22-33,5.1Zm.85-8.09v6.62c9.06-5.06,20-6.71,32.44-4.91V17.54C24.21,15.51,13.3,17.65,2.28,23.93Z"/><path class="cls-3" d="M1.29,22.65l0-.83c0-1.34,0-2.72.08-4.06s.12-2.68.08-4v-.21l.17-.13C13.12,4.31,23.82,1.57,35.26,4.77l.31.09v9.39l-.49-.07c-13-1.84-23.79.76-33.14,8Zm1-8.69c0,1.28,0,2.58-.09,3.84,0,1-.09,2.11-.09,3.16,9.27-6.87,20-9.39,32.62-7.69V5.5C23.74,2.54,13.42,5.22,2.28,14Z"/><path class="cls-3" d="M48.63,27.59l-.62-.3a13.82,13.82,0,0,0-11-.57l-.57.21v-.6c-.11-7.35-.19-14-.09-20.54V5.19l.56.2c4.93,1.73,9.25,5.83,11.66,9.09l.08.11ZM41.84,25a14.61,14.61,0,0,1,5.94,1.26V14.87A26.36,26.36,0,0,0,37.16,6.4c-.08,6.19,0,12.43.09,19.31A14.67,14.67,0,0,1,41.84,25Z"/><path class="cls-4" d="M34.62,41.62a1.62,1.62,0,0,0,1.14,0v-.1Z"/></svg>