<svg id="Capa_1" data-name="Capa 1" xmlns="http://www.w3.org/2000/svg" viewBox="0 0 63 63"><defs><style>.cls-1{fill:#706f6f;}.cls-2{fill:#62498a;}</style></defs><title>certificaciones_medida_icon</title><path class="cls-1" d="M51.12,38a14.59,14.59,0,0,0,1.65-21V2.68A1.21,1.21,0,0,0,51.49,1.4H6.78A1.21,1.21,0,0,0,5.5,2.68V60.32A1.21,1.21,0,0,0,6.78,61.6h44.7a1.28,1.28,0,0,0,1.28-1.28V53.12l4.75-1.64ZM54,26.75a11.89,11.89,0,0,1-6.92,10.89,12.89,12.89,0,0,1-5,1A11.91,11.91,0,1,1,54,26.75ZM37.29,40.29,34.69,51.73l-5-1.78,5.19-10.73a14,14,0,0,0,2.4,1.08ZM50.2,59H8.06V4H50.2V14.73a14.52,14.52,0,0,0-16.91.55v-.06h-17v2.56H30.76A14.47,14.47,0,0,0,28.06,30.2H16.25v2.56H29a14.34,14.34,0,0,0,3.77,4.94l-3.54,7.49H16.25v2.56H28l-1.76,3.71L36.61,55l3.23-14.14a15.28,15.28,0,0,0,2.27.17A17.24,17.24,0,0,0,43.9,41L47.12,55,50.2,54ZM49,51.74,46.49,40.5a20.92,20.92,0,0,0,2.48-1L54,49.94Zm0,0"/><path class="cls-2" d="M39,22.41l-6.66,1,4.87,4.73-1.16,6.66,6-3L48,35,46.86,28.3l4.73-4.87-6.66-1-2.94-6Zm4.35,2.43,2.82.38-2.05,2.05.53,2.8-2.56-1.28-2.56,1.41.52-3-2.07-2,2.82-.38,1.28-2.56Zm0,0"/></svg>