<svg id="Capa_1" data-name="Capa 1" xmlns="http://www.w3.org/2000/svg" viewBox="0 0 62 62"><defs><style>.cls-1{fill:#706f6f;}.cls-2{fill:#9a9a9a;}</style></defs><title>change_icon</title><path class="cls-1" d="M45.88,11l-4.31,6.1c-1.34-.7-2.58-1.9-3.84-1.92-10.22-.15-20.44-.09-31.08-.09v33.7H39.88c.51-4.51-.8-9.75,5.62-12,0,5.08.19,10.08-.16,15-.07,1-2.18,2.63-3.37,2.65-12.39.2-24.78.25-37.16,0-1.28,0-3.56-2.5-3.6-3.88C.92,38.37,1.05,26.15,1,13.92c0-2.53.8-4.23,3.59-4.24q19.07,0,38.15.05C43.47,9.74,44.2,10.31,45.88,11Z"/><path class="cls-2" d="M31.77,35.05,52.67,7.33,61,16.82c-5.07,4.84-10,9.59-15,14.31s-9.81,9.27-15.18,14.33L15.45,27.64,24.67,19Z"/></svg>