<svg id="Capa_1" data-name="Capa 1" xmlns="http://www.w3.org/2000/svg" viewBox="0 0 62 62"><defs><style>.cls-1{fill:#40b4e6;}.cls-2{fill:#706f6f;}</style></defs><title>confiable_icon</title><path class="cls-1" d="M39.5,27.61a22.17,22.17,0,0,0-2.71.2c-2.12.27-4.13.73-4.44.8L30.53,29V30.9a5,5,0,0,1-4,4.77l-1.7.42-.08,1.75a24.26,24.26,0,0,0,.86,6.61c.16.63.36,1.28.59,2a25.46,25.46,0,0,0,1.78,4h2.87a22.72,22.72,0,0,1-2.32-4.79c-.14-.39-.25-.77-.36-1.15a22.38,22.38,0,0,1-1-6.41A7.49,7.49,0,0,0,33,31c.4-.09,2-.45,3.79-.69a20.91,20.91,0,0,1,2.71-.23Q39.5,28.84,39.5,27.61Z"/><path class="cls-1" d="M54.29,37.85l-.08-1.75-1.7-.42a5.1,5.1,0,0,1-4-4.77V29l-1.82-.43a39.08,39.08,0,0,0-7.16-1h0q0,1.23,0,2.46h0A36.74,36.74,0,0,1,46,31,7.56,7.56,0,0,0,51.83,38a22.86,22.86,0,0,1-1.32,7.56,22.17,22.17,0,0,1-11,12.62,22.24,22.24,0,0,1-8.68-7.83H28A24.55,24.55,0,0,0,38.43,60.45l1.08.55,1.08-.55a24.59,24.59,0,0,0,12.25-14A24.85,24.85,0,0,0,54.29,37.85Z"/><path class="cls-2" d="M37.13,46.58l7.66-10.16,3.05,3.48-5.5,5.25-5.56,5.25-5.63-6.53,3.38-3.18Z"/><path class="cls-2" d="M25.59,44.46h-15V4.52c4.86,0,9.5-.06,14.15,0,3.75.07,9.05-1.25,10.83.89,2,2.44,1.07,8,1.14,12.26.05,3.37.07,6.75.06,10.12a22.17,22.17,0,0,1,2.71-.2q0-10.85,0-21.69C39.49,2.66,38,1,35,1,27.47,1,19.92,1,12.36,1,9.16,1,7.69,2.6,7.72,6.14c.07,6.37,0,12.74,0,19.11h0c0,6.67,0,13.34,0,20,0,3.5,1.44,5.18,4.66,5.16q7.8,0,15.6,0a25.46,25.46,0,0,1-1.78-4C25.95,45.74,25.76,45.09,25.59,44.46Z"/><rect class="cls-2" x="13.82" y="11.95" width="20.63" height="3.41"/><rect class="cls-2" x="13.82" y="19.16" width="16.94" height="3.81"/><rect class="cls-2" x="13.82" y="26.78" width="14.14" height="4.61"/></svg>