<svg id="Capa_1" data-name="Capa 1" xmlns="http://www.w3.org/2000/svg" viewBox="0 0 62 62"><defs><style>.cls-1{fill:#62498a;}.cls-2{fill:#706f6f;}</style></defs><title>docentes_especializados_icon</title><path class="cls-1" d="M48.55,35.79c0-6.82,0-13.63,0-20.45,0-1.16-.28-1.82-1.47-1.81-2.2,0-1.85-.66-.92-2.18s2.07-3,3-4.62,1.89-1.68,2.82-.3c1.18,1.75,2.17,3.64,3.22,5.49.4.7.53,1.56-.53,1.58-2.2.05-2,1.52-2,3q0,20.13,0,40.27c0,.5,0,1,0,1.49.08,1.3-.39,2-1.82,2s-2.13-.29-2.23-1.84c-.4-6-.12-12.07-.2-18.1,0-1.49,0-3,0-4.47Z"/><path class="cls-1" d="M40.64,45.22c0,4.2,0,8.39,0,12.59,0,1.51-.33,2.44-2.12,2.42S36.8,59,36.8,57.74q0-11.73,0-23.47c0-1.4,1.63-3.42,2.92-3.55s.92.82.92,1.48c0,4.34,0,8.68,0,13Z"/><path class="cls-2" d="M34.69,46.94c0,3.83-.11,7.66,0,11.48.08,2-1.06,1.71-2.28,1.75s-2.1,0-2.08-1.71c.09-7.16,0-14.32,0-21.48,0-1.4,2.49-3.45,3.78-3.14.84.21.47.92.47,1.4,0,3.9,0,7.8,0,11.7Z"/><path class="cls-2" d="M46.64,43.87c0,4.59-.11,9.18,0,13.76.08,2.36-1.06,2-2.28,2.1s-2.1,0-2.08-2.05c.09-8.58,0-17.16,0-25.75,0-1.68,2.49-4.14,3.78-3.76.84.25.47,1.1.47,1.68,0,4.67,0,9.35,0,14Z"/><path class="cls-1" d="M28.26,48.31c0,3.27,0,6.54,0,9.81,0,1.4-.47,2.09-2,2.11s-1.87-.81-1.86-2.14c0-5.83,0-11.66,0-17.49a3.51,3.51,0,0,1,3-3.64c1.16-.11.81.92.82,1.54,0,3.27,0,6.54,0,9.81Z"/><path class="cls-2" d="M22.3,49.93c0,2.9-.07,5.81,0,8.71.05,1.54-.84,1.51-1.89,1.52s-2,.16-2-1.42c0-5.38,0-10.77,0-16.15,0-1.2,2.06-2.86,3.22-2.71.91.12.57.87.57,1.34C22.32,44.12,22.3,47,22.3,49.93Z"/><path class="cls-2" d="M10.41,53c0,2-.07,4.05,0,6.08.05,1.07-.84,1.06-1.89,1.06s-2,.11-2-1c0-3.75,0-7.51,0-11.26,0-.84,2.06-2,3.22-1.89.91.08.57.61.57.93C10.43,49,10.41,51,10.41,53Z"/><path class="cls-1" d="M16.38,51.39c0,2.34-.08,4.68,0,7,.08,1.56-.8,1.71-2,1.77s-1.81-.31-1.8-1.67c0-4.11.11-8.23-.13-12.33-.14-2.34,1.69-2.56,3-3.25.81-.44.87.62.87,1.24,0,2.41,0,4.82,0,7.23Z"/><path class="cls-2" d="M19.36,24.68c.93-.16,1.08.36,1.26.95a51.53,51.53,0,0,0,3.52,8.67c.5.95.51,1.71-.75,2.58-1.8,1.23-3.93,1.62-5.72,2.86-2.35,1.64-5.23,2.41-7.68,4-1.76,1.13-2.27.81-2.66-1.22-.24-1.25-.49-2.5-.68-3.75-.8-5.31,1.73-8.19,5.83-10.7A76,76,0,0,1,19.36,24.68Z"/><path class="cls-2" d="M36.17,20c-.45-2.28.43-4,.22-5.77-.09-.76.67-1.75-.5-2.23-1.64-.68-3-2.49-5.15-1.23-3.06,1.77-3.85,1.61-6.43-.88-.55-.53-.88-.54-1.24.22-.57,1.2-.48,2.78-2.2,3.36-.5.17.16,1.15.16,1.78,0,1.1.77,2.13.29,3.44-.76-1.93-1.61-3.69-2.15-5.53C17.91,8.83,20.67,2.82,26.09,2c4.49-.66,8.5-.29,11.52,3.63,1.38,1.8,1.25,3.79,1.17,5.82C38.68,14.35,37.29,16.82,36.17,20Z"/><path class="cls-2" d="M28.8,25.3C30.33,27,30.32,29.14,31,31c.55,1.48.27,2.57-1.54,2.91-.85.16-1.69,1.3-2.45.75-1.1-.79-.69-2.1-.44-3.31C27,29.25,28.16,27.39,28.8,25.3Z"/><path class="cls-2" d="M35,30.8a16,16,0,0,0,2.09-5c.22-.74.55-1.5,1.4-1a22.53,22.53,0,0,0,4,1.57c.51.19,1.09.69.33,1C40.24,28.27,38.15,30.29,35,30.8Z"/></svg>