<svg id="Capa_1" data-name="Capa 1" xmlns="http://www.w3.org/2000/svg" xmlns:xlink="http://www.w3.org/1999/xlink" viewBox="0 0 465 418.37"><defs><style>.cls-1,.cls-7{fill:none;}.cls-2{fill:#3c3c3b;}.cls-3{fill:#504f61;}.cls-4{fill:#687d93;}.cls-5{fill:#6495b1;}.cls-6{fill:#1e3863;}.cls-7{stroke:#6495b1;stroke-miterlimit:10;}.cls-8{fill:#fff;}.cls-9{clip-path:url(#clip-path);}</style><clipPath id="clip-path"><rect class="cls-1" x="230.03" y="355.56" width="32.49" height="29.13"/></clipPath></defs><title>dot8_img_en</title><path class="cls-2" d="M172.59,179.69h7q6.74,0,10,1.67a13,13,0,0,1,5.39,5.43,19,19,0,0,1,.93,15.34,13.62,13.62,0,0,1-3.27,5,11.56,11.56,0,0,1-4.52,2.73,32.21,32.21,0,0,1-8.44.76h-7.07Zm5.84,5.67v19.49h2.73a13.67,13.67,0,0,0,5.85-.93,7,7,0,0,0,3-3.11,11.41,11.41,0,0,0,1.16-5.38q0-4.92-2.75-7.63-2.48-2.44-8-2.44Z"/><path class="cls-2" d="M217.28,178.92a15.34,15.34,0,0,1,11.28,4.75,15.8,15.8,0,0,1,4.72,11.57,15.62,15.62,0,0,1-4.66,11.45,16.13,16.13,0,0,1-22.86-.13,16.24,16.24,0,0,1,11.52-27.64Zm-.06,5.76a9.7,9.7,0,0,0-7.21,3,10.39,10.39,0,0,0-2.92,7.58,9.88,9.88,0,0,0,3.68,8.11,10.09,10.09,0,0,0,6.56,2.33,9.58,9.58,0,0,0,7.13-3,10.9,10.9,0,0,0,0-14.92A9.67,9.67,0,0,0,217.21,184.67Z"/><path class="cls-2" d="M235.77,179.69h17.08v5.8h-5.63v25.1h-6v-25.1h-5.48Z"/><path class="cls-2" d="M273.8,192.56l-3.22,1.83c-.32-.33-.65-.65-1-1a10.47,10.47,0,0,1-2.69-4.88c-.73-3.93,2.07-8.68,7.95-9.32a10.45,10.45,0,0,1,8.44,2.39,7.32,7.32,0,0,1,2.67,6.89,8.17,8.17,0,0,1-3.89,5.56c-2.1,1.39-4.34,2.62-6.53,3.91a14.46,14.46,0,0,0-3.67,2.7,4.1,4.1,0,0,0-.58,5.22,5.68,5.68,0,0,0,5.41,2.68c3.1-.11,5.07-1.77,5.44-4.38a5,5,0,0,0-1.25-3.71c-.52-.71-1.16-1.36-1.78-2.09l3.19-1.81c.32.34.65.67,1,1a10.53,10.53,0,0,1,2.7,5c.68,3.86-2.15,8.56-8,9.17-4,.43-7.26-.71-9.58-3.57a7.17,7.17,0,0,1,.51-9.68,19.94,19.94,0,0,1,4.42-3.25c2-1.18,4.09-2.31,6-3.57a5.33,5.33,0,0,0,2.79-4c.25-3.39-3.47-5.94-7.4-5.1a5,5,0,0,0-4.09,4.12c-.28,1.74.65,3.12,1.73,4.47C272.86,191.61,273.33,192.05,273.8,192.56Z"/><path class="cls-3" d="M159.38,287.58l-.66-.66-26,26H53.31v1.86h80.43v-.31l0,0,25.34-25.34a119.51,119.51,0,0,0,64,26.23V314a118.75,118.75,0,0,1-63.71-26.45Z"/><path class="cls-4" d="M390.81,184.38v-1.86H355a119.51,119.51,0,0,0-26.72-63.81l-1,1a118.75,118.75,0,0,1,26.45,63.71h0v.93Z"/><path class="cls-5" d="M141.08,119.43a119.51,119.51,0,0,0-26.23,64h1.41a118.75,118.75,0,0,1,26.45-63.71l-.05-.05.66-.66L117.06,92.77l-.34.34V92.5H36.28v1.86H116Z"/><path class="cls-5" d="M353.91,296.17l-25.07-25.07a119.51,119.51,0,0,0,26.23-64h-1.41a118.75,118.75,0,0,1-26.45,63.71l.05.05-.66.66,26.25,26.25,0,0V298h80.43v-1.86Z"/><path class="cls-6" d="M246.9,314.67A119.51,119.51,0,0,0,310.71,288l-1-1A118.75,118.75,0,0,1,246,313.36v0H245v37.13h1.86Z"/><path class="cls-6" d="M130.77,13.51a3.94,3.94,0,0,1,2.89,1.22,4.05,4.05,0,0,1,1.21,3,4,4,0,0,1-1.19,2.94,4.14,4.14,0,0,1-5.86,0,4.16,4.16,0,0,1,3-7.09Zm0,1.48a2.49,2.49,0,0,0-1.85.76,2.67,2.67,0,0,0-.75,1.95,2.53,2.53,0,0,0,.94,2.08,2.59,2.59,0,0,0,1.68.6,2.46,2.46,0,0,0,1.83-.78,2.8,2.8,0,0,0,0-3.83A2.48,2.48,0,0,0,130.75,15Z"/><path class="cls-6" d="M135.79,15.77H137v.74a1.57,1.57,0,0,1,.54-.66,1.31,1.31,0,0,1,.74-.23,1.38,1.38,0,0,1,.6.15L138.48,17a1,1,0,0,0-.43-.13.67.67,0,0,0-.57.42,3.85,3.85,0,0,0-.23,1.65v2.66h-1.46Z"/><path class="cls-6" d="M144,15.77h1.47v5a3.32,3.32,0,0,1-.6,2.19,3,3,0,0,1-2.42.95,4.24,4.24,0,0,1-1.45-.21,2.62,2.62,0,0,1-1-.63,2.57,2.57,0,0,1-.6-1H141a1.35,1.35,0,0,0,.56.38,2.31,2.31,0,0,0,.8.13,2.12,2.12,0,0,0,1-.18,1.1,1.1,0,0,0,.51-.47,2.4,2.4,0,0,0,.15-1,2.44,2.44,0,0,1-.81.56,2.58,2.58,0,0,1-1,.17,2.65,2.65,0,0,1-2-.85,3,3,0,0,1-.81-2.16,3,3,0,0,1,.86-2.24,2.57,2.57,0,0,1,1.86-.76,2.48,2.48,0,0,1,1,.19,3,3,0,0,1,.9.61ZM142.47,17a1.53,1.53,0,0,0-1.15.47,1.61,1.61,0,0,0-.45,1.17,1.64,1.64,0,0,0,.46,1.2,1.57,1.57,0,0,0,1.16.47,1.51,1.51,0,0,0,1.13-.46,1.65,1.65,0,0,0,.44-1.2,1.63,1.63,0,0,0-.45-1.19A1.54,1.54,0,0,0,142.47,17Z"/><path class="cls-6" d="M151.27,15.77h1.47v5.86h-1.47V21a2.87,2.87,0,0,1-.86.59,2.4,2.4,0,0,1-.94.18,2.61,2.61,0,0,1-2-.88,3.07,3.07,0,0,1-.83-2.19,3.15,3.15,0,0,1,.8-2.23,2.56,2.56,0,0,1,1.95-.87,2.48,2.48,0,0,1,1,.2,2.71,2.71,0,0,1,.86.6ZM149.73,17a1.49,1.49,0,0,0-1.13.48,1.74,1.74,0,0,0-.45,1.24,1.76,1.76,0,0,0,.46,1.25,1.49,1.49,0,0,0,1.13.49,1.52,1.52,0,0,0,1.15-.48,1.76,1.76,0,0,0,.46-1.26,1.71,1.71,0,0,0-.46-1.24A1.53,1.53,0,0,0,149.73,17Z"/><path class="cls-6" d="M154.23,15.77h1.47v.6a3.52,3.52,0,0,1,.91-.59,2.19,2.19,0,0,1,.83-.17,2,2,0,0,1,1.48.61,2.09,2.09,0,0,1,.51,1.53v3.88H158V19.07a6.52,6.52,0,0,0-.09-1.39,1,1,0,0,0-.33-.52A.92.92,0,0,0,157,17a1.08,1.08,0,0,0-.77.3,1.59,1.59,0,0,0-.44.83,6.68,6.68,0,0,0-.06,1.19v2.35h-1.47Z"/><path class="cls-6" d="M161.43,13.36a.9.9,0,0,1,.66.28.93.93,0,0,1,.28.68.92.92,0,0,1-.27.67.89.89,0,0,1-.66.28.9.9,0,0,1-.67-.28,1,1,0,0,1-.28-.69.94.94,0,0,1,.93-.94Zm-.74,2.41h1.47v5.86h-1.47Z"/><path class="cls-6" d="M163.25,15.77h4.49l-2.63,4.62h2.48v1.25h-4.74L165.5,17h-2.24Z"/><path class="cls-6" d="M172.9,15.77h1.47v5.86H172.9V21a2.87,2.87,0,0,1-.86.59,2.4,2.4,0,0,1-.94.18,2.61,2.61,0,0,1-2-.88,3.07,3.07,0,0,1-.83-2.19,3.15,3.15,0,0,1,.8-2.23,2.56,2.56,0,0,1,1.95-.87,2.48,2.48,0,0,1,1,.2,2.71,2.71,0,0,1,.86.6ZM171.36,17a1.49,1.49,0,0,0-1.13.48,1.74,1.74,0,0,0-.45,1.24,1.76,1.76,0,0,0,.46,1.25,1.49,1.49,0,0,0,1.13.49,1.52,1.52,0,0,0,1.15-.48,1.76,1.76,0,0,0,.46-1.26,1.71,1.71,0,0,0-.46-1.24A1.53,1.53,0,0,0,171.36,17Z"/><path class="cls-6" d="M176,13.61h1.47v2.16h.87V17h-.87v4.6H176V17h-.75V15.77H176Z"/><path class="cls-6" d="M179.74,13.36a.9.9,0,0,1,.66.28.93.93,0,0,1,.28.68.92.92,0,0,1-.27.67.89.89,0,0,1-.66.28.9.9,0,0,1-.67-.28,1,1,0,0,1-.28-.69.94.94,0,0,1,.93-.94ZM179,15.77h1.47v5.86H179Z"/><path class="cls-6" d="M184.57,15.62a3.1,3.1,0,0,1,1.56.42,3,3,0,0,1,1.14,1.13,3,3,0,0,1,.41,1.54,3.08,3.08,0,0,1-.41,1.55,3,3,0,0,1-1.12,1.13,3.11,3.11,0,0,1-1.57.41,2.93,2.93,0,0,1-2.15-.9,3.11,3.11,0,0,1,.12-4.47A2.94,2.94,0,0,1,184.57,15.62Zm0,1.38a1.52,1.52,0,0,0-1.14.48A1.69,1.69,0,0,0,183,18.7a1.72,1.72,0,0,0,.45,1.24,1.51,1.51,0,0,0,1.14.47,1.53,1.53,0,0,0,1.15-.48,1.89,1.89,0,0,0,0-2.46A1.52,1.52,0,0,0,184.59,17Z"/><path class="cls-6" d="M188.88,15.77h1.47v.6a3.52,3.52,0,0,1,.91-.59,2.19,2.19,0,0,1,.83-.17,2,2,0,0,1,1.48.61,2.09,2.09,0,0,1,.51,1.53v3.88h-1.45V19.07a6.52,6.52,0,0,0-.09-1.39,1,1,0,0,0-.33-.52.92.92,0,0,0-.58-.18,1.08,1.08,0,0,0-.77.3,1.59,1.59,0,0,0-.44.83,6.68,6.68,0,0,0-.06,1.19v2.35h-1.47Z"/><path class="cls-6" d="M199.83,15.77h1.47v5.86h-1.47V21a2.87,2.87,0,0,1-.86.59,2.4,2.4,0,0,1-.94.18,2.61,2.61,0,0,1-2-.88,3.07,3.07,0,0,1-.83-2.19,3.15,3.15,0,0,1,.8-2.23,2.56,2.56,0,0,1,1.95-.87,2.48,2.48,0,0,1,1,.2,2.71,2.71,0,0,1,.86.6ZM198.28,17a1.49,1.49,0,0,0-1.13.48,1.74,1.74,0,0,0-.45,1.24,1.76,1.76,0,0,0,.46,1.25,1.49,1.49,0,0,0,1.13.49,1.52,1.52,0,0,0,1.15-.48,1.76,1.76,0,0,0,.46-1.26,1.71,1.71,0,0,0-.46-1.24A1.53,1.53,0,0,0,198.28,17Z"/><path class="cls-6" d="M202.63,13.51h1.47v8.13h-1.47Z"/><path class="cls-6" d="M131.19,28l-1.12,1a1.58,1.58,0,0,0-1.2-.82.73.73,0,0,0-.49.16.46.46,0,0,0-.19.36.62.62,0,0,0,.13.38,10.36,10.36,0,0,0,1.11,1q.86.72,1,.91a3.16,3.16,0,0,1,.65.89,2.21,2.21,0,0,1,.19.92,2.12,2.12,0,0,1-.67,1.61,2.46,2.46,0,0,1-1.76.64,2.62,2.62,0,0,1-1.48-.42,3.27,3.27,0,0,1-1.08-1.3l1.27-.77q.57,1.05,1.32,1.05a1,1,0,0,0,.65-.23.67.67,0,0,0,.26-.52.9.9,0,0,0-.2-.54,5.79,5.79,0,0,0-.88-.82,8.87,8.87,0,0,1-1.67-1.63,2.07,2.07,0,0,1-.38-1.15,1.87,1.87,0,0,1,.63-1.41,2.18,2.18,0,0,1,1.55-.59A2.45,2.45,0,0,1,130,27,4.12,4.12,0,0,1,131.19,28Z"/><path class="cls-6" d="M132.78,26.85h1.47V29h.87v1.27h-.87v4.6h-1.47v-4.6H132V29h.75Z"/><path class="cls-6" d="M135.57,29h1.26v.74a1.57,1.57,0,0,1,.54-.66,1.31,1.31,0,0,1,.74-.23,1.38,1.38,0,0,1,.6.15l-.46,1.27a1,1,0,0,0-.43-.13.67.67,0,0,0-.57.42,3.85,3.85,0,0,0-.23,1.65v2.66h-1.46Z"/><path class="cls-6" d="M139.44,29h1.49v2.82A3.91,3.91,0,0,0,141,33a1,1,0,0,0,.36.5,1,1,0,0,0,.62.18,1.08,1.08,0,0,0,.62-.18A1,1,0,0,0,143,33a3.93,3.93,0,0,0,.09-1.08V29h1.47V31.5a6.08,6.08,0,0,1-.24,2.1,2.29,2.29,0,0,1-.87,1.06A2.67,2.67,0,0,1,142,35a2.6,2.6,0,0,1-1.56-.43,2.28,2.28,0,0,1-.84-1.2,7.27,7.27,0,0,1-.17-1.94Z"/><path class="cls-6" d="M151.8,30.2l-1.22.67a2.08,2.08,0,0,0-.68-.5,2,2,0,0,0-.79-.14,1.84,1.84,0,0,0-1.34.49,1.68,1.68,0,0,0-.51,1.26,1.62,1.62,0,0,0,.49,1.22,1.78,1.78,0,0,0,1.29.47,1.87,1.87,0,0,0,1.54-.67l1.16.79a3.57,3.57,0,0,1-5.08.31,3,3,0,0,1,.74-4.84,3.55,3.55,0,0,1,1.71-.41,3.45,3.45,0,0,1,1.57.35A3,3,0,0,1,151.8,30.2Z"/><path class="cls-6" d="M153.31,26.85h1.47V29h.87v1.27h-.87v4.6h-1.47v-4.6h-.75V29h.75Z"/><path class="cls-6" d="M156.43,29h1.49v2.82A3.91,3.91,0,0,0,158,33a1,1,0,0,0,.36.5,1,1,0,0,0,.62.18,1.08,1.08,0,0,0,.62-.18A1,1,0,0,0,160,33a3.93,3.93,0,0,0,.09-1.08V29h1.47V31.5a6.08,6.08,0,0,1-.24,2.1,2.29,2.29,0,0,1-.87,1.06A2.67,2.67,0,0,1,159,35a2.6,2.6,0,0,1-1.56-.43,2.28,2.28,0,0,1-.84-1.2,7.27,7.27,0,0,1-.17-1.94Z"/><path class="cls-6" d="M162.71,29H164v.74a1.57,1.57,0,0,1,.54-.66,1.31,1.31,0,0,1,.74-.23,1.38,1.38,0,0,1,.6.15l-.46,1.27a1,1,0,0,0-.43-.13.67.67,0,0,0-.57.42,3.85,3.85,0,0,0-.23,1.65v2.66h-1.46Z"/><path class="cls-6" d="M172.46,32.37h-4.73a1.57,1.57,0,0,0,.55,1,1.72,1.72,0,0,0,1.13.37,2,2,0,0,0,1.42-.58l1.24.58a2.92,2.92,0,0,1-1.11,1,3.46,3.46,0,0,1-1.54.32,3,3,0,0,1-2.25-.87,3,3,0,0,1-.87-2.18,3.07,3.07,0,0,1,.86-2.23,2.91,2.91,0,0,1,2.17-.89,3,3,0,0,1,2.25.89,3.21,3.21,0,0,1,.87,2.34ZM171,31.21a1.48,1.48,0,0,0-.57-.8,1.67,1.67,0,0,0-1-.31,1.76,1.76,0,0,0-1.08.35,1.92,1.92,0,0,0-.54.76Z"/><path class="cls-5" d="M32.51,65.79l-1.12,1a1.58,1.58,0,0,0-1.2-.82.73.73,0,0,0-.49.16.46.46,0,0,0-.19.36.62.62,0,0,0,.13.38,10.36,10.36,0,0,0,1.11,1q.86.72,1,.91a3.16,3.16,0,0,1,.65.89,2.21,2.21,0,0,1,.19.92A2.12,2.12,0,0,1,32,72.2a2.46,2.46,0,0,1-1.76.64,2.62,2.62,0,0,1-1.48-.42,3.27,3.27,0,0,1-1.08-1.3l1.27-.77q.57,1.05,1.32,1.05a1,1,0,0,0,.65-.23.67.67,0,0,0,.26-.52.9.9,0,0,0-.2-.54,5.79,5.79,0,0,0-.88-.82,8.87,8.87,0,0,1-1.67-1.63A2.07,2.07,0,0,1,28,66.52a1.87,1.87,0,0,1,.63-1.41,2.18,2.18,0,0,1,1.55-.59,2.45,2.45,0,0,1,1.13.27A4.12,4.12,0,0,1,32.51,65.79Z"/><path class="cls-5" d="M39.8,70.13H35.07a1.57,1.57,0,0,0,.55,1,1.72,1.72,0,0,0,1.13.37,2,2,0,0,0,1.42-.58l1.24.58a2.92,2.92,0,0,1-1.11,1,3.46,3.46,0,0,1-1.54.32,3,3,0,0,1-2.25-.87,3,3,0,0,1-.87-2.18,3.07,3.07,0,0,1,.86-2.23,2.91,2.91,0,0,1,2.17-.89,3,3,0,0,1,2.25.89,3.21,3.21,0,0,1,.87,2.34ZM38.33,69a1.48,1.48,0,0,0-.57-.8,1.67,1.67,0,0,0-1-.31,1.76,1.76,0,0,0-1.08.35,1.92,1.92,0,0,0-.54.76Z"/><path class="cls-5" d="M46.73,68l-1.22.67a2.08,2.08,0,0,0-.68-.5A2,2,0,0,0,44,68a1.84,1.84,0,0,0-1.34.49,1.68,1.68,0,0,0-.51,1.26A1.62,1.62,0,0,0,42.68,71a1.78,1.78,0,0,0,1.29.47,1.87,1.87,0,0,0,1.54-.67l1.16.79a3.57,3.57,0,0,1-5.08.31A3,3,0,0,1,42.32,67,3.55,3.55,0,0,1,44,66.62a3.45,3.45,0,0,1,1.57.35A3,3,0,0,1,46.73,68Z"/><path class="cls-5" d="M48,66.77h1.49V69.6a3.91,3.91,0,0,0,.11,1.14,1,1,0,0,0,.36.5,1,1,0,0,0,.62.18,1.08,1.08,0,0,0,.62-.18,1,1,0,0,0,.38-.51,3.93,3.93,0,0,0,.09-1.08V66.77H53.2v2.48a6.08,6.08,0,0,1-.24,2.1,2.29,2.29,0,0,1-.87,1.06,2.67,2.67,0,0,1-1.47.37,2.6,2.6,0,0,1-1.56-.43,2.28,2.28,0,0,1-.84-1.2A7.27,7.27,0,0,1,48,69.22Z"/><path class="cls-5" d="M54.33,66.77h1.26v.74a1.57,1.57,0,0,1,.54-.66,1.31,1.31,0,0,1,.74-.23,1.38,1.38,0,0,1,.6.15L57,68a1,1,0,0,0-.43-.13.67.67,0,0,0-.57.42A3.85,3.85,0,0,0,55.79,70v2.66H54.33Z"/><path class="cls-5" d="M58.78,64.36a.9.9,0,0,1,.66.28.93.93,0,0,1,.28.68.92.92,0,0,1-.27.67.89.89,0,0,1-.66.28.9.9,0,0,1-.67-.28,1,1,0,0,1-.28-.69.94.94,0,0,1,.93-.94ZM58,66.77h1.47v5.86H58Z"/><path class="cls-5" d="M61,64.61H62.5v2.16h.87V68H62.5v4.6H61V68h-.75V66.77H61Z"/><path class="cls-5" d="M63.51,66.77H65l1.52,3.68,1.68-3.68h1.51l-3.67,8H64.53l1.21-2.58Z"/><path class="cls-5" d="M78.78,69.52l.9,1-.41.37-.4.37,1.27,1.35H78.31l-.52-.54a4.62,4.62,0,0,1-2.32.74A2.06,2.06,0,0,1,74,72.3a1.8,1.8,0,0,1-.56-1.37,2.37,2.37,0,0,1,.32-1.19,4.16,4.16,0,0,1,1.09-1.16,3.2,3.2,0,0,1-.77-1.82,1.75,1.75,0,0,1,.51-1.16,2.08,2.08,0,0,1,2.86,0,1.74,1.74,0,0,1,.5,1.14,1.77,1.77,0,0,1-.23.87,6.52,6.52,0,0,1-1.05,1.23q1,1.14,1.25,1.42Q78.07,70.13,78.78,69.52Zm-2,1.53a16.48,16.48,0,0,1-1.17-1.35q-.8.66-.8,1.16a.56.56,0,0,0,.22.43.8.8,0,0,0,.55.19A2.53,2.53,0,0,0,76.81,71Zm-.9-3.27q.6-.51.6-.91a.44.44,0,0,0-.13-.33.49.49,0,0,0-.36-.13.49.49,0,0,0-.49.49A1.52,1.52,0,0,0,75.91,67.78Z"/><path class="cls-5" d="M28.34,78h1.6a5.26,5.26,0,0,1,1.87.24,1.9,1.9,0,0,1,.91.78,2.4,2.4,0,0,1,.33,1.29,2.16,2.16,0,0,1-.43,1.38,2.25,2.25,0,0,1-1.18.76,6.75,6.75,0,0,1-1.59.12v3.36H28.34Zm1.51,3.1h.48a2.6,2.6,0,0,0,.79-.08.7.7,0,0,0,.35-.27.79.79,0,0,0,.13-.45.72.72,0,0,0-.36-.67,2,2,0,0,0-1-.16h-.43Z"/><path class="cls-5" d="M34,80h1.26v.74a1.57,1.57,0,0,1,.54-.66,1.31,1.31,0,0,1,.74-.23,1.38,1.38,0,0,1,.6.15l-.46,1.27a1,1,0,0,0-.43-.13.67.67,0,0,0-.57.42,3.85,3.85,0,0,0-.23,1.65v2.66H34Z"/><path class="cls-5" d="M38.47,77.6a.9.9,0,0,1,.66.28.93.93,0,0,1,.28.68.92.92,0,0,1-.27.67.89.89,0,0,1-.66.28.9.9,0,0,1-.67-.28,1,1,0,0,1-.28-.69.94.94,0,0,1,.93-.94ZM37.73,80h1.47v5.86H37.73Z"/><path class="cls-5" d="M39.91,80h1.5l1.48,3.46L44.37,80h1.49l-2.5,5.86h-1Z"/><path class="cls-5" d="M51,80h1.47v5.86H51v-.62a2.87,2.87,0,0,1-.86.59,2.4,2.4,0,0,1-.94.18,2.61,2.61,0,0,1-2-.88A3.07,3.07,0,0,1,46.45,83a3.15,3.15,0,0,1,.8-2.23,2.56,2.56,0,0,1,1.95-.87,2.48,2.48,0,0,1,1,.2,2.71,2.71,0,0,1,.86.6ZM49.5,81.22a1.49,1.49,0,0,0-1.13.48,1.74,1.74,0,0,0-.45,1.24,1.76,1.76,0,0,0,.46,1.25,1.49,1.49,0,0,0,1.13.49,1.52,1.52,0,0,0,1.15-.48,1.76,1.76,0,0,0,.46-1.26,1.71,1.71,0,0,0-.46-1.24A1.53,1.53,0,0,0,49.5,81.22Z"/><path class="cls-5" d="M59.75,81.2l-1.22.67a2.08,2.08,0,0,0-.68-.5,2,2,0,0,0-.79-.14,1.84,1.84,0,0,0-1.34.49A1.68,1.68,0,0,0,55.2,83a1.62,1.62,0,0,0,.49,1.22,1.78,1.78,0,0,0,1.29.47A1.87,1.87,0,0,0,58.52,84l1.16.79a3.57,3.57,0,0,1-5.08.31,3,3,0,0,1,.74-4.84A3.55,3.55,0,0,1,57,79.87a3.45,3.45,0,0,1,1.57.35A3,3,0,0,1,59.75,81.2Z"/><path class="cls-5" d="M60.42,80h1.5l1.52,3.68L65.13,80h1.51L63,88H61.44l1.21-2.58Z"/><path class="cls-3" d="M336.7,49.81h1.6a5.28,5.28,0,0,1,1.87.23,1.92,1.92,0,0,1,.9.78,2.38,2.38,0,0,1,.34,1.29,2.19,2.19,0,0,1-.37,1.31,2.27,2.27,0,0,1-1.13.79l1.88,3.52h-1.65l-1.78-3.36h-.14v3.36H336.7Zm1.51,3.1h.47a1.84,1.84,0,0,0,1-.19.71.71,0,0,0,.27-.63.76.76,0,0,0-.13-.45.74.74,0,0,0-.36-.28,2.73,2.73,0,0,0-.83-.08h-.41Z"/><path class="cls-3" d="M348.71,55.23H344a1.57,1.57,0,0,0,.55,1,1.72,1.72,0,0,0,1.13.37,2,2,0,0,0,1.42-.58l1.24.58a2.92,2.92,0,0,1-1.11,1,3.46,3.46,0,0,1-1.54.32,3,3,0,0,1-2.25-.87,3,3,0,0,1-.87-2.18,3.06,3.06,0,0,1,.86-2.23,2.91,2.91,0,0,1,2.17-.89,3,3,0,0,1,2.25.89,3.2,3.2,0,0,1,.87,2.34Zm-1.47-1.16a1.47,1.47,0,0,0-.58-.8,1.66,1.66,0,0,0-1-.31,1.76,1.76,0,0,0-1.08.35,1.92,1.92,0,0,0-.54.76Z"/><path class="cls-3" d="M354.23,51.87h1.46v5a3.32,3.32,0,0,1-.6,2.19,3,3,0,0,1-2.42.95,4.24,4.24,0,0,1-1.45-.21,2.62,2.62,0,0,1-1-.63,2.57,2.57,0,0,1-.6-1h1.62a1.35,1.35,0,0,0,.56.38,2.3,2.3,0,0,0,.8.13,2.12,2.12,0,0,0,1-.18,1.11,1.11,0,0,0,.51-.47,2.42,2.42,0,0,0,.15-1,2.46,2.46,0,0,1-.81.56,2.58,2.58,0,0,1-1,.17,2.65,2.65,0,0,1-2-.85,3.31,3.31,0,0,1,0-4.4,2.57,2.57,0,0,1,1.87-.76,2.47,2.47,0,0,1,1,.19,3.06,3.06,0,0,1,.9.61Zm-1.53,1.22a1.53,1.53,0,0,0-1.15.47,1.62,1.62,0,0,0-.45,1.17,1.63,1.63,0,0,0,.46,1.2,1.57,1.57,0,0,0,1.16.47,1.51,1.51,0,0,0,1.13-.46,1.65,1.65,0,0,0,.44-1.2,1.63,1.63,0,0,0-.45-1.19A1.54,1.54,0,0,0,352.71,53.09Z"/><path class="cls-3" d="M357.18,51.87h1.49v2.82a3.93,3.93,0,0,0,.11,1.14,1,1,0,0,0,.37.5,1,1,0,0,0,.62.18,1.08,1.08,0,0,0,.62-.18,1,1,0,0,0,.38-.51,3.93,3.93,0,0,0,.09-1.08V51.87h1.47v2.48a6.08,6.08,0,0,1-.24,2.1,2.29,2.29,0,0,1-.87,1.06,2.67,2.67,0,0,1-1.46.37,2.6,2.6,0,0,1-1.56-.43,2.28,2.28,0,0,1-.84-1.2,7.27,7.27,0,0,1-.17-1.94Z"/><path class="cls-3" d="M363.64,49.61h1.47v8.13h-1.47Z"/><path class="cls-3" d="M370.78,51.87h1.47v5.86h-1.47v-.62a2.87,2.87,0,0,1-.86.59,2.4,2.4,0,0,1-.94.18,2.6,2.6,0,0,1-2-.88,3.07,3.07,0,0,1-.83-2.19,3.15,3.15,0,0,1,.8-2.23,2.55,2.55,0,0,1,1.95-.87,2.48,2.48,0,0,1,1,.2,2.71,2.71,0,0,1,.86.6Zm-1.55,1.21a1.49,1.49,0,0,0-1.13.48,1.74,1.74,0,0,0-.45,1.24,1.76,1.76,0,0,0,.46,1.25,1.49,1.49,0,0,0,1.13.49,1.52,1.52,0,0,0,1.15-.48,1.77,1.77,0,0,0,.46-1.26,1.72,1.72,0,0,0-.46-1.24A1.53,1.53,0,0,0,369.23,53.08Z"/><path class="cls-3" d="M373.91,49.71h1.47v2.16h.87v1.27h-.87v4.6h-1.47v-4.6h-.75V51.87h.75Z"/><path class="cls-3" d="M379.8,51.72a3.1,3.1,0,0,1,1.56.42,3,3,0,0,1,1.14,1.13,3,3,0,0,1,.41,1.54,3.09,3.09,0,0,1-.41,1.55,3,3,0,0,1-1.12,1.13,3.11,3.11,0,0,1-1.57.41,2.93,2.93,0,0,1-2.15-.9,3.11,3.11,0,0,1,.12-4.47A2.94,2.94,0,0,1,379.8,51.72Zm0,1.38a1.51,1.51,0,0,0-1.14.48,1.69,1.69,0,0,0-.46,1.22,1.72,1.72,0,0,0,.45,1.24,1.51,1.51,0,0,0,1.14.47A1.53,1.53,0,0,0,381,56a1.89,1.89,0,0,0,0-2.46A1.52,1.52,0,0,0,379.82,53.1Z"/><path class="cls-3" d="M383.76,51.87H385v.74a1.57,1.57,0,0,1,.54-.66,1.31,1.31,0,0,1,.74-.23,1.38,1.38,0,0,1,.6.15l-.46,1.27A1,1,0,0,0,386,53a.67.67,0,0,0-.57.42,3.85,3.85,0,0,0-.23,1.65v2.66h-1.46Z"/><path class="cls-3" d="M387,51.87h1.5L390,55.55l1.68-3.68h1.51l-3.67,8H388l1.21-2.58Z"/><path class="cls-3" d="M343.88,64.44l-1.06,1a3.27,3.27,0,0,0-2.42-1.14A2.65,2.65,0,0,0,337.71,67a2.84,2.84,0,0,0,.34,1.41,2.48,2.48,0,0,0,1,1,2.83,2.83,0,0,0,1.4.35,2.88,2.88,0,0,0,1.2-.25,4.3,4.3,0,0,0,1.2-.89l1,1.07a5.61,5.61,0,0,1-1.66,1.19,4.52,4.52,0,0,1-1.78.33,4.11,4.11,0,0,1-3-1.17,4.06,4.06,0,0,1-1.18-3,4.11,4.11,0,0,1,.54-2.11,4,4,0,0,1,1.54-1.48,4.33,4.33,0,0,1,2.15-.56,4.57,4.57,0,0,1,3.46,1.59Z"/><path class="cls-3" d="M347.79,65a3.1,3.1,0,0,1,1.56.42,3,3,0,0,1,1.14,1.13A3,3,0,0,1,350.9,68a3.09,3.09,0,0,1-.41,1.55,3,3,0,0,1-1.12,1.13,3.11,3.11,0,0,1-1.57.41,2.93,2.93,0,0,1-2.15-.9,3.11,3.11,0,0,1,.12-4.47A2.94,2.94,0,0,1,347.79,65Zm0,1.38a1.51,1.51,0,0,0-1.14.48,1.69,1.69,0,0,0-.46,1.22,1.72,1.72,0,0,0,.45,1.24,1.51,1.51,0,0,0,1.14.47,1.53,1.53,0,0,0,1.15-.48,1.89,1.89,0,0,0,0-2.46A1.52,1.52,0,0,0,347.81,66.35Z"/><path class="cls-3" d="M352.09,65.11h1.47v.67a2.51,2.51,0,0,1,.84-.62,2.46,2.46,0,0,1,1-.2,1.87,1.87,0,0,1,1,.27,1.94,1.94,0,0,1,.71.79,2.38,2.38,0,0,1,.86-.79,2.34,2.34,0,0,1,1.11-.27,2.06,2.06,0,0,1,1.1.29,1.67,1.67,0,0,1,.68.76,4,4,0,0,1,.21,1.52V71h-1.48V68a2.54,2.54,0,0,0-.25-1.35.85.85,0,0,0-.74-.35,1.13,1.13,0,0,0-.68.22,1.27,1.27,0,0,0-.44.6,3.71,3.71,0,0,0-.15,1.22V71h-1.48V68.14a4.05,4.05,0,0,0-.12-1.14,1,1,0,0,0-.35-.53.91.91,0,0,0-.56-.17,1.11,1.11,0,0,0-.67.22,1.3,1.3,0,0,0-.45.61,3.77,3.77,0,0,0-.15,1.24V71h-1.47Z"/><path class="cls-3" d="M363.94,65.11v.65a2.76,2.76,0,0,1,.86-.6,2.48,2.48,0,0,1,1-.2,2.56,2.56,0,0,1,2,.87,3.15,3.15,0,0,1,.8,2.23,3.07,3.07,0,0,1-.83,2.19,2.61,2.61,0,0,1-2,.88,2.43,2.43,0,0,1-.94-.18,2.86,2.86,0,0,1-.87-.59v2.76h-1.46v-8Zm1.55,1.21a1.53,1.53,0,0,0-1.15.47,1.71,1.71,0,0,0-.46,1.24,1.76,1.76,0,0,0,.46,1.26,1.52,1.52,0,0,0,1.15.48,1.5,1.5,0,0,0,1.13-.49,1.75,1.75,0,0,0,.46-1.25,1.73,1.73,0,0,0-.45-1.24A1.5,1.5,0,0,0,365.48,66.32Z"/><path class="cls-3" d="M369.6,62.85h1.47V71H369.6Z"/><path class="cls-3" d="M373,62.7a.9.9,0,0,1,.66.28,1,1,0,0,1,0,1.35.89.89,0,0,1-.66.28.9.9,0,0,1-.67-.28,1,1,0,0,1-.28-.69.94.94,0,0,1,.93-.94Zm-.74,2.41h1.47V71h-1.47Z"/><path class="cls-3" d="M379.38,65.11h1.47V71h-1.47v-.62a2.87,2.87,0,0,1-.86.59,2.4,2.4,0,0,1-.94.18,2.61,2.61,0,0,1-2-.88,3.07,3.07,0,0,1-.83-2.19,3.15,3.15,0,0,1,.8-2.23,2.56,2.56,0,0,1,1.95-.87,2.48,2.48,0,0,1,1,.2,2.7,2.7,0,0,1,.86.6Zm-1.55,1.21a1.49,1.49,0,0,0-1.13.48,1.93,1.93,0,0,0,0,2.49,1.49,1.49,0,0,0,1.13.49A1.52,1.52,0,0,0,379,69.3a1.76,1.76,0,0,0,.46-1.26,1.71,1.71,0,0,0-.46-1.24A1.53,1.53,0,0,0,377.83,66.32Z"/><path class="cls-3" d="M382.34,65.11h1.47v.6a3.49,3.49,0,0,1,.91-.59,2.18,2.18,0,0,1,.83-.17,2,2,0,0,1,1.48.61,2.09,2.09,0,0,1,.51,1.53V71h-1.46V68.41A6.53,6.53,0,0,0,386,67a1,1,0,0,0-.33-.52.92.92,0,0,0-.58-.18,1.08,1.08,0,0,0-.77.3,1.59,1.59,0,0,0-.44.83,6.68,6.68,0,0,0-.06,1.19V71h-1.47Z"/><path class="cls-3" d="M394.7,66.3l-1.22.67a2.08,2.08,0,0,0-.68-.5,2,2,0,0,0-.79-.14,1.84,1.84,0,0,0-1.33.49,1.68,1.68,0,0,0-.51,1.26,1.62,1.62,0,0,0,.49,1.22,1.78,1.78,0,0,0,1.29.47,1.87,1.87,0,0,0,1.54-.67l1.16.79a3.57,3.57,0,0,1-5.08.31,3,3,0,0,1,.74-4.84A3.56,3.56,0,0,1,392,65a3.44,3.44,0,0,1,1.57.35A3,3,0,0,1,394.7,66.3Z"/><path class="cls-3" d="M401.9,68.47h-4.73a1.57,1.57,0,0,0,.55,1,1.72,1.72,0,0,0,1.13.37,2,2,0,0,0,1.42-.58l1.24.58a2.93,2.93,0,0,1-1.11,1,3.46,3.46,0,0,1-1.54.32,3,3,0,0,1-2.25-.87,3,3,0,0,1-.87-2.18,3.06,3.06,0,0,1,.86-2.23,2.91,2.91,0,0,1,2.17-.89,3,3,0,0,1,2.25.89,3.21,3.21,0,0,1,.87,2.34Zm-1.47-1.16a1.47,1.47,0,0,0-.57-.8,1.67,1.67,0,0,0-1-.31,1.76,1.76,0,0,0-1.08.35,1.93,1.93,0,0,0-.54.76Z"/><path class="cls-6" d="M383.37,205.27h1.79a5.88,5.88,0,0,1,2.57.43,3.35,3.35,0,0,1,1.38,1.39,4.89,4.89,0,0,1,.24,3.94,3.51,3.51,0,0,1-.84,1.27,3,3,0,0,1-1.16.7,8.22,8.22,0,0,1-2.16.19h-1.81Zm1.5,1.46v5h.7a3.5,3.5,0,0,0,1.5-.24,1.8,1.8,0,0,0,.76-.8,2.93,2.93,0,0,0,.3-1.38,2.62,2.62,0,0,0-.71-2,2.83,2.83,0,0,0-2-.63Z"/><path class="cls-6" d="M395.26,207.34h1.47v5.86h-1.47v-.62a2.87,2.87,0,0,1-.86.59,2.4,2.4,0,0,1-.94.18,2.6,2.6,0,0,1-2-.88,3.07,3.07,0,0,1-.83-2.19,3.15,3.15,0,0,1,.8-2.23,2.55,2.55,0,0,1,1.95-.87,2.48,2.48,0,0,1,1,.2,2.71,2.71,0,0,1,.86.6Zm-1.55,1.21a1.49,1.49,0,0,0-1.13.48,1.74,1.74,0,0,0-.45,1.24,1.76,1.76,0,0,0,.46,1.25,1.49,1.49,0,0,0,1.13.49,1.52,1.52,0,0,0,1.15-.48,1.77,1.77,0,0,0,.46-1.26,1.72,1.72,0,0,0-.46-1.24A1.53,1.53,0,0,0,393.71,208.54Z"/><path class="cls-6" d="M398.39,205.18h1.47v2.16h.87v1.27h-.87v4.6h-1.47v-4.6h-.75v-1.27h.75Z"/><path class="cls-6" d="M405.85,207.34h1.47v5.86h-1.47v-.62a2.87,2.87,0,0,1-.86.59,2.4,2.4,0,0,1-.94.18,2.6,2.6,0,0,1-2-.88,3.07,3.07,0,0,1-.83-2.19,3.15,3.15,0,0,1,.8-2.23,2.55,2.55,0,0,1,1.95-.87,2.48,2.48,0,0,1,1,.2,2.71,2.71,0,0,1,.86.6Zm-1.55,1.21a1.49,1.49,0,0,0-1.13.48,1.74,1.74,0,0,0-.45,1.24,1.76,1.76,0,0,0,.46,1.25,1.49,1.49,0,0,0,1.13.49,1.52,1.52,0,0,0,1.15-.48,1.77,1.77,0,0,0,.46-1.26,1.72,1.72,0,0,0-.46-1.24A1.53,1.53,0,0,0,404.3,208.54Z"/><path class="cls-6" d="M384.13,218.52h1.47l1.84,5.53,1.85-5.53h1.47l1.33,7.93h-1.46l-.85-5-1.68,5h-1.33l-1.67-5-.87,5h-1.47Z"/><path class="cls-6" d="M397.46,220.58h1.47v5.86h-1.47v-.62a2.87,2.87,0,0,1-.86.59,2.4,2.4,0,0,1-.94.18,2.61,2.61,0,0,1-2-.88,3.07,3.07,0,0,1-.83-2.19,3.15,3.15,0,0,1,.8-2.23,2.56,2.56,0,0,1,1.95-.87,2.48,2.48,0,0,1,1,.2,2.7,2.7,0,0,1,.86.6Zm-1.55,1.21a1.49,1.49,0,0,0-1.13.48,1.93,1.93,0,0,0,0,2.49,1.49,1.49,0,0,0,1.13.49,1.52,1.52,0,0,0,1.15-.48,1.76,1.76,0,0,0,.46-1.26,1.71,1.71,0,0,0-.46-1.24A1.53,1.53,0,0,0,395.91,221.79Z"/><path class="cls-6" d="M400.42,220.58h1.47v.6a3.49,3.49,0,0,1,.91-.59,2.18,2.18,0,0,1,.83-.17,2,2,0,0,1,1.48.61,2.09,2.09,0,0,1,.51,1.53v3.88h-1.46v-2.57a6.53,6.53,0,0,0-.09-1.39,1,1,0,0,0-.33-.52.92.92,0,0,0-.58-.18,1.08,1.08,0,0,0-.77.3,1.59,1.59,0,0,0-.44.83,6.68,6.68,0,0,0-.06,1.19v2.35h-1.47Z"/><path class="cls-6" d="M411.37,220.58h1.47v5.86h-1.47v-.62a2.87,2.87,0,0,1-.87.59,2.4,2.4,0,0,1-.94.18,2.6,2.6,0,0,1-2-.88,3.07,3.07,0,0,1-.83-2.19,3.15,3.15,0,0,1,.8-2.23,2.56,2.56,0,0,1,1.95-.87,2.48,2.48,0,0,1,1,.2,2.71,2.71,0,0,1,.86.6Zm-1.55,1.21a1.49,1.49,0,0,0-1.13.48,1.93,1.93,0,0,0,0,2.49,1.49,1.49,0,0,0,1.13.49,1.52,1.52,0,0,0,1.15-.48,1.76,1.76,0,0,0,.46-1.26,1.71,1.71,0,0,0-.46-1.24A1.53,1.53,0,0,0,409.82,221.79Z"/><path class="cls-6" d="M418.66,220.58h1.47v5a3.32,3.32,0,0,1-.6,2.19,3,3,0,0,1-2.42.95,4.23,4.23,0,0,1-1.45-.21,2.61,2.61,0,0,1-1-.63,2.57,2.57,0,0,1-.6-1h1.62a1.35,1.35,0,0,0,.56.38,2.3,2.3,0,0,0,.8.13,2.12,2.12,0,0,0,1-.18,1.1,1.1,0,0,0,.51-.47,2.4,2.4,0,0,0,.15-1,2.44,2.44,0,0,1-.81.56,2.59,2.59,0,0,1-1,.17,2.65,2.65,0,0,1-2-.85,3.3,3.3,0,0,1,0-4.4,2.57,2.57,0,0,1,1.86-.76,2.47,2.47,0,0,1,1,.19,3,3,0,0,1,.9.61Zm-1.52,1.22a1.53,1.53,0,0,0-1.15.47,1.61,1.61,0,0,0-.45,1.17,1.63,1.63,0,0,0,.46,1.2,1.57,1.57,0,0,0,1.16.47,1.5,1.5,0,0,0,1.13-.46,1.66,1.66,0,0,0,.44-1.2,1.63,1.63,0,0,0-.45-1.19A1.54,1.54,0,0,0,417.13,221.8Z"/><path class="cls-6" d="M427.49,223.94h-4.73a1.57,1.57,0,0,0,.55,1,1.72,1.72,0,0,0,1.13.37,2,2,0,0,0,1.42-.58l1.24.58a2.93,2.93,0,0,1-1.11,1,3.46,3.46,0,0,1-1.54.32,3,3,0,0,1-2.25-.87,3,3,0,0,1-.87-2.18,3.06,3.06,0,0,1,.86-2.23,2.91,2.91,0,0,1,2.17-.89,3,3,0,0,1,2.25.89,3.21,3.21,0,0,1,.87,2.34ZM426,222.78a1.47,1.47,0,0,0-.57-.8,1.67,1.67,0,0,0-1-.31,1.76,1.76,0,0,0-1.08.35,1.93,1.93,0,0,0-.54.76Z"/><path class="cls-6" d="M428.67,220.58h1.47v.67a2.53,2.53,0,0,1,.84-.62,2.46,2.46,0,0,1,1-.2,1.87,1.87,0,0,1,1,.27,2,2,0,0,1,.71.79,2.37,2.37,0,0,1,.86-.79,2.34,2.34,0,0,1,1.11-.27,2.06,2.06,0,0,1,1.1.29,1.67,1.67,0,0,1,.68.76,4,4,0,0,1,.21,1.52v3.44h-1.48v-3a2.53,2.53,0,0,0-.25-1.35.85.85,0,0,0-.74-.35,1.13,1.13,0,0,0-.68.22,1.26,1.26,0,0,0-.44.6,3.67,3.67,0,0,0-.15,1.22v2.65h-1.48V223.6a4,4,0,0,0-.12-1.14,1,1,0,0,0-.35-.53.91.91,0,0,0-.56-.17,1.11,1.11,0,0,0-.67.22,1.31,1.31,0,0,0-.45.61,3.77,3.77,0,0,0-.15,1.24v2.61h-1.47Z"/><path class="cls-6" d="M444.92,223.94H440.2a1.57,1.57,0,0,0,.55,1,1.72,1.72,0,0,0,1.13.37,2,2,0,0,0,1.42-.58l1.24.58a2.93,2.93,0,0,1-1.11,1,3.46,3.46,0,0,1-1.54.32,3,3,0,0,1-2.25-.87,3,3,0,0,1-.87-2.18,3.06,3.06,0,0,1,.86-2.23,2.91,2.91,0,0,1,2.17-.89,3,3,0,0,1,2.25.89,3.21,3.21,0,0,1,.87,2.34Zm-1.47-1.16a1.47,1.47,0,0,0-.57-.8,1.67,1.67,0,0,0-1-.31,1.76,1.76,0,0,0-1.08.35,1.93,1.93,0,0,0-.54.76Z"/><path class="cls-6" d="M446.11,220.58h1.47v.6a3.51,3.51,0,0,1,.91-.59,2.18,2.18,0,0,1,.83-.17,2,2,0,0,1,1.48.61,2.1,2.1,0,0,1,.51,1.53v3.88h-1.45v-2.57a6.5,6.5,0,0,0-.09-1.39,1,1,0,0,0-.33-.52.92.92,0,0,0-.58-.18,1.08,1.08,0,0,0-.77.3,1.59,1.59,0,0,0-.44.83,6.68,6.68,0,0,0-.06,1.19v2.35h-1.47Z"/><path class="cls-6" d="M452.91,218.42h1.47v2.16h.87v1.27h-.87v4.6h-1.47v-4.6h-.75v-1.27h.75Z"/><path class="cls-5" d="M328.81,313.35h4.38v1.49h-1.45v6.44h-1.53v-6.44h-1.41Z"/><path class="cls-5" d="M339.94,318.77h-4.73a1.57,1.57,0,0,0,.55,1,1.72,1.72,0,0,0,1.13.37,2,2,0,0,0,1.42-.58l1.24.58a2.91,2.91,0,0,1-1.11,1,3.46,3.46,0,0,1-1.54.32,3,3,0,0,1-2.25-.87,3,3,0,0,1-.87-2.18,3.07,3.07,0,0,1,.87-2.23,2.9,2.9,0,0,1,2.17-.89,3,3,0,0,1,2.25.89,3.2,3.2,0,0,1,.87,2.34Zm-1.47-1.16a1.48,1.48,0,0,0-.58-.8,1.67,1.67,0,0,0-1-.31,1.76,1.76,0,0,0-1.08.35,1.9,1.9,0,0,0-.54.76Z"/><path class="cls-5" d="M346.87,316.59l-1.22.67a2.08,2.08,0,0,0-.68-.5,2,2,0,0,0-.79-.14,1.84,1.84,0,0,0-1.34.49,1.68,1.68,0,0,0-.51,1.26,1.62,1.62,0,0,0,.49,1.22,1.78,1.78,0,0,0,1.29.47,1.87,1.87,0,0,0,1.54-.67l1.16.79a3.57,3.57,0,0,1-5.08.31,3,3,0,0,1,.74-4.84,3.55,3.55,0,0,1,1.71-.41,3.45,3.45,0,0,1,1.57.35A3,3,0,0,1,346.87,316.59Z"/><path class="cls-5" d="M348.2,313.15h1.46V316a3.34,3.34,0,0,1,.87-.56,2.24,2.24,0,0,1,.88-.19,2,2,0,0,1,1.47.6,2.11,2.11,0,0,1,.51,1.54v3.88h-1.45V318.7a6.28,6.28,0,0,0-.1-1.38,1,1,0,0,0-.33-.54.93.93,0,0,0-.58-.18,1.09,1.09,0,0,0-.77.3,1.57,1.57,0,0,0-.45.81,6.72,6.72,0,0,0-.06,1.21v2.36H348.2Z"/><path class="cls-5" d="M354.82,315.41h1.47v.6a3.49,3.49,0,0,1,.91-.59,2.18,2.18,0,0,1,.83-.17,2,2,0,0,1,1.48.61,2.09,2.09,0,0,1,.51,1.53v3.88h-1.46v-2.57a6.53,6.53,0,0,0-.09-1.39,1,1,0,0,0-.33-.52.92.92,0,0,0-.58-.18,1.08,1.08,0,0,0-.77.3,1.59,1.59,0,0,0-.44.83,6.68,6.68,0,0,0-.06,1.19v2.35h-1.47Z"/><path class="cls-5" d="M364.19,315.26a3.1,3.1,0,0,1,1.56.42,3,3,0,0,1,1.14,1.13,3,3,0,0,1,.41,1.54,3.08,3.08,0,0,1-.41,1.55,3,3,0,0,1-1.12,1.13,3.11,3.11,0,0,1-1.57.41,2.93,2.93,0,0,1-2.15-.9,3.11,3.11,0,0,1,.12-4.47A2.94,2.94,0,0,1,364.19,315.26Zm0,1.38a1.52,1.52,0,0,0-1.14.48,1.69,1.69,0,0,0-.46,1.22,1.72,1.72,0,0,0,.45,1.24,1.61,1.61,0,0,0,2.29,0,1.89,1.89,0,0,0,0-2.46A1.52,1.52,0,0,0,364.22,316.64Z"/><path class="cls-5" d="M368.34,313.15h1.47v8.13h-1.47Z"/><path class="cls-5" d="M373.9,315.26a3.1,3.1,0,0,1,1.56.42,3,3,0,0,1,1.14,1.13,3,3,0,0,1,.41,1.54,3.09,3.09,0,0,1-.41,1.55,3,3,0,0,1-1.12,1.13,3.11,3.11,0,0,1-1.57.41,2.93,2.93,0,0,1-2.15-.9,3.11,3.11,0,0,1,.12-4.47A2.94,2.94,0,0,1,373.9,315.26Zm0,1.38a1.51,1.51,0,0,0-1.14.48,1.69,1.69,0,0,0-.46,1.22,1.72,1.72,0,0,0,.45,1.24,1.51,1.51,0,0,0,1.14.47,1.53,1.53,0,0,0,1.15-.48,1.89,1.89,0,0,0,0-2.46A1.52,1.52,0,0,0,373.93,316.64Z"/><path class="cls-5" d="M382.55,315.41H384v5a3.32,3.32,0,0,1-.6,2.19,3,3,0,0,1-2.42.95,4.24,4.24,0,0,1-1.45-.21,2.62,2.62,0,0,1-1-.63,2.58,2.58,0,0,1-.6-1h1.62a1.34,1.34,0,0,0,.55.38,2.31,2.31,0,0,0,.8.13,2.12,2.12,0,0,0,1-.18,1.09,1.09,0,0,0,.51-.47,2.39,2.39,0,0,0,.15-1,2.42,2.42,0,0,1-.81.56,2.58,2.58,0,0,1-1,.17,2.65,2.65,0,0,1-2-.85,3.3,3.3,0,0,1,0-4.4,2.57,2.57,0,0,1,1.86-.76,2.48,2.48,0,0,1,1,.19,3,3,0,0,1,.9.61ZM381,316.63a1.53,1.53,0,0,0-1.15.47,1.61,1.61,0,0,0-.45,1.17,1.64,1.64,0,0,0,.46,1.2,1.57,1.57,0,0,0,1.16.47,1.5,1.5,0,0,0,1.13-.46,1.65,1.65,0,0,0,.45-1.2,1.63,1.63,0,0,0-.45-1.19A1.54,1.54,0,0,0,381,316.63Z"/><path class="cls-5" d="M386.07,313a.9.9,0,0,1,.66.28.93.93,0,0,1,.28.68.92.92,0,0,1-.27.67.89.89,0,0,1-.66.28.9.9,0,0,1-.67-.28.94.94,0,0,1-.28-.69.94.94,0,0,1,.94-.94Zm-.74,2.41h1.47v5.86h-1.47Z"/><path class="cls-5" d="M393.88,316.59l-1.22.67a2.08,2.08,0,0,0-.68-.5,2,2,0,0,0-.79-.14,1.84,1.84,0,0,0-1.34.49,1.68,1.68,0,0,0-.51,1.26,1.62,1.62,0,0,0,.49,1.22,1.78,1.78,0,0,0,1.29.47,1.87,1.87,0,0,0,1.54-.67l1.16.79a3.57,3.57,0,0,1-5.08.31,3,3,0,0,1,.74-4.84,3.55,3.55,0,0,1,1.71-.41,3.45,3.45,0,0,1,1.57.35A3,3,0,0,1,393.88,316.59Z"/><path class="cls-5" d="M399.54,315.41H401v5.86h-1.47v-.62a2.87,2.87,0,0,1-.86.59,2.4,2.4,0,0,1-.94.18,2.61,2.61,0,0,1-2-.88,3.07,3.07,0,0,1-.83-2.19,3.15,3.15,0,0,1,.8-2.23,2.56,2.56,0,0,1,1.95-.87,2.48,2.48,0,0,1,1,.2,2.7,2.7,0,0,1,.86.6ZM398,316.62a1.49,1.49,0,0,0-1.13.48,1.74,1.74,0,0,0-.45,1.24,1.76,1.76,0,0,0,.46,1.25,1.49,1.49,0,0,0,1.13.49,1.52,1.52,0,0,0,1.15-.48,1.77,1.77,0,0,0,.46-1.26,1.72,1.72,0,0,0-.46-1.24A1.53,1.53,0,0,0,398,316.62Z"/><path class="cls-5" d="M402.33,313.15h1.47v8.13h-1.47Z"/><path class="cls-5" d="M333.76,328.65h1.47v5.86h-1.47v-.62a2.87,2.87,0,0,1-.86.59,2.4,2.4,0,0,1-.94.18,2.6,2.6,0,0,1-2-.88,3.07,3.07,0,0,1-.83-2.19,3.15,3.15,0,0,1,.8-2.23,2.55,2.55,0,0,1,1.95-.87,2.48,2.48,0,0,1,1,.2,2.71,2.71,0,0,1,.86.6Zm-1.55,1.21a1.49,1.49,0,0,0-1.13.48,1.74,1.74,0,0,0-.45,1.24,1.76,1.76,0,0,0,.46,1.25,1.49,1.49,0,0,0,1.13.49,1.52,1.52,0,0,0,1.15-.48,1.77,1.77,0,0,0,.46-1.26,1.72,1.72,0,0,0-.46-1.24A1.53,1.53,0,0,0,332.21,329.86Z"/><path class="cls-5" d="M336.37,328.65h1.26v.74a1.57,1.57,0,0,1,.54-.66,1.31,1.31,0,0,1,.74-.23,1.38,1.38,0,0,1,.6.15l-.46,1.27a1,1,0,0,0-.43-.13.67.67,0,0,0-.57.42,3.85,3.85,0,0,0-.23,1.65v2.66h-1.46Z"/><path class="cls-5" d="M346,329.84l-1.22.67a2.08,2.08,0,0,0-.68-.5,2,2,0,0,0-.79-.14,1.84,1.84,0,0,0-1.33.49,1.68,1.68,0,0,0-.51,1.26,1.62,1.62,0,0,0,.49,1.22,1.78,1.78,0,0,0,1.29.47,1.87,1.87,0,0,0,1.54-.67l1.16.79a3.57,3.57,0,0,1-5.08.31,3,3,0,0,1,.74-4.84,3.55,3.55,0,0,1,1.71-.41,3.45,3.45,0,0,1,1.57.35A3,3,0,0,1,346,329.84Z"/><path class="cls-5" d="M347.32,326.39h1.46v2.86a3.34,3.34,0,0,1,.87-.56,2.24,2.24,0,0,1,.88-.19,2,2,0,0,1,1.47.6,2.11,2.11,0,0,1,.51,1.54v3.88h-1.45v-2.57a6.3,6.3,0,0,0-.1-1.38,1,1,0,0,0-.33-.54.93.93,0,0,0-.58-.18,1.09,1.09,0,0,0-.77.3,1.58,1.58,0,0,0-.44.81,6.72,6.72,0,0,0-.06,1.21v2.36h-1.46Z"/><path class="cls-5" d="M354.51,326.24a.9.9,0,0,1,.66.28,1,1,0,0,1,0,1.35.89.89,0,0,1-.66.28.9.9,0,0,1-.67-.28,1,1,0,0,1-.28-.69.94.94,0,0,1,.93-.94Zm-.74,2.41h1.47v5.86h-1.47Z"/><path class="cls-5" d="M356.76,326.49h1.47v2.16h.87v1.27h-.87v4.6h-1.47v-4.6H356v-1.27h.75Z"/><path class="cls-5" d="M365.76,332H361a1.57,1.57,0,0,0,.55,1,1.72,1.72,0,0,0,1.13.37,2,2,0,0,0,1.42-.58l1.24.58a2.92,2.92,0,0,1-1.11,1,3.46,3.46,0,0,1-1.54.32,3,3,0,0,1-2.25-.87,3,3,0,0,1-.87-2.18,3.06,3.06,0,0,1,.86-2.23,2.91,2.91,0,0,1,2.17-.89,3,3,0,0,1,2.25.89,3.2,3.2,0,0,1,.87,2.34Zm-1.47-1.16a1.47,1.47,0,0,0-.58-.8,1.66,1.66,0,0,0-1-.31,1.76,1.76,0,0,0-1.08.35,1.92,1.92,0,0,0-.54.76Z"/><path class="cls-5" d="M372.69,329.84l-1.22.67a2.09,2.09,0,0,0-.68-.5,2,2,0,0,0-.79-.14,1.84,1.84,0,0,0-1.34.49,1.68,1.68,0,0,0-.51,1.26,1.63,1.63,0,0,0,.49,1.22,1.78,1.78,0,0,0,1.29.47,1.88,1.88,0,0,0,1.54-.67l1.16.79a3.57,3.57,0,0,1-5.08.31,3,3,0,0,1,.74-4.84,3.56,3.56,0,0,1,1.71-.41,3.45,3.45,0,0,1,1.57.35A3,3,0,0,1,372.69,329.84Z"/><path class="cls-5" d="M374.19,326.49h1.47v2.16h.87v1.27h-.87v4.6h-1.47v-4.6h-.75v-1.27h.75Z"/><path class="cls-5" d="M377.32,328.65h1.49v2.82a3.93,3.93,0,0,0,.11,1.14,1,1,0,0,0,.37.5,1,1,0,0,0,.62.18,1.08,1.08,0,0,0,.62-.18,1,1,0,0,0,.38-.51,3.93,3.93,0,0,0,.09-1.08v-2.87h1.47v2.48a6.08,6.08,0,0,1-.24,2.1,2.29,2.29,0,0,1-.87,1.06,2.67,2.67,0,0,1-1.46.37,2.6,2.6,0,0,1-1.56-.43,2.28,2.28,0,0,1-.84-1.2,7.27,7.27,0,0,1-.17-1.94Z"/><path class="cls-5" d="M383.6,328.65h1.26v.74a1.57,1.57,0,0,1,.54-.66,1.31,1.31,0,0,1,.74-.23,1.38,1.38,0,0,1,.6.15l-.46,1.27a1,1,0,0,0-.42-.13.67.67,0,0,0-.57.42,3.85,3.85,0,0,0-.23,1.65v2.66H383.6Z"/><path class="cls-5" d="M393.35,332h-4.73a1.57,1.57,0,0,0,.55,1,1.72,1.72,0,0,0,1.13.37,2,2,0,0,0,1.42-.58l1.24.58a2.93,2.93,0,0,1-1.11,1,3.46,3.46,0,0,1-1.54.32,3,3,0,0,1-2.25-.87,3,3,0,0,1-.87-2.18,3.06,3.06,0,0,1,.86-2.23,2.91,2.91,0,0,1,2.17-.89,3,3,0,0,1,2.25.89,3.21,3.21,0,0,1,.87,2.34Zm-1.47-1.16a1.47,1.47,0,0,0-.57-.8,1.67,1.67,0,0,0-1-.31,1.76,1.76,0,0,0-1.08.35,1.93,1.93,0,0,0-.54.76Z"/><path class="cls-6" d="M223.3,391l-1.12,1a1.58,1.58,0,0,0-1.2-.82.73.73,0,0,0-.49.16.46.46,0,0,0-.19.36.62.62,0,0,0,.13.38,10.36,10.36,0,0,0,1.11,1q.86.72,1,.91a3.16,3.16,0,0,1,.65.89,2.21,2.21,0,0,1,.19.92,2.12,2.12,0,0,1-.67,1.61,2.46,2.46,0,0,1-1.76.64,2.62,2.62,0,0,1-1.48-.42,3.27,3.27,0,0,1-1.08-1.3l1.27-.77q.57,1.05,1.32,1.05a1,1,0,0,0,.65-.23.67.67,0,0,0,.26-.52.9.9,0,0,0-.2-.54,5.79,5.79,0,0,0-.88-.82,8.87,8.87,0,0,1-1.67-1.63,2.07,2.07,0,0,1-.38-1.15,1.87,1.87,0,0,1,.63-1.41,2.18,2.18,0,0,1,1.55-.59,2.45,2.45,0,0,1,1.13.27A4.12,4.12,0,0,1,223.3,391Z"/><path class="cls-6" d="M224.9,389.83h1.47V392h.87v1.27h-.87v4.6H224.9v-4.6h-.75V392h.75Z"/><path class="cls-6" d="M227.68,392h1.26v.74a1.57,1.57,0,0,1,.54-.66,1.31,1.31,0,0,1,.74-.23,1.38,1.38,0,0,1,.6.15l-.46,1.27a1,1,0,0,0-.43-.13.67.67,0,0,0-.57.42,3.85,3.85,0,0,0-.23,1.65v2.66h-1.46Z"/><path class="cls-6" d="M235.88,392h1.47v5.86h-1.47v-.62a2.87,2.87,0,0,1-.86.59,2.4,2.4,0,0,1-.94.18,2.61,2.61,0,0,1-2-.88,3.07,3.07,0,0,1-.83-2.19,3.15,3.15,0,0,1,.8-2.23,2.56,2.56,0,0,1,1.95-.87,2.48,2.48,0,0,1,1,.2,2.71,2.71,0,0,1,.86.6Zm-1.55,1.21a1.49,1.49,0,0,0-1.13.48,1.74,1.74,0,0,0-.45,1.24,1.76,1.76,0,0,0,.46,1.25,1.49,1.49,0,0,0,1.13.49,1.52,1.52,0,0,0,1.15-.48,1.77,1.77,0,0,0,.46-1.26,1.72,1.72,0,0,0-.46-1.24A1.53,1.53,0,0,0,234.34,393.2Z"/><path class="cls-6" d="M239,389.83h1.47V392h.87v1.27h-.87v4.6H239v-4.6h-.75V392H239Z"/><path class="cls-6" d="M248,395.35H243.3a1.57,1.57,0,0,0,.55,1,1.71,1.71,0,0,0,1.13.37,2,2,0,0,0,1.42-.58l1.24.58a2.92,2.92,0,0,1-1.11,1A3.46,3.46,0,0,1,245,398a3,3,0,0,1-2.25-.87,3,3,0,0,1-.87-2.18,3.07,3.07,0,0,1,.87-2.23,2.9,2.9,0,0,1,2.17-.89,3,3,0,0,1,2.25.89,3.21,3.21,0,0,1,.87,2.34Zm-1.47-1.16a1.48,1.48,0,0,0-.57-.8,1.67,1.67,0,0,0-1-.31,1.76,1.76,0,0,0-1.08.35,1.91,1.91,0,0,0-.54.76Z"/><path class="cls-6" d="M253.55,392H255v5a3.32,3.32,0,0,1-.6,2.19,3,3,0,0,1-2.42.95,4.24,4.24,0,0,1-1.45-.21,2.62,2.62,0,0,1-1-.63,2.58,2.58,0,0,1-.6-1h1.62a1.34,1.34,0,0,0,.55.38,2.31,2.31,0,0,0,.8.13,2.12,2.12,0,0,0,1-.18,1.09,1.09,0,0,0,.51-.47,2.39,2.39,0,0,0,.15-1,2.42,2.42,0,0,1-.81.56,2.58,2.58,0,0,1-1,.17,2.65,2.65,0,0,1-2-.85,3.3,3.3,0,0,1,0-4.4,2.57,2.57,0,0,1,1.86-.76,2.48,2.48,0,0,1,1,.19,3,3,0,0,1,.9.61ZM252,393.22a1.53,1.53,0,0,0-1.15.47,1.61,1.61,0,0,0-.45,1.17,1.64,1.64,0,0,0,.46,1.2,1.57,1.57,0,0,0,1.16.47,1.5,1.5,0,0,0,1.13-.46,1.65,1.65,0,0,0,.45-1.2,1.63,1.63,0,0,0-.45-1.19A1.54,1.54,0,0,0,252,393.22Z"/><path class="cls-6" d="M257.07,389.58a.9.9,0,0,1,.66.28.93.93,0,0,1,.28.68.92.92,0,0,1-.27.67.89.89,0,0,1-.66.28.9.9,0,0,1-.67-.28.94.94,0,0,1-.28-.69.94.94,0,0,1,.94-.94Zm-.74,2.41h1.47v5.86h-1.47Z"/><path class="cls-6" d="M264.88,393.18l-1.22.67a2.08,2.08,0,0,0-.68-.5,2,2,0,0,0-.79-.14,1.84,1.84,0,0,0-1.34.49,1.68,1.68,0,0,0-.51,1.26,1.62,1.62,0,0,0,.49,1.22,1.78,1.78,0,0,0,1.29.47,1.87,1.87,0,0,0,1.54-.67l1.16.79a3.57,3.57,0,0,1-5.08.31,3,3,0,0,1,.74-4.84,3.55,3.55,0,0,1,1.71-.41,3.45,3.45,0,0,1,1.57.35A3,3,0,0,1,264.88,393.18Z"/><path class="cls-6" d="M221.56,403.17h1.53l3,7.93h-1.57l-.62-1.63h-3.23l-.64,1.63H218.5Zm.77,2.1L221.27,408h2.12Z"/><path class="cls-6" d="M227,403h1.47v8.13H227Z"/><path class="cls-6" d="M230.36,402.82a.9.9,0,0,1,.66.28.93.93,0,0,1,.28.68.92.92,0,0,1-.27.67.89.89,0,0,1-.66.28.9.9,0,0,1-.67-.28,1,1,0,0,1-.28-.69.94.94,0,0,1,.93-.94Zm-.74,2.41h1.47v5.86h-1.47Z"/><path class="cls-6" d="M236.77,405.24h1.47v5a3.32,3.32,0,0,1-.6,2.19,3,3,0,0,1-2.42.95,4.24,4.24,0,0,1-1.45-.21,2.62,2.62,0,0,1-1-.63,2.57,2.57,0,0,1-.6-1h1.62a1.34,1.34,0,0,0,.55.38,2.31,2.31,0,0,0,.8.13,2.12,2.12,0,0,0,1-.18,1.09,1.09,0,0,0,.51-.47,2.39,2.39,0,0,0,.15-1,2.42,2.42,0,0,1-.81.56,2.58,2.58,0,0,1-1,.17,2.65,2.65,0,0,1-2-.85,3.3,3.3,0,0,1,0-4.4,2.57,2.57,0,0,1,1.86-.76,2.48,2.48,0,0,1,1,.19,3,3,0,0,1,.9.61Zm-1.52,1.22a1.53,1.53,0,0,0-1.15.47,1.61,1.61,0,0,0-.45,1.17,1.64,1.64,0,0,0,.46,1.2,1.57,1.57,0,0,0,1.16.47,1.5,1.5,0,0,0,1.13-.46,1.65,1.65,0,0,0,.45-1.2,1.63,1.63,0,0,0-.45-1.19A1.54,1.54,0,0,0,235.24,406.46Z"/><path class="cls-6" d="M239.72,405.24h1.47v.6a3.54,3.54,0,0,1,.91-.59,2.19,2.19,0,0,1,.83-.17,2,2,0,0,1,1.48.61,2.09,2.09,0,0,1,.51,1.53v3.88h-1.45v-2.57a6.5,6.5,0,0,0-.09-1.39,1,1,0,0,0-.33-.52.92.92,0,0,0-.58-.18,1.08,1.08,0,0,0-.77.3,1.6,1.6,0,0,0-.44.83,6.68,6.68,0,0,0-.06,1.19v2.35h-1.47Z"/><path class="cls-6" d="M246.33,405.24h1.47v.67a2.5,2.5,0,0,1,.84-.62,2.46,2.46,0,0,1,1-.2,1.87,1.87,0,0,1,1,.27,2,2,0,0,1,.71.79,2.38,2.38,0,0,1,.86-.79,2.34,2.34,0,0,1,1.11-.27,2.06,2.06,0,0,1,1.1.29,1.68,1.68,0,0,1,.68.76,4.05,4.05,0,0,1,.21,1.52v3.44h-1.48v-3a2.55,2.55,0,0,0-.25-1.35.85.85,0,0,0-.74-.35,1.13,1.13,0,0,0-.68.22,1.28,1.28,0,0,0-.45.6,3.71,3.71,0,0,0-.14,1.22v2.65h-1.48v-2.84a4,4,0,0,0-.12-1.14,1,1,0,0,0-.35-.53.91.91,0,0,0-.56-.17,1.11,1.11,0,0,0-.67.22,1.3,1.3,0,0,0-.45.61,3.79,3.79,0,0,0-.15,1.24v2.61h-1.47Z"/><path class="cls-6" d="M262.59,408.6h-4.73a1.57,1.57,0,0,0,.55,1,1.72,1.72,0,0,0,1.13.37,2,2,0,0,0,1.42-.58l1.24.58a2.91,2.91,0,0,1-1.11,1,3.46,3.46,0,0,1-1.54.32,3,3,0,0,1-2.25-.87,3,3,0,0,1-.87-2.18,3.07,3.07,0,0,1,.87-2.23,2.9,2.9,0,0,1,2.17-.89,3,3,0,0,1,2.25.89,3.2,3.2,0,0,1,.87,2.34Zm-1.47-1.16a1.48,1.48,0,0,0-.58-.8,1.67,1.67,0,0,0-1-.31,1.76,1.76,0,0,0-1.08.35,1.9,1.9,0,0,0-.54.76Z"/><path class="cls-6" d="M263.78,405.24h1.47v.6a3.52,3.52,0,0,1,.91-.59,2.19,2.19,0,0,1,.83-.17,2,2,0,0,1,1.48.61,2.09,2.09,0,0,1,.51,1.53v3.88h-1.46v-2.57a6.53,6.53,0,0,0-.09-1.39,1,1,0,0,0-.33-.52.92.92,0,0,0-.58-.18,1.08,1.08,0,0,0-.77.3,1.59,1.59,0,0,0-.44.83,6.68,6.68,0,0,0-.06,1.19v2.35h-1.47Z"/><path class="cls-6" d="M270.58,403.08h1.47v2.16h.87v1.27h-.87v4.6h-1.47v-4.6h-.75v-1.27h.75Z"/><path class="cls-3" d="M76.47,326.85h1.79a5.88,5.88,0,0,1,2.57.43,3.35,3.35,0,0,1,1.38,1.39,4.88,4.88,0,0,1,.24,3.94,3.5,3.5,0,0,1-.84,1.27,3,3,0,0,1-1.16.7,8.23,8.23,0,0,1-2.16.19H76.47ZM78,328.3v5h.7a3.51,3.51,0,0,0,1.5-.24,1.8,1.8,0,0,0,.76-.8,2.93,2.93,0,0,0,.3-1.38,2.62,2.62,0,0,0-.71-2,2.82,2.82,0,0,0-2-.63Z"/><path class="cls-3" d="M88.36,328.91h1.47v5.86H88.36v-.62a2.87,2.87,0,0,1-.86.59,2.4,2.4,0,0,1-.94.18,2.61,2.61,0,0,1-2-.88,3.07,3.07,0,0,1-.83-2.19,3.15,3.15,0,0,1,.8-2.23,2.56,2.56,0,0,1,1.95-.87,2.48,2.48,0,0,1,1,.2,2.71,2.71,0,0,1,.86.6Zm-1.55,1.21a1.49,1.49,0,0,0-1.13.48,1.74,1.74,0,0,0-.45,1.24,1.76,1.76,0,0,0,.46,1.25,1.49,1.49,0,0,0,1.13.49,1.52,1.52,0,0,0,1.15-.48,1.76,1.76,0,0,0,.46-1.26,1.71,1.71,0,0,0-.46-1.24A1.53,1.53,0,0,0,86.81,330.12Z"/><path class="cls-3" d="M91.49,326.75H93v2.16h.87v1.27H93v4.6H91.49v-4.6h-.75v-1.27h.75Z"/><path class="cls-3" d="M99,328.91h1.47v5.86H99v-.62a2.87,2.87,0,0,1-.86.59,2.4,2.4,0,0,1-.94.18,2.61,2.61,0,0,1-2-.88,3.07,3.07,0,0,1-.83-2.19,3.15,3.15,0,0,1,.8-2.23,2.56,2.56,0,0,1,1.95-.87,2.48,2.48,0,0,1,1,.2,2.71,2.71,0,0,1,.86.6Zm-1.55,1.21a1.49,1.49,0,0,0-1.13.48,1.74,1.74,0,0,0-.45,1.24,1.76,1.76,0,0,0,.46,1.25,1.49,1.49,0,0,0,1.13.49,1.52,1.52,0,0,0,1.15-.48,1.76,1.76,0,0,0,.46-1.26,1.71,1.71,0,0,0-.46-1.24A1.53,1.53,0,0,0,97.41,330.12Z"/><path class="cls-3" d="M83.27,346.86l1.38,1.78H82.86l-.7-.9a4.19,4.19,0,0,1-4.9-.75,4.17,4.17,0,0,1,.88-6.53,4,4,0,0,1,2.07-.56,3.94,3.94,0,0,1,2.9,1.22,4.23,4.23,0,0,1,.17,5.75Zm-.94-1.22a2.75,2.75,0,0,0,.48-1.57,2.65,2.65,0,0,0-.76-1.91,2.46,2.46,0,0,0-1.84-.79,2.5,2.5,0,0,0-1.86.76,2.67,2.67,0,0,0-.75,1.95,2.53,2.53,0,0,0,.94,2.08,2.6,2.6,0,0,0,1.68.6,2.47,2.47,0,0,0,1-.21l-1.42-1.83h1.8Z"/><path class="cls-3" d="M85.57,342.15h1.49V345a3.91,3.91,0,0,0,.11,1.14,1,1,0,0,0,.36.5,1,1,0,0,0,.62.18,1.08,1.08,0,0,0,.62-.18,1,1,0,0,0,.38-.51,3.93,3.93,0,0,0,.09-1.08v-2.87h1.47v2.48a6.08,6.08,0,0,1-.24,2.1,2.29,2.29,0,0,1-.87,1.06,2.67,2.67,0,0,1-1.47.37,2.6,2.6,0,0,1-1.56-.43,2.28,2.28,0,0,1-.84-1.2,7.27,7.27,0,0,1-.17-1.94Z"/><path class="cls-3" d="M96.52,342.15H98V348H96.52v-.62a2.87,2.87,0,0,1-.86.59,2.4,2.4,0,0,1-.94.18,2.61,2.61,0,0,1-2-.88,3.07,3.07,0,0,1-.83-2.19,3.15,3.15,0,0,1,.8-2.23,2.56,2.56,0,0,1,1.95-.87,2.48,2.48,0,0,1,1,.2,2.71,2.71,0,0,1,.86.6ZM95,343.36a1.49,1.49,0,0,0-1.13.48,1.74,1.74,0,0,0-.45,1.24,1.76,1.76,0,0,0,.46,1.25,1.49,1.49,0,0,0,1.13.49,1.52,1.52,0,0,0,1.15-.48,1.76,1.76,0,0,0,.46-1.26,1.71,1.71,0,0,0-.46-1.24A1.53,1.53,0,0,0,95,343.36Z"/><path class="cls-3" d="M99.32,339.89h1.47V348H99.32Z"/><path class="cls-3" d="M102.7,339.74a.9.9,0,0,1,.66.28.93.93,0,0,1,.28.68.92.92,0,0,1-.27.67.89.89,0,0,1-.66.28.9.9,0,0,1-.67-.28,1,1,0,0,1-.28-.69.94.94,0,0,1,.93-.94Zm-.74,2.41h1.47V348H102Z"/><path class="cls-3" d="M104.95,340h1.47v2.16h.87v1.27h-.87V348h-1.47v-4.6h-.75v-1.27h.75Z"/><path class="cls-3" d="M107.43,342.15h1.5l1.52,3.68,1.68-3.68h1.51l-3.67,8h-1.52l1.21-2.58Z"/><path class="cls-4" d="M7.1,232H8.6v7.93H7.1Z"/><path class="cls-4" d="M10.14,234.07h1.47v.6a3.52,3.52,0,0,1,.91-.59,2.19,2.19,0,0,1,.83-.17,2,2,0,0,1,1.48.61,2.09,2.09,0,0,1,.51,1.53v3.88H13.88v-2.57a6.52,6.52,0,0,0-.09-1.39,1,1,0,0,0-.33-.52.92.92,0,0,0-.58-.18,1.08,1.08,0,0,0-.77.3,1.59,1.59,0,0,0-.44.83,6.68,6.68,0,0,0-.06,1.19v2.35H10.14Z"/><path class="cls-4" d="M16.94,231.91h1.47v2.16h.87v1.27h-.87v4.6H16.94v-4.6h-.75v-1.27h.75Z"/><path class="cls-4" d="M25.94,237.43H21.21a1.57,1.57,0,0,0,.55,1,1.72,1.72,0,0,0,1.13.37,2,2,0,0,0,1.42-.58l1.24.58a2.92,2.92,0,0,1-1.11,1,3.46,3.46,0,0,1-1.54.32,3,3,0,0,1-2.25-.87,3,3,0,0,1-.87-2.18,3.07,3.07,0,0,1,.86-2.23,2.91,2.91,0,0,1,2.17-.89,3,3,0,0,1,2.25.89,3.21,3.21,0,0,1,.87,2.34Zm-1.47-1.16a1.48,1.48,0,0,0-.57-.8,1.67,1.67,0,0,0-1-.31,1.76,1.76,0,0,0-1.08.35,1.92,1.92,0,0,0-.54.76Z"/><path class="cls-4" d="M31.46,234.07h1.47v5a3.32,3.32,0,0,1-.6,2.19,3,3,0,0,1-2.42.95,4.24,4.24,0,0,1-1.45-.21,2.62,2.62,0,0,1-1-.63,2.57,2.57,0,0,1-.6-1h1.62a1.35,1.35,0,0,0,.56.38,2.31,2.31,0,0,0,.8.13,2.12,2.12,0,0,0,1-.18,1.1,1.1,0,0,0,.51-.47,2.4,2.4,0,0,0,.15-1,2.44,2.44,0,0,1-.81.56,2.58,2.58,0,0,1-1,.17,2.65,2.65,0,0,1-2-.85,3.3,3.3,0,0,1,0-4.4,2.57,2.57,0,0,1,1.86-.76,2.48,2.48,0,0,1,1,.19,3,3,0,0,1,.9.61Zm-1.52,1.22a1.53,1.53,0,0,0-1.15.47,1.61,1.61,0,0,0-.45,1.17,1.64,1.64,0,0,0,.46,1.2,1.57,1.57,0,0,0,1.16.47,1.51,1.51,0,0,0,1.13-.46,1.65,1.65,0,0,0,.44-1.2,1.63,1.63,0,0,0-.45-1.19A1.54,1.54,0,0,0,29.94,235.3Z"/><path class="cls-4" d="M34.07,234.07h1.26v.74a1.57,1.57,0,0,1,.54-.66,1.31,1.31,0,0,1,.74-.23,1.38,1.38,0,0,1,.6.15l-.46,1.27a1,1,0,0,0-.43-.13.67.67,0,0,0-.57.42,3.85,3.85,0,0,0-.23,1.65v2.66H34.07Z"/><path class="cls-4" d="M42.27,234.07h1.47v5.86H42.27v-.62a2.87,2.87,0,0,1-.86.59,2.4,2.4,0,0,1-.94.18,2.61,2.61,0,0,1-2-.88,3.07,3.07,0,0,1-.83-2.19,3.15,3.15,0,0,1,.8-2.23,2.56,2.56,0,0,1,1.95-.87,2.48,2.48,0,0,1,1,.2,2.71,2.71,0,0,1,.86.6Zm-1.55,1.21a1.49,1.49,0,0,0-1.13.48,1.74,1.74,0,0,0-.45,1.24,1.76,1.76,0,0,0,.46,1.25,1.49,1.49,0,0,0,1.13.49,1.52,1.52,0,0,0,1.15-.48,1.76,1.76,0,0,0,.46-1.26,1.71,1.71,0,0,0-.46-1.24A1.53,1.53,0,0,0,40.73,235.28Z"/><path class="cls-4" d="M45.41,231.91h1.47v2.16h.87v1.27h-.87v4.6H45.41v-4.6h-.75v-1.27h.75Z"/><path class="cls-4" d="M49.11,231.66a.9.9,0,0,1,.66.28.93.93,0,0,1,.28.68.92.92,0,0,1-.27.67.89.89,0,0,1-.66.28.9.9,0,0,1-.67-.28,1,1,0,0,1-.28-.69.94.94,0,0,1,.93-.94Zm-.74,2.41h1.47v5.86H48.38Z"/><path class="cls-4" d="M53.94,233.92a3.1,3.1,0,0,1,1.56.42,3,3,0,0,1,1.14,1.13A3,3,0,0,1,57,237a3.08,3.08,0,0,1-.41,1.55,3,3,0,0,1-1.12,1.13,3.11,3.11,0,0,1-1.57.41,2.93,2.93,0,0,1-2.15-.9,3.11,3.11,0,0,1,.12-4.47A2.94,2.94,0,0,1,53.94,233.92Zm0,1.38a1.52,1.52,0,0,0-1.14.48,1.69,1.69,0,0,0-.46,1.22,1.72,1.72,0,0,0,.45,1.24,1.51,1.51,0,0,0,1.14.47,1.53,1.53,0,0,0,1.15-.48,1.89,1.89,0,0,0,0-2.46A1.52,1.52,0,0,0,54,235.31Z"/><path class="cls-4" d="M58.25,234.07h1.47v.6a3.52,3.52,0,0,1,.91-.59,2.19,2.19,0,0,1,.83-.17,2,2,0,0,1,1.48.61,2.09,2.09,0,0,1,.51,1.53v3.88H62v-2.57A6.52,6.52,0,0,0,61.9,236a1,1,0,0,0-.33-.52.92.92,0,0,0-.58-.18,1.08,1.08,0,0,0-.77.3,1.59,1.59,0,0,0-.44.83,6.68,6.68,0,0,0-.06,1.19v2.35H58.25Z"/><path class="cls-4" d="M72.29,234.07h1.47v5.86H72.29v-.62a2.87,2.87,0,0,1-.86.59,2.4,2.4,0,0,1-.94.18,2.61,2.61,0,0,1-2-.88,3.07,3.07,0,0,1-.83-2.19,3.15,3.15,0,0,1,.8-2.23,2.56,2.56,0,0,1,1.95-.87,2.48,2.48,0,0,1,1,.2,2.71,2.71,0,0,1,.86.6Zm-1.55,1.21a1.49,1.49,0,0,0-1.13.48,1.74,1.74,0,0,0-.45,1.24,1.76,1.76,0,0,0,.46,1.25,1.49,1.49,0,0,0,1.13.49,1.52,1.52,0,0,0,1.15-.48,1.76,1.76,0,0,0,.46-1.26,1.71,1.71,0,0,0-.46-1.24A1.53,1.53,0,0,0,70.74,235.28Z"/><path class="cls-4" d="M75.25,234.07h1.47v.6a3.52,3.52,0,0,1,.91-.59,2.19,2.19,0,0,1,.83-.17,2,2,0,0,1,1.48.61,2.09,2.09,0,0,1,.51,1.53v3.88H79v-2.57A6.52,6.52,0,0,0,78.9,236a1,1,0,0,0-.33-.52.92.92,0,0,0-.58-.18,1.08,1.08,0,0,0-.77.3,1.59,1.59,0,0,0-.44.83,6.68,6.68,0,0,0-.06,1.19v2.35H75.25Z"/><path class="cls-4" d="M86.19,231.81h1.47v8.13H86.19v-.62a2.87,2.87,0,0,1-.86.59,2.4,2.4,0,0,1-.94.18,2.61,2.61,0,0,1-2-.88A3.07,3.07,0,0,1,81.6,237a3.15,3.15,0,0,1,.8-2.23,2.56,2.56,0,0,1,1.95-.87,2.48,2.48,0,0,1,1,.2,2.71,2.71,0,0,1,.86.6Zm-1.55,3.47a1.49,1.49,0,0,0-1.13.48,1.74,1.74,0,0,0-.45,1.24,1.76,1.76,0,0,0,.46,1.25,1.49,1.49,0,0,0,1.13.49,1.52,1.52,0,0,0,1.15-.48,1.76,1.76,0,0,0,.46-1.26,1.71,1.71,0,0,0-.46-1.24A1.53,1.53,0,0,0,84.65,235.28Z"/><path class="cls-4" d="M7.1,245.25H8.6v7.93H7.1Z"/><path class="cls-4" d="M10.14,247.32h1.47v.6a3.52,3.52,0,0,1,.91-.59,2.19,2.19,0,0,1,.83-.17,2,2,0,0,1,1.48.61,2.09,2.09,0,0,1,.51,1.53v3.88H13.88v-2.57a6.52,6.52,0,0,0-.09-1.39,1,1,0,0,0-.33-.52.92.92,0,0,0-.58-.18,1.08,1.08,0,0,0-.77.3,1.59,1.59,0,0,0-.44.83,6.68,6.68,0,0,0-.06,1.19v2.35H10.14Z"/><path class="cls-4" d="M16.94,245.16h1.47v2.16h.87v1.27h-.87v4.6H16.94v-4.6h-.75v-1.27h.75Z"/><path class="cls-4" d="M25.94,250.67H21.21a1.57,1.57,0,0,0,.55,1,1.72,1.72,0,0,0,1.13.37,2,2,0,0,0,1.42-.58l1.24.58a2.92,2.92,0,0,1-1.11,1,3.46,3.46,0,0,1-1.54.32,3,3,0,0,1-2.25-.87,3,3,0,0,1-.87-2.18,3.07,3.07,0,0,1,.86-2.23,2.91,2.91,0,0,1,2.17-.89,3,3,0,0,1,2.25.89,3.21,3.21,0,0,1,.87,2.34Zm-1.47-1.16a1.48,1.48,0,0,0-.57-.8,1.67,1.67,0,0,0-1-.31,1.76,1.76,0,0,0-1.08.35,1.92,1.92,0,0,0-.54.76Z"/><path class="cls-4" d="M26.79,247.32H28v.74a1.57,1.57,0,0,1,.54-.66,1.31,1.31,0,0,1,.74-.23,1.38,1.38,0,0,1,.6.15l-.46,1.27a1,1,0,0,0-.43-.13.67.67,0,0,0-.57.42,3.85,3.85,0,0,0-.23,1.65v2.66H26.79Z"/><path class="cls-4" d="M33.41,247.17a3.1,3.1,0,0,1,1.56.42,3,3,0,0,1,1.14,1.13,3,3,0,0,1,.41,1.54,3.08,3.08,0,0,1-.41,1.55A3,3,0,0,1,35,252.92a3.11,3.11,0,0,1-1.57.41,2.93,2.93,0,0,1-2.15-.9,3.11,3.11,0,0,1,.12-4.47A2.94,2.94,0,0,1,33.41,247.17Zm0,1.38a1.52,1.52,0,0,0-1.14.48,1.69,1.69,0,0,0-.46,1.22,1.72,1.72,0,0,0,.45,1.24,1.51,1.51,0,0,0,1.14.47,1.53,1.53,0,0,0,1.15-.48,1.89,1.89,0,0,0,0-2.46A1.52,1.52,0,0,0,33.44,248.55Z"/><path class="cls-4" d="M39.19,247.32V248a2.77,2.77,0,0,1,.86-.6,2.49,2.49,0,0,1,1-.2,2.56,2.56,0,0,1,2,.87,3.15,3.15,0,0,1,.8,2.23,3.07,3.07,0,0,1-.83,2.19,2.61,2.61,0,0,1-2,.88,2.43,2.43,0,0,1-.94-.18,2.86,2.86,0,0,1-.87-.59v2.76H37.73v-8Zm1.55,1.21a1.54,1.54,0,0,0-1.15.47,1.71,1.71,0,0,0-.46,1.24,1.76,1.76,0,0,0,.46,1.26,1.52,1.52,0,0,0,1.15.48,1.5,1.5,0,0,0,1.13-.49,1.75,1.75,0,0,0,.46-1.25,1.74,1.74,0,0,0-.45-1.24A1.5,1.5,0,0,0,40.73,248.52Z"/><path class="cls-4" d="M50.88,250.67H46.16a1.57,1.57,0,0,0,.55,1,1.72,1.72,0,0,0,1.13.37,2,2,0,0,0,1.42-.58l1.24.58a2.92,2.92,0,0,1-1.11,1,3.46,3.46,0,0,1-1.54.32,3,3,0,0,1-2.25-.87,3,3,0,0,1-.87-2.18,3.07,3.07,0,0,1,.86-2.23,2.91,2.91,0,0,1,2.17-.89,3,3,0,0,1,2.25.89,3.21,3.21,0,0,1,.87,2.34Zm-1.47-1.16a1.48,1.48,0,0,0-.57-.8,1.67,1.67,0,0,0-1-.31,1.76,1.76,0,0,0-1.08.35,1.92,1.92,0,0,0-.54.76Z"/><path class="cls-4" d="M51.73,247.32H53v.74a1.57,1.57,0,0,1,.54-.66,1.31,1.31,0,0,1,.74-.23,1.38,1.38,0,0,1,.6.15l-.46,1.27a1,1,0,0,0-.43-.13.67.67,0,0,0-.57.42,3.85,3.85,0,0,0-.23,1.65v2.66H51.73Z"/><path class="cls-4" d="M59.93,247.32H61.4v5.86H59.93v-.62a2.87,2.87,0,0,1-.86.59,2.4,2.4,0,0,1-.94.18,2.61,2.61,0,0,1-2-.88,3.07,3.07,0,0,1-.83-2.19,3.15,3.15,0,0,1,.8-2.23,2.56,2.56,0,0,1,1.95-.87,2.48,2.48,0,0,1,1,.2,2.71,2.71,0,0,1,.86.6Zm-1.55,1.21a1.49,1.49,0,0,0-1.13.48,1.74,1.74,0,0,0-.45,1.24,1.76,1.76,0,0,0,.46,1.25,1.49,1.49,0,0,0,1.13.49,1.52,1.52,0,0,0,1.15-.48,1.76,1.76,0,0,0,.46-1.26,1.71,1.71,0,0,0-.46-1.24A1.53,1.53,0,0,0,58.38,248.52Z"/><path class="cls-4" d="M64.35,245.05V248a2.77,2.77,0,0,1,.86-.6,2.49,2.49,0,0,1,1-.2,2.56,2.56,0,0,1,2,.87,3.15,3.15,0,0,1,.8,2.23,3.07,3.07,0,0,1-.83,2.19,2.61,2.61,0,0,1-2,.88,2.43,2.43,0,0,1-.94-.18,2.86,2.86,0,0,1-.87-.59v.62H62.89v-8.13Zm1.55,3.47a1.54,1.54,0,0,0-1.15.47,1.71,1.71,0,0,0-.46,1.24,1.76,1.76,0,0,0,.46,1.26,1.52,1.52,0,0,0,1.15.48,1.5,1.5,0,0,0,1.13-.49,1.75,1.75,0,0,0,.46-1.25A1.74,1.74,0,0,0,67,249,1.5,1.5,0,0,0,65.9,248.52Z"/><path class="cls-4" d="M70.75,244.9a.9.9,0,0,1,.66.28.93.93,0,0,1,.28.68.92.92,0,0,1-.27.67.89.89,0,0,1-.66.28.9.9,0,0,1-.67-.28,1,1,0,0,1-.28-.69.94.94,0,0,1,.93-.94ZM70,247.32h1.47v5.86H70Z"/><path class="cls-4" d="M72.66,245.05h1.47v8.13H72.66Z"/><path class="cls-4" d="M76,244.9a.9.9,0,0,1,.66.28.93.93,0,0,1,.28.68.92.92,0,0,1-.27.67.89.89,0,0,1-.66.28.9.9,0,0,1-.67-.28,1,1,0,0,1-.28-.69.94.94,0,0,1,.93-.94Zm-.74,2.41h1.47v5.86H75.3Z"/><path class="cls-4" d="M78.29,245.16h1.47v2.16h.87v1.27h-.87v4.6H78.29v-4.6h-.75v-1.27h.75Z"/><path class="cls-4" d="M80.77,247.32h1.5L83.8,251l1.68-3.68H87l-3.67,8H81.79L83,252.74Z"/><path class="cls-5" d="M155.66,129.28,143.31,119c-25.87,25-27.05,64.42-27.05,64.42L132.44,185A102.3,102.3,0,0,1,155.66,129.28Z"/><path class="cls-4" d="M132.49,205.43l-16.25.73H79.11V208H115a119.51,119.51,0,0,0,26.72,63.81l1-1,12.73-10.5A102.31,102.31,0,0,1,132.49,205.43Z"/><path class="cls-3" d="M169.27,274.15l-10.55,12.77C191.35,314.67,223.14,314,223.14,314l1.63-16.76A102.3,102.3,0,0,1,169.27,274.15Z"/><path class="cls-6" d="M243.64,297.31l1.4,16.07s40.47-1.72,64.64-26.46l-10-12.31A102.29,102.29,0,0,1,243.64,297.31Z"/><path class="cls-5" d="M337,205.39a102.31,102.31,0,0,1-23.31,55.34l12.94,10.78s26.29-27.41,27.05-64.42Z"/><path class="cls-4" d="M337.1,185.85l16.57-1.47s-.22-35.95-26.46-64.64l-12.74,10.36A102.29,102.29,0,0,1,337.1,185.85Z"/><path class="cls-3" d="M336.18,75.78v.31l0,0L310.8,101.39a119.51,119.51,0,0,0-64-26.23v1.41l-1.64,16.11a102.31,102.31,0,0,1,55.58,23.47l10.48-12.52,26-26h79.42V75.78Z"/><path class="cls-6" d="M224.07,76.55l-1,0h.08v0h.93V39.42H222.2V75.26A119.51,119.51,0,0,0,158.39,102l1,1,10.17,12.41a102.29,102.29,0,0,1,55.91-22.86Z"/><path class="cls-7" d="M46.59,101.12a18.38,18.38,0,0,1-14.11-4.46,18.38,18.38,0,0,1-14.11,4.46s-2.83,24,14.11,29.34C49.42,125.1,46.59,101.12,46.59,101.12Z"/><path class="cls-5" d="M43.67,104.43a21.83,21.83,0,0,1-11.19-3.55,21.83,21.83,0,0,1-11.19,3.55s-.81,18.3,11.19,22.48C44.48,122.73,43.67,104.43,43.67,104.43Z"/><path class="cls-8" d="M37,118.48a.67.67,0,0,1-.67.68H28.64a.67.67,0,0,1-.67-.68V111a.67.67,0,0,1,.67-.68h7.68A.67.67,0,0,1,37,111Z"/><path class="cls-8" d="M35.38,112.2h-5.8v-3.54a2.9,2.9,0,1,1,5.8,0Zm-4.53-1.3h3.25v-2.24a1.63,1.63,0,1,0-3.25,0Z"/><ellipse class="cls-5" cx="32.48" cy="113.81" rx="1.25" ry="1.28"/><polygon class="cls-5" points="32.96 114.22 32.48 114.22 32 114.22 31.41 117.09 32.48 117.09 33.55 117.09 32.96 114.22"/><path class="cls-4" d="M423.31,192.23H411.93c-.47,0-1,.14-1.39-.07a2.58,2.58,0,0,1-1.2-1.37c-.06-.29.72-1,1.2-1.11a19.91,19.91,0,0,1,3.25-.05l.4-2c2.83,0,5.64,0,8.45.05.4,0,.77.71,1.08,1l.1-1.8h-10.6c-2.54,0-5.07,0-7.61,0-1.65,0-2.33-.73-2.33-2.36q0-10.79,0-21.58c0-1.64.76-2.34,2.38-2.33q14.77,0,29.55,0c1.48,0,2.42.53,2.42,2.11,0,7.54,0,15.08-.25,22.71.06.59-.14,2.83-.07,4.5.13,2.8-2,4.68-3.57,6.65a1.11,1.11,0,0,1-.75.37c-2.3,0-4.6.05-6.9,0-.34,0-.79-.48-1-.84C424.5,195,424,193.71,423.31,192.23Zm-17.37-28.65c0,3-.3,6,.16,8.83.17,1.07,2,2.34,3.27,2.64s1.69-1.18,1.67-2.47a1.14,1.14,0,0,1,.71-.85,1.77,1.77,0,0,1,1.22.42c1.51,1.25,2.92,2.61,4.47,3.79a1.76,1.76,0,0,0,1.69-.08c1.63-2.48,3.12-5.06,4.68-7.6.22-.36.6-.9.89-.89a2.13,2.13,0,0,1,1.22.72,18.73,18.73,0,0,0,1.39,1.68c1.62,1.28,3.26,2.52,5,3.64a12,12,0,0,0,2.64.94V163.58ZM406,182h17.4l.23,2.19a53.72,53.72,0,0,0,.17-5.49c0-1.12.23-2.09,1.58-2.07s1.57,1,1.57,2.11c0,1.62,0,3.24,0,5,2.44-2.12,5.24-1.71,8-1.83v-5.4a4.32,4.32,0,0,1-1.42-.49c-1.87-1.56-3.62-3.27-5.52-4.79-3.51-2.8-3.42-2.34-5.5,1-1.1,1.75-1.94,3.66-2.94,5.48a1.43,1.43,0,0,1-.88.7,1.54,1.54,0,0,1-1-.45c-1.09-1-2.06-2.15-3.23-3-2.22-1.71-3.05-1.32-3.75,1.45a1.63,1.63,0,0,1-1,1c-.29.08-.8-.32-1.08-.62-.77-.85-1.48-1.76-2.21-2.65l-.4.26Z"/><path class="cls-3" d="M46.83,334.42l-.73,1.26c-.21,0-.35,0-.43,0q-1.41-.74-2.8-1.49c-2.54-1.37-4.62-1.06-6.58,1L32.63,339c-1,1.08-2.15,2-1.92,3.85.16,1.23-1,2-2.25,2a2.16,2.16,0,0,1-2.33-2.15c-.26-2.67-1.37-4-3.84-4.73a2.21,2.21,0,0,1-1.67-2.72,2.33,2.33,0,0,1,2.77-1.86,2.25,2.25,0,0,1,1.85,2.74c-.74,2.08.95,3,2,3.8s2.48.15,3.48-1c1.41-1.66,3-3.17,4.49-4.75.84-.88,1.67-1.62,1.56-3.13,0-.63,1.07-1.73,1.83-1.93s2.16.47,2.3,1c.48,1.88,2,2.27,3.37,3C45.06,333.5,45.84,333.9,46.83,334.42Z"/><path class="cls-3" d="M60.57,347l2.15-2.63c.9.76,3.87,2.69,4.51,3.6a2.53,2.53,0,0,1,0,2.3c-.23.38-1.54.47-2.11.18A42.58,42.58,0,0,1,60.57,347Z"/><path class="cls-3" d="M54.59,331.63a8.06,8.06,0,1,0,8,8A8.09,8.09,0,0,0,54.59,331.63Zm-.07,13.13a5.06,5.06,0,0,1,0-10.13,5.06,5.06,0,1,1,0,10.13Z"/><path class="cls-3" d="M61.56,322.68h0l1.95-1.95a0,0,0,0,0,0-.06,2.32,2.32,0,0,0-3.25,2,0,0,0,0,0,0,0Z"/><path class="cls-3" d="M64.73,321.85a2.54,2.54,0,0,0-.45-.68,0,0,0,0,0-.06,0l-1.44,1.44a0,0,0,0,0,0,.07h2.06a0,0,0,0,0,0,0A2.3,2.3,0,0,0,64.73,321.85Z"/><path class="cls-3" d="M60.44,323.49a0,0,0,0,0,0,.05,2.33,2.33,0,0,0,.19.41l-.06,0c-2.2,2.1-4.48,4.11-6.74,6.15l.37.72a17.09,17.09,0,0,0,3-1.56c1.56-1.24,2.93-2.72,4.47-4a2.2,2.2,0,0,1,.4-.26,2.31,2.31,0,0,0,1.43-.12,2.35,2.35,0,0,0,1.27-1.37,0,0,0,0,0,0-.05Z"/><path class="cls-4" d="M60.87,187.29v-8.6c.63,0,1.21,0,1.79,0a1.48,1.48,0,0,1,1.61,1.57c.2,2.82.21,2.84,3,3.73a1.23,1.23,0,0,0,1-.35c2.59-2.86,3-1.77,4.81.08.21.21.43.41.63.63.93,1,.93,1.66,0,2.63l-1.5,1.55a.45.45,0,0,0-.06.13l1.35,3.47c.83,0,1.68,0,2.52,0a1.38,1.38,0,0,1,1.6,1.53c0,1,0,2,0,3.06s-.49,1.7-1.46,1.55c-2.18-.34-3.4.46-3.74,2.64a4.88,4.88,0,0,1-.44.95c.59.51,1.25,1,1.86,1.62a1.41,1.41,0,0,1,0,2.23c-.67.7-1.36,1.38-2,2.07s-1.68.94-2.3,0c-1.31-1.94-2.84-1.73-4.51-.68a2.83,2.83,0,0,0-.78,1.05c-.09.16,0,.42,0,.63,0,2.81-.47,3.19-3.41,2.76V203c2.62-.24,5-.89,6.6-3.19a7.9,7.9,0,0,0,1.46-4.91C68.78,191.65,66.73,187.73,60.87,187.29Z"/><path class="cls-4" d="M58.84,209.26v2.29c-2.34,0-4.62,0-6.9,0a.93.93,0,0,1-.7-.53A23.91,23.91,0,0,0,46,200.82c-3.69-4.4-3.85-13.45,2.7-18.54a15,15,0,0,1,10.08-3.41V181c-1.11.16-2.25.23-3.34.49-4.74,1.15-9.91,5.15-9.66,12.07A10.15,10.15,0,0,0,48.22,200a24.41,24.41,0,0,1,4.64,8.39c.23.68.51.95,1.24.92C55.62,209.22,57.15,209.26,58.84,209.26Z"/><path class="cls-4" d="M59.68,213.35c2.08,0,4.16,0,6.24,0,.9,0,1.3.27,1.31,1.23s-.44,1.23-1.32,1.23c-4.2,0-8.4,0-12.6,0-1,0-1.21-.42-1.21-1.31s.35-1.18,1.22-1.17C55.44,213.38,57.56,213.35,59.68,213.35Z"/><path class="cls-4" d="M59.69,220c-2.16,0-4.32,0-6.48,0-1,0-1.09-.46-1.11-1.26s.26-1.14,1.09-1.14q6.48,0,13,0c.88,0,1.07.42,1.06,1.18s-.14,1.22-1,1.2C64,219.93,61.85,220,59.69,220Z"/><path class="cls-4" d="M53.51,221.91H65.69C63.8,225.1,55.85,225.13,53.51,221.91Z"/><path class="cls-4" d="M57.9,225.94h3.21C60.31,227.35,59.17,227.4,57.9,225.94Z"/><circle class="cls-5" cx="414.93" cy="322.42" r="3.34"/><path class="cls-5" d="M441.11,314.58a3.34,3.34,0,1,0-3.33-3.53l-6.49.77a3.33,3.33,0,0,0-6.12,2.61l-5.59,3.19a6.69,6.69,0,1,0-1.91,10.88l3.3,4.36a3.32,3.32,0,0,0-1.1,2.46s0,0,0,0l-4.63,1a3.34,3.34,0,1,0,.25,1.26s0-.09,0-.13l4.61-1a3.31,3.31,0,0,0,5.24,1.4l3.76,2.71a3.31,3.31,0,1,0,.67-.94L426.1,337a3.16,3.16,0,0,0,.33-2.58L433.8,332a6.69,6.69,0,1,0-.13-12.46l-2.94-4a3.33,3.33,0,0,0,.92-2.3,3.19,3.19,0,0,0,0-.36l6.31-.75A3.33,3.33,0,0,0,441.11,314.58Zm-31.71,7.85a5.53,5.53,0,1,1,5.53,5.53A5.54,5.54,0,0,1,409.4,322.42Zm32.29,3.34a5.52,5.52,0,0,1-7.83,5h0a5.53,5.53,0,1,1,7.84-5Zm-12.22,0a6.68,6.68,0,0,0,2.9,5.51l-6.43,2.11a3.33,3.33,0,0,0-4-1.14l-3.25-4.3a6.66,6.66,0,0,0,1.65-9.42l5.4-3.09a3.28,3.28,0,0,0,4.05.85l2.83,3.81A6.68,6.68,0,0,0,429.47,325.77Z"/><path class="cls-3" d="M428.74,95.78h3.73l1,1h-4.74Zm0-1.68h4.13l.94-1h-5.07Zm13.52-.72.3-.25H442Zm-13.52-1.94h6.69l.94-1h-7.63Zm0-2.66h16.73v-1H428.74Zm16.73-3.63H428.74v1h16.73Zm2.24,14.79v9.93H426.49V82.75h21.21v6.08l1.9-1.59v-8.8h-25v32.76h25V98.35Zm-2.24,3.82h-2.34l-1.17,1h3.5Zm0-2-.32.27h.32Zm-6.23-11.34,1,1h4.33l.88-.74v-.24Zm-10.5,16.93h16.73v-1H428.74Zm0-8h7.5l-1-1h-6.49Zm0,2.66H439l-1-1h-9.25Zm0,2.66h13l-1-1h-12ZM454.87,91.1l-2.65-3.18-10.06,8.4-4.35-4.19-2.87,3,7,6.77Z"/><path class="cls-6" d="M237.17,35.12h16.25a8.13,8.13,0,0,0-5.3-7.62,5.39,5.39,0,0,0-1.89-9.89V10.77H241.5a7,7,0,0,0-14,0h-4.74v6.84a5.39,5.39,0,0,0-1.89,9.89,8.13,8.13,0,0,0-5.3,7.62h16.26a8.13,8.13,0,0,0-5.3-7.62,5.39,5.39,0,0,0-1.89-9.89V12.66h3a7,7,0,0,0,13.78,0h3v4.95a5.39,5.39,0,0,0-1.89,9.89A8.13,8.13,0,0,0,237.17,35.12Zm-2.68-18.73a5.14,5.14,0,1,1,5.14-5.14A5.15,5.15,0,0,1,234.49,16.39Z"/><path class="cls-6" d="M259,369.55l-3.47-.72a2.85,2.85,0,0,0-3,1.26,12.88,12.88,0,0,0-1.93-.8v-2.06a2.85,2.85,0,0,0-2.84-2.84h-3.55a2.85,2.85,0,0,0-2.84,2.84v2.08a12.43,12.43,0,0,0-1.92.79,2.85,2.85,0,0,0-3-1.27l-3.48.72a2.86,2.86,0,0,0-2.2,3.37l.88,4.18a2.85,2.85,0,0,0,3.36,2.2l1.1-.23a8.22,8.22,0,0,0,2.29,2.2,13.93,13.93,0,0,0,7.57,2.06c4.36,0,8.12-1.75,9.85-4.27l1.12.23a2.84,2.84,0,0,0,3.36-2.2l.88-4.18a2.86,2.86,0,0,0-2.2-3.37Zm-13,12.36a12.47,12.47,0,0,1-6.79-1.83,7.44,7.44,0,0,1-1.54-1.33l.84-.18a2.84,2.84,0,0,0,2.2-3.36l-.78-3.75a10.76,10.76,0,0,1,1.45-.65v.69a2.85,2.85,0,0,0,2.84,2.84h3.55a2.85,2.85,0,0,0,2.84-2.84v-.72a11.88,11.88,0,0,1,1.46.64l-.8,3.8a2.86,2.86,0,0,0,2.2,3.37l.86.17c-1.59,1.88-4.73,3.17-8.34,3.17Zm0,0"/><g class="cls-9"><path class="cls-6" d="M262,364.2a3.73,3.73,0,1,1-3.73-3.73A3.73,3.73,0,0,1,262,364.2Zm0,0"/><path class="cls-6" d="M234.53,367.84a3.73,3.73,0,1,0-4.42-2.88,3.73,3.73,0,0,0,4.42,2.88Zm0,0"/></g><path class="cls-6" d="M247.85,355.64a.07.07,0,0,0,0-.11,3.86,3.86,0,0,0-5.4,3.3.07.07,0,0,0,.07.07h2.07l0,0Z"/><path class="cls-6" d="M246.6,358.79a.07.07,0,0,0,0,.11h3.42a.07.07,0,0,0,.07-.07,3.82,3.82,0,0,0-.3-1.31,4.22,4.22,0,0,0-.74-1.13.07.07,0,0,0-.09,0Z"/><path class="cls-6" d="M249.84,360.25h-7.15a.07.07,0,0,0-.06.09,3.87,3.87,0,0,0,5.15,2.27,3.92,3.92,0,0,0,2.12-2.27.07.07,0,0,0-.06-.09"/><path class="cls-6" d="M235.84,8.09a.06.06,0,0,0,0-.09,3.33,3.33,0,0,0-4.67,2.85.06.06,0,0,0,.06.06H233l0,0Z"/><path class="cls-6" d="M234.77,10.81a.06.06,0,0,0,0,.1h3a.06.06,0,0,0,.06-.06,3.3,3.3,0,0,0-.26-1.13,3.65,3.65,0,0,0-.64-1,.06.06,0,0,0-.08,0Z"/><path class="cls-6" d="M237.56,12.07h-6.17a.06.06,0,0,0-.05.08,3.34,3.34,0,0,0,4.45,2,3.38,3.38,0,0,0,1.83-2,.06.06,0,0,0-.05-.08"/><path class="cls-5" d="M437.75,322.35a.07.07,0,0,0,0-.11,3.87,3.87,0,0,0-5.43,3.31.07.07,0,0,0,.07.07h2.08l0,0Z"/><path class="cls-5" d="M436.5,325.51a.07.07,0,0,0,0,.12H440a.07.07,0,0,0,.07-.07,3.84,3.84,0,0,0-.3-1.31,4.24,4.24,0,0,0-.75-1.13.07.07,0,0,0-.09,0Z"/><path class="cls-5" d="M439.76,327h-7.18a.07.07,0,0,0-.06.09,3.89,3.89,0,0,0,5.18,2.28,3.94,3.94,0,0,0,2.13-2.28.07.07,0,0,0-.06-.09"/><path class="cls-4" d="M63.13,189.06a.12.12,0,0,0,0-.19,7,7,0,0,0-2.23-.55v3Z"/><path class="cls-4" d="M66.68,192.43a7.54,7.54,0,0,0-1.33-2,.12.12,0,0,0-.17,0l-4.28,4.27a.12.12,0,0,0,.08.21H67.1a.12.12,0,0,0,.12-.12A6.82,6.82,0,0,0,66.68,192.43Z"/><path class="cls-4" d="M66.69,197.29H60.86V202A6.9,6.9,0,0,0,63,201.5a7,7,0,0,0,3.79-4.06A.12.12,0,0,0,66.69,197.29Z"/></svg>