<svg id="Capa_1" data-name="Capa 1" xmlns="http://www.w3.org/2000/svg" xmlns:xlink="http://www.w3.org/1999/xlink" viewBox="0 0 465 418.37"><defs><style>.cls-1,.cls-7{fill:none;}.cls-2{fill:#3c3c3b;}.cls-3{fill:#504f61;}.cls-4{fill:#687d93;}.cls-5{fill:#6495b1;}.cls-6{fill:#1e3863;}.cls-7{stroke:#6495b1;stroke-miterlimit:10;}.cls-8{fill:#fff;}.cls-9{clip-path:url(#clip-path);}</style><clipPath id="clip-path"><rect class="cls-1" x="228.04" y="355.94" width="32.49" height="29.13"/></clipPath></defs><title>dot8_img</title><path class="cls-2" d="M170.59,180.08h7q6.74,0,10,1.67a13,13,0,0,1,5.39,5.43,19,19,0,0,1,.93,15.34,13.62,13.62,0,0,1-3.27,5,11.56,11.56,0,0,1-4.52,2.73,32.21,32.21,0,0,1-8.44.76h-7.07Zm5.84,5.67v19.49h2.73a13.67,13.67,0,0,0,5.85-.93,7,7,0,0,0,3-3.11,11.41,11.41,0,0,0,1.16-5.38q0-4.92-2.75-7.63-2.48-2.44-8-2.44Z"/><path class="cls-2" d="M215.28,179.3A15.34,15.34,0,0,1,226.56,184a15.8,15.8,0,0,1,4.72,11.57,15.62,15.62,0,0,1-4.66,11.45,16.13,16.13,0,0,1-22.86-.13,16.24,16.24,0,0,1,11.52-27.64Zm-.06,5.76a9.7,9.7,0,0,0-7.21,3,10.39,10.39,0,0,0-2.92,7.58,9.88,9.88,0,0,0,3.68,8.11,10.09,10.09,0,0,0,6.56,2.33,9.58,9.58,0,0,0,7.13-3,10.9,10.9,0,0,0,0-14.92A9.67,9.67,0,0,0,215.22,185.06Z"/><path class="cls-2" d="M233.77,180.08h17.08v5.8h-5.63V211h-6v-25.1h-5.48Z"/><path class="cls-2" d="M271.81,192.95l-3.22,1.83c-.32-.33-.65-.65-1-1a10.47,10.47,0,0,1-2.69-4.88c-.73-3.93,2.07-8.68,7.95-9.32a10.45,10.45,0,0,1,8.44,2.39,7.32,7.32,0,0,1,2.67,6.89,8.17,8.17,0,0,1-3.89,5.56c-2.1,1.39-4.34,2.62-6.53,3.91a14.46,14.46,0,0,0-3.67,2.7,4.1,4.1,0,0,0-.58,5.22,5.68,5.68,0,0,0,5.41,2.68c3.1-.11,5.07-1.77,5.44-4.38a5,5,0,0,0-1.25-3.71c-.52-.71-1.16-1.36-1.78-2.09l3.19-1.81c.32.34.65.67,1,1a10.53,10.53,0,0,1,2.7,5c.68,3.86-2.15,8.56-8,9.17-4,.43-7.26-.71-9.58-3.57a7.17,7.17,0,0,1,.51-9.68,19.94,19.94,0,0,1,4.42-3.25c2-1.18,4.09-2.31,6-3.57a5.33,5.33,0,0,0,2.79-4c.25-3.39-3.47-5.94-7.4-5.1a5,5,0,0,0-4.09,4.12c-.28,1.74.65,3.12,1.73,4.47C270.86,192,271.33,192.43,271.81,192.95Z"/><path class="cls-3" d="M157.38,288l-.66-.66-26,26H51.31v1.86h80.43v-.31l0,0,25.34-25.34a119.51,119.51,0,0,0,64,26.23v-1.41a118.75,118.75,0,0,1-63.71-26.45Z"/><path class="cls-4" d="M388.81,184.76v-1.86H353a119.51,119.51,0,0,0-26.72-63.81l-1,1a118.75,118.75,0,0,1,26.45,63.71h0v.93Z"/><path class="cls-5" d="M139.08,119.81a119.51,119.51,0,0,0-26.23,64h1.41a118.75,118.75,0,0,1,26.45-63.71l-.05-.05.66-.66L115.06,93.15l-.34.34v-.62H34.29v1.86H114Z"/><path class="cls-5" d="M351.91,296.56l-25.07-25.07a119.51,119.51,0,0,0,26.23-64h-1.41a118.75,118.75,0,0,1-26.45,63.71l.05.05-.66.66,26.25,26.25,0,0v.31h80.43v-1.86Z"/><path class="cls-6" d="M244.9,315.05a119.51,119.51,0,0,0,63.81-26.72l-1-1A118.75,118.75,0,0,1,244,313.74v0H243v37.13h1.86Z"/><path class="cls-6" d="M125,14.09h4.33v1.48h-2.83V17h2.83v1.45h-2.83v2.08h2.83V22H125Z"/><path class="cls-6" d="M134.2,17l-.91.91a1.54,1.54,0,0,0-1-.55.64.64,0,0,0-.39.1.31.31,0,0,0-.05.48,1.64,1.64,0,0,0,.44.27l.54.27a3.18,3.18,0,0,1,1.17.86,1.79,1.79,0,0,1-.26,2.33,2.2,2.2,0,0,1-1.54.52,2.44,2.44,0,0,1-2-1l.91-1a2.1,2.1,0,0,0,.61.49,1.35,1.35,0,0,0,.62.19.73.73,0,0,0,.47-.14.4.4,0,0,0,.18-.32c0-.23-.21-.45-.64-.66l-.5-.25q-1.42-.72-1.42-1.79a1.56,1.56,0,0,1,.54-1.19,2,2,0,0,1,1.37-.49,2.38,2.38,0,0,1,1.93,1Z"/><path class="cls-6" d="M135.64,14h1.47v2.16H138v1.27h-.87V22h-1.47v-4.6h-.75V16.15h.75Z"/><path class="cls-6" d="M138.43,16.15h1.26v.74a1.57,1.57,0,0,1,.54-.66A1.31,1.31,0,0,1,141,16a1.38,1.38,0,0,1,.6.15l-.46,1.27a1,1,0,0,0-.43-.13.67.67,0,0,0-.57.42,3.85,3.85,0,0,0-.23,1.65V22h-1.46Z"/><path class="cls-6" d="M142.29,16.15h1.49V19a3.91,3.91,0,0,0,.11,1.14,1,1,0,0,0,.36.5,1,1,0,0,0,.62.18,1.08,1.08,0,0,0,.62-.18,1,1,0,0,0,.38-.51A3.93,3.93,0,0,0,146,19V16.15h1.47v2.48a6.08,6.08,0,0,1-.24,2.1,2.29,2.29,0,0,1-.87,1.06,2.67,2.67,0,0,1-1.47.37,2.6,2.6,0,0,1-1.56-.43,2.28,2.28,0,0,1-.84-1.2,7.27,7.27,0,0,1-.17-1.94Z"/><path class="cls-6" d="M154.66,17.34l-1.22.67a2.08,2.08,0,0,0-.68-.5,2,2,0,0,0-.79-.14,1.84,1.84,0,0,0-1.34.49,1.68,1.68,0,0,0-.51,1.26,1.62,1.62,0,0,0,.49,1.22,1.78,1.78,0,0,0,1.29.47,1.87,1.87,0,0,0,1.54-.67l1.16.79a3.57,3.57,0,0,1-5.08.31,3,3,0,0,1,.74-4.84A3.55,3.55,0,0,1,152,16a3.45,3.45,0,0,1,1.57.35A3,3,0,0,1,154.66,17.34Z"/><path class="cls-6" d="M156.16,14h1.47v2.16h.87v1.27h-.87V22h-1.47v-4.6h-.75V16.15h.75Z"/><path class="cls-6" d="M159.29,16.15h1.49V19a3.91,3.91,0,0,0,.11,1.14,1,1,0,0,0,.36.5,1,1,0,0,0,.62.18,1.08,1.08,0,0,0,.62-.18,1,1,0,0,0,.38-.51A3.93,3.93,0,0,0,163,19V16.15h1.47v2.48a6.08,6.08,0,0,1-.24,2.1,2.29,2.29,0,0,1-.87,1.06,2.67,2.67,0,0,1-1.47.37,2.6,2.6,0,0,1-1.56-.43,2.28,2.28,0,0,1-.84-1.2,7.27,7.27,0,0,1-.17-1.94Z"/><path class="cls-6" d="M165.57,16.15h1.26v.74a1.57,1.57,0,0,1,.54-.66,1.31,1.31,0,0,1,.74-.23,1.38,1.38,0,0,1,.6.15l-.46,1.27a1,1,0,0,0-.43-.13.67.67,0,0,0-.57.42,3.85,3.85,0,0,0-.23,1.65V22h-1.46Z"/><path class="cls-6" d="M173.77,16.15h1.47V22h-1.47V21.4a2.87,2.87,0,0,1-.86.59,2.4,2.4,0,0,1-.94.18,2.61,2.61,0,0,1-2-.88,3.07,3.07,0,0,1-.83-2.19,3.15,3.15,0,0,1,.8-2.23,2.56,2.56,0,0,1,1.95-.87,2.48,2.48,0,0,1,1,.2,2.71,2.71,0,0,1,.86.6Zm-1.55,1.21a1.49,1.49,0,0,0-1.13.48,1.74,1.74,0,0,0-.45,1.24,1.76,1.76,0,0,0,.46,1.25,1.49,1.49,0,0,0,1.13.49,1.52,1.52,0,0,0,1.15-.48,1.76,1.76,0,0,0,.46-1.26,1.71,1.71,0,0,0-.46-1.24A1.53,1.53,0,0,0,172.23,17.36Z"/><path class="cls-6" d="M127.62,29.25a3.1,3.1,0,0,1,1.56.42,3,3,0,0,1,1.14,1.13,3,3,0,0,1,.41,1.54,3.08,3.08,0,0,1-.41,1.55A3,3,0,0,1,129.2,35a3.11,3.11,0,0,1-1.57.41,2.93,2.93,0,0,1-2.15-.9,3.11,3.11,0,0,1,.12-4.47A2.94,2.94,0,0,1,127.62,29.25Zm0,1.38a1.52,1.52,0,0,0-1.14.48,1.69,1.69,0,0,0-.46,1.22,1.72,1.72,0,0,0,.45,1.24,1.51,1.51,0,0,0,1.14.47,1.53,1.53,0,0,0,1.15-.48,1.89,1.89,0,0,0,0-2.46A1.52,1.52,0,0,0,127.65,30.63Z"/><path class="cls-6" d="M131.59,29.4h1.26v.74a1.57,1.57,0,0,1,.54-.66,1.31,1.31,0,0,1,.74-.23,1.38,1.38,0,0,1,.6.15l-.46,1.27a1,1,0,0,0-.43-.13.67.67,0,0,0-.57.42A3.85,3.85,0,0,0,133,32.6v2.66h-1.46Z"/><path class="cls-6" d="M139.79,29.4h1.47v5a3.32,3.32,0,0,1-.6,2.19,3,3,0,0,1-2.42.95,4.24,4.24,0,0,1-1.45-.21,2.62,2.62,0,0,1-1-.63,2.57,2.57,0,0,1-.6-1h1.62a1.35,1.35,0,0,0,.56.38,2.31,2.31,0,0,0,.8.13,2.12,2.12,0,0,0,1-.18,1.1,1.1,0,0,0,.51-.47,2.4,2.4,0,0,0,.15-1,2.44,2.44,0,0,1-.81.56,2.58,2.58,0,0,1-1,.17,2.65,2.65,0,0,1-2-.85,3.3,3.3,0,0,1,0-4.4,2.57,2.57,0,0,1,1.86-.76,2.48,2.48,0,0,1,1,.19,3,3,0,0,1,.9.61Zm-1.52,1.22a1.53,1.53,0,0,0-1.15.47,1.61,1.61,0,0,0-.45,1.17,1.64,1.64,0,0,0,.46,1.2,1.57,1.57,0,0,0,1.16.47,1.51,1.51,0,0,0,1.13-.46,1.65,1.65,0,0,0,.44-1.2,1.63,1.63,0,0,0-.45-1.19A1.54,1.54,0,0,0,138.27,30.62Z"/><path class="cls-6" d="M147.07,29.4h1.47v5.86h-1.47v-.62a2.87,2.87,0,0,1-.86.59,2.4,2.4,0,0,1-.94.18,2.61,2.61,0,0,1-2-.88,3.07,3.07,0,0,1-.83-2.19,3.15,3.15,0,0,1,.8-2.23,2.56,2.56,0,0,1,1.95-.87,2.48,2.48,0,0,1,1,.2,2.71,2.71,0,0,1,.86.6Zm-1.55,1.21a1.49,1.49,0,0,0-1.13.48,1.74,1.74,0,0,0-.45,1.24,1.76,1.76,0,0,0,.46,1.25,1.49,1.49,0,0,0,1.13.49,1.52,1.52,0,0,0,1.15-.48,1.76,1.76,0,0,0,.46-1.26,1.71,1.71,0,0,0-.46-1.24A1.53,1.53,0,0,0,145.53,30.6Z"/><path class="cls-6" d="M150,29.4h1.47V30a3.52,3.52,0,0,1,.91-.59,2.19,2.19,0,0,1,.83-.17,2,2,0,0,1,1.48.61,2.09,2.09,0,0,1,.51,1.53v3.87h-1.45V32.69a6.52,6.52,0,0,0-.09-1.39,1,1,0,0,0-.33-.52.92.92,0,0,0-.58-.18,1.08,1.08,0,0,0-.77.3,1.59,1.59,0,0,0-.44.83,6.68,6.68,0,0,0-.06,1.19v2.35H150Z"/><path class="cls-6" d="M157.23,27a.9.9,0,0,1,.66.28.93.93,0,0,1,.28.68.92.92,0,0,1-.27.67.89.89,0,0,1-.66.28.9.9,0,0,1-.67-.28,1,1,0,0,1-.28-.69.94.94,0,0,1,.93-.94Zm-.74,2.41H158v5.86h-1.47Z"/><path class="cls-6" d="M159.05,29.4h4.49L160.91,34h2.48v1.25h-4.74l2.65-4.62h-2.24Z"/><path class="cls-6" d="M168.7,29.4h1.47v5.86H168.7v-.62a2.87,2.87,0,0,1-.86.59,2.4,2.4,0,0,1-.94.18,2.61,2.61,0,0,1-2-.88,3.07,3.07,0,0,1-.83-2.19,3.15,3.15,0,0,1,.8-2.23,2.56,2.56,0,0,1,1.95-.87,2.48,2.48,0,0,1,1,.2,2.71,2.71,0,0,1,.86.6Zm-1.55,1.21a1.49,1.49,0,0,0-1.13.48,1.74,1.74,0,0,0-.45,1.24,1.76,1.76,0,0,0,.46,1.25,1.49,1.49,0,0,0,1.13.49,1.52,1.52,0,0,0,1.15-.48,1.76,1.76,0,0,0,.46-1.26,1.71,1.71,0,0,0-.46-1.24A1.53,1.53,0,0,0,167.16,30.6Z"/><path class="cls-6" d="M177.4,30.58l-1.22.67a2.08,2.08,0,0,0-.68-.5,2,2,0,0,0-.79-.14,1.84,1.84,0,0,0-1.34.49,1.68,1.68,0,0,0-.51,1.26,1.62,1.62,0,0,0,.49,1.22,1.78,1.78,0,0,0,1.29.47,1.87,1.87,0,0,0,1.54-.67l1.16.79a3.57,3.57,0,0,1-5.08.31,3,3,0,0,1,.74-4.84,3.55,3.55,0,0,1,1.71-.41,3.45,3.45,0,0,1,1.57.35A3,3,0,0,1,177.4,30.58Z"/><path class="cls-6" d="M179.3,27a.9.9,0,0,1,.66.28.93.93,0,0,1,.28.68.92.92,0,0,1-.27.67.89.89,0,0,1-.66.28.9.9,0,0,1-.67-.28,1,1,0,0,1-.28-.69.94.94,0,0,1,.93-.94Zm-.74,2.41H180v5.86h-1.47Z"/><path class="cls-6" d="M184.13,29.25a3.1,3.1,0,0,1,1.56.42,3,3,0,0,1,1.14,1.13,3,3,0,0,1,.41,1.54,3.08,3.08,0,0,1-.41,1.55A3,3,0,0,1,185.7,35a3.11,3.11,0,0,1-1.57.41,2.93,2.93,0,0,1-2.15-.9,3.11,3.11,0,0,1,.12-4.47A2.94,2.94,0,0,1,184.13,29.25Zm0,1.38a1.52,1.52,0,0,0-1.14.48,1.69,1.69,0,0,0-.46,1.22,1.72,1.72,0,0,0,.45,1.24,1.51,1.51,0,0,0,1.14.47,1.53,1.53,0,0,0,1.15-.48,1.89,1.89,0,0,0,0-2.46A1.52,1.52,0,0,0,184.15,30.63Z"/><path class="cls-6" d="M188.44,29.4h1.47V30a3.52,3.52,0,0,1,.91-.59,2.19,2.19,0,0,1,.83-.17,2,2,0,0,1,1.48.61,2.09,2.09,0,0,1,.51,1.53v3.87h-1.45V32.69a6.52,6.52,0,0,0-.09-1.39,1,1,0,0,0-.33-.52.92.92,0,0,0-.58-.18,1.08,1.08,0,0,0-.77.3,1.59,1.59,0,0,0-.44.83,6.68,6.68,0,0,0-.06,1.19v2.35h-1.47Z"/><path class="cls-6" d="M199.39,29.4h1.47v5.86h-1.47v-.62a2.87,2.87,0,0,1-.86.59,2.4,2.4,0,0,1-.94.18,2.61,2.61,0,0,1-2-.88,3.07,3.07,0,0,1-.83-2.19,3.15,3.15,0,0,1,.8-2.23,2.56,2.56,0,0,1,1.95-.87,2.48,2.48,0,0,1,1,.2,2.71,2.71,0,0,1,.86.6Zm-1.55,1.21a1.49,1.49,0,0,0-1.13.48,1.74,1.74,0,0,0-.45,1.24,1.76,1.76,0,0,0,.46,1.25,1.49,1.49,0,0,0,1.13.49,1.52,1.52,0,0,0,1.15-.48,1.76,1.76,0,0,0,.46-1.26,1.71,1.71,0,0,0-.46-1.24A1.53,1.53,0,0,0,197.84,30.6Z"/><path class="cls-6" d="M202.18,27.13h1.47v8.13h-1.47Z"/><path class="cls-5" d="M23.51,66.17l-1.12,1a1.58,1.58,0,0,0-1.2-.82.73.73,0,0,0-.49.16.46.46,0,0,0-.19.36.62.62,0,0,0,.13.38,10.36,10.36,0,0,0,1.11,1q.86.72,1,.91a3.16,3.16,0,0,1,.65.89,2.21,2.21,0,0,1,.19.92A2.12,2.12,0,0,1,23,72.58a2.46,2.46,0,0,1-1.76.64,2.62,2.62,0,0,1-1.48-.42,3.27,3.27,0,0,1-1.08-1.3l1.27-.77q.57,1.05,1.32,1.05a1,1,0,0,0,.65-.23.67.67,0,0,0,.26-.52.9.9,0,0,0-.2-.54,5.79,5.79,0,0,0-.88-.82A8.87,8.87,0,0,1,19.42,68,2.07,2.07,0,0,1,19,66.9a1.87,1.87,0,0,1,.63-1.41,2.18,2.18,0,0,1,1.55-.59,2.45,2.45,0,0,1,1.13.27A4.12,4.12,0,0,1,23.51,66.17Z"/><path class="cls-5" d="M30.8,70.51H26.08a1.57,1.57,0,0,0,.55,1,1.72,1.72,0,0,0,1.13.37,2,2,0,0,0,1.42-.58l1.24.58a2.92,2.92,0,0,1-1.11,1,3.46,3.46,0,0,1-1.54.32,3,3,0,0,1-2.25-.87,3,3,0,0,1-.87-2.18,3.07,3.07,0,0,1,.86-2.23A2.91,2.91,0,0,1,27.69,67a3,3,0,0,1,2.25.89,3.21,3.21,0,0,1,.87,2.34Zm-1.47-1.16a1.48,1.48,0,0,0-.57-.8,1.67,1.67,0,0,0-1-.31,1.76,1.76,0,0,0-1.08.35,1.92,1.92,0,0,0-.54.76Z"/><path class="cls-5" d="M36.32,67.16h1.47v5a3.32,3.32,0,0,1-.6,2.19,3,3,0,0,1-2.42.95,4.24,4.24,0,0,1-1.45-.21,2.62,2.62,0,0,1-1-.63,2.57,2.57,0,0,1-.6-1h1.62a1.35,1.35,0,0,0,.56.38,2.31,2.31,0,0,0,.8.13,2.12,2.12,0,0,0,1-.18,1.1,1.1,0,0,0,.51-.47,2.4,2.4,0,0,0,.15-1,2.44,2.44,0,0,1-.81.56,2.58,2.58,0,0,1-1,.17,2.65,2.65,0,0,1-2-.85,3.3,3.3,0,0,1,0-4.4A2.57,2.57,0,0,1,34.47,67a2.48,2.48,0,0,1,1,.19,3,3,0,0,1,.9.61ZM34.8,68.38a1.53,1.53,0,0,0-1.15.47A1.61,1.61,0,0,0,33.2,70a1.64,1.64,0,0,0,.46,1.2,1.57,1.57,0,0,0,1.16.47A1.51,1.51,0,0,0,36,71.23,1.65,1.65,0,0,0,36.4,70,1.63,1.63,0,0,0,36,68.84,1.54,1.54,0,0,0,34.8,68.38Z"/><path class="cls-5" d="M39.27,67.16h1.49V70a3.91,3.91,0,0,0,.11,1.14,1,1,0,0,0,.36.5,1,1,0,0,0,.62.18,1.08,1.08,0,0,0,.62-.18,1,1,0,0,0,.38-.51A3.93,3.93,0,0,0,43,70V67.16h1.47v2.48a6.08,6.08,0,0,1-.24,2.1,2.29,2.29,0,0,1-.87,1.06,2.67,2.67,0,0,1-1.47.37,2.6,2.6,0,0,1-1.56-.43,2.28,2.28,0,0,1-.84-1.2,7.27,7.27,0,0,1-.17-1.94Z"/><path class="cls-5" d="M45.55,67.16h1.26v.74a1.57,1.57,0,0,1,.54-.66A1.31,1.31,0,0,1,48.1,67a1.38,1.38,0,0,1,.6.15l-.46,1.27a1,1,0,0,0-.43-.13.67.67,0,0,0-.57.42A3.85,3.85,0,0,0,47,70.36V73H45.55Z"/><path class="cls-5" d="M50,64.74a.9.9,0,0,1,.66.28.93.93,0,0,1,.28.68.92.92,0,0,1-.27.67.89.89,0,0,1-.66.28.9.9,0,0,1-.67-.28,1,1,0,0,1-.28-.69.94.94,0,0,1,.93-.94Zm-.74,2.41h1.47V73H49.27Z"/><path class="cls-5" d="M56.4,64.89h1.47V73H56.4V72.4a2.87,2.87,0,0,1-.86.59,2.4,2.4,0,0,1-.94.18,2.61,2.61,0,0,1-2-.88,3.07,3.07,0,0,1-.83-2.19,3.15,3.15,0,0,1,.8-2.23A2.56,2.56,0,0,1,54.56,67a2.48,2.48,0,0,1,1,.2,2.71,2.71,0,0,1,.86.6Zm-1.55,3.47a1.49,1.49,0,0,0-1.13.48,1.74,1.74,0,0,0-.45,1.24,1.76,1.76,0,0,0,.46,1.25,1.49,1.49,0,0,0,1.13.49A1.52,1.52,0,0,0,56,71.34a1.76,1.76,0,0,0,.46-1.26A1.71,1.71,0,0,0,56,68.84,1.53,1.53,0,0,0,54.86,68.36Z"/><path class="cls-5" d="M63.69,67.16h1.47V73H63.69V72.4a2.87,2.87,0,0,1-.86.59,2.4,2.4,0,0,1-.94.18,2.61,2.61,0,0,1-2-.88,3.07,3.07,0,0,1-.83-2.19,3.15,3.15,0,0,1,.8-2.23A2.56,2.56,0,0,1,61.84,67a2.48,2.48,0,0,1,1,.2,2.71,2.71,0,0,1,.86.6Zm-1.55,1.21a1.49,1.49,0,0,0-1.13.48,1.74,1.74,0,0,0-.45,1.24A1.76,1.76,0,0,0,61,71.33a1.49,1.49,0,0,0,1.13.49,1.52,1.52,0,0,0,1.15-.48,1.76,1.76,0,0,0,.46-1.26,1.71,1.71,0,0,0-.46-1.24A1.53,1.53,0,0,0,62.14,68.36Z"/><path class="cls-5" d="M71,64.89h1.47V73H71V72.4a2.87,2.87,0,0,1-.86.59,2.4,2.4,0,0,1-.94.18,2.61,2.61,0,0,1-2-.88,3.07,3.07,0,0,1-.83-2.19,3.15,3.15,0,0,1,.8-2.23A2.56,2.56,0,0,1,69.13,67a2.48,2.48,0,0,1,1,.2,2.71,2.71,0,0,1,.86.6Zm-1.55,3.47a1.49,1.49,0,0,0-1.13.48,1.74,1.74,0,0,0-.45,1.24,1.76,1.76,0,0,0,.46,1.25,1.49,1.49,0,0,0,1.13.49,1.52,1.52,0,0,0,1.15-.48A1.76,1.76,0,0,0,71,70.08a1.71,1.71,0,0,0-.46-1.24A1.53,1.53,0,0,0,69.43,68.36Z"/><path class="cls-5" d="M76.37,67.16h1.5l1.52,3.68,1.68-3.68h1.51l-3.67,8H77.39l1.21-2.58Z"/><path class="cls-5" d="M20.65,80.4V81a2.77,2.77,0,0,1,.86-.6,2.49,2.49,0,0,1,1-.2,2.56,2.56,0,0,1,2,.87,3.15,3.15,0,0,1,.8,2.23,3.07,3.07,0,0,1-.83,2.19,2.61,2.61,0,0,1-2,.88,2.43,2.43,0,0,1-.94-.18,2.86,2.86,0,0,1-.87-.59v2.76H19.19v-8Zm1.55,1.21a1.54,1.54,0,0,0-1.15.47,1.71,1.71,0,0,0-.46,1.24A1.76,1.76,0,0,0,21,84.58a1.52,1.52,0,0,0,1.15.48,1.5,1.5,0,0,0,1.13-.49,1.75,1.75,0,0,0,.46-1.25,1.74,1.74,0,0,0-.45-1.24A1.5,1.5,0,0,0,22.2,81.61Z"/><path class="cls-5" d="M26.13,80.4h1.26v.74a1.57,1.57,0,0,1,.54-.66,1.31,1.31,0,0,1,.74-.23,1.38,1.38,0,0,1,.6.15l-.46,1.27a1,1,0,0,0-.43-.13.67.67,0,0,0-.57.42,3.85,3.85,0,0,0-.23,1.65v2.66H26.13Z"/><path class="cls-5" d="M30.58,78a.9.9,0,0,1,.66.28.93.93,0,0,1,.28.68.92.92,0,0,1-.27.67.89.89,0,0,1-.66.28.9.9,0,0,1-.67-.28,1,1,0,0,1-.28-.69.94.94,0,0,1,.93-.94Zm-.74,2.41h1.47v5.86H29.84Z"/><path class="cls-5" d="M32,80.4h1.5L35,83.86l1.48-3.46H38l-2.5,5.86h-1Z"/><path class="cls-5" d="M43.16,80.4h1.47v5.86H43.16v-.62a2.87,2.87,0,0,1-.86.59,2.4,2.4,0,0,1-.94.18,2.61,2.61,0,0,1-2-.88,3.07,3.07,0,0,1-.83-2.19,3.15,3.15,0,0,1,.8-2.23,2.56,2.56,0,0,1,1.95-.87,2.48,2.48,0,0,1,1,.2,2.71,2.71,0,0,1,.86.6Zm-1.55,1.21a1.49,1.49,0,0,0-1.13.48A1.74,1.74,0,0,0,40,83.33a1.76,1.76,0,0,0,.46,1.25,1.49,1.49,0,0,0,1.13.49,1.52,1.52,0,0,0,1.15-.48,1.76,1.76,0,0,0,.46-1.26,1.71,1.71,0,0,0-.46-1.24A1.53,1.53,0,0,0,41.61,81.61Z"/><path class="cls-5" d="M51.85,81.59l-1.22.67a2.08,2.08,0,0,0-.68-.5,2,2,0,0,0-.79-.14,1.84,1.84,0,0,0-1.34.49,1.68,1.68,0,0,0-.51,1.26,1.62,1.62,0,0,0,.49,1.22,1.78,1.78,0,0,0,1.29.47,1.87,1.87,0,0,0,1.54-.67l1.16.79a3.57,3.57,0,0,1-5.08.31,3,3,0,0,1,.74-4.84,3.55,3.55,0,0,1,1.71-.41,3.45,3.45,0,0,1,1.57.35A3,3,0,0,1,51.85,81.59Z"/><path class="cls-5" d="M53.75,78a.9.9,0,0,1,.66.28.93.93,0,0,1,.28.68.92.92,0,0,1-.27.67.89.89,0,0,1-.66.28.9.9,0,0,1-.67-.28,1,1,0,0,1-.28-.69.94.94,0,0,1,.93-.94ZM53,80.4h1.47v5.86H53Z"/><path class="cls-5" d="M60.15,78.14h1.47v8.13H60.15v-.62a2.87,2.87,0,0,1-.86.59,2.4,2.4,0,0,1-.94.18,2.61,2.61,0,0,1-2-.88,3.07,3.07,0,0,1-.83-2.19,3.15,3.15,0,0,1,.8-2.23,2.56,2.56,0,0,1,1.95-.87,2.48,2.48,0,0,1,1,.2,2.71,2.71,0,0,1,.86.6Zm-1.55,3.47a1.49,1.49,0,0,0-1.13.48A1.74,1.74,0,0,0,57,83.33a1.76,1.76,0,0,0,.46,1.25,1.49,1.49,0,0,0,1.13.49,1.52,1.52,0,0,0,1.15-.48,1.76,1.76,0,0,0,.46-1.26,1.71,1.71,0,0,0-.46-1.24A1.53,1.53,0,0,0,58.61,81.61Z"/><path class="cls-5" d="M67.44,80.4h1.47v5.86H67.44v-.62a2.87,2.87,0,0,1-.86.59,2.4,2.4,0,0,1-.94.18,2.61,2.61,0,0,1-2-.88,3.07,3.07,0,0,1-.83-2.19,3.15,3.15,0,0,1,.8-2.23,2.56,2.56,0,0,1,1.95-.87,2.48,2.48,0,0,1,1,.2,2.71,2.71,0,0,1,.86.6Zm-1.55,1.21a1.49,1.49,0,0,0-1.13.48,1.74,1.74,0,0,0-.45,1.24,1.76,1.76,0,0,0,.46,1.25,1.49,1.49,0,0,0,1.13.49A1.52,1.52,0,0,0,67,84.58a1.76,1.76,0,0,0,.46-1.26A1.71,1.71,0,0,0,67,82.08,1.53,1.53,0,0,0,65.89,81.61Z"/><path class="cls-5" d="M74.72,78.14h1.47v8.13H74.72v-.62a2.87,2.87,0,0,1-.86.59,2.4,2.4,0,0,1-.94.18,2.61,2.61,0,0,1-2-.88,3.07,3.07,0,0,1-.83-2.19,3.15,3.15,0,0,1,.8-2.23,2.56,2.56,0,0,1,1.95-.87,2.48,2.48,0,0,1,1,.2,2.71,2.71,0,0,1,.86.6Zm-1.55,3.47a1.49,1.49,0,0,0-1.13.48,1.74,1.74,0,0,0-.45,1.24,1.76,1.76,0,0,0,.46,1.25,1.49,1.49,0,0,0,1.13.49,1.52,1.52,0,0,0,1.15-.48,1.76,1.76,0,0,0,.46-1.26,1.71,1.71,0,0,0-.46-1.24A1.53,1.53,0,0,0,73.18,81.61Z"/><path class="cls-3" d="M341.88,51.58l-1.06,1a3.27,3.27,0,0,0-2.42-1.14,2.65,2.65,0,0,0-2.69,2.69,2.83,2.83,0,0,0,.34,1.41,2.47,2.47,0,0,0,1,1,2.83,2.83,0,0,0,1.4.35,2.88,2.88,0,0,0,1.2-.25,4.28,4.28,0,0,0,1.2-.89l1,1.07A5.61,5.61,0,0,1,340.19,58a4.52,4.52,0,0,1-1.78.33,4.11,4.11,0,0,1-3-1.17,4.06,4.06,0,0,1-1.18-3,4.11,4.11,0,0,1,.54-2.11,4,4,0,0,1,1.54-1.48,4.32,4.32,0,0,1,2.15-.56,4.57,4.57,0,0,1,3.45,1.59Z"/><path class="cls-3" d="M343,52.25h1.49v2.82a3.91,3.91,0,0,0,.11,1.14,1,1,0,0,0,.36.5,1,1,0,0,0,.62.18,1.08,1.08,0,0,0,.62-.18,1,1,0,0,0,.38-.51,3.93,3.93,0,0,0,.09-1.08V52.25h1.47v2.48a6.08,6.08,0,0,1-.24,2.1,2.29,2.29,0,0,1-.87,1.06,2.67,2.67,0,0,1-1.47.37,2.6,2.6,0,0,1-1.56-.43,2.28,2.28,0,0,1-.84-1.2,7.27,7.27,0,0,1-.17-1.94Z"/><path class="cls-3" d="M349.65,52.25h1.47v.67a2.51,2.51,0,0,1,.84-.62,2.46,2.46,0,0,1,1-.2,1.87,1.87,0,0,1,1,.27,2,2,0,0,1,.71.79,2.38,2.38,0,0,1,.86-.79,2.34,2.34,0,0,1,1.11-.27,2.06,2.06,0,0,1,1.1.29,1.68,1.68,0,0,1,.68.76,4.05,4.05,0,0,1,.21,1.52v3.44h-1.48v-3a2.54,2.54,0,0,0-.25-1.35.85.85,0,0,0-.74-.35,1.13,1.13,0,0,0-.68.22,1.27,1.27,0,0,0-.44.6,3.69,3.69,0,0,0-.15,1.22v2.65h-1.48V55.28a4,4,0,0,0-.12-1.14,1,1,0,0,0-.35-.53.91.91,0,0,0-.56-.17,1.11,1.11,0,0,0-.67.22,1.3,1.3,0,0,0-.45.61,3.78,3.78,0,0,0-.15,1.24v2.61h-1.47Z"/><path class="cls-3" d="M361.5,52.25v.65a2.77,2.77,0,0,1,.86-.6,2.49,2.49,0,0,1,1-.2,2.56,2.56,0,0,1,2,.87,3.15,3.15,0,0,1,.8,2.23,3.07,3.07,0,0,1-.83,2.19,2.61,2.61,0,0,1-2,.88,2.43,2.43,0,0,1-.94-.18,2.86,2.86,0,0,1-.87-.59v2.76H360v-8ZM363,53.46a1.54,1.54,0,0,0-1.15.47,1.71,1.71,0,0,0-.46,1.24,1.76,1.76,0,0,0,.46,1.26,1.52,1.52,0,0,0,1.15.48,1.5,1.5,0,0,0,1.13-.49,1.75,1.75,0,0,0,.46-1.25,1.74,1.74,0,0,0-.45-1.24A1.5,1.5,0,0,0,363,53.46Z"/><path class="cls-3" d="M367.16,50h1.47v8.13h-1.47Z"/><path class="cls-3" d="M370.54,49.84a.9.9,0,0,1,.66.28.93.93,0,0,1,.28.68.92.92,0,0,1-.27.67.89.89,0,0,1-.66.28.9.9,0,0,1-.67-.28,1,1,0,0,1-.28-.69.94.94,0,0,1,.93-.94Zm-.74,2.41h1.47v5.86h-1.47Z"/><path class="cls-3" d="M372.6,52.25h1.47v.67a2.51,2.51,0,0,1,.84-.62,2.46,2.46,0,0,1,1-.2,1.87,1.87,0,0,1,1,.27,2,2,0,0,1,.71.79,2.38,2.38,0,0,1,.86-.79,2.34,2.34,0,0,1,1.11-.27,2.06,2.06,0,0,1,1.1.29,1.68,1.68,0,0,1,.68.76,4.05,4.05,0,0,1,.21,1.52v3.44H380.1v-3a2.54,2.54,0,0,0-.25-1.35.85.85,0,0,0-.74-.35,1.13,1.13,0,0,0-.68.22,1.27,1.27,0,0,0-.44.6,3.69,3.69,0,0,0-.15,1.22v2.65h-1.48V55.28a4,4,0,0,0-.12-1.14,1,1,0,0,0-.35-.53.91.91,0,0,0-.56-.17,1.11,1.11,0,0,0-.67.22,1.3,1.3,0,0,0-.45.61,3.78,3.78,0,0,0-.15,1.24v2.61H372.6Z"/><path class="cls-3" d="M383.56,49.84a.9.9,0,0,1,.66.28.93.93,0,0,1,.28.68.92.92,0,0,1-.27.67.89.89,0,0,1-.66.28.9.9,0,0,1-.67-.28,1,1,0,0,1-.28-.69.94.94,0,0,1,.93-.94Zm-.74,2.41h1.47v5.86h-1.47Z"/><path class="cls-3" d="M391.51,55.61h-4.73a1.57,1.57,0,0,0,.55,1,1.72,1.72,0,0,0,1.13.37,2,2,0,0,0,1.42-.58l1.24.58A2.92,2.92,0,0,1,390,58a3.46,3.46,0,0,1-1.54.32,3,3,0,0,1-2.25-.87,3,3,0,0,1-.87-2.18,3.07,3.07,0,0,1,.86-2.23,2.91,2.91,0,0,1,2.17-.89,3,3,0,0,1,2.25.89,3.21,3.21,0,0,1,.87,2.34ZM390,54.45a1.48,1.48,0,0,0-.57-.8,1.67,1.67,0,0,0-1-.31,1.76,1.76,0,0,0-1.08.35,1.92,1.92,0,0,0-.54.76Z"/><path class="cls-3" d="M392.7,52.25h1.47v.6a3.52,3.52,0,0,1,.91-.59,2.19,2.19,0,0,1,.83-.17,2,2,0,0,1,1.48.61,2.09,2.09,0,0,1,.51,1.53v3.88h-1.45V55.55a6.52,6.52,0,0,0-.09-1.39,1,1,0,0,0-.33-.52.92.92,0,0,0-.58-.18,1.08,1.08,0,0,0-.77.3,1.59,1.59,0,0,0-.44.83,6.68,6.68,0,0,0-.06,1.19v2.35H392.7Z"/><path class="cls-3" d="M399.5,50.09H401v2.16h.87v1.27H401v4.6H399.5v-4.6h-.75V52.25h.75Z"/><path class="cls-3" d="M405.38,52.1a3.1,3.1,0,0,1,1.56.42,3,3,0,0,1,1.14,1.13,3,3,0,0,1,.41,1.54,3.08,3.08,0,0,1-.41,1.55A3,3,0,0,1,407,57.86a3.11,3.11,0,0,1-1.57.41,2.93,2.93,0,0,1-2.15-.9,3.11,3.11,0,0,1,.12-4.47A2.94,2.94,0,0,1,405.38,52.1Zm0,1.38a1.52,1.52,0,0,0-1.14.48,1.69,1.69,0,0,0-.46,1.22,1.72,1.72,0,0,0,.45,1.24,1.51,1.51,0,0,0,1.14.47,1.53,1.53,0,0,0,1.15-.48,1.89,1.89,0,0,0,0-2.46A1.52,1.52,0,0,0,405.41,53.49Z"/><path class="cls-3" d="M418.52,53.44l-1.22.67a2.08,2.08,0,0,0-.68-.5,2,2,0,0,0-.79-.14,1.84,1.84,0,0,0-1.34.49,1.68,1.68,0,0,0-.51,1.26,1.62,1.62,0,0,0,.49,1.22,1.78,1.78,0,0,0,1.29.47,1.87,1.87,0,0,0,1.54-.67l1.16.79a3.57,3.57,0,0,1-5.08.31,3,3,0,0,1,.74-4.84,3.55,3.55,0,0,1,1.71-.41,3.45,3.45,0,0,1,1.57.35A3,3,0,0,1,418.52,53.44Z"/><path class="cls-3" d="M422.6,52.1a3.1,3.1,0,0,1,1.56.42,3,3,0,0,1,1.14,1.13,3,3,0,0,1,.41,1.54,3.08,3.08,0,0,1-.41,1.55,3,3,0,0,1-1.12,1.13,3.11,3.11,0,0,1-1.57.41,2.93,2.93,0,0,1-2.15-.9,3.11,3.11,0,0,1,.12-4.47A2.94,2.94,0,0,1,422.6,52.1Zm0,1.38a1.52,1.52,0,0,0-1.14.48,1.69,1.69,0,0,0-.46,1.22,1.72,1.72,0,0,0,.45,1.24,1.51,1.51,0,0,0,1.14.47,1.53,1.53,0,0,0,1.15-.48,1.89,1.89,0,0,0,0-2.46A1.52,1.52,0,0,0,422.62,53.49Z"/><path class="cls-3" d="M426.91,52.25h1.47v.6a3.52,3.52,0,0,1,.91-.59,2.19,2.19,0,0,1,.83-.17,2,2,0,0,1,1.48.61,2.09,2.09,0,0,1,.51,1.53v3.88h-1.45V55.55a6.52,6.52,0,0,0-.09-1.39,1,1,0,0,0-.33-.52.92.92,0,0,0-.58-.18,1.08,1.08,0,0,0-.77.3,1.59,1.59,0,0,0-.44.83,6.68,6.68,0,0,0-.06,1.19v2.35h-1.47Z"/><path class="cls-3" d="M334.09,65.5h1.26v.74a1.57,1.57,0,0,1,.54-.66,1.31,1.31,0,0,1,.74-.23,1.38,1.38,0,0,1,.6.15l-.46,1.27a1,1,0,0,0-.43-.13.67.67,0,0,0-.57.42,3.85,3.85,0,0,0-.23,1.65v2.66h-1.46Z"/><path class="cls-3" d="M343.84,68.85h-4.73a1.57,1.57,0,0,0,.55,1,1.72,1.72,0,0,0,1.13.37,2,2,0,0,0,1.42-.58l1.24.58a2.92,2.92,0,0,1-1.11,1,3.46,3.46,0,0,1-1.54.32,3,3,0,0,1-2.25-.87,3,3,0,0,1-.87-2.18,3.07,3.07,0,0,1,.86-2.23,2.91,2.91,0,0,1,2.17-.89,3,3,0,0,1,2.25.89,3.21,3.21,0,0,1,.87,2.34Zm-1.47-1.16a1.48,1.48,0,0,0-.57-.8,1.67,1.67,0,0,0-1-.31,1.76,1.76,0,0,0-1.08.35,1.92,1.92,0,0,0-.54.76Z"/><path class="cls-3" d="M349.36,65.5h1.47v5a3.32,3.32,0,0,1-.6,2.19,3,3,0,0,1-2.42.95,4.24,4.24,0,0,1-1.45-.21,2.62,2.62,0,0,1-1-.63,2.57,2.57,0,0,1-.6-1h1.62a1.35,1.35,0,0,0,.56.38,2.31,2.31,0,0,0,.8.13,2.12,2.12,0,0,0,1-.18,1.1,1.1,0,0,0,.51-.47,2.4,2.4,0,0,0,.15-1,2.44,2.44,0,0,1-.81.56,2.58,2.58,0,0,1-1,.17,2.65,2.65,0,0,1-2-.85,3.3,3.3,0,0,1,0-4.4,2.57,2.57,0,0,1,1.86-.76,2.48,2.48,0,0,1,1,.19,3,3,0,0,1,.9.61Zm-1.52,1.22a1.53,1.53,0,0,0-1.15.47,1.61,1.61,0,0,0-.45,1.17,1.64,1.64,0,0,0,.46,1.2,1.57,1.57,0,0,0,1.16.47,1.51,1.51,0,0,0,1.13-.46,1.65,1.65,0,0,0,.44-1.2,1.63,1.63,0,0,0-.45-1.19A1.54,1.54,0,0,0,347.84,66.72Z"/><path class="cls-3" d="M352.31,65.5h1.49v2.82a3.91,3.91,0,0,0,.11,1.14,1,1,0,0,0,.36.5,1,1,0,0,0,.62.18,1.08,1.08,0,0,0,.62-.18,1,1,0,0,0,.38-.51,3.93,3.93,0,0,0,.09-1.08V65.5h1.47V68a6.08,6.08,0,0,1-.24,2.1,2.29,2.29,0,0,1-.87,1.06,2.67,2.67,0,0,1-1.47.37,2.6,2.6,0,0,1-1.56-.43,2.28,2.28,0,0,1-.84-1.2,7.27,7.27,0,0,1-.17-1.94Z"/><path class="cls-3" d="M358.77,63.23h1.47v8.13h-1.47Z"/><path class="cls-3" d="M365.91,65.5h1.47v5.86h-1.47v-.62a2.87,2.87,0,0,1-.86.59,2.4,2.4,0,0,1-.94.18,2.61,2.61,0,0,1-2-.88,3.07,3.07,0,0,1-.83-2.19,3.15,3.15,0,0,1,.8-2.23,2.56,2.56,0,0,1,1.95-.87,2.48,2.48,0,0,1,1,.2,2.71,2.71,0,0,1,.86.6Zm-1.55,1.21a1.49,1.49,0,0,0-1.13.48,1.74,1.74,0,0,0-.45,1.24,1.76,1.76,0,0,0,.46,1.25,1.49,1.49,0,0,0,1.13.49,1.52,1.52,0,0,0,1.15-.48,1.76,1.76,0,0,0,.46-1.26,1.71,1.71,0,0,0-.46-1.24A1.53,1.53,0,0,0,364.36,66.7Z"/><path class="cls-3" d="M374.61,66.68l-1.22.67a2.08,2.08,0,0,0-.68-.5,2,2,0,0,0-.79-.14,1.84,1.84,0,0,0-1.34.49,1.68,1.68,0,0,0-.51,1.26,1.62,1.62,0,0,0,.49,1.22,1.78,1.78,0,0,0,1.29.47,1.87,1.87,0,0,0,1.54-.67l1.16.79a3.57,3.57,0,0,1-5.08.31,3,3,0,0,1,.74-4.84,3.55,3.55,0,0,1,1.71-.41,3.45,3.45,0,0,1,1.57.35A3,3,0,0,1,374.61,66.68Z"/><path class="cls-3" d="M376.51,63.08a.9.9,0,0,1,.66.28.93.93,0,0,1,.28.68.92.92,0,0,1-.27.67.89.89,0,0,1-.66.28.9.9,0,0,1-.67-.28,1,1,0,0,1-.28-.69.94.94,0,0,1,.93-.94Zm-.74,2.41h1.47v5.86h-1.47Z"/><path class="cls-3" d="M381.33,65.34a3.1,3.1,0,0,1,1.56.42A3,3,0,0,1,384,66.89a3,3,0,0,1,.41,1.54A3.08,3.08,0,0,1,384,70a3,3,0,0,1-1.12,1.13,3.11,3.11,0,0,1-1.57.41,2.93,2.93,0,0,1-2.15-.9,3.11,3.11,0,0,1,.12-4.47A2.94,2.94,0,0,1,381.33,65.34Zm0,1.38a1.52,1.52,0,0,0-1.14.48,1.69,1.69,0,0,0-.46,1.22,1.72,1.72,0,0,0,.45,1.24,1.51,1.51,0,0,0,1.14.47,1.53,1.53,0,0,0,1.15-.48,1.89,1.89,0,0,0,0-2.46A1.52,1.52,0,0,0,381.36,66.73Z"/><path class="cls-3" d="M385.64,65.5h1.47v.6a3.52,3.52,0,0,1,.91-.59,2.19,2.19,0,0,1,.83-.17,2,2,0,0,1,1.48.61,2.09,2.09,0,0,1,.51,1.53v3.88h-1.45V68.79a6.52,6.52,0,0,0-.09-1.39,1,1,0,0,0-.33-.52.92.92,0,0,0-.58-.18,1.08,1.08,0,0,0-.77.3,1.59,1.59,0,0,0-.44.83,6.68,6.68,0,0,0-.06,1.19v2.35h-1.47Z"/><path class="cls-3" d="M398.14,68.85h-4.73a1.57,1.57,0,0,0,.55,1,1.72,1.72,0,0,0,1.13.37,2,2,0,0,0,1.42-.58l1.24.58a2.92,2.92,0,0,1-1.11,1,3.46,3.46,0,0,1-1.54.32,3,3,0,0,1-2.25-.87,3,3,0,0,1-.87-2.18,3.07,3.07,0,0,1,.86-2.23,2.91,2.91,0,0,1,2.17-.89,3,3,0,0,1,2.25.89,3.21,3.21,0,0,1,.87,2.34Zm-1.47-1.16a1.48,1.48,0,0,0-.57-.8,1.67,1.67,0,0,0-1-.31,1.76,1.76,0,0,0-1.08.35,1.92,1.92,0,0,0-.54.76Z"/><path class="cls-3" d="M402.92,66.31l-.91.91a1.54,1.54,0,0,0-1-.55.64.64,0,0,0-.39.1.31.31,0,0,0-.05.48,1.64,1.64,0,0,0,.44.27l.54.27a3.18,3.18,0,0,1,1.17.86,1.79,1.79,0,0,1-.26,2.33,2.2,2.2,0,0,1-1.54.52,2.44,2.44,0,0,1-2-1l.91-1a2.1,2.1,0,0,0,.61.49,1.35,1.35,0,0,0,.62.19.73.73,0,0,0,.47-.14.4.4,0,0,0,.18-.32c0-.23-.21-.45-.64-.66l-.5-.25q-1.42-.72-1.42-1.79a1.56,1.56,0,0,1,.54-1.19,2,2,0,0,1,1.37-.49,2.38,2.38,0,0,1,1.93,1Z"/><path class="cls-6" d="M383.79,205.66h1.53l3,7.93H386.8l-.62-1.63h-3.23l-.64,1.63h-1.57Zm.77,2.1-1.06,2.72h2.12Z"/><path class="cls-6" d="M393.7,205.46h1.47v8.13H393.7V213a2.87,2.87,0,0,1-.86.59,2.4,2.4,0,0,1-.94.18,2.61,2.61,0,0,1-2-.88,3.07,3.07,0,0,1-.83-2.19,3.15,3.15,0,0,1,.8-2.23,2.56,2.56,0,0,1,1.95-.87,2.48,2.48,0,0,1,1,.2,2.71,2.71,0,0,1,.86.6Zm-1.55,3.47a1.49,1.49,0,0,0-1.13.48,1.74,1.74,0,0,0-.45,1.24,1.76,1.76,0,0,0,.46,1.25,1.49,1.49,0,0,0,1.13.49,1.52,1.52,0,0,0,1.15-.48,1.76,1.76,0,0,0,.46-1.26,1.71,1.71,0,0,0-.46-1.24A1.53,1.53,0,0,0,392.15,208.93Z"/><path class="cls-6" d="M396.64,207.72h1.47v.67a2.51,2.51,0,0,1,.84-.62,2.46,2.46,0,0,1,1-.2,1.87,1.87,0,0,1,1,.27,2,2,0,0,1,.71.79,2.38,2.38,0,0,1,.86-.79,2.34,2.34,0,0,1,1.11-.27,2.06,2.06,0,0,1,1.1.29,1.68,1.68,0,0,1,.68.76,4.05,4.05,0,0,1,.21,1.52v3.44h-1.48v-3a2.54,2.54,0,0,0-.25-1.35.85.85,0,0,0-.74-.35,1.13,1.13,0,0,0-.68.22,1.27,1.27,0,0,0-.44.6,3.69,3.69,0,0,0-.15,1.22v2.65h-1.48v-2.84a4,4,0,0,0-.12-1.14,1,1,0,0,0-.35-.53.91.91,0,0,0-.56-.17,1.11,1.11,0,0,0-.67.22,1.3,1.3,0,0,0-.45.61,3.78,3.78,0,0,0-.15,1.24v2.61h-1.47Z"/><path class="cls-6" d="M407.6,205.31a.9.9,0,0,1,.66.28.93.93,0,0,1,.28.68.92.92,0,0,1-.27.67.89.89,0,0,1-.66.28.9.9,0,0,1-.67-.28,1,1,0,0,1-.28-.69.94.94,0,0,1,.93-.94Zm-.74,2.41h1.47v5.86h-1.47Z"/><path class="cls-6" d="M409.67,207.72h1.47v.6a3.52,3.52,0,0,1,.91-.59,2.19,2.19,0,0,1,.83-.17,2,2,0,0,1,1.48.61,2.09,2.09,0,0,1,.51,1.53v3.88h-1.45V211a6.52,6.52,0,0,0-.09-1.39,1,1,0,0,0-.33-.52.92.92,0,0,0-.58-.18,1.08,1.08,0,0,0-.77.3,1.59,1.59,0,0,0-.44.83,6.68,6.68,0,0,0-.06,1.19v2.35h-1.47Z"/><path class="cls-6" d="M416.87,205.31a.9.9,0,0,1,.66.28.93.93,0,0,1,.28.68.92.92,0,0,1-.27.67.89.89,0,0,1-.66.28.9.9,0,0,1-.67-.28,1,1,0,0,1-.28-.69.94.94,0,0,1,.93-.94Zm-.74,2.41h1.47v5.86h-1.47Z"/><path class="cls-6" d="M422.53,208.54l-.91.91a1.54,1.54,0,0,0-1-.55.64.64,0,0,0-.39.1.31.31,0,0,0-.05.48,1.64,1.64,0,0,0,.44.27l.54.27a3.18,3.18,0,0,1,1.17.86,1.79,1.79,0,0,1-.26,2.33,2.2,2.2,0,0,1-1.54.52,2.44,2.44,0,0,1-2-1l.91-1a2.1,2.1,0,0,0,.61.49,1.35,1.35,0,0,0,.62.19.73.73,0,0,0,.47-.14.4.4,0,0,0,.18-.32c0-.23-.21-.45-.64-.66l-.5-.25q-1.42-.72-1.42-1.79a1.56,1.56,0,0,1,.54-1.19,2,2,0,0,1,1.37-.49,2.38,2.38,0,0,1,1.93,1Z"/><path class="cls-6" d="M424,205.56h1.47v2.16h.87V209h-.87v4.6H424V209h-.75v-1.27H424Z"/><path class="cls-6" d="M426.76,207.72H428v.74a1.57,1.57,0,0,1,.54-.66,1.31,1.31,0,0,1,.74-.23,1.38,1.38,0,0,1,.6.15l-.46,1.27a1,1,0,0,0-.43-.13.67.67,0,0,0-.57.42,3.85,3.85,0,0,0-.23,1.65v2.66h-1.46Z"/><path class="cls-6" d="M435,207.72h1.47v5.86H435V213a2.87,2.87,0,0,1-.86.59,2.4,2.4,0,0,1-.94.18,2.61,2.61,0,0,1-2-.88,3.07,3.07,0,0,1-.83-2.19,3.15,3.15,0,0,1,.8-2.23,2.56,2.56,0,0,1,1.95-.87,2.48,2.48,0,0,1,1,.2,2.71,2.71,0,0,1,.86.6Zm-1.55,1.21a1.49,1.49,0,0,0-1.13.48,1.74,1.74,0,0,0-.45,1.24,1.76,1.76,0,0,0,.46,1.25,1.49,1.49,0,0,0,1.13.49,1.52,1.52,0,0,0,1.15-.48,1.76,1.76,0,0,0,.46-1.26,1.71,1.71,0,0,0-.46-1.24A1.53,1.53,0,0,0,433.42,208.93Z"/><path class="cls-6" d="M443.66,208.91l-1.22.67a2.08,2.08,0,0,0-.68-.5,2,2,0,0,0-.79-.14,1.84,1.84,0,0,0-1.34.49,1.68,1.68,0,0,0-.51,1.26,1.62,1.62,0,0,0,.49,1.22,1.78,1.78,0,0,0,1.29.47,1.87,1.87,0,0,0,1.54-.67l1.16.79a3.57,3.57,0,0,1-5.08.31,3,3,0,0,1,.74-4.84,3.55,3.55,0,0,1,1.71-.41,3.45,3.45,0,0,1,1.57.35A3,3,0,0,1,443.66,208.91Z"/><path class="cls-6" d="M445.56,205.31a.9.9,0,0,1,.66.28.93.93,0,0,1,.28.68.92.92,0,0,1-.27.67.89.89,0,0,1-.66.28.9.9,0,0,1-.67-.28,1,1,0,0,1-.28-.69.94.94,0,0,1,.93-.94Zm-.74,2.41h1.47v5.86h-1.47Z"/><path class="cls-6" d="M450.38,207.57a3.1,3.1,0,0,1,1.56.42,3,3,0,0,1,1.14,1.13,3,3,0,0,1,.41,1.54,3.08,3.08,0,0,1-.41,1.55,3,3,0,0,1-1.12,1.13,3.11,3.11,0,0,1-1.57.41,2.93,2.93,0,0,1-2.15-.9,3.11,3.11,0,0,1,.12-4.47A2.94,2.94,0,0,1,450.38,207.57Zm0,1.38a1.52,1.52,0,0,0-1.14.48,1.69,1.69,0,0,0-.46,1.22,1.72,1.72,0,0,0,.45,1.24,1.51,1.51,0,0,0,1.14.47,1.53,1.53,0,0,0,1.15-.48,1.89,1.89,0,0,0,0-2.46A1.52,1.52,0,0,0,450.41,209Zm.25-4.42h1.74l-2,2.11h-1.06Z"/><path class="cls-6" d="M454.7,207.72h1.47v.6a3.52,3.52,0,0,1,.91-.59,2.19,2.19,0,0,1,.83-.17,2,2,0,0,1,1.48.61,2.09,2.09,0,0,1,.51,1.53v3.88h-1.45V211a6.52,6.52,0,0,0-.09-1.39,1,1,0,0,0-.33-.52.92.92,0,0,0-.58-.18,1.08,1.08,0,0,0-.77.3,1.59,1.59,0,0,0-.44.83,6.68,6.68,0,0,0-.06,1.19v2.35H454.7Z"/><path class="cls-6" d="M385.53,218.7H387v8.13h-1.47v-.62a2.87,2.87,0,0,1-.86.59,2.4,2.4,0,0,1-.94.18,2.61,2.61,0,0,1-2-.88,3.07,3.07,0,0,1-.83-2.19,3.15,3.15,0,0,1,.8-2.23,2.56,2.56,0,0,1,1.95-.87,2.48,2.48,0,0,1,1,.2,2.71,2.71,0,0,1,.86.6ZM384,222.17a1.49,1.49,0,0,0-1.13.48,1.74,1.74,0,0,0-.45,1.24,1.76,1.76,0,0,0,.46,1.25,1.49,1.49,0,0,0,1.13.49,1.52,1.52,0,0,0,1.15-.48,1.76,1.76,0,0,0,.46-1.26,1.71,1.71,0,0,0-.46-1.24A1.53,1.53,0,0,0,384,222.17Z"/><path class="cls-6" d="M394.36,224.32h-4.73a1.57,1.57,0,0,0,.55,1,1.72,1.72,0,0,0,1.13.37,2,2,0,0,0,1.42-.58l1.24.58a2.92,2.92,0,0,1-1.11,1,3.46,3.46,0,0,1-1.54.32,3,3,0,0,1-2.25-.87,3,3,0,0,1-.87-2.18,3.07,3.07,0,0,1,.86-2.23,2.91,2.91,0,0,1,2.17-.89,3,3,0,0,1,2.25.89,3.21,3.21,0,0,1,.87,2.34Zm-1.47-1.16a1.48,1.48,0,0,0-.57-.8,1.67,1.67,0,0,0-1-.31,1.76,1.76,0,0,0-1.08.35,1.92,1.92,0,0,0-.54.76Z"/><path class="cls-6" d="M398.81,218.9h1.79a5.88,5.88,0,0,1,2.57.43,3.35,3.35,0,0,1,1.38,1.39,4.88,4.88,0,0,1,.24,3.94,3.5,3.5,0,0,1-.84,1.27,3,3,0,0,1-1.16.7,8.23,8.23,0,0,1-2.16.19h-1.81Zm1.5,1.46v5h.7a3.51,3.51,0,0,0,1.5-.24,1.8,1.8,0,0,0,.76-.8,2.93,2.93,0,0,0,.3-1.38,2.62,2.62,0,0,0-.71-2,2.82,2.82,0,0,0-2-.63Z"/><path class="cls-6" d="M410.7,221h1.47v5.86H410.7v-.62a2.87,2.87,0,0,1-.86.59,2.4,2.4,0,0,1-.94.18,2.61,2.61,0,0,1-2-.88,3.07,3.07,0,0,1-.83-2.19,3.15,3.15,0,0,1,.8-2.23,2.56,2.56,0,0,1,1.95-.87,2.48,2.48,0,0,1,1,.2,2.71,2.71,0,0,1,.86.6Zm-1.55,1.21a1.49,1.49,0,0,0-1.13.48,1.74,1.74,0,0,0-.45,1.24,1.76,1.76,0,0,0,.46,1.25,1.49,1.49,0,0,0,1.13.49,1.52,1.52,0,0,0,1.15-.48,1.76,1.76,0,0,0,.46-1.26,1.71,1.71,0,0,0-.46-1.24A1.53,1.53,0,0,0,409.15,222.17Z"/><path class="cls-6" d="M413.83,218.8h1.47V221h.87v1.27h-.87v4.6h-1.47v-4.6h-.75V221h.75Z"/><path class="cls-6" d="M419.72,220.81a3.1,3.1,0,0,1,1.56.42,3,3,0,0,1,1.14,1.13,3,3,0,0,1,.41,1.54,3.08,3.08,0,0,1-.41,1.55,3,3,0,0,1-1.12,1.13,3.11,3.11,0,0,1-1.57.41,2.93,2.93,0,0,1-2.15-.9,3.11,3.11,0,0,1,.12-4.47A2.94,2.94,0,0,1,419.72,220.81Zm0,1.38a1.52,1.52,0,0,0-1.14.48,1.69,1.69,0,0,0-.46,1.22,1.72,1.72,0,0,0,.45,1.24,1.51,1.51,0,0,0,1.14.47,1.53,1.53,0,0,0,1.15-.48,1.89,1.89,0,0,0,0-2.46A1.52,1.52,0,0,0,419.74,222.2Z"/><path class="cls-6" d="M427.62,221.78l-.91.91a1.54,1.54,0,0,0-1-.55.64.64,0,0,0-.39.1.31.31,0,0,0-.05.48,1.64,1.64,0,0,0,.44.27l.54.27a3.18,3.18,0,0,1,1.17.86,1.79,1.79,0,0,1-.26,2.33,2.2,2.2,0,0,1-1.54.52,2.44,2.44,0,0,1-2-1l.91-1a2.1,2.1,0,0,0,.61.49,1.35,1.35,0,0,0,.62.19.73.73,0,0,0,.47-.14.4.4,0,0,0,.18-.32c0-.23-.21-.45-.64-.66l-.5-.25q-1.42-.72-1.42-1.79a1.56,1.56,0,0,1,.54-1.19,2,2,0,0,1,1.37-.49,2.38,2.38,0,0,1,1.93,1Z"/><path class="cls-5" d="M337,313.73h1.53l3,7.93H340l-.62-1.63h-3.23l-.64,1.63H334Zm.77,2.1-1.06,2.72h2.12Z"/><path class="cls-5" d="M342.25,315.79h1.26v.74a1.57,1.57,0,0,1,.54-.66,1.31,1.31,0,0,1,.74-.23,1.38,1.38,0,0,1,.6.15l-.46,1.27a1,1,0,0,0-.43-.13.67.67,0,0,0-.57.42,3.85,3.85,0,0,0-.23,1.65v2.66h-1.46Z"/><path class="cls-5" d="M350.45,315.79h1.47v8h-1.47V321a2.87,2.87,0,0,1-.86.59,2.4,2.4,0,0,1-.94.18,2.61,2.61,0,0,1-2-.88,3.07,3.07,0,0,1-.83-2.19,3.15,3.15,0,0,1,.8-2.23,2.56,2.56,0,0,1,1.95-.87,2.48,2.48,0,0,1,1,.2,2.71,2.71,0,0,1,.86.6ZM348.91,317a1.49,1.49,0,0,0-1.13.48,1.74,1.74,0,0,0-.45,1.24,1.76,1.76,0,0,0,.46,1.25,1.49,1.49,0,0,0,1.13.49,1.52,1.52,0,0,0,1.15-.48,1.76,1.76,0,0,0,.46-1.26,1.71,1.71,0,0,0-.46-1.24A1.53,1.53,0,0,0,348.91,317Z"/><path class="cls-5" d="M353.41,315.79h1.49v2.82a3.91,3.91,0,0,0,.11,1.14,1,1,0,0,0,.36.5,1,1,0,0,0,.62.18,1.08,1.08,0,0,0,.62-.18,1,1,0,0,0,.38-.51,3.93,3.93,0,0,0,.09-1.08v-2.87h1.47v2.48a6.08,6.08,0,0,1-.24,2.1,2.29,2.29,0,0,1-.87,1.06,2.67,2.67,0,0,1-1.47.37,2.6,2.6,0,0,1-1.56-.43,2.28,2.28,0,0,1-.84-1.2,7.27,7.27,0,0,1-.17-1.94Z"/><path class="cls-5" d="M360.61,313.38a.9.9,0,0,1,.66.28.93.93,0,0,1,.28.68.92.92,0,0,1-.27.67.89.89,0,0,1-.66.28A.9.9,0,0,1,360,315a1,1,0,0,1-.28-.69.94.94,0,0,1,.93-.94Zm-.74,2.41h1.47v5.86h-1.47Z"/><path class="cls-5" d="M362.86,313.63h1.47v2.16h.87v1.27h-.87v4.6h-1.47v-4.6h-.75v-1.27h.75Z"/><path class="cls-5" d="M371.86,319.15h-4.73a1.57,1.57,0,0,0,.55,1,1.72,1.72,0,0,0,1.13.37,2,2,0,0,0,1.42-.58l1.24.58a2.92,2.92,0,0,1-1.11,1,3.46,3.46,0,0,1-1.54.32,3,3,0,0,1-2.25-.87,3,3,0,0,1-.87-2.18,3.07,3.07,0,0,1,.86-2.23,2.91,2.91,0,0,1,2.17-.89,3,3,0,0,1,2.25.89,3.21,3.21,0,0,1,.87,2.34ZM370.39,318a1.48,1.48,0,0,0-.57-.8,1.67,1.67,0,0,0-1-.31,1.76,1.76,0,0,0-1.08.35,1.92,1.92,0,0,0-.54.76Z"/><path class="cls-5" d="M378.79,317l-1.22.67a2.08,2.08,0,0,0-.68-.5,2,2,0,0,0-.79-.14,1.84,1.84,0,0,0-1.34.49,1.68,1.68,0,0,0-.51,1.26,1.62,1.62,0,0,0,.49,1.22,1.78,1.78,0,0,0,1.29.47,1.87,1.87,0,0,0,1.54-.67l1.16.79a3.57,3.57,0,0,1-5.08.31,3,3,0,0,1,.74-4.84,3.55,3.55,0,0,1,1.71-.41,3.45,3.45,0,0,1,1.57.35A3,3,0,0,1,378.79,317Z"/><path class="cls-5" d="M380.3,313.63h1.47v2.16h.87v1.27h-.87v4.6H380.3v-4.6h-.75v-1.27h.75Z"/><path class="cls-5" d="M383.42,315.79h1.49v2.82a3.91,3.91,0,0,0,.11,1.14,1,1,0,0,0,.36.5,1,1,0,0,0,.62.18,1.08,1.08,0,0,0,.62-.18,1,1,0,0,0,.38-.51,3.93,3.93,0,0,0,.09-1.08v-2.87h1.47v2.48a6.08,6.08,0,0,1-.24,2.1,2.29,2.29,0,0,1-.87,1.06,2.67,2.67,0,0,1-1.47.37,2.6,2.6,0,0,1-1.56-.43,2.28,2.28,0,0,1-.84-1.2,7.27,7.27,0,0,1-.17-1.94Z"/><path class="cls-5" d="M389.71,315.79H391v.74a1.57,1.57,0,0,1,.54-.66,1.31,1.31,0,0,1,.74-.23,1.38,1.38,0,0,1,.6.15l-.46,1.27a1,1,0,0,0-.43-.13.67.67,0,0,0-.57.42,3.85,3.85,0,0,0-.23,1.65v2.66h-1.46Z"/><path class="cls-5" d="M397.91,315.79h1.47v5.86h-1.47V321a2.87,2.87,0,0,1-.86.59,2.4,2.4,0,0,1-.94.18,2.61,2.61,0,0,1-2-.88,3.07,3.07,0,0,1-.83-2.19,3.15,3.15,0,0,1,.8-2.23,2.56,2.56,0,0,1,1.95-.87,2.48,2.48,0,0,1,1,.2,2.71,2.71,0,0,1,.86.6ZM396.36,317a1.49,1.49,0,0,0-1.13.48,1.74,1.74,0,0,0-.45,1.24,1.76,1.76,0,0,0,.46,1.25,1.49,1.49,0,0,0,1.13.49,1.52,1.52,0,0,0,1.15-.48,1.76,1.76,0,0,0,.46-1.26,1.71,1.71,0,0,0-.46-1.24A1.53,1.53,0,0,0,396.36,317Z"/><path class="cls-5" d="M334.61,326.87h1.47V329H337v1.27h-.87v4.6h-1.47v-4.6h-.75V329h.75Z"/><path class="cls-5" d="M343.62,332.39h-4.73a1.57,1.57,0,0,0,.55,1,1.72,1.72,0,0,0,1.13.37,2,2,0,0,0,1.42-.58l1.24.58a2.92,2.92,0,0,1-1.11,1,3.46,3.46,0,0,1-1.54.32,3,3,0,0,1-2.25-.87,3,3,0,0,1-.87-2.18,3.07,3.07,0,0,1,.86-2.23,2.91,2.91,0,0,1,2.17-.89,3,3,0,0,1,2.25.89,3.21,3.21,0,0,1,.87,2.34Zm-1.47-1.16a1.48,1.48,0,0,0-.57-.8,1.67,1.67,0,0,0-1-.31,1.76,1.76,0,0,0-1.08.35,1.92,1.92,0,0,0-.54.76Z"/><path class="cls-5" d="M350.55,330.22l-1.22.67a2.08,2.08,0,0,0-.68-.5,2,2,0,0,0-.79-.14,1.84,1.84,0,0,0-1.34.49A1.68,1.68,0,0,0,346,332a1.62,1.62,0,0,0,.49,1.22,1.78,1.78,0,0,0,1.29.47,1.87,1.87,0,0,0,1.54-.67l1.16.79a3.57,3.57,0,0,1-5.08.31,3,3,0,0,1,.74-4.84,3.55,3.55,0,0,1,1.71-.41,3.45,3.45,0,0,1,1.57.35A3,3,0,0,1,350.55,330.22Z"/><path class="cls-5" d="M351.87,329h1.47v.6a3.52,3.52,0,0,1,.91-.59,2.19,2.19,0,0,1,.83-.17,2,2,0,0,1,1.48.61,2.09,2.09,0,0,1,.51,1.53v3.88h-1.45v-2.57a6.52,6.52,0,0,0-.09-1.39,1,1,0,0,0-.33-.52.92.92,0,0,0-.58-.18,1.08,1.08,0,0,0-.77.3,1.59,1.59,0,0,0-.44.83,6.68,6.68,0,0,0-.06,1.19v2.35h-1.47Z"/><path class="cls-5" d="M361.25,328.88a3.1,3.1,0,0,1,1.56.42,3,3,0,0,1,1.14,1.13,3,3,0,0,1,.41,1.54,3.08,3.08,0,0,1-.41,1.55,3,3,0,0,1-1.12,1.13,3.11,3.11,0,0,1-1.57.41,2.93,2.93,0,0,1-2.15-.9,3.11,3.11,0,0,1,.12-4.47A2.94,2.94,0,0,1,361.25,328.88Zm0,1.38a1.52,1.52,0,0,0-1.14.48,1.69,1.69,0,0,0-.46,1.22,1.72,1.72,0,0,0,.45,1.24,1.51,1.51,0,0,0,1.14.47,1.53,1.53,0,0,0,1.15-.48,1.89,1.89,0,0,0,0-2.46A1.52,1.52,0,0,0,361.27,330.27Z"/><path class="cls-5" d="M365.4,326.77h1.47v8.13H365.4Z"/><path class="cls-5" d="M371,328.88a3.1,3.1,0,0,1,1.56.42,3,3,0,0,1,1.14,1.13,3,3,0,0,1,.41,1.54,3.08,3.08,0,0,1-.41,1.55,3,3,0,0,1-1.12,1.13A3.11,3.11,0,0,1,371,335a2.93,2.93,0,0,1-2.15-.9,3.11,3.11,0,0,1,.12-4.47A2.94,2.94,0,0,1,371,328.88Zm0,1.38a1.52,1.52,0,0,0-1.14.48,1.69,1.69,0,0,0-.46,1.22,1.72,1.72,0,0,0,.45,1.24,1.51,1.51,0,0,0,1.14.47,1.53,1.53,0,0,0,1.15-.48,1.89,1.89,0,0,0,0-2.46A1.52,1.52,0,0,0,371,330.27Zm.25-4.42H373L371,328h-1.06Z"/><path class="cls-5" d="M379.6,329h1.47v5a3.32,3.32,0,0,1-.6,2.19,3,3,0,0,1-2.42.95,4.24,4.24,0,0,1-1.45-.21,2.62,2.62,0,0,1-1-.63,2.57,2.57,0,0,1-.6-1h1.62a1.35,1.35,0,0,0,.56.38,2.31,2.31,0,0,0,.8.13,2.12,2.12,0,0,0,1-.18,1.1,1.1,0,0,0,.51-.47,2.4,2.4,0,0,0,.15-1,2.44,2.44,0,0,1-.81.56,2.58,2.58,0,0,1-1,.17,2.65,2.65,0,0,1-2-.85,3.3,3.3,0,0,1,0-4.4,2.57,2.57,0,0,1,1.86-.76,2.48,2.48,0,0,1,1,.19,3,3,0,0,1,.9.61Zm-1.52,1.22a1.53,1.53,0,0,0-1.15.47,1.61,1.61,0,0,0-.45,1.17,1.64,1.64,0,0,0,.46,1.2,1.57,1.57,0,0,0,1.16.47,1.51,1.51,0,0,0,1.13-.46,1.65,1.65,0,0,0,.44-1.2,1.63,1.63,0,0,0-.45-1.19A1.54,1.54,0,0,0,378.08,330.26Z"/><path class="cls-5" d="M383.13,326.62a.9.9,0,0,1,.66.28.93.93,0,0,1,.28.68.92.92,0,0,1-.27.67.89.89,0,0,1-.66.28.9.9,0,0,1-.67-.28,1,1,0,0,1-.28-.69.94.94,0,0,1,.93-.94Zm-.74,2.41h1.47v5.86h-1.47Z"/><path class="cls-5" d="M390.94,330.22l-1.22.67a2.08,2.08,0,0,0-.68-.5,2,2,0,0,0-.79-.14,1.84,1.84,0,0,0-1.34.49,1.68,1.68,0,0,0-.51,1.26,1.62,1.62,0,0,0,.49,1.22,1.78,1.78,0,0,0,1.29.47,1.87,1.87,0,0,0,1.54-.67l1.16.79a3.57,3.57,0,0,1-5.08.31,3,3,0,0,1,.74-4.84,3.55,3.55,0,0,1,1.71-.41,3.45,3.45,0,0,1,1.57.35A3,3,0,0,1,390.94,330.22Z"/><path class="cls-5" d="M396.59,329h1.47v5.86h-1.47v-.62a2.87,2.87,0,0,1-.86.59,2.4,2.4,0,0,1-.94.18,2.61,2.61,0,0,1-2-.88A3.07,3.07,0,0,1,392,332a3.15,3.15,0,0,1,.8-2.23,2.56,2.56,0,0,1,1.95-.87,2.48,2.48,0,0,1,1,.2,2.71,2.71,0,0,1,.86.6ZM395,330.24a1.49,1.49,0,0,0-1.13.48,1.74,1.74,0,0,0-.45,1.24,1.76,1.76,0,0,0,.46,1.25,1.49,1.49,0,0,0,1.13.49,1.52,1.52,0,0,0,1.15-.48,1.76,1.76,0,0,0,.46-1.26,1.71,1.71,0,0,0-.46-1.24A1.53,1.53,0,0,0,395,330.24Z"/><path class="cls-6" d="M219.56,390.31h1.53l3,7.93h-1.57l-.62-1.63h-3.23l-.64,1.63h-1.57Zm.77,2.1-1.06,2.72h2.12Z"/><path class="cls-6" d="M225,390.11h1.47v8.13H225Z"/><path class="cls-6" d="M228.37,390a.9.9,0,0,1,.66.28.93.93,0,0,1,.28.68.92.92,0,0,1-.27.67.89.89,0,0,1-.66.28.9.9,0,0,1-.67-.28,1,1,0,0,1-.28-.69.94.94,0,0,1,.93-.94Zm-.74,2.41h1.47v5.86h-1.47Z"/><path class="cls-6" d="M230.44,392.38h1.47v.6a3.52,3.52,0,0,1,.91-.59,2.19,2.19,0,0,1,.83-.17,2,2,0,0,1,1.48.61,2.09,2.09,0,0,1,.51,1.53v3.88h-1.45v-2.57a6.52,6.52,0,0,0-.09-1.39,1,1,0,0,0-.33-.52.92.92,0,0,0-.58-.18,1.08,1.08,0,0,0-.77.3,1.59,1.59,0,0,0-.44.83,6.68,6.68,0,0,0-.06,1.19v2.35h-1.47Z"/><path class="cls-6" d="M242.93,395.73h-4.73a1.57,1.57,0,0,0,.55,1,1.72,1.72,0,0,0,1.13.37,2,2,0,0,0,1.42-.58l1.24.58a2.92,2.92,0,0,1-1.11,1,3.46,3.46,0,0,1-1.54.32,3,3,0,0,1-2.25-.87,3,3,0,0,1-.87-2.18,3.07,3.07,0,0,1,.86-2.23,2.91,2.91,0,0,1,2.17-.89,3,3,0,0,1,2.25.89,3.21,3.21,0,0,1,.87,2.34Zm-1.47-1.16a1.48,1.48,0,0,0-.57-.8,1.67,1.67,0,0,0-1-.31,1.76,1.76,0,0,0-1.08.35,1.92,1.92,0,0,0-.54.76Z"/><path class="cls-6" d="M248.45,392.38h1.47v5.86h-1.47v-.62a2.87,2.87,0,0,1-.86.59,2.4,2.4,0,0,1-.94.18,2.61,2.61,0,0,1-2-.88,3.07,3.07,0,0,1-.83-2.19,3.15,3.15,0,0,1,.8-2.23,2.56,2.56,0,0,1,1.95-.87,2.48,2.48,0,0,1,1,.2,2.71,2.71,0,0,1,.86.6Zm-1.55,1.21a1.49,1.49,0,0,0-1.13.48,1.74,1.74,0,0,0-.45,1.24,1.76,1.76,0,0,0,.46,1.25,1.49,1.49,0,0,0,1.13.49,1.52,1.52,0,0,0,1.15-.48,1.76,1.76,0,0,0,.46-1.26,1.71,1.71,0,0,0-.46-1.24A1.53,1.53,0,0,0,246.91,393.58Z"/><path class="cls-6" d="M257.15,393.56l-1.22.67a2.08,2.08,0,0,0-.68-.5,2,2,0,0,0-.79-.14,1.84,1.84,0,0,0-1.34.49,1.68,1.68,0,0,0-.51,1.26,1.62,1.62,0,0,0,.49,1.22,1.78,1.78,0,0,0,1.29.47,1.87,1.87,0,0,0,1.54-.67l1.16.79a3.57,3.57,0,0,1-5.08.31,3,3,0,0,1,.74-4.84,3.55,3.55,0,0,1,1.71-.41,3.45,3.45,0,0,1,1.57.35A3,3,0,0,1,257.15,393.56Z"/><path class="cls-6" d="M259,390a.9.9,0,0,1,.66.28.93.93,0,0,1,.28.68.92.92,0,0,1-.27.67.89.89,0,0,1-.66.28.9.9,0,0,1-.67-.28,1,1,0,0,1-.28-.69A.94.94,0,0,1,259,390Zm-.74,2.41h1.47v5.86h-1.47Z"/><path class="cls-6" d="M263.87,392.23a3.1,3.1,0,0,1,1.56.42,3,3,0,0,1,1.14,1.13,3,3,0,0,1,.41,1.54,3.08,3.08,0,0,1-.41,1.55,3,3,0,0,1-1.12,1.13,3.11,3.11,0,0,1-1.57.41,2.93,2.93,0,0,1-2.15-.9,3.11,3.11,0,0,1,.12-4.47A2.94,2.94,0,0,1,263.87,392.23Zm0,1.38a1.52,1.52,0,0,0-1.14.48,1.69,1.69,0,0,0-.46,1.22,1.72,1.72,0,0,0,.45,1.24,1.51,1.51,0,0,0,1.14.47,1.53,1.53,0,0,0,1.15-.48,1.89,1.89,0,0,0,0-2.46A1.52,1.52,0,0,0,263.9,393.61Zm.25-4.42h1.74l-2,2.11h-1.06Z"/><path class="cls-6" d="M268.19,392.38h1.47v.6a3.52,3.52,0,0,1,.91-.59,2.19,2.19,0,0,1,.83-.17,2,2,0,0,1,1.48.61,2.09,2.09,0,0,1,.51,1.53v3.88h-1.45v-2.57a6.52,6.52,0,0,0-.09-1.39,1,1,0,0,0-.33-.52.92.92,0,0,0-.58-.18,1.08,1.08,0,0,0-.77.3,1.59,1.59,0,0,0-.44.83,6.68,6.68,0,0,0-.06,1.19v2.35h-1.47Z"/><path class="cls-6" d="M217.15,403.56h4.33V405h-2.83v1.43h2.83v1.45h-2.83V410h2.83v1.48h-4.33Z"/><path class="cls-6" d="M226.31,406.44l-.91.91a1.54,1.54,0,0,0-1-.55.64.64,0,0,0-.39.1.31.31,0,0,0-.05.48,1.64,1.64,0,0,0,.44.27l.54.27a3.18,3.18,0,0,1,1.17.86,1.79,1.79,0,0,1-.26,2.33,2.2,2.2,0,0,1-1.54.52,2.44,2.44,0,0,1-2-1l.91-1a2.1,2.1,0,0,0,.61.49,1.35,1.35,0,0,0,.62.19.73.73,0,0,0,.47-.14.4.4,0,0,0,.18-.32c0-.23-.21-.45-.64-.66l-.5-.25q-1.42-.72-1.42-1.79A1.56,1.56,0,0,1,223,406a2,2,0,0,1,1.37-.49,2.38,2.38,0,0,1,1.93,1Z"/><path class="cls-6" d="M227.75,403.46h1.47v2.16h.87v1.27h-.87v4.6h-1.47v-4.6H227v-1.27h.75Z"/><path class="cls-6" d="M230.54,405.62h1.26v.74a1.57,1.57,0,0,1,.54-.66,1.31,1.31,0,0,1,.74-.23,1.38,1.38,0,0,1,.6.15l-.46,1.27a1,1,0,0,0-.43-.13.67.67,0,0,0-.57.42,3.85,3.85,0,0,0-.23,1.65v2.66h-1.46Z"/><path class="cls-6" d="M238.74,405.62h1.47v5.86h-1.47v-.62a2.87,2.87,0,0,1-.86.59,2.4,2.4,0,0,1-.94.18,2.61,2.61,0,0,1-2-.88,3.07,3.07,0,0,1-.83-2.19,3.15,3.15,0,0,1,.8-2.23,2.56,2.56,0,0,1,1.95-.87,2.48,2.48,0,0,1,1,.2,2.71,2.71,0,0,1,.86.6Zm-1.55,1.21a1.49,1.49,0,0,0-1.13.48,1.74,1.74,0,0,0-.45,1.24,1.76,1.76,0,0,0,.46,1.25,1.49,1.49,0,0,0,1.13.49,1.52,1.52,0,0,0,1.15-.48,1.76,1.76,0,0,0,.46-1.26,1.71,1.71,0,0,0-.46-1.24A1.53,1.53,0,0,0,237.2,406.83Z"/><path class="cls-6" d="M241.88,403.46h1.47v2.16h.87v1.27h-.87v4.6h-1.47v-4.6h-.75v-1.27h.75Z"/><path class="cls-6" d="M250.88,409h-4.73a1.57,1.57,0,0,0,.55,1,1.72,1.72,0,0,0,1.13.37,2,2,0,0,0,1.42-.58l1.24.58a2.92,2.92,0,0,1-1.11,1,3.46,3.46,0,0,1-1.54.32,3,3,0,0,1-2.25-.87,3,3,0,0,1-.87-2.18,3.07,3.07,0,0,1,.86-2.23,2.91,2.91,0,0,1,2.17-.89,3,3,0,0,1,2.25.89,3.21,3.21,0,0,1,.87,2.34Zm-1.47-1.16a1.48,1.48,0,0,0-.57-.8,1.67,1.67,0,0,0-1-.31,1.76,1.76,0,0,0-1.08.35,1.92,1.92,0,0,0-.54.76ZM248,402.44h1.74l-2,2.11h-1.06Z"/><path class="cls-6" d="M256.41,405.62h1.47v5a3.32,3.32,0,0,1-.6,2.19,3,3,0,0,1-2.42.95,4.24,4.24,0,0,1-1.45-.21,2.62,2.62,0,0,1-1-.63,2.57,2.57,0,0,1-.6-1h1.62a1.35,1.35,0,0,0,.56.38,2.31,2.31,0,0,0,.8.13,2.12,2.12,0,0,0,1-.18,1.1,1.1,0,0,0,.51-.47,2.4,2.4,0,0,0,.15-1,2.44,2.44,0,0,1-.81.56,2.58,2.58,0,0,1-1,.17,2.65,2.65,0,0,1-2-.85,3.3,3.3,0,0,1,0-4.4,2.57,2.57,0,0,1,1.86-.76,2.48,2.48,0,0,1,1,.19,3,3,0,0,1,.9.61Zm-1.52,1.22a1.53,1.53,0,0,0-1.15.47,1.61,1.61,0,0,0-.45,1.17,1.64,1.64,0,0,0,.46,1.2,1.57,1.57,0,0,0,1.16.47,1.51,1.51,0,0,0,1.13-.46,1.65,1.65,0,0,0,.44-1.2,1.63,1.63,0,0,0-.45-1.19A1.54,1.54,0,0,0,254.88,406.84Z"/><path class="cls-6" d="M259.93,403.21a.9.9,0,0,1,.66.28.93.93,0,0,1,.28.68.92.92,0,0,1-.27.67.89.89,0,0,1-.66.28.9.9,0,0,1-.67-.28,1,1,0,0,1-.28-.69.94.94,0,0,1,.93-.94Zm-.74,2.41h1.47v5.86H259.2Z"/><path class="cls-6" d="M267.74,406.81l-1.22.67a2.08,2.08,0,0,0-.68-.5,2,2,0,0,0-.79-.14,1.84,1.84,0,0,0-1.34.49,1.68,1.68,0,0,0-.51,1.26,1.62,1.62,0,0,0,.49,1.22,1.78,1.78,0,0,0,1.29.47,1.87,1.87,0,0,0,1.54-.67l1.16.79a3.57,3.57,0,0,1-5.08.31,3,3,0,0,1,.74-4.84,3.55,3.55,0,0,1,1.71-.41,3.45,3.45,0,0,1,1.57.35A3,3,0,0,1,267.74,406.81Z"/><path class="cls-6" d="M273.4,405.62h1.47v5.86H273.4v-.62a2.87,2.87,0,0,1-.86.59,2.4,2.4,0,0,1-.94.18,2.61,2.61,0,0,1-2-.88,3.07,3.07,0,0,1-.83-2.19,3.15,3.15,0,0,1,.8-2.23,2.56,2.56,0,0,1,1.95-.87,2.48,2.48,0,0,1,1,.2,2.71,2.71,0,0,1,.86.6Zm-1.55,1.21a1.49,1.49,0,0,0-1.13.48,1.74,1.74,0,0,0-.45,1.24,1.76,1.76,0,0,0,.46,1.25,1.49,1.49,0,0,0,1.13.49,1.52,1.52,0,0,0,1.15-.48,1.76,1.76,0,0,0,.46-1.26,1.71,1.71,0,0,0-.46-1.24A1.53,1.53,0,0,0,271.85,406.83Z"/><path class="cls-3" d="M81.75,328.62l-1.06,1a3.27,3.27,0,0,0-2.42-1.14,2.65,2.65,0,0,0-2.69,2.69,2.83,2.83,0,0,0,.34,1.41,2.47,2.47,0,0,0,1,1,2.83,2.83,0,0,0,1.4.35,2.88,2.88,0,0,0,1.2-.25,4.28,4.28,0,0,0,1.2-.89l1,1.07A5.61,5.61,0,0,1,80.06,335a4.52,4.52,0,0,1-1.78.33,4.11,4.11,0,0,1-3-1.17,4.06,4.06,0,0,1-1.18-3,4.11,4.11,0,0,1,.54-2.11,4,4,0,0,1,1.54-1.48A4.32,4.32,0,0,1,78.3,327a4.57,4.57,0,0,1,3.45,1.59Z"/><path class="cls-3" d="M87.24,329.29h1.47v5.86H87.24v-.62a2.87,2.87,0,0,1-.86.59,2.4,2.4,0,0,1-.94.18,2.61,2.61,0,0,1-2-.88,3.07,3.07,0,0,1-.83-2.19,3.15,3.15,0,0,1,.8-2.23,2.56,2.56,0,0,1,1.95-.87,2.48,2.48,0,0,1,1,.2,2.71,2.71,0,0,1,.86.6Zm-1.55,1.21a1.49,1.49,0,0,0-1.13.48,1.74,1.74,0,0,0-.45,1.24,1.76,1.76,0,0,0,.46,1.25,1.49,1.49,0,0,0,1.13.49,1.52,1.52,0,0,0,1.15-.48,1.76,1.76,0,0,0,.46-1.26,1.71,1.71,0,0,0-.46-1.24A1.53,1.53,0,0,0,85.69,330.5Z"/><path class="cls-3" d="M90,327h1.47v8.13H90Z"/><path class="cls-3" d="M93.42,326.88a.9.9,0,0,1,.66.28.93.93,0,0,1,.28.68.92.92,0,0,1-.27.67.89.89,0,0,1-.66.28.9.9,0,0,1-.67-.28,1,1,0,0,1-.28-.69.94.94,0,0,1,.93-.94Zm-.74,2.41h1.47v5.86H92.68Z"/><path class="cls-3" d="M99.82,327h1.47v8.13H99.82v-.62a2.87,2.87,0,0,1-.86.59,2.4,2.4,0,0,1-.94.18,2.61,2.61,0,0,1-2-.88,3.07,3.07,0,0,1-.83-2.19A3.15,3.15,0,0,1,96,330a2.56,2.56,0,0,1,1.95-.87,2.48,2.48,0,0,1,1,.2,2.71,2.71,0,0,1,.86.6Zm-1.55,3.47a1.49,1.49,0,0,0-1.13.48,1.74,1.74,0,0,0-.45,1.24,1.76,1.76,0,0,0,.46,1.25,1.49,1.49,0,0,0,1.13.49,1.52,1.52,0,0,0,1.15-.48,1.76,1.76,0,0,0,.46-1.26,1.71,1.71,0,0,0-.46-1.24A1.53,1.53,0,0,0,98.27,330.5Z"/><path class="cls-3" d="M107.1,329.29h1.47v5.86H107.1v-.62a2.87,2.87,0,0,1-.86.59,2.4,2.4,0,0,1-.94.18,2.61,2.61,0,0,1-2-.88,3.07,3.07,0,0,1-.83-2.19,3.15,3.15,0,0,1,.8-2.23,2.56,2.56,0,0,1,1.95-.87,2.48,2.48,0,0,1,1,.2,2.71,2.71,0,0,1,.86.6Zm-1.55,1.21a1.49,1.49,0,0,0-1.13.48,1.74,1.74,0,0,0-.45,1.24,1.76,1.76,0,0,0,.46,1.25,1.49,1.49,0,0,0,1.13.49,1.52,1.52,0,0,0,1.15-.48,1.76,1.76,0,0,0,.46-1.26,1.71,1.71,0,0,0-.46-1.24A1.53,1.53,0,0,0,105.56,330.5Z"/><path class="cls-3" d="M114.39,327h1.47v8.13h-1.47v-.62a2.87,2.87,0,0,1-.86.59,2.4,2.4,0,0,1-.94.18,2.61,2.61,0,0,1-2-.88,3.07,3.07,0,0,1-.83-2.19,3.15,3.15,0,0,1,.8-2.23,2.56,2.56,0,0,1,1.95-.87,2.48,2.48,0,0,1,1,.2,2.71,2.71,0,0,1,.86.6Zm-1.55,3.47a1.49,1.49,0,0,0-1.13.48,1.74,1.74,0,0,0-.45,1.24,1.76,1.76,0,0,0,.46,1.25,1.49,1.49,0,0,0,1.13.49,1.52,1.52,0,0,0,1.15-.48,1.76,1.76,0,0,0,.46-1.26A1.71,1.71,0,0,0,114,331,1.53,1.53,0,0,0,112.84,330.5Z"/><path class="cls-3" d="M78.63,340.27H80.1v8.13H78.63v-.62a2.87,2.87,0,0,1-.86.59,2.4,2.4,0,0,1-.94.18,2.61,2.61,0,0,1-2-.88,3.07,3.07,0,0,1-.83-2.19,3.15,3.15,0,0,1,.8-2.23,2.56,2.56,0,0,1,1.95-.87,2.48,2.48,0,0,1,1,.2,2.71,2.71,0,0,1,.86.6Zm-1.55,3.47a1.49,1.49,0,0,0-1.13.48,1.74,1.74,0,0,0-.45,1.24,1.76,1.76,0,0,0,.46,1.25,1.49,1.49,0,0,0,1.13.49,1.52,1.52,0,0,0,1.15-.48,1.76,1.76,0,0,0,.46-1.26,1.71,1.71,0,0,0-.46-1.24A1.53,1.53,0,0,0,77.09,343.74Z"/><path class="cls-3" d="M87.47,345.89H82.74a1.57,1.57,0,0,0,.55,1,1.72,1.72,0,0,0,1.13.37,2,2,0,0,0,1.42-.58l1.24.58a2.92,2.92,0,0,1-1.11,1,3.46,3.46,0,0,1-1.54.32,3,3,0,0,1-2.25-.87,3,3,0,0,1-.87-2.18,3.07,3.07,0,0,1,.86-2.23,2.91,2.91,0,0,1,2.17-.89,3,3,0,0,1,2.25.89,3.21,3.21,0,0,1,.87,2.34ZM86,344.73a1.48,1.48,0,0,0-.57-.8,1.67,1.67,0,0,0-1-.31,1.76,1.76,0,0,0-1.08.35,1.92,1.92,0,0,0-.54.76Z"/><path class="cls-3" d="M91.91,340.47H93.7a5.88,5.88,0,0,1,2.57.43,3.35,3.35,0,0,1,1.38,1.39,4.88,4.88,0,0,1,.24,3.94,3.5,3.5,0,0,1-.84,1.27,3,3,0,0,1-1.16.7,8.23,8.23,0,0,1-2.16.19H91.91Zm1.5,1.46v5h.7a3.51,3.51,0,0,0,1.5-.24,1.8,1.8,0,0,0,.76-.8,2.93,2.93,0,0,0,.3-1.38,2.62,2.62,0,0,0-.71-2,2.82,2.82,0,0,0-2-.63Z"/><path class="cls-3" d="M103.8,342.54h1.47v5.86H103.8v-.62a2.87,2.87,0,0,1-.86.59,2.4,2.4,0,0,1-.94.18,2.61,2.61,0,0,1-2-.88,3.07,3.07,0,0,1-.83-2.19,3.15,3.15,0,0,1,.8-2.23,2.56,2.56,0,0,1,1.95-.87,2.48,2.48,0,0,1,1,.2,2.71,2.71,0,0,1,.86.6Zm-1.55,1.21a1.49,1.49,0,0,0-1.13.48,1.74,1.74,0,0,0-.45,1.24,1.76,1.76,0,0,0,.46,1.25,1.49,1.49,0,0,0,1.13.49,1.52,1.52,0,0,0,1.15-.48,1.76,1.76,0,0,0,.46-1.26,1.71,1.71,0,0,0-.46-1.24A1.53,1.53,0,0,0,102.25,343.74Z"/><path class="cls-3" d="M106.93,340.38h1.47v2.16h.87v1.27h-.87v4.6h-1.47v-4.6h-.75v-1.27h.75Z"/><path class="cls-3" d="M112.82,342.38a3.1,3.1,0,0,1,1.56.42,3,3,0,0,1,1.14,1.13,3,3,0,0,1,.41,1.54,3.08,3.08,0,0,1-.41,1.55,3,3,0,0,1-1.12,1.13,3.11,3.11,0,0,1-1.57.41,2.93,2.93,0,0,1-2.15-.9,3.11,3.11,0,0,1,.12-4.47A2.94,2.94,0,0,1,112.82,342.38Zm0,1.38a1.52,1.52,0,0,0-1.14.48,1.69,1.69,0,0,0-.46,1.22,1.72,1.72,0,0,0,.45,1.24,1.51,1.51,0,0,0,1.14.47,1.53,1.53,0,0,0,1.15-.48,1.89,1.89,0,0,0,0-2.46A1.52,1.52,0,0,0,112.84,343.77Z"/><path class="cls-3" d="M120.72,343.35l-.91.91a1.54,1.54,0,0,0-1-.55.64.64,0,0,0-.39.1.31.31,0,0,0-.05.48,1.64,1.64,0,0,0,.44.27l.54.27a3.18,3.18,0,0,1,1.17.86,1.79,1.79,0,0,1-.26,2.33,2.2,2.2,0,0,1-1.54.52,2.44,2.44,0,0,1-2-1l.91-1a2.1,2.1,0,0,0,.61.49,1.35,1.35,0,0,0,.62.19.73.73,0,0,0,.47-.14.4.4,0,0,0,.18-.32c0-.23-.21-.45-.64-.66l-.5-.25q-1.42-.72-1.42-1.79a1.56,1.56,0,0,1,.54-1.19,2,2,0,0,1,1.37-.49,2.38,2.38,0,0,1,1.93,1Z"/><path class="cls-4" d="M5.11,232.39H6.6v7.93H5.11Z"/><path class="cls-4" d="M8.14,234.45H9.61v.6a3.52,3.52,0,0,1,.91-.59,2.19,2.19,0,0,1,.83-.17,2,2,0,0,1,1.48.61,2.09,2.09,0,0,1,.51,1.53v3.88H11.88v-2.57a6.52,6.52,0,0,0-.09-1.39,1,1,0,0,0-.33-.52.92.92,0,0,0-.58-.18,1.08,1.08,0,0,0-.77.3,1.59,1.59,0,0,0-.44.83A6.68,6.68,0,0,0,9.61,238v2.35H8.14Z"/><path class="cls-4" d="M14.94,232.29h1.47v2.16h.87v1.27h-.87v4.6H14.94v-4.6h-.75v-1.27h.75Z"/><path class="cls-4" d="M23.94,237.81H19.22a1.57,1.57,0,0,0,.55,1,1.72,1.72,0,0,0,1.13.37,2,2,0,0,0,1.42-.58l1.24.58a2.92,2.92,0,0,1-1.11,1,3.46,3.46,0,0,1-1.54.32,3,3,0,0,1-2.25-.87,3,3,0,0,1-.87-2.18,3.07,3.07,0,0,1,.86-2.23,2.91,2.91,0,0,1,2.17-.89,3,3,0,0,1,2.25.89,3.21,3.21,0,0,1,.87,2.34Zm-1.47-1.16a1.48,1.48,0,0,0-.57-.8,1.67,1.67,0,0,0-1-.31,1.76,1.76,0,0,0-1.08.35,1.92,1.92,0,0,0-.54.76Z"/><path class="cls-4" d="M29.47,234.45h1.47v5a3.32,3.32,0,0,1-.6,2.19,3,3,0,0,1-2.42.95,4.24,4.24,0,0,1-1.45-.21,2.62,2.62,0,0,1-1-.63,2.57,2.57,0,0,1-.6-1H26.5a1.35,1.35,0,0,0,.56.38,2.31,2.31,0,0,0,.8.13,2.12,2.12,0,0,0,1-.18,1.1,1.1,0,0,0,.51-.47,2.4,2.4,0,0,0,.15-1,2.44,2.44,0,0,1-.81.56,2.58,2.58,0,0,1-1,.17,2.65,2.65,0,0,1-2-.85,3.3,3.3,0,0,1,0-4.4,2.57,2.57,0,0,1,1.86-.76,2.48,2.48,0,0,1,1,.19,3,3,0,0,1,.9.61Zm-1.52,1.22a1.53,1.53,0,0,0-1.15.47,1.61,1.61,0,0,0-.45,1.17,1.64,1.64,0,0,0,.46,1.2A1.57,1.57,0,0,0,28,239a1.51,1.51,0,0,0,1.13-.46,1.65,1.65,0,0,0,.44-1.2,1.63,1.63,0,0,0-.45-1.19A1.54,1.54,0,0,0,27.94,235.68Z"/><path class="cls-4" d="M32.07,234.45h1.26v.74a1.57,1.57,0,0,1,.54-.66,1.31,1.31,0,0,1,.74-.23,1.38,1.38,0,0,1,.6.15l-.46,1.27a1,1,0,0,0-.43-.13.67.67,0,0,0-.57.42,3.85,3.85,0,0,0-.23,1.65v2.66H32.07Z"/><path class="cls-4" d="M40.28,234.45h1.47v5.86H40.28v-.62a2.87,2.87,0,0,1-.86.59,2.4,2.4,0,0,1-.94.18,2.61,2.61,0,0,1-2-.88,3.07,3.07,0,0,1-.83-2.19,3.15,3.15,0,0,1,.8-2.23,2.56,2.56,0,0,1,1.95-.87,2.48,2.48,0,0,1,1,.2,2.71,2.71,0,0,1,.86.6Zm-1.55,1.21a1.49,1.49,0,0,0-1.13.48,1.74,1.74,0,0,0-.45,1.24,1.76,1.76,0,0,0,.46,1.25,1.49,1.49,0,0,0,1.13.49,1.52,1.52,0,0,0,1.15-.48,1.76,1.76,0,0,0,.46-1.26,1.71,1.71,0,0,0-.46-1.24A1.53,1.53,0,0,0,38.73,235.66Z"/><path class="cls-4" d="M49,235.64l-1.22.67a2.08,2.08,0,0,0-.68-.5,2,2,0,0,0-.79-.14,1.84,1.84,0,0,0-1.34.49,1.68,1.68,0,0,0-.51,1.26,1.62,1.62,0,0,0,.49,1.22,1.78,1.78,0,0,0,1.29.47,1.87,1.87,0,0,0,1.54-.67l1.16.79a3.57,3.57,0,0,1-5.08.31,3,3,0,0,1,.74-4.84,3.55,3.55,0,0,1,1.71-.41,3.45,3.45,0,0,1,1.57.35A3,3,0,0,1,49,235.64Z"/><path class="cls-4" d="M50.87,232a.9.9,0,0,1,.66.28.93.93,0,0,1,.28.68.92.92,0,0,1-.27.67.89.89,0,0,1-.66.28.9.9,0,0,1-.67-.28,1,1,0,0,1-.28-.69.94.94,0,0,1,.93-.94Zm-.74,2.41h1.47v5.86H50.14Z"/><path class="cls-4" d="M55.7,234.3a3.1,3.1,0,0,1,1.56.42,3,3,0,0,1,1.14,1.13,3,3,0,0,1,.41,1.54,3.08,3.08,0,0,1-.41,1.55,3,3,0,0,1-1.12,1.13,3.11,3.11,0,0,1-1.57.41,2.93,2.93,0,0,1-2.15-.9,3.11,3.11,0,0,1,.12-4.47A2.94,2.94,0,0,1,55.7,234.3Zm0,1.38a1.52,1.52,0,0,0-1.14.48,1.69,1.69,0,0,0-.46,1.22,1.72,1.72,0,0,0,.45,1.24,1.51,1.51,0,0,0,1.14.47,1.53,1.53,0,0,0,1.15-.48,1.89,1.89,0,0,0,0-2.46A1.52,1.52,0,0,0,55.72,235.69Zm.25-4.42h1.74l-2,2.11H54.68Z"/><path class="cls-4" d="M60,234.45h1.47v.6a3.52,3.52,0,0,1,.91-.59,2.19,2.19,0,0,1,.83-.17,2,2,0,0,1,1.48.61,2.09,2.09,0,0,1,.51,1.53v3.88H63.75v-2.57a6.52,6.52,0,0,0-.09-1.39,1,1,0,0,0-.33-.52.92.92,0,0,0-.58-.18,1.08,1.08,0,0,0-.77.3,1.59,1.59,0,0,0-.44.83,6.68,6.68,0,0,0-.06,1.19v2.35H60Z"/><path class="cls-4" d="M75.59,237.81H70.87a1.57,1.57,0,0,0,.55,1,1.72,1.72,0,0,0,1.13.37A2,2,0,0,0,74,238.6l1.24.58a2.92,2.92,0,0,1-1.11,1,3.46,3.46,0,0,1-1.54.32,3,3,0,0,1-2.25-.87,3,3,0,0,1-.87-2.18,3.07,3.07,0,0,1,.86-2.23,2.91,2.91,0,0,1,2.17-.89,3,3,0,0,1,2.25.89,3.21,3.21,0,0,1,.87,2.34Zm-1.47-1.16a1.48,1.48,0,0,0-.57-.8,1.67,1.67,0,0,0-1-.31,1.76,1.76,0,0,0-1.08.35,1.92,1.92,0,0,0-.54.76Z"/><path class="cls-4" d="M5.11,245.63H6.6v7.93H5.11Z"/><path class="cls-4" d="M8.14,247.7H9.61v.6a3.52,3.52,0,0,1,.91-.59,2.19,2.19,0,0,1,.83-.17,2,2,0,0,1,1.48.61,2.09,2.09,0,0,1,.51,1.53v3.88H11.88V251a6.52,6.52,0,0,0-.09-1.39,1,1,0,0,0-.33-.52.92.92,0,0,0-.58-.18,1.08,1.08,0,0,0-.77.3,1.59,1.59,0,0,0-.44.83,6.68,6.68,0,0,0-.06,1.19v2.35H8.14Z"/><path class="cls-4" d="M14.94,245.54h1.47v2.16h.87V249h-.87v4.6H14.94V249h-.75V247.7h.75Z"/><path class="cls-4" d="M23.94,251.05H19.22a1.57,1.57,0,0,0,.55,1,1.72,1.72,0,0,0,1.13.37,2,2,0,0,0,1.42-.58l1.24.58a2.92,2.92,0,0,1-1.11,1,3.46,3.46,0,0,1-1.54.32,3,3,0,0,1-2.25-.87,3,3,0,0,1-.87-2.18,3.07,3.07,0,0,1,.86-2.23,2.91,2.91,0,0,1,2.17-.89,3,3,0,0,1,2.25.89,3.21,3.21,0,0,1,.87,2.34Zm-1.47-1.16a1.48,1.48,0,0,0-.57-.8,1.67,1.67,0,0,0-1-.31,1.76,1.76,0,0,0-1.08.35,1.92,1.92,0,0,0-.54.76Z"/><path class="cls-4" d="M24.79,247.7h1.26v.74a1.57,1.57,0,0,1,.54-.66,1.31,1.31,0,0,1,.74-.23,1.38,1.38,0,0,1,.6.15L27.48,249a1,1,0,0,0-.43-.13.67.67,0,0,0-.57.42,3.85,3.85,0,0,0-.23,1.65v2.66H24.79Z"/><path class="cls-4" d="M31.42,247.55A3.1,3.1,0,0,1,33,248a3,3,0,0,1,1.14,1.13,3,3,0,0,1,.41,1.54,3.08,3.08,0,0,1-.41,1.55A3,3,0,0,1,33,253.3a3.11,3.11,0,0,1-1.57.41,2.93,2.93,0,0,1-2.15-.9,3.11,3.11,0,0,1,.12-4.47A2.94,2.94,0,0,1,31.42,247.55Zm0,1.38a1.52,1.52,0,0,0-1.14.48,1.69,1.69,0,0,0-.46,1.22,1.72,1.72,0,0,0,.45,1.24,1.51,1.51,0,0,0,1.14.47,1.53,1.53,0,0,0,1.15-.48,1.89,1.89,0,0,0,0-2.46A1.52,1.52,0,0,0,31.44,248.93Z"/><path class="cls-4" d="M37.19,247.7v.65a2.77,2.77,0,0,1,.86-.6,2.49,2.49,0,0,1,1-.2,2.56,2.56,0,0,1,2,.87,3.15,3.15,0,0,1,.8,2.23,3.07,3.07,0,0,1-.83,2.19,2.61,2.61,0,0,1-2,.88,2.43,2.43,0,0,1-.94-.18,2.86,2.86,0,0,1-.87-.59v2.76H35.73v-8Zm1.55,1.21a1.54,1.54,0,0,0-1.15.47,1.71,1.71,0,0,0-.46,1.24,1.76,1.76,0,0,0,.46,1.26,1.52,1.52,0,0,0,1.15.48,1.5,1.5,0,0,0,1.13-.49,1.75,1.75,0,0,0,.46-1.25,1.74,1.74,0,0,0-.45-1.24A1.5,1.5,0,0,0,38.74,248.9Z"/><path class="cls-4" d="M48.89,251.05H44.16a1.57,1.57,0,0,0,.55,1,1.72,1.72,0,0,0,1.13.37,2,2,0,0,0,1.42-.58l1.24.58a2.92,2.92,0,0,1-1.11,1,3.46,3.46,0,0,1-1.54.32,3,3,0,0,1-2.25-.87,3,3,0,0,1-.87-2.18,3.07,3.07,0,0,1,.86-2.23,2.91,2.91,0,0,1,2.17-.89,3,3,0,0,1,2.25.89,3.21,3.21,0,0,1,.87,2.34Zm-1.47-1.16a1.48,1.48,0,0,0-.57-.8,1.67,1.67,0,0,0-1-.31,1.76,1.76,0,0,0-1.08.35,1.92,1.92,0,0,0-.54.76Z"/><path class="cls-4" d="M49.73,247.7H51v.74a1.57,1.57,0,0,1,.54-.66,1.31,1.31,0,0,1,.74-.23,1.38,1.38,0,0,1,.6.15L52.42,249a1,1,0,0,0-.43-.13.67.67,0,0,0-.57.42,3.85,3.85,0,0,0-.23,1.65v2.66H49.73Z"/><path class="cls-4" d="M57.93,247.7h1.47v5.86H57.93v-.62a2.87,2.87,0,0,1-.86.59,2.4,2.4,0,0,1-.94.18,2.61,2.61,0,0,1-2-.88,3.07,3.07,0,0,1-.83-2.19,3.15,3.15,0,0,1,.8-2.23,2.56,2.56,0,0,1,1.95-.87,2.48,2.48,0,0,1,1,.2,2.71,2.71,0,0,1,.86.6Zm-1.55,1.21a1.49,1.49,0,0,0-1.13.48,1.74,1.74,0,0,0-.45,1.24,1.76,1.76,0,0,0,.46,1.25,1.49,1.49,0,0,0,1.13.49,1.52,1.52,0,0,0,1.15-.48,1.76,1.76,0,0,0,.46-1.26,1.71,1.71,0,0,0-.46-1.24A1.53,1.53,0,0,0,56.39,248.9Z"/><path class="cls-4" d="M62.35,245.43v2.91a2.77,2.77,0,0,1,.86-.6,2.49,2.49,0,0,1,1-.2,2.56,2.56,0,0,1,2,.87,3.15,3.15,0,0,1,.8,2.23,3.07,3.07,0,0,1-.83,2.19,2.61,2.61,0,0,1-2,.88,2.43,2.43,0,0,1-.94-.18,2.86,2.86,0,0,1-.87-.59v.62H60.89v-8.13Zm1.55,3.47a1.54,1.54,0,0,0-1.15.47,1.71,1.71,0,0,0-.46,1.24,1.76,1.76,0,0,0,.46,1.26,1.52,1.52,0,0,0,1.15.48,1.5,1.5,0,0,0,1.13-.49,1.75,1.75,0,0,0,.46-1.25,1.74,1.74,0,0,0-.45-1.24A1.5,1.5,0,0,0,63.9,248.9Z"/><path class="cls-4" d="M68.75,245.28a.9.9,0,0,1,.66.28.93.93,0,0,1,.28.68.92.92,0,0,1-.27.67.89.89,0,0,1-.66.28.9.9,0,0,1-.67-.28,1,1,0,0,1-.28-.69.94.94,0,0,1,.93-.94ZM68,247.7h1.47v5.86H68Z"/><path class="cls-4" d="M70.66,245.43h1.47v8.13H70.66Z"/><path class="cls-4" d="M74,245.28a.9.9,0,0,1,.66.28.93.93,0,0,1,.28.68.92.92,0,0,1-.27.67.89.89,0,0,1-.66.28.9.9,0,0,1-.67-.28,1,1,0,0,1-.28-.69.94.94,0,0,1,.93-.94Zm-.74,2.41h1.47v5.86H73.31Z"/><path class="cls-4" d="M80.44,245.43h1.47v8.13H80.44v-.62a2.87,2.87,0,0,1-.86.59,2.4,2.4,0,0,1-.94.18,2.61,2.61,0,0,1-2-.88,3.07,3.07,0,0,1-.83-2.19,3.15,3.15,0,0,1,.8-2.23,2.56,2.56,0,0,1,1.95-.87,2.48,2.48,0,0,1,1,.2,2.71,2.71,0,0,1,.86.6ZM78.9,248.9a1.49,1.49,0,0,0-1.13.48,1.74,1.74,0,0,0-.45,1.24,1.76,1.76,0,0,0,.46,1.25,1.49,1.49,0,0,0,1.13.49,1.52,1.52,0,0,0,1.15-.48,1.76,1.76,0,0,0,.46-1.26,1.71,1.71,0,0,0-.46-1.24A1.53,1.53,0,0,0,78.9,248.9Z"/><path class="cls-4" d="M87.73,247.7H89.2v5.86H87.73v-.62a2.87,2.87,0,0,1-.86.59,2.4,2.4,0,0,1-.94.18,2.61,2.61,0,0,1-2-.88,3.07,3.07,0,0,1-.83-2.19,3.15,3.15,0,0,1,.8-2.23,2.56,2.56,0,0,1,1.95-.87,2.48,2.48,0,0,1,1,.2,2.71,2.71,0,0,1,.86.6Zm-1.55,1.21a1.49,1.49,0,0,0-1.13.48,1.74,1.74,0,0,0-.45,1.24,1.76,1.76,0,0,0,.46,1.25,1.49,1.49,0,0,0,1.13.49,1.52,1.52,0,0,0,1.15-.48,1.76,1.76,0,0,0,.46-1.26,1.71,1.71,0,0,0-.46-1.24A1.53,1.53,0,0,0,86.18,248.9Z"/><path class="cls-4" d="M95,245.43h1.47v8.13H95v-.62a2.87,2.87,0,0,1-.86.59,2.4,2.4,0,0,1-.94.18,2.61,2.61,0,0,1-2-.88,3.07,3.07,0,0,1-.83-2.19,3.15,3.15,0,0,1,.8-2.23,2.56,2.56,0,0,1,1.95-.87,2.48,2.48,0,0,1,1,.2,2.71,2.71,0,0,1,.86.6Zm-1.55,3.47a1.49,1.49,0,0,0-1.13.48,1.74,1.74,0,0,0-.45,1.24,1.76,1.76,0,0,0,.46,1.25,1.49,1.49,0,0,0,1.13.49,1.52,1.52,0,0,0,1.15-.48,1.76,1.76,0,0,0,.46-1.26,1.71,1.71,0,0,0-.46-1.24A1.53,1.53,0,0,0,93.47,248.9Z"/><path class="cls-5" d="M153.66,129.66l-12.35-10.25c-25.87,25-27.05,64.42-27.05,64.42l16.18,1.57A102.3,102.3,0,0,1,153.66,129.66Z"/><path class="cls-4" d="M130.49,205.81l-16.25.73H77.12v1.86H113a119.51,119.51,0,0,0,26.72,63.81l1-1,12.73-10.5A102.31,102.31,0,0,1,130.49,205.81Z"/><path class="cls-3" d="M167.27,274.53,156.72,287.3c32.63,27.75,64.42,27.05,64.42,27.05l1.63-16.76A102.3,102.3,0,0,1,167.27,274.53Z"/><path class="cls-6" d="M241.64,297.69l1.4,16.07s40.47-1.72,64.64-26.46l-10-12.31A102.29,102.29,0,0,1,241.64,297.69Z"/><path class="cls-5" d="M335,205.77a102.31,102.31,0,0,1-23.31,55.34l12.94,10.78s26.29-27.41,27.05-64.42Z"/><path class="cls-4" d="M335.11,186.23l16.57-1.47s-.22-35.95-26.46-64.64l-12.74,10.36A102.29,102.29,0,0,1,335.11,186.23Z"/><path class="cls-3" d="M334.18,76.16v.31l0,0L308.8,101.77a119.51,119.51,0,0,0-64-26.23v1.41l-1.64,16.11a102.31,102.31,0,0,1,55.58,23.47L309.21,104l26-26h79.42V76.16Z"/><path class="cls-6" d="M222.07,76.93l-1,0h.08v0h.93V39.8h-1.86V75.64a119.51,119.51,0,0,0-63.81,26.72l1,1,10.17,12.41a102.29,102.29,0,0,1,55.91-22.86Z"/><path class="cls-7" d="M44.6,101.5A18.38,18.38,0,0,1,30.48,97a18.38,18.38,0,0,1-14.11,4.46s-2.83,24,14.11,29.34C47.43,125.49,44.6,101.5,44.6,101.5Z"/><path class="cls-5" d="M41.67,104.81a21.83,21.83,0,0,1-11.19-3.55,21.83,21.83,0,0,1-11.19,3.55s-.81,18.3,11.19,22.48C42.48,123.11,41.67,104.81,41.67,104.81Z"/><path class="cls-8" d="M35,118.86a.67.67,0,0,1-.67.68H26.65a.67.67,0,0,1-.67-.68v-7.51a.67.67,0,0,1,.67-.68h7.68a.67.67,0,0,1,.67.68Z"/><path class="cls-8" d="M33.39,112.59h-5.8V109a2.9,2.9,0,1,1,5.8,0Zm-4.53-1.3h3.25V109a1.63,1.63,0,1,0-3.25,0Z"/><ellipse class="cls-5" cx="30.48" cy="114.19" rx="1.25" ry="1.28"/><polygon class="cls-5" points="30.96 114.6 30.48 114.6 30 114.6 29.41 117.47 30.48 117.47 31.55 117.47 30.96 114.6"/><path class="cls-4" d="M421.31,192.61H409.93c-.47,0-1,.14-1.39-.07a2.58,2.58,0,0,1-1.2-1.37c-.06-.29.72-1,1.2-1.11a19.91,19.91,0,0,1,3.25-.05l.4-2c2.83,0,5.64,0,8.45.05.4,0,.77.71,1.08,1l.1-1.8h-10.6c-2.54,0-5.07,0-7.61,0-1.65,0-2.33-.73-2.33-2.36q0-10.79,0-21.58c0-1.64.76-2.34,2.38-2.33q14.77,0,29.55,0c1.48,0,2.42.53,2.42,2.11,0,7.54,0,15.08-.25,22.71.06.59-.14,2.83-.07,4.5.13,2.8-2,4.68-3.57,6.65a1.11,1.11,0,0,1-.75.37c-2.3,0-4.6.05-6.9,0-.34,0-.79-.48-1-.84C422.5,195.33,422,194.09,421.31,192.61ZM403.94,164c0,3-.3,6,.16,8.83.17,1.07,2,2.34,3.27,2.64s1.69-1.18,1.67-2.47a1.14,1.14,0,0,1,.71-.85,1.77,1.77,0,0,1,1.22.42c1.51,1.25,2.92,2.61,4.47,3.79a1.76,1.76,0,0,0,1.69-.08c1.63-2.48,3.12-5.06,4.68-7.6.22-.36.6-.9.89-.89a2.13,2.13,0,0,1,1.22.72,18.73,18.73,0,0,0,1.39,1.68c1.62,1.28,3.26,2.52,5,3.64a12,12,0,0,0,2.64.94V164Zm.09,18.39h17.4l.23,2.19a53.72,53.72,0,0,0,.17-5.49c0-1.12.23-2.09,1.58-2.07s1.57,1,1.57,2.11c0,1.62,0,3.24,0,5,2.44-2.12,5.24-1.71,8-1.83v-5.4a4.32,4.32,0,0,1-1.42-.49c-1.87-1.56-3.62-3.27-5.52-4.79-3.51-2.8-3.42-2.34-5.5,1-1.1,1.75-1.94,3.66-2.94,5.48a1.43,1.43,0,0,1-.88.7,1.54,1.54,0,0,1-1-.45c-1.09-1-2.06-2.15-3.23-3-2.22-1.71-3.05-1.32-3.75,1.45a1.63,1.63,0,0,1-1,1c-.29.08-.8-.32-1.08-.62-.77-.85-1.48-1.76-2.21-2.65l-.4.26Z"/><path class="cls-3" d="M44.83,334.8l-.73,1.26c-.21,0-.35,0-.43,0q-1.41-.74-2.8-1.49c-2.54-1.37-4.62-1.06-6.58,1l-3.66,3.84c-1,1.08-2.15,2-1.92,3.85.16,1.23-1,2-2.25,2A2.16,2.16,0,0,1,24.13,343c-.26-2.67-1.37-4-3.84-4.73a2.21,2.21,0,0,1-1.67-2.72,2.33,2.33,0,0,1,2.77-1.86,2.25,2.25,0,0,1,1.85,2.74c-.74,2.08.95,3,2,3.8s2.48.15,3.48-1c1.41-1.66,3-3.17,4.49-4.75.84-.88,1.67-1.62,1.56-3.13,0-.63,1.07-1.73,1.83-1.93s2.16.47,2.3,1c.48,1.88,2,2.27,3.37,3C43.06,333.88,43.85,334.28,44.83,334.8Z"/><path class="cls-3" d="M58.57,347.37l2.15-2.63c.9.76,3.87,2.69,4.51,3.6a2.53,2.53,0,0,1,0,2.3c-.23.38-1.54.47-2.11.18A42.58,42.58,0,0,1,58.57,347.37Z"/><path class="cls-3" d="M52.6,332a8.06,8.06,0,1,0,8,8A8.09,8.09,0,0,0,52.6,332Zm-.07,13.13a5.06,5.06,0,0,1,0-10.13,5.06,5.06,0,1,1,0,10.13Z"/><path class="cls-3" d="M59.56,323.06h0l1.95-1.95a0,0,0,0,0,0-.06,2.32,2.32,0,0,0-3.25,2,0,0,0,0,0,0,0Z"/><path class="cls-3" d="M62.74,322.23a2.54,2.54,0,0,0-.45-.68,0,0,0,0,0-.06,0L60.79,323a0,0,0,0,0,0,.07h2.06a0,0,0,0,0,0,0A2.3,2.3,0,0,0,62.74,322.23Z"/><path class="cls-3" d="M58.45,323.87a0,0,0,0,0,0,.05,2.33,2.33,0,0,0,.19.41l-.06,0c-2.2,2.1-4.48,4.11-6.74,6.15l.37.72a17.09,17.09,0,0,0,3-1.56c1.56-1.24,2.93-2.72,4.47-4a2.2,2.2,0,0,1,.4-.26,2.31,2.31,0,0,0,1.43-.12,2.35,2.35,0,0,0,1.27-1.37,0,0,0,0,0,0-.05Z"/><path class="cls-4" d="M58.87,187.68v-8.6c.63,0,1.21,0,1.79,0a1.48,1.48,0,0,1,1.61,1.57c.2,2.82.21,2.84,3,3.73a1.23,1.23,0,0,0,1-.35c2.59-2.86,3-1.77,4.81.08.21.21.43.41.63.63.93,1,.93,1.66,0,2.63l-1.5,1.55a.45.45,0,0,0-.06.13l1.35,3.47c.83,0,1.68,0,2.52,0a1.38,1.38,0,0,1,1.6,1.53c0,1,0,2,0,3.06s-.49,1.7-1.46,1.55c-2.18-.34-3.4.46-3.74,2.64a4.88,4.88,0,0,1-.44.95c.59.51,1.25,1,1.86,1.62a1.41,1.41,0,0,1,0,2.23c-.67.7-1.36,1.38-2,2.07s-1.68.94-2.3,0c-1.31-1.94-2.84-1.73-4.51-.68a2.83,2.83,0,0,0-.78,1.05c-.09.16,0,.42,0,.63,0,2.81-.47,3.19-3.41,2.76v-8.57c2.62-.24,5-.89,6.6-3.19a7.9,7.9,0,0,0,1.46-4.91C66.79,192,64.73,188.11,58.87,187.68Z"/><path class="cls-4" d="M56.84,209.64v2.29c-2.34,0-4.62,0-6.9,0a.93.93,0,0,1-.7-.53A23.91,23.91,0,0,0,44,201.2c-3.69-4.4-3.85-13.45,2.7-18.54a15,15,0,0,1,10.08-3.41v2.13c-1.11.16-2.25.23-3.34.49-4.74,1.15-9.91,5.15-9.66,12.07a10.15,10.15,0,0,0,2.42,6.43,24.41,24.41,0,0,1,4.64,8.39c.23.68.51.95,1.24.92C53.63,209.6,55.15,209.64,56.84,209.64Z"/><path class="cls-4" d="M57.69,213.73c2.08,0,4.16,0,6.24,0,.9,0,1.3.27,1.31,1.23s-.44,1.23-1.32,1.23c-4.2,0-8.4,0-12.6,0-1,0-1.21-.42-1.21-1.31s.35-1.18,1.22-1.17C53.44,213.76,55.57,213.73,57.69,213.73Z"/><path class="cls-4" d="M57.7,220.34c-2.16,0-4.32,0-6.48,0-1,0-1.09-.46-1.11-1.26S50.36,218,51.2,218q6.48,0,13,0c.88,0,1.07.42,1.06,1.18s-.14,1.22-1,1.2C62,220.31,59.86,220.34,57.7,220.34Z"/><path class="cls-4" d="M51.52,222.29H63.69C61.8,225.48,53.85,225.51,51.52,222.29Z"/><path class="cls-4" d="M55.9,226.32h3.21C58.32,227.74,57.17,227.78,55.9,226.32Z"/><circle class="cls-5" cx="412.94" cy="322.81" r="3.34"/><path class="cls-5" d="M439.11,315a3.34,3.34,0,1,0-3.33-3.53l-6.49.77a3.33,3.33,0,0,0-6.12,2.61L417.59,318a6.69,6.69,0,1,0-1.91,10.88l3.3,4.36a3.32,3.32,0,0,0-1.1,2.46s0,0,0,0l-4.63,1a3.34,3.34,0,1,0,.25,1.26s0-.09,0-.13l4.61-1a3.31,3.31,0,0,0,5.24,1.4l3.76,2.71a3.31,3.31,0,1,0,.67-.94l-3.68-2.65a3.16,3.16,0,0,0,.33-2.58l7.37-2.42a6.69,6.69,0,1,0-.13-12.46l-2.94-4a3.33,3.33,0,0,0,.92-2.3,3.19,3.19,0,0,0,0-.36l6.31-.75A3.33,3.33,0,0,0,439.11,315Zm-31.71,7.85a5.53,5.53,0,1,1,5.53,5.53A5.54,5.54,0,0,1,407.4,322.81Zm32.29,3.34a5.52,5.52,0,0,1-7.83,5h0a5.53,5.53,0,1,1,7.84-5Zm-12.22,0a6.68,6.68,0,0,0,2.9,5.51l-6.43,2.11a3.33,3.33,0,0,0-4-1.14l-3.25-4.3a6.66,6.66,0,0,0,1.65-9.42l5.4-3.09a3.28,3.28,0,0,0,4.05.85l2.83,3.81A6.68,6.68,0,0,0,427.47,326.15Z"/><path class="cls-3" d="M426.74,96.17h3.73l1,1h-4.74Zm0-1.68h4.13l.94-1h-5.07Zm13.52-.72.3-.25H440Zm-13.52-1.94h6.69l.94-1h-7.63Zm0-2.66h16.73v-1H426.74Zm16.73-3.63H426.74v1h16.73Zm2.24,14.79v9.93H424.5V83.13h21.21v6.08l1.9-1.59v-8.8h-25v32.76h25V98.73Zm-2.24,3.82h-2.34l-1.17,1h3.5Zm0-2-.32.27h.32Zm-6.23-11.34,1,1h4.33l.88-.74v-.24Zm-10.5,16.93h16.73v-1H426.74Zm0-8h7.5l-1-1h-6.49Zm0,2.66H437l-1-1h-9.25Zm0,2.66h13l-1-1h-12Zm26.13-13.63-2.65-3.18-10.06,8.4-4.35-4.19-2.87,3,7,6.77Z"/><path class="cls-6" d="M235.17,35.5h16.25a8.13,8.13,0,0,0-5.3-7.62A5.39,5.39,0,0,0,244.24,18V11.15H239.5a7,7,0,0,0-14,0h-4.74V18a5.39,5.39,0,0,0-1.89,9.89,8.13,8.13,0,0,0-5.3,7.62h16.26a8.13,8.13,0,0,0-5.3-7.62A5.39,5.39,0,0,0,222.63,18V13h3a7,7,0,0,0,13.78,0h3V18a5.39,5.39,0,0,0-1.89,9.89A8.13,8.13,0,0,0,235.17,35.5Zm-2.68-18.73a5.14,5.14,0,1,1,5.14-5.14A5.15,5.15,0,0,1,232.49,16.77Z"/><path class="cls-6" d="M257,369.93l-3.47-.72a2.85,2.85,0,0,0-3,1.26,12.88,12.88,0,0,0-1.93-.8v-2.06a2.85,2.85,0,0,0-2.84-2.84h-3.55a2.85,2.85,0,0,0-2.84,2.84v2.08a12.43,12.43,0,0,0-1.92.79,2.85,2.85,0,0,0-3-1.27l-3.48.72a2.86,2.86,0,0,0-2.2,3.37l.88,4.18a2.85,2.85,0,0,0,3.36,2.2l1.1-.23a8.22,8.22,0,0,0,2.29,2.2,13.93,13.93,0,0,0,7.57,2.06c4.36,0,8.12-1.75,9.85-4.27l1.12.23a2.84,2.84,0,0,0,3.36-2.2l.88-4.18a2.86,2.86,0,0,0-2.2-3.37Zm-13,12.36a12.47,12.47,0,0,1-6.79-1.83,7.44,7.44,0,0,1-1.54-1.33l.84-.18a2.84,2.84,0,0,0,2.2-3.36l-.78-3.75a10.76,10.76,0,0,1,1.45-.65v.69a2.85,2.85,0,0,0,2.84,2.84h3.55a2.85,2.85,0,0,0,2.84-2.84v-.72a11.88,11.88,0,0,1,1.46.64l-.8,3.8a2.86,2.86,0,0,0,2.2,3.37l.86.17c-1.59,1.88-4.73,3.17-8.34,3.17Zm0,0"/><g class="cls-9"><path class="cls-6" d="M260,364.58a3.73,3.73,0,1,1-3.73-3.73,3.73,3.73,0,0,1,3.73,3.73Zm0,0"/><path class="cls-6" d="M232.53,368.23a3.73,3.73,0,1,0-4.42-2.88,3.73,3.73,0,0,0,4.42,2.88Zm0,0"/></g><path class="cls-6" d="M245.85,356a.07.07,0,0,0,0-.11,3.86,3.86,0,0,0-5.4,3.3.07.07,0,0,0,.07.07h2.07l0,0Z"/><path class="cls-6" d="M244.6,359.17a.07.07,0,0,0,0,.11h3.42a.07.07,0,0,0,.07-.07,3.82,3.82,0,0,0-.3-1.31,4.22,4.22,0,0,0-.74-1.13.07.07,0,0,0-.09,0Z"/><path class="cls-6" d="M247.84,360.64h-7.15a.07.07,0,0,0-.06.09,3.87,3.87,0,0,0,5.15,2.27,3.92,3.92,0,0,0,2.12-2.27.07.07,0,0,0-.06-.09"/><path class="cls-6" d="M233.84,8.47a.06.06,0,0,0,0-.09,3.33,3.33,0,0,0-4.67,2.85.06.06,0,0,0,.06.06H231l0,0Z"/><path class="cls-6" d="M232.77,11.19a.06.06,0,0,0,0,.1h3a.06.06,0,0,0,.06-.06,3.3,3.3,0,0,0-.26-1.13,3.65,3.65,0,0,0-.64-1,.06.06,0,0,0-.08,0Z"/><path class="cls-6" d="M235.57,12.45h-6.17a.06.06,0,0,0-.05.08,3.34,3.34,0,0,0,4.45,2,3.38,3.38,0,0,0,1.83-2,.06.06,0,0,0-.05-.08"/><path class="cls-5" d="M435.75,322.73a.07.07,0,0,0,0-.11,3.87,3.87,0,0,0-5.43,3.31.07.07,0,0,0,.07.07h2.08l0,0Z"/><path class="cls-5" d="M434.5,325.89a.07.07,0,0,0,0,.12H438a.07.07,0,0,0,.07-.07,3.84,3.84,0,0,0-.3-1.31,4.24,4.24,0,0,0-.75-1.13.07.07,0,0,0-.09,0Z"/><path class="cls-5" d="M437.76,327.36h-7.18a.07.07,0,0,0-.06.09,3.89,3.89,0,0,0,5.18,2.28,3.94,3.94,0,0,0,2.13-2.28.07.07,0,0,0-.06-.09"/><path class="cls-4" d="M61.13,189.44a.12.12,0,0,0,0-.19,7,7,0,0,0-2.23-.55v3Z"/><path class="cls-4" d="M64.68,192.81a7.54,7.54,0,0,0-1.33-2,.12.12,0,0,0-.17,0l-4.28,4.27a.12.12,0,0,0,.08.21H65.1a.12.12,0,0,0,.12-.12A6.82,6.82,0,0,0,64.68,192.81Z"/><path class="cls-4" d="M64.7,197.67H58.87v4.74a6.9,6.9,0,0,0,2.15-.52,7,7,0,0,0,3.79-4.06A.12.12,0,0,0,64.7,197.67Z"/></svg>