<svg id="Capa_1" data-name="Capa 1" xmlns="http://www.w3.org/2000/svg" viewBox="0 0 62 63.23"><defs><style>.cls-1{fill:#9a9a9a;}.cls-2{fill:#687d93;}</style></defs><title>eficiencia_icon</title><path class="cls-1" d="M53.61,49.57l-9.38-9.84a17.07,17.07,0,0,0,4.07-10.5A17.64,17.64,0,0,0,13,28.08,17.52,17.52,0,0,0,30.1,46,17.71,17.71,0,0,0,41,42.69l9.38,9.84a2.23,2.23,0,0,0,3.12.1A2.14,2.14,0,0,0,53.61,49.57ZM30.24,41.66A13,13,0,1,1,43.89,29.08,13.14,13.14,0,0,1,30.24,41.66Z"/><path class="cls-2" d="M8.79,3.76l39.52.07c8.26,0,8.62.36,8.63,8.41,0,4.63,0,9.25,0,13.88,0,.89.44,2.28-.8,2.51s-1.78-1.13-2.2-2.14c-.89-2.15-.53-4.43-.54-6.65,0-12.58,0-12.58-12.73-12.59-8.69,0-17.38,0-26.07,0-3.17,0-4.74,1.34-4.71,4.48.15,13.31.33,26.62.47,39.93,0,2.92,1.84,3.37,4.2,3.36q12-.06,24,0c1.81,0,3.63.22,5.44.34l.15,2.16c-.62,1.61-2,1.79-3.43,1.79-10.9.05-21.81-.15-32.71.3a4.64,4.64,0,0,1-3-3.71C5,39.5,5,23.15,5,6.8,5.42,4.71,6.31,3.26,8.79,3.76Z"/><path class="cls-1" d="M37.69,22.66c-3.07-3.48-6.84-4.12-10.89-2.84a8.93,8.93,0,0,0-4.75,3.89A10.31,10.31,0,0,0,21,32.33,9.44,9.44,0,0,0,25,37.58a9.53,9.53,0,0,0,6.6,1.82,9.35,9.35,0,0,0,4.8-1.64,6,6,0,0,1,.6-.38.62.62,0,0,1,.92.2c.28.4.09.68-.25.88a16.34,16.34,0,0,1-1.66,1c-2.48,1.06-5.07,1.86-7.78,1.13a12.22,12.22,0,0,1-7.56-5.05,11.38,11.38,0,0,1-1.62-9.73,11.47,11.47,0,0,1,6.31-7.58A12.54,12.54,0,0,1,33,17.3a13.08,13.08,0,0,1,5.47,2.62.76.76,0,0,1,.06,1.16A6.24,6.24,0,0,0,37.69,22.66Z"/><path class="cls-1" d="M37.6,31.3c-1.75-.46-3.07-1.74-4.69-2.44-.23-.1-.44-.48-.69-.24s.08.53.26.76a20,20,0,0,1,3,4.29,1.49,1.49,0,0,0,1.84,1c.8-.25,1.36-.78,1.38-1.37C38.73,32.1,38.4,31.51,37.6,31.3Zm-.49,2.55a.73.73,0,0,1-.75-.77c0-.55.36-.77.86-.75s.85.17.93.73A1,1,0,0,1,37.12,33.84Z"/></svg>