<svg id="Capa_1" data-name="Capa 1" xmlns="http://www.w3.org/2000/svg" viewBox="0 0 62 62"><defs><style>.cls-1{fill:#fff;}</style></defs><title>enriquecido_icon</title><path class="cls-1" d="M61,22c-.1-1.71-2.13-3-6.21-4.07A2.27,2.27,0,0,0,55,17V10h0c-.36-5.82-24.25-6-27-6S1.38,4.17,1,10H1v7c0,1.9,2.46,3.38,6.1,4.49A2,2,0,0,0,7,22H7v7c-3.93,1-5.89,2.33-6,4H1v7c0,1.33,1.19,2.45,3.15,3.38A2.24,2.24,0,0,0,4,44H4v7c0,3.32,7.5,5.39,15.82,6.36a.89.89,0,0,0,.18,0h.05c1.61.18,3.24.32,4.85.42l.1,0,.05,0c2,.13,4.06.19,5.95.19s3.9-.06,5.95-.19H37l.1,0c1.61-.1,3.24-.24,4.85-.42H42a.66.66,0,0,0,.18,0C50.5,56.39,58,54.33,58,51V44h0c-.07-1.22-1.11-2.25-3.18-3.1A2.25,2.25,0,0,0,55,40V33.46c3.59-1.1,6-2.58,6-4.46V22Zm-8.1,18.32-.34.3A9,9,0,0,1,50,42V37.23a14.89,14.89,0,0,0,3-1.37V40a.63.63,0,0,1-.11.33M30.53,45H29V40h1c1,0,2,0,3-.1v5l-.64,0L30.53,45m-4.37,0-1.37,0h-.17L23,44.88v-5c1,0,2,.08,3,.1h1v5h-.84M8.09,42.7l-.09,0V37.84c.93.26,1.94.48,3,.69v4.88q-1.38-.29-2.54-.61l-.37-.1M29.17,51H30v5q-2.07,0-4-.12v-5c1,0,2,.08,3,.1h.16M33,51c1,0,2,0,3-.1v5Q34.07,56,32,56V51h1Zm8-.45v5q-1.44.16-3,.27v-5c1-.07,2-.15,3-.24m2-.22c1-.12,2-.26,3-.42V54.8c-.94.17-1.95.32-3,.46Zm5-.78c1.06-.21,2.07-.44,3-.69v4.83c-.89.26-1.89.51-3,.74Zm-34,0v4.88c-1.1-.23-2.11-.48-3-.74V48.84c.93.25,1.94.48,3,.69m2,.36c1,.16,2,.3,3,.42v4.95c-1.06-.13-2.06-.29-3-.46Zm5,.63c1,.1,2,.18,3,.24v5q-1.55-.11-3-.26Zm-2.48-6-.3,0-.21,0v-5c1,.09,2,.18,3,.25v5c-.84-.06-1.67-.13-2.48-.2M16,39.31v4.94c-1.06-.14-2.06-.29-3-.46V38.89c1,.16,2,.3,3,.42m19.67,5.39-.67.05v-5c1-.07,2-.15,3-.24v5l-1.9.18-.43,0M40,44.26V39.31c1-.12,2-.27,3-.42V43.8c-.94.17-1.95.32-3,.46m5-5.72c1.07-.21,2.07-.44,3-.69v4.83q-1.34.38-3,.74ZM31.33,34l-2.21-.08H29v-5c1,0,2,.08,3,.09h1v5l-1.45,0h-.22M8,19.67V14.84c.93.25,1.94.48,3,.69v4.88l-.37-.08L9.08,20,8,19.67M26.17,17,27,17v5c-1.35,0-2.69,0-4-.11v-5c1,0,2,.08,3,.1ZM30,17c1,0,2-.05,3-.1v5l-.51,0h0l-2,.07h-.32L29,22V17l.83,0Zm22.79.5h0l-.37.28A9.73,9.73,0,0,1,50,19V14.23a15,15,0,0,0,3-1.38V17a.82.82,0,0,1-.23.49M40,21.25V16.31c1-.12,2-.26,3-.43v4.9c-1,.17-2,.32-3,.46m5-.85V15.54c1.07-.21,2.07-.44,3-.69v4.82c-.9.26-1.91.51-3,.74m-7-3.88v5c-1,.1-2,.19-3,.26v-5c1-.07,2-.15,3-.24m-20,5v-5c1,.1,2,.17,3,.24v5c-1-.07-2-.16-3-.26m-2-5.18v4.94l-.6-.07L15,21.12l-1.7-.27L13,20.8V15.89c1,.16,2,.3,3,.42M26.75,33.74l-.41,0-1.88-.17-.39,0H24l0-5c1,.09,2,.18,3,.25v5l-.25,0M20.14,33,19,32.8V27.89c1,.16,2,.3,3,.43v4.94L20.21,33h-.07M17,27.53v4.87c-1.11-.24-2.11-.49-3-.75V26.84c.94.25,1.94.48,3,.69m-5-1.3V31A6.18,6.18,0,0,1,9.08,29.2L9,29.09,9,29V24.86a15,15,0,0,0,3,1.37M36,29c1,0,2,0,3-.09v5Q37,34,35,34V29h1Zm12.92,3.84L47.57,33l-.8.12-.77.1V28.31q1.54-.19,3-.42V32.8l-.1,0m-6.77.85L41,33.75v-5c1-.07,2-.15,3-.25v5l-1.76.17h-.1M53.56,31.8,52,32.19l-.76.17-.24,0V27.53c1.07-.21,2.07-.44,3-.69v4.83l-.44.12M59,22.07c-.09.68-1.63,1.58-4.38,2.43a67.09,67.09,0,0,1-16.09,2.4l-1.08,0-.91,0c-.83,0-1.67,0-2.54,0s-1.7,0-2.53,0l-.9,0-1.08,0a67.1,67.1,0,0,1-16.09-2.4c-2.72-.85-4.26-1.74-4.38-2.42A.16.16,0,0,1,9,22l.21,0,1.2.27c2,.43,4.19.78,6.53,1h0c1.6.19,3.26.33,5,.43H22q1.84.11,3.72.15c.77,0,1.53,0,2.26,0h1.61a76.77,76.77,0,0,0,18.68-2.31l.63-.18.38-.12,1-.36.17-.06.82-.33.22-.1c.28-.13.55-.25.8-.38l.31-.18.35-.21.2-.11c4.48,1,5.66,2,5.77,2.45M28,6c16.49,0,24.83,2.6,25,4.09-.12.67-1.66,1.57-4.37,2.41a67.3,67.3,0,0,1-16.09,2.4l-1.08,0-.9,0L28,15c-.87,0-1.71,0-2.54,0l-.91,0-1.08,0A67.26,67.26,0,0,1,7.39,12.5C4.67,11.65,3.13,10.76,3,10.09,3.17,8.6,11.51,6,28,6M3,17V12.86a14.79,14.79,0,0,0,3,1.38V19c-1.94-.73-3-1.46-3-2M7.85,30.84l.05,0c1.37,1.38,4.2,2.47,7.73,3.28l.25.05.79.17A76.06,76.06,0,0,0,28,35.82h0c1.35.08,2.74.13,4.15.16L34,36l2.12,0q2,0,3.87-.16h0a77.2,77.2,0,0,0,11.55-1.48,18.15,18.15,0,0,1-3,1.16,69.11,69.11,0,0,1-17.28,2.45l-.68,0h-.74L28,38c-.87,0-1.71,0-2.54,0l-.91,0-1.08,0A67.37,67.37,0,0,1,7.39,35.5C4.64,34.64,3.1,33.74,3,33.06c.11-.38,1.12-1.31,4.84-2.22M3,40V35.85a14.78,14.78,0,0,0,3,1.38V42l-.57-.23v0C3.84,41.14,3,40.5,3,40M6,51V46.86a14.93,14.93,0,0,0,3,1.37V53c-1.94-.73-3-1.46-3-2m47,2V48.23a14.88,14.88,0,0,0,3-1.37V51c0,.56-1.06,1.29-3,2m3-8.94c-.11.68-1.64,1.58-4.37,2.42a67.31,67.31,0,0,1-16.09,2.4l-1.08,0-.9,0L31,49l-2.53,0-.9,0-1.09,0a67.17,67.17,0,0,1-16.09-2.4C7.74,45.68,6.21,44.81,6,44.14l.92.3.1,0,.83.25.32.09.49.13A72.71,72.71,0,0,0,22,46.82h0c1.55.09,3.13.15,4.74.17H28l1.68,0c1.46,0,2.9-.08,4.31-.16h0c1.71-.1,3.37-.25,5-.43h.08c1.78-.2,3.46-.45,5-.75l1-.18.21,0A27.07,27.07,0,0,0,52.51,43l.27-.16.32-.2.29-.18c2,.7,2.52,1.33,2.58,1.58M56,31V26.24a15,15,0,0,0,3-1.38V29c0,.56-1.06,1.29-3,2"/></svg>