<svg id="Capa_1" data-name="Capa 1" xmlns="http://www.w3.org/2000/svg" viewBox="0 0 62 63.23"><defs><style>.cls-1{fill:#706f6f;}.cls-2{fill:#687d93;}.cls-3{fill:#fff;}.cls-4{fill:#afafaf;}</style></defs><title>enriquecimiento_icon</title><path class="cls-1" d="M58.73,41.7c.15,1.63-1.23,2.28-2.23,2.73a18.53,18.53,0,0,1-14.87.77,17.71,17.71,0,0,1-2.54-.84c-2.57-1.49-3-5.73-.66-8,.26,3.24,2.94,3,4.94,3.28a33.39,33.39,0,0,0,10.7-.23c1.43-.29,2.93-.51,3.1-2.48.07-.79.58-.73,1-.13a3,3,0,0,1,.56,1.79A3.51,3.51,0,0,1,58.73,41.7Z"/><path class="cls-2" d="M58.76,48.34c.57,3.25-1.7,4.73-4.88,5.37a29.14,29.14,0,0,1-11.25.18,11.77,11.77,0,0,1-4.79-2.32c-1.26-.93-1.37-5.2-.24-6.26.32-.29.83-.74,1,0,.53,1.79,2.26,2,3.51,2.29,4.46.93,9,1.24,13.36-.61a4.21,4.21,0,0,0,1.1-.74c.45-.4.66-1.26,1.48-.9s.62,1.17.66,1.86C58.78,47.57,58.76,48,58.76,48.34Z"/><path class="cls-1" d="M58.46,16c.54,2.42,0,3.46-2.13,4.35A20.33,20.33,0,0,1,43.47,21.6c-1.79-.45-3.91-.66-5.38-2.4-2.31-2.72-1.32-7.43,2.24-8.19.45-.15.61-.24,1.36-.45.35-.17.54,0,.68.31A1.12,1.12,0,0,1,41.91,12c-.44.35-1.11.59-.84,1.32s1,.76,1.61.86a31.52,31.52,0,0,0,12.22-.29A2.91,2.91,0,0,1,57,13.85C58.17,14.09,58.16,15.17,58.46,16Z"/><path class="cls-2" d="M47.72,37.82a15.28,15.28,0,0,1-8.54-1.68c-1.82-1.07-3.12-5.25-1.92-6.93.32-.44.86-.85,1.4-.11,1.4,1.93,3.52,2.44,5.69,2.55a66.43,66.43,0,0,0,8.08,0c1.81-.12,3.69-.55,4.57-2.52.2-.45.46-.61.88-.5s.66.55.79,1c1.08,3.7-.47,6.49-4.29,7.65A20.7,20.7,0,0,1,47.72,37.82Z"/><path class="cls-1" d="M31.36,40.65a45.49,45.49,0,0,1,0-4.83C31.63,33.61,30.27,32.6,30,31s1.65-2.31,1.46-4.67c-.28-3.36-.11-6.81-.06-10.23,0-3.06,1.62-6.33,3.29-7,.63-.26,1.35-.5,1.63.69s-.38,1.37-.92,1.75c-1.33.9-2,2.61-2.2,4.66A110,110,0,0,0,33,28.11c0,5.69.05,11.37.07,17.06,0,2.78.7,5,2.49,6.16A1.46,1.46,0,0,1,36.28,53c-.23,1.14-.91.85-1.45.75-1.49-.29-3.22-3.51-3.4-6.58-.13-2.16,0-4.36,0-6.53Z"/><path class="cls-1" d="M42.14,11l-.45-.49a18.07,18.07,0,0,1,11.14-.1.55.55,0,0,1,.1.62c-.69,1-1.68.71-2.59.51a9.63,9.63,0,0,0-5.06.07C44.21,12,43,12.18,42.14,11Z"/><path class="cls-1" d="M55.94,19.6c.44.2.4.35.39.49-1.47,1-2.5.39-3.36-1.33a1.11,1.11,0,0,1-.15-.31A20.59,20.59,0,0,1,55.94,19.6Z"/><path class="cls-1" d="M52.94,11a6.44,6.44,0,0,0,3,.89,1.71,1.71,0,0,1,.45,2.48,28.9,28.9,0,0,1-15.34.76c-.94-.2-2.33-.26-2.23-1.54s1.25-1.71,2.39-2a8.89,8.89,0,0,0,.88-.31A16.09,16.09,0,0,0,46,10.61,12.18,12.18,0,0,1,51,11C51.67,11.14,52.3,11.41,52.94,11Z"/><path class="cls-1" d="M26.73,38.67H5.79c-.07,0-.12-.05-.09-.09L10,32.4a1.34,1.34,0,0,1,1.09-.46H24a1,1,0,0,1,1,.48l2.46,5.64C27.57,38.37,27.22,38.67,26.73,38.67Z"/><rect class="cls-3" x="11.81" y="33.5" width="11.26" height="0.82"/><rect class="cls-3" x="10.97" y="35.02" width="12.94" height="1.01"/><rect class="cls-3" x="9.78" y="36.88" width="14.92" height="0.98"/><path class="cls-4" d="M27.08,45.11H4.74c-.08,0-.13,0-.1-.08L9.2,39.59a1.57,1.57,0,0,1,1.16-.41H24.18a1.18,1.18,0,0,1,1,.42l2.62,5C28,44.83,27.6,45.11,27.08,45.11Z"/><rect class="cls-3" x="11.32" y="40.56" width="12.31" height="0.73"/><rect class="cls-3" x="10.41" y="41.9" width="14.14" height="0.89"/><rect class="cls-3" x="9.11" y="43.53" width="16.3" height="0.86"/><path class="cls-1" d="M29,52H3c-.09,0-.15,0-.11-.09l5.3-5.8a1.93,1.93,0,0,1,1.35-.44H25.66a1.43,1.43,0,0,1,1.19.45l3.05,5.3C30.07,51.74,29.64,52,29,52Z"/><rect class="cls-3" x="10.48" y="47.18" width="13.93" height="0.77"/><rect class="cls-3" x="9.44" y="48.61" width="16.01" height="0.94"/><rect class="cls-3" x="7.97" y="50.35" width="18.45" height="0.92"/><path class="cls-4" d="M24.67,31.43H7.43a.08.08,0,0,1-.08-.11l3.52-7.12a1,1,0,0,1,.9-.54H22.43a.82.82,0,0,1,.79.55l2,6.5A.57.57,0,0,1,24.67,31.43Z"/><rect class="cls-3" x="12.51" y="25.47" width="9.5" height="0.95"/><rect class="cls-3" x="11.8" y="27.23" width="10.92" height="1.16"/><rect class="cls-3" x="10.8" y="29.37" width="12.58" height="1.13"/><ellipse class="cls-3" cx="47.91" cy="13.24" rx="9.11" ry="2.99"/><path class="cls-4" d="M23.48,23.43H9.42a.06.06,0,0,1-.06-.09l2.87-5.81A.81.81,0,0,1,13,17.1h8.7a.67.67,0,0,1,.64.45l1.65,5.3A.46.46,0,0,1,23.48,23.43Z"/><rect class="cls-3" x="13.56" y="18.57" width="7.75" height="0.77"/><rect class="cls-3" x="12.98" y="20" width="8.9" height="0.95"/><rect class="cls-3" x="12.17" y="21.75" width="10.26" height="0.92"/><path class="cls-1" d="M58.73,25.7c.15,1.63-1.23,2.28-2.23,2.73a18.53,18.53,0,0,1-14.87.77,17.71,17.71,0,0,1-2.54-.84c-2.57-1.49-3-5.73-.66-8,.26,3.24,2.94,3,4.94,3.28a33.39,33.39,0,0,0,10.7-.23c1.43-.29,2.93-.51,3.1-2.48.07-.79.58-.73,1-.13a3,3,0,0,1,.56,1.79A3.51,3.51,0,0,1,58.73,25.7Z"/><path class="cls-1" d="M21.59,16.67H10.74s-.06,0,0-.05l2.21-3.49a.67.67,0,0,1,.57-.26h6.71a.52.52,0,0,1,.5.27L22,16.33C22,16.5,21.84,16.67,21.59,16.67Z"/><rect class="cls-3" x="13.86" y="13.76" width="5.84" height="0.47"/><rect class="cls-3" x="13.42" y="14.62" width="6.71" height="0.57"/><rect class="cls-3" x="12.81" y="15.67" width="7.73" height="0.55"/></svg>