<svg id="Layer_1" data-name="Layer 1" xmlns="http://www.w3.org/2000/svg" viewBox="0 0 512 512"><defs><style>.cls-1{fill:#414042;}</style></defs><title>Artboard 3</title><path class="cls-1" d="M261.78,227.33h16.63a.54.54,0,0,0,.38-.15l26.11-26.09a.53.53,0,0,0-.16-.86,31,31,0,0,0-43.48,26.54A.53.53,0,0,0,261.78,227.33Z"/><path class="cls-1" d="M320.95,238.17H263.42a.53.53,0,0,0-.5.71,30.93,30.93,0,0,0,12.6,15.86q-28.32,49.84-53.18,101.49c-9.61-5-21.29-5.57-30.47,1.28L125.1,296.67A33.06,33.06,0,0,0,129.35,283a7.76,7.76,0,0,0,.11-1.74,8.13,8.13,0,0,0-.13-1.74c-1.14-14-7.87-27-22.68-30.29a31.57,31.57,0,0,0-33.75,15c-8.88,15.67-2.1,36,13.57,44.31a27.52,27.52,0,0,0,28.6-1.18l67.75,61.74c-5.06,12.07-1.82,27.23,8.07,36.45a8,8,0,0,0,.74.57,8.13,8.13,0,0,0,.69.66c27.4,21.48,62.62-14.53,41.54-41.07a8.08,8.08,0,0,0,.47-.78q25.73-53.73,55.35-105.42a31,31,0,0,0,14.7-2.34,31.53,31.53,0,0,0,17.06-18.29A.53.53,0,0,0,320.95,238.17ZM87.59,290.93c-5.33-6.49-5.35-16.83.7-22.84,11.36-11.28,25.79-1.9,26.47,12.23C114.26,295.39,98.09,303.72,87.59,290.93ZM220.69,395c-6.11,5.38-13.3,4.52-19.45.09-6.75-6.87-9.53-19.71-.27-26.09,7.34-5.06,17.3.12,21.92,6.5A14.17,14.17,0,0,1,220.69,395Z"/><path class="cls-1" d="M455.4,169.61a7.7,7.7,0,0,0-1.53-1.08,7.94,7.94,0,0,0-1.7-.82c-13.49-6.25-31-3.49-40,9.15a26.8,26.8,0,0,0-4.56,10.75q-45.36,9.62-89.58,23.52a37.09,37.09,0,0,0-3.09-3.92.53.53,0,0,0-.75,0L294.87,226.4a.53.53,0,0,0,.37.92h27.53a.53.53,0,0,0,.53-.55c0-.62-.09-1.25-.16-1.87q42.38-13.2,85.8-22.53a30.5,30.5,0,0,0,12.52,15.39c14.32,8.89,31.38,5.09,41.07-8.55S468.34,179,455.4,169.61Zm-26,35.74c-7-4.3-10.4-13.58-4.79-20.57,4.85-6,14.73-7.37,21.37-3.82C462.91,191.83,445.54,215.28,429.37,205.35Z"/><polygon class="cls-1" points="479.08 478.59 434.17 464.42 434.17 473.72 42.28 473.72 42.28 78.02 51.16 78.02 36.46 33.12 22.29 78.02 31.71 78.02 31.71 473.72 31.71 479.01 31.71 484.29 434.17 484.29 434.17 493.29 479.08 478.59"/></svg>