<svg id="Capa_1" data-name="Capa 1" xmlns="http://www.w3.org/2000/svg" viewBox="0 0 125 90"><defs><style>.cls-1{fill:#414042;}</style></defs><title>estrategia</title><path class="cls-1" d="M85,20a6.12,6.12,0,0,0-6.79-1.46,5.55,5.55,0,0,0-3.65,5.15,6.56,6.56,0,0,0,1.35,4.43,3.06,3.06,0,0,1,.71,2.4c0,.82-.25,1.81.49,2.18,1.09.55,2.06,1.4,3.31,1.58A2.09,2.09,0,0,0,82,33.73c.25-.21.48-.48.83-.49,1.2,0,1.49-.79,1.39-1.81a4.72,4.72,0,0,1,1-3.58,5.76,5.76,0,0,0,.6-1A6.31,6.31,0,0,0,85,20Zm-1.38,7.48c-.74,1.19-1.48,2.11-2.81,1.68-.6,0-1,0-1.32,0A1.4,1.4,0,0,1,78,28.38c-1-1.51-2-2.94-1.68-4.91a4,4,0,0,1,4.19-3.41,4,4,0,0,1,4.16,3.42A6,6,0,0,1,83.57,27.48Z"/><path class="cls-1" d="M47.26,61.35a.11.11,0,0,0,0-.17,6.21,6.21,0,0,0-8.71,5.31.11.11,0,0,0,.1.11H42a.11.11,0,0,0,.08,0Z"/><path class="cls-1" d="M45.25,66.42a.11.11,0,0,0,.07.19h5.51a.11.11,0,0,0,.11-.11,6.16,6.16,0,0,0-.48-2.1,6.8,6.8,0,0,0-1.2-1.82.11.11,0,0,0-.15,0Z"/><path class="cls-1" d="M50.48,68.77H39a.11.11,0,0,0-.1.14,6.23,6.23,0,0,0,8.3,3.66,6.31,6.31,0,0,0,3.42-3.66.11.11,0,0,0-.1-.14"/><path class="cls-1" d="M92.29,4.83h-18V4.38A1.4,1.4,0,0,0,72.92,3H52.08a1.4,1.4,0,0,0-1.4,1.4v.45h-18A6.76,6.76,0,0,0,26,11.59V80.26A6.76,6.76,0,0,0,32.71,87H92.29A6.76,6.76,0,0,0,99,80.26V11.59A6.76,6.76,0,0,0,92.29,4.83Zm5.62,75.43a5.62,5.62,0,0,1-5.62,5.62H32.71a5.62,5.62,0,0,1-5.62-5.62V11.59A5.62,5.62,0,0,1,32.71,6h18V6.8a1.4,1.4,0,0,0,1.4,1.4H72.92a1.4,1.4,0,0,0,1.4-1.4V6h18a5.62,5.62,0,0,1,5.62,5.62Z"/><path class="cls-1" d="M85.16,42.78c-.56-1-1.11-1.95-1.67-2.91-.67-1.14-1.31-2.29-2-3.39-.54-.81-1.1-.85-1.54-.12-1.31,2.17-2.56,4.38-3.81,6.59a.93.93,0,0,0,.16,1.18.91.91,0,0,0,1.1.14L78,44c.26-.12.54-.43.81-.23s.15.61.06.93a9.77,9.77,0,0,1-3.31,5.15A10.83,10.83,0,0,1,70.2,52a.88.88,0,0,1-.46.14c-4.4-.1-8.79,0-13.19,0A3,3,0,0,1,55.38,52c-5-.26-10,3.15-11.85,8.12a1.93,1.93,0,0,1-.6.92h3.54a1.59,1.59,0,0,1,.22-.69A9.36,9.36,0,0,1,55.36,55c4.68-.05,9.36,0,14,0a11.59,11.59,0,0,0,3.32-.43,12.67,12.67,0,0,0,9.14-9.35c.45-1.64.32-1.68,2-1,.46.2.88.29,1.26-.14A1,1,0,0,0,85.16,42.78Z"/><path class="cls-1" d="M73.36,61a5,5,0,1,0,5,5A5,5,0,0,0,73.36,61Zm0,8.51a3.41,3.41,0,1,1,3.41-3.41A3.41,3.41,0,0,1,73.36,69.55Z"/><path class="cls-1" d="M55.42,35.31a4.29,4.29,0,0,0-.22-.55,4.67,4.67,0,0,0-8.94,1.38v.58s0,.24,0,.35c.17,1.36,1.24,2.8,2,4.15s1.75,2.88,2.64,4.31l1.62-2.79c.15-.27.31-.53.46-.79s.28-.34.37-.5c.86-1.57,2.24-3.16,2.24-4.72V36.1A4.83,4.83,0,0,0,55.42,35.31Zm-4.53,4a2.72,2.72,0,1,1,2.72-2.72A2.72,2.72,0,0,1,50.88,39.26Z"/></svg>