<svg id="Capa_1" data-name="Capa 1" xmlns="http://www.w3.org/2000/svg" viewBox="0 0 62 62"><defs><style>.cls-1{fill:#9a9a9a;}.cls-2{fill:#706f6f;}.cls-3{fill:#fff;}</style></defs><title>funcional_icon</title><path class="cls-1" d="M34.17,41.23a5.33,5.33,0,0,1,5.32-5.32,1.77,1.77,0,0,0,0-3.55,8.88,8.88,0,0,0-8.87,8.87,1.77,1.77,0,1,0,3.55,0Z"/><path class="cls-1" d="M58.48,57.71l-7.79-7.79a14.24,14.24,0,1,0-2.51,2.51L56,60.22a1.77,1.77,0,0,0,2.51-2.51Zm-19-5.84A10.64,10.64,0,1,1,50.13,41.23,10.65,10.65,0,0,1,39.49,51.87Z"/><path class="cls-2" d="M8.13,50.51l-.27-5.1L3,45.14V1.26H37.73l.41,5.09,4.81.34v19l-.71.31a6.88,6.88,0,0,1-.79-2.11c-.08-3.94,0-7.88,0-11.83,0-.95,0-1.89,0-3.08H9.95V48.35c5.53,1.08,11.37-.85,16.73,1.1l-.11,1.06ZM8,6.52H36V3.45H4.68V42.86H8Z"/><path class="cls-2" d="M15.87,24.39H35.18V25H15.88Z"/><path class="cls-2" d="M15.86,24.78H35.17v.53H15.87Z"/><path class="cls-2" d="M26.36,32.29H15.91l0-.48h10.5Z"/><path class="cls-2" d="M23.59,39.17H15.9v-.56h7.69Z"/><path class="cls-3" d="M8,13V49.38H4.68V10H36V13Z"/></svg>