<svg id="Capa_1" data-name="Capa 1" xmlns="http://www.w3.org/2000/svg" viewBox="0 0 62 62"><defs><style>.cls-1{fill:#9a9a9a;}.cls-2{fill:#706f6f;}</style></defs><title>gobernanza_icon</title><path class="cls-1" d="M42.56,39.73a1.59,1.59,0,0,0-1.62-1.57A8,8,0,0,0,32.84,46a1.62,1.62,0,0,0,3.24,0,4.79,4.79,0,0,1,4.86-4.71A1.59,1.59,0,0,0,42.56,39.73Z"/><path class="cls-1" d="M56.24,58.59l-6.41-6.21a11,11,0,0,0,2.46-6.92A11.68,11.68,0,1,0,40.62,56.76a11.84,11.84,0,0,0,7.14-2.39l6.41,6.21a1.49,1.49,0,0,0,2.06,0A1.38,1.38,0,0,0,56.24,58.59ZM40.62,53.93a8.48,8.48,0,1,1,8.75-8.48A8.63,8.63,0,0,1,40.62,53.93Z"/><path class="cls-2" d="M25.64,37.27a56.41,56.41,0,0,1-4-9.66c-.21-.65-.39-1.23-1.45-1.06-2.55,1.19-5.37,2.25-7.92,3.75-4.73,2.8-7.64,6-6.71,11.93.22,1.4.51,2.79.79,4.18.06.32.13.6.21.84s.12.73.19,1S7,49.44,7,49.44H26V38.79H26A2,2,0,0,0,25.64,37.27Z"/><path class="cls-2" d="M39.73,14.85c.24,2-.78,3.89-.26,6.43,1.3-3.5,2.89-6.25,3-9.45.09-2.27.24-4.49-1.35-6.49C37.66,1,33,.56,27.88,1.29c-6.24.89-9.41,7.58-8,12.36.62,2.06,1.6,4,2.47,6.17C22.93,18.36,22,17.22,22,16c0-.7-.77-1.79-.19-2,2-.65,1.88-2.41,2.53-3.75.41-.85.8-.84,1.43-.25,3,2.77,3.88,2.94,7.4,1,2.52-1.41,4,.61,5.92,1.37C40.49,12.9,39.63,14,39.73,14.85Z"/><path class="cls-2" d="M31,27.23c-.73,2.34-2,4.41-2.55,6.79-.29,1.34-.76,2.81.51,3.69.88.61,1.85-.66,2.82-.84,2.08-.38,2.4-1.59,1.77-3.24C32.75,31.52,32.75,29.11,31,27.23Z"/><path class="cls-2" d="M47.48,28.94l0,0h0a1.67,1.67,0,0,0-.69-.45,26.44,26.44,0,0,1-4.65-1.75c-1-.58-1.37.27-1.61,1.09a17.57,17.57,0,0,1-2.4,5.58h9.76S48.38,30,47.48,28.94Z"/></svg>