<svg id="Capa_1" data-name="Capa 1" xmlns="http://www.w3.org/2000/svg" viewBox="0 0 62 62"><defs><style>.cls-1{fill:#797979;}.cls-2{fill:none;stroke:#40b4e6;stroke-miterlimit:10;}.cls-3{fill:#9a9a9a;}</style></defs><title>gran_adaptabilidad</title><path class="cls-1" d="M19.42,46.19,13,23.46l7.1-2,2.22,23.87ZM13.88,23.95l6,21.37,1.68-.5L19.5,22.36Z"/><path class="cls-1" d="M21.7,46.16,19.15,18.69,25,18.15,26.23,44l5.59-.26.07.7ZM19.92,19.33l2.41,26,3.48-.57h-.25L24.34,18.91Z"/><path class="cls-1" d="M25.56,44.78,24.25,16.92l23.43-1.1L49,43.68ZM25,17.58,26.23,44l22-1L47,16.55Z"/><circle class="cls-2" cx="31" cy="31" r="29"/><path class="cls-3" d="M35.46,33.45l7.07-7.08c.3-.3.55-.72.92-.88A6.92,6.92,0,0,1,45,25.18c-.1.49-.05,1.12-.34,1.46-.75.91-1.65,1.7-2.49,2.54-1.85,1.85-3.72,3.67-5.53,5.55-.78.81-1.41,1-2.24.07-1.33-1.42-2.78-2.73-4.09-4.17-.29-.31-.21-1-.3-1.45.5.08,1.16,0,1.46.26C32.82,30.66,34,32,35.46,33.45Z"/></svg>