<svg id="Capa_1" data-name="Capa 1" xmlns="http://www.w3.org/2000/svg" viewBox="0 0 62 62"><defs><style>.cls-1{fill:#706f6f;}.cls-2{fill:#6b478e;}</style></defs><title>innovacion_icon</title><path class="cls-1" d="M23.66,52.82c0-.77-.06-1.54,0-2.31.29-3.37-1.37-5.7-3.86-7.69-6.32-5.07-9.13-11.63-7.43-19.61S19.12,10.29,27,8.46C39.8,5.52,51.78,16.8,49.88,29.75a18.19,18.19,0,0,1-6.45,11.81c-1,.83-1.88,1.78-2.81,2.68A7.3,7.3,0,0,0,38.29,50c.07,2.07,0,4.14,0,6.2,0,1.07-.31,1.69-1.48,1.55-.86-.1-1.24.31-1.58,1.08A4.41,4.41,0,0,1,31,61.65a4.38,4.38,0,0,1-4.21-2.74c-.37-.82-.76-1.26-1.68-1.15-1.09.13-1.44-.47-1.4-1.47S23.66,54,23.66,52.82ZM48.34,27.34c-.22-7.15-3.27-12.7-9.81-15.85S25.62,9.18,19.91,13.73c-7.61,6.06-9.72,19.7,1.25,28a10.57,10.57,0,0,1,4,5.65,1.46,1.46,0,0,0,1,.9c3.14.05,6.29,0,9.43,0,.71,0,1.16-.08,1.31-.93.43-2.46,2.11-4.14,3.91-5.64C45.34,38,48.48,33.55,48.34,27.34ZM36.45,52.19c.09-.92.82-2.11-.69-2.17-3.2-.14-6.41-.07-9.62,0-.28,0-.72.75-.75,1.18a1.26,1.26,0,0,0,.82.94C29.6,52.22,33,52.19,36.45,52.19Zm-.09,1.68c-3.21,0-6.46,0-9.71,0-.84,0-1.35.11-1.34,1.14s.61,1.11,1.4,1.11c2.78,0,5.55,0,8.33,0C36.75,56.09,36.93,55.8,36.36,53.87Zm-8.15,4a2.91,2.91,0,0,0,5.56,0Z"/><path class="cls-2" d="M15,42.69a3.2,3.2,0,0,1-.39.66,31.9,31.9,0,0,1-2.48,2.34c-.26.21-.82.06-1.24.08,0-.4-.08-.92.13-1.16a26.08,26.08,0,0,1,2.53-2.49,1.28,1.28,0,0,1,1-.08C14.8,42.09,14.89,42.46,15,42.69Z"/><path class="cls-2" d="M51.47,45c-.3.49-.39.84-.6.92a1,1,0,0,1-.89-.05,30,30,0,0,1-2.57-2.65c-.19-.23,0-.77,0-1.16.33,0,.78-.09,1,.08C49.45,43,50.45,44,51.47,45Z"/><path class="cls-2" d="M15.41,11a4,4,0,0,1-.76-.45,28.52,28.52,0,0,1-2.3-2.34c-.22-.26-.09-.81-.12-1.23.39,0,.92-.17,1.15,0A30.87,30.87,0,0,1,16,9.65a1.05,1.05,0,0,1,.08.89C16,10.75,15.66,10.86,15.41,11Z"/><path class="cls-2" d="M46.5,11c-.18-.12-.53-.23-.6-.44A1.06,1.06,0,0,1,46,9.65,30.89,30.89,0,0,1,48.6,7c.22-.19.79-.12,1.13,0a.92.92,0,0,1,.15.85c-.93,1-1.92,2-2.9,2.93C46.9,10.92,46.72,10.92,46.5,11Z"/><path class="cls-2" d="M6.15,28.32c-.74-.51-1.88-.95-1.86-1.33.06-1.19,1.22-.78,1.93-.74s2.07-.58,2.09.87C8.32,27.47,7.07,27.83,6.15,28.32Z"/><path class="cls-2" d="M29.83,2.05c.38-.6.74-1.69,1.14-1.7,1.25,0,.76,1.13.85,1.86a2.91,2.91,0,0,1,0,1.28,3.94,3.94,0,0,1-.78,1c-.28-.31-.68-.59-.82-1a3.82,3.82,0,0,1,0-1.28Z"/><path class="cls-2" d="M55.31,28.14c-.51-.3-1.66-.65-1.66-1,0-1.35,1.2-.88,2-.87s2.07-.51,2.11.74C57.76,28.45,56.33,27.61,55.31,28.14Z"/><path class="cls-1" d="M19.71,33.37c-1,.27-1.52-.42-1.88-1.37-.87-2.27-.85-2.43.92-3.92.78-.66.69-1.4-.17-2.11-.52-.43-1.38-1.06-1.32-1.48A10.38,10.38,0,0,1,18.52,21c.18-.32,1.14-.23,1.75-.26,1.3-.07,1.82-.67,1.25-1.84-.73-1.52,0-2.28,1.13-3.06s2-1.41,3.28-.2c1.06,1,2,.69,2.28-.73.32-1.57,1.27-1.78,2.61-1.76s2.55,0,2.87,1.79c.23,1.31,1.12,1.52,2.23.75a3.48,3.48,0,0,1,4.72,1.4,2.61,2.61,0,0,1-.21,1.5c-.49,1.55-.13,2.25,1.4,2.05,1.85-.24,2.12,1,2.59,2.21s.45,2.23-.94,3c-1.18.64-1.17,1.66,0,2.28,1.67.85,1.16,2,.8,3.26s-.9,2.1-2.49,1.93-2,.56-1.35,1.93,0,2.13-1.07,2.83-1.92,1.59-3.27.38-2.1-.84-2.44.77-1.33,1.65-2.56,1.62-2.49.18-2.83-1.64c-.29-1.52-1.23-1.83-2.36-.78-1.46,1.36-2.4.26-3.51-.43a1.9,1.9,0,0,1-.91-2.74C22.16,33.87,21.65,33.37,19.71,33.37Zm4.89,3.86c.23-.15.55-.34.86-.56a2.87,2.87,0,0,1,4.34,1.41A2.1,2.1,0,0,0,31,39.16c.86.28,1.09-.41,1.31-1.11a2.74,2.74,0,0,1,4.3-1.36c.61.46,1.23.78,1.73.09a2.09,2.09,0,0,0,.24-1.6,2.74,2.74,0,0,1,2.63-3.54c.72,0,1.31,0,1.59-.85s-.23-1.2-.81-1.6a2.86,2.86,0,0,1-.07-4.37,2.28,2.28,0,0,0,.81-1.55c0-.87-.79-.87-1.51-.86a2.76,2.76,0,0,1-2.65-3.65c.12-.44,0-1.25-.27-1.43a1.8,1.8,0,0,0-1.59,0,2.91,2.91,0,0,1-4.59-1.51A1.59,1.59,0,0,0,30.94,15a1.6,1.6,0,0,0-1.14.89c-.82,2.08-2.67,2.67-4.62,1.47a1.62,1.62,0,0,0-1.47,0c-.32.24-.38.93-.4,1.43s.38,1.32.14,1.73c-.66,1.11-1.29,2.41-3.06,2.06-.34-.07-1,.49-1.16.9a1.48,1.48,0,0,0,.5,1.26,2.87,2.87,0,0,1,0,4.8,1.49,1.49,0,0,0-.51,1.26,1.67,1.67,0,0,0,1.17.9c2.46.21,3.52,1.58,2.88,3.89A1.37,1.37,0,0,0,24.6,37.24Z"/><path class="cls-2" d="M25,27a6,6,0,0,1,8.32-5.51c.46.21.71.91,1.05,1.39a4.51,4.51,0,0,1-1.64.11,4.37,4.37,0,1,0-2.54,8.33,4.5,4.5,0,0,0,5.22-3.8c.09-.48.61-.87.94-1.3.23.55.71,1.14.65,1.66A6,6,0,0,1,25,27Z"/></svg>