<svg id="Capa_1" data-name="Capa 1" xmlns="http://www.w3.org/2000/svg" viewBox="0 0 62 62"><defs><style>.cls-1{fill:#797979;}.cls-2{fill:none;stroke:#40b4e6;stroke-miterlimit:10;}</style></defs><title>integrador_multiproposito_icon</title><path class="cls-1" d="M15.7,26.61l15.84,6.78a.86.86,0,0,0,.35.07.91.91,0,0,0,.35-.07l15.84-6.78A.89.89,0,0,0,48,25l-15.84-6a.88.88,0,0,0-.63,0L15.73,25a.9.9,0,0,0-.57.82.89.89,0,0,0,.54.84Zm16.19-5.89,13.46,5.12L31.89,31.6,18.43,25.84Zm0,0"/><path class="cls-1" d="M15.7,30.47,31.89,37.4l16.19-6.93a.89.89,0,0,0-.7-1.64L31.89,35.45,16.4,28.83a.89.89,0,1,0-.7,1.64Zm0,0"/><path class="cls-1" d="M15.7,34,31.89,41,48.08,34a.89.89,0,1,0-.7-1.64L31.89,39,16.4,32.39A.89.89,0,1,0,15.7,34Zm0,0"/><path class="cls-1" d="M15.7,37.6l16.19,6.93L48.08,37.6a.89.89,0,0,0-.7-1.64L31.89,42.59,16.4,36a.89.89,0,0,0-.7,1.64Zm0,0"/><circle class="cls-2" cx="31" cy="31.25" r="29"/></svg>