<svg id="Capa_1" data-name="Capa 1" xmlns="http://www.w3.org/2000/svg" viewBox="0 0 125 90"><defs><style>.cls-1{fill:#434244;}</style></defs><title>integracion</title><path class="cls-1" d="M65.22,35.87a.17.17,0,0,0-.05-.28,10.29,10.29,0,0,0-14.42,8.8.17.17,0,0,0,.17.18h5.51a.18.18,0,0,0,.13-.05Z"/><path class="cls-1" d="M61.89,44.27a.18.18,0,0,0,.12.31h9.13a.18.18,0,0,0,.17-.18,10.2,10.2,0,0,0-.79-3.48,11.27,11.27,0,0,0-2-3,.18.18,0,0,0-.25,0Z"/><path class="cls-1" d="M70.54,48.17H51.46a.18.18,0,0,0-.17.23A10.32,10.32,0,0,0,65,54.47a10.46,10.46,0,0,0,5.66-6.07.17.17,0,0,0-.16-.24"/><path class="cls-1" d="M101.92,40.56a4.47,4.47,0,0,0-2.79,1A38.76,38.76,0,0,0,90.42,20a4.5,4.5,0,1,0-6.34-6.14A38.74,38.74,0,0,0,65,6V6a4.5,4.5,0,0,0-9,0A38.75,38.75,0,0,0,36.12,14.2a4.49,4.49,0,0,0-6.34,6.36,38.74,38.74,0,0,0-8.21,20.27,4.49,4.49,0,0,0,.09,8.49,38.76,38.76,0,0,0,8.4,19.84,4.49,4.49,0,1,0,6.41,6.27,38.74,38.74,0,0,0,19.93,8,4.5,4.5,0,1,0,8.89-.13,38.74,38.74,0,0,0,18.58-7.63,4.49,4.49,0,0,0,6.48-6.22,38.77,38.77,0,0,0,8.72-20.91,4.5,4.5,0,1,0,2.85-8Zm-4.49,4.65a4.47,4.47,0,0,0,.67,2.21,37.71,37.71,0,0,1-8.55,21.34,4.49,4.49,0,0,0-4.65-.18L70.76,54.44q-.37.38-.77.73l14,14a4.48,4.48,0,0,0-.81,5.62A37.69,37.69,0,0,1,65,82.26a4.5,4.5,0,0,0-4-2.75V58.79l-.69,0h-.37V79.6a4.5,4.5,0,0,0-3.28,2.79,37.68,37.68,0,0,1-19.6-7.83,4.48,4.48,0,0,0-.47-4.82L50.92,55.4c-.27-.23-.53-.46-.79-.71L35.84,69a4.49,4.49,0,0,0-4.91-.43,37.71,37.71,0,0,1-8.17-19l.33,0a4.49,4.49,0,0,0,4.49-4.35H45.7c0-.35,0-.7,0-1.06H27.49a4.5,4.5,0,0,0-4.41-3.59l-.42,0a37.69,37.69,0,0,1,7.93-19.34A4.48,4.48,0,0,0,35.84,21L49.3,34.48c.23-.27.47-.52.73-.77L36.59,20.27A4.49,4.49,0,0,0,36.81,15a37.69,37.69,0,0,1,19.3-8,4.5,4.5,0,0,0,3.84,3.43v19h.37l.69,0v-19a4.5,4.5,0,0,0,3.83-3.39A37.69,37.69,0,0,1,83.6,14.82a4.48,4.48,0,0,0,1.41,5L70.86,34c.25.25.48.52.71.79L85.93,20.39a4.45,4.45,0,0,0,3.53.11,37.71,37.71,0,0,1,8.68,22.11,4.47,4.47,0,0,0-.64,1.54H75c0,.36,0,.71,0,1.06Z"/></svg>