<svg id="Capa_1" data-name="Capa 1" xmlns="http://www.w3.org/2000/svg" viewBox="0 0 62 62"><defs><style>.cls-1{fill:#9a9a9a;}.cls-2{fill:#fff;}</style></defs><title>inteligente_icon</title><path class="cls-1" d="M47,45.08a10.92,10.92,0,0,0-9.52,5.55,1.22,1.22,0,1,0,2.12,1.2A8.5,8.5,0,0,1,47,47.52a1.22,1.22,0,0,0,0-2.43"/><path class="cls-2" d="M36.86,13.67A1.17,1.17,0,1,0,38,14.84a1.17,1.17,0,0,0-1.17-1.17"/><path class="cls-2" d="M25.14,13.67a1.17,1.17,0,1,0,1.17,1.17,1.17,1.17,0,0,0-1.17-1.17"/><path class="cls-2" d="M56.44,36A9.36,9.36,0,0,0,58,31a8.14,8.14,0,0,0-3-6.3,7.94,7.94,0,0,0,.62-3.08,8.73,8.73,0,0,0-4.74-7.72,7,7,0,0,0-5.33-7.66A8.44,8.44,0,0,0,38,1a8.23,8.23,0,0,0-7,4.22A8.24,8.24,0,0,0,24,1a8.44,8.44,0,0,0-7.51,5.24,7,7,0,0,0-5.33,7.66,8.73,8.73,0,0,0-4.74,7.72A7.94,7.94,0,0,0,7,24.7,8.14,8.14,0,0,0,4,31a9.37,9.37,0,0,0,1.51,5,8.09,8.09,0,0,0,.94,10.5,8.5,8.5,0,0,0,8.1,9.78h.11A9.24,9.24,0,0,0,31,55.9a9.24,9.24,0,0,0,16.3.41h.11a8.5,8.5,0,0,0,8.2-8.55,7.56,7.56,0,0,0-.11-1.23A8.09,8.09,0,0,0,56.44,36M29.83,18.74a4.65,4.65,0,0,0-2.34-.63,1.17,1.17,0,1,0,0,2.34,2.35,2.35,0,0,1,2.34,2.35V45.08a9.36,9.36,0,0,0-7-3.18,1.17,1.17,0,0,0,0,2.34,7,7,0,0,1,7,7,7.31,7.31,0,0,1-7,7.38,7,7,0,0,1-6.36-4.09,1.18,1.18,0,0,0-1.2-.67l-.25,0c-3.34.46-7.09-3.32-6.07-7.55a1.18,1.18,0,0,0-.39-1.17,5.83,5.83,0,0,1-2.14-4.48,5.77,5.77,0,0,1,.86-3,7.91,7.91,0,0,0,5,1.84,1.17,1.17,0,1,0,0-2.34A6.16,6.16,0,0,1,6.39,31a5.83,5.83,0,0,1,2.74-4.94,1.17,1.17,0,0,0,.39-1.57,5.78,5.78,0,0,1-.78-2.87,6.19,6.19,0,0,1,5.86-6.21,6.2,6.2,0,0,1,5.86,6.21,1.17,1.17,0,1,0,2.34,0,8.5,8.5,0,0,0-8.2-8.55,7.39,7.39,0,0,0-1.17.09s0-.06,0-.09a4.69,4.69,0,0,1,8-3.31A1.17,1.17,0,0,0,23.08,8.1a7,7,0,0,0-3.89-2A5.93,5.93,0,0,1,24,3.34a6.2,6.2,0,0,1,5.86,6.21ZM49.75,39.55a7.9,7.9,0,0,0,5-1.84,5.77,5.77,0,0,1,.86,3,5.83,5.83,0,0,1-2.14,4.48,1.18,1.18,0,0,0-.39,1.17,5.75,5.75,0,0,1,.18,1.37c0,3.64-3.29,6.58-6.26,6.17l-.25,0a1.17,1.17,0,0,0-1.19.67,7.05,7.05,0,0,1-6.36,4.09,7.31,7.31,0,0,1-7-7.38,7,7,0,0,1,7-7,1.17,1.17,0,0,0,0-2.34,9.35,9.35,0,0,0-7,3.18V22.8a2.35,2.35,0,0,1,2.34-2.35,1.17,1.17,0,1,0,0-2.34,4.64,4.64,0,0,0-2.34.63V9.55A6.2,6.2,0,0,1,38,3.34,5.92,5.92,0,0,1,42.8,6.12a7,7,0,0,0-3.89,2,1.17,1.17,0,1,0,1.66,1.66,4.69,4.69,0,0,1,8,3.31s0,.06,0,.09a7.41,7.41,0,0,0-1.17-.09,8.5,8.5,0,0,0-8.2,8.55,1.17,1.17,0,1,0,2.34,0,6.2,6.2,0,0,1,5.86-6.21,6.19,6.19,0,0,1,5.86,6.21,5.78,5.78,0,0,1-.78,2.87,1.17,1.17,0,0,0,.39,1.57A5.83,5.83,0,0,1,55.61,31a6.16,6.16,0,0,1-5.86,6.21,1.17,1.17,0,1,0,0,2.34"/><path class="cls-1" d="M27.19,26.08A1.17,1.17,0,0,0,25.53,26a5.87,5.87,0,0,1-9.76-4.37,1.17,1.17,0,0,0-2.34,0,8.22,8.22,0,0,0,6.87,8.09,3.52,3.52,0,0,1-3.35,2.45,1.17,1.17,0,1,0,0,2.34,5.87,5.87,0,0,0,5.75-4.76,8.18,8.18,0,0,0,4.4-2,1.17,1.17,0,0,0,.09-1.65"/><path class="cls-1" d="M45.06,32.17a3.53,3.53,0,0,1-3.35-2.45,8.22,8.22,0,0,0,6.87-8.09,1.17,1.17,0,1,0-2.34,0A5.86,5.86,0,0,1,36.47,26a1.17,1.17,0,0,0-1.56,1.74,8.18,8.18,0,0,0,4.4,2,5.87,5.87,0,0,0,5.75,4.76,1.17,1.17,0,1,0,0-2.34"/><path class="cls-1" d="M24.86,51.51A10.92,10.92,0,0,0,15.34,46a1.22,1.22,0,0,0,0,2.43,8.5,8.5,0,0,1,7.41,4.31,1.22,1.22,0,1,0,2.12-1.2"/></svg>