<svg id="Capa_1" data-name="Capa 1" xmlns="http://www.w3.org/2000/svg" viewBox="0 0 62 62"><defs><style>.cls-1{fill:none;}.cls-2{fill:#706f6f;}.cls-3{fill:#40b4e6;}</style></defs><title>integrador_icon</title><path class="cls-1" d="M42.14,4.42a1.93,1.93,0,0,0-3.84-.24,2,2,0,0,0,1.79,2.09A2,2,0,0,0,42.14,4.42Z"/><path class="cls-1" d="M54.53,37.63a1.94,1.94,0,1,0-1.8-1.93A2,2,0,0,0,54.53,37.63Z"/><path class="cls-1" d="M13.55,31.22a13.17,13.17,0,0,1,2.5-8.1,13.84,13.84,0,0,1,10.41-5.81v-5c-1.13.14-2.17.34-3.21.37A1.77,1.77,0,0,1,22,12.14a29,29,0,0,1-1.72-2.45,3.46,3.46,0,0,0-.49.09c-2.83,1-2.85,1-2.22,3.93a1.58,1.58,0,0,1-.69,1.75,69.8,69.8,0,0,0-5.21,5.23,1.59,1.59,0,0,1-1.76.68c-2.84-.61-2.85-.59-3.88,2.09a6.24,6.24,0,0,0-.16.63c.8.54,1.5,1.09,2.28,1.51a1.43,1.43,0,0,1,.77,1.7,18.6,18.6,0,0,0-.22,5.53c.48,2.35,0,3.83-2.23,4.77a1.15,1.15,0,0,0-.37,1c.75,2.62.89,2.69,3.5,2.13l.13,0c.91-.3,1.44,0,2.1.76a54.54,54.54,0,0,0,5.1,5.14,1.52,1.52,0,0,1,.69,1.61c-.53,2.93-.52,2.93,2.24,4a2.46,2.46,0,0,0,.48.07,31.31,31.31,0,0,1,1.82-2.55,1.7,1.7,0,0,1,1.24-.46c1,.06,1.94.28,3.06.45v-5.1a13.48,13.48,0,0,1-9.05-4.11A13.23,13.23,0,0,1,13.55,31.22Z"/><path class="cls-1" d="M52.72,26.41a1.93,1.93,0,0,0,0,.36l0,.11a1.89,1.89,0,0,0,.07.22,2,2,0,0,0,.15.28v0a1.9,1.9,0,0,0,3.48-1.09A2,2,0,0,0,55,24.43h-.09l-.27,0-.2,0-.19,0L54,24.5l-.19.07-.12.07-.21.13-.05,0A1.94,1.94,0,0,0,52.72,26.41Z"/><path class="cls-1" d="M54.64,12.16a1.9,1.9,0,1,0-.11-3.8,1.84,1.84,0,0,0-1.8,1.89A1.88,1.88,0,0,0,54.64,12.16Z"/><path class="cls-1" d="M14.93,31.23c.12,7.29,6.77,12.27,11.54,11.89V18.88C21.4,18.64,14.81,23.73,14.93,31.23Z"/><path class="cls-1" d="M54.62,53.65a1.94,1.94,0,0,0,1.92-1.94,2,2,0,0,0-1.84-1.89,1.91,1.91,0,0,0-2,2A1.86,1.86,0,0,0,54.62,53.65Z"/><path class="cls-1" d="M38.29,57.76a1.92,1.92,0,0,0,3.84-.09,2,2,0,0,0-2-1.9A1.92,1.92,0,0,0,38.29,57.76Z"/><path class="cls-2" d="M51.38,27.49l0,0v0Z"/><path class="cls-2" d="M54.21,24.45l.19,0Z"/><path class="cls-2" d="M53.85,24.57,54,24.5Z"/><path class="cls-2" d="M56.9,28.72l-.17.14Z"/><path class="cls-2" d="M53.52,24.76l.21-.13Z"/><path class="cls-2" d="M54.63,24.4h0l.27,0Z"/><path class="cls-2" d="M52.72,26.41a1.94,1.94,0,0,1,.74-1.6,1.87,1.87,0,0,0-.69,2A1.93,1.93,0,0,1,52.72,26.41Z"/><path class="cls-2" d="M52.88,27.09a1.89,1.89,0,0,1-.07-.22A1.89,1.89,0,0,0,52.88,27.09Z"/><path class="cls-2" d="M56.52,26.3a1.91,1.91,0,0,1-1.9,1.94h0a1.92,1.92,0,0,0,.32-3.8A2,2,0,0,1,56.52,26.3Z"/><path class="cls-2" d="M28.77,36.37c7.22,0,14.45,0,21.67,0a1.23,1.23,0,0,1,1.26.85,3.24,3.24,0,0,0,3.67,1.73,3.34,3.34,0,0,0,0-6.48,3.14,3.14,0,0,0-3.65,1.75c-.37.81-.87.82-1.55.82h-21c-.38,0-.75,0-1.11-.08V27.49h0V21.71h1.52c4.74,0,9.49,0,14.23,0a3.22,3.22,0,0,0,1.95-.78c2.33-2.12,4.58-4.31,6.84-6.51a2.48,2.48,0,0,1,2.07-.89,3.06,3.06,0,0,0,3.16-2.32,3.38,3.38,0,0,0-1.41-3.72,3.3,3.3,0,0,0-4.7,4.3c.17.34.37.67.57,1-2.43,2.32-4.77,4.61-7.19,6.82a3,3,0,0,1-1.84.74c-4.65.06-9.31,0-14,0-.39,0-.77,0-1.23-.07V16.41H40.87c0-2.7,0-5.23,0-7.75a1.83,1.83,0,0,1,.72-1.3,3.47,3.47,0,0,0,1.79-3.92A3.42,3.42,0,0,0,40.14,1a3.33,3.33,0,0,0-1.35,6.33c.27.16.68.43.68.66.05,2.33,0,4.65,0,7H27.9v-4.1a4.47,4.47,0,0,0-1.2,0c-2.84.93-4.66-.2-5.8-2.78,0-.07-.14-.1-.26-.19L18.12,9c-2.7,1.13-2.72,1.14-2.1,4a1.62,1.62,0,0,1-.72,1.9,11.94,11.94,0,0,0-3,2.77c-1.29,2-2.77,2.74-5,1.8a1.25,1.25,0,0,0-1.15.4c-.74,1.54-1.35,3.14-2,4.75L7.4,26.81c0,2.67,0,5.13,0,7.6a1.66,1.66,0,0,1-.5,1.14c-.88.71-1.85,1.32-2.77,2,.39.94.73,1.76,1.06,2.57,1.1,2.7,1.1,2.7,4,2.16a1.84,1.84,0,0,0,.26,0c.69-.24,1.08,0,1.54.6a30.33,30.33,0,0,0,3.56,3.74c1.1.93,1.9,1.72,1.28,3.28A8.72,8.72,0,0,0,15.54,52l5.28,2.16L23,50.9h5V47H39.51c0,2.06,0,4,0,6a1.68,1.68,0,0,1-1,1.85,3.14,3.14,0,0,0-1.37,4,3.32,3.32,0,0,0,3.65,2,3.23,3.23,0,0,0,2.71-3.41c-.06-1.7-1.15-2.59-2.72-3.25V45.65H28v-3.8a1.31,1.31,0,0,1,.33-.12c5.14,0,10.28,0,15.42,0a2.08,2.08,0,0,1,1.22.62c2.44,2.3,4.85,4.63,7.3,7l-.31.44a3.33,3.33,0,0,0,.11,4.17,3.39,3.39,0,0,0,4,.79,3.32,3.32,0,0,0-1.55-6.25,4,4,0,0,1-2.16-1c-2.26-2.06-4.38-4.25-6.64-6.31a3.41,3.41,0,0,0-2.07-.81c-4.74-.07-9.48,0-14.23,0H28v-3.9C28.34,36.4,28.55,36.37,28.77,36.37Zm25.88-2.61a1.94,1.94,0,0,1-.12,3.87,2,2,0,0,1-1.8-1.93A2,2,0,0,1,54.65,33.76ZM54.53,8.36a1.9,1.9,0,1,1-1.8,1.89A1.84,1.84,0,0,1,54.53,8.36ZM38.29,4.17a1.93,1.93,0,0,1,3.84.24,2,2,0,0,1-2,1.85A2,2,0,0,1,38.29,4.17ZM26.47,49.76c-1.12-.18-2.08-.39-3.06-.45a1.7,1.7,0,0,0-1.24.46,31.31,31.31,0,0,0-1.82,2.55,2.46,2.46,0,0,1-.48-.07c-2.76-1.08-2.77-1.08-2.24-4a1.52,1.52,0,0,0-.69-1.61,54.54,54.54,0,0,1-5.1-5.14c-.65-.75-1.19-1.07-2.1-.76l-.13,0c-2.61.55-2.75.49-3.5-2.13a1.15,1.15,0,0,1,.37-1c2.2-.94,2.71-2.42,2.23-4.77a18.6,18.6,0,0,1,.22-5.53,1.43,1.43,0,0,0-.77-1.7c-.77-.42-1.47-1-2.28-1.51A6.24,6.24,0,0,1,6,23.46c1-2.68,1-2.7,3.88-2.09a1.59,1.59,0,0,0,1.76-.68,69.8,69.8,0,0,1,5.21-5.23,1.58,1.58,0,0,0,.69-1.75c-.63-2.9-.6-2.91,2.22-3.93a3.46,3.46,0,0,1,.49-.09A29,29,0,0,0,22,12.14a1.77,1.77,0,0,0,1.25.54c1,0,2.07-.23,3.21-.37v5A13.84,13.84,0,0,0,16,23.12a13.17,13.17,0,0,0-2.5,8.1,13.23,13.23,0,0,0,3.87,9.33,13.48,13.48,0,0,0,9.05,4.11Zm0-6.64c-4.77.38-11.42-4.6-11.54-11.89-.13-7.5,6.47-12.59,11.54-12.35ZM42.13,57.67a1.92,1.92,0,1,1-2-1.9A2,2,0,0,1,42.13,57.67ZM54.7,49.83a2,2,0,0,1,1.84,1.89,1.94,1.94,0,0,1-1.92,1.94,1.86,1.86,0,0,1-1.89-1.81A1.91,1.91,0,0,1,54.7,49.83Z"/><path class="cls-3" d="M51.41,25.12l-.14.11h.1Z"/><path class="cls-2" d="M53,27.39v0Z"/><path class="cls-3" d="M53,27.39a1.88,1.88,0,0,0,1.56.84h0A1.92,1.92,0,0,1,53,27.39Z"/><path class="cls-3" d="M54.56,24.4l-.16,0,.2,0Z"/><path class="cls-3" d="M54,24.5l.18-.05Z"/><path class="cls-3" d="M57,28.63l-.08.09Z"/><path class="cls-3" d="M54.87,24.42h0Z"/><path class="cls-3" d="M52.81,26.87l0-.11S52.79,26.84,52.81,26.87Z"/><path class="cls-3" d="M53.73,24.64l.12-.07Z"/><path class="cls-3" d="M53,27.38a2,2,0,0,1-.15-.28A1.92,1.92,0,0,0,53,27.38Z"/><path class="cls-3" d="M53.47,24.81l.05,0Z"/><path class="cls-3" d="M55.46,23.11a3.17,3.17,0,0,1,1.69,1.09,3.34,3.34,0,0,0-5.74.92,1.69,1.69,0,0,0,.23-.27A3.41,3.41,0,0,1,55.46,23.11Z"/><path class="cls-3" d="M51.61,27.76a1.51,1.51,0,0,0-.2-.25,3.34,3.34,0,0,0,5.32,1.34,3.56,3.56,0,0,1-1.34.67A3.35,3.35,0,0,1,51.61,27.76Z"/><path class="cls-3" d="M51.83,25.23v2.25H51.4v0a1.51,1.51,0,0,1,.2.25,3.35,3.35,0,0,0,3.78,1.77,3.56,3.56,0,0,0,1.34-.67l.17-.14.08-.09a3.39,3.39,0,0,0,.35-.43l0,0a3.41,3.41,0,0,0,.26-.49l.06-.13c0-.1.07-.21.1-.31a3.56,3.56,0,0,0,.13-.9,3.43,3.43,0,0,0-.37-1.58l0-.09a3.26,3.26,0,0,0-.23-.37l-.1-.12a3.17,3.17,0,0,0-1.69-1.09,3.41,3.41,0,0,0-3.82,1.74,1.69,1.69,0,0,1-.23.27l0,.11Zm1.63-.43.05,0,.21-.13.12-.07L54,24.5l.18-.05.19,0,.16,0h.07l.23,0H55a1.92,1.92,0,0,1-.32,3.8h0A1.88,1.88,0,0,1,53,27.39v0a1.92,1.92,0,0,1-.15-.28,1.89,1.89,0,0,1-.07-.22s0-.07,0-.11a1.87,1.87,0,0,1,.69-2Z"/><path class="cls-3" d="M29.1,25.65c-.34,0-.68-.06-1.05-.09v1.93h0v-.34a2.59,2.59,0,0,1,.47-.1c7.36,0,14.71,0,22.07,0a1.32,1.32,0,0,1,.8.43h0a3.17,3.17,0,0,1,0-2.25h-.1a1.59,1.59,0,0,1-.9.41C43.28,25.69,36.19,25.67,29.1,25.65Z"/><path class="cls-3" d="M51.83,25.23h-.46a3.17,3.17,0,0,0,0,2.25h.43Z"/><path class="cls-3" d="M57.54,34.06l0-.09a3.29,3.29,0,0,0-.23-.37l-.1-.12a3.19,3.19,0,0,0-1.7-1.09,3.43,3.43,0,0,0-3.85,1.75c-.06.09-.33.42-.33.42a1.59,1.59,0,0,1-.9.41c-7.09,0-14.18,0-21.27,0-.34,0-.68-.06-1.05-.09V36.8h0v-.34a2.59,2.59,0,0,1,.47-.1c7.36,0,14.71,0,22.07,0a1.31,1.31,0,0,1,.78.42s.16.19.21.28a3.26,3.26,0,0,0,3.82,1.85,3.46,3.46,0,0,0,1.32-.67l.21-.19.12-.13a3.21,3.21,0,0,0,.33-.43l.06-.1a2.49,2.49,0,0,0,.21-.42l.06-.15c0-.1.07-.21.1-.31a3.6,3.6,0,0,0-.25-2.48Zm-2.93,3.5a1.9,1.9,0,1,1,1.9-1.9A1.9,1.9,0,0,1,54.61,37.56Z"/></svg>