<svg id="Capa_1" data-name="Capa 1" xmlns="http://www.w3.org/2000/svg" viewBox="0 0 17 17"><defs><style>.cls-1{fill:#706f6f;}</style></defs><title>lenguaje_card_academy_icon</title><path class="cls-1" d="M8.5,8.11a1.2,1.2,0,1,0-1.2-1.2,1.2,1.2,0,0,0,1.2,1.2Zm6.4-6.8H2.1A1.6,1.6,0,0,0,.5,2.91v8a1.6,1.6,0,0,0,1.6,1.6H4.5v2.4c0,.88.45,1,1,.35l2.18-2.75H14.9a1.6,1.6,0,0,0,1.6-1.6v-8a1.6,1.6,0,0,0-1.6-1.6Zm0,9.6H2.1v-8H14.9Zm-3.2-2.8a1.2,1.2,0,1,0-1.2-1.2,1.2,1.2,0,0,0,1.2,1.2Zm-6.4,0a1.2,1.2,0,1,0-1.2-1.2,1.2,1.2,0,0,0,1.2,1.2Zm0,0"/></svg>