<svg id="Capa_1" data-name="Capa 1" xmlns="http://www.w3.org/2000/svg" viewBox="0 0 17 17"><defs><style>.cls-1{fill:#706f6f;}</style></defs><title>libro_card_academy_icon</title><path class="cls-1" d="M16.38,4.42A1.29,1.29,0,0,0,15.8,4a1.57,1.57,0,0,1,0,.56l-2.93,9.64a.7.7,0,0,1-.34.4,1.08,1.08,0,0,1-.55.15h-9q-1.17,0-1.41-.68a.45.45,0,0,1,0-.42.43.43,0,0,1,.37-.15h8.49a1.8,1.8,0,0,0,1.25-.34,3.82,3.82,0,0,0,.7-1.5L15,2.82a1.39,1.39,0,0,0-.18-1.27A1.29,1.29,0,0,0,13.72,1H6.29a2.73,2.73,0,0,0-.5.09v0A2,2,0,0,0,5.34,1,.66.66,0,0,0,5,1.12a1.15,1.15,0,0,0-.26.23,1.69,1.69,0,0,0-.19.31c-.06.13-.11.24-.16.35l-.15.34a2.14,2.14,0,0,1-.16.3l-.17.21-.18.22a.57.57,0,0,0-.09.18.63.63,0,0,0,0,.26.82.82,0,0,1,0,.25,3.71,3.71,0,0,1-.27.94A4,4,0,0,1,3,5.53l-.21.22a.78.78,0,0,0-.21.3s0,.12,0,.27a1.39,1.39,0,0,1,0,.31,4,4,0,0,1-.24.88,6,6,0,0,1-.41.9,1.6,1.6,0,0,1-.17.22.81.81,0,0,0-.17.27.88.88,0,0,0,0,.27.76.76,0,0,1,0,.29,5.31,5.31,0,0,1-.29.89,6.45,6.45,0,0,1-.44.89,2.21,2.21,0,0,1-.16.23l-.16.23a.62.62,0,0,0-.08.21.48.48,0,0,0,0,.19.55.55,0,0,1,0,.21q0,.14,0,.36c0,.15,0,.24,0,.26a1.77,1.77,0,0,0,0,1.24,2.74,2.74,0,0,0,1,1.28A2.39,2.39,0,0,0,2.91,16h9a2,2,0,0,0,1.2-.42,2,2,0,0,0,.75-1.05l2.69-8.85a1.38,1.38,0,0,0-.18-1.26ZM6,4.44l.2-.63a.44.44,0,0,1,.16-.22A.41.41,0,0,1,6.6,3.5h5.94a.21.21,0,0,1,.2.09.25.25,0,0,1,0,.22l-.2.63a.44.44,0,0,1-.16.22.41.41,0,0,1-.25.09H6.2A.21.21,0,0,1,6,4.66a.25.25,0,0,1,0-.22Zm-.81,2.5.2-.63a.43.43,0,0,1,.16-.22A.41.41,0,0,1,5.79,6h5.94a.21.21,0,0,1,.2.09.26.26,0,0,1,0,.22l-.21.63a.43.43,0,0,1-.16.22.41.41,0,0,1-.25.09H5.39a.21.21,0,0,1-.2-.09.25.25,0,0,1,0-.22Zm0,0"/></svg>