<svg id="Capa_1" data-name="Capa 1" xmlns="http://www.w3.org/2000/svg" viewBox="0 0 62 63.23"><defs><style>.cls-1{fill:none;}.cls-2{fill:#9a9a9a;}.cls-3{fill:#687d93;}</style></defs><title>modelo_analisis_icon</title><path class="cls-1" d="M17.31,26.8q0-1.17,0-2.33a12.23,12.23,0,0,0-2,1.27v2.78A10.24,10.24,0,0,1,17.31,26.8Z"/><path class="cls-2" d="M40.8,21.66l-28.73.19,5.09-8.2,18.26-.12Zm-27.34-.6,25.91-.17L35,14.3l-17.42.11Z"/><rect class="cls-3" x="12.78" y="23.77" width="27.32" height="1.13" transform="translate(-0.16 0.17) rotate(-0.37)"/><rect class="cls-3" x="12.8" y="26.44" width="27.32" height="0.87" transform="translate(-0.17 0.17) rotate(-0.37)"/><rect class="cls-3" x="12.82" y="29.3" width="27.32" height="0.87" transform="translate(-0.19 0.17) rotate(-0.37)"/><rect class="cls-3" x="12.55" y="31.74" width="27.89" height="1.41" transform="translate(-0.21 0.17) rotate(-0.37)"/><rect class="cls-3" x="12.85" y="34.6" width="27.61" height="1.41" transform="translate(-0.23 0.17) rotate(-0.37)"/><path class="cls-3" d="M33.58,7.55l-5.81,0,0-5.81,5.81,0ZM29.05,6.29l3.24,0,0-3.24L29,3.05Z"/><polygon class="cls-2" points="31.84 18.3 22.18 18.36 22.14 12.61 23.43 12.6 23.46 17.07 30.55 17.02 30.51 10.37 26.35 10.4 26.34 9.11 31.79 9.08 31.84 18.3"/><path class="cls-2" d="M26.22,12.52,18,12.58l-.05-8.22,8.22-.05Zm-7.45-.73,6.67,0,0-6.67-6.67,0Z"/><path class="cls-2" d="M26.36,61.49a3.92,3.92,0,0,1-3.88-3.29,28.62,28.62,0,0,1-7.7-2.89A3.89,3.89,0,0,1,8.1,52.62a3.82,3.82,0,0,1,.46-1.85,29,29,0,0,1-6.41-9l-.44-1H3.83l.19.41a27.12,27.12,0,0,0,5.86,8.19A3.86,3.86,0,0,1,12,48.7a4,4,0,0,1,1.52.3l2.72-3-.88-.8-.2-.21-.09-.1a36.17,36.17,0,0,1-2.75-3.06A31.3,31.3,0,0,1,10,38.45l-.48-.82.92-.22a2.62,2.62,0,0,0,.45-.17l.57-.25.32.53a29.79,29.79,0,0,0,4.63,5.86,17.84,17.84,0,0,0,12.32,4.8A18.22,18.22,0,0,0,42,17.56a30,30,0,0,0-5.83-4.86l-.33-.21.08-2.31,1,.65a32.21,32.21,0,0,1,6,4.91l3.61-2.19a3.74,3.74,0,0,1-.21-1.21A3.87,3.87,0,0,1,47,10.15a27.44,27.44,0,0,0-4.94-3.64l-.35-.2V4.07l1.05.6a29.4,29.4,0,0,1,5.7,4.19,3.84,3.84,0,0,1,1.77-.44,3.88,3.88,0,0,1,3,6.37A28.62,28.62,0,0,1,57,24.45,3.9,3.9,0,0,1,59.17,31h0a3.81,3.81,0,0,1-1.77,1,28.6,28.6,0,0,1-2.34,9.42,3.85,3.85,0,0,1,1.16,2.74,3.9,3.9,0,0,1-3.87,3.92,3.83,3.83,0,0,1-1.22-.2,29.09,29.09,0,0,1-6.28,5.83,3.38,3.38,0,0,1,.05.57,3.89,3.89,0,0,1-6.64,2.79A28.75,28.75,0,0,1,30,58.78a3.88,3.88,0,0,1-3.68,2.71Zm0-6.25a2.35,2.35,0,1,0,1.67,4h0a2.32,2.32,0,0,0,.55-.91v-.27a1.17,1.17,0,0,1,0-.19,1.31,1.31,0,0,1,0-.23l-.07-.75h.11A2.36,2.36,0,0,0,26.33,55.24ZM41,52a2.35,2.35,0,0,0,0,4.7v.15h0v-.15a2.35,2.35,0,0,0,2.33-2.36,2.21,2.21,0,0,0-.11-.64l-.16-.27-.35-.57,0,0A2.32,2.32,0,0,0,41,52Zm-13.37,1.9a3.9,3.9,0,0,1,2.52,2.9,26.92,26.92,0,0,0,7.1-1.39,3.86,3.86,0,0,1,1.49-4.22L37.6,48a20.26,20.26,0,0,1-8.91,2.13l-.69,0Zm-11.88-.3a25.93,25.93,0,0,0,6.93,2.63,3.88,3.88,0,0,1,3-2.51L26.06,50A20.16,20.16,0,0,1,17.88,47L15,50.16a3.87,3.87,0,0,1,.85,2.41A3.76,3.76,0,0,1,15.75,53.63ZM10.27,51A2.35,2.35,0,0,0,12,54.94v.15h0v-.15a2.34,2.34,0,0,0,1.57-.63l.14-.32a2.56,2.56,0,0,1,.14-.25l.06-.12.26-.85.14.08a2.14,2.14,0,0,0,0-.27A2.35,2.35,0,0,0,12,50.25a2.32,2.32,0,0,0-.93.2l0,0ZM41,50.48A3.88,3.88,0,0,1,44.05,52a27.13,27.13,0,0,0,5.42-5.06,3.88,3.88,0,0,1-1-3.44l-3.57-1.71A20.53,20.53,0,0,1,39.31,47l1.23,3.5Zm10.62-4a2.24,2.24,0,0,0,.73.12,2.35,2.35,0,0,0,2.35-2.36h0a2.33,2.33,0,0,0-4.44-1l-.12.25a2.32,2.32,0,0,0,.45,2.33l.47.33a2.39,2.39,0,0,0,.35.23Zm-35.35-.56v0l0,0ZM46,40.11l3.36,1.61.19-.21a3.88,3.88,0,0,1,2.75-1.16h0a3.71,3.71,0,0,1,1,.15,26.67,26.67,0,0,0,2.08-8.43A3.89,3.89,0,0,1,55,24.66a26.65,26.65,0,0,0-3.38-8.73,3.83,3.83,0,0,1-1.4.28,3.89,3.89,0,0,1-2.67-1l-3.36,2A20,20,0,0,1,46,40.11Zm10.28-9.59.25.05.16,0,.45,0a2.26,2.26,0,0,0,.92-.56,2.33,2.33,0,0,0,.68-1.67A2.35,2.35,0,0,0,56.4,26v-.15h0V26a2.35,2.35,0,0,0-1.63,4,2.27,2.27,0,0,0,1,.58ZM48.47,10.76a2.35,2.35,0,1,0,1.76-.8,2.36,2.36,0,0,0-.68.1l-.73.45a2.34,2.34,0,0,0-.34.24Z"/></svg>