<svg id="Layer_1" data-name="Layer 1" xmlns="http://www.w3.org/2000/svg" viewBox="0 0 96.82 93.98"><defs><style>.cls-1{fill:#2c569a;}.cls-2,.cls-3,.cls-4,.cls-5,.cls-6{fill:none;stroke:#2c569a;stroke-miterlimit:10;}.cls-2,.cls-3{stroke-width:3px;}.cls-3,.cls-4,.cls-5,.cls-6{stroke-linecap:round;}.cls-5{stroke-dasharray:1.01 2.02;}.cls-6{stroke-dasharray:1.01 2.02 1.01 2.02;}</style></defs><title>monetiza_icon</title><circle class="cls-1" cx="68.5" cy="41.76" r="3.47"/><path class="cls-1" d="M67.91,54.14C67.6,53.7,60.38,43.33,60.38,40c0-3.57,3.64-6.47,8.11-6.47s8.11,2.9,8.11,6.47c0,3.38-7.22,13.75-7.52,14.19L68.5,55Zm.59-19.58c-3.73,0-6.76,2.42-6.76,5.39,0,2.35,4.43,9.38,6.76,12.8,2.32-3.42,6.76-10.45,6.76-12.8C75.25,37,72.22,34.56,68.5,34.56Z"/><circle class="cls-1" cx="29.74" cy="53.58" r="3.81"/><path class="cls-1" d="M29.09,67.37c-.34-.48-8.27-11.89-8.27-15.6,0-3.92,4-7.11,8.92-7.11s8.92,3.19,8.92,7.11c0,3.71-7.94,15.12-8.27,15.6l-.65.93Zm.65-21.53c-4.1,0-7.43,2.66-7.43,5.93,0,2.59,4.87,10.31,7.43,14.08,2.55-3.76,7.43-11.49,7.43-14.08C37.17,48.5,33.83,45.84,29.74,45.84Z"/><rect class="cls-2" x="3.5" y="26.12" width="89.11" height="55.37"/><line class="cls-3" x1="7.94" y1="19.99" x2="88.87" y2="19.99"/><line class="cls-3" x1="11.26" y1="13.99" x2="84.23" y2="13.99"/><line class="cls-3" x1="14.85" y1="7.99" x2="80.64" y2="7.99"/><path class="cls-1" d="M71.5,51.81l-.61.94c4.38.35,7,1.62,7,2.57,0,1.11-3.57,2.67-9.38,2.67s-9.38-1.55-9.38-2.67c0-1,2.61-2.22,7-2.57l-.61-.94c-3.95.41-7.37,1.61-7.37,3.51C58.12,57.7,63.47,59,68.5,59s10.38-1.29,10.38-3.67C78.88,53.41,75.45,52.21,71.5,51.81Z"/><path class="cls-1" d="M32.74,64.85l-.61.94c4.38.35,7,1.62,7,2.57,0,1.11-3.57,2.67-9.38,2.67s-9.38-1.55-9.38-2.67c0-1,2.61-2.22,7-2.57l-.61-.94c-3.95.41-7.37,1.61-7.37,3.51,0,2.38,5.35,3.67,10.38,3.67s10.38-1.29,10.38-3.67C40.12,66.45,36.69,65.25,32.74,64.85Z"/><path class="cls-4" d="M57.44,53.79h-.5"/><path class="cls-5" d="M54.93,53.84l-2,.08"/><path class="cls-6" d="M51.9,54c-3.42.23-7.17.73-7.46,1.86-.5,2-2.17,4.14,1.5,6.64,1,.68,15.17,1.71,16,2.36S64.11,67.4,64,68.44c-.13,1.68-1.59,2.55-6.09,2.89-3.57.26-12.71-.31-16.32-.56"/><path class="cls-4" d="M40.61,70.69l-.5,0"/></svg>