<svg id="Capa_1" data-name="Capa 1" xmlns="http://www.w3.org/2000/svg" xmlns:xlink="http://www.w3.org/1999/xlink" viewBox="0 0 63 63"><defs><style>.cls-1{fill:#929292;}.cls-2{fill:#62498a;}.cls-3{fill:url(#Degradado_sin_nombre_36);}</style><linearGradient id="Degradado_sin_nombre_36" x1="29.15" y1="171.88" x2="11.01" y2="190.02" gradientTransform="matrix(1.07, 0, 0, -1.07, 16.41, 237.9)" gradientUnits="userSpaceOnUse"><stop offset="0" stop-color="#6d6d6d" stop-opacity="0"/><stop offset="1" stop-color="#424242"/></linearGradient></defs><title>online_icon</title><path class="cls-1" d="M33.21,5.9a25.6,25.6,0,1,0,25.6,25.6A25.6,25.6,0,0,0,33.21,5.9ZM51.4,16.66a23.37,23.37,0,0,1,5.25,13.62H45.09A51.12,51.12,0,0,0,43.76,19.5,32.28,32.28,0,0,0,51,16.87Zm-12.65-8a23.43,23.43,0,0,1,11,6.12,27,27,0,0,1-3.41,1.43c-1,.35-2.07.66-3.17.92a31.58,31.58,0,0,0-1.24-3.38,18.57,18.57,0,0,0-3.16-5.09Zm-15,21.6A48.5,48.5,0,0,1,25,20a46.91,46.91,0,0,0,8.17.7,46.91,46.91,0,0,0,8.17-.7,48.5,48.5,0,0,1,1.28,10.29Zm18.89,2.44A48.49,48.49,0,0,1,41.38,43,47.86,47.86,0,0,0,25,43a48.5,48.5,0,0,1-1.28-10.29ZM33.21,8.33c2.3,0,4.65,2.34,6.43,6.41a29.07,29.07,0,0,1,1.08,2.89,44.62,44.62,0,0,1-7.51.62,44.62,44.62,0,0,1-7.51-.62,29.07,29.07,0,0,1,1.08-2.89C28.56,10.67,30.9,8.33,33.21,8.33Zm-5.51.34a18.57,18.57,0,0,0-3.16,5.09,31.66,31.66,0,0,0-1.24,3.38,30.12,30.12,0,0,1-6.58-2.35A23.43,23.43,0,0,1,27.7,8.67Zm-13,8.4.33-.41.39.21a32.35,32.35,0,0,0,7.25,2.62,46.43,46.43,0,0,0-.87,4.68,54.82,54.82,0,0,0-.47,6.11H9.76A23.36,23.36,0,0,1,14.69,17.07ZM15,46.34A23.39,23.39,0,0,1,9.76,32.72H21.32A51.19,51.19,0,0,0,22.65,43.5q-1.7.41-3.29.95a29.43,29.43,0,0,0-4,1.67Zm1.7,1.87a30.1,30.1,0,0,1,6.58-2.35,31.69,31.69,0,0,0,1.24,3.38,18.58,18.58,0,0,0,3.16,5.09A23.44,23.44,0,0,1,16.71,48.2Zm16.5,6.46c-2.3,0-4.65-2.34-6.43-6.41a29.09,29.09,0,0,1-1.08-2.89,45.67,45.67,0,0,1,15,0,29.07,29.07,0,0,1-1.08,2.89C37.86,52.33,35.51,54.67,33.21,54.67Zm5.51-.34a18.57,18.57,0,0,0,3.16-5.09,31.69,31.69,0,0,0,1.24-3.38A30.09,30.09,0,0,1,49.7,48.2,23.44,23.44,0,0,1,38.72,54.33ZM51,46.13a32.28,32.28,0,0,0-7.25-2.62,51.1,51.1,0,0,0,1.33-10.79H56.65A23.37,23.37,0,0,1,51.4,46.34Z"/><path class="cls-2" d="M61.26,16.61c-.88-1.91-3.61-1.84-4.5-1.82a22.29,22.29,0,0,0-3,.3,26,26,0,0,1,1.85,2.63,11.66,11.66,0,0,1,2.19-.06.57.57,0,0,1,.41.89A11.17,11.17,0,0,1,56.91,20a39,39,0,0,1-5.16,4.07c-1.93,1.32-3.33,2.74-5.75,4.12a1.42,1.42,0,1,0,1.42,2.47,73.91,73.91,0,0,0,6.73-4.79,44.11,44.11,0,0,0,3.92-3.06,20.5,20.5,0,0,0,1.65-1.63A5.94,5.94,0,0,0,61.5,17.7,2.57,2.57,0,0,0,61.26,16.61Z"/><path class="cls-3" d="M41.88,49.23a18.54,18.54,0,0,1-3.16,5.09,23.44,23.44,0,0,0,11-6.12,30.05,30.05,0,0,0-6.58-2.35A31.86,31.86,0,0,1,41.88,49.23Z"/><path class="cls-2" d="M43.36,30.11l-7.57-1.39a.81.81,0,0,0-.86,1.15l1.48,2.94q-1.52.74-3.09,1.46a132.52,132.52,0,0,1-19.7,7.45c-1.67.45-3.07.77-4.24,1a16.77,16.77,0,0,1-4.21.35.57.57,0,0,1-.42-.89A17.21,17.21,0,0,1,8,39,25.92,25.92,0,0,1,7.26,36a28.57,28.57,0,0,0-4,3.54c-.6.67-2.41,2.7-1.53,4.61.77,1.67,2.94,1.83,4.08,1.83h.43a26.49,26.49,0,0,0,4.57-.6q1.23-.25,2.62-.61a130.89,130.89,0,0,0,21.08-7.86q1.61-.74,3.17-1.51l1.42,2.81a.81.81,0,0,0,1.44,0l3.4-6.91A.81.81,0,0,0,43.36,30.11Z"/></svg>