<svg id="Capa_1" data-name="Capa 1" xmlns="http://www.w3.org/2000/svg" viewBox="0 0 62 62"><defs><style>.cls-1{fill:#9a9a9a;}.cls-2{fill:#fff;}</style></defs><title>personalizado_icon</title><path class="cls-1" d="M9.57,16A7.51,7.51,0,0,0,17,9.57H58.85a1.07,1.07,0,1,0,0-2.14H17A7.5,7.5,0,1,0,9.57,16m0-12.85A5.36,5.36,0,1,1,4.21,8.5,5.36,5.36,0,0,1,9.57,3.15"/><path class="cls-1" d="M52.43,46A7.51,7.51,0,0,0,45,52.42H3.15a1.07,1.07,0,0,0,0,2.15H45A7.5,7.5,0,1,0,52.43,46m0,12.85a5.36,5.36,0,1,1,5.36-5.36,5.37,5.37,0,0,1-5.36,5.36"/><path class="cls-2" d="M58.86,29.93h-20a7.72,7.72,0,0,0-15.34,0H3.14a1.07,1.07,0,1,0,0,2.14H23.62a7.71,7.71,0,0,0,15.21,0h20a1.07,1.07,0,1,0,0-2.14"/></svg>