<svg id="Layer_1" data-name="Layer 1" xmlns="http://www.w3.org/2000/svg" viewBox="0 0 96.82 93.98"><defs><style>.cls-1{fill:#2c569a;}</style></defs><title>potencial_icon</title><path class="cls-1" d="M32.21,76.71H20.68c-.41,0-.74.9-.74,2s.33,2,.74,2H32.21c.41,0,.74-.9.74-2S32.62,76.71,32.21,76.71Z"/><path class="cls-1" d="M35.39,78.73c0,1.11.55,2,1.23,2H55.66c.67,0,1.22-.9,1.22-2s-.55-2-1.22-2H36.61C35.94,76.71,35.39,77.61,35.39,78.73Z"/><path class="cls-1" d="M21.86,40.07H42.38c.73,0,1.32-.9,1.32-2s-.59-2-1.32-2H21.86c-.73,0-1.32.9-1.32,2S21.13,40.07,21.86,40.07Z"/><path class="cls-1" d="M22,33.09h6.66c.24,0,.43-.9.43-2s-.19-2-.43-2H22c-.24,0-.43.9-.43,2S21.73,33.09,22,33.09Z"/><path class="cls-1" d="M31.17,33.09h11c.39,0,.71-.9.71-2s-.32-2-.71-2h-11c-.39,0-.71.9-.71,2S30.78,33.09,31.17,33.09Z"/><path class="cls-1" d="M26.39,67.36V44.67a1.84,1.84,0,0,0-2-1.59,1.84,1.84,0,0,0-2,1.59v24.7a1.7,1.7,0,0,0,1.47,1.52,1.66,1.66,0,0,0,1.16.49H52.75a2,2,0,0,0,0-4Z"/><path class="cls-1" d="M81,2.89H32.78V14.14H28.66v7.12h-6A10.88,10.88,0,0,0,11.76,32.13V79.76A10.88,10.88,0,0,0,22.64,90.64H66.38V78.21H73.7V70.55H81ZM62.35,86.6H22.64a6.84,6.84,0,0,1-6.84-6.84V32.13a6.85,6.85,0,0,1,6.84-6.85H45.55v9.25a7.55,7.55,0,0,0,7.55,7.55h9.25ZM49.58,34.53v-6.4l9.92,9.92H53.1A3.53,3.53,0,0,1,49.58,34.53ZM70.7,75.21H66.38V40.07a2.15,2.15,0,0,0,0-.39h0a1.94,1.94,0,0,0-.17-.48.79.79,0,0,0-.06-.13,2.33,2.33,0,0,0-.31-.41h0L49,21.84a1.9,1.9,0,0,0-.43-.32l-.1-.06a2,2,0,0,0-.4-.15,1.68,1.68,0,0,0-.29,0l-.15,0h-16V17.14h39ZM78,67.55H73.7V14.14H35.78V5.89H78Z"/><path class="cls-1" d="M31.7,58.46l-3.82,4.26a1,1,0,0,0,1.49,1.33l3.34-3.74,6.25-1L46.9,50a1,1,0,1,0-1.52-1.3l-7.45,8.72Z"/></svg>