<svg id="Capa_1" data-name="Capa 1" xmlns="http://www.w3.org/2000/svg" viewBox="0 0 17 17"><defs><style>.cls-1{fill:#706f6f;}</style></defs><title>reloj_card_academy_icon</title><path class="cls-1" d="M8.5.5a8,8,0,1,0,8,8A8,8,0,0,0,8.5.5Zm5.89,8.34H15.8a7.31,7.31,0,0,1-7,7V14.39a.34.34,0,0,0-.69,0V15.8a7.31,7.31,0,0,1-7-7H2.61a.34.34,0,0,0,0-.69H1.2a7.31,7.31,0,0,1,7-7V2.61a.34.34,0,0,0,.69,0V1.2a7.31,7.31,0,0,1,7,7H14.39a.34.34,0,1,0,0,.69Z"/><path class="cls-1" d="M8.84,8.36V4.9a.34.34,0,0,0-.69,0V8.5a.34.34,0,0,0,.1.24l3.37,3.43a.34.34,0,1,0,.49-.48h0Z"/></svg>