<svg id="Capa_1" data-name="Capa 1" xmlns="http://www.w3.org/2000/svg" viewBox="0 0 62 62"><defs><style>.cls-1{fill:#706f6f;}.cls-2{fill:#62498a;}</style></defs><title>resultados_contrastables_icon</title><path class="cls-1" d="M31.45,5.29H30.13A1.28,1.28,0,0,1,28.86,4V4a3,3,0,0,0-3-3h-.07a3,3,0,0,0-3,3V4a1.28,1.28,0,0,1-1.28,1.28H20.26a2.55,2.55,0,0,0-2.55,2.55v.05a2.55,2.55,0,0,0,2.55,2.55H31.45A2.55,2.55,0,0,0,34,7.88V7.83A2.55,2.55,0,0,0,31.45,5.29Zm-5.6,0A1.29,1.29,0,1,1,27.14,4,1.29,1.29,0,0,1,25.86,5.29Z"/><path class="cls-1" d="M31.58,55H10a3.43,3.43,0,0,1-3.43-3.43V10.43C6.57,8.54,8.11,7,9.14,7h6.95a4.43,4.43,0,0,0-.09.88,4.27,4.27,0,0,0,4.26,4.26H31.45A4.3,4.3,0,0,0,35.63,7h5.23c2.75,0,4.29,1.54,4.29,3.43V36.19c-.28,0-.57,0-.86,0a13.65,13.65,0,0,0-3.43.45V16.43h-30V50.71H30.61a13.63,13.63,0,0,0,1,4.29Z"/><path class="cls-2" d="M44.29,38.71A11.14,11.14,0,1,0,55.43,49.86,11.14,11.14,0,0,0,44.29,38.71Zm7.28,8.85-6.86,7.71a1.71,1.71,0,0,1-2.35.2l-4.29-3.43a1.71,1.71,0,0,1,2.14-2.68l3,2.41L49,45.29a1.71,1.71,0,1,1,2.56,2.28Z"/><path class="cls-1" d="M36.57,31H22.86a.86.86,0,0,1-.86-.86v-.86a.86.86,0,0,1,.86-.86H36.57a.86.86,0,0,1,.86.86v.86a.86.86,0,0,1-.86.86Z"/><path class="cls-1" d="M36.57,23.29H22.86a.86.86,0,0,1-.86-.86v-.86a.86.86,0,0,1,.86-.86H36.57a.86.86,0,0,1,.86.86v.86a.86.86,0,0,1-.86.86Z"/><path class="cls-1" d="M32.29,37.86H22.86A.86.86,0,0,1,22,37v-.86a.86.86,0,0,1,.86-.86h9.43a.86.86,0,0,1,.86.86V37a.86.86,0,0,1-.86.86Z"/><path class="cls-1" d="M30.57,45.57H22.86a.86.86,0,0,1-.86-.86v-.86a.86.86,0,0,1,.86-.86h7.71a.86.86,0,0,1,.86.86v.86a.86.86,0,0,1-.86.86Z"/><path class="cls-1" d="M20.36,20.12,17.2,23.67a.79.79,0,0,1-1.08.09l-2-1.58a.79.79,0,1,1,1-1.23l1.39,1.11,2.66-3a.79.79,0,1,1,1.18,1Z"/><path class="cls-1" d="M20.36,27.74,17.2,31.29a.79.79,0,0,1-1.08.09l-2-1.58a.79.79,0,1,1,1-1.23l1.39,1.11,2.66-3a.79.79,0,1,1,1.18,1Z"/><path class="cls-1" d="M20.36,35,17.2,38.59a.79.79,0,0,1-1.08.09l-2-1.58a.79.79,0,1,1,1-1.23L16.52,37l2.66-3a.79.79,0,1,1,1.18,1Z"/><path class="cls-1" d="M20.36,42.38,17.2,45.93a.79.79,0,0,1-1.08.09l-2-1.58a.79.79,0,1,1,1-1.23l1.39,1.11,2.66-3a.79.79,0,1,1,1.18,1Z"/></svg>