<svg id="Layer_1" data-name="Layer 1" xmlns="http://www.w3.org/2000/svg" viewBox="0 0 96.82 93.98"><defs><style>.cls-1{fill:#2c569a;}</style></defs><title>smartmoney_icon</title><path class="cls-1" d="M65.29,46.91a7,7,0,1,1,7-7A7,7,0,0,1,65.29,46.91Z"/><path class="cls-1" d="M64.1,66C63.48,65.11,49,44.37,49,37.62c0-7.13,7.3-12.93,16.27-12.93s16.27,5.8,16.27,12.93c0,6.75-14.47,27.49-15.08,28.37l-1.19,1.69Zm1.19-39.14c-7.47,0-13.55,4.83-13.55,10.77,0,4.7,8.89,18.75,13.55,25.59,4.65-6.84,13.55-20.89,13.55-25.59C78.84,31.68,72.76,26.85,65.29,26.85Z"/><path class="cls-1" d="M85.68,37H81c-.63,1.17-1.27,2.36-2,3.54h3.83L90.49,73H6.88L18.43,40.59H51.55c-.69-1.18-1.36-2.37-2-3.54H15.93L1.86,76.54H95Z"/><path class="cls-1" d="M45.5,53.71c0-.68-.85-1.21-2.47-1.62a.9.9,0,0,0,.09-.37V48.94h0c-.14-2.31-9.63-2.38-10.72-2.38s-10.58.07-10.72,2.38h0v2.78c0,.75,1,1.34,2.42,1.78a.81.81,0,0,0,0,.2h0v2.78c-1.56.4-2.34.93-2.38,1.59h0v2.78c0,.53.47,1,1.25,1.34a.89.89,0,0,0-.05.25h0v2.78c0,1.32,3,2.14,6.29,2.52h.09c.64.07,1.29.13,1.93.17h.06c.81.05,1.61.08,2.36.08s1.55,0,2.36-.08H36c.64,0,1.29-.09,1.93-.17h0l.07,0c3.31-.38,6.28-1.2,6.29-2.53V62.45h0c0-.49-.44-.89-1.26-1.23a.89.89,0,0,0,.08-.36v-2.6c1.42-.44,2.38-1,2.38-1.77V53.71ZM42.28,61l-.13.12a3.57,3.57,0,0,1-1,.55v-1.9a5.92,5.92,0,0,0,1.19-.55v1.64a.25.25,0,0,1,0,.13M33.4,62.83h-.61v-2h.39l1.2,0v2h-.26l-.73,0m-1.73,0h-.61l-.64,0v-2l1.2,0H32v2h-.33m-7.18-.91h0V60c.37.1.77.19,1.19.28v1.94q-.55-.12-1-.24l-.15,0m8.37,3.29h.33v2q-.82,0-1.59,0v-2l1.2,0h.06m1.51,0,1.2,0v2q-.77,0-1.59,0v-2h.39ZM37.56,65v2l-1.19.11v-2l1.19-.1m.8-.09,1.19-.17v1.95c-.37.07-.77.13-1.19.18Zm2-.31c.42-.08.82-.17,1.19-.28v1.92c-.35.1-.75.2-1.19.29Zm-13.51,0v1.94c-.44-.09-.84-.19-1.19-.29V64.37c.37.1.77.19,1.19.28m.8.14,1.19.17v2c-.42-.05-.82-.12-1.19-.18Zm2,.25,1.19.1v2L29.61,67Zm-1-2.37h-.21v-2l1.19.1v2l-1-.08m-1-2.08v2l-1.19-.18v-2l1.19.17m7.81,2.14-.27,0v-2l1.19-.1v2l-.76.07h-.17m1.72-.18v-2l1.19-.17v2l-1.19.18m2-2.27c.42-.08.82-.17,1.19-.28v1.92q-.53.15-1.19.29Zm-5.43-1.82-.88,0h0v-2l1.2,0h.39v2h-.66m-9.27-5.68V50.86c.37.1.77.19,1.19.28v1.94l-.15,0-.61-.14-.43-.12m7.22-1.07H32v2c-.54,0-1.07,0-1.59,0v-2l1.2,0Zm1.51,0,1.2,0v2h-.22l-.81,0h-.56v-2h.39Zm9.05.2h0l-.15.11a3.87,3.87,0,0,1-.94.49V50.62a6,6,0,0,0,1.19-.55v1.64a.32.32,0,0,1-.09.2m-5.07,1.5v-2c.41,0,.81-.1,1.19-.17v1.95l-1.19.18m2-.34V51.14c.42-.08.82-.18,1.19-.28v1.91c-.36.1-.76.2-1.19.3m-2.78-1.54v2l-1.19.1v-2l1.19-.1m-7.95,2v-2l1.19.1v2l-1.19-.1m-.8-2.06v2l-.24,0-.15,0-.67-.11-.13,0V51.28l1.19.17m4.27,6.92h-.16L31,58.29l-.15,0h0v-2l1.19.1v2h-.1m-2.63-.3L28.82,58V56l1.19.17v2l-.71-.1h0M28,55.9v1.94c-.44-.09-.84-.19-1.19-.3V55.63c.37.1.77.19,1.19.27m-2-.52v1.89a2.46,2.46,0,0,1-1.16-.71l0,0V54.84a5.94,5.94,0,0,0,1.19.55m9.53,1.09,1.2,0v2l-1.59,0v-2h.39ZM40.7,58l-.53.09-.32,0-.31,0v-2L40.74,56v2h0M38,58.34l-.45,0v-2l1.19-.1v2l-.7.07h0m4.54-.74-.62.16-.3.07-.1,0V55.9c.42-.08.82-.17,1.19-.27v1.92l-.17,0m2.16-3.87c0,.27-.65.63-1.74,1a26.66,26.66,0,0,1-6.39,1l-.43,0H33.41l-.43,0a26.66,26.66,0,0,1-6.39-1c-1.08-.34-1.69-.69-1.74-1v0l.08,0,.48.11c.79.17,1.66.31,2.6.42h0c.63.07,1.29.13,2,.17h0l1.48.06H33a30.5,30.5,0,0,0,7.42-.92l.25-.07.15,0,.42-.14.07,0,.33-.13.09,0,.32-.15.13-.07.14-.08.08,0c1.78.39,2.25.81,2.29,1M32.39,47.35c6.55,0,9.86,1,9.93,1.62,0,.27-.66.62-1.74,1a26.74,26.74,0,0,1-6.39,1l-.43,0H31l-.43,0a26.72,26.72,0,0,1-6.39-1c-1.08-.33-1.69-.69-1.74-1,.06-.59,3.38-1.62,9.93-1.62m-9.93,4.37V50.07a5.88,5.88,0,0,0,1.19.55v1.9c-.77-.29-1.19-.58-1.19-.8m1.93,5.5,0,0a6.75,6.75,0,0,0,3.07,1.3l.1,0,.31.07a30.22,30.22,0,0,0,4.5.57h0c.54,0,1.09.05,1.65.06h1.57l1.54-.06h0a30.67,30.67,0,0,0,4.59-.59,7.21,7.21,0,0,1-1.17.46,27.46,27.46,0,0,1-6.87,1H31l-.43,0a26.77,26.77,0,0,1-6.39-1c-1.09-.34-1.7-.7-1.74-1s.45-.52,1.92-.88m-1.93,3.64V59.21a5.87,5.87,0,0,0,1.19.55v1.9l-.23-.09h0c-.63-.26-1-.51-1-.71m1.19,4.37V63.58a5.93,5.93,0,0,0,1.19.55V66c-.77-.29-1.19-.58-1.19-.8m18.67.8v-1.9a5.91,5.91,0,0,0,1.19-.55v1.64c0,.22-.42.51-1.19.8m1.18-3.55c0,.27-.65.63-1.74,1a26.74,26.74,0,0,1-6.39,1l-.43,0H32.22l-.43,0a26.69,26.69,0,0,1-6.39-1c-1.05-.32-1.66-.67-1.73-.94l.37.12h0l.33.1.13,0,.19.05a28.89,28.89,0,0,0,5.29.75h0c.62,0,1.25.06,1.88.07h1.17c.58,0,1.15,0,1.71-.06h0c.68,0,1.34-.1,2-.17h0c.71-.08,1.38-.18,2-.3l.38-.07.08,0a10.76,10.76,0,0,0,2.89-.94l.11-.06.13-.08.12-.07c.79.28,1,.53,1,.63m0-5.19v-1.9a6,6,0,0,0,1.19-.55v1.64c0,.22-.42.51-1.19.8"/></svg>