<svg id="Capa_1" data-name="Capa 1" xmlns="http://www.w3.org/2000/svg" viewBox="0 0 17 17"><defs><style>.cls-1{fill:#706f6f;}</style></defs><title>temas_card_academy_icon</title><path class="cls-1" d="M15.36,6c-.07-.49-.07-1.32.38-1.61l0,0c.37-.12.62-.28.42-.51L10.73,2.25,1.91,3.48S.9,3.63,1,5.2a2,2,0,0,0,.55,1.48l-.72.22c-.2.22.06.39.42.51l0,0c.45.28.44,1.12.38,1.61C0,9.49.6,9.64.6,9.64L1,9.72a1.72,1.72,0,0,0-.45,1.47c.09,1.57.92,1.68.92,1.68L7.2,14.75l8.71-2.11s.58-.15-1-.61c-.07-.48-.07-1.32.38-1.61l0,0c.37-.12.62-.28.42-.51l-.38-.11c.25-.15.63-.55.69-1.59a1.84,1.84,0,0,0-.36-1.37l.75-.18s.58-.15-1-.61ZM8.07,6l1.46-.3,5-1,.74-.15A2.55,2.55,0,0,0,15,5.94c0,.09,0,.16,0,.22l-.81.2L8,7.92ZM1.78,7.54l.74.15,4.76,1,.42.09L8.93,9,9,10.92,2.57,9.32l-.63-.16c0-.06,0-.14,0-.22a2.57,2.57,0,0,0-.19-1.4ZM1.49,5.12a1.24,1.24,0,0,1,.22-.87A.39.39,0,0,1,2,4.13h.07l3.8,1.24L7.76,6,7.7,7.92,2.38,6.42,2.1,6.35h0s-.55-.05-.57-1.22Zm5.73,8.79-5.6-1.57h0S1,12.29,1,11.12a1.24,1.24,0,0,1,.22-.87.39.39,0,0,1,.29-.12h.07L7.27,12Zm7.34-2c0,.09,0,.16,0,.22L7.52,13.91,7.58,12l1.51-.31.22.05.83-.27L14,10.68l.74-.15a2.55,2.55,0,0,0-.19,1.4Zm.39-2.6h0l-.53.15L9.3,10.91,9.24,9l1.66-.54,4-1.31a.42.42,0,0,1,.37.11,1.24,1.24,0,0,1,.22.87c0,1.17-.55,1.22-.57,1.22Zm0,0"/></svg>