<svg id="Capa_1" data-name="Capa 1" xmlns="http://www.w3.org/2000/svg" viewBox="0 0 62 62"><defs><style>.cls-1{fill:#fff;}.cls-2{fill:#9a9a9a;}</style></defs><title>veloz_icon</title><path class="cls-1" d="M33.47,29.75a1.18,1.18,0,1,1-1.18-1.18,1.18,1.18,0,0,1,1.18,1.18"/><path class="cls-2" d="M47.69,14.83a5,5,0,1,0,0,7.08,5,5,0,0,0,0-7.08M46,20.25a2.65,2.65,0,1,1,0-3.76,2.66,2.66,0,0,1,0,3.76"/><path class="cls-2" d="M15.69,49.22a1.17,1.17,0,0,0-1.58.53l-1.4,2.81a3.89,3.89,0,0,1-3.2,2.14l-1.63.11a.7.7,0,0,1-.74-.74l.11-1.63a3.88,3.88,0,0,1,2.14-3.2l2.81-1.4a1.18,1.18,0,1,0-1-2.11l-2.82,1.4a6.25,6.25,0,0,0-3.43,5.14L4.8,53.9a3,3,0,0,0,3,3.26H8L9.68,57a6.24,6.24,0,0,0,5.14-3.43l1.4-2.82a1.18,1.18,0,0,0-.53-1.58"/><path class="cls-1" d="M60.19,2a2.72,2.72,0,0,0-2.08-.78L57,1.25a35.52,35.52,0,0,0-25.22,13l-2.58,3.18-6.75-.2h0A19.91,19.91,0,0,0,8.25,23.1L1.34,30a1.18,1.18,0,0,0,.77,2l14.63.75-.6.73A1.19,1.19,0,0,0,16,34.81c.23.42.47.83.72,1.24l-3.47,4.12a1.17,1.17,0,0,0-.16,1.26,15.31,15.31,0,0,0,7.36,7.36,1.18,1.18,0,0,0,.5.11,1.17,1.17,0,0,0,.74-.26c.75-.61,1.61-1.32,2.44-2l1.77-1.47c.34.21.68.4,1,.59a1.19,1.19,0,0,0,.56.14,1.17,1.17,0,0,0,.72-.25L29,45l.76,14.69a1.17,1.17,0,0,0,.75,1,1.16,1.16,0,0,0,.42.08,1.17,1.17,0,0,0,.83-.35l6.91-6.91A19.9,19.9,0,0,0,44.59,39.4V33l2.73-2.12A35.36,35.36,0,0,0,61,4.61L61,4A2.73,2.73,0,0,0,60.19,2M4.88,29.81l5-5a17.57,17.57,0,0,1,12.49-5.18l4.93.15L18.58,30.51Zm17.77,15-1.83,1.52a13,13,0,0,1-5.24-5.24l2.54-3A27.08,27.08,0,0,0,20.64,41h0a27.3,27.3,0,0,0,3.24,2.79l-1.23,1M42.24,39.4a17.57,17.57,0,0,1-5.18,12.5l-5,5-.7-13.69,10.92-8.48ZM58.62,4.49A33,33,0,0,1,45.87,29L27.42,43.3a24.89,24.89,0,0,1-4.26-3.15l6.22-6.22a1.18,1.18,0,0,0-1.66-1.66L21.5,38.48a24.93,24.93,0,0,1-3-4.11L33.61,15.74A33.12,33.12,0,0,1,57.16,3.6l1.1-.07a.37.37,0,0,1,.28.11.37.37,0,0,1,.11.28Z"/></svg>